<?xml version="1.0" encoding="utf-8" standalone="no"?>
<!DOCTYPE svg PUBLIC "-//W3C//DTD SVG 1.1//EN"
  "http://www.w3.org/Graphics/SVG/1.1/DTD/svg11.dtd">
<!-- Created with matplotlib (http://matplotlib.org/) -->
<svg height="345pt" version="1.1" viewBox="0 0 460 345" width="460pt" xmlns="http://www.w3.org/2000/svg" xmlns:xlink="http://www.w3.org/1999/xlink">
 <defs>
  <style type="text/css">
*{stroke-linecap:butt;stroke-linejoin:round;}
  </style>
 </defs>
 <g id="figure_1">
  <g id="patch_1">
   <path d="M 0 345.6 
L 460.8 345.6 
L 460.8 0 
L 0 0 
z
" style="fill:#ffffff;"/>
  </g>
  <g id="axes_1">
   <g id="patch_2">
    <path d="M 57.6 159.744 
L 216.32 159.744 
L 216.32 41.472 
L 57.6 41.472 
z
" style="fill:#ffffff;"/>
   </g>
   <g id="matplotlib.axis_1">
    <g id="xtick_1">
     <g id="line2d_1">
      <path clip-path="url(#p935718d5f1)" d="M 64.814545 159.744 
L 64.814545 41.472 
" style="fill:none;stroke:#b0b0b0;stroke-linecap:square;stroke-width:0.8;"/>
     </g>
     <g id="line2d_2">
      <defs>
       <path d="M 0 0 
L 0 3.5 
" id="mb6c067a67a" style="stroke:#000000;stroke-width:0.8;"/>
      </defs>
      <g>
       <use style="stroke:#000000;stroke-width:0.8;" x="64.814545" xlink:href="#mb6c067a67a" y="159.744"/>
      </g>
     </g>
     <g id="text_1">
      <!-- 0 -->
      <defs>
       <path d="M 31.78125 66.40625 
Q 24.171875 66.40625 20.328125 58.90625 
Q 16.5 51.421875 16.5 36.375 
Q 16.5 21.390625 20.328125 13.890625 
Q 24.171875 6.390625 31.78125 6.390625 
Q 39.453125 6.390625 43.28125 13.890625 
Q 47.125 21.390625 47.125 36.375 
Q 47.125 51.421875 43.28125 58.90625 
Q 39.453125 66.40625 31.78125 66.40625 
z
M 31.78125 74.21875 
Q 44.046875 74.21875 50.515625 64.515625 
Q 56.984375 54.828125 56.984375 36.375 
Q 56.984375 17.96875 50.515625 8.265625 
Q 44.046875 -1.421875 31.78125 -1.421875 
Q 19.53125 -1.421875 13.0625 8.265625 
Q 6.59375 17.96875 6.59375 36.375 
Q 6.59375 54.828125 13.0625 64.515625 
Q 19.53125 74.21875 31.78125 74.21875 
z
" id="DejaVuSans-30"/>
      </defs>
      <g transform="translate(61.633295 174.342437)scale(0.1 -0.1)">
       <use xlink:href="#DejaVuSans-30"/>
      </g>
     </g>
    </g>
    <g id="xtick_2">
     <g id="line2d_3">
      <path clip-path="url(#p935718d5f1)" d="M 113.072375 159.744 
L 113.072375 41.472 
" style="fill:none;stroke:#b0b0b0;stroke-linecap:square;stroke-width:0.8;"/>
     </g>
     <g id="line2d_4">
      <g>
       <use style="stroke:#000000;stroke-width:0.8;" x="113.072375" xlink:href="#mb6c067a67a" y="159.744"/>
      </g>
     </g>
     <g id="text_2">
      <!-- 100 -->
      <defs>
       <path d="M 12.40625 8.296875 
L 28.515625 8.296875 
L 28.515625 63.921875 
L 10.984375 60.40625 
L 10.984375 69.390625 
L 28.421875 72.90625 
L 38.28125 72.90625 
L 38.28125 8.296875 
L 54.390625 8.296875 
L 54.390625 0 
L 12.40625 0 
z
" id="DejaVuSans-31"/>
      </defs>
      <g transform="translate(103.528625 174.342437)scale(0.1 -0.1)">
       <use xlink:href="#DejaVuSans-31"/>
       <use x="63.623047" xlink:href="#DejaVuSans-30"/>
       <use x="127.246094" xlink:href="#DejaVuSans-30"/>
      </g>
     </g>
    </g>
    <g id="xtick_3">
     <g id="line2d_5">
      <path clip-path="url(#p935718d5f1)" d="M 161.330204 159.744 
L 161.330204 41.472 
" style="fill:none;stroke:#b0b0b0;stroke-linecap:square;stroke-width:0.8;"/>
     </g>
     <g id="line2d_6">
      <g>
       <use style="stroke:#000000;stroke-width:0.8;" x="161.330204" xlink:href="#mb6c067a67a" y="159.744"/>
      </g>
     </g>
     <g id="text_3">
      <!-- 200 -->
      <defs>
       <path d="M 19.1875 8.296875 
L 53.609375 8.296875 
L 53.609375 0 
L 7.328125 0 
L 7.328125 8.296875 
Q 12.9375 14.109375 22.625 23.890625 
Q 32.328125 33.6875 34.8125 36.53125 
Q 39.546875 41.84375 41.421875 45.53125 
Q 43.3125 49.21875 43.3125 52.78125 
Q 43.3125 58.59375 39.234375 62.25 
Q 35.15625 65.921875 28.609375 65.921875 
Q 23.96875 65.921875 18.8125 64.3125 
Q 13.671875 62.703125 7.8125 59.421875 
L 7.8125 69.390625 
Q 13.765625 71.78125 18.9375 73 
Q 24.125 74.21875 28.421875 74.21875 
Q 39.75 74.21875 46.484375 68.546875 
Q 53.21875 62.890625 53.21875 53.421875 
Q 53.21875 48.921875 51.53125 44.890625 
Q 49.859375 40.875 45.40625 35.40625 
Q 44.1875 33.984375 37.640625 27.21875 
Q 31.109375 20.453125 19.1875 8.296875 
z
" id="DejaVuSans-32"/>
      </defs>
      <g transform="translate(151.786454 174.342437)scale(0.1 -0.1)">
       <use xlink:href="#DejaVuSans-32"/>
       <use x="63.623047" xlink:href="#DejaVuSans-30"/>
       <use x="127.246094" xlink:href="#DejaVuSans-30"/>
      </g>
     </g>
    </g>
    <g id="xtick_4">
     <g id="line2d_7">
      <path clip-path="url(#p935718d5f1)" d="M 209.588033 159.744 
L 209.588033 41.472 
" style="fill:none;stroke:#b0b0b0;stroke-linecap:square;stroke-width:0.8;"/>
     </g>
     <g id="line2d_8">
      <g>
       <use style="stroke:#000000;stroke-width:0.8;" x="209.588033" xlink:href="#mb6c067a67a" y="159.744"/>
      </g>
     </g>
     <g id="text_4">
      <!-- 300 -->
      <defs>
       <path d="M 40.578125 39.3125 
Q 47.65625 37.796875 51.625 33 
Q 55.609375 28.21875 55.609375 21.1875 
Q 55.609375 10.40625 48.1875 4.484375 
Q 40.765625 -1.421875 27.09375 -1.421875 
Q 22.515625 -1.421875 17.65625 -0.515625 
Q 12.796875 0.390625 7.625 2.203125 
L 7.625 11.71875 
Q 11.71875 9.328125 16.59375 8.109375 
Q 21.484375 6.890625 26.8125 6.890625 
Q 36.078125 6.890625 40.9375 10.546875 
Q 45.796875 14.203125 45.796875 21.1875 
Q 45.796875 27.640625 41.28125 31.265625 
Q 36.765625 34.90625 28.71875 34.90625 
L 20.21875 34.90625 
L 20.21875 43.015625 
L 29.109375 43.015625 
Q 36.375 43.015625 40.234375 45.921875 
Q 44.09375 48.828125 44.09375 54.296875 
Q 44.09375 59.90625 40.109375 62.90625 
Q 36.140625 65.921875 28.71875 65.921875 
Q 24.65625 65.921875 20.015625 65.03125 
Q 15.375 64.15625 9.8125 62.3125 
L 9.8125 71.09375 
Q 15.4375 72.65625 20.34375 73.4375 
Q 25.25 74.21875 29.59375 74.21875 
Q 40.828125 74.21875 47.359375 69.109375 
Q 53.90625 64.015625 53.90625 55.328125 
Q 53.90625 49.265625 50.4375 45.09375 
Q 46.96875 40.921875 40.578125 39.3125 
z
" id="DejaVuSans-33"/>
      </defs>
      <g transform="translate(200.044283 174.342437)scale(0.1 -0.1)">
       <use xlink:href="#DejaVuSans-33"/>
       <use x="63.623047" xlink:href="#DejaVuSans-30"/>
       <use x="127.246094" xlink:href="#DejaVuSans-30"/>
      </g>
     </g>
    </g>
   </g>
   <g id="matplotlib.axis_2">
    <g id="ytick_1">
     <g id="line2d_9">
      <path clip-path="url(#p935718d5f1)" d="M 57.6 154.492541 
L 216.32 154.492541 
" style="fill:none;stroke:#b0b0b0;stroke-linecap:square;stroke-width:0.8;"/>
     </g>
     <g id="line2d_10">
      <defs>
       <path d="M 0 0 
L -3.5 0 
" id="m6c1930ee96" style="stroke:#000000;stroke-width:0.8;"/>
      </defs>
      <g>
       <use style="stroke:#000000;stroke-width:0.8;" x="57.6" xlink:href="#m6c1930ee96" y="154.492541"/>
      </g>
     </g>
     <g id="text_5">
      <!-- 0.0 -->
      <defs>
       <path d="M 10.6875 12.40625 
L 21 12.40625 
L 21 0 
L 10.6875 0 
z
" id="DejaVuSans-2e"/>
      </defs>
      <g transform="translate(34.696875 158.291759)scale(0.1 -0.1)">
       <use xlink:href="#DejaVuSans-30"/>
       <use x="63.623047" xlink:href="#DejaVuSans-2e"/>
       <use x="95.410156" xlink:href="#DejaVuSans-30"/>
      </g>
     </g>
    </g>
    <g id="ytick_2">
     <g id="line2d_11">
      <path clip-path="url(#p935718d5f1)" d="M 57.6 128.986638 
L 216.32 128.986638 
" style="fill:none;stroke:#b0b0b0;stroke-linecap:square;stroke-width:0.8;"/>
     </g>
     <g id="line2d_12">
      <g>
       <use style="stroke:#000000;stroke-width:0.8;" x="57.6" xlink:href="#m6c1930ee96" y="128.986638"/>
      </g>
     </g>
     <g id="text_6">
      <!-- 0.2 -->
      <g transform="translate(34.696875 132.785857)scale(0.1 -0.1)">
       <use xlink:href="#DejaVuSans-30"/>
       <use x="63.623047" xlink:href="#DejaVuSans-2e"/>
       <use x="95.410156" xlink:href="#DejaVuSans-32"/>
      </g>
     </g>
    </g>
    <g id="ytick_3">
     <g id="line2d_13">
      <path clip-path="url(#p935718d5f1)" d="M 57.6 103.480735 
L 216.32 103.480735 
" style="fill:none;stroke:#b0b0b0;stroke-linecap:square;stroke-width:0.8;"/>
     </g>
     <g id="line2d_14">
      <g>
       <use style="stroke:#000000;stroke-width:0.8;" x="57.6" xlink:href="#m6c1930ee96" y="103.480735"/>
      </g>
     </g>
     <g id="text_7">
      <!-- 0.4 -->
      <defs>
       <path d="M 37.796875 64.3125 
L 12.890625 25.390625 
L 37.796875 25.390625 
z
M 35.203125 72.90625 
L 47.609375 72.90625 
L 47.609375 25.390625 
L 58.015625 25.390625 
L 58.015625 17.1875 
L 47.609375 17.1875 
L 47.609375 0 
L 37.796875 0 
L 37.796875 17.1875 
L 4.890625 17.1875 
L 4.890625 26.703125 
z
" id="DejaVuSans-34"/>
      </defs>
      <g transform="translate(34.696875 107.279954)scale(0.1 -0.1)">
       <use xlink:href="#DejaVuSans-30"/>
       <use x="63.623047" xlink:href="#DejaVuSans-2e"/>
       <use x="95.410156" xlink:href="#DejaVuSans-34"/>
      </g>
     </g>
    </g>
    <g id="ytick_4">
     <g id="line2d_15">
      <path clip-path="url(#p935718d5f1)" d="M 57.6 77.974833 
L 216.32 77.974833 
" style="fill:none;stroke:#b0b0b0;stroke-linecap:square;stroke-width:0.8;"/>
     </g>
     <g id="line2d_16">
      <g>
       <use style="stroke:#000000;stroke-width:0.8;" x="57.6" xlink:href="#m6c1930ee96" y="77.974833"/>
      </g>
     </g>
     <g id="text_8">
      <!-- 0.6 -->
      <defs>
       <path d="M 33.015625 40.375 
Q 26.375 40.375 22.484375 35.828125 
Q 18.609375 31.296875 18.609375 23.390625 
Q 18.609375 15.53125 22.484375 10.953125 
Q 26.375 6.390625 33.015625 6.390625 
Q 39.65625 6.390625 43.53125 10.953125 
Q 47.40625 15.53125 47.40625 23.390625 
Q 47.40625 31.296875 43.53125 35.828125 
Q 39.65625 40.375 33.015625 40.375 
z
M 52.59375 71.296875 
L 52.59375 62.3125 
Q 48.875 64.0625 45.09375 64.984375 
Q 41.3125 65.921875 37.59375 65.921875 
Q 27.828125 65.921875 22.671875 59.328125 
Q 17.53125 52.734375 16.796875 39.40625 
Q 19.671875 43.65625 24.015625 45.921875 
Q 28.375 48.1875 33.59375 48.1875 
Q 44.578125 48.1875 50.953125 41.515625 
Q 57.328125 34.859375 57.328125 23.390625 
Q 57.328125 12.15625 50.6875 5.359375 
Q 44.046875 -1.421875 33.015625 -1.421875 
Q 20.359375 -1.421875 13.671875 8.265625 
Q 6.984375 17.96875 6.984375 36.375 
Q 6.984375 53.65625 15.1875 63.9375 
Q 23.390625 74.21875 37.203125 74.21875 
Q 40.921875 74.21875 44.703125 73.484375 
Q 48.484375 72.75 52.59375 71.296875 
z
" id="DejaVuSans-36"/>
      </defs>
      <g transform="translate(34.696875 81.774051)scale(0.1 -0.1)">
       <use xlink:href="#DejaVuSans-30"/>
       <use x="63.623047" xlink:href="#DejaVuSans-2e"/>
       <use x="95.410156" xlink:href="#DejaVuSans-36"/>
      </g>
     </g>
    </g>
    <g id="ytick_5">
     <g id="line2d_17">
      <path clip-path="url(#p935718d5f1)" d="M 57.6 52.46893 
L 216.32 52.46893 
" style="fill:none;stroke:#b0b0b0;stroke-linecap:square;stroke-width:0.8;"/>
     </g>
     <g id="line2d_18">
      <g>
       <use style="stroke:#000000;stroke-width:0.8;" x="57.6" xlink:href="#m6c1930ee96" y="52.46893"/>
      </g>
     </g>
     <g id="text_9">
      <!-- 0.8 -->
      <defs>
       <path d="M 31.78125 34.625 
Q 24.75 34.625 20.71875 30.859375 
Q 16.703125 27.09375 16.703125 20.515625 
Q 16.703125 13.921875 20.71875 10.15625 
Q 24.75 6.390625 31.78125 6.390625 
Q 38.8125 6.390625 42.859375 10.171875 
Q 46.921875 13.96875 46.921875 20.515625 
Q 46.921875 27.09375 42.890625 30.859375 
Q 38.875 34.625 31.78125 34.625 
z
M 21.921875 38.8125 
Q 15.578125 40.375 12.03125 44.71875 
Q 8.5 49.078125 8.5 55.328125 
Q 8.5 64.0625 14.71875 69.140625 
Q 20.953125 74.21875 31.78125 74.21875 
Q 42.671875 74.21875 48.875 69.140625 
Q 55.078125 64.0625 55.078125 55.328125 
Q 55.078125 49.078125 51.53125 44.71875 
Q 48 40.375 41.703125 38.8125 
Q 48.828125 37.15625 52.796875 32.3125 
Q 56.78125 27.484375 56.78125 20.515625 
Q 56.78125 9.90625 50.3125 4.234375 
Q 43.84375 -1.421875 31.78125 -1.421875 
Q 19.734375 -1.421875 13.25 4.234375 
Q 6.78125 9.90625 6.78125 20.515625 
Q 6.78125 27.484375 10.78125 32.3125 
Q 14.796875 37.15625 21.921875 38.8125 
z
M 18.3125 54.390625 
Q 18.3125 48.734375 21.84375 45.5625 
Q 25.390625 42.390625 31.78125 42.390625 
Q 38.140625 42.390625 41.71875 45.5625 
Q 45.3125 48.734375 45.3125 54.390625 
Q 45.3125 60.0625 41.71875 63.234375 
Q 38.140625 66.40625 31.78125 66.40625 
Q 25.390625 66.40625 21.84375 63.234375 
Q 18.3125 60.0625 18.3125 54.390625 
z
" id="DejaVuSans-38"/>
      </defs>
      <g transform="translate(34.696875 56.268149)scale(0.1 -0.1)">
       <use xlink:href="#DejaVuSans-30"/>
       <use x="63.623047" xlink:href="#DejaVuSans-2e"/>
       <use x="95.410156" xlink:href="#DejaVuSans-38"/>
      </g>
     </g>
    </g>
   </g>
   <g id="line2d_19">
    <path clip-path="url(#p935718d5f1)" d="M 64.814545 154.368 
L 65.297124 153.745297 
L 65.779702 153.371676 
L 66.26228 152.748973 
L 67.227437 152.167784 
L 67.710015 150.299676 
L 68.192593 150.009081 
L 68.675172 148.846703 
L 69.15775 148.763676 
L 69.640328 147.435243 
L 70.122907 147.103135 
L 70.605485 146.604973 
L 71.088063 145.235027 
L 71.570642 144.944432 
L 72.05322 144.44627 
L 72.535798 143.532973 
L 73.500955 142.287567 
L 73.983533 142.163027 
L 74.466111 141.415784 
L 74.94869 139.672216 
L 75.431268 140.502486 
L 75.913846 140.128865 
L 76.879003 137.887135 
L 77.361581 137.721081 
L 78.326738 136.434162 
L 78.809316 136.724756 
L 79.291894 135.769946 
L 79.774472 136.102054 
L 80.257051 134.690594 
L 80.739629 135.437838 
L 81.222207 133.652756 
L 82.187364 133.279135 
L 83.152521 131.037405 
L 83.635099 132.033729 
L 84.117677 131.120432 
L 84.600255 130.871351 
L 85.082834 129.958054 
L 85.565412 129.501405 
L 86.04799 128.172972 
L 87.013147 126.96908 
L 87.495725 127.55027 
L 87.978303 127.633297 
L 88.460882 126.304864 
L 88.94346 126.263351 
L 89.426038 123.025297 
L 89.908617 125.30854 
L 90.391195 124.187675 
L 90.873773 123.606486 
L 91.356351 123.938594 
L 91.83893 124.104648 
L 92.321508 121.904432 
L 93.286665 122.070486 
L 93.769243 120.659026 
L 94.251821 120.119351 
L 94.7344 121.157189 
L 95.216978 120.243891 
L 96.664713 119.039999 
L 97.147291 119.081513 
L 98.595026 117.171891 
L 99.077604 117.587026 
L 99.560182 117.254918 
L 100.042761 116.715243 
L 100.525339 115.594378 
L 101.007917 115.469837 
L 101.490496 114.639567 
L 101.973074 114.805621 
L 102.455652 114.141405 
L 102.93823 112.522378 
L 103.420809 114.68108 
L 103.903387 113.477188 
L 104.385965 112.605405 
L 104.868544 112.729945 
L 105.351122 112.729945 
L 105.8337 112.480864 
L 106.316279 112.563891 
L 106.798857 111.650594 
L 107.281435 111.110918 
L 107.764013 110.280648 
L 108.246592 111.982702 
L 109.211748 109.11827 
L 109.694327 109.450378 
L 110.176905 109.325837 
L 110.659483 108.786161 
L 111.142061 107.748324 
L 111.62464 107.872864 
L 112.107218 108.703134 
L 112.589796 108.246486 
L 113.072375 107.208648 
L 113.554953 108.371026 
L 114.037531 105.257513 
L 114.520109 106.378378 
L 115.002688 106.751999 
L 115.485266 104.966918 
L 115.967844 105.797188 
L 116.450423 104.925405 
L 116.933001 105.46508 
L 117.415579 105.008432 
L 117.898157 103.389405 
L 118.380736 103.472432 
L 118.863314 102.725188 
L 119.345892 102.97427 
L 119.828471 102.434594 
L 120.311049 103.306378 
L 120.793627 100.524972 
L 121.276206 100.109837 
L 121.758784 101.189188 
L 122.241362 99.777729 
L 122.72394 100.02681 
L 123.206519 98.864432 
L 123.689097 98.324756 
L 124.171675 98.075675 
L 124.654254 98.61535 
L 125.136832 96.664215 
L 125.61941 97.369945 
L 126.101988 95.41881 
L 126.584567 95.41881 
L 127.067145 95.252756 
L 127.549723 94.131891 
L 128.032302 93.384648 
L 128.51488 93.675242 
L 128.997458 92.844972 
L 129.480036 92.844972 
L 129.962615 91.391999 
L 130.445193 90.561729 
L 130.927771 91.059891 
L 131.41035 90.022053 
L 131.892928 89.731458 
L 132.375506 89.897512 
L 132.858085 88.029404 
L 133.340663 87.987891 
L 133.823241 87.323675 
L 134.305819 87.074594 
L 134.788398 88.153945 
L 135.270976 86.20281 
L 135.753554 85.580107 
L 136.236133 86.576431 
L 136.718711 86.742485 
L 137.201289 83.96108 
L 137.683867 85.746161 
L 138.649024 82.840215 
L 139.131602 82.383566 
L 139.614181 83.047783 
L 140.096759 82.300539 
L 140.579337 81.843891 
L 141.061915 82.549621 
L 141.544494 82.259026 
L 142.027072 80.473944 
L 142.50965 80.473945 
L 142.992229 81.096647 
L 143.474807 79.103998 
L 143.957385 80.141837 
L 144.439964 78.771891 
L 144.922542 79.270053 
L 145.40512 79.519134 
L 145.887698 80.390917 
L 146.370277 77.651026 
L 146.852855 78.771891 
L 147.818012 76.696215 
L 148.30059 77.318917 
L 148.783168 75.658377 
L 149.265746 77.401944 
L 149.748325 75.948971 
L 150.230903 76.862269 
L 151.19606 76.40562 
L 151.678638 75.824431 
L 152.161216 73.91481 
L 152.643794 73.499674 
L 153.126373 72.669404 
L 153.608951 74.371458 
L 155.056686 73.250593 
L 155.539264 73.043026 
L 156.021843 70.759782 
L 156.504421 72.959998 
L 156.986999 72.212755 
L 157.469577 70.759782 
L 158.434734 71.299458 
L 158.917312 70.469187 
L 159.882469 71.133404 
L 160.365047 69.804971 
L 160.847625 69.804972 
L 161.330204 69.680431 
L 161.812782 69.265295 
L 162.29536 69.763457 
L 163.260517 67.936863 
L 163.743095 68.351998 
L 164.225673 67.06508 
L 164.708252 67.397188 
L 165.19083 66.525404 
L 165.673408 67.148107 
L 166.638565 66.649944 
L 167.121143 66.068755 
L 167.603721 65.155458 
L 168.0863 65.196972 
L 168.568878 64.864863 
L 169.534035 65.155458 
L 170.016613 63.868539 
L 170.499191 63.038268 
L 170.98177 63.743999 
L 172.429504 62.291026 
L 173.394661 60.838053 
L 173.877239 61.336215 
L 174.359818 60.796539 
L 174.842396 60.630485 
L 175.807552 59.302053 
L 176.290131 59.468107 
L 176.772709 58.720864 
L 177.255287 58.637837 
L 177.737866 59.302053 
L 178.220444 58.596323 
L 178.703022 57.392431 
L 179.1856 58.098161 
L 179.668179 56.769728 
L 180.150757 58.264215 
L 180.633335 57.392431 
L 181.115914 57.14335 
L 181.598492 55.690378 
L 182.08107 55.939458 
L 182.563649 57.060323 
L 183.046227 55.441296 
L 183.528805 55.067675 
L 184.493962 55.897945 
L 184.97654 55.814918 
L 185.459118 54.77708 
L 185.941697 54.694053 
L 186.424275 53.448648 
L 186.906853 53.697729 
L 187.389431 53.365621 
L 187.87201 54.361945 
L 188.354588 53.780756 
L 188.837166 52.659891 
L 189.319745 52.950486 
L 189.802323 52.991999 
L 190.284901 52.867459 
L 190.767479 52.369297 
L 191.250058 52.576864 
L 191.732636 51.954162 
L 192.215214 52.28627 
L 192.697793 52.203242 
L 193.180371 50.501189 
L 193.662949 51.123891 
L 194.145528 50.210594 
L 194.628106 51.871134 
L 195.110684 51.040864 
L 195.593262 50.542702 
L 196.075841 50.75027 
L 196.558419 50.75027 
L 197.040997 50.127567 
L 197.523576 50.542702 
L 198.006154 50.376648 
L 198.488732 50.584216 
L 199.453889 50.003026 
L 199.936467 50.459675 
L 200.419045 50.169081 
L 200.901624 49.504864 
L 201.384202 49.587892 
L 202.831937 47.927351 
L 203.314515 48.633081 
L 203.797093 48.674594 
L 204.279672 48.384 
L 204.76225 47.719784 
L 205.244828 47.885838 
L 205.727407 47.304649 
L 206.209985 47.67827 
L 206.692563 47.097081 
L 207.175141 47.80281 
L 207.65772 48.010378 
L 208.140298 47.055568 
L 208.622876 46.848 
L 209.105455 47.180108 
L 209.105455 47.180108 
" style="fill:none;stroke:#1f77b4;stroke-linecap:square;stroke-width:1.5;"/>
   </g>
   <g id="patch_3">
    <path d="M 57.6 159.744 
L 57.6 41.472 
" style="fill:none;stroke:#000000;stroke-linecap:square;stroke-linejoin:miter;stroke-width:0.8;"/>
   </g>
   <g id="patch_4">
    <path d="M 216.32 159.744 
L 216.32 41.472 
" style="fill:none;stroke:#000000;stroke-linecap:square;stroke-linejoin:miter;stroke-width:0.8;"/>
   </g>
   <g id="patch_5">
    <path d="M 57.6 159.744 
L 216.32 159.744 
" style="fill:none;stroke:#000000;stroke-linecap:square;stroke-linejoin:miter;stroke-width:0.8;"/>
   </g>
   <g id="patch_6">
    <path d="M 57.6 41.472 
L 216.32 41.472 
" style="fill:none;stroke:#000000;stroke-linecap:square;stroke-linejoin:miter;stroke-width:0.8;"/>
   </g>
   <g id="text_10">
    <!-- acc -->
    <defs>
     <path d="M 34.28125 27.484375 
Q 23.390625 27.484375 19.1875 25 
Q 14.984375 22.515625 14.984375 16.5 
Q 14.984375 11.71875 18.140625 8.90625 
Q 21.296875 6.109375 26.703125 6.109375 
Q 34.1875 6.109375 38.703125 11.40625 
Q 43.21875 16.703125 43.21875 25.484375 
L 43.21875 27.484375 
z
M 52.203125 31.203125 
L 52.203125 0 
L 43.21875 0 
L 43.21875 8.296875 
Q 40.140625 3.328125 35.546875 0.953125 
Q 30.953125 -1.421875 24.3125 -1.421875 
Q 15.921875 -1.421875 10.953125 3.296875 
Q 6 8.015625 6 15.921875 
Q 6 25.140625 12.171875 29.828125 
Q 18.359375 34.515625 30.609375 34.515625 
L 43.21875 34.515625 
L 43.21875 35.40625 
Q 43.21875 41.609375 39.140625 45 
Q 35.0625 48.390625 27.6875 48.390625 
Q 23 48.390625 18.546875 47.265625 
Q 14.109375 46.140625 10.015625 43.890625 
L 10.015625 52.203125 
Q 14.9375 54.109375 19.578125 55.046875 
Q 24.21875 56 28.609375 56 
Q 40.484375 56 46.34375 49.84375 
Q 52.203125 43.703125 52.203125 31.203125 
z
" id="DejaVuSans-61"/>
     <path d="M 48.78125 52.59375 
L 48.78125 44.1875 
Q 44.96875 46.296875 41.140625 47.34375 
Q 37.3125 48.390625 33.40625 48.390625 
Q 24.65625 48.390625 19.8125 42.84375 
Q 14.984375 37.3125 14.984375 27.296875 
Q 14.984375 17.28125 19.8125 11.734375 
Q 24.65625 6.203125 33.40625 6.203125 
Q 37.3125 6.203125 41.140625 7.25 
Q 44.96875 8.296875 48.78125 10.40625 
L 48.78125 2.09375 
Q 45.015625 0.34375 40.984375 -0.53125 
Q 36.96875 -1.421875 32.421875 -1.421875 
Q 20.0625 -1.421875 12.78125 6.34375 
Q 5.515625 14.109375 5.515625 27.296875 
Q 5.515625 40.671875 12.859375 48.328125 
Q 20.21875 56 33.015625 56 
Q 37.15625 56 41.109375 55.140625 
Q 45.0625 54.296875 48.78125 52.59375 
z
" id="DejaVuSans-63"/>
    </defs>
    <g transform="translate(126.685 35.472)scale(0.12 -0.12)">
     <use xlink:href="#DejaVuSans-61"/>
     <use x="61.279297" xlink:href="#DejaVuSans-63"/>
     <use x="116.259766" xlink:href="#DejaVuSans-63"/>
    </g>
   </g>
  </g>
  <g id="axes_2">
   <g id="patch_7">
    <path d="M 256 159.744 
L 414.72 159.744 
L 414.72 41.472 
L 256 41.472 
z
" style="fill:#ffffff;"/>
   </g>
   <g id="matplotlib.axis_3">
    <g id="xtick_5">
     <g id="line2d_20">
      <path clip-path="url(#pd08ed3e776)" d="M 263.214545 159.744 
L 263.214545 41.472 
" style="fill:none;stroke:#b0b0b0;stroke-linecap:square;stroke-width:0.8;"/>
     </g>
     <g id="line2d_21">
      <g>
       <use style="stroke:#000000;stroke-width:0.8;" x="263.214545" xlink:href="#mb6c067a67a" y="159.744"/>
      </g>
     </g>
     <g id="text_11">
      <!-- 0 -->
      <g transform="translate(260.033295 174.342437)scale(0.1 -0.1)">
       <use xlink:href="#DejaVuSans-30"/>
      </g>
     </g>
    </g>
    <g id="xtick_6">
     <g id="line2d_22">
      <path clip-path="url(#pd08ed3e776)" d="M 311.472375 159.744 
L 311.472375 41.472 
" style="fill:none;stroke:#b0b0b0;stroke-linecap:square;stroke-width:0.8;"/>
     </g>
     <g id="line2d_23">
      <g>
       <use style="stroke:#000000;stroke-width:0.8;" x="311.472375" xlink:href="#mb6c067a67a" y="159.744"/>
      </g>
     </g>
     <g id="text_12">
      <!-- 100 -->
      <g transform="translate(301.928625 174.342437)scale(0.1 -0.1)">
       <use xlink:href="#DejaVuSans-31"/>
       <use x="63.623047" xlink:href="#DejaVuSans-30"/>
       <use x="127.246094" xlink:href="#DejaVuSans-30"/>
      </g>
     </g>
    </g>
    <g id="xtick_7">
     <g id="line2d_24">
      <path clip-path="url(#pd08ed3e776)" d="M 359.730204 159.744 
L 359.730204 41.472 
" style="fill:none;stroke:#b0b0b0;stroke-linecap:square;stroke-width:0.8;"/>
     </g>
     <g id="line2d_25">
      <g>
       <use style="stroke:#000000;stroke-width:0.8;" x="359.730204" xlink:href="#mb6c067a67a" y="159.744"/>
      </g>
     </g>
     <g id="text_13">
      <!-- 200 -->
      <g transform="translate(350.186454 174.342437)scale(0.1 -0.1)">
       <use xlink:href="#DejaVuSans-32"/>
       <use x="63.623047" xlink:href="#DejaVuSans-30"/>
       <use x="127.246094" xlink:href="#DejaVuSans-30"/>
      </g>
     </g>
    </g>
    <g id="xtick_8">
     <g id="line2d_26">
      <path clip-path="url(#pd08ed3e776)" d="M 407.988033 159.744 
L 407.988033 41.472 
" style="fill:none;stroke:#b0b0b0;stroke-linecap:square;stroke-width:0.8;"/>
     </g>
     <g id="line2d_27">
      <g>
       <use style="stroke:#000000;stroke-width:0.8;" x="407.988033" xlink:href="#mb6c067a67a" y="159.744"/>
      </g>
     </g>
     <g id="text_14">
      <!-- 300 -->
      <g transform="translate(398.444283 174.342437)scale(0.1 -0.1)">
       <use xlink:href="#DejaVuSans-33"/>
       <use x="63.623047" xlink:href="#DejaVuSans-30"/>
       <use x="127.246094" xlink:href="#DejaVuSans-30"/>
      </g>
     </g>
    </g>
   </g>
   <g id="matplotlib.axis_4">
    <g id="ytick_6">
     <g id="line2d_28">
      <path clip-path="url(#pd08ed3e776)" d="M 256 122.397434 
L 414.72 122.397434 
" style="fill:none;stroke:#b0b0b0;stroke-linecap:square;stroke-width:0.8;"/>
     </g>
     <g id="line2d_29">
      <g>
       <use style="stroke:#000000;stroke-width:0.8;" x="256" xlink:href="#m6c1930ee96" y="122.397434"/>
      </g>
     </g>
     <g id="text_15">
      <!-- 2 -->
      <g transform="translate(242.6375 126.196653)scale(0.1 -0.1)">
       <use xlink:href="#DejaVuSans-32"/>
      </g>
     </g>
    </g>
    <g id="ytick_7">
     <g id="line2d_30">
      <path clip-path="url(#pd08ed3e776)" d="M 256 79.833213 
L 414.72 79.833213 
" style="fill:none;stroke:#b0b0b0;stroke-linecap:square;stroke-width:0.8;"/>
     </g>
     <g id="line2d_31">
      <g>
       <use style="stroke:#000000;stroke-width:0.8;" x="256" xlink:href="#m6c1930ee96" y="79.833213"/>
      </g>
     </g>
     <g id="text_16">
      <!-- 4 -->
      <g transform="translate(242.6375 83.632431)scale(0.1 -0.1)">
       <use xlink:href="#DejaVuSans-34"/>
      </g>
     </g>
    </g>
   </g>
   <g id="line2d_32">
    <path clip-path="url(#pd08ed3e776)" d="M 263.214545 46.848 
L 263.697124 46.97546 
L 264.179702 48.406443 
L 265.627437 61.799233 
L 266.110015 64.730198 
L 267.075172 68.673499 
L 269.005485 75.45521 
L 270.935798 80.737715 
L 272.383533 83.491458 
L 272.866111 84.238425 
L 273.34869 85.194521 
L 274.313846 86.468471 
L 275.279003 88.112666 
L 275.761581 88.413899 
L 276.244159 89.064848 
L 276.726738 90.007258 
L 277.209316 90.120607 
L 277.691894 90.861736 
L 278.174472 91.251999 
L 281.552521 95.186979 
L 282.035099 95.444002 
L 282.517677 96.125651 
L 283.000255 96.32726 
L 283.482834 97.034599 
L 283.965412 97.413596 
L 284.44799 98.101419 
L 284.930569 98.222983 
L 285.895725 99.250876 
L 286.378303 99.614123 
L 286.860882 100.220495 
L 287.34346 100.627629 
L 287.826038 101.190795 
L 288.308617 101.367768 
L 288.791195 101.707462 
L 289.273773 102.493678 
L 289.756351 102.515024 
L 290.23893 103.055822 
L 290.721508 103.347208 
L 291.204086 103.814858 
L 291.686665 104.104793 
L 292.169243 104.682803 
L 292.651821 105.035371 
L 293.616978 105.475798 
L 296.512448 107.564603 
L 296.995026 108.063454 
L 297.960182 108.397179 
L 298.442761 109.000388 
L 299.407917 109.47992 
L 299.890496 109.846548 
L 300.373074 109.760863 
L 300.855652 110.51439 
L 301.33823 110.758937 
L 302.303387 110.977832 
L 302.785965 111.584895 
L 303.268544 111.607173 
L 304.2337 112.355673 
L 304.716279 112.585534 
L 305.198857 112.655385 
L 306.164013 113.399147 
L 307.12917 113.717814 
L 308.094327 114.316063 
L 308.576905 114.376069 
L 310.02464 115.324017 
L 310.507218 115.483859 
L 310.989796 115.899793 
L 311.954953 116.35005 
L 312.437531 116.765093 
L 312.920109 116.793793 
L 314.367844 117.32179 
L 314.850423 117.836886 
L 315.333001 117.745408 
L 315.815579 117.904156 
L 316.298157 118.524985 
L 316.780736 118.564075 
L 317.263314 119.01329 
L 317.745892 119.140461 
L 318.228471 119.469816 
L 318.711049 119.654641 
L 319.193627 120.347427 
L 321.12394 121.199547 
L 322.571675 122.267711 
L 323.536832 123.031582 
L 324.01941 123.263807 
L 324.984567 124.275588 
L 325.467145 124.420044 
L 325.949723 124.973212 
L 327.397458 125.799374 
L 328.845193 127.057135 
L 329.327771 127.15665 
L 329.81035 127.688664 
L 330.292928 127.834698 
L 330.775506 128.335702 
L 332.705819 129.46563 
L 333.188398 129.669076 
L 334.153554 130.526295 
L 334.636133 130.478496 
L 335.118711 130.797009 
L 335.601289 131.391639 
L 336.083867 131.342729 
L 336.566446 131.635882 
L 337.049024 132.107771 
L 338.014181 132.66763 
L 338.496759 133.072829 
L 338.979337 133.116889 
L 339.944494 133.464191 
L 340.427072 133.88141 
L 341.392229 134.160543 
L 341.874807 134.625021 
L 342.357385 134.511384 
L 342.839964 135.04242 
L 343.322542 135.052078 
L 345.735433 136.173319 
L 346.218012 136.243079 
L 346.70059 136.880279 
L 347.665746 136.869742 
L 348.148325 137.242575 
L 348.630903 137.054544 
L 349.59606 137.799985 
L 351.043794 138.250626 
L 353.456686 139.287736 
L 353.939264 139.312569 
L 354.904421 139.826266 
L 355.386999 139.751827 
L 355.869577 139.83567 
L 356.834734 140.458155 
L 357.799891 140.543076 
L 358.282469 140.717609 
L 358.765047 141.117601 
L 359.247625 141.256704 
L 359.730204 141.24296 
L 360.212782 141.698421 
L 360.69536 141.505435 
L 361.177939 142.148132 
L 361.660517 142.030255 
L 362.143095 142.031251 
L 362.625673 142.621109 
L 363.59083 142.960127 
L 364.073408 142.913066 
L 364.555987 143.293763 
L 365.038565 143.285441 
L 365.521143 143.703877 
L 366.4863 143.627202 
L 366.968878 144.128575 
L 368.416613 144.652374 
L 368.899191 144.935795 
L 369.38177 144.849976 
L 370.829504 146.045685 
L 371.312083 145.661664 
L 371.794661 146.353683 
L 372.277239 146.123773 
L 372.759818 146.534896 
L 373.242396 146.573214 
L 373.724974 146.831378 
L 374.207552 146.86913 
L 375.172709 147.307057 
L 375.655287 147.681793 
L 376.137866 147.528701 
L 377.5856 148.324329 
L 378.068179 148.428986 
L 378.550757 148.193209 
L 379.033335 148.314502 
L 379.515914 148.824648 
L 379.998492 149.133476 
L 380.48107 148.931828 
L 381.446227 149.217573 
L 381.928805 149.632878 
L 382.411383 149.327474 
L 382.893962 149.574711 
L 383.37654 149.478768 
L 383.859118 149.974541 
L 384.824275 150.074695 
L 385.789431 150.225679 
L 386.27201 150.285612 
L 386.754588 150.47827 
L 387.237166 150.5327 
L 387.719745 150.757038 
L 388.684901 151.02088 
L 389.167479 151.233145 
L 389.650058 151.091594 
L 390.132636 151.242047 
L 390.615214 151.123443 
L 391.097793 151.288617 
L 391.580371 151.797879 
L 392.545528 151.644848 
L 393.028106 151.903483 
L 393.510684 151.775648 
L 393.993262 151.985624 
L 394.475841 151.945509 
L 395.440997 152.267981 
L 396.406154 152.596294 
L 396.888732 152.370284 
L 397.37131 152.722267 
L 397.853889 152.530569 
L 398.819045 152.828201 
L 399.301624 152.763218 
L 399.784202 153.178966 
L 400.26678 152.957162 
L 400.749358 153.303923 
L 401.231937 153.473421 
L 403.16225 153.469236 
L 403.644828 153.850047 
L 404.127407 153.870062 
L 404.609985 153.685568 
L 405.575141 154.073786 
L 407.022876 154.130609 
L 407.505455 154.368 
L 407.505455 154.368 
" style="fill:none;stroke:#1f77b4;stroke-linecap:square;stroke-width:1.5;"/>
   </g>
   <g id="patch_8">
    <path d="M 256 159.744 
L 256 41.472 
" style="fill:none;stroke:#000000;stroke-linecap:square;stroke-linejoin:miter;stroke-width:0.8;"/>
   </g>
   <g id="patch_9">
    <path d="M 414.72 159.744 
L 414.72 41.472 
" style="fill:none;stroke:#000000;stroke-linecap:square;stroke-linejoin:miter;stroke-width:0.8;"/>
   </g>
   <g id="patch_10">
    <path d="M 256 159.744 
L 414.72 159.744 
" style="fill:none;stroke:#000000;stroke-linecap:square;stroke-linejoin:miter;stroke-width:0.8;"/>
   </g>
   <g id="patch_11">
    <path d="M 256 41.472 
L 414.72 41.472 
" style="fill:none;stroke:#000000;stroke-linecap:square;stroke-linejoin:miter;stroke-width:0.8;"/>
   </g>
   <g id="text_17">
    <!-- loss -->
    <defs>
     <path d="M 9.421875 75.984375 
L 18.40625 75.984375 
L 18.40625 0 
L 9.421875 0 
z
" id="DejaVuSans-6c"/>
     <path d="M 30.609375 48.390625 
Q 23.390625 48.390625 19.1875 42.75 
Q 14.984375 37.109375 14.984375 27.296875 
Q 14.984375 17.484375 19.15625 11.84375 
Q 23.34375 6.203125 30.609375 6.203125 
Q 37.796875 6.203125 41.984375 11.859375 
Q 46.1875 17.53125 46.1875 27.296875 
Q 46.1875 37.015625 41.984375 42.703125 
Q 37.796875 48.390625 30.609375 48.390625 
z
M 30.609375 56 
Q 42.328125 56 49.015625 48.375 
Q 55.71875 40.765625 55.71875 27.296875 
Q 55.71875 13.875 49.015625 6.21875 
Q 42.328125 -1.421875 30.609375 -1.421875 
Q 18.84375 -1.421875 12.171875 6.21875 
Q 5.515625 13.875 5.515625 27.296875 
Q 5.515625 40.765625 12.171875 48.375 
Q 18.84375 56 30.609375 56 
z
" id="DejaVuSans-6f"/>
     <path d="M 44.28125 53.078125 
L 44.28125 44.578125 
Q 40.484375 46.53125 36.375 47.5 
Q 32.28125 48.484375 27.875 48.484375 
Q 21.1875 48.484375 17.84375 46.4375 
Q 14.5 44.390625 14.5 40.28125 
Q 14.5 37.15625 16.890625 35.375 
Q 19.28125 33.59375 26.515625 31.984375 
L 29.59375 31.296875 
Q 39.15625 29.25 43.1875 25.515625 
Q 47.21875 21.78125 47.21875 15.09375 
Q 47.21875 7.46875 41.1875 3.015625 
Q 35.15625 -1.421875 24.609375 -1.421875 
Q 20.21875 -1.421875 15.453125 -0.5625 
Q 10.6875 0.296875 5.421875 2 
L 5.421875 11.28125 
Q 10.40625 8.6875 15.234375 7.390625 
Q 20.0625 6.109375 24.8125 6.109375 
Q 31.15625 6.109375 34.5625 8.28125 
Q 37.984375 10.453125 37.984375 14.40625 
Q 37.984375 18.0625 35.515625 20.015625 
Q 33.0625 21.96875 24.703125 23.78125 
L 21.578125 24.515625 
Q 13.234375 26.265625 9.515625 29.90625 
Q 5.8125 33.546875 5.8125 39.890625 
Q 5.8125 47.609375 11.28125 51.796875 
Q 16.75 56 26.8125 56 
Q 31.78125 56 36.171875 55.265625 
Q 40.578125 54.546875 44.28125 53.078125 
z
" id="DejaVuSans-73"/>
    </defs>
    <g transform="translate(323.770625 35.472)scale(0.12 -0.12)">
     <use xlink:href="#DejaVuSans-6c"/>
     <use x="27.783203" xlink:href="#DejaVuSans-6f"/>
     <use x="88.964844" xlink:href="#DejaVuSans-73"/>
     <use x="141.064453" xlink:href="#DejaVuSans-73"/>
    </g>
   </g>
  </g>
  <g id="axes_3">
   <g id="patch_12">
    <path d="M 57.6 307.584 
L 216.32 307.584 
L 216.32 189.312 
L 57.6 189.312 
z
" style="fill:#ffffff;"/>
   </g>
   <g id="matplotlib.axis_5">
    <g id="xtick_9">
     <g id="line2d_33">
      <path clip-path="url(#paf555ae4b2)" d="M 64.814545 307.584 
L 64.814545 189.312 
" style="fill:none;stroke:#b0b0b0;stroke-linecap:square;stroke-width:0.8;"/>
     </g>
     <g id="line2d_34">
      <g>
       <use style="stroke:#000000;stroke-width:0.8;" x="64.814545" xlink:href="#mb6c067a67a" y="307.584"/>
      </g>
     </g>
     <g id="text_18">
      <!-- 0 -->
      <g transform="translate(61.633295 322.182437)scale(0.1 -0.1)">
       <use xlink:href="#DejaVuSans-30"/>
      </g>
     </g>
    </g>
    <g id="xtick_10">
     <g id="line2d_35">
      <path clip-path="url(#paf555ae4b2)" d="M 113.072375 307.584 
L 113.072375 189.312 
" style="fill:none;stroke:#b0b0b0;stroke-linecap:square;stroke-width:0.8;"/>
     </g>
     <g id="line2d_36">
      <g>
       <use style="stroke:#000000;stroke-width:0.8;" x="113.072375" xlink:href="#mb6c067a67a" y="307.584"/>
      </g>
     </g>
     <g id="text_19">
      <!-- 100 -->
      <g transform="translate(103.528625 322.182437)scale(0.1 -0.1)">
       <use xlink:href="#DejaVuSans-31"/>
       <use x="63.623047" xlink:href="#DejaVuSans-30"/>
       <use x="127.246094" xlink:href="#DejaVuSans-30"/>
      </g>
     </g>
    </g>
    <g id="xtick_11">
     <g id="line2d_37">
      <path clip-path="url(#paf555ae4b2)" d="M 161.330204 307.584 
L 161.330204 189.312 
" style="fill:none;stroke:#b0b0b0;stroke-linecap:square;stroke-width:0.8;"/>
     </g>
     <g id="line2d_38">
      <g>
       <use style="stroke:#000000;stroke-width:0.8;" x="161.330204" xlink:href="#mb6c067a67a" y="307.584"/>
      </g>
     </g>
     <g id="text_20">
      <!-- 200 -->
      <g transform="translate(151.786454 322.182437)scale(0.1 -0.1)">
       <use xlink:href="#DejaVuSans-32"/>
       <use x="63.623047" xlink:href="#DejaVuSans-30"/>
       <use x="127.246094" xlink:href="#DejaVuSans-30"/>
      </g>
     </g>
    </g>
    <g id="xtick_12">
     <g id="line2d_39">
      <path clip-path="url(#paf555ae4b2)" d="M 209.588033 307.584 
L 209.588033 189.312 
" style="fill:none;stroke:#b0b0b0;stroke-linecap:square;stroke-width:0.8;"/>
     </g>
     <g id="line2d_40">
      <g>
       <use style="stroke:#000000;stroke-width:0.8;" x="209.588033" xlink:href="#mb6c067a67a" y="307.584"/>
      </g>
     </g>
     <g id="text_21">
      <!-- 300 -->
      <g transform="translate(200.044283 322.182437)scale(0.1 -0.1)">
       <use xlink:href="#DejaVuSans-33"/>
       <use x="63.623047" xlink:href="#DejaVuSans-30"/>
       <use x="127.246094" xlink:href="#DejaVuSans-30"/>
      </g>
     </g>
    </g>
   </g>
   <g id="matplotlib.axis_6">
    <g id="ytick_8">
     <g id="line2d_41">
      <path clip-path="url(#paf555ae4b2)" d="M 57.6 302.72742 
L 216.32 302.72742 
" style="fill:none;stroke:#b0b0b0;stroke-linecap:square;stroke-width:0.8;"/>
     </g>
     <g id="line2d_42">
      <g>
       <use style="stroke:#000000;stroke-width:0.8;" x="57.6" xlink:href="#m6c1930ee96" y="302.72742"/>
      </g>
     </g>
     <g id="text_22">
      <!-- 0.0 -->
      <g transform="translate(34.696875 306.526639)scale(0.1 -0.1)">
       <use xlink:href="#DejaVuSans-30"/>
       <use x="63.623047" xlink:href="#DejaVuSans-2e"/>
       <use x="95.410156" xlink:href="#DejaVuSans-30"/>
      </g>
     </g>
    </g>
    <g id="ytick_9">
     <g id="line2d_43">
      <path clip-path="url(#paf555ae4b2)" d="M 57.6 276.133102 
L 216.32 276.133102 
" style="fill:none;stroke:#b0b0b0;stroke-linecap:square;stroke-width:0.8;"/>
     </g>
     <g id="line2d_44">
      <g>
       <use style="stroke:#000000;stroke-width:0.8;" x="57.6" xlink:href="#m6c1930ee96" y="276.133102"/>
      </g>
     </g>
     <g id="text_23">
      <!-- 0.2 -->
      <g transform="translate(34.696875 279.93232)scale(0.1 -0.1)">
       <use xlink:href="#DejaVuSans-30"/>
       <use x="63.623047" xlink:href="#DejaVuSans-2e"/>
       <use x="95.410156" xlink:href="#DejaVuSans-32"/>
      </g>
     </g>
    </g>
    <g id="ytick_10">
     <g id="line2d_45">
      <path clip-path="url(#paf555ae4b2)" d="M 57.6 249.538783 
L 216.32 249.538783 
" style="fill:none;stroke:#b0b0b0;stroke-linecap:square;stroke-width:0.8;"/>
     </g>
     <g id="line2d_46">
      <g>
       <use style="stroke:#000000;stroke-width:0.8;" x="57.6" xlink:href="#m6c1930ee96" y="249.538783"/>
      </g>
     </g>
     <g id="text_24">
      <!-- 0.4 -->
      <g transform="translate(34.696875 253.338002)scale(0.1 -0.1)">
       <use xlink:href="#DejaVuSans-30"/>
       <use x="63.623047" xlink:href="#DejaVuSans-2e"/>
       <use x="95.410156" xlink:href="#DejaVuSans-34"/>
      </g>
     </g>
    </g>
    <g id="ytick_11">
     <g id="line2d_47">
      <path clip-path="url(#paf555ae4b2)" d="M 57.6 222.944465 
L 216.32 222.944465 
" style="fill:none;stroke:#b0b0b0;stroke-linecap:square;stroke-width:0.8;"/>
     </g>
     <g id="line2d_48">
      <g>
       <use style="stroke:#000000;stroke-width:0.8;" x="57.6" xlink:href="#m6c1930ee96" y="222.944465"/>
      </g>
     </g>
     <g id="text_25">
      <!-- 0.6 -->
      <g transform="translate(34.696875 226.743683)scale(0.1 -0.1)">
       <use xlink:href="#DejaVuSans-30"/>
       <use x="63.623047" xlink:href="#DejaVuSans-2e"/>
       <use x="95.410156" xlink:href="#DejaVuSans-36"/>
      </g>
     </g>
    </g>
    <g id="ytick_12">
     <g id="line2d_49">
      <path clip-path="url(#paf555ae4b2)" d="M 57.6 196.350146 
L 216.32 196.350146 
" style="fill:none;stroke:#b0b0b0;stroke-linecap:square;stroke-width:0.8;"/>
     </g>
     <g id="line2d_50">
      <g>
       <use style="stroke:#000000;stroke-width:0.8;" x="57.6" xlink:href="#m6c1930ee96" y="196.350146"/>
      </g>
     </g>
     <g id="text_26">
      <!-- 0.8 -->
      <g transform="translate(34.696875 200.149365)scale(0.1 -0.1)">
       <use xlink:href="#DejaVuSans-30"/>
       <use x="63.623047" xlink:href="#DejaVuSans-2e"/>
       <use x="95.410156" xlink:href="#DejaVuSans-38"/>
      </g>
     </g>
    </g>
   </g>
   <g id="line2d_51">
    <path clip-path="url(#paf555ae4b2)" d="M 64.814545 302.208 
L 65.297124 302.208 
L 65.779702 301.169159 
L 66.26228 301.169159 
L 66.744859 300.130319 
L 67.710015 294.416696 
L 68.192593 297.013797 
L 68.675172 291.819594 
L 69.15775 294.416696 
L 69.640328 291.300174 
L 70.122907 292.339014 
L 70.605485 291.300174 
L 71.088063 289.741913 
L 71.570642 289.741913 
L 72.05322 288.183652 
L 72.535798 289.222493 
L 73.018376 287.664232 
L 73.500955 287.144812 
L 73.983533 287.664232 
L 74.466111 284.54771 
L 74.94869 288.703072 
L 75.431268 284.54771 
L 75.913846 282.989449 
L 76.396424 285.06713 
L 76.879003 285.586551 
L 77.361581 283.508869 
L 77.844159 279.353507 
L 78.326738 281.950608 
L 78.809316 280.911768 
L 79.291894 281.431188 
L 79.774472 276.236985 
L 80.257051 277.795246 
L 81.222207 279.872927 
L 81.704786 274.159304 
L 82.187364 278.834087 
L 82.669942 279.353507 
L 83.635099 275.198145 
L 84.117677 275.717565 
L 84.600255 274.678724 
L 85.082834 277.795246 
L 85.565412 274.159304 
L 86.04799 276.236985 
L 86.530569 271.562202 
L 87.013147 271.042782 
L 87.495725 275.198144 
L 87.978303 271.562203 
L 88.460882 272.081623 
L 88.94346 271.042782 
L 89.426038 272.081623 
L 89.908617 269.484521 
L 90.391195 269.484521 
L 90.873773 270.003942 
L 91.356351 267.926261 
L 91.83893 270.523362 
L 92.321508 271.562203 
L 92.804086 261.173797 
L 93.769243 267.92626 
L 94.251821 268.9651 
L 94.7344 266.887419 
L 95.216978 266.368 
L 95.699556 265.329159 
L 96.182134 266.88742 
L 96.664713 263.770898 
L 97.147291 263.251477 
L 97.629869 260.654377 
L 98.112448 255.979593 
L 98.595026 265.84858 
L 99.077604 262.732058 
L 99.560182 264.290319 
L 100.042761 259.615536 
L 100.525339 260.654376 
L 101.007917 259.615535 
L 101.490496 263.251478 
L 101.973074 259.615536 
L 102.455652 258.057275 
L 102.93823 262.732057 
L 103.420809 259.096115 
L 103.903387 256.499014 
L 104.385965 262.732058 
L 104.868544 255.460173 
L 105.351122 260.134956 
L 105.8337 257.537855 
L 106.316279 259.615536 
L 106.798857 259.615535 
L 107.281435 253.382492 
L 107.764013 253.901913 
L 108.246592 250.26597 
L 108.72917 257.537855 
L 109.694327 252.863072 
L 110.176905 252.863072 
L 110.659483 251.304811 
L 111.142061 254.940753 
L 111.62464 254.421333 
L 112.107218 252.863072 
L 112.589796 248.70771 
L 113.072375 251.824231 
L 113.554953 252.343651 
L 114.037531 253.901912 
L 115.002688 252.863073 
L 115.485266 253.382493 
L 115.967844 249.74655 
L 116.450423 256.499014 
L 116.933001 260.134956 
L 117.415579 251.824232 
L 117.898157 253.901914 
L 118.380736 239.877564 
L 118.863314 250.78539 
L 119.345892 244.032927 
L 119.828471 248.188289 
L 120.311049 243.513507 
L 120.793627 245.591188 
L 121.276206 249.22713 
L 122.241362 243.513507 
L 122.72394 244.032927 
L 123.206519 251.304811 
L 123.689097 240.916406 
L 124.171675 246.110609 
L 124.654254 246.630029 
L 125.136832 244.032926 
L 125.61941 242.994087 
L 126.101988 231.566841 
L 126.584567 245.591188 
L 127.067145 239.358144 
L 127.549723 236.241623 
L 128.032302 240.916406 
L 128.51488 236.241623 
L 128.997458 239.358144 
L 129.480036 239.877565 
L 130.445193 232.605682 
L 130.927771 233.1251 
L 131.41035 244.032927 
L 131.892928 230.528001 
L 132.375506 241.435826 
L 132.858085 238.838724 
L 133.340663 237.280463 
L 133.823241 239.877565 
L 134.305819 240.916405 
L 134.788398 235.202782 
L 135.270976 235.722202 
L 135.753554 230.528 
L 136.236133 234.683362 
L 136.718711 234.163942 
L 137.201289 232.605681 
L 137.683867 240.396985 
L 138.166446 231.56684 
L 138.649024 232.08626 
L 139.131602 230.527999 
L 139.614181 231.566841 
L 140.096759 228.450318 
L 141.544494 231.56684 
L 142.027072 231.047421 
L 142.50965 231.56684 
L 142.992229 229.489159 
L 143.474807 236.761043 
L 143.957385 226.372638 
L 144.439964 224.814376 
L 144.922542 225.853217 
L 145.40512 233.125102 
L 145.887698 223.256116 
L 146.370277 223.256115 
L 146.852855 226.892058 
L 147.335433 227.411478 
L 148.30059 221.178435 
L 148.783168 228.450318 
L 149.265746 221.178434 
L 149.748325 223.775536 
L 150.230903 230.008578 
L 150.713481 220.659013 
L 151.19606 228.969738 
L 152.161216 225.853216 
L 152.643794 227.930899 
L 153.126373 221.697855 
L 153.608951 219.100753 
L 154.091529 222.736697 
L 155.056686 227.411478 
L 155.539264 220.659014 
L 156.021843 218.581334 
L 156.504421 223.256115 
L 156.986999 221.178434 
L 157.469577 222.736695 
L 157.952156 222.736695 
L 158.434734 219.620174 
L 158.917312 219.620173 
L 159.399891 222.217274 
L 159.882469 217.542492 
L 160.365047 218.061912 
L 160.847625 222.217273 
L 161.330204 218.061912 
L 161.812782 227.930898 
L 162.29536 218.061912 
L 162.777939 216.503652 
L 163.260517 218.581334 
L 163.743095 216.503651 
L 164.225673 210.270609 
L 164.708252 216.503651 
L 165.19083 211.828868 
L 165.673408 212.348288 
L 166.155987 221.697855 
L 166.638565 208.192927 
L 167.121143 223.775536 
L 167.603721 211.82887 
L 168.0863 213.906549 
L 168.568878 212.86771 
L 169.051456 211.309447 
L 169.534035 217.023073 
L 170.016613 214.94539 
L 170.499191 209.231765 
L 170.98177 208.192926 
L 171.946926 212.34829 
L 172.429504 212.348288 
L 172.912083 209.751186 
L 173.394661 209.231767 
L 174.359818 224.814376 
L 174.842396 211.309448 
L 175.324974 204.037565 
L 175.807552 214.42597 
L 176.290131 211.309448 
L 176.772709 206.634666 
L 177.255287 211.309448 
L 177.737866 206.115247 
L 178.220444 209.751187 
L 178.703022 209.231767 
L 179.1856 214.425969 
L 179.668179 204.037564 
L 180.150757 209.231767 
L 180.633335 203.518146 
L 181.115914 207.673506 
L 181.598492 208.192928 
L 182.08107 203.518144 
L 182.563649 205.076405 
L 183.046227 203.518144 
L 183.528805 211.828868 
L 184.011383 216.503652 
L 184.493962 197.804523 
L 184.97654 203.518145 
L 185.459118 214.94539 
L 185.941697 204.556986 
L 186.424275 208.192926 
L 186.906853 208.192928 
L 187.389431 201.959883 
L 187.87201 207.154086 
L 188.354588 202.998723 
L 188.837166 201.959884 
L 189.802323 208.712347 
L 190.284901 217.542491 
L 191.250058 203.518146 
L 191.732636 202.998725 
L 192.215214 194.688 
L 192.697793 203.518145 
L 193.180371 206.634666 
L 193.662949 198.843363 
L 194.628106 205.595825 
L 195.110684 199.362781 
L 195.593262 207.673507 
L 196.075841 196.24626 
L 196.558419 201.959885 
L 197.040997 204.556986 
L 198.006154 203.518144 
L 198.488732 196.765681 
L 198.97131 199.882202 
L 199.453889 207.154086 
L 199.936467 203.518144 
L 200.419045 197.285101 
L 200.901624 196.765682 
L 201.384202 199.362784 
L 201.86678 198.843362 
L 202.349358 204.037565 
L 202.831937 198.843362 
L 203.314515 199.362782 
L 203.797093 198.843361 
L 204.279672 199.362783 
L 204.76225 195.20742 
L 205.244828 211.828869 
L 205.727407 203.518146 
L 206.209985 208.712347 
L 206.692563 196.246261 
L 207.175141 196.765681 
L 207.65772 201.440462 
L 208.140298 194.688 
L 208.622876 198.323942 
L 209.105455 196.246261 
L 209.105455 196.246261 
" style="fill:none;stroke:#1f77b4;stroke-linecap:square;stroke-width:1.5;"/>
   </g>
   <g id="patch_13">
    <path d="M 57.6 307.584 
L 57.6 189.312 
" style="fill:none;stroke:#000000;stroke-linecap:square;stroke-linejoin:miter;stroke-width:0.8;"/>
   </g>
   <g id="patch_14">
    <path d="M 216.32 307.584 
L 216.32 189.312 
" style="fill:none;stroke:#000000;stroke-linecap:square;stroke-linejoin:miter;stroke-width:0.8;"/>
   </g>
   <g id="patch_15">
    <path d="M 57.6 307.584 
L 216.32 307.584 
" style="fill:none;stroke:#000000;stroke-linecap:square;stroke-linejoin:miter;stroke-width:0.8;"/>
   </g>
   <g id="patch_16">
    <path d="M 57.6 189.312 
L 216.32 189.312 
" style="fill:none;stroke:#000000;stroke-linecap:square;stroke-linejoin:miter;stroke-width:0.8;"/>
   </g>
   <g id="text_27">
    <!-- val_acc -->
    <defs>
     <path d="M 2.984375 54.6875 
L 12.5 54.6875 
L 29.59375 8.796875 
L 46.6875 54.6875 
L 56.203125 54.6875 
L 35.6875 0 
L 23.484375 0 
z
" id="DejaVuSans-76"/>
     <path d="M 50.984375 -16.609375 
L 50.984375 -23.578125 
L -0.984375 -23.578125 
L -0.984375 -16.609375 
z
" id="DejaVuSans-5f"/>
    </defs>
    <g transform="translate(114.79 183.312)scale(0.12 -0.12)">
     <use xlink:href="#DejaVuSans-76"/>
     <use x="59.179688" xlink:href="#DejaVuSans-61"/>
     <use x="120.458984" xlink:href="#DejaVuSans-6c"/>
     <use x="148.242188" xlink:href="#DejaVuSans-5f"/>
     <use x="198.242188" xlink:href="#DejaVuSans-61"/>
     <use x="259.521484" xlink:href="#DejaVuSans-63"/>
     <use x="314.501953" xlink:href="#DejaVuSans-63"/>
    </g>
   </g>
  </g>
  <g id="axes_4">
   <g id="patch_17">
    <path d="M 256 307.584 
L 414.72 307.584 
L 414.72 189.312 
L 256 189.312 
z
" style="fill:#ffffff;"/>
   </g>
   <g id="matplotlib.axis_7">
    <g id="xtick_13">
     <g id="line2d_52">
      <path clip-path="url(#pafd7c38975)" d="M 263.214545 307.584 
L 263.214545 189.312 
" style="fill:none;stroke:#b0b0b0;stroke-linecap:square;stroke-width:0.8;"/>
     </g>
     <g id="line2d_53">
      <g>
       <use style="stroke:#000000;stroke-width:0.8;" x="263.214545" xlink:href="#mb6c067a67a" y="307.584"/>
      </g>
     </g>
     <g id="text_28">
      <!-- 0 -->
      <g transform="translate(260.033295 322.182437)scale(0.1 -0.1)">
       <use xlink:href="#DejaVuSans-30"/>
      </g>
     </g>
    </g>
    <g id="xtick_14">
     <g id="line2d_54">
      <path clip-path="url(#pafd7c38975)" d="M 311.472375 307.584 
L 311.472375 189.312 
" style="fill:none;stroke:#b0b0b0;stroke-linecap:square;stroke-width:0.8;"/>
     </g>
     <g id="line2d_55">
      <g>
       <use style="stroke:#000000;stroke-width:0.8;" x="311.472375" xlink:href="#mb6c067a67a" y="307.584"/>
      </g>
     </g>
     <g id="text_29">
      <!-- 100 -->
      <g transform="translate(301.928625 322.182437)scale(0.1 -0.1)">
       <use xlink:href="#DejaVuSans-31"/>
       <use x="63.623047" xlink:href="#DejaVuSans-30"/>
       <use x="127.246094" xlink:href="#DejaVuSans-30"/>
      </g>
     </g>
    </g>
    <g id="xtick_15">
     <g id="line2d_56">
      <path clip-path="url(#pafd7c38975)" d="M 359.730204 307.584 
L 359.730204 189.312 
" style="fill:none;stroke:#b0b0b0;stroke-linecap:square;stroke-width:0.8;"/>
     </g>
     <g id="line2d_57">
      <g>
       <use style="stroke:#000000;stroke-width:0.8;" x="359.730204" xlink:href="#mb6c067a67a" y="307.584"/>
      </g>
     </g>
     <g id="text_30">
      <!-- 200 -->
      <g transform="translate(350.186454 322.182437)scale(0.1 -0.1)">
       <use xlink:href="#DejaVuSans-32"/>
       <use x="63.623047" xlink:href="#DejaVuSans-30"/>
       <use x="127.246094" xlink:href="#DejaVuSans-30"/>
      </g>
     </g>
    </g>
    <g id="xtick_16">
     <g id="line2d_58">
      <path clip-path="url(#pafd7c38975)" d="M 407.988033 307.584 
L 407.988033 189.312 
" style="fill:none;stroke:#b0b0b0;stroke-linecap:square;stroke-width:0.8;"/>
     </g>
     <g id="line2d_59">
      <g>
       <use style="stroke:#000000;stroke-width:0.8;" x="407.988033" xlink:href="#mb6c067a67a" y="307.584"/>
      </g>
     </g>
     <g id="text_31">
      <!-- 300 -->
      <g transform="translate(398.444283 322.182437)scale(0.1 -0.1)">
       <use xlink:href="#DejaVuSans-33"/>
       <use x="63.623047" xlink:href="#DejaVuSans-30"/>
       <use x="127.246094" xlink:href="#DejaVuSans-30"/>
      </g>
     </g>
    </g>
   </g>
   <g id="matplotlib.axis_8">
    <g id="ytick_13">
     <g id="line2d_60">
      <path clip-path="url(#pafd7c38975)" d="M 256 273.960803 
L 414.72 273.960803 
" style="fill:none;stroke:#b0b0b0;stroke-linecap:square;stroke-width:0.8;"/>
     </g>
     <g id="line2d_61">
      <g>
       <use style="stroke:#000000;stroke-width:0.8;" x="256" xlink:href="#m6c1930ee96" y="273.960803"/>
      </g>
     </g>
     <g id="text_32">
      <!-- 2 -->
      <g transform="translate(242.6375 277.760022)scale(0.1 -0.1)">
       <use xlink:href="#DejaVuSans-32"/>
      </g>
     </g>
    </g>
    <g id="ytick_14">
     <g id="line2d_62">
      <path clip-path="url(#pafd7c38975)" d="M 256 229.231543 
L 414.72 229.231543 
" style="fill:none;stroke:#b0b0b0;stroke-linecap:square;stroke-width:0.8;"/>
     </g>
     <g id="line2d_63">
      <g>
       <use style="stroke:#000000;stroke-width:0.8;" x="256" xlink:href="#m6c1930ee96" y="229.231543"/>
      </g>
     </g>
     <g id="text_33">
      <!-- 4 -->
      <g transform="translate(242.6375 233.030762)scale(0.1 -0.1)">
       <use xlink:href="#DejaVuSans-34"/>
      </g>
     </g>
    </g>
   </g>
   <g id="line2d_64">
    <path clip-path="url(#pafd7c38975)" d="M 263.214545 194.688 
L 263.697124 195.054256 
L 264.179702 197.546174 
L 265.144859 206.863203 
L 265.627437 211.027544 
L 266.110015 213.5058 
L 267.075172 217.13632 
L 268.522907 222.061953 
L 269.005485 223.270806 
L 269.488063 225.000357 
L 270.45322 227.528415 
L 270.935798 228.077293 
L 271.418376 229.533274 
L 271.900955 230.625 
L 272.383533 231.075991 
L 272.866111 232.251856 
L 273.34869 231.802347 
L 274.313846 234.535397 
L 274.796424 234.280985 
L 275.279003 235.130601 
L 275.761581 236.464178 
L 276.244159 237.042179 
L 276.726738 236.866117 
L 277.209316 238.27323 
L 277.691894 238.466152 
L 278.657051 239.847909 
L 279.139629 238.394773 
L 279.622207 240.889075 
L 280.104786 241.586559 
L 280.587364 239.579838 
L 281.069942 241.671671 
L 281.552521 242.004415 
L 282.035099 243.186311 
L 282.517677 242.703568 
L 283.000255 244.72599 
L 283.482834 244.362697 
L 283.965412 244.242768 
L 284.44799 245.391162 
L 284.930569 246.102474 
L 285.413147 246.406603 
L 285.895725 245.522766 
L 286.378303 247.157027 
L 286.860882 246.67459 
L 287.34346 247.826125 
L 288.791195 249.10092 
L 289.273773 248.927824 
L 289.756351 250.272502 
L 290.23893 250.099543 
L 290.721508 249.2539 
L 291.204086 251.543761 
L 291.686665 251.231198 
L 292.169243 251.626136 
L 292.651821 250.873738 
L 293.1344 252.596865 
L 293.616978 253.345979 
L 294.099556 253.441217 
L 294.582134 253.787572 
L 295.547291 253.995345 
L 296.512448 255.474981 
L 296.995026 255.327765 
L 297.477604 255.418663 
L 297.960182 255.900518 
L 298.442761 256.160045 
L 298.925339 256.601322 
L 299.890496 256.199316 
L 300.373074 257.585935 
L 300.855652 257.867663 
L 301.33823 257.497052 
L 301.820809 257.971825 
L 302.303387 257.745979 
L 303.268544 259.276275 
L 303.751122 259.369653 
L 304.2337 259.075388 
L 304.716279 259.280514 
L 305.198857 259.751772 
L 305.681435 260.586042 
L 307.12917 261.193965 
L 307.611748 260.909171 
L 308.094327 261.088002 
L 308.576905 262.337569 
L 309.059483 262.549093 
L 309.542061 261.069783 
L 310.02464 262.528407 
L 310.507218 261.668378 
L 310.989796 263.413413 
L 311.472375 263.314995 
L 311.954953 263.713971 
L 312.437531 263.232359 
L 312.920109 263.267848 
L 313.402688 264.120445 
L 313.885266 262.250519 
L 314.367844 264.950691 
L 314.850423 264.814204 
L 315.333001 263.929597 
L 315.815579 264.607228 
L 316.298157 263.790088 
L 316.780736 266.507581 
L 317.263314 265.169313 
L 317.745892 266.763313 
L 318.228471 266.305525 
L 318.711049 267.063195 
L 319.193627 267.222137 
L 319.676206 267.799569 
L 320.158784 267.787606 
L 320.641362 268.635043 
L 321.12394 268.050634 
L 321.606519 268.546352 
L 322.089097 267.779776 
L 322.571675 268.094207 
L 323.054254 269.437852 
L 323.536832 269.628023 
L 324.01941 270.087995 
L 324.501988 271.320722 
L 324.984567 270.86606 
L 325.467145 271.932258 
L 325.949723 271.869907 
L 326.432302 272.024761 
L 326.91488 272.4061 
L 327.397458 272.600944 
L 327.880036 273.311253 
L 328.362615 272.721039 
L 328.845193 274.366235 
L 329.327771 274.639402 
L 329.81035 274.276757 
L 330.292928 275.121141 
L 330.775506 272.228495 
L 331.258085 275.222838 
L 331.740663 274.766077 
L 332.223241 274.004987 
L 332.705819 272.643267 
L 333.188398 276.275286 
L 333.670976 276.92744 
L 334.153554 277.797935 
L 334.636133 276.496394 
L 335.118711 277.061044 
L 335.601289 276.539961 
L 336.083867 275.293979 
L 336.566446 278.453658 
L 337.049024 278.622137 
L 337.531602 279.449291 
L 338.014181 279.194697 
L 338.496759 279.172621 
L 339.461915 280.07738 
L 339.944494 280.986949 
L 340.427072 279.889015 
L 340.90965 280.131508 
L 341.392229 279.907476 
L 341.874807 280.162273 
L 342.357385 281.750162 
L 342.839964 281.886732 
L 343.322542 281.333358 
L 343.80512 279.36261 
L 344.287698 281.899165 
L 344.770277 283.666274 
L 345.252855 282.131019 
L 345.735433 281.742149 
L 346.70059 283.982294 
L 347.183168 281.51258 
L 347.665746 283.675229 
L 348.148325 283.039996 
L 348.630903 283.017712 
L 349.113481 285.225057 
L 349.59606 283.397265 
L 350.078638 283.13409 
L 350.561216 284.348004 
L 351.043794 283.434151 
L 351.526373 285.246616 
L 352.491529 285.336152 
L 352.974108 284.413054 
L 353.456686 284.221793 
L 353.939264 287.107188 
L 354.904421 285.699532 
L 355.386999 286.824979 
L 355.869577 286.483902 
L 356.352156 286.980902 
L 356.834734 286.282473 
L 357.317312 287.312825 
L 357.799891 287.189667 
L 358.765047 288.054273 
L 359.247625 287.720469 
L 359.730204 288.473462 
L 360.212782 286.559745 
L 360.69536 288.505409 
L 361.177939 288.254762 
L 361.660517 289.504248 
L 362.143095 289.360217 
L 362.625673 289.880226 
L 363.108252 288.926912 
L 363.59083 290.620021 
L 364.073408 290.980858 
L 364.555987 287.323522 
L 365.038565 291.53547 
L 365.521143 288.376396 
L 366.003721 290.582726 
L 366.4863 290.298465 
L 367.451456 290.84908 
L 367.934035 290.477257 
L 368.899191 291.56046 
L 369.38177 293.2303 
L 370.346926 292.118233 
L 370.829504 291.760329 
L 371.312083 293.512029 
L 371.794661 293.028891 
L 372.277239 292.088692 
L 372.759818 287.066511 
L 373.242396 293.458262 
L 373.724974 293.74352 
L 374.207552 292.532888 
L 374.690131 292.768038 
L 375.172709 294.156823 
L 375.655287 293.661306 
L 376.620444 294.182837 
L 377.103022 293.344527 
L 377.5856 294.436159 
L 378.068179 296.587756 
L 378.550757 294.322157 
L 379.033335 296.712561 
L 379.515914 295.535635 
L 379.998492 294.753944 
L 380.48107 296.036933 
L 380.963649 296.287208 
L 381.446227 296.966794 
L 382.411383 292.830667 
L 382.893962 297.588897 
L 383.37654 296.564395 
L 383.859118 293.677523 
L 384.341697 295.20592 
L 384.824275 295.487034 
L 385.306853 296.182838 
L 385.789431 297.521097 
L 386.27201 296.461228 
L 386.754588 297.738249 
L 387.237166 297.701289 
L 387.719745 296.523447 
L 388.202323 297.23604 
L 388.684901 294.500018 
L 389.650058 297.435205 
L 390.132636 297.020116 
L 390.615214 299.543047 
L 391.097793 298.760639 
L 391.580371 296.778827 
L 392.062949 300.053419 
L 393.028106 297.994104 
L 393.510684 300.130828 
L 393.993262 297.002163 
L 394.475841 299.617179 
L 394.958419 299.080221 
L 395.440997 297.653066 
L 395.923576 298.793659 
L 396.406154 299.57885 
L 396.888732 300.676296 
L 397.37131 299.789066 
L 397.853889 296.645512 
L 398.336467 298.781007 
L 398.819045 300.120726 
L 399.301624 300.190949 
L 399.784202 300.823229 
L 400.26678 300.186578 
L 400.749358 298.689139 
L 401.231937 300.006276 
L 401.714515 299.786041 
L 402.197093 299.798242 
L 402.679672 300.91171 
L 403.16225 300.832537 
L 403.644828 296.583675 
L 404.127407 300.295932 
L 404.609985 297.356762 
L 405.092563 301.870421 
L 405.575141 301.054814 
L 406.05772 301.549644 
L 406.540298 302.208 
L 407.022876 300.896342 
L 407.505455 301.231638 
L 407.505455 301.231638 
" style="fill:none;stroke:#1f77b4;stroke-linecap:square;stroke-width:1.5;"/>
   </g>
   <g id="patch_18">
    <path d="M 256 307.584 
L 256 189.312 
" style="fill:none;stroke:#000000;stroke-linecap:square;stroke-linejoin:miter;stroke-width:0.8;"/>
   </g>
   <g id="patch_19">
    <path d="M 414.72 307.584 
L 414.72 189.312 
" style="fill:none;stroke:#000000;stroke-linecap:square;stroke-linejoin:miter;stroke-width:0.8;"/>
   </g>
   <g id="patch_20">
    <path d="M 256 307.584 
L 414.72 307.584 
" style="fill:none;stroke:#000000;stroke-linecap:square;stroke-linejoin:miter;stroke-width:0.8;"/>
   </g>
   <g id="patch_21">
    <path d="M 256 189.312 
L 414.72 189.312 
" style="fill:none;stroke:#000000;stroke-linecap:square;stroke-linejoin:miter;stroke-width:0.8;"/>
   </g>
   <g id="text_34">
    <!-- val_loss -->
    <g transform="translate(311.875625 183.312)scale(0.12 -0.12)">
     <use xlink:href="#DejaVuSans-76"/>
     <use x="59.179688" xlink:href="#DejaVuSans-61"/>
     <use x="120.458984" xlink:href="#DejaVuSans-6c"/>
     <use x="148.242188" xlink:href="#DejaVuSans-5f"/>
     <use x="198.242188" xlink:href="#DejaVuSans-6c"/>
     <use x="226.025391" xlink:href="#DejaVuSans-6f"/>
     <use x="287.207031" xlink:href="#DejaVuSans-73"/>
     <use x="339.306641" xlink:href="#DejaVuSans-73"/>
    </g>
   </g>
  </g>
  <g id="text_35">
   <!-- benchmark 20171022_152912 -->
   <defs>
    <path d="M 48.6875 27.296875 
Q 48.6875 37.203125 44.609375 42.84375 
Q 40.53125 48.484375 33.40625 48.484375 
Q 26.265625 48.484375 22.1875 42.84375 
Q 18.109375 37.203125 18.109375 27.296875 
Q 18.109375 17.390625 22.1875 11.75 
Q 26.265625 6.109375 33.40625 6.109375 
Q 40.53125 6.109375 44.609375 11.75 
Q 48.6875 17.390625 48.6875 27.296875 
z
M 18.109375 46.390625 
Q 20.953125 51.265625 25.265625 53.625 
Q 29.59375 56 35.59375 56 
Q 45.5625 56 51.78125 48.09375 
Q 58.015625 40.1875 58.015625 27.296875 
Q 58.015625 14.40625 51.78125 6.484375 
Q 45.5625 -1.421875 35.59375 -1.421875 
Q 29.59375 -1.421875 25.265625 0.953125 
Q 20.953125 3.328125 18.109375 8.203125 
L 18.109375 0 
L 9.078125 0 
L 9.078125 75.984375 
L 18.109375 75.984375 
z
" id="DejaVuSans-62"/>
    <path d="M 56.203125 29.59375 
L 56.203125 25.203125 
L 14.890625 25.203125 
Q 15.484375 15.921875 20.484375 11.0625 
Q 25.484375 6.203125 34.421875 6.203125 
Q 39.59375 6.203125 44.453125 7.46875 
Q 49.3125 8.734375 54.109375 11.28125 
L 54.109375 2.78125 
Q 49.265625 0.734375 44.1875 -0.34375 
Q 39.109375 -1.421875 33.890625 -1.421875 
Q 20.796875 -1.421875 13.15625 6.1875 
Q 5.515625 13.8125 5.515625 26.8125 
Q 5.515625 40.234375 12.765625 48.109375 
Q 20.015625 56 32.328125 56 
Q 43.359375 56 49.78125 48.890625 
Q 56.203125 41.796875 56.203125 29.59375 
z
M 47.21875 32.234375 
Q 47.125 39.59375 43.09375 43.984375 
Q 39.0625 48.390625 32.421875 48.390625 
Q 24.90625 48.390625 20.390625 44.140625 
Q 15.875 39.890625 15.1875 32.171875 
z
" id="DejaVuSans-65"/>
    <path d="M 54.890625 33.015625 
L 54.890625 0 
L 45.90625 0 
L 45.90625 32.71875 
Q 45.90625 40.484375 42.875 44.328125 
Q 39.84375 48.1875 33.796875 48.1875 
Q 26.515625 48.1875 22.3125 43.546875 
Q 18.109375 38.921875 18.109375 30.90625 
L 18.109375 0 
L 9.078125 0 
L 9.078125 54.6875 
L 18.109375 54.6875 
L 18.109375 46.1875 
Q 21.34375 51.125 25.703125 53.5625 
Q 30.078125 56 35.796875 56 
Q 45.21875 56 50.046875 50.171875 
Q 54.890625 44.34375 54.890625 33.015625 
z
" id="DejaVuSans-6e"/>
    <path d="M 54.890625 33.015625 
L 54.890625 0 
L 45.90625 0 
L 45.90625 32.71875 
Q 45.90625 40.484375 42.875 44.328125 
Q 39.84375 48.1875 33.796875 48.1875 
Q 26.515625 48.1875 22.3125 43.546875 
Q 18.109375 38.921875 18.109375 30.90625 
L 18.109375 0 
L 9.078125 0 
L 9.078125 75.984375 
L 18.109375 75.984375 
L 18.109375 46.1875 
Q 21.34375 51.125 25.703125 53.5625 
Q 30.078125 56 35.796875 56 
Q 45.21875 56 50.046875 50.171875 
Q 54.890625 44.34375 54.890625 33.015625 
z
" id="DejaVuSans-68"/>
    <path d="M 52 44.1875 
Q 55.375 50.25 60.0625 53.125 
Q 64.75 56 71.09375 56 
Q 79.640625 56 84.28125 50.015625 
Q 88.921875 44.046875 88.921875 33.015625 
L 88.921875 0 
L 79.890625 0 
L 79.890625 32.71875 
Q 79.890625 40.578125 77.09375 44.375 
Q 74.3125 48.1875 68.609375 48.1875 
Q 61.625 48.1875 57.5625 43.546875 
Q 53.515625 38.921875 53.515625 30.90625 
L 53.515625 0 
L 44.484375 0 
L 44.484375 32.71875 
Q 44.484375 40.625 41.703125 44.40625 
Q 38.921875 48.1875 33.109375 48.1875 
Q 26.21875 48.1875 22.15625 43.53125 
Q 18.109375 38.875 18.109375 30.90625 
L 18.109375 0 
L 9.078125 0 
L 9.078125 54.6875 
L 18.109375 54.6875 
L 18.109375 46.1875 
Q 21.1875 51.21875 25.484375 53.609375 
Q 29.78125 56 35.6875 56 
Q 41.65625 56 45.828125 52.96875 
Q 50 49.953125 52 44.1875 
z
" id="DejaVuSans-6d"/>
    <path d="M 41.109375 46.296875 
Q 39.59375 47.171875 37.8125 47.578125 
Q 36.03125 48 33.890625 48 
Q 26.265625 48 22.1875 43.046875 
Q 18.109375 38.09375 18.109375 28.8125 
L 18.109375 0 
L 9.078125 0 
L 9.078125 54.6875 
L 18.109375 54.6875 
L 18.109375 46.1875 
Q 20.953125 51.171875 25.484375 53.578125 
Q 30.03125 56 36.53125 56 
Q 37.453125 56 38.578125 55.875 
Q 39.703125 55.765625 41.0625 55.515625 
z
" id="DejaVuSans-72"/>
    <path d="M 9.078125 75.984375 
L 18.109375 75.984375 
L 18.109375 31.109375 
L 44.921875 54.6875 
L 56.390625 54.6875 
L 27.390625 29.109375 
L 57.625 0 
L 45.90625 0 
L 18.109375 26.703125 
L 18.109375 0 
L 9.078125 0 
z
" id="DejaVuSans-6b"/>
    <path id="DejaVuSans-20"/>
    <path d="M 8.203125 72.90625 
L 55.078125 72.90625 
L 55.078125 68.703125 
L 28.609375 0 
L 18.3125 0 
L 43.21875 64.59375 
L 8.203125 64.59375 
z
" id="DejaVuSans-37"/>
    <path d="M 10.796875 72.90625 
L 49.515625 72.90625 
L 49.515625 64.59375 
L 19.828125 64.59375 
L 19.828125 46.734375 
Q 21.96875 47.46875 24.109375 47.828125 
Q 26.265625 48.1875 28.421875 48.1875 
Q 40.625 48.1875 47.75 41.5 
Q 54.890625 34.8125 54.890625 23.390625 
Q 54.890625 11.625 47.5625 5.09375 
Q 40.234375 -1.421875 26.90625 -1.421875 
Q 22.3125 -1.421875 17.546875 -0.640625 
Q 12.796875 0.140625 7.71875 1.703125 
L 7.71875 11.625 
Q 12.109375 9.234375 16.796875 8.0625 
Q 21.484375 6.890625 26.703125 6.890625 
Q 35.15625 6.890625 40.078125 11.328125 
Q 45.015625 15.765625 45.015625 23.390625 
Q 45.015625 31 40.078125 35.4375 
Q 35.15625 39.890625 26.703125 39.890625 
Q 22.75 39.890625 18.8125 39.015625 
Q 14.890625 38.140625 10.796875 36.28125 
z
" id="DejaVuSans-35"/>
    <path d="M 10.984375 1.515625 
L 10.984375 10.5 
Q 14.703125 8.734375 18.5 7.8125 
Q 22.3125 6.890625 25.984375 6.890625 
Q 35.75 6.890625 40.890625 13.453125 
Q 46.046875 20.015625 46.78125 33.40625 
Q 43.953125 29.203125 39.59375 26.953125 
Q 35.25 24.703125 29.984375 24.703125 
Q 19.046875 24.703125 12.671875 31.3125 
Q 6.296875 37.9375 6.296875 49.421875 
Q 6.296875 60.640625 12.9375 67.421875 
Q 19.578125 74.21875 30.609375 74.21875 
Q 43.265625 74.21875 49.921875 64.515625 
Q 56.59375 54.828125 56.59375 36.375 
Q 56.59375 19.140625 48.40625 8.859375 
Q 40.234375 -1.421875 26.421875 -1.421875 
Q 22.703125 -1.421875 18.890625 -0.6875 
Q 15.09375 0.046875 10.984375 1.515625 
z
M 30.609375 32.421875 
Q 37.25 32.421875 41.125 36.953125 
Q 45.015625 41.5 45.015625 49.421875 
Q 45.015625 57.28125 41.125 61.84375 
Q 37.25 66.40625 30.609375 66.40625 
Q 23.96875 66.40625 20.09375 61.84375 
Q 16.21875 57.28125 16.21875 49.421875 
Q 16.21875 41.5 20.09375 36.953125 
Q 23.96875 32.421875 30.609375 32.421875 
z
" id="DejaVuSans-39"/>
   </defs>
   <g transform="translate(138.180938 16.030125)scale(0.12 -0.12)">
    <use xlink:href="#DejaVuSans-62"/>
    <use x="63.476562" xlink:href="#DejaVuSans-65"/>
    <use x="125" xlink:href="#DejaVuSans-6e"/>
    <use x="188.378906" xlink:href="#DejaVuSans-63"/>
    <use x="243.359375" xlink:href="#DejaVuSans-68"/>
    <use x="306.738281" xlink:href="#DejaVuSans-6d"/>
    <use x="404.150391" xlink:href="#DejaVuSans-61"/>
    <use x="465.429688" xlink:href="#DejaVuSans-72"/>
    <use x="506.542969" xlink:href="#DejaVuSans-6b"/>
    <use x="564.453125" xlink:href="#DejaVuSans-20"/>
    <use x="596.240234" xlink:href="#DejaVuSans-32"/>
    <use x="659.863281" xlink:href="#DejaVuSans-30"/>
    <use x="723.486328" xlink:href="#DejaVuSans-31"/>
    <use x="787.109375" xlink:href="#DejaVuSans-37"/>
    <use x="850.732422" xlink:href="#DejaVuSans-31"/>
    <use x="914.355469" xlink:href="#DejaVuSans-30"/>
    <use x="977.978516" xlink:href="#DejaVuSans-32"/>
    <use x="1041.601562" xlink:href="#DejaVuSans-32"/>
    <use x="1105.224609" xlink:href="#DejaVuSans-5f"/>
    <use x="1155.224609" xlink:href="#DejaVuSans-31"/>
    <use x="1218.847656" xlink:href="#DejaVuSans-35"/>
    <use x="1282.470703" xlink:href="#DejaVuSans-32"/>
    <use x="1346.09375" xlink:href="#DejaVuSans-39"/>
    <use x="1409.716797" xlink:href="#DejaVuSans-31"/>
    <use x="1473.339844" xlink:href="#DejaVuSans-32"/>
   </g>
  </g>
 </g>
 <defs>
  <clipPath id="p935718d5f1">
   <rect height="118.272" width="158.72" x="57.6" y="41.472"/>
  </clipPath>
  <clipPath id="pd08ed3e776">
   <rect height="118.272" width="158.72" x="256" y="41.472"/>
  </clipPath>
  <clipPath id="paf555ae4b2">
   <rect height="118.272" width="158.72" x="57.6" y="189.312"/>
  </clipPath>
  <clipPath id="pafd7c38975">
   <rect height="118.272" width="158.72" x="256" y="189.312"/>
  </clipPath>
 </defs>
</svg>
