<?xml version="1.0" encoding="utf-8" standalone="no"?>
<!DOCTYPE svg PUBLIC "-//W3C//DTD SVG 1.1//EN"
  "http://www.w3.org/Graphics/SVG/1.1/DTD/svg11.dtd">
<!-- Created with matplotlib (http://matplotlib.org/) -->
<svg height="345pt" version="1.1" viewBox="0 0 460 345" width="460pt" xmlns="http://www.w3.org/2000/svg" xmlns:xlink="http://www.w3.org/1999/xlink">
 <defs>
  <style type="text/css">
*{stroke-linecap:butt;stroke-linejoin:round;}
  </style>
 </defs>
 <g id="figure_1">
  <g id="patch_1">
   <path d="M 0 345.6 
L 460.8 345.6 
L 460.8 0 
L 0 0 
z
" style="fill:#ffffff;"/>
  </g>
  <g id="axes_1">
   <g id="patch_2">
    <path d="M 57.6 159.744 
L 216.32 159.744 
L 216.32 41.472 
L 57.6 41.472 
z
" style="fill:#ffffff;"/>
   </g>
   <g id="matplotlib.axis_1">
    <g id="xtick_1">
     <g id="line2d_1">
      <path clip-path="url(#p969f31519a)" d="M 64.814545 159.744 
L 64.814545 41.472 
" style="fill:none;stroke:#b0b0b0;stroke-linecap:square;stroke-width:0.8;"/>
     </g>
     <g id="line2d_2">
      <defs>
       <path d="M 0 0 
L 0 3.5 
" id="mb051623e48" style="stroke:#000000;stroke-width:0.8;"/>
      </defs>
      <g>
       <use style="stroke:#000000;stroke-width:0.8;" x="64.814545" xlink:href="#mb051623e48" y="159.744"/>
      </g>
     </g>
     <g id="text_1">
      <!-- 0 -->
      <defs>
       <path d="M 31.78125 66.40625 
Q 24.171875 66.40625 20.328125 58.90625 
Q 16.5 51.421875 16.5 36.375 
Q 16.5 21.390625 20.328125 13.890625 
Q 24.171875 6.390625 31.78125 6.390625 
Q 39.453125 6.390625 43.28125 13.890625 
Q 47.125 21.390625 47.125 36.375 
Q 47.125 51.421875 43.28125 58.90625 
Q 39.453125 66.40625 31.78125 66.40625 
z
M 31.78125 74.21875 
Q 44.046875 74.21875 50.515625 64.515625 
Q 56.984375 54.828125 56.984375 36.375 
Q 56.984375 17.96875 50.515625 8.265625 
Q 44.046875 -1.421875 31.78125 -1.421875 
Q 19.53125 -1.421875 13.0625 8.265625 
Q 6.59375 17.96875 6.59375 36.375 
Q 6.59375 54.828125 13.0625 64.515625 
Q 19.53125 74.21875 31.78125 74.21875 
z
" id="DejaVuSans-30"/>
      </defs>
      <g transform="translate(61.633295 174.342437)scale(0.1 -0.1)">
       <use xlink:href="#DejaVuSans-30"/>
      </g>
     </g>
    </g>
    <g id="xtick_2">
     <g id="line2d_3">
      <path clip-path="url(#p969f31519a)" d="M 113.072375 159.744 
L 113.072375 41.472 
" style="fill:none;stroke:#b0b0b0;stroke-linecap:square;stroke-width:0.8;"/>
     </g>
     <g id="line2d_4">
      <g>
       <use style="stroke:#000000;stroke-width:0.8;" x="113.072375" xlink:href="#mb051623e48" y="159.744"/>
      </g>
     </g>
     <g id="text_2">
      <!-- 100 -->
      <defs>
       <path d="M 12.40625 8.296875 
L 28.515625 8.296875 
L 28.515625 63.921875 
L 10.984375 60.40625 
L 10.984375 69.390625 
L 28.421875 72.90625 
L 38.28125 72.90625 
L 38.28125 8.296875 
L 54.390625 8.296875 
L 54.390625 0 
L 12.40625 0 
z
" id="DejaVuSans-31"/>
      </defs>
      <g transform="translate(103.528625 174.342437)scale(0.1 -0.1)">
       <use xlink:href="#DejaVuSans-31"/>
       <use x="63.623047" xlink:href="#DejaVuSans-30"/>
       <use x="127.246094" xlink:href="#DejaVuSans-30"/>
      </g>
     </g>
    </g>
    <g id="xtick_3">
     <g id="line2d_5">
      <path clip-path="url(#p969f31519a)" d="M 161.330204 159.744 
L 161.330204 41.472 
" style="fill:none;stroke:#b0b0b0;stroke-linecap:square;stroke-width:0.8;"/>
     </g>
     <g id="line2d_6">
      <g>
       <use style="stroke:#000000;stroke-width:0.8;" x="161.330204" xlink:href="#mb051623e48" y="159.744"/>
      </g>
     </g>
     <g id="text_3">
      <!-- 200 -->
      <defs>
       <path d="M 19.1875 8.296875 
L 53.609375 8.296875 
L 53.609375 0 
L 7.328125 0 
L 7.328125 8.296875 
Q 12.9375 14.109375 22.625 23.890625 
Q 32.328125 33.6875 34.8125 36.53125 
Q 39.546875 41.84375 41.421875 45.53125 
Q 43.3125 49.21875 43.3125 52.78125 
Q 43.3125 58.59375 39.234375 62.25 
Q 35.15625 65.921875 28.609375 65.921875 
Q 23.96875 65.921875 18.8125 64.3125 
Q 13.671875 62.703125 7.8125 59.421875 
L 7.8125 69.390625 
Q 13.765625 71.78125 18.9375 73 
Q 24.125 74.21875 28.421875 74.21875 
Q 39.75 74.21875 46.484375 68.546875 
Q 53.21875 62.890625 53.21875 53.421875 
Q 53.21875 48.921875 51.53125 44.890625 
Q 49.859375 40.875 45.40625 35.40625 
Q 44.1875 33.984375 37.640625 27.21875 
Q 31.109375 20.453125 19.1875 8.296875 
z
" id="DejaVuSans-32"/>
      </defs>
      <g transform="translate(151.786454 174.342437)scale(0.1 -0.1)">
       <use xlink:href="#DejaVuSans-32"/>
       <use x="63.623047" xlink:href="#DejaVuSans-30"/>
       <use x="127.246094" xlink:href="#DejaVuSans-30"/>
      </g>
     </g>
    </g>
    <g id="xtick_4">
     <g id="line2d_7">
      <path clip-path="url(#p969f31519a)" d="M 209.588033 159.744 
L 209.588033 41.472 
" style="fill:none;stroke:#b0b0b0;stroke-linecap:square;stroke-width:0.8;"/>
     </g>
     <g id="line2d_8">
      <g>
       <use style="stroke:#000000;stroke-width:0.8;" x="209.588033" xlink:href="#mb051623e48" y="159.744"/>
      </g>
     </g>
     <g id="text_4">
      <!-- 300 -->
      <defs>
       <path d="M 40.578125 39.3125 
Q 47.65625 37.796875 51.625 33 
Q 55.609375 28.21875 55.609375 21.1875 
Q 55.609375 10.40625 48.1875 4.484375 
Q 40.765625 -1.421875 27.09375 -1.421875 
Q 22.515625 -1.421875 17.65625 -0.515625 
Q 12.796875 0.390625 7.625 2.203125 
L 7.625 11.71875 
Q 11.71875 9.328125 16.59375 8.109375 
Q 21.484375 6.890625 26.8125 6.890625 
Q 36.078125 6.890625 40.9375 10.546875 
Q 45.796875 14.203125 45.796875 21.1875 
Q 45.796875 27.640625 41.28125 31.265625 
Q 36.765625 34.90625 28.71875 34.90625 
L 20.21875 34.90625 
L 20.21875 43.015625 
L 29.109375 43.015625 
Q 36.375 43.015625 40.234375 45.921875 
Q 44.09375 48.828125 44.09375 54.296875 
Q 44.09375 59.90625 40.109375 62.90625 
Q 36.140625 65.921875 28.71875 65.921875 
Q 24.65625 65.921875 20.015625 65.03125 
Q 15.375 64.15625 9.8125 62.3125 
L 9.8125 71.09375 
Q 15.4375 72.65625 20.34375 73.4375 
Q 25.25 74.21875 29.59375 74.21875 
Q 40.828125 74.21875 47.359375 69.109375 
Q 53.90625 64.015625 53.90625 55.328125 
Q 53.90625 49.265625 50.4375 45.09375 
Q 46.96875 40.921875 40.578125 39.3125 
z
" id="DejaVuSans-33"/>
      </defs>
      <g transform="translate(200.044283 174.342437)scale(0.1 -0.1)">
       <use xlink:href="#DejaVuSans-33"/>
       <use x="63.623047" xlink:href="#DejaVuSans-30"/>
       <use x="127.246094" xlink:href="#DejaVuSans-30"/>
      </g>
     </g>
    </g>
   </g>
   <g id="matplotlib.axis_2">
    <g id="ytick_1">
     <g id="line2d_9">
      <path clip-path="url(#p969f31519a)" d="M 57.6 154.968473 
L 216.32 154.968473 
" style="fill:none;stroke:#b0b0b0;stroke-linecap:square;stroke-width:0.8;"/>
     </g>
     <g id="line2d_10">
      <defs>
       <path d="M 0 0 
L -3.5 0 
" id="m755547bff1" style="stroke:#000000;stroke-width:0.8;"/>
      </defs>
      <g>
       <use style="stroke:#000000;stroke-width:0.8;" x="57.6" xlink:href="#m755547bff1" y="154.968473"/>
      </g>
     </g>
     <g id="text_5">
      <!-- 0.00 -->
      <defs>
       <path d="M 10.6875 12.40625 
L 21 12.40625 
L 21 0 
L 10.6875 0 
z
" id="DejaVuSans-2e"/>
      </defs>
      <g transform="translate(28.334375 158.767692)scale(0.1 -0.1)">
       <use xlink:href="#DejaVuSans-30"/>
       <use x="63.623047" xlink:href="#DejaVuSans-2e"/>
       <use x="95.410156" xlink:href="#DejaVuSans-30"/>
       <use x="159.033203" xlink:href="#DejaVuSans-30"/>
      </g>
     </g>
    </g>
    <g id="ytick_2">
     <g id="line2d_11">
      <path clip-path="url(#p969f31519a)" d="M 57.6 127.841219 
L 216.32 127.841219 
" style="fill:none;stroke:#b0b0b0;stroke-linecap:square;stroke-width:0.8;"/>
     </g>
     <g id="line2d_12">
      <g>
       <use style="stroke:#000000;stroke-width:0.8;" x="57.6" xlink:href="#m755547bff1" y="127.841219"/>
      </g>
     </g>
     <g id="text_6">
      <!-- 0.25 -->
      <defs>
       <path d="M 10.796875 72.90625 
L 49.515625 72.90625 
L 49.515625 64.59375 
L 19.828125 64.59375 
L 19.828125 46.734375 
Q 21.96875 47.46875 24.109375 47.828125 
Q 26.265625 48.1875 28.421875 48.1875 
Q 40.625 48.1875 47.75 41.5 
Q 54.890625 34.8125 54.890625 23.390625 
Q 54.890625 11.625 47.5625 5.09375 
Q 40.234375 -1.421875 26.90625 -1.421875 
Q 22.3125 -1.421875 17.546875 -0.640625 
Q 12.796875 0.140625 7.71875 1.703125 
L 7.71875 11.625 
Q 12.109375 9.234375 16.796875 8.0625 
Q 21.484375 6.890625 26.703125 6.890625 
Q 35.15625 6.890625 40.078125 11.328125 
Q 45.015625 15.765625 45.015625 23.390625 
Q 45.015625 31 40.078125 35.4375 
Q 35.15625 39.890625 26.703125 39.890625 
Q 22.75 39.890625 18.8125 39.015625 
Q 14.890625 38.140625 10.796875 36.28125 
z
" id="DejaVuSans-35"/>
      </defs>
      <g transform="translate(28.334375 131.640438)scale(0.1 -0.1)">
       <use xlink:href="#DejaVuSans-30"/>
       <use x="63.623047" xlink:href="#DejaVuSans-2e"/>
       <use x="95.410156" xlink:href="#DejaVuSans-32"/>
       <use x="159.033203" xlink:href="#DejaVuSans-35"/>
      </g>
     </g>
    </g>
    <g id="ytick_3">
     <g id="line2d_13">
      <path clip-path="url(#p969f31519a)" d="M 57.6 100.713966 
L 216.32 100.713966 
" style="fill:none;stroke:#b0b0b0;stroke-linecap:square;stroke-width:0.8;"/>
     </g>
     <g id="line2d_14">
      <g>
       <use style="stroke:#000000;stroke-width:0.8;" x="57.6" xlink:href="#m755547bff1" y="100.713966"/>
      </g>
     </g>
     <g id="text_7">
      <!-- 0.50 -->
      <g transform="translate(28.334375 104.513185)scale(0.1 -0.1)">
       <use xlink:href="#DejaVuSans-30"/>
       <use x="63.623047" xlink:href="#DejaVuSans-2e"/>
       <use x="95.410156" xlink:href="#DejaVuSans-35"/>
       <use x="159.033203" xlink:href="#DejaVuSans-30"/>
      </g>
     </g>
    </g>
    <g id="ytick_4">
     <g id="line2d_15">
      <path clip-path="url(#p969f31519a)" d="M 57.6 73.586712 
L 216.32 73.586712 
" style="fill:none;stroke:#b0b0b0;stroke-linecap:square;stroke-width:0.8;"/>
     </g>
     <g id="line2d_16">
      <g>
       <use style="stroke:#000000;stroke-width:0.8;" x="57.6" xlink:href="#m755547bff1" y="73.586712"/>
      </g>
     </g>
     <g id="text_8">
      <!-- 0.75 -->
      <defs>
       <path d="M 8.203125 72.90625 
L 55.078125 72.90625 
L 55.078125 68.703125 
L 28.609375 0 
L 18.3125 0 
L 43.21875 64.59375 
L 8.203125 64.59375 
z
" id="DejaVuSans-37"/>
      </defs>
      <g transform="translate(28.334375 77.385931)scale(0.1 -0.1)">
       <use xlink:href="#DejaVuSans-30"/>
       <use x="63.623047" xlink:href="#DejaVuSans-2e"/>
       <use x="95.410156" xlink:href="#DejaVuSans-37"/>
       <use x="159.033203" xlink:href="#DejaVuSans-35"/>
      </g>
     </g>
    </g>
    <g id="ytick_5">
     <g id="line2d_17">
      <path clip-path="url(#p969f31519a)" d="M 57.6 46.459459 
L 216.32 46.459459 
" style="fill:none;stroke:#b0b0b0;stroke-linecap:square;stroke-width:0.8;"/>
     </g>
     <g id="line2d_18">
      <g>
       <use style="stroke:#000000;stroke-width:0.8;" x="57.6" xlink:href="#m755547bff1" y="46.459459"/>
      </g>
     </g>
     <g id="text_9">
      <!-- 1.00 -->
      <g transform="translate(28.334375 50.258677)scale(0.1 -0.1)">
       <use xlink:href="#DejaVuSans-31"/>
       <use x="63.623047" xlink:href="#DejaVuSans-2e"/>
       <use x="95.410156" xlink:href="#DejaVuSans-30"/>
       <use x="159.033203" xlink:href="#DejaVuSans-30"/>
      </g>
     </g>
    </g>
   </g>
   <g id="line2d_19">
    <path clip-path="url(#p969f31519a)" d="M 64.814545 154.368 
L 65.297124 153.661561 
L 65.779702 151.789498 
L 66.26228 147.762796 
L 68.192593 125.580614 
L 69.15775 113.429865 
L 69.640328 110.780719 
L 72.535798 89.304976 
L 73.500955 84.642479 
L 74.466111 81.145607 
L 74.94869 78.390495 
L 75.431268 76.871652 
L 75.913846 74.222506 
L 76.879003 71.608682 
L 77.361581 71.997224 
L 77.844159 69.418722 
L 78.326738 68.818249 
L 79.291894 66.275069 
L 79.774472 66.239747 
L 80.257051 64.579616 
L 80.739629 63.590601 
L 81.222207 63.661245 
L 81.704786 61.789182 
L 82.187364 61.859826 
L 82.669942 60.658881 
L 83.152521 60.976777 
L 83.635099 60.058407 
L 84.117677 59.599222 
L 84.600255 59.351969 
L 85.082834 58.857461 
L 85.565412 58.928105 
L 86.04799 58.009735 
L 86.530569 58.398276 
L 87.013147 57.974413 
L 87.495725 56.031706 
L 87.978303 56.879433 
L 88.460882 55.890418 
L 89.426038 55.183979 
L 89.908617 55.00737 
L 90.391195 54.477541 
L 90.873773 54.972048 
L 91.356351 54.265609 
L 91.83893 53.347239 
L 92.321508 53.983033 
L 92.804086 54.371575 
L 93.286665 53.594492 
L 93.769243 53.417882 
L 94.251821 52.782087 
L 94.7344 52.676121 
L 95.216978 52.216936 
L 95.699556 52.81741 
L 96.182134 52.605478 
L 96.664713 51.899039 
L 97.147291 51.863717 
L 97.629869 52.358224 
L 98.112448 51.687107 
L 99.077604 51.651785 
L 99.560182 51.863717 
L 100.042761 51.051312 
L 100.525339 50.733414 
L 101.007917 50.627449 
L 101.490496 50.945346 
L 101.973074 50.768736 
L 102.455652 50.874702 
L 103.420809 49.956331 
L 103.903387 50.556805 
L 104.385965 49.956332 
L 104.868544 49.885688 
L 105.351122 49.956332 
L 105.8337 49.7444 
L 106.316279 50.062297 
L 106.798857 49.638434 
L 107.281435 49.815044 
L 107.764013 49.779722 
L 108.246592 49.497146 
L 108.72917 49.355858 
L 109.211748 49.532468 
L 110.659483 49.320536 
L 111.142061 49.497146 
L 111.62464 48.967317 
L 112.107218 49.709078 
L 112.589796 49.461824 
L 113.072375 48.896673 
L 113.554953 48.684741 
L 114.037531 49.073283 
L 114.520109 49.214571 
L 115.002688 48.861351 
L 115.485266 48.720063 
L 115.967844 48.402166 
L 116.450423 49.073283 
L 116.933001 48.366844 
L 117.415579 48.508132 
L 117.898157 48.861351 
L 118.380736 49.002639 
L 118.863314 48.366844 
L 119.828471 48.508132 
L 120.311049 48.543454 
L 120.793627 48.190234 
L 121.276206 48.578776 
L 121.758784 48.578775 
L 122.241362 48.331522 
L 122.72394 48.47281 
L 123.206519 48.154912 
L 123.689097 48.543454 
L 124.171675 48.013624 
L 124.654254 48.543454 
L 125.136832 48.084268 
L 125.61941 48.508132 
L 126.101988 48.2962 
L 127.067145 48.084268 
L 127.549723 47.837015 
L 128.032302 48.048946 
L 128.51488 48.084268 
L 128.997458 47.837015 
L 129.480036 47.872337 
L 130.445193 48.190234 
L 130.927771 48.2962 
L 131.41035 47.907658 
L 131.892928 47.731049 
L 132.375506 47.907658 
L 132.858085 47.625083 
L 133.340663 48.048946 
L 134.788398 47.872337 
L 135.270976 48.084268 
L 135.753554 48.048946 
L 136.718711 47.695727 
L 137.683867 48.084268 
L 138.166446 47.872337 
L 138.649024 47.978303 
L 139.131602 47.94298 
L 139.614181 48.084268 
L 140.579337 47.766371 
L 141.061915 47.907659 
L 141.544494 47.660405 
L 142.027072 47.872337 
L 142.50965 47.766371 
L 142.992229 47.907659 
L 143.474807 47.625083 
L 144.439964 48.084268 
L 144.922542 47.766371 
L 145.40512 47.660405 
L 145.887698 47.978302 
L 146.370277 47.589761 
L 146.852855 47.872336 
L 147.335433 47.519117 
L 147.818012 47.625083 
L 148.30059 47.978302 
L 149.748325 47.978302 
L 150.230903 47.271863 
L 150.713481 47.872337 
L 151.19606 47.413151 
L 151.678638 47.519117 
L 152.161216 47.837015 
L 152.643794 47.801693 
L 153.126373 47.519117 
L 153.608951 47.625083 
L 154.091529 47.201219 
L 155.056686 47.660405 
L 156.021843 47.413151 
L 156.504421 47.978302 
L 156.986999 47.660405 
L 157.469577 47.837015 
L 157.952156 47.271863 
L 158.434734 47.519117 
L 161.330204 47.625083 
L 161.812782 47.872337 
L 162.29536 47.271863 
L 162.777939 47.519117 
L 163.743095 47.271863 
L 164.225673 47.554439 
L 164.708252 47.130576 
L 165.673408 47.625083 
L 166.155987 47.589761 
L 166.638565 47.307185 
L 167.603721 47.660405 
L 168.0863 47.483795 
L 168.568878 47.448473 
L 169.051456 47.660405 
L 169.534035 47.554439 
L 170.016613 47.589761 
L 170.499191 47.342507 
L 170.98177 47.307185 
L 171.464348 47.625083 
L 171.946926 47.271863 
L 172.429504 47.589761 
L 173.394661 47.02461 
L 174.359818 47.377829 
L 174.842396 47.377829 
L 175.324974 47.589761 
L 175.807552 47.483795 
L 176.290131 47.695727 
L 177.255287 47.165897 
L 177.737866 47.660405 
L 178.220444 47.201219 
L 178.703022 47.236541 
L 179.1856 47.731049 
L 179.668179 47.307185 
L 180.150757 47.483795 
L 181.598492 47.519117 
L 182.563649 47.165898 
L 183.046227 48.11959 
L 183.528805 47.095254 
L 184.011383 46.918644 
L 184.493962 47.519117 
L 185.459118 47.377829 
L 185.941697 47.554439 
L 186.906853 47.307185 
L 187.389431 47.448473 
L 187.87201 47.165897 
L 188.354588 47.059932 
L 188.837166 47.236541 
L 189.319745 47.731049 
L 189.802323 47.413151 
L 190.284901 47.271863 
L 191.732636 47.483795 
L 192.215214 47.059932 
L 192.697793 47.095254 
L 193.662949 47.554439 
L 194.145528 47.307185 
L 194.628106 47.519117 
L 195.110684 46.989288 
L 195.593262 47.413151 
L 196.075841 47.625083 
L 196.558419 47.342507 
L 197.040997 47.342507 
L 197.523576 47.201219 
L 198.006154 47.448473 
L 198.488732 47.377829 
L 198.97131 47.589761 
L 199.453889 47.377829 
L 199.936467 46.848 
L 200.419045 47.731049 
L 200.901624 47.095254 
L 201.384202 47.130576 
L 201.86678 46.989288 
L 202.349358 47.413151 
L 202.831937 47.130576 
L 203.797093 47.059932 
L 204.76225 47.377829 
L 205.727407 47.413151 
L 206.692563 47.095254 
L 207.175141 47.236541 
L 207.65772 47.20122 
L 208.140298 46.989288 
L 208.622876 47.554439 
L 209.105455 47.165898 
L 209.105455 47.165898 
" style="fill:none;stroke:#1f77b4;stroke-linecap:square;stroke-width:1.5;"/>
   </g>
   <g id="patch_3">
    <path d="M 57.6 159.744 
L 57.6 41.472 
" style="fill:none;stroke:#000000;stroke-linecap:square;stroke-linejoin:miter;stroke-width:0.8;"/>
   </g>
   <g id="patch_4">
    <path d="M 216.32 159.744 
L 216.32 41.472 
" style="fill:none;stroke:#000000;stroke-linecap:square;stroke-linejoin:miter;stroke-width:0.8;"/>
   </g>
   <g id="patch_5">
    <path d="M 57.6 159.744 
L 216.32 159.744 
" style="fill:none;stroke:#000000;stroke-linecap:square;stroke-linejoin:miter;stroke-width:0.8;"/>
   </g>
   <g id="patch_6">
    <path d="M 57.6 41.472 
L 216.32 41.472 
" style="fill:none;stroke:#000000;stroke-linecap:square;stroke-linejoin:miter;stroke-width:0.8;"/>
   </g>
   <g id="text_10">
    <!-- acc -->
    <defs>
     <path d="M 34.28125 27.484375 
Q 23.390625 27.484375 19.1875 25 
Q 14.984375 22.515625 14.984375 16.5 
Q 14.984375 11.71875 18.140625 8.90625 
Q 21.296875 6.109375 26.703125 6.109375 
Q 34.1875 6.109375 38.703125 11.40625 
Q 43.21875 16.703125 43.21875 25.484375 
L 43.21875 27.484375 
z
M 52.203125 31.203125 
L 52.203125 0 
L 43.21875 0 
L 43.21875 8.296875 
Q 40.140625 3.328125 35.546875 0.953125 
Q 30.953125 -1.421875 24.3125 -1.421875 
Q 15.921875 -1.421875 10.953125 3.296875 
Q 6 8.015625 6 15.921875 
Q 6 25.140625 12.171875 29.828125 
Q 18.359375 34.515625 30.609375 34.515625 
L 43.21875 34.515625 
L 43.21875 35.40625 
Q 43.21875 41.609375 39.140625 45 
Q 35.0625 48.390625 27.6875 48.390625 
Q 23 48.390625 18.546875 47.265625 
Q 14.109375 46.140625 10.015625 43.890625 
L 10.015625 52.203125 
Q 14.9375 54.109375 19.578125 55.046875 
Q 24.21875 56 28.609375 56 
Q 40.484375 56 46.34375 49.84375 
Q 52.203125 43.703125 52.203125 31.203125 
z
" id="DejaVuSans-61"/>
     <path d="M 48.78125 52.59375 
L 48.78125 44.1875 
Q 44.96875 46.296875 41.140625 47.34375 
Q 37.3125 48.390625 33.40625 48.390625 
Q 24.65625 48.390625 19.8125 42.84375 
Q 14.984375 37.3125 14.984375 27.296875 
Q 14.984375 17.28125 19.8125 11.734375 
Q 24.65625 6.203125 33.40625 6.203125 
Q 37.3125 6.203125 41.140625 7.25 
Q 44.96875 8.296875 48.78125 10.40625 
L 48.78125 2.09375 
Q 45.015625 0.34375 40.984375 -0.53125 
Q 36.96875 -1.421875 32.421875 -1.421875 
Q 20.0625 -1.421875 12.78125 6.34375 
Q 5.515625 14.109375 5.515625 27.296875 
Q 5.515625 40.671875 12.859375 48.328125 
Q 20.21875 56 33.015625 56 
Q 37.15625 56 41.109375 55.140625 
Q 45.0625 54.296875 48.78125 52.59375 
z
" id="DejaVuSans-63"/>
    </defs>
    <g transform="translate(126.685 35.472)scale(0.12 -0.12)">
     <use xlink:href="#DejaVuSans-61"/>
     <use x="61.279297" xlink:href="#DejaVuSans-63"/>
     <use x="116.259766" xlink:href="#DejaVuSans-63"/>
    </g>
   </g>
  </g>
  <g id="axes_2">
   <g id="patch_7">
    <path d="M 256 159.744 
L 414.72 159.744 
L 414.72 41.472 
L 256 41.472 
z
" style="fill:#ffffff;"/>
   </g>
   <g id="matplotlib.axis_3">
    <g id="xtick_5">
     <g id="line2d_20">
      <path clip-path="url(#pe10d897e6b)" d="M 263.214545 159.744 
L 263.214545 41.472 
" style="fill:none;stroke:#b0b0b0;stroke-linecap:square;stroke-width:0.8;"/>
     </g>
     <g id="line2d_21">
      <g>
       <use style="stroke:#000000;stroke-width:0.8;" x="263.214545" xlink:href="#mb051623e48" y="159.744"/>
      </g>
     </g>
     <g id="text_11">
      <!-- 0 -->
      <g transform="translate(260.033295 174.342437)scale(0.1 -0.1)">
       <use xlink:href="#DejaVuSans-30"/>
      </g>
     </g>
    </g>
    <g id="xtick_6">
     <g id="line2d_22">
      <path clip-path="url(#pe10d897e6b)" d="M 311.472375 159.744 
L 311.472375 41.472 
" style="fill:none;stroke:#b0b0b0;stroke-linecap:square;stroke-width:0.8;"/>
     </g>
     <g id="line2d_23">
      <g>
       <use style="stroke:#000000;stroke-width:0.8;" x="311.472375" xlink:href="#mb051623e48" y="159.744"/>
      </g>
     </g>
     <g id="text_12">
      <!-- 100 -->
      <g transform="translate(301.928625 174.342437)scale(0.1 -0.1)">
       <use xlink:href="#DejaVuSans-31"/>
       <use x="63.623047" xlink:href="#DejaVuSans-30"/>
       <use x="127.246094" xlink:href="#DejaVuSans-30"/>
      </g>
     </g>
    </g>
    <g id="xtick_7">
     <g id="line2d_24">
      <path clip-path="url(#pe10d897e6b)" d="M 359.730204 159.744 
L 359.730204 41.472 
" style="fill:none;stroke:#b0b0b0;stroke-linecap:square;stroke-width:0.8;"/>
     </g>
     <g id="line2d_25">
      <g>
       <use style="stroke:#000000;stroke-width:0.8;" x="359.730204" xlink:href="#mb051623e48" y="159.744"/>
      </g>
     </g>
     <g id="text_13">
      <!-- 200 -->
      <g transform="translate(350.186454 174.342437)scale(0.1 -0.1)">
       <use xlink:href="#DejaVuSans-32"/>
       <use x="63.623047" xlink:href="#DejaVuSans-30"/>
       <use x="127.246094" xlink:href="#DejaVuSans-30"/>
      </g>
     </g>
    </g>
    <g id="xtick_8">
     <g id="line2d_26">
      <path clip-path="url(#pe10d897e6b)" d="M 407.988033 159.744 
L 407.988033 41.472 
" style="fill:none;stroke:#b0b0b0;stroke-linecap:square;stroke-width:0.8;"/>
     </g>
     <g id="line2d_27">
      <g>
       <use style="stroke:#000000;stroke-width:0.8;" x="407.988033" xlink:href="#mb051623e48" y="159.744"/>
      </g>
     </g>
     <g id="text_14">
      <!-- 300 -->
      <g transform="translate(398.444283 174.342437)scale(0.1 -0.1)">
       <use xlink:href="#DejaVuSans-33"/>
       <use x="63.623047" xlink:href="#DejaVuSans-30"/>
       <use x="127.246094" xlink:href="#DejaVuSans-30"/>
      </g>
     </g>
    </g>
   </g>
   <g id="matplotlib.axis_4">
    <g id="ytick_6">
     <g id="line2d_28">
      <path clip-path="url(#pe10d897e6b)" d="M 256 154.619305 
L 414.72 154.619305 
" style="fill:none;stroke:#b0b0b0;stroke-linecap:square;stroke-width:0.8;"/>
     </g>
     <g id="line2d_29">
      <g>
       <use style="stroke:#000000;stroke-width:0.8;" x="256" xlink:href="#m755547bff1" y="154.619305"/>
      </g>
     </g>
     <g id="text_15">
      <!-- 0 -->
      <g transform="translate(242.6375 158.418524)scale(0.1 -0.1)">
       <use xlink:href="#DejaVuSans-30"/>
      </g>
     </g>
    </g>
    <g id="ytick_7">
     <g id="line2d_30">
      <path clip-path="url(#pe10d897e6b)" d="M 256 115.378041 
L 414.72 115.378041 
" style="fill:none;stroke:#b0b0b0;stroke-linecap:square;stroke-width:0.8;"/>
     </g>
     <g id="line2d_31">
      <g>
       <use style="stroke:#000000;stroke-width:0.8;" x="256" xlink:href="#m755547bff1" y="115.378041"/>
      </g>
     </g>
     <g id="text_16">
      <!-- 2 -->
      <g transform="translate(242.6375 119.177259)scale(0.1 -0.1)">
       <use xlink:href="#DejaVuSans-32"/>
      </g>
     </g>
    </g>
    <g id="ytick_8">
     <g id="line2d_32">
      <path clip-path="url(#pe10d897e6b)" d="M 256 76.136776 
L 414.72 76.136776 
" style="fill:none;stroke:#b0b0b0;stroke-linecap:square;stroke-width:0.8;"/>
     </g>
     <g id="line2d_33">
      <g>
       <use style="stroke:#000000;stroke-width:0.8;" x="256" xlink:href="#m755547bff1" y="76.136776"/>
      </g>
     </g>
     <g id="text_17">
      <!-- 4 -->
      <defs>
       <path d="M 37.796875 64.3125 
L 12.890625 25.390625 
L 37.796875 25.390625 
z
M 35.203125 72.90625 
L 47.609375 72.90625 
L 47.609375 25.390625 
L 58.015625 25.390625 
L 58.015625 17.1875 
L 47.609375 17.1875 
L 47.609375 0 
L 37.796875 0 
L 37.796875 17.1875 
L 4.890625 17.1875 
L 4.890625 26.703125 
z
" id="DejaVuSans-34"/>
      </defs>
      <g transform="translate(242.6375 79.935995)scale(0.1 -0.1)">
       <use xlink:href="#DejaVuSans-34"/>
      </g>
     </g>
    </g>
   </g>
   <g id="line2d_34">
    <path clip-path="url(#pe10d897e6b)" d="M 263.214545 46.848 
L 264.179702 65.596362 
L 265.144859 86.474907 
L 265.627437 94.499412 
L 266.592593 105.617363 
L 267.55775 113.270396 
L 268.040328 115.73822 
L 268.522907 118.850439 
L 269.970642 126.173237 
L 270.935798 129.208943 
L 271.418376 131.025827 
L 273.34869 136.293759 
L 274.796424 139.549938 
L 275.279003 140.17656 
L 275.761581 140.547097 
L 276.244159 141.529517 
L 277.691894 143.413522 
L 278.174472 143.633877 
L 278.657051 144.571625 
L 279.622207 145.029847 
L 280.104786 145.92117 
L 280.587364 145.864111 
L 281.069942 146.42334 
L 281.552521 146.430287 
L 282.035099 147.446602 
L 282.517677 147.069924 
L 283.000255 147.488223 
L 283.482834 147.534386 
L 284.44799 148.182003 
L 284.930569 148.214319 
L 285.895725 148.96987 
L 286.378303 148.913676 
L 286.860882 149.733976 
L 287.34346 149.533095 
L 287.826038 149.471698 
L 288.308617 149.661265 
L 288.791195 150.145849 
L 289.756351 150.276211 
L 290.23893 150.916523 
L 290.721508 150.614245 
L 291.204086 150.595239 
L 293.1344 151.251682 
L 294.582134 151.451515 
L 295.064713 151.71112 
L 295.547291 151.540412 
L 296.512448 151.86311 
L 297.477604 151.687735 
L 297.960182 151.946035 
L 300.373074 152.329725 
L 300.855652 152.518492 
L 301.33823 152.309484 
L 301.820809 152.619076 
L 302.303387 152.574027 
L 302.785965 152.862164 
L 304.716279 152.471067 
L 305.198857 152.803655 
L 305.681435 152.681303 
L 306.646592 152.909241 
L 307.12917 152.757951 
L 307.611748 152.998901 
L 308.094327 152.930201 
L 309.059483 153.124104 
L 309.542061 152.978978 
L 310.02464 153.041799 
L 310.507218 152.931166 
L 311.472375 153.096924 
L 311.954953 153.389528 
L 312.437531 153.190532 
L 312.920109 153.162971 
L 313.402688 153.322124 
L 313.885266 153.222365 
L 314.850423 153.214319 
L 315.333001 153.541098 
L 316.298157 153.131368 
L 317.263314 153.538629 
L 318.711049 153.329658 
L 319.193627 153.724353 
L 319.676206 153.305285 
L 320.158784 153.430599 
L 320.641362 153.764425 
L 321.12394 153.482813 
L 321.606519 153.70452 
L 322.089097 153.476567 
L 322.571675 153.653319 
L 323.054254 153.272252 
L 323.536832 153.683249 
L 324.01941 153.392778 
L 324.501988 153.625238 
L 324.984567 153.558389 
L 325.467145 153.682406 
L 325.949723 153.676555 
L 326.432302 153.844382 
L 327.880036 153.605483 
L 328.362615 153.733284 
L 329.327771 153.657848 
L 329.81035 153.539644 
L 331.258085 153.874077 
L 331.740663 153.435386 
L 332.223241 153.614237 
L 332.705819 153.436768 
L 333.188398 153.602097 
L 333.670976 153.499983 
L 334.636133 153.860701 
L 335.118711 153.710165 
L 336.083867 153.711206 
L 336.566446 153.508704 
L 337.049024 153.697697 
L 337.531602 153.671674 
L 338.496759 153.430923 
L 338.979337 153.856551 
L 339.461915 153.58109 
L 339.944494 153.941588 
L 340.90965 153.802309 
L 341.392229 153.79997 
L 341.874807 153.91243 
L 342.839964 153.629483 
L 343.322542 153.854938 
L 343.80512 153.441915 
L 344.287698 153.725289 
L 344.770277 153.820931 
L 345.252855 153.597778 
L 346.218012 153.937944 
L 346.70059 153.653844 
L 347.183168 153.683691 
L 347.665746 153.582028 
L 348.148325 153.650128 
L 348.630903 154.025239 
L 349.113481 153.735768 
L 349.59606 153.97069 
L 350.561216 153.818458 
L 351.043794 153.551945 
L 351.526373 153.918034 
L 354.421843 153.845156 
L 354.904421 153.492305 
L 355.386999 153.882146 
L 355.869577 153.651374 
L 357.317312 153.918951 
L 357.799891 153.771998 
L 358.282469 153.91122 
L 360.212782 153.684425 
L 360.69536 154.076193 
L 361.177939 154.156959 
L 362.143095 154.0085 
L 362.625673 153.696418 
L 363.59083 154.039751 
L 364.073408 153.779887 
L 364.555987 153.669923 
L 365.038565 154.009058 
L 365.521143 153.813366 
L 366.003721 153.986013 
L 366.4863 153.875051 
L 366.968878 154.034152 
L 367.451456 153.943821 
L 367.934035 153.724789 
L 369.38177 154.008469 
L 369.864348 153.761187 
L 370.346926 154.064542 
L 370.829504 153.727391 
L 371.312083 154.027851 
L 371.794661 154.136079 
L 372.277239 154.116686 
L 372.759818 153.824133 
L 373.242396 153.956708 
L 373.724974 153.655035 
L 374.207552 153.771596 
L 374.690131 153.59379 
L 375.172709 153.722042 
L 375.655287 154.092849 
L 376.137866 153.901561 
L 376.620444 154.16266 
L 377.103022 154.13936 
L 377.5856 153.770616 
L 378.068179 153.935271 
L 380.48107 153.831128 
L 380.963649 154.142461 
L 381.446227 153.24958 
L 381.928805 154.053684 
L 382.411383 154.259402 
L 382.893962 153.55813 
L 383.37654 153.833743 
L 383.859118 153.942059 
L 384.341697 153.679072 
L 385.789431 154.030069 
L 386.754588 153.958555 
L 387.237166 153.994846 
L 387.719745 153.56328 
L 388.202323 153.788732 
L 388.684901 153.776571 
L 389.167479 153.905476 
L 389.650058 153.767033 
L 390.132636 153.838008 
L 390.615214 154.13351 
L 391.097793 154.151506 
L 392.062949 153.853023 
L 392.545528 154.008199 
L 393.028106 153.768782 
L 393.510684 154.156751 
L 393.993262 153.853774 
L 395.440997 153.693965 
L 395.923576 153.943102 
L 396.406154 153.783468 
L 396.888732 154.097047 
L 397.37131 153.931618 
L 397.853889 154.005887 
L 398.336467 154.368 
L 398.819045 153.756369 
L 399.301624 154.086431 
L 400.26678 154.265418 
L 400.749358 153.888305 
L 401.714515 154.064581 
L 402.197093 154.182528 
L 402.679672 153.970532 
L 403.16225 154.039579 
L 403.644828 153.897369 
L 404.609985 153.943262 
L 405.092563 154.26343 
L 405.575141 154.011913 
L 406.05772 154.005971 
L 406.540298 154.127809 
L 407.022876 153.556059 
L 407.505455 154.07637 
L 407.505455 154.07637 
" style="fill:none;stroke:#1f77b4;stroke-linecap:square;stroke-width:1.5;"/>
   </g>
   <g id="patch_8">
    <path d="M 256 159.744 
L 256 41.472 
" style="fill:none;stroke:#000000;stroke-linecap:square;stroke-linejoin:miter;stroke-width:0.8;"/>
   </g>
   <g id="patch_9">
    <path d="M 414.72 159.744 
L 414.72 41.472 
" style="fill:none;stroke:#000000;stroke-linecap:square;stroke-linejoin:miter;stroke-width:0.8;"/>
   </g>
   <g id="patch_10">
    <path d="M 256 159.744 
L 414.72 159.744 
" style="fill:none;stroke:#000000;stroke-linecap:square;stroke-linejoin:miter;stroke-width:0.8;"/>
   </g>
   <g id="patch_11">
    <path d="M 256 41.472 
L 414.72 41.472 
" style="fill:none;stroke:#000000;stroke-linecap:square;stroke-linejoin:miter;stroke-width:0.8;"/>
   </g>
   <g id="text_18">
    <!-- loss -->
    <defs>
     <path d="M 9.421875 75.984375 
L 18.40625 75.984375 
L 18.40625 0 
L 9.421875 0 
z
" id="DejaVuSans-6c"/>
     <path d="M 30.609375 48.390625 
Q 23.390625 48.390625 19.1875 42.75 
Q 14.984375 37.109375 14.984375 27.296875 
Q 14.984375 17.484375 19.15625 11.84375 
Q 23.34375 6.203125 30.609375 6.203125 
Q 37.796875 6.203125 41.984375 11.859375 
Q 46.1875 17.53125 46.1875 27.296875 
Q 46.1875 37.015625 41.984375 42.703125 
Q 37.796875 48.390625 30.609375 48.390625 
z
M 30.609375 56 
Q 42.328125 56 49.015625 48.375 
Q 55.71875 40.765625 55.71875 27.296875 
Q 55.71875 13.875 49.015625 6.21875 
Q 42.328125 -1.421875 30.609375 -1.421875 
Q 18.84375 -1.421875 12.171875 6.21875 
Q 5.515625 13.875 5.515625 27.296875 
Q 5.515625 40.765625 12.171875 48.375 
Q 18.84375 56 30.609375 56 
z
" id="DejaVuSans-6f"/>
     <path d="M 44.28125 53.078125 
L 44.28125 44.578125 
Q 40.484375 46.53125 36.375 47.5 
Q 32.28125 48.484375 27.875 48.484375 
Q 21.1875 48.484375 17.84375 46.4375 
Q 14.5 44.390625 14.5 40.28125 
Q 14.5 37.15625 16.890625 35.375 
Q 19.28125 33.59375 26.515625 31.984375 
L 29.59375 31.296875 
Q 39.15625 29.25 43.1875 25.515625 
Q 47.21875 21.78125 47.21875 15.09375 
Q 47.21875 7.46875 41.1875 3.015625 
Q 35.15625 -1.421875 24.609375 -1.421875 
Q 20.21875 -1.421875 15.453125 -0.5625 
Q 10.6875 0.296875 5.421875 2 
L 5.421875 11.28125 
Q 10.40625 8.6875 15.234375 7.390625 
Q 20.0625 6.109375 24.8125 6.109375 
Q 31.15625 6.109375 34.5625 8.28125 
Q 37.984375 10.453125 37.984375 14.40625 
Q 37.984375 18.0625 35.515625 20.015625 
Q 33.0625 21.96875 24.703125 23.78125 
L 21.578125 24.515625 
Q 13.234375 26.265625 9.515625 29.90625 
Q 5.8125 33.546875 5.8125 39.890625 
Q 5.8125 47.609375 11.28125 51.796875 
Q 16.75 56 26.8125 56 
Q 31.78125 56 36.171875 55.265625 
Q 40.578125 54.546875 44.28125 53.078125 
z
" id="DejaVuSans-73"/>
    </defs>
    <g transform="translate(323.770625 35.472)scale(0.12 -0.12)">
     <use xlink:href="#DejaVuSans-6c"/>
     <use x="27.783203" xlink:href="#DejaVuSans-6f"/>
     <use x="88.964844" xlink:href="#DejaVuSans-73"/>
     <use x="141.064453" xlink:href="#DejaVuSans-73"/>
    </g>
   </g>
  </g>
  <g id="axes_3">
   <g id="patch_12">
    <path d="M 57.6 307.584 
L 216.32 307.584 
L 216.32 189.312 
L 57.6 189.312 
z
" style="fill:#ffffff;"/>
   </g>
   <g id="matplotlib.axis_5">
    <g id="xtick_9">
     <g id="line2d_35">
      <path clip-path="url(#p44e901ec9a)" d="M 64.814545 307.584 
L 64.814545 189.312 
" style="fill:none;stroke:#b0b0b0;stroke-linecap:square;stroke-width:0.8;"/>
     </g>
     <g id="line2d_36">
      <g>
       <use style="stroke:#000000;stroke-width:0.8;" x="64.814545" xlink:href="#mb051623e48" y="307.584"/>
      </g>
     </g>
     <g id="text_19">
      <!-- 0 -->
      <g transform="translate(61.633295 322.182437)scale(0.1 -0.1)">
       <use xlink:href="#DejaVuSans-30"/>
      </g>
     </g>
    </g>
    <g id="xtick_10">
     <g id="line2d_37">
      <path clip-path="url(#p44e901ec9a)" d="M 113.072375 307.584 
L 113.072375 189.312 
" style="fill:none;stroke:#b0b0b0;stroke-linecap:square;stroke-width:0.8;"/>
     </g>
     <g id="line2d_38">
      <g>
       <use style="stroke:#000000;stroke-width:0.8;" x="113.072375" xlink:href="#mb051623e48" y="307.584"/>
      </g>
     </g>
     <g id="text_20">
      <!-- 100 -->
      <g transform="translate(103.528625 322.182437)scale(0.1 -0.1)">
       <use xlink:href="#DejaVuSans-31"/>
       <use x="63.623047" xlink:href="#DejaVuSans-30"/>
       <use x="127.246094" xlink:href="#DejaVuSans-30"/>
      </g>
     </g>
    </g>
    <g id="xtick_11">
     <g id="line2d_39">
      <path clip-path="url(#p44e901ec9a)" d="M 161.330204 307.584 
L 161.330204 189.312 
" style="fill:none;stroke:#b0b0b0;stroke-linecap:square;stroke-width:0.8;"/>
     </g>
     <g id="line2d_40">
      <g>
       <use style="stroke:#000000;stroke-width:0.8;" x="161.330204" xlink:href="#mb051623e48" y="307.584"/>
      </g>
     </g>
     <g id="text_21">
      <!-- 200 -->
      <g transform="translate(151.786454 322.182437)scale(0.1 -0.1)">
       <use xlink:href="#DejaVuSans-32"/>
       <use x="63.623047" xlink:href="#DejaVuSans-30"/>
       <use x="127.246094" xlink:href="#DejaVuSans-30"/>
      </g>
     </g>
    </g>
    <g id="xtick_12">
     <g id="line2d_41">
      <path clip-path="url(#p44e901ec9a)" d="M 209.588033 307.584 
L 209.588033 189.312 
" style="fill:none;stroke:#b0b0b0;stroke-linecap:square;stroke-width:0.8;"/>
     </g>
     <g id="line2d_42">
      <g>
       <use style="stroke:#000000;stroke-width:0.8;" x="209.588033" xlink:href="#mb051623e48" y="307.584"/>
      </g>
     </g>
     <g id="text_22">
      <!-- 300 -->
      <g transform="translate(200.044283 322.182437)scale(0.1 -0.1)">
       <use xlink:href="#DejaVuSans-33"/>
       <use x="63.623047" xlink:href="#DejaVuSans-30"/>
       <use x="127.246094" xlink:href="#DejaVuSans-30"/>
      </g>
     </g>
    </g>
   </g>
   <g id="matplotlib.axis_6">
    <g id="ytick_9">
     <g id="line2d_43">
      <path clip-path="url(#p44e901ec9a)" d="M 57.6 303.49824 
L 216.32 303.49824 
" style="fill:none;stroke:#b0b0b0;stroke-linecap:square;stroke-width:0.8;"/>
     </g>
     <g id="line2d_44">
      <g>
       <use style="stroke:#000000;stroke-width:0.8;" x="57.6" xlink:href="#m755547bff1" y="303.49824"/>
      </g>
     </g>
     <g id="text_23">
      <!-- 0.00 -->
      <g transform="translate(28.334375 307.297459)scale(0.1 -0.1)">
       <use xlink:href="#DejaVuSans-30"/>
       <use x="63.623047" xlink:href="#DejaVuSans-2e"/>
       <use x="95.410156" xlink:href="#DejaVuSans-30"/>
       <use x="159.033203" xlink:href="#DejaVuSans-30"/>
      </g>
     </g>
    </g>
    <g id="ytick_10">
     <g id="line2d_45">
      <path clip-path="url(#p44e901ec9a)" d="M 57.6 275.97312 
L 216.32 275.97312 
" style="fill:none;stroke:#b0b0b0;stroke-linecap:square;stroke-width:0.8;"/>
     </g>
     <g id="line2d_46">
      <g>
       <use style="stroke:#000000;stroke-width:0.8;" x="57.6" xlink:href="#m755547bff1" y="275.97312"/>
      </g>
     </g>
     <g id="text_24">
      <!-- 0.25 -->
      <g transform="translate(28.334375 279.772339)scale(0.1 -0.1)">
       <use xlink:href="#DejaVuSans-30"/>
       <use x="63.623047" xlink:href="#DejaVuSans-2e"/>
       <use x="95.410156" xlink:href="#DejaVuSans-32"/>
       <use x="159.033203" xlink:href="#DejaVuSans-35"/>
      </g>
     </g>
    </g>
    <g id="ytick_11">
     <g id="line2d_47">
      <path clip-path="url(#p44e901ec9a)" d="M 57.6 248.448 
L 216.32 248.448 
" style="fill:none;stroke:#b0b0b0;stroke-linecap:square;stroke-width:0.8;"/>
     </g>
     <g id="line2d_48">
      <g>
       <use style="stroke:#000000;stroke-width:0.8;" x="57.6" xlink:href="#m755547bff1" y="248.448"/>
      </g>
     </g>
     <g id="text_25">
      <!-- 0.50 -->
      <g transform="translate(28.334375 252.247219)scale(0.1 -0.1)">
       <use xlink:href="#DejaVuSans-30"/>
       <use x="63.623047" xlink:href="#DejaVuSans-2e"/>
       <use x="95.410156" xlink:href="#DejaVuSans-35"/>
       <use x="159.033203" xlink:href="#DejaVuSans-30"/>
      </g>
     </g>
    </g>
    <g id="ytick_12">
     <g id="line2d_49">
      <path clip-path="url(#p44e901ec9a)" d="M 57.6 220.92288 
L 216.32 220.92288 
" style="fill:none;stroke:#b0b0b0;stroke-linecap:square;stroke-width:0.8;"/>
     </g>
     <g id="line2d_50">
      <g>
       <use style="stroke:#000000;stroke-width:0.8;" x="57.6" xlink:href="#m755547bff1" y="220.92288"/>
      </g>
     </g>
     <g id="text_26">
      <!-- 0.75 -->
      <g transform="translate(28.334375 224.722099)scale(0.1 -0.1)">
       <use xlink:href="#DejaVuSans-30"/>
       <use x="63.623047" xlink:href="#DejaVuSans-2e"/>
       <use x="95.410156" xlink:href="#DejaVuSans-37"/>
       <use x="159.033203" xlink:href="#DejaVuSans-35"/>
      </g>
     </g>
    </g>
    <g id="ytick_13">
     <g id="line2d_51">
      <path clip-path="url(#p44e901ec9a)" d="M 57.6 193.39776 
L 216.32 193.39776 
" style="fill:none;stroke:#b0b0b0;stroke-linecap:square;stroke-width:0.8;"/>
     </g>
     <g id="line2d_52">
      <g>
       <use style="stroke:#000000;stroke-width:0.8;" x="57.6" xlink:href="#m755547bff1" y="193.39776"/>
      </g>
     </g>
     <g id="text_27">
      <!-- 1.00 -->
      <g transform="translate(28.334375 197.196978)scale(0.1 -0.1)">
       <use xlink:href="#DejaVuSans-31"/>
       <use x="63.623047" xlink:href="#DejaVuSans-2e"/>
       <use x="95.410156" xlink:href="#DejaVuSans-30"/>
       <use x="159.033203" xlink:href="#DejaVuSans-30"/>
      </g>
     </g>
    </g>
   </g>
   <g id="line2d_53">
    <path clip-path="url(#p44e901ec9a)" d="M 64.814545 302.208 
L 65.297124 300.48768 
L 65.779702 297.04704 
L 66.26228 292.74624 
L 66.744859 290.59584 
L 67.227437 280.703999 
L 67.710015 280.703999 
L 68.675172 258.76992 
L 69.15775 264.791039 
L 69.640328 266.511359 
L 70.122907 251.458559 
L 70.605485 259.630079 
L 71.088063 241.996798 
L 71.570642 244.147199 
L 72.05322 248.447999 
L 72.535798 241.996799 
L 73.018376 238.126078 
L 73.500955 237.265918 
L 73.983533 239.846399 
L 74.466111 231.674878 
L 74.94869 227.804157 
L 75.431268 229.094398 
L 75.913846 223.503359 
L 76.396424 232.965118 
L 76.879003 222.213118 
L 77.844159 223.933438 
L 78.326738 233.395197 
L 78.809316 214.901759 
L 79.291894 215.761919 
L 79.774472 221.783039 
L 80.257051 222.643199 
L 81.222207 213.611519 
L 81.704786 215.331839 
L 82.187364 217.912317 
L 82.669942 214.471679 
L 83.152521 211.891197 
L 83.635099 223.933438 
L 84.117677 210.600959 
L 84.600255 215.761918 
L 85.082834 215.761919 
L 85.565412 218.772477 
L 86.04799 222.643198 
L 86.530569 214.901759 
L 87.013147 217.052159 
L 87.495725 211.461119 
L 87.978303 209.31072 
L 88.460882 209.31072 
L 88.94346 208.02048 
L 89.426038 217.912319 
L 89.908617 206.30016 
L 90.391195 206.300161 
L 90.873773 205.009921 
L 91.356351 206.30016 
L 91.83893 204.57984 
L 92.321508 216.191999 
L 92.804086 206.73024 
L 93.286665 209.7408 
L 93.769243 205.44 
L 94.251821 203.289601 
L 94.7344 205.00992 
L 95.216978 204.149761 
L 95.699556 205.870079 
L 96.182134 202.42944 
L 96.664713 206.730239 
L 97.147291 205.44 
L 97.629869 205.44 
L 98.112448 206.30016 
L 98.595026 208.88064 
L 99.077604 210.60096 
L 99.560182 201.1392 
L 100.042761 206.73024 
L 100.525339 201.569281 
L 101.007917 201.99936 
L 101.490496 201.1392 
L 101.973074 201.999361 
L 102.455652 201.99936 
L 102.93823 199.41888 
L 103.420809 201.1392 
L 103.903387 199.418881 
L 104.868544 201.139201 
L 105.351122 201.139201 
L 105.8337 200.279041 
L 106.316279 204.579841 
L 106.798857 201.56928 
L 107.281435 203.719681 
L 107.764013 201.569281 
L 108.246592 198.55872 
L 108.72917 201.139201 
L 109.211748 208.45056 
L 109.694327 197.698561 
L 110.176905 198.988801 
L 110.659483 197.268481 
L 111.142061 197.698561 
L 111.62464 197.698561 
L 112.107218 198.55872 
L 112.589796 198.128641 
L 113.072375 200.70912 
L 113.554953 209.310719 
L 114.037531 200.709121 
L 114.520109 201.139201 
L 115.002688 199.418881 
L 115.485266 195.97824 
L 115.967844 199.848961 
L 116.450423 199.848961 
L 117.415579 198.128641 
L 117.898157 197.698561 
L 118.380736 204.57984 
L 118.863314 198.128641 
L 119.345892 199.848961 
L 119.828471 200.709121 
L 120.311049 200.70912 
L 120.793627 197.698561 
L 121.276206 198.988801 
L 121.758784 196.838401 
L 122.241362 199.418881 
L 122.72394 197.268481 
L 123.206519 199.41888 
L 123.689097 200.70912 
L 124.171675 203.719681 
L 124.654254 195.97824 
L 125.136832 200.709121 
L 125.61941 198.9888 
L 126.101988 198.558721 
L 126.584567 199.848961 
L 127.067145 198.128641 
L 127.549723 198.988801 
L 128.032302 198.128641 
L 128.51488 198.12864 
L 128.997458 200.27904 
L 129.480036 205.009919 
L 129.962615 206.30016 
L 130.445193 197.69856 
L 130.927771 197.698561 
L 131.41035 200.279041 
L 131.892928 195.11808 
L 132.375506 198.128641 
L 132.858085 197.26848 
L 133.823241 198.988801 
L 134.305819 196.838401 
L 134.788398 201.1392 
L 135.270976 197.268481 
L 135.753554 198.988801 
L 136.718711 198.128641 
L 137.201289 200.70912 
L 137.683867 197.69856 
L 138.166446 195.97824 
L 138.649024 196.40832 
L 139.131602 197.698561 
L 139.614181 197.268481 
L 140.096759 198.988801 
L 140.579337 199.84896 
L 141.061915 198.988801 
L 141.544494 197.698561 
L 142.027072 197.698561 
L 142.50965 199.418881 
L 142.992229 198.9888 
L 143.474807 198.128641 
L 143.957385 199.84896 
L 144.439964 197.268481 
L 144.922542 196.838401 
L 145.40512 198.558721 
L 145.887698 198.988801 
L 146.370277 198.128641 
L 146.852855 196.40832 
L 147.335433 196.40832 
L 147.818012 203.289601 
L 148.30059 197.26848 
L 148.783168 196.838401 
L 149.265746 200.27904 
L 149.748325 196.838401 
L 150.230903 200.709121 
L 150.713481 199.418881 
L 151.19606 198.988801 
L 151.678638 198.128641 
L 152.161216 197.698561 
L 152.643794 198.128641 
L 153.126373 198.988801 
L 153.608951 198.558721 
L 154.091529 196.838401 
L 154.574108 198.128641 
L 155.056686 196.838401 
L 155.539264 198.988801 
L 156.021843 199.84896 
L 156.504421 197.268481 
L 156.986999 197.268481 
L 157.469577 199.418881 
L 157.952156 195.97824 
L 158.434734 194.688 
L 158.917312 195.54816 
L 159.399891 199.418881 
L 159.882469 199.418881 
L 160.365047 197.698561 
L 160.847625 199.848961 
L 161.330204 196.40832 
L 161.812782 204.579841 
L 162.29536 216.191998 
L 162.777939 198.988801 
L 163.260517 197.698561 
L 163.743095 196.8384 
L 164.225673 196.40832 
L 164.708252 198.9888 
L 165.19083 195.11808 
L 165.673408 198.9888 
L 166.155987 197.698561 
L 166.638565 200.279041 
L 167.121143 200.279041 
L 167.603721 204.149761 
L 168.0863 196.40832 
L 168.568878 201.99936 
L 169.051456 200.709121 
L 169.534035 196.838401 
L 170.016613 195.54816 
L 170.499191 195.54816 
L 170.98177 196.838401 
L 171.946926 195.97824 
L 172.429504 197.268481 
L 172.912083 196.8384 
L 173.394661 195.54816 
L 173.877239 200.70912 
L 174.359818 197.698561 
L 174.842396 196.40832 
L 175.324974 197.268481 
L 175.807552 197.698561 
L 176.290131 202.85952 
L 176.772709 195.97824 
L 177.255287 198.128641 
L 177.737866 197.698561 
L 178.220444 196.40832 
L 178.703022 196.40832 
L 179.1856 199.41888 
L 179.668179 195.97824 
L 180.150757 199.418881 
L 180.633335 197.26848 
L 181.115914 198.988801 
L 181.598492 197.268481 
L 182.08107 196.8384 
L 182.563649 202.85952 
L 183.046227 197.268481 
L 183.528805 198.558721 
L 184.011383 197.268481 
L 184.493962 196.40832 
L 184.97654 195.97824 
L 185.941697 195.97824 
L 186.424275 199.418881 
L 186.906853 197.268481 
L 187.389431 199.418881 
L 187.87201 196.838401 
L 188.354588 197.268481 
L 188.837166 197.268481 
L 189.319745 196.8384 
L 189.802323 197.698561 
L 190.284901 197.268481 
L 190.767479 194.688 
L 191.250058 198.988801 
L 191.732636 196.40832 
L 192.215214 195.54816 
L 192.697793 200.279041 
L 193.662949 195.97824 
L 194.145528 200.70912 
L 194.628106 196.8384 
L 195.110684 198.128641 
L 195.593262 198.12864 
L 196.075841 203.719681 
L 196.558419 197.698561 
L 197.040997 198.12864 
L 197.523576 198.128641 
L 198.006154 199.418881 
L 198.488732 195.97824 
L 198.97131 196.40832 
L 199.453889 200.709121 
L 199.936467 198.558721 
L 200.419045 197.268481 
L 200.901624 197.268481 
L 201.384202 196.40832 
L 201.86678 195.97824 
L 202.349358 197.268481 
L 202.831937 204.149761 
L 203.314515 197.698561 
L 203.797093 197.268481 
L 204.279672 197.268481 
L 204.76225 198.9888 
L 205.244828 195.97824 
L 206.209985 195.97824 
L 206.692563 197.268481 
L 207.175141 201.99936 
L 207.65772 196.838401 
L 208.140298 217.482239 
L 208.622876 198.558721 
L 209.105455 204.14976 
L 209.105455 204.14976 
" style="fill:none;stroke:#1f77b4;stroke-linecap:square;stroke-width:1.5;"/>
   </g>
   <g id="patch_13">
    <path d="M 57.6 307.584 
L 57.6 189.312 
" style="fill:none;stroke:#000000;stroke-linecap:square;stroke-linejoin:miter;stroke-width:0.8;"/>
   </g>
   <g id="patch_14">
    <path d="M 216.32 307.584 
L 216.32 189.312 
" style="fill:none;stroke:#000000;stroke-linecap:square;stroke-linejoin:miter;stroke-width:0.8;"/>
   </g>
   <g id="patch_15">
    <path d="M 57.6 307.584 
L 216.32 307.584 
" style="fill:none;stroke:#000000;stroke-linecap:square;stroke-linejoin:miter;stroke-width:0.8;"/>
   </g>
   <g id="patch_16">
    <path d="M 57.6 189.312 
L 216.32 189.312 
" style="fill:none;stroke:#000000;stroke-linecap:square;stroke-linejoin:miter;stroke-width:0.8;"/>
   </g>
   <g id="text_28">
    <!-- val_acc -->
    <defs>
     <path d="M 2.984375 54.6875 
L 12.5 54.6875 
L 29.59375 8.796875 
L 46.6875 54.6875 
L 56.203125 54.6875 
L 35.6875 0 
L 23.484375 0 
z
" id="DejaVuSans-76"/>
     <path d="M 50.984375 -16.609375 
L 50.984375 -23.578125 
L -0.984375 -23.578125 
L -0.984375 -16.609375 
z
" id="DejaVuSans-5f"/>
    </defs>
    <g transform="translate(114.79 183.312)scale(0.12 -0.12)">
     <use xlink:href="#DejaVuSans-76"/>
     <use x="59.179688" xlink:href="#DejaVuSans-61"/>
     <use x="120.458984" xlink:href="#DejaVuSans-6c"/>
     <use x="148.242188" xlink:href="#DejaVuSans-5f"/>
     <use x="198.242188" xlink:href="#DejaVuSans-61"/>
     <use x="259.521484" xlink:href="#DejaVuSans-63"/>
     <use x="314.501953" xlink:href="#DejaVuSans-63"/>
    </g>
   </g>
  </g>
  <g id="axes_4">
   <g id="patch_17">
    <path d="M 256 307.584 
L 414.72 307.584 
L 414.72 189.312 
L 256 189.312 
z
" style="fill:#ffffff;"/>
   </g>
   <g id="matplotlib.axis_7">
    <g id="xtick_13">
     <g id="line2d_54">
      <path clip-path="url(#p7e3e652e5c)" d="M 263.214545 307.584 
L 263.214545 189.312 
" style="fill:none;stroke:#b0b0b0;stroke-linecap:square;stroke-width:0.8;"/>
     </g>
     <g id="line2d_55">
      <g>
       <use style="stroke:#000000;stroke-width:0.8;" x="263.214545" xlink:href="#mb051623e48" y="307.584"/>
      </g>
     </g>
     <g id="text_29">
      <!-- 0 -->
      <g transform="translate(260.033295 322.182437)scale(0.1 -0.1)">
       <use xlink:href="#DejaVuSans-30"/>
      </g>
     </g>
    </g>
    <g id="xtick_14">
     <g id="line2d_56">
      <path clip-path="url(#p7e3e652e5c)" d="M 311.472375 307.584 
L 311.472375 189.312 
" style="fill:none;stroke:#b0b0b0;stroke-linecap:square;stroke-width:0.8;"/>
     </g>
     <g id="line2d_57">
      <g>
       <use style="stroke:#000000;stroke-width:0.8;" x="311.472375" xlink:href="#mb051623e48" y="307.584"/>
      </g>
     </g>
     <g id="text_30">
      <!-- 100 -->
      <g transform="translate(301.928625 322.182437)scale(0.1 -0.1)">
       <use xlink:href="#DejaVuSans-31"/>
       <use x="63.623047" xlink:href="#DejaVuSans-30"/>
       <use x="127.246094" xlink:href="#DejaVuSans-30"/>
      </g>
     </g>
    </g>
    <g id="xtick_15">
     <g id="line2d_58">
      <path clip-path="url(#p7e3e652e5c)" d="M 359.730204 307.584 
L 359.730204 189.312 
" style="fill:none;stroke:#b0b0b0;stroke-linecap:square;stroke-width:0.8;"/>
     </g>
     <g id="line2d_59">
      <g>
       <use style="stroke:#000000;stroke-width:0.8;" x="359.730204" xlink:href="#mb051623e48" y="307.584"/>
      </g>
     </g>
     <g id="text_31">
      <!-- 200 -->
      <g transform="translate(350.186454 322.182437)scale(0.1 -0.1)">
       <use xlink:href="#DejaVuSans-32"/>
       <use x="63.623047" xlink:href="#DejaVuSans-30"/>
       <use x="127.246094" xlink:href="#DejaVuSans-30"/>
      </g>
     </g>
    </g>
    <g id="xtick_16">
     <g id="line2d_60">
      <path clip-path="url(#p7e3e652e5c)" d="M 407.988033 307.584 
L 407.988033 189.312 
" style="fill:none;stroke:#b0b0b0;stroke-linecap:square;stroke-width:0.8;"/>
     </g>
     <g id="line2d_61">
      <g>
       <use style="stroke:#000000;stroke-width:0.8;" x="407.988033" xlink:href="#mb051623e48" y="307.584"/>
      </g>
     </g>
     <g id="text_32">
      <!-- 300 -->
      <g transform="translate(398.444283 322.182437)scale(0.1 -0.1)">
       <use xlink:href="#DejaVuSans-33"/>
       <use x="63.623047" xlink:href="#DejaVuSans-30"/>
       <use x="127.246094" xlink:href="#DejaVuSans-30"/>
      </g>
     </g>
    </g>
   </g>
   <g id="matplotlib.axis_8">
    <g id="ytick_14">
     <g id="line2d_62">
      <path clip-path="url(#p7e3e652e5c)" d="M 256 303.779549 
L 414.72 303.779549 
" style="fill:none;stroke:#b0b0b0;stroke-linecap:square;stroke-width:0.8;"/>
     </g>
     <g id="line2d_63">
      <g>
       <use style="stroke:#000000;stroke-width:0.8;" x="256" xlink:href="#m755547bff1" y="303.779549"/>
      </g>
     </g>
     <g id="text_33">
      <!-- 0 -->
      <g transform="translate(242.6375 307.578768)scale(0.1 -0.1)">
       <use xlink:href="#DejaVuSans-30"/>
      </g>
     </g>
    </g>
    <g id="ytick_15">
     <g id="line2d_64">
      <path clip-path="url(#p7e3e652e5c)" d="M 256 262.804238 
L 414.72 262.804238 
" style="fill:none;stroke:#b0b0b0;stroke-linecap:square;stroke-width:0.8;"/>
     </g>
     <g id="line2d_65">
      <g>
       <use style="stroke:#000000;stroke-width:0.8;" x="256" xlink:href="#m755547bff1" y="262.804238"/>
      </g>
     </g>
     <g id="text_34">
      <!-- 2 -->
      <g transform="translate(242.6375 266.603457)scale(0.1 -0.1)">
       <use xlink:href="#DejaVuSans-32"/>
      </g>
     </g>
    </g>
    <g id="ytick_16">
     <g id="line2d_66">
      <path clip-path="url(#p7e3e652e5c)" d="M 256 221.828927 
L 414.72 221.828927 
" style="fill:none;stroke:#b0b0b0;stroke-linecap:square;stroke-width:0.8;"/>
     </g>
     <g id="line2d_67">
      <g>
       <use style="stroke:#000000;stroke-width:0.8;" x="256" xlink:href="#m755547bff1" y="221.828927"/>
      </g>
     </g>
     <g id="text_35">
      <!-- 4 -->
      <g transform="translate(242.6375 225.628146)scale(0.1 -0.1)">
       <use xlink:href="#DejaVuSans-34"/>
      </g>
     </g>
    </g>
   </g>
   <g id="line2d_68">
    <path clip-path="url(#p7e3e652e5c)" d="M 263.214545 194.688 
L 265.627437 238.442503 
L 266.110015 241.06884 
L 266.592593 245.302357 
L 267.075172 251.765885 
L 267.55775 254.010415 
L 268.040328 254.851386 
L 268.522907 260.59742 
L 269.005485 260.744458 
L 269.488063 265.246607 
L 269.970642 266.46882 
L 270.45322 268.840271 
L 270.935798 270.098581 
L 271.418376 271.797254 
L 271.900955 273.068746 
L 272.383533 272.882406 
L 272.866111 276.317779 
L 273.34869 278.116718 
L 274.313846 279.80959 
L 274.796424 277.16297 
L 275.279003 283.003358 
L 276.244159 281.909969 
L 276.726738 278.240235 
L 277.209316 285.67995 
L 277.691894 287.33148 
L 278.174472 284.746536 
L 278.657051 284.09971 
L 279.139629 288.002254 
L 279.622207 289.015227 
L 280.104786 288.403476 
L 280.587364 288.788395 
L 281.069942 290.722668 
L 281.552521 290.812349 
L 282.035099 286.297115 
L 282.517677 292.560673 
L 283.482834 287.627344 
L 283.965412 288.177305 
L 284.44799 287.913466 
L 284.930569 291.019137 
L 285.413147 288.306713 
L 285.895725 292.412905 
L 286.378303 293.876136 
L 286.860882 293.528053 
L 287.34346 294.697933 
L 287.826038 288.822155 
L 288.308617 295.620302 
L 288.791195 295.656535 
L 289.273773 296.219325 
L 289.756351 294.899485 
L 290.23893 296.26247 
L 290.721508 290.457414 
L 291.204086 295.253168 
L 291.686665 292.782076 
L 292.169243 296.716785 
L 292.651821 296.954154 
L 293.1344 296.511111 
L 293.616978 297.470965 
L 294.099556 296.301423 
L 294.582134 297.859397 
L 295.064713 295.778723 
L 295.547291 295.792966 
L 296.029869 296.553021 
L 296.512448 296.07399 
L 296.995026 294.220562 
L 297.477604 293.81016 
L 297.960182 298.418832 
L 298.442761 296.45579 
L 298.925339 298.953745 
L 299.407917 297.854489 
L 299.890496 299.099357 
L 300.373074 299.169651 
L 300.855652 298.807208 
L 301.33823 299.650079 
L 301.820809 299.244177 
L 302.303387 299.372346 
L 302.785965 299.66719 
L 303.268544 299.324096 
L 303.751122 299.326636 
L 304.2337 299.756212 
L 304.716279 297.86229 
L 305.198857 299.469246 
L 305.681435 297.526204 
L 306.164013 298.980127 
L 306.646592 301.045551 
L 307.12917 299.125127 
L 307.611748 295.064913 
L 308.094327 300.083948 
L 308.576905 300.251054 
L 309.059483 300.5824 
L 309.542061 300.494057 
L 310.02464 301.235104 
L 310.507218 300.257103 
L 310.989796 300.713511 
L 311.472375 300.337699 
L 311.954953 293.734232 
L 312.437531 299.38499 
L 312.920109 298.887348 
L 313.885266 301.437574 
L 314.367844 300.218677 
L 314.850423 300.161334 
L 315.333001 299.565524 
L 315.815579 301.385833 
L 316.298157 300.615057 
L 316.780736 297.681535 
L 317.263314 301.139825 
L 317.745892 299.197722 
L 318.228471 300.022372 
L 318.711049 299.589682 
L 319.193627 300.838248 
L 319.676206 299.896932 
L 320.158784 301.369187 
L 320.641362 300.449107 
L 321.12394 301.162897 
L 321.606519 299.809242 
L 322.089097 297.910381 
L 322.571675 297.973669 
L 323.054254 301.247634 
L 323.536832 299.464646 
L 324.01941 300.454258 
L 324.501988 301.182619 
L 324.984567 299.655313 
L 325.467145 301.572974 
L 325.949723 300.654238 
L 326.432302 300.526943 
L 326.91488 301.266997 
L 327.397458 299.689198 
L 327.880036 296.528903 
L 328.362615 294.478772 
L 328.845193 300.846334 
L 329.327771 300.188932 
L 329.81035 299.322198 
L 330.292928 301.8067 
L 330.775506 301.333693 
L 331.258085 301.184036 
L 331.740663 300.727604 
L 332.223241 300.059092 
L 332.705819 300.838674 
L 333.188398 299.749889 
L 333.670976 301.347034 
L 334.153554 300.700995 
L 334.636133 300.95223 
L 335.118711 300.821874 
L 335.601289 299.911161 
L 336.566446 301.506182 
L 337.049024 301.659456 
L 337.531602 301.477105 
L 338.014181 301.436576 
L 338.496759 299.70714 
L 338.979337 299.916308 
L 339.461915 299.398395 
L 339.944494 301.2994 
L 340.427072 301.159194 
L 340.90965 299.727196 
L 341.392229 300.470593 
L 342.357385 299.30199 
L 342.839964 300.348922 
L 343.322542 300.4694 
L 343.80512 300.230542 
L 344.287698 299.805886 
L 344.770277 300.502404 
L 345.252855 301.671703 
L 345.735433 301.157644 
L 346.218012 297.943925 
L 346.70059 300.696683 
L 347.183168 301.452717 
L 347.665746 299.05248 
L 348.148325 301.261265 
L 348.630903 298.797717 
L 349.113481 299.87246 
L 349.59606 299.288346 
L 350.078638 300.408163 
L 350.561216 299.669347 
L 351.043794 300.694997 
L 351.526373 299.561365 
L 352.008951 299.630256 
L 352.491529 301.466896 
L 352.974108 299.550979 
L 353.456686 300.548907 
L 353.939264 300.135685 
L 354.421843 298.274649 
L 354.904421 300.134212 
L 355.386999 299.468126 
L 355.869577 299.240568 
L 356.352156 301.036877 
L 356.834734 301.62892 
L 357.317312 301.569028 
L 358.282469 298.39872 
L 358.765047 300.70069 
L 359.247625 298.766464 
L 359.730204 301.258058 
L 360.212782 295.408283 
L 360.69536 280.663807 
L 361.177939 299.281553 
L 361.660517 299.992858 
L 362.143095 301.020131 
L 362.625673 300.996506 
L 363.108252 300.148228 
L 363.59083 302.208 
L 364.073408 300.873845 
L 364.555987 299.962687 
L 365.038565 298.578811 
L 365.521143 298.129891 
L 366.003721 296.525809 
L 366.4863 301.154721 
L 366.968878 297.329029 
L 367.451456 297.630927 
L 367.934035 300.465665 
L 368.416613 301.560916 
L 368.899191 301.169734 
L 369.864348 301.148796 
L 370.346926 301.219517 
L 370.829504 300.353049 
L 371.312083 300.069729 
L 371.794661 301.378819 
L 372.277239 298.016759 
L 372.759818 300.188122 
L 373.242396 300.092229 
L 373.724974 300.130089 
L 374.207552 299.93207 
L 374.690131 293.065477 
L 375.172709 301.241722 
L 375.655287 299.948286 
L 376.137866 300.701089 
L 376.620444 300.963783 
L 377.103022 300.856769 
L 377.5856 299.159678 
L 378.068179 301.70419 
L 378.550757 298.708058 
L 379.033335 300.345256 
L 379.515914 299.292483 
L 379.998492 300.875773 
L 380.48107 301.003255 
L 380.963649 296.049917 
L 381.446227 300.505999 
L 381.928805 300.138754 
L 382.411383 300.355641 
L 382.893962 300.719766 
L 383.859118 302.019705 
L 384.341697 301.048832 
L 384.824275 299.35775 
L 385.306853 300.650577 
L 385.789431 299.860572 
L 386.27201 300.973478 
L 386.754588 300.570258 
L 387.237166 300.699875 
L 387.719745 301.188959 
L 388.202323 299.334139 
L 388.684901 300.187834 
L 389.167479 301.724066 
L 389.650058 299.497938 
L 390.132636 301.212041 
L 390.615214 301.905035 
L 391.097793 297.634064 
L 391.580371 300.252752 
L 392.062949 301.011089 
L 392.545528 299.363405 
L 393.028106 301.350191 
L 393.510684 300.472854 
L 393.993262 299.990156 
L 394.475841 296.778248 
L 394.958419 300.662629 
L 395.440997 300.546792 
L 395.923576 300.292164 
L 396.406154 298.799824 
L 396.888732 301.208481 
L 397.37131 300.260299 
L 397.853889 297.934256 
L 398.336467 300.070022 
L 398.819045 300.954695 
L 399.301624 300.711003 
L 399.784202 300.984483 
L 400.26678 300.746555 
L 400.749358 300.771805 
L 401.231937 293.766097 
L 401.714515 298.764535 
L 402.197093 300.20242 
L 402.679672 300.216173 
L 403.16225 300.358087 
L 403.644828 301.276354 
L 404.127407 300.920111 
L 404.609985 299.891406 
L 405.092563 299.628865 
L 405.575141 295.245913 
L 406.05772 301.03065 
L 406.540298 279.499873 
L 407.022876 299.260292 
L 407.505455 293.026233 
L 407.505455 293.026233 
" style="fill:none;stroke:#1f77b4;stroke-linecap:square;stroke-width:1.5;"/>
   </g>
   <g id="patch_18">
    <path d="M 256 307.584 
L 256 189.312 
" style="fill:none;stroke:#000000;stroke-linecap:square;stroke-linejoin:miter;stroke-width:0.8;"/>
   </g>
   <g id="patch_19">
    <path d="M 414.72 307.584 
L 414.72 189.312 
" style="fill:none;stroke:#000000;stroke-linecap:square;stroke-linejoin:miter;stroke-width:0.8;"/>
   </g>
   <g id="patch_20">
    <path d="M 256 307.584 
L 414.72 307.584 
" style="fill:none;stroke:#000000;stroke-linecap:square;stroke-linejoin:miter;stroke-width:0.8;"/>
   </g>
   <g id="patch_21">
    <path d="M 256 189.312 
L 414.72 189.312 
" style="fill:none;stroke:#000000;stroke-linecap:square;stroke-linejoin:miter;stroke-width:0.8;"/>
   </g>
   <g id="text_36">
    <!-- val_loss -->
    <g transform="translate(311.875625 183.312)scale(0.12 -0.12)">
     <use xlink:href="#DejaVuSans-76"/>
     <use x="59.179688" xlink:href="#DejaVuSans-61"/>
     <use x="120.458984" xlink:href="#DejaVuSans-6c"/>
     <use x="148.242188" xlink:href="#DejaVuSans-5f"/>
     <use x="198.242188" xlink:href="#DejaVuSans-6c"/>
     <use x="226.025391" xlink:href="#DejaVuSans-6f"/>
     <use x="287.207031" xlink:href="#DejaVuSans-73"/>
     <use x="339.306641" xlink:href="#DejaVuSans-73"/>
    </g>
   </g>
  </g>
  <g id="text_37">
   <!-- benchmark 20171023_092724 -->
   <defs>
    <path d="M 48.6875 27.296875 
Q 48.6875 37.203125 44.609375 42.84375 
Q 40.53125 48.484375 33.40625 48.484375 
Q 26.265625 48.484375 22.1875 42.84375 
Q 18.109375 37.203125 18.109375 27.296875 
Q 18.109375 17.390625 22.1875 11.75 
Q 26.265625 6.109375 33.40625 6.109375 
Q 40.53125 6.109375 44.609375 11.75 
Q 48.6875 17.390625 48.6875 27.296875 
z
M 18.109375 46.390625 
Q 20.953125 51.265625 25.265625 53.625 
Q 29.59375 56 35.59375 56 
Q 45.5625 56 51.78125 48.09375 
Q 58.015625 40.1875 58.015625 27.296875 
Q 58.015625 14.40625 51.78125 6.484375 
Q 45.5625 -1.421875 35.59375 -1.421875 
Q 29.59375 -1.421875 25.265625 0.953125 
Q 20.953125 3.328125 18.109375 8.203125 
L 18.109375 0 
L 9.078125 0 
L 9.078125 75.984375 
L 18.109375 75.984375 
z
" id="DejaVuSans-62"/>
    <path d="M 56.203125 29.59375 
L 56.203125 25.203125 
L 14.890625 25.203125 
Q 15.484375 15.921875 20.484375 11.0625 
Q 25.484375 6.203125 34.421875 6.203125 
Q 39.59375 6.203125 44.453125 7.46875 
Q 49.3125 8.734375 54.109375 11.28125 
L 54.109375 2.78125 
Q 49.265625 0.734375 44.1875 -0.34375 
Q 39.109375 -1.421875 33.890625 -1.421875 
Q 20.796875 -1.421875 13.15625 6.1875 
Q 5.515625 13.8125 5.515625 26.8125 
Q 5.515625 40.234375 12.765625 48.109375 
Q 20.015625 56 32.328125 56 
Q 43.359375 56 49.78125 48.890625 
Q 56.203125 41.796875 56.203125 29.59375 
z
M 47.21875 32.234375 
Q 47.125 39.59375 43.09375 43.984375 
Q 39.0625 48.390625 32.421875 48.390625 
Q 24.90625 48.390625 20.390625 44.140625 
Q 15.875 39.890625 15.1875 32.171875 
z
" id="DejaVuSans-65"/>
    <path d="M 54.890625 33.015625 
L 54.890625 0 
L 45.90625 0 
L 45.90625 32.71875 
Q 45.90625 40.484375 42.875 44.328125 
Q 39.84375 48.1875 33.796875 48.1875 
Q 26.515625 48.1875 22.3125 43.546875 
Q 18.109375 38.921875 18.109375 30.90625 
L 18.109375 0 
L 9.078125 0 
L 9.078125 54.6875 
L 18.109375 54.6875 
L 18.109375 46.1875 
Q 21.34375 51.125 25.703125 53.5625 
Q 30.078125 56 35.796875 56 
Q 45.21875 56 50.046875 50.171875 
Q 54.890625 44.34375 54.890625 33.015625 
z
" id="DejaVuSans-6e"/>
    <path d="M 54.890625 33.015625 
L 54.890625 0 
L 45.90625 0 
L 45.90625 32.71875 
Q 45.90625 40.484375 42.875 44.328125 
Q 39.84375 48.1875 33.796875 48.1875 
Q 26.515625 48.1875 22.3125 43.546875 
Q 18.109375 38.921875 18.109375 30.90625 
L 18.109375 0 
L 9.078125 0 
L 9.078125 75.984375 
L 18.109375 75.984375 
L 18.109375 46.1875 
Q 21.34375 51.125 25.703125 53.5625 
Q 30.078125 56 35.796875 56 
Q 45.21875 56 50.046875 50.171875 
Q 54.890625 44.34375 54.890625 33.015625 
z
" id="DejaVuSans-68"/>
    <path d="M 52 44.1875 
Q 55.375 50.25 60.0625 53.125 
Q 64.75 56 71.09375 56 
Q 79.640625 56 84.28125 50.015625 
Q 88.921875 44.046875 88.921875 33.015625 
L 88.921875 0 
L 79.890625 0 
L 79.890625 32.71875 
Q 79.890625 40.578125 77.09375 44.375 
Q 74.3125 48.1875 68.609375 48.1875 
Q 61.625 48.1875 57.5625 43.546875 
Q 53.515625 38.921875 53.515625 30.90625 
L 53.515625 0 
L 44.484375 0 
L 44.484375 32.71875 
Q 44.484375 40.625 41.703125 44.40625 
Q 38.921875 48.1875 33.109375 48.1875 
Q 26.21875 48.1875 22.15625 43.53125 
Q 18.109375 38.875 18.109375 30.90625 
L 18.109375 0 
L 9.078125 0 
L 9.078125 54.6875 
L 18.109375 54.6875 
L 18.109375 46.1875 
Q 21.1875 51.21875 25.484375 53.609375 
Q 29.78125 56 35.6875 56 
Q 41.65625 56 45.828125 52.96875 
Q 50 49.953125 52 44.1875 
z
" id="DejaVuSans-6d"/>
    <path d="M 41.109375 46.296875 
Q 39.59375 47.171875 37.8125 47.578125 
Q 36.03125 48 33.890625 48 
Q 26.265625 48 22.1875 43.046875 
Q 18.109375 38.09375 18.109375 28.8125 
L 18.109375 0 
L 9.078125 0 
L 9.078125 54.6875 
L 18.109375 54.6875 
L 18.109375 46.1875 
Q 20.953125 51.171875 25.484375 53.578125 
Q 30.03125 56 36.53125 56 
Q 37.453125 56 38.578125 55.875 
Q 39.703125 55.765625 41.0625 55.515625 
z
" id="DejaVuSans-72"/>
    <path d="M 9.078125 75.984375 
L 18.109375 75.984375 
L 18.109375 31.109375 
L 44.921875 54.6875 
L 56.390625 54.6875 
L 27.390625 29.109375 
L 57.625 0 
L 45.90625 0 
L 18.109375 26.703125 
L 18.109375 0 
L 9.078125 0 
z
" id="DejaVuSans-6b"/>
    <path id="DejaVuSans-20"/>
    <path d="M 10.984375 1.515625 
L 10.984375 10.5 
Q 14.703125 8.734375 18.5 7.8125 
Q 22.3125 6.890625 25.984375 6.890625 
Q 35.75 6.890625 40.890625 13.453125 
Q 46.046875 20.015625 46.78125 33.40625 
Q 43.953125 29.203125 39.59375 26.953125 
Q 35.25 24.703125 29.984375 24.703125 
Q 19.046875 24.703125 12.671875 31.3125 
Q 6.296875 37.9375 6.296875 49.421875 
Q 6.296875 60.640625 12.9375 67.421875 
Q 19.578125 74.21875 30.609375 74.21875 
Q 43.265625 74.21875 49.921875 64.515625 
Q 56.59375 54.828125 56.59375 36.375 
Q 56.59375 19.140625 48.40625 8.859375 
Q 40.234375 -1.421875 26.421875 -1.421875 
Q 22.703125 -1.421875 18.890625 -0.6875 
Q 15.09375 0.046875 10.984375 1.515625 
z
M 30.609375 32.421875 
Q 37.25 32.421875 41.125 36.953125 
Q 45.015625 41.5 45.015625 49.421875 
Q 45.015625 57.28125 41.125 61.84375 
Q 37.25 66.40625 30.609375 66.40625 
Q 23.96875 66.40625 20.09375 61.84375 
Q 16.21875 57.28125 16.21875 49.421875 
Q 16.21875 41.5 20.09375 36.953125 
Q 23.96875 32.421875 30.609375 32.421875 
z
" id="DejaVuSans-39"/>
   </defs>
   <g transform="translate(138.180938 16.030125)scale(0.12 -0.12)">
    <use xlink:href="#DejaVuSans-62"/>
    <use x="63.476562" xlink:href="#DejaVuSans-65"/>
    <use x="125" xlink:href="#DejaVuSans-6e"/>
    <use x="188.378906" xlink:href="#DejaVuSans-63"/>
    <use x="243.359375" xlink:href="#DejaVuSans-68"/>
    <use x="306.738281" xlink:href="#DejaVuSans-6d"/>
    <use x="404.150391" xlink:href="#DejaVuSans-61"/>
    <use x="465.429688" xlink:href="#DejaVuSans-72"/>
    <use x="506.542969" xlink:href="#DejaVuSans-6b"/>
    <use x="564.453125" xlink:href="#DejaVuSans-20"/>
    <use x="596.240234" xlink:href="#DejaVuSans-32"/>
    <use x="659.863281" xlink:href="#DejaVuSans-30"/>
    <use x="723.486328" xlink:href="#DejaVuSans-31"/>
    <use x="787.109375" xlink:href="#DejaVuSans-37"/>
    <use x="850.732422" xlink:href="#DejaVuSans-31"/>
    <use x="914.355469" xlink:href="#DejaVuSans-30"/>
    <use x="977.978516" xlink:href="#DejaVuSans-32"/>
    <use x="1041.601562" xlink:href="#DejaVuSans-33"/>
    <use x="1105.224609" xlink:href="#DejaVuSans-5f"/>
    <use x="1155.224609" xlink:href="#DejaVuSans-30"/>
    <use x="1218.847656" xlink:href="#DejaVuSans-39"/>
    <use x="1282.470703" xlink:href="#DejaVuSans-32"/>
    <use x="1346.09375" xlink:href="#DejaVuSans-37"/>
    <use x="1409.716797" xlink:href="#DejaVuSans-32"/>
    <use x="1473.339844" xlink:href="#DejaVuSans-34"/>
   </g>
  </g>
 </g>
 <defs>
  <clipPath id="p969f31519a">
   <rect height="118.272" width="158.72" x="57.6" y="41.472"/>
  </clipPath>
  <clipPath id="pe10d897e6b">
   <rect height="118.272" width="158.72" x="256" y="41.472"/>
  </clipPath>
  <clipPath id="p44e901ec9a">
   <rect height="118.272" width="158.72" x="57.6" y="189.312"/>
  </clipPath>
  <clipPath id="p7e3e652e5c">
   <rect height="118.272" width="158.72" x="256" y="189.312"/>
  </clipPath>
 </defs>
</svg>
