<?xml version="1.0" encoding="utf-8" standalone="no"?>
<!DOCTYPE svg PUBLIC "-//W3C//DTD SVG 1.1//EN"
  "http://www.w3.org/Graphics/SVG/1.1/DTD/svg11.dtd">
<!-- Created with matplotlib (http://matplotlib.org/) -->
<svg height="345pt" version="1.1" viewBox="0 0 460 345" width="460pt" xmlns="http://www.w3.org/2000/svg" xmlns:xlink="http://www.w3.org/1999/xlink">
 <defs>
  <style type="text/css">
*{stroke-linecap:butt;stroke-linejoin:round;}
  </style>
 </defs>
 <g id="figure_1">
  <g id="patch_1">
   <path d="M 0 345.6 
L 460.8 345.6 
L 460.8 0 
L 0 0 
z
" style="fill:#ffffff;"/>
  </g>
  <g id="axes_1">
   <g id="patch_2">
    <path d="M 57.6 159.744 
L 216.32 159.744 
L 216.32 41.472 
L 57.6 41.472 
z
" style="fill:#ffffff;"/>
   </g>
   <g id="matplotlib.axis_1">
    <g id="xtick_1">
     <g id="line2d_1">
      <path clip-path="url(#pdf824ff602)" d="M 64.814545 159.744 
L 64.814545 41.472 
" style="fill:none;stroke:#b0b0b0;stroke-linecap:square;stroke-width:0.8;"/>
     </g>
     <g id="line2d_2">
      <defs>
       <path d="M 0 0 
L 0 3.5 
" id="m45c7551f91" style="stroke:#000000;stroke-width:0.8;"/>
      </defs>
      <g>
       <use style="stroke:#000000;stroke-width:0.8;" x="64.814545" xlink:href="#m45c7551f91" y="159.744"/>
      </g>
     </g>
     <g id="text_1">
      <!-- 0 -->
      <defs>
       <path d="M 31.78125 66.40625 
Q 24.171875 66.40625 20.328125 58.90625 
Q 16.5 51.421875 16.5 36.375 
Q 16.5 21.390625 20.328125 13.890625 
Q 24.171875 6.390625 31.78125 6.390625 
Q 39.453125 6.390625 43.28125 13.890625 
Q 47.125 21.390625 47.125 36.375 
Q 47.125 51.421875 43.28125 58.90625 
Q 39.453125 66.40625 31.78125 66.40625 
z
M 31.78125 74.21875 
Q 44.046875 74.21875 50.515625 64.515625 
Q 56.984375 54.828125 56.984375 36.375 
Q 56.984375 17.96875 50.515625 8.265625 
Q 44.046875 -1.421875 31.78125 -1.421875 
Q 19.53125 -1.421875 13.0625 8.265625 
Q 6.59375 17.96875 6.59375 36.375 
Q 6.59375 54.828125 13.0625 64.515625 
Q 19.53125 74.21875 31.78125 74.21875 
z
" id="DejaVuSans-30"/>
      </defs>
      <g transform="translate(61.633295 174.342437)scale(0.1 -0.1)">
       <use xlink:href="#DejaVuSans-30"/>
      </g>
     </g>
    </g>
    <g id="xtick_2">
     <g id="line2d_3">
      <path clip-path="url(#pdf824ff602)" d="M 113.072375 159.744 
L 113.072375 41.472 
" style="fill:none;stroke:#b0b0b0;stroke-linecap:square;stroke-width:0.8;"/>
     </g>
     <g id="line2d_4">
      <g>
       <use style="stroke:#000000;stroke-width:0.8;" x="113.072375" xlink:href="#m45c7551f91" y="159.744"/>
      </g>
     </g>
     <g id="text_2">
      <!-- 100 -->
      <defs>
       <path d="M 12.40625 8.296875 
L 28.515625 8.296875 
L 28.515625 63.921875 
L 10.984375 60.40625 
L 10.984375 69.390625 
L 28.421875 72.90625 
L 38.28125 72.90625 
L 38.28125 8.296875 
L 54.390625 8.296875 
L 54.390625 0 
L 12.40625 0 
z
" id="DejaVuSans-31"/>
      </defs>
      <g transform="translate(103.528625 174.342437)scale(0.1 -0.1)">
       <use xlink:href="#DejaVuSans-31"/>
       <use x="63.623047" xlink:href="#DejaVuSans-30"/>
       <use x="127.246094" xlink:href="#DejaVuSans-30"/>
      </g>
     </g>
    </g>
    <g id="xtick_3">
     <g id="line2d_5">
      <path clip-path="url(#pdf824ff602)" d="M 161.330204 159.744 
L 161.330204 41.472 
" style="fill:none;stroke:#b0b0b0;stroke-linecap:square;stroke-width:0.8;"/>
     </g>
     <g id="line2d_6">
      <g>
       <use style="stroke:#000000;stroke-width:0.8;" x="161.330204" xlink:href="#m45c7551f91" y="159.744"/>
      </g>
     </g>
     <g id="text_3">
      <!-- 200 -->
      <defs>
       <path d="M 19.1875 8.296875 
L 53.609375 8.296875 
L 53.609375 0 
L 7.328125 0 
L 7.328125 8.296875 
Q 12.9375 14.109375 22.625 23.890625 
Q 32.328125 33.6875 34.8125 36.53125 
Q 39.546875 41.84375 41.421875 45.53125 
Q 43.3125 49.21875 43.3125 52.78125 
Q 43.3125 58.59375 39.234375 62.25 
Q 35.15625 65.921875 28.609375 65.921875 
Q 23.96875 65.921875 18.8125 64.3125 
Q 13.671875 62.703125 7.8125 59.421875 
L 7.8125 69.390625 
Q 13.765625 71.78125 18.9375 73 
Q 24.125 74.21875 28.421875 74.21875 
Q 39.75 74.21875 46.484375 68.546875 
Q 53.21875 62.890625 53.21875 53.421875 
Q 53.21875 48.921875 51.53125 44.890625 
Q 49.859375 40.875 45.40625 35.40625 
Q 44.1875 33.984375 37.640625 27.21875 
Q 31.109375 20.453125 19.1875 8.296875 
z
" id="DejaVuSans-32"/>
      </defs>
      <g transform="translate(151.786454 174.342437)scale(0.1 -0.1)">
       <use xlink:href="#DejaVuSans-32"/>
       <use x="63.623047" xlink:href="#DejaVuSans-30"/>
       <use x="127.246094" xlink:href="#DejaVuSans-30"/>
      </g>
     </g>
    </g>
    <g id="xtick_4">
     <g id="line2d_7">
      <path clip-path="url(#pdf824ff602)" d="M 209.588033 159.744 
L 209.588033 41.472 
" style="fill:none;stroke:#b0b0b0;stroke-linecap:square;stroke-width:0.8;"/>
     </g>
     <g id="line2d_8">
      <g>
       <use style="stroke:#000000;stroke-width:0.8;" x="209.588033" xlink:href="#m45c7551f91" y="159.744"/>
      </g>
     </g>
     <g id="text_4">
      <!-- 300 -->
      <defs>
       <path d="M 40.578125 39.3125 
Q 47.65625 37.796875 51.625 33 
Q 55.609375 28.21875 55.609375 21.1875 
Q 55.609375 10.40625 48.1875 4.484375 
Q 40.765625 -1.421875 27.09375 -1.421875 
Q 22.515625 -1.421875 17.65625 -0.515625 
Q 12.796875 0.390625 7.625 2.203125 
L 7.625 11.71875 
Q 11.71875 9.328125 16.59375 8.109375 
Q 21.484375 6.890625 26.8125 6.890625 
Q 36.078125 6.890625 40.9375 10.546875 
Q 45.796875 14.203125 45.796875 21.1875 
Q 45.796875 27.640625 41.28125 31.265625 
Q 36.765625 34.90625 28.71875 34.90625 
L 20.21875 34.90625 
L 20.21875 43.015625 
L 29.109375 43.015625 
Q 36.375 43.015625 40.234375 45.921875 
Q 44.09375 48.828125 44.09375 54.296875 
Q 44.09375 59.90625 40.109375 62.90625 
Q 36.140625 65.921875 28.71875 65.921875 
Q 24.65625 65.921875 20.015625 65.03125 
Q 15.375 64.15625 9.8125 62.3125 
L 9.8125 71.09375 
Q 15.4375 72.65625 20.34375 73.4375 
Q 25.25 74.21875 29.59375 74.21875 
Q 40.828125 74.21875 47.359375 69.109375 
Q 53.90625 64.015625 53.90625 55.328125 
Q 53.90625 49.265625 50.4375 45.09375 
Q 46.96875 40.921875 40.578125 39.3125 
z
" id="DejaVuSans-33"/>
      </defs>
      <g transform="translate(200.044283 174.342437)scale(0.1 -0.1)">
       <use xlink:href="#DejaVuSans-33"/>
       <use x="63.623047" xlink:href="#DejaVuSans-30"/>
       <use x="127.246094" xlink:href="#DejaVuSans-30"/>
      </g>
     </g>
    </g>
   </g>
   <g id="matplotlib.axis_2">
    <g id="ytick_1">
     <g id="line2d_9">
      <path clip-path="url(#pdf824ff602)" d="M 57.6 154.790891 
L 216.32 154.790891 
" style="fill:none;stroke:#b0b0b0;stroke-linecap:square;stroke-width:0.8;"/>
     </g>
     <g id="line2d_10">
      <defs>
       <path d="M 0 0 
L -3.5 0 
" id="m3568dad546" style="stroke:#000000;stroke-width:0.8;"/>
      </defs>
      <g>
       <use style="stroke:#000000;stroke-width:0.8;" x="57.6" xlink:href="#m3568dad546" y="154.790891"/>
      </g>
     </g>
     <g id="text_5">
      <!-- 0.00 -->
      <defs>
       <path d="M 10.6875 12.40625 
L 21 12.40625 
L 21 0 
L 10.6875 0 
z
" id="DejaVuSans-2e"/>
      </defs>
      <g transform="translate(28.334375 158.59011)scale(0.1 -0.1)">
       <use xlink:href="#DejaVuSans-30"/>
       <use x="63.623047" xlink:href="#DejaVuSans-2e"/>
       <use x="95.410156" xlink:href="#DejaVuSans-30"/>
       <use x="159.033203" xlink:href="#DejaVuSans-30"/>
      </g>
     </g>
    </g>
    <g id="ytick_2">
     <g id="line2d_11">
      <path clip-path="url(#pdf824ff602)" d="M 57.6 127.725876 
L 216.32 127.725876 
" style="fill:none;stroke:#b0b0b0;stroke-linecap:square;stroke-width:0.8;"/>
     </g>
     <g id="line2d_12">
      <g>
       <use style="stroke:#000000;stroke-width:0.8;" x="57.6" xlink:href="#m3568dad546" y="127.725876"/>
      </g>
     </g>
     <g id="text_6">
      <!-- 0.25 -->
      <defs>
       <path d="M 10.796875 72.90625 
L 49.515625 72.90625 
L 49.515625 64.59375 
L 19.828125 64.59375 
L 19.828125 46.734375 
Q 21.96875 47.46875 24.109375 47.828125 
Q 26.265625 48.1875 28.421875 48.1875 
Q 40.625 48.1875 47.75 41.5 
Q 54.890625 34.8125 54.890625 23.390625 
Q 54.890625 11.625 47.5625 5.09375 
Q 40.234375 -1.421875 26.90625 -1.421875 
Q 22.3125 -1.421875 17.546875 -0.640625 
Q 12.796875 0.140625 7.71875 1.703125 
L 7.71875 11.625 
Q 12.109375 9.234375 16.796875 8.0625 
Q 21.484375 6.890625 26.703125 6.890625 
Q 35.15625 6.890625 40.078125 11.328125 
Q 45.015625 15.765625 45.015625 23.390625 
Q 45.015625 31 40.078125 35.4375 
Q 35.15625 39.890625 26.703125 39.890625 
Q 22.75 39.890625 18.8125 39.015625 
Q 14.890625 38.140625 10.796875 36.28125 
z
" id="DejaVuSans-35"/>
      </defs>
      <g transform="translate(28.334375 131.525095)scale(0.1 -0.1)">
       <use xlink:href="#DejaVuSans-30"/>
       <use x="63.623047" xlink:href="#DejaVuSans-2e"/>
       <use x="95.410156" xlink:href="#DejaVuSans-32"/>
       <use x="159.033203" xlink:href="#DejaVuSans-35"/>
      </g>
     </g>
    </g>
    <g id="ytick_3">
     <g id="line2d_13">
      <path clip-path="url(#pdf824ff602)" d="M 57.6 100.660861 
L 216.32 100.660861 
" style="fill:none;stroke:#b0b0b0;stroke-linecap:square;stroke-width:0.8;"/>
     </g>
     <g id="line2d_14">
      <g>
       <use style="stroke:#000000;stroke-width:0.8;" x="57.6" xlink:href="#m3568dad546" y="100.660861"/>
      </g>
     </g>
     <g id="text_7">
      <!-- 0.50 -->
      <g transform="translate(28.334375 104.46008)scale(0.1 -0.1)">
       <use xlink:href="#DejaVuSans-30"/>
       <use x="63.623047" xlink:href="#DejaVuSans-2e"/>
       <use x="95.410156" xlink:href="#DejaVuSans-35"/>
       <use x="159.033203" xlink:href="#DejaVuSans-30"/>
      </g>
     </g>
    </g>
    <g id="ytick_4">
     <g id="line2d_15">
      <path clip-path="url(#pdf824ff602)" d="M 57.6 73.595847 
L 216.32 73.595847 
" style="fill:none;stroke:#b0b0b0;stroke-linecap:square;stroke-width:0.8;"/>
     </g>
     <g id="line2d_16">
      <g>
       <use style="stroke:#000000;stroke-width:0.8;" x="57.6" xlink:href="#m3568dad546" y="73.595847"/>
      </g>
     </g>
     <g id="text_8">
      <!-- 0.75 -->
      <defs>
       <path d="M 8.203125 72.90625 
L 55.078125 72.90625 
L 55.078125 68.703125 
L 28.609375 0 
L 18.3125 0 
L 43.21875 64.59375 
L 8.203125 64.59375 
z
" id="DejaVuSans-37"/>
      </defs>
      <g transform="translate(28.334375 77.395065)scale(0.1 -0.1)">
       <use xlink:href="#DejaVuSans-30"/>
       <use x="63.623047" xlink:href="#DejaVuSans-2e"/>
       <use x="95.410156" xlink:href="#DejaVuSans-37"/>
       <use x="159.033203" xlink:href="#DejaVuSans-35"/>
      </g>
     </g>
    </g>
    <g id="ytick_5">
     <g id="line2d_17">
      <path clip-path="url(#pdf824ff602)" d="M 57.6 46.530832 
L 216.32 46.530832 
" style="fill:none;stroke:#b0b0b0;stroke-linecap:square;stroke-width:0.8;"/>
     </g>
     <g id="line2d_18">
      <g>
       <use style="stroke:#000000;stroke-width:0.8;" x="57.6" xlink:href="#m3568dad546" y="46.530832"/>
      </g>
     </g>
     <g id="text_9">
      <!-- 1.00 -->
      <g transform="translate(28.334375 50.330051)scale(0.1 -0.1)">
       <use xlink:href="#DejaVuSans-31"/>
       <use x="63.623047" xlink:href="#DejaVuSans-2e"/>
       <use x="95.410156" xlink:href="#DejaVuSans-30"/>
       <use x="159.033203" xlink:href="#DejaVuSans-30"/>
      </g>
     </g>
    </g>
   </g>
   <g id="line2d_19">
    <path clip-path="url(#pdf824ff602)" d="M 64.814545 154.368 
L 65.297124 153.698423 
L 65.779702 150.773428 
L 66.744859 136.536102 
L 67.227437 129.769848 
L 68.192593 113.8762 
L 69.15775 99.779838 
L 70.122907 87.128352 
L 70.605485 85.47203 
L 71.088063 79.481076 
L 71.570642 76.274154 
L 72.05322 74.19494 
L 72.535798 70.635609 
L 73.018376 68.626878 
L 73.983533 62.706407 
L 74.466111 62.353998 
L 74.94869 60.697675 
L 75.431268 58.301294 
L 75.913846 58.442258 
L 76.396424 56.856417 
L 76.879003 56.327804 
L 77.361581 55.200095 
L 77.844159 54.777204 
L 78.326738 54.001904 
L 78.809316 53.8257 
L 79.774472 51.993173 
L 80.257051 52.345582 
L 80.739629 51.464559 
L 81.222207 51.640763 
L 81.704786 50.900705 
L 82.669942 50.477814 
L 83.152521 50.935945 
L 83.635099 50.513055 
L 84.600255 50.442573 
L 85.082834 50.477814 
L 85.565412 50.33685 
L 86.04799 50.548295 
L 86.530569 49.596791 
L 87.013147 49.843477 
L 87.495725 49.385346 
L 87.978303 49.491068 
L 88.460882 49.420586 
L 88.94346 48.997696 
L 89.426038 48.856732 
L 89.908617 49.455827 
L 90.391195 48.539564 
L 90.873773 48.997696 
L 91.356351 48.997696 
L 91.83893 49.385346 
L 92.321508 49.068177 
L 92.804086 48.997695 
L 93.286665 48.610046 
L 93.769243 49.032937 
L 94.251821 48.715768 
L 94.7344 48.821491 
L 95.216978 48.328118 
L 95.699556 48.821491 
L 96.182134 48.046191 
L 96.664713 48.3986 
L 97.147291 48.328118 
L 97.629869 49.279623 
L 98.112448 48.01095 
L 99.077604 48.574805 
L 99.560182 48.292877 
L 100.042761 48.469082 
L 100.525339 48.046191 
L 101.007917 48.257636 
L 101.490496 48.891973 
L 102.455652 48.187155 
L 102.93823 48.151914 
L 103.420809 48.292877 
L 103.903387 48.046191 
L 104.385965 48.046191 
L 104.868544 48.363359 
L 105.351122 47.834746 
L 105.8337 48.257636 
L 106.316279 47.799505 
L 106.798857 47.729023 
L 107.281435 48.116673 
L 107.764013 48.01095 
L 108.246592 48.257637 
L 108.72917 47.834746 
L 109.211748 48.222396 
L 109.694327 48.187155 
L 110.176905 47.905227 
L 110.659483 48.046191 
L 111.142061 47.729023 
L 111.62464 48.433841 
L 112.107218 47.6233 
L 112.589796 48.116673 
L 113.072375 48.187155 
L 113.554953 48.046191 
L 114.520109 47.975709 
L 115.002688 47.799505 
L 115.485266 48.01095 
L 115.967844 48.01095 
L 116.450423 47.834745 
L 117.898157 47.658541 
L 118.380736 47.552818 
L 119.345892 47.799505 
L 119.828471 47.658541 
L 120.311049 47.869986 
L 121.276206 47.6233 
L 121.758784 48.328118 
L 122.241362 47.905227 
L 122.72394 47.764264 
L 124.171675 47.834745 
L 124.654254 47.517577 
L 125.136832 47.693782 
L 125.61941 47.270891 
L 126.101988 47.729023 
L 127.067145 47.6233 
L 127.549723 47.059445 
L 128.032302 47.6233 
L 128.51488 47.940468 
L 128.997458 47.693782 
L 129.480036 47.588059 
L 129.962615 47.905227 
L 130.445193 47.129927 
L 130.927771 47.834746 
L 131.41035 47.482336 
L 132.858085 47.341373 
L 133.340663 47.764264 
L 133.823241 47.447095 
L 134.305819 47.447096 
L 134.788398 47.693782 
L 135.270976 47.764264 
L 135.753554 47.6233 
L 136.236133 47.341373 
L 137.201289 47.658541 
L 137.683867 47.693782 
L 138.166446 47.482336 
L 139.131602 47.306132 
L 139.614181 47.6233 
L 140.579337 47.6233 
L 141.061915 47.799505 
L 141.544494 47.517577 
L 142.027072 47.834746 
L 142.50965 47.6233 
L 142.992229 47.693782 
L 143.957385 47.447096 
L 144.439964 47.693782 
L 144.922542 47.693782 
L 145.40512 47.23565 
L 145.887698 47.6233 
L 146.370277 47.693782 
L 148.30059 47.270891 
L 148.783168 47.306132 
L 149.265746 47.129927 
L 150.230903 47.411855 
L 150.713481 47.940468 
L 152.161216 47.129927 
L 152.643794 47.693782 
L 153.126373 47.693782 
L 153.608951 47.905227 
L 154.091529 47.270891 
L 154.574108 47.447096 
L 155.539264 47.129927 
L 156.021843 47.447096 
L 157.469577 47.6233 
L 157.952156 47.729023 
L 158.434734 47.447096 
L 158.917312 47.517577 
L 159.399891 47.129927 
L 159.882469 47.200409 
L 160.365047 47.517577 
L 160.847625 47.658541 
L 161.330204 47.376614 
L 161.812782 47.834746 
L 162.29536 47.341373 
L 163.260517 47.306132 
L 163.743095 47.799505 
L 164.225673 47.764264 
L 164.708252 47.411855 
L 165.19083 47.552818 
L 165.673408 47.376614 
L 166.155987 47.517577 
L 166.638565 47.447096 
L 167.121143 47.693782 
L 168.0863 47.411855 
L 169.051456 47.834746 
L 170.016613 47.482336 
L 170.499191 47.588059 
L 170.98177 47.23565 
L 171.464348 47.6233 
L 171.946926 47.306132 
L 172.429504 47.517577 
L 172.912083 47.376614 
L 173.394661 47.024205 
L 173.877239 47.517577 
L 174.359818 47.200409 
L 174.842396 47.693782 
L 175.324974 47.306132 
L 175.807552 47.482336 
L 176.290131 47.059445 
L 176.772709 47.447095 
L 177.737866 47.693782 
L 179.1856 47.341373 
L 179.668179 47.270891 
L 180.150757 47.517577 
L 180.633335 47.447095 
L 181.115914 47.940468 
L 181.598492 47.376614 
L 182.08107 47.200409 
L 182.563649 47.764264 
L 184.493962 47.129927 
L 184.97654 47.306132 
L 185.459118 47.270891 
L 185.941697 47.658541 
L 186.424275 47.693782 
L 186.906853 47.341373 
L 187.389431 47.517577 
L 187.87201 47.306132 
L 188.354588 47.411855 
L 188.837166 47.658541 
L 190.284901 47.306132 
L 190.767479 47.693782 
L 191.250058 46.988964 
L 191.732636 47.6233 
L 192.215214 47.517577 
L 192.697793 47.200409 
L 193.180371 47.552818 
L 194.145528 47.658541 
L 194.628106 47.270891 
L 195.110684 47.270891 
L 195.593262 47.411855 
L 196.075841 47.306132 
L 196.558419 47.658541 
L 197.040997 47.834746 
L 198.006154 47.411855 
L 198.97131 47.905227 
L 199.453889 47.165168 
L 199.936467 47.588059 
L 200.419045 47.23565 
L 200.901624 47.482336 
L 201.86678 47.447096 
L 202.349358 47.200409 
L 202.831937 47.552818 
L 203.314515 46.848 
L 204.279672 47.552818 
L 205.244828 47.799505 
L 205.727407 47.270891 
L 206.209985 47.729023 
L 206.692563 47.059445 
L 207.175141 47.905227 
L 207.65772 47.552818 
L 208.140298 47.482336 
L 208.622876 47.200409 
L 209.105455 47.552818 
L 209.105455 47.552818 
" style="fill:none;stroke:#1f77b4;stroke-linecap:square;stroke-width:1.5;"/>
   </g>
   <g id="patch_3">
    <path d="M 57.6 159.744 
L 57.6 41.472 
" style="fill:none;stroke:#000000;stroke-linecap:square;stroke-linejoin:miter;stroke-width:0.8;"/>
   </g>
   <g id="patch_4">
    <path d="M 216.32 159.744 
L 216.32 41.472 
" style="fill:none;stroke:#000000;stroke-linecap:square;stroke-linejoin:miter;stroke-width:0.8;"/>
   </g>
   <g id="patch_5">
    <path d="M 57.6 159.744 
L 216.32 159.744 
" style="fill:none;stroke:#000000;stroke-linecap:square;stroke-linejoin:miter;stroke-width:0.8;"/>
   </g>
   <g id="patch_6">
    <path d="M 57.6 41.472 
L 216.32 41.472 
" style="fill:none;stroke:#000000;stroke-linecap:square;stroke-linejoin:miter;stroke-width:0.8;"/>
   </g>
   <g id="text_10">
    <!-- acc -->
    <defs>
     <path d="M 34.28125 27.484375 
Q 23.390625 27.484375 19.1875 25 
Q 14.984375 22.515625 14.984375 16.5 
Q 14.984375 11.71875 18.140625 8.90625 
Q 21.296875 6.109375 26.703125 6.109375 
Q 34.1875 6.109375 38.703125 11.40625 
Q 43.21875 16.703125 43.21875 25.484375 
L 43.21875 27.484375 
z
M 52.203125 31.203125 
L 52.203125 0 
L 43.21875 0 
L 43.21875 8.296875 
Q 40.140625 3.328125 35.546875 0.953125 
Q 30.953125 -1.421875 24.3125 -1.421875 
Q 15.921875 -1.421875 10.953125 3.296875 
Q 6 8.015625 6 15.921875 
Q 6 25.140625 12.171875 29.828125 
Q 18.359375 34.515625 30.609375 34.515625 
L 43.21875 34.515625 
L 43.21875 35.40625 
Q 43.21875 41.609375 39.140625 45 
Q 35.0625 48.390625 27.6875 48.390625 
Q 23 48.390625 18.546875 47.265625 
Q 14.109375 46.140625 10.015625 43.890625 
L 10.015625 52.203125 
Q 14.9375 54.109375 19.578125 55.046875 
Q 24.21875 56 28.609375 56 
Q 40.484375 56 46.34375 49.84375 
Q 52.203125 43.703125 52.203125 31.203125 
z
" id="DejaVuSans-61"/>
     <path d="M 48.78125 52.59375 
L 48.78125 44.1875 
Q 44.96875 46.296875 41.140625 47.34375 
Q 37.3125 48.390625 33.40625 48.390625 
Q 24.65625 48.390625 19.8125 42.84375 
Q 14.984375 37.3125 14.984375 27.296875 
Q 14.984375 17.28125 19.8125 11.734375 
Q 24.65625 6.203125 33.40625 6.203125 
Q 37.3125 6.203125 41.140625 7.25 
Q 44.96875 8.296875 48.78125 10.40625 
L 48.78125 2.09375 
Q 45.015625 0.34375 40.984375 -0.53125 
Q 36.96875 -1.421875 32.421875 -1.421875 
Q 20.0625 -1.421875 12.78125 6.34375 
Q 5.515625 14.109375 5.515625 27.296875 
Q 5.515625 40.671875 12.859375 48.328125 
Q 20.21875 56 33.015625 56 
Q 37.15625 56 41.109375 55.140625 
Q 45.0625 54.296875 48.78125 52.59375 
z
" id="DejaVuSans-63"/>
    </defs>
    <g transform="translate(126.685 35.472)scale(0.12 -0.12)">
     <use xlink:href="#DejaVuSans-61"/>
     <use x="61.279297" xlink:href="#DejaVuSans-63"/>
     <use x="116.259766" xlink:href="#DejaVuSans-63"/>
    </g>
   </g>
  </g>
  <g id="axes_2">
   <g id="patch_7">
    <path d="M 256 159.744 
L 414.72 159.744 
L 414.72 41.472 
L 256 41.472 
z
" style="fill:#ffffff;"/>
   </g>
   <g id="matplotlib.axis_3">
    <g id="xtick_5">
     <g id="line2d_20">
      <path clip-path="url(#pd317f5595a)" d="M 263.214545 159.744 
L 263.214545 41.472 
" style="fill:none;stroke:#b0b0b0;stroke-linecap:square;stroke-width:0.8;"/>
     </g>
     <g id="line2d_21">
      <g>
       <use style="stroke:#000000;stroke-width:0.8;" x="263.214545" xlink:href="#m45c7551f91" y="159.744"/>
      </g>
     </g>
     <g id="text_11">
      <!-- 0 -->
      <g transform="translate(260.033295 174.342437)scale(0.1 -0.1)">
       <use xlink:href="#DejaVuSans-30"/>
      </g>
     </g>
    </g>
    <g id="xtick_6">
     <g id="line2d_22">
      <path clip-path="url(#pd317f5595a)" d="M 311.472375 159.744 
L 311.472375 41.472 
" style="fill:none;stroke:#b0b0b0;stroke-linecap:square;stroke-width:0.8;"/>
     </g>
     <g id="line2d_23">
      <g>
       <use style="stroke:#000000;stroke-width:0.8;" x="311.472375" xlink:href="#m45c7551f91" y="159.744"/>
      </g>
     </g>
     <g id="text_12">
      <!-- 100 -->
      <g transform="translate(301.928625 174.342437)scale(0.1 -0.1)">
       <use xlink:href="#DejaVuSans-31"/>
       <use x="63.623047" xlink:href="#DejaVuSans-30"/>
       <use x="127.246094" xlink:href="#DejaVuSans-30"/>
      </g>
     </g>
    </g>
    <g id="xtick_7">
     <g id="line2d_24">
      <path clip-path="url(#pd317f5595a)" d="M 359.730204 159.744 
L 359.730204 41.472 
" style="fill:none;stroke:#b0b0b0;stroke-linecap:square;stroke-width:0.8;"/>
     </g>
     <g id="line2d_25">
      <g>
       <use style="stroke:#000000;stroke-width:0.8;" x="359.730204" xlink:href="#m45c7551f91" y="159.744"/>
      </g>
     </g>
     <g id="text_13">
      <!-- 200 -->
      <g transform="translate(350.186454 174.342437)scale(0.1 -0.1)">
       <use xlink:href="#DejaVuSans-32"/>
       <use x="63.623047" xlink:href="#DejaVuSans-30"/>
       <use x="127.246094" xlink:href="#DejaVuSans-30"/>
      </g>
     </g>
    </g>
    <g id="xtick_8">
     <g id="line2d_26">
      <path clip-path="url(#pd317f5595a)" d="M 407.988033 159.744 
L 407.988033 41.472 
" style="fill:none;stroke:#b0b0b0;stroke-linecap:square;stroke-width:0.8;"/>
     </g>
     <g id="line2d_27">
      <g>
       <use style="stroke:#000000;stroke-width:0.8;" x="407.988033" xlink:href="#m45c7551f91" y="159.744"/>
      </g>
     </g>
     <g id="text_14">
      <!-- 300 -->
      <g transform="translate(398.444283 174.342437)scale(0.1 -0.1)">
       <use xlink:href="#DejaVuSans-33"/>
       <use x="63.623047" xlink:href="#DejaVuSans-30"/>
       <use x="127.246094" xlink:href="#DejaVuSans-30"/>
      </g>
     </g>
    </g>
   </g>
   <g id="matplotlib.axis_4">
    <g id="ytick_6">
     <g id="line2d_28">
      <path clip-path="url(#pd317f5595a)" d="M 256 154.681213 
L 414.72 154.681213 
" style="fill:none;stroke:#b0b0b0;stroke-linecap:square;stroke-width:0.8;"/>
     </g>
     <g id="line2d_29">
      <g>
       <use style="stroke:#000000;stroke-width:0.8;" x="256" xlink:href="#m3568dad546" y="154.681213"/>
      </g>
     </g>
     <g id="text_15">
      <!-- 0 -->
      <g transform="translate(242.6375 158.480432)scale(0.1 -0.1)">
       <use xlink:href="#DejaVuSans-30"/>
      </g>
     </g>
    </g>
    <g id="ytick_7">
     <g id="line2d_30">
      <path clip-path="url(#pd317f5595a)" d="M 256 115.776551 
L 414.72 115.776551 
" style="fill:none;stroke:#b0b0b0;stroke-linecap:square;stroke-width:0.8;"/>
     </g>
     <g id="line2d_31">
      <g>
       <use style="stroke:#000000;stroke-width:0.8;" x="256" xlink:href="#m3568dad546" y="115.776551"/>
      </g>
     </g>
     <g id="text_16">
      <!-- 2 -->
      <g transform="translate(242.6375 119.57577)scale(0.1 -0.1)">
       <use xlink:href="#DejaVuSans-32"/>
      </g>
     </g>
    </g>
    <g id="ytick_8">
     <g id="line2d_32">
      <path clip-path="url(#pd317f5595a)" d="M 256 76.871889 
L 414.72 76.871889 
" style="fill:none;stroke:#b0b0b0;stroke-linecap:square;stroke-width:0.8;"/>
     </g>
     <g id="line2d_33">
      <g>
       <use style="stroke:#000000;stroke-width:0.8;" x="256" xlink:href="#m3568dad546" y="76.871889"/>
      </g>
     </g>
     <g id="text_17">
      <!-- 4 -->
      <defs>
       <path d="M 37.796875 64.3125 
L 12.890625 25.390625 
L 37.796875 25.390625 
z
M 35.203125 72.90625 
L 47.609375 72.90625 
L 47.609375 25.390625 
L 58.015625 25.390625 
L 58.015625 17.1875 
L 47.609375 17.1875 
L 47.609375 0 
L 37.796875 0 
L 37.796875 17.1875 
L 4.890625 17.1875 
L 4.890625 26.703125 
z
" id="DejaVuSans-34"/>
      </defs>
      <g transform="translate(242.6375 80.671107)scale(0.1 -0.1)">
       <use xlink:href="#DejaVuSans-34"/>
      </g>
     </g>
    </g>
   </g>
   <g id="line2d_34">
    <path clip-path="url(#pd317f5595a)" d="M 263.214545 46.848 
L 263.697124 53.931185 
L 264.66228 83.55543 
L 265.627437 100.801795 
L 266.592593 112.573303 
L 267.55775 121.677225 
L 268.522907 129.538027 
L 269.005485 131.778555 
L 269.488063 134.854305 
L 270.45322 138.608963 
L 271.418376 142.505472 
L 272.383533 145.016582 
L 273.831268 147.828814 
L 274.313846 148.151674 
L 274.796424 149.141461 
L 275.279003 149.316304 
L 275.761581 149.86408 
L 276.244159 149.858503 
L 276.726738 150.66433 
L 277.209316 150.707432 
L 278.174472 151.33569 
L 278.657051 151.399505 
L 279.139629 151.86309 
L 279.622207 151.679058 
L 280.104786 152.220936 
L 280.587364 152.11584 
L 281.069942 152.587724 
L 281.552521 152.139474 
L 282.517677 152.511801 
L 283.000255 152.367873 
L 283.482834 152.789473 
L 284.44799 152.218101 
L 284.930569 153.084132 
L 285.413147 152.741426 
L 285.895725 152.942912 
L 286.378303 152.864557 
L 287.826038 153.303391 
L 288.308617 153.161366 
L 288.791195 153.454228 
L 289.273773 153.182491 
L 289.756351 153.358926 
L 290.23893 153.094423 
L 290.721508 153.002737 
L 291.204086 153.210938 
L 291.686665 153.614729 
L 292.169243 153.121298 
L 292.651821 153.450368 
L 293.1344 153.119888 
L 293.616978 153.753201 
L 294.099556 153.271832 
L 294.582134 153.756458 
L 295.064713 153.386241 
L 295.547291 153.623255 
L 296.029869 153.170321 
L 296.512448 153.707575 
L 296.995026 153.420973 
L 298.442761 153.522013 
L 298.925339 153.827406 
L 299.890496 153.35167 
L 300.855652 153.516666 
L 301.820809 153.607422 
L 302.303387 153.392141 
L 302.785965 153.543668 
L 303.268544 153.429674 
L 303.751122 153.948814 
L 304.2337 153.399832 
L 304.716279 153.917187 
L 305.198857 153.919862 
L 305.681435 153.290372 
L 306.164013 153.884975 
L 306.646592 153.424964 
L 307.12917 153.74298 
L 307.611748 153.533621 
L 309.059483 153.670659 
L 309.542061 153.955436 
L 310.02464 153.271662 
L 310.507218 153.876874 
L 311.472375 153.547861 
L 311.954953 153.419028 
L 312.437531 153.700951 
L 312.920109 153.629892 
L 313.402688 153.804624 
L 313.885266 153.52656 
L 314.367844 153.584345 
L 315.333001 153.878756 
L 316.298157 153.825527 
L 316.780736 154.043281 
L 317.263314 153.64718 
L 317.745892 153.849237 
L 318.228471 153.77892 
L 318.711049 153.49755 
L 319.193627 153.928841 
L 319.676206 153.938958 
L 320.158784 153.462206 
L 320.641362 153.544941 
L 321.12394 153.964405 
L 321.606519 153.925049 
L 322.089097 153.468268 
L 322.571675 153.836261 
L 323.054254 153.997108 
L 323.536832 153.657031 
L 324.01941 154.037327 
L 324.501988 153.668937 
L 324.984567 153.765573 
L 325.467145 153.703967 
L 325.949723 154.368 
L 326.432302 153.901379 
L 326.91488 153.597878 
L 327.880036 153.771888 
L 328.362615 153.424069 
L 328.845193 154.204486 
L 329.327771 153.486392 
L 329.81035 153.944878 
L 330.292928 154.040218 
L 330.775506 153.774498 
L 331.258085 154.125316 
L 331.740663 153.814833 
L 332.223241 153.754992 
L 332.705819 153.962891 
L 333.188398 153.434192 
L 334.153554 153.923769 
L 334.636133 154.090042 
L 335.118711 153.508979 
L 335.601289 153.75844 
L 336.083867 153.636968 
L 336.566446 153.986085 
L 337.531602 154.141051 
L 338.014181 153.694167 
L 338.496759 153.830047 
L 338.979337 153.684042 
L 339.461915 153.29419 
L 339.944494 153.903257 
L 340.427072 153.397835 
L 340.90965 153.662715 
L 341.392229 153.752266 
L 341.874807 153.713281 
L 342.357385 153.94587 
L 342.839964 153.69219 
L 343.322542 153.789722 
L 343.80512 154.128821 
L 344.287698 153.414751 
L 344.770277 153.101796 
L 345.252855 153.719475 
L 345.735433 153.59735 
L 346.218012 153.851076 
L 347.183168 153.835443 
L 347.665746 154.224786 
L 348.148325 153.841047 
L 348.630903 153.809716 
L 349.113481 153.402675 
L 349.59606 153.872626 
L 350.078638 153.807994 
L 350.561216 153.984909 
L 351.043794 153.211242 
L 352.008951 153.498052 
L 352.491529 153.868092 
L 352.974108 153.677459 
L 353.939264 154.088835 
L 355.386999 153.465042 
L 355.869577 153.670954 
L 356.352156 153.119716 
L 356.834734 153.598885 
L 357.317312 153.502038 
L 357.799891 153.859014 
L 358.282469 153.678795 
L 358.765047 153.7523 
L 359.247625 153.419309 
L 359.730204 153.730584 
L 360.212782 153.001366 
L 360.69536 153.747769 
L 361.660517 153.667273 
L 362.143095 153.160211 
L 362.625673 153.271759 
L 363.108252 153.624319 
L 363.59083 153.524083 
L 364.073408 153.58075 
L 364.555987 153.26033 
L 365.038565 153.373539 
L 365.521143 153.315663 
L 366.003721 153.469286 
L 366.4863 153.450831 
L 366.968878 153.251377 
L 367.451456 152.896756 
L 367.934035 153.379148 
L 368.416613 153.19058 
L 368.899191 153.441338 
L 369.38177 153.853522 
L 369.864348 153.43614 
L 370.346926 153.635661 
L 371.312083 153.340471 
L 371.794661 154.053857 
L 372.277239 153.507311 
L 372.759818 153.989434 
L 373.242396 153.092769 
L 373.724974 153.739142 
L 374.207552 153.357757 
L 374.690131 153.876018 
L 375.655287 153.244565 
L 376.137866 152.501763 
L 376.620444 153.221484 
L 377.103022 153.162778 
L 377.5856 153.381378 
L 378.068179 153.756776 
L 378.550757 153.159422 
L 379.033335 153.49619 
L 379.515914 152.53354 
L 379.998492 153.796825 
L 380.48107 153.667529 
L 380.963649 153.132529 
L 381.446227 153.505955 
L 382.411383 153.447875 
L 382.893962 153.888944 
L 383.37654 153.556338 
L 383.859118 153.50466 
L 384.341697 153.058569 
L 385.789431 153.734476 
L 386.27201 153.800395 
L 386.754588 153.6243 
L 387.237166 152.683155 
L 387.719745 153.637286 
L 388.202323 153.34414 
L 388.684901 153.700995 
L 389.167479 153.187105 
L 389.650058 153.986218 
L 390.132636 153.167215 
L 391.097793 153.843146 
L 391.580371 153.249005 
L 392.062949 153.297231 
L 392.545528 153.129095 
L 393.028106 154.047336 
L 393.993262 153.36426 
L 394.475841 153.385741 
L 394.958419 152.740103 
L 395.923576 152.900863 
L 396.406154 153.594528 
L 396.888732 152.61746 
L 397.37131 151.937776 
L 397.853889 153.675948 
L 398.336467 153.282022 
L 398.819045 153.712914 
L 399.301624 153.27128 
L 400.26678 153.649458 
L 400.749358 153.578073 
L 401.231937 153.358608 
L 401.714515 154.098432 
L 402.197093 154.033099 
L 403.16225 152.520581 
L 403.644828 152.53349 
L 404.127407 153.537467 
L 404.609985 152.725335 
L 405.092563 154.004886 
L 405.575141 152.422532 
L 406.05772 153.304284 
L 406.540298 153.031305 
L 407.022876 153.708462 
L 407.505455 152.738123 
L 407.505455 152.738123 
" style="fill:none;stroke:#1f77b4;stroke-linecap:square;stroke-width:1.5;"/>
   </g>
   <g id="patch_8">
    <path d="M 256 159.744 
L 256 41.472 
" style="fill:none;stroke:#000000;stroke-linecap:square;stroke-linejoin:miter;stroke-width:0.8;"/>
   </g>
   <g id="patch_9">
    <path d="M 414.72 159.744 
L 414.72 41.472 
" style="fill:none;stroke:#000000;stroke-linecap:square;stroke-linejoin:miter;stroke-width:0.8;"/>
   </g>
   <g id="patch_10">
    <path d="M 256 159.744 
L 414.72 159.744 
" style="fill:none;stroke:#000000;stroke-linecap:square;stroke-linejoin:miter;stroke-width:0.8;"/>
   </g>
   <g id="patch_11">
    <path d="M 256 41.472 
L 414.72 41.472 
" style="fill:none;stroke:#000000;stroke-linecap:square;stroke-linejoin:miter;stroke-width:0.8;"/>
   </g>
   <g id="text_18">
    <!-- loss -->
    <defs>
     <path d="M 9.421875 75.984375 
L 18.40625 75.984375 
L 18.40625 0 
L 9.421875 0 
z
" id="DejaVuSans-6c"/>
     <path d="M 30.609375 48.390625 
Q 23.390625 48.390625 19.1875 42.75 
Q 14.984375 37.109375 14.984375 27.296875 
Q 14.984375 17.484375 19.15625 11.84375 
Q 23.34375 6.203125 30.609375 6.203125 
Q 37.796875 6.203125 41.984375 11.859375 
Q 46.1875 17.53125 46.1875 27.296875 
Q 46.1875 37.015625 41.984375 42.703125 
Q 37.796875 48.390625 30.609375 48.390625 
z
M 30.609375 56 
Q 42.328125 56 49.015625 48.375 
Q 55.71875 40.765625 55.71875 27.296875 
Q 55.71875 13.875 49.015625 6.21875 
Q 42.328125 -1.421875 30.609375 -1.421875 
Q 18.84375 -1.421875 12.171875 6.21875 
Q 5.515625 13.875 5.515625 27.296875 
Q 5.515625 40.765625 12.171875 48.375 
Q 18.84375 56 30.609375 56 
z
" id="DejaVuSans-6f"/>
     <path d="M 44.28125 53.078125 
L 44.28125 44.578125 
Q 40.484375 46.53125 36.375 47.5 
Q 32.28125 48.484375 27.875 48.484375 
Q 21.1875 48.484375 17.84375 46.4375 
Q 14.5 44.390625 14.5 40.28125 
Q 14.5 37.15625 16.890625 35.375 
Q 19.28125 33.59375 26.515625 31.984375 
L 29.59375 31.296875 
Q 39.15625 29.25 43.1875 25.515625 
Q 47.21875 21.78125 47.21875 15.09375 
Q 47.21875 7.46875 41.1875 3.015625 
Q 35.15625 -1.421875 24.609375 -1.421875 
Q 20.21875 -1.421875 15.453125 -0.5625 
Q 10.6875 0.296875 5.421875 2 
L 5.421875 11.28125 
Q 10.40625 8.6875 15.234375 7.390625 
Q 20.0625 6.109375 24.8125 6.109375 
Q 31.15625 6.109375 34.5625 8.28125 
Q 37.984375 10.453125 37.984375 14.40625 
Q 37.984375 18.0625 35.515625 20.015625 
Q 33.0625 21.96875 24.703125 23.78125 
L 21.578125 24.515625 
Q 13.234375 26.265625 9.515625 29.90625 
Q 5.8125 33.546875 5.8125 39.890625 
Q 5.8125 47.609375 11.28125 51.796875 
Q 16.75 56 26.8125 56 
Q 31.78125 56 36.171875 55.265625 
Q 40.578125 54.546875 44.28125 53.078125 
z
" id="DejaVuSans-73"/>
    </defs>
    <g transform="translate(323.770625 35.472)scale(0.12 -0.12)">
     <use xlink:href="#DejaVuSans-6c"/>
     <use x="27.783203" xlink:href="#DejaVuSans-6f"/>
     <use x="88.964844" xlink:href="#DejaVuSans-73"/>
     <use x="141.064453" xlink:href="#DejaVuSans-73"/>
    </g>
   </g>
  </g>
  <g id="axes_3">
   <g id="patch_12">
    <path d="M 57.6 307.584 
L 216.32 307.584 
L 216.32 189.312 
L 57.6 189.312 
z
" style="fill:#ffffff;"/>
   </g>
   <g id="matplotlib.axis_5">
    <g id="xtick_9">
     <g id="line2d_35">
      <path clip-path="url(#p11b49c530e)" d="M 64.814545 307.584 
L 64.814545 189.312 
" style="fill:none;stroke:#b0b0b0;stroke-linecap:square;stroke-width:0.8;"/>
     </g>
     <g id="line2d_36">
      <g>
       <use style="stroke:#000000;stroke-width:0.8;" x="64.814545" xlink:href="#m45c7551f91" y="307.584"/>
      </g>
     </g>
     <g id="text_19">
      <!-- 0 -->
      <g transform="translate(61.633295 322.182437)scale(0.1 -0.1)">
       <use xlink:href="#DejaVuSans-30"/>
      </g>
     </g>
    </g>
    <g id="xtick_10">
     <g id="line2d_37">
      <path clip-path="url(#p11b49c530e)" d="M 113.072375 307.584 
L 113.072375 189.312 
" style="fill:none;stroke:#b0b0b0;stroke-linecap:square;stroke-width:0.8;"/>
     </g>
     <g id="line2d_38">
      <g>
       <use style="stroke:#000000;stroke-width:0.8;" x="113.072375" xlink:href="#m45c7551f91" y="307.584"/>
      </g>
     </g>
     <g id="text_20">
      <!-- 100 -->
      <g transform="translate(103.528625 322.182437)scale(0.1 -0.1)">
       <use xlink:href="#DejaVuSans-31"/>
       <use x="63.623047" xlink:href="#DejaVuSans-30"/>
       <use x="127.246094" xlink:href="#DejaVuSans-30"/>
      </g>
     </g>
    </g>
    <g id="xtick_11">
     <g id="line2d_39">
      <path clip-path="url(#p11b49c530e)" d="M 161.330204 307.584 
L 161.330204 189.312 
" style="fill:none;stroke:#b0b0b0;stroke-linecap:square;stroke-width:0.8;"/>
     </g>
     <g id="line2d_40">
      <g>
       <use style="stroke:#000000;stroke-width:0.8;" x="161.330204" xlink:href="#m45c7551f91" y="307.584"/>
      </g>
     </g>
     <g id="text_21">
      <!-- 200 -->
      <g transform="translate(151.786454 322.182437)scale(0.1 -0.1)">
       <use xlink:href="#DejaVuSans-32"/>
       <use x="63.623047" xlink:href="#DejaVuSans-30"/>
       <use x="127.246094" xlink:href="#DejaVuSans-30"/>
      </g>
     </g>
    </g>
    <g id="xtick_12">
     <g id="line2d_41">
      <path clip-path="url(#p11b49c530e)" d="M 209.588033 307.584 
L 209.588033 189.312 
" style="fill:none;stroke:#b0b0b0;stroke-linecap:square;stroke-width:0.8;"/>
     </g>
     <g id="line2d_42">
      <g>
       <use style="stroke:#000000;stroke-width:0.8;" x="209.588033" xlink:href="#m45c7551f91" y="307.584"/>
      </g>
     </g>
     <g id="text_22">
      <!-- 300 -->
      <g transform="translate(200.044283 322.182437)scale(0.1 -0.1)">
       <use xlink:href="#DejaVuSans-33"/>
       <use x="63.623047" xlink:href="#DejaVuSans-30"/>
       <use x="127.246094" xlink:href="#DejaVuSans-30"/>
      </g>
     </g>
    </g>
   </g>
   <g id="matplotlib.axis_6">
    <g id="ytick_9">
     <g id="line2d_43">
      <path clip-path="url(#p11b49c530e)" d="M 57.6 302.645073 
L 216.32 302.645073 
" style="fill:none;stroke:#b0b0b0;stroke-linecap:square;stroke-width:0.8;"/>
     </g>
     <g id="line2d_44">
      <g>
       <use style="stroke:#000000;stroke-width:0.8;" x="57.6" xlink:href="#m3568dad546" y="302.645073"/>
      </g>
     </g>
     <g id="text_23">
      <!-- 0.00 -->
      <g transform="translate(28.334375 306.444292)scale(0.1 -0.1)">
       <use xlink:href="#DejaVuSans-30"/>
       <use x="63.623047" xlink:href="#DejaVuSans-2e"/>
       <use x="95.410156" xlink:href="#DejaVuSans-30"/>
       <use x="159.033203" xlink:href="#DejaVuSans-30"/>
      </g>
     </g>
    </g>
    <g id="ytick_10">
     <g id="line2d_45">
      <path clip-path="url(#p11b49c530e)" d="M 57.6 274.67239 
L 216.32 274.67239 
" style="fill:none;stroke:#b0b0b0;stroke-linecap:square;stroke-width:0.8;"/>
     </g>
     <g id="line2d_46">
      <g>
       <use style="stroke:#000000;stroke-width:0.8;" x="57.6" xlink:href="#m3568dad546" y="274.67239"/>
      </g>
     </g>
     <g id="text_24">
      <!-- 0.25 -->
      <g transform="translate(28.334375 278.471609)scale(0.1 -0.1)">
       <use xlink:href="#DejaVuSans-30"/>
       <use x="63.623047" xlink:href="#DejaVuSans-2e"/>
       <use x="95.410156" xlink:href="#DejaVuSans-32"/>
       <use x="159.033203" xlink:href="#DejaVuSans-35"/>
      </g>
     </g>
    </g>
    <g id="ytick_11">
     <g id="line2d_47">
      <path clip-path="url(#p11b49c530e)" d="M 57.6 246.699707 
L 216.32 246.699707 
" style="fill:none;stroke:#b0b0b0;stroke-linecap:square;stroke-width:0.8;"/>
     </g>
     <g id="line2d_48">
      <g>
       <use style="stroke:#000000;stroke-width:0.8;" x="57.6" xlink:href="#m3568dad546" y="246.699707"/>
      </g>
     </g>
     <g id="text_25">
      <!-- 0.50 -->
      <g transform="translate(28.334375 250.498926)scale(0.1 -0.1)">
       <use xlink:href="#DejaVuSans-30"/>
       <use x="63.623047" xlink:href="#DejaVuSans-2e"/>
       <use x="95.410156" xlink:href="#DejaVuSans-35"/>
       <use x="159.033203" xlink:href="#DejaVuSans-30"/>
      </g>
     </g>
    </g>
    <g id="ytick_12">
     <g id="line2d_49">
      <path clip-path="url(#p11b49c530e)" d="M 57.6 218.727024 
L 216.32 218.727024 
" style="fill:none;stroke:#b0b0b0;stroke-linecap:square;stroke-width:0.8;"/>
     </g>
     <g id="line2d_50">
      <g>
       <use style="stroke:#000000;stroke-width:0.8;" x="57.6" xlink:href="#m3568dad546" y="218.727024"/>
      </g>
     </g>
     <g id="text_26">
      <!-- 0.75 -->
      <g transform="translate(28.334375 222.526242)scale(0.1 -0.1)">
       <use xlink:href="#DejaVuSans-30"/>
       <use x="63.623047" xlink:href="#DejaVuSans-2e"/>
       <use x="95.410156" xlink:href="#DejaVuSans-37"/>
       <use x="159.033203" xlink:href="#DejaVuSans-35"/>
      </g>
     </g>
    </g>
    <g id="ytick_13">
     <g id="line2d_51">
      <path clip-path="url(#p11b49c530e)" d="M 57.6 190.754341 
L 216.32 190.754341 
" style="fill:none;stroke:#b0b0b0;stroke-linecap:square;stroke-width:0.8;"/>
     </g>
     <g id="line2d_52">
      <g>
       <use style="stroke:#000000;stroke-width:0.8;" x="57.6" xlink:href="#m3568dad546" y="190.754341"/>
      </g>
     </g>
     <g id="text_27">
      <!-- 1.00 -->
      <g transform="translate(28.334375 194.553559)scale(0.1 -0.1)">
       <use xlink:href="#DejaVuSans-31"/>
       <use x="63.623047" xlink:href="#DejaVuSans-2e"/>
       <use x="95.410156" xlink:href="#DejaVuSans-30"/>
       <use x="159.033203" xlink:href="#DejaVuSans-30"/>
      </g>
     </g>
    </g>
   </g>
   <g id="line2d_53">
    <path clip-path="url(#p11b49c530e)" d="M 64.814545 302.208 
L 65.297124 300.89678 
L 66.744859 280.791414 
L 67.227437 268.990438 
L 67.710015 268.116291 
L 68.192593 261.997267 
L 68.675172 250.633365 
L 69.15775 249.759218 
L 69.640328 244.51434 
L 70.122907 241.891901 
L 70.605485 242.766047 
L 71.088063 229.653851 
L 72.05322 222.223607 
L 72.535798 220.038241 
L 73.018376 222.660681 
L 73.500955 223.534827 
L 73.983533 216.541656 
L 74.466111 219.164096 
L 74.94869 209.548487 
L 75.431268 207.363121 
L 75.913846 211.733851 
L 76.396424 214.356291 
L 76.879003 213.919217 
L 77.361581 204.740682 
L 78.326738 211.296778 
L 78.809316 206.926049 
L 79.291894 206.926048 
L 79.774472 208.237267 
L 80.257051 203.429463 
L 80.739629 202.118243 
L 81.222207 209.985559 
L 81.704786 223.534828 
L 82.187364 201.244098 
L 82.669942 205.614827 
L 83.152521 200.369951 
L 83.635099 204.303608 
L 84.117677 213.045072 
L 84.600255 202.555316 
L 85.082834 198.621658 
L 85.565412 202.555315 
L 86.04799 202.992389 
L 86.530569 202.118243 
L 87.013147 202.118244 
L 87.495725 201.244098 
L 87.978303 199.495804 
L 88.460882 200.807024 
L 88.94346 200.807024 
L 89.426038 203.429463 
L 89.908617 202.99239 
L 90.391195 198.621659 
L 90.873773 198.184585 
L 91.356351 199.058732 
L 91.83893 203.429462 
L 92.321508 200.369951 
L 92.804086 199.495805 
L 93.286665 200.36995 
L 93.769243 199.495805 
L 94.251821 197.747512 
L 94.7344 199.932878 
L 95.216978 200.807024 
L 95.699556 198.621659 
L 96.182134 198.621658 
L 96.664713 200.807023 
L 97.147291 202.118243 
L 97.629869 198.621658 
L 98.112448 198.621658 
L 98.595026 200.807025 
L 99.077604 198.621659 
L 99.560182 199.932879 
L 100.042761 200.369951 
L 100.525339 202.555316 
L 101.007917 197.747512 
L 101.490496 198.184585 
L 101.973074 196.873366 
L 102.455652 197.747512 
L 103.420809 202.555317 
L 103.903387 198.184586 
L 104.385965 203.429462 
L 104.868544 197.747512 
L 105.351122 195.999219 
L 105.8337 198.184585 
L 106.316279 196.873365 
L 106.798857 199.495805 
L 107.281435 199.932878 
L 107.764013 197.310439 
L 108.246592 198.621658 
L 108.72917 199.058731 
L 109.211748 198.621659 
L 109.694327 200.807025 
L 110.176905 197.310439 
L 110.659483 198.621658 
L 111.142061 198.621659 
L 111.62464 197.310439 
L 112.107218 199.495804 
L 112.589796 210.422633 
L 113.072375 199.495804 
L 113.554953 196.873365 
L 114.037531 198.184585 
L 114.520109 197.310439 
L 115.002688 195.999219 
L 115.967844 202.992389 
L 116.450423 198.184586 
L 116.933001 197.747513 
L 117.898157 197.747511 
L 118.380736 201.244098 
L 118.863314 198.184585 
L 119.345892 198.184585 
L 119.828471 201.681171 
L 120.311049 199.058732 
L 120.793627 198.184585 
L 121.276206 199.058732 
L 121.758784 198.184585 
L 122.241362 202.992389 
L 122.72394 197.310439 
L 123.206519 197.310439 
L 123.689097 199.058731 
L 124.654254 199.932878 
L 125.136832 197.310439 
L 125.61941 203.429462 
L 126.101988 195.562146 
L 126.584567 199.058732 
L 127.067145 196.873366 
L 127.549723 199.058731 
L 128.032302 204.30361 
L 128.51488 205.177755 
L 128.997458 199.932877 
L 129.480036 197.310439 
L 129.962615 195.999219 
L 130.445193 197.747512 
L 130.927771 198.621658 
L 131.41035 199.058732 
L 131.892928 201.244098 
L 132.375506 196.873365 
L 132.858085 196.436293 
L 133.340663 196.436292 
L 133.823241 199.058731 
L 134.305819 196.873366 
L 134.788398 199.058732 
L 135.270976 197.310439 
L 135.753554 197.747512 
L 136.236133 199.058732 
L 136.718711 198.621659 
L 137.201289 202.555317 
L 137.683867 197.747513 
L 138.166446 194.688 
L 139.131602 196.436292 
L 139.614181 198.184585 
L 140.096759 198.184586 
L 140.579337 196.873365 
L 141.061915 199.495804 
L 141.544494 204.740682 
L 142.50965 195.562146 
L 142.992229 199.495804 
L 143.474807 197.310438 
L 143.957385 199.495804 
L 144.439964 197.310439 
L 144.922542 199.932877 
L 145.40512 195.999219 
L 145.887698 195.999219 
L 146.852855 200.807024 
L 147.335433 197.310439 
L 147.818012 198.184585 
L 148.30059 196.873366 
L 148.783168 199.495804 
L 149.265746 195.999218 
L 149.748325 199.932878 
L 150.230903 198.621659 
L 150.713481 199.932878 
L 151.19606 199.932877 
L 151.678638 195.562146 
L 152.161216 199.932878 
L 152.643794 197.310439 
L 153.126373 199.495805 
L 153.608951 204.740682 
L 154.091529 198.621658 
L 154.574108 199.058731 
L 155.056686 195.999219 
L 155.539264 195.562146 
L 156.021843 197.747512 
L 156.504421 196.873365 
L 156.986999 199.495805 
L 157.469577 198.184586 
L 157.952156 197.310438 
L 158.434734 197.310439 
L 158.917312 196.436293 
L 159.399891 195.125073 
L 159.882469 196.873365 
L 160.365047 197.747512 
L 160.847625 196.436292 
L 161.330204 197.747511 
L 161.812782 198.621659 
L 162.29536 196.873365 
L 162.777939 199.932878 
L 163.260517 195.999219 
L 163.743095 198.184585 
L 164.225673 199.495805 
L 164.708252 197.747512 
L 165.673408 197.747512 
L 166.155987 196.436292 
L 166.638565 197.310439 
L 167.121143 196.873366 
L 167.603721 198.184586 
L 168.0863 195.999219 
L 168.568878 196.873366 
L 169.051456 199.932877 
L 169.534035 198.184586 
L 170.016613 199.495804 
L 170.499191 197.747512 
L 170.98177 195.562146 
L 171.464348 196.436292 
L 171.946926 200.369951 
L 172.429504 197.310438 
L 172.912083 199.058731 
L 173.394661 197.310439 
L 173.877239 195.999219 
L 174.359818 198.621658 
L 175.324974 196.873365 
L 175.807552 196.436292 
L 176.290131 198.621658 
L 176.772709 195.999219 
L 177.255287 198.621658 
L 177.737866 197.747512 
L 178.220444 196.436292 
L 178.703022 199.495804 
L 179.1856 196.436292 
L 180.150757 196.436292 
L 180.633335 198.184586 
L 181.115914 198.621658 
L 181.598492 197.310439 
L 182.08107 197.747512 
L 182.563649 196.873365 
L 183.046227 195.562146 
L 183.528805 198.184586 
L 184.011383 196.436292 
L 184.493962 198.184585 
L 184.97654 199.058732 
L 185.459118 196.873366 
L 185.941697 196.873365 
L 186.424275 197.310439 
L 186.906853 196.436292 
L 187.389431 198.621658 
L 187.87201 195.562145 
L 188.354588 196.436292 
L 188.837166 198.184585 
L 189.319745 196.436293 
L 189.802323 196.436292 
L 190.284901 195.99922 
L 190.767479 195.125073 
L 191.250058 196.873365 
L 191.732636 196.873366 
L 192.215214 199.058732 
L 192.697793 204.740682 
L 193.180371 196.873366 
L 193.662949 197.310439 
L 194.145528 199.058732 
L 194.628106 198.621658 
L 195.110684 197.310439 
L 195.593262 200.369951 
L 196.075841 195.999219 
L 196.558419 197.310438 
L 197.040997 197.310439 
L 197.523576 200.807024 
L 198.006154 202.118243 
L 198.488732 199.495804 
L 199.453889 196.873366 
L 199.936467 196.873365 
L 200.901624 201.68117 
L 201.384202 199.058732 
L 201.86678 197.310438 
L 202.349358 195.999219 
L 202.831937 195.999219 
L 203.314515 197.747512 
L 203.797093 196.873365 
L 204.279672 198.621658 
L 204.76225 198.184586 
L 205.244828 196.436292 
L 205.727407 197.310439 
L 206.209985 198.621658 
L 206.692563 196.436292 
L 207.175141 198.621658 
L 207.65772 196.436292 
L 208.140298 200.807025 
L 208.622876 197.747512 
L 209.105455 198.184584 
L 209.105455 198.184584 
" style="fill:none;stroke:#1f77b4;stroke-linecap:square;stroke-width:1.5;"/>
   </g>
   <g id="patch_13">
    <path d="M 57.6 307.584 
L 57.6 189.312 
" style="fill:none;stroke:#000000;stroke-linecap:square;stroke-linejoin:miter;stroke-width:0.8;"/>
   </g>
   <g id="patch_14">
    <path d="M 216.32 307.584 
L 216.32 189.312 
" style="fill:none;stroke:#000000;stroke-linecap:square;stroke-linejoin:miter;stroke-width:0.8;"/>
   </g>
   <g id="patch_15">
    <path d="M 57.6 307.584 
L 216.32 307.584 
" style="fill:none;stroke:#000000;stroke-linecap:square;stroke-linejoin:miter;stroke-width:0.8;"/>
   </g>
   <g id="patch_16">
    <path d="M 57.6 189.312 
L 216.32 189.312 
" style="fill:none;stroke:#000000;stroke-linecap:square;stroke-linejoin:miter;stroke-width:0.8;"/>
   </g>
   <g id="text_28">
    <!-- val_acc -->
    <defs>
     <path d="M 2.984375 54.6875 
L 12.5 54.6875 
L 29.59375 8.796875 
L 46.6875 54.6875 
L 56.203125 54.6875 
L 35.6875 0 
L 23.484375 0 
z
" id="DejaVuSans-76"/>
     <path d="M 50.984375 -16.609375 
L 50.984375 -23.578125 
L -0.984375 -23.578125 
L -0.984375 -16.609375 
z
" id="DejaVuSans-5f"/>
    </defs>
    <g transform="translate(114.79 183.312)scale(0.12 -0.12)">
     <use xlink:href="#DejaVuSans-76"/>
     <use x="59.179688" xlink:href="#DejaVuSans-61"/>
     <use x="120.458984" xlink:href="#DejaVuSans-6c"/>
     <use x="148.242188" xlink:href="#DejaVuSans-5f"/>
     <use x="198.242188" xlink:href="#DejaVuSans-61"/>
     <use x="259.521484" xlink:href="#DejaVuSans-63"/>
     <use x="314.501953" xlink:href="#DejaVuSans-63"/>
    </g>
   </g>
  </g>
  <g id="axes_4">
   <g id="patch_17">
    <path d="M 256 307.584 
L 414.72 307.584 
L 414.72 189.312 
L 256 189.312 
z
" style="fill:#ffffff;"/>
   </g>
   <g id="matplotlib.axis_7">
    <g id="xtick_13">
     <g id="line2d_54">
      <path clip-path="url(#p8f9e72f4a7)" d="M 263.214545 307.584 
L 263.214545 189.312 
" style="fill:none;stroke:#b0b0b0;stroke-linecap:square;stroke-width:0.8;"/>
     </g>
     <g id="line2d_55">
      <g>
       <use style="stroke:#000000;stroke-width:0.8;" x="263.214545" xlink:href="#m45c7551f91" y="307.584"/>
      </g>
     </g>
     <g id="text_29">
      <!-- 0 -->
      <g transform="translate(260.033295 322.182437)scale(0.1 -0.1)">
       <use xlink:href="#DejaVuSans-30"/>
      </g>
     </g>
    </g>
    <g id="xtick_14">
     <g id="line2d_56">
      <path clip-path="url(#p8f9e72f4a7)" d="M 311.472375 307.584 
L 311.472375 189.312 
" style="fill:none;stroke:#b0b0b0;stroke-linecap:square;stroke-width:0.8;"/>
     </g>
     <g id="line2d_57">
      <g>
       <use style="stroke:#000000;stroke-width:0.8;" x="311.472375" xlink:href="#m45c7551f91" y="307.584"/>
      </g>
     </g>
     <g id="text_30">
      <!-- 100 -->
      <g transform="translate(301.928625 322.182437)scale(0.1 -0.1)">
       <use xlink:href="#DejaVuSans-31"/>
       <use x="63.623047" xlink:href="#DejaVuSans-30"/>
       <use x="127.246094" xlink:href="#DejaVuSans-30"/>
      </g>
     </g>
    </g>
    <g id="xtick_15">
     <g id="line2d_58">
      <path clip-path="url(#p8f9e72f4a7)" d="M 359.730204 307.584 
L 359.730204 189.312 
" style="fill:none;stroke:#b0b0b0;stroke-linecap:square;stroke-width:0.8;"/>
     </g>
     <g id="line2d_59">
      <g>
       <use style="stroke:#000000;stroke-width:0.8;" x="359.730204" xlink:href="#m45c7551f91" y="307.584"/>
      </g>
     </g>
     <g id="text_31">
      <!-- 200 -->
      <g transform="translate(350.186454 322.182437)scale(0.1 -0.1)">
       <use xlink:href="#DejaVuSans-32"/>
       <use x="63.623047" xlink:href="#DejaVuSans-30"/>
       <use x="127.246094" xlink:href="#DejaVuSans-30"/>
      </g>
     </g>
    </g>
    <g id="xtick_16">
     <g id="line2d_60">
      <path clip-path="url(#p8f9e72f4a7)" d="M 407.988033 307.584 
L 407.988033 189.312 
" style="fill:none;stroke:#b0b0b0;stroke-linecap:square;stroke-width:0.8;"/>
     </g>
     <g id="line2d_61">
      <g>
       <use style="stroke:#000000;stroke-width:0.8;" x="407.988033" xlink:href="#m45c7551f91" y="307.584"/>
      </g>
     </g>
     <g id="text_32">
      <!-- 300 -->
      <g transform="translate(398.444283 322.182437)scale(0.1 -0.1)">
       <use xlink:href="#DejaVuSans-33"/>
       <use x="63.623047" xlink:href="#DejaVuSans-30"/>
       <use x="127.246094" xlink:href="#DejaVuSans-30"/>
      </g>
     </g>
    </g>
   </g>
   <g id="matplotlib.axis_8">
    <g id="ytick_14">
     <g id="line2d_62">
      <path clip-path="url(#p8f9e72f4a7)" d="M 256 305.285684 
L 414.72 305.285684 
" style="fill:none;stroke:#b0b0b0;stroke-linecap:square;stroke-width:0.8;"/>
     </g>
     <g id="line2d_63">
      <g>
       <use style="stroke:#000000;stroke-width:0.8;" x="256" xlink:href="#m3568dad546" y="305.285684"/>
      </g>
     </g>
     <g id="text_33">
      <!-- 0 -->
      <g transform="translate(242.6375 309.084903)scale(0.1 -0.1)">
       <use xlink:href="#DejaVuSans-30"/>
      </g>
     </g>
    </g>
    <g id="ytick_15">
     <g id="line2d_64">
      <path clip-path="url(#p8f9e72f4a7)" d="M 256 265.042715 
L 414.72 265.042715 
" style="fill:none;stroke:#b0b0b0;stroke-linecap:square;stroke-width:0.8;"/>
     </g>
     <g id="line2d_65">
      <g>
       <use style="stroke:#000000;stroke-width:0.8;" x="256" xlink:href="#m3568dad546" y="265.042715"/>
      </g>
     </g>
     <g id="text_34">
      <!-- 2 -->
      <g transform="translate(242.6375 268.841934)scale(0.1 -0.1)">
       <use xlink:href="#DejaVuSans-32"/>
      </g>
     </g>
    </g>
    <g id="ytick_16">
     <g id="line2d_66">
      <path clip-path="url(#p8f9e72f4a7)" d="M 256 224.799746 
L 414.72 224.799746 
" style="fill:none;stroke:#b0b0b0;stroke-linecap:square;stroke-width:0.8;"/>
     </g>
     <g id="line2d_67">
      <g>
       <use style="stroke:#000000;stroke-width:0.8;" x="256" xlink:href="#m3568dad546" y="224.799746"/>
      </g>
     </g>
     <g id="text_35">
      <!-- 4 -->
      <g transform="translate(242.6375 228.598965)scale(0.1 -0.1)">
       <use xlink:href="#DejaVuSans-34"/>
      </g>
     </g>
    </g>
   </g>
   <g id="line2d_68">
    <path clip-path="url(#p8f9e72f4a7)" d="M 263.214545 194.688 
L 263.697124 204.791518 
L 264.179702 219.704884 
L 264.66228 229.081347 
L 265.144859 235.64609 
L 265.627437 244.110588 
L 267.075172 259.169568 
L 267.55775 259.082285 
L 268.040328 265.220037 
L 268.522907 268.586625 
L 269.005485 268.931232 
L 269.970642 276.667395 
L 270.45322 280.12897 
L 270.935798 280.801501 
L 271.418376 279.882952 
L 272.383533 285.955633 
L 272.866111 284.514999 
L 273.34869 290.386093 
L 273.831268 290.876357 
L 275.279003 287.703498 
L 275.761581 294.687572 
L 276.244159 290.170416 
L 277.209316 294.822343 
L 277.691894 295.617078 
L 278.174472 294.09847 
L 278.657051 296.272715 
L 279.139629 297.172457 
L 279.622207 294.600085 
L 280.104786 286.364173 
L 280.587364 298.574879 
L 281.069942 297.043634 
L 281.552521 299.288401 
L 282.035099 297.225616 
L 282.517677 290.495154 
L 283.000255 298.348862 
L 283.482834 300.114595 
L 283.965412 298.23963 
L 284.930569 298.576065 
L 285.413147 298.184081 
L 286.378303 299.698388 
L 286.860882 299.183699 
L 287.34346 299.261569 
L 287.826038 297.319314 
L 288.308617 296.595268 
L 288.791195 300.670115 
L 289.756351 299.464206 
L 290.23893 296.662748 
L 290.721508 299.858298 
L 291.204086 299.957531 
L 291.686665 300.399251 
L 292.169243 300.266391 
L 292.651821 300.916464 
L 293.1344 299.832805 
L 293.616978 299.683484 
L 294.099556 300.72038 
L 294.582134 300.282038 
L 295.064713 299.266983 
L 295.547291 299.549911 
L 296.029869 301.217899 
L 296.512448 301.166966 
L 296.995026 298.75858 
L 297.477604 299.942621 
L 297.960182 299.405659 
L 298.442761 299.471618 
L 298.925339 298.818976 
L 299.407917 300.926611 
L 299.890496 301.316436 
L 300.373074 301.318036 
L 300.855652 299.953422 
L 301.33823 299.552929 
L 301.820809 297.76396 
L 302.303387 299.521753 
L 302.785965 297.444001 
L 303.268544 301.29347 
L 303.751122 301.675044 
L 304.2337 300.131515 
L 304.716279 301.716477 
L 305.198857 299.427312 
L 306.164013 301.097848 
L 307.12917 299.861559 
L 307.611748 299.747466 
L 308.094327 300.036937 
L 308.576905 300.69738 
L 309.059483 300.415751 
L 309.542061 301.51405 
L 310.02464 301.343504 
L 310.507218 299.56314 
L 310.989796 292.830538 
L 311.472375 300.521622 
L 311.954953 300.753136 
L 312.437531 300.373256 
L 312.920109 300.437663 
L 313.402688 301.207906 
L 313.885266 297.443042 
L 314.367844 296.684417 
L 314.850423 300.357394 
L 315.333001 301.177555 
L 316.298157 300.989978 
L 316.780736 298.808038 
L 317.263314 300.994757 
L 317.745892 300.057581 
L 318.228471 295.438754 
L 318.711049 300.700718 
L 319.193627 300.518329 
L 319.676206 301.320858 
L 320.158784 300.003766 
L 320.641362 297.764173 
L 321.12394 300.376321 
L 321.606519 300.694271 
L 322.089097 298.557951 
L 322.571675 299.72791 
L 323.054254 298.679323 
L 323.536832 300.754822 
L 324.01941 297.926231 
L 324.501988 301.67682 
L 324.984567 301.428731 
L 325.467145 301.804709 
L 325.949723 300.651189 
L 326.432302 297.021853 
L 326.91488 295.495047 
L 327.397458 298.514464 
L 328.362615 301.644065 
L 328.845193 299.395898 
L 329.327771 299.655628 
L 329.81035 299.186343 
L 330.292928 296.408718 
L 330.775506 301.866803 
L 331.258085 302.129471 
L 331.740663 301.352335 
L 332.223241 300.009658 
L 332.705819 302.208 
L 333.188398 299.289224 
L 333.670976 300.802801 
L 334.153554 301.021104 
L 334.636133 297.419413 
L 335.118711 300.198825 
L 335.601289 296.172717 
L 336.083867 300.941913 
L 336.566446 301.762585 
L 337.049024 300.706751 
L 337.531602 300.57411 
L 338.014181 299.588779 
L 338.496759 300.238495 
L 338.979337 300.030383 
L 339.461915 296.858455 
L 339.944494 291.434642 
L 340.427072 297.714733 
L 340.90965 300.614509 
L 341.392229 298.609298 
L 341.874807 300.654665 
L 342.357385 297.293316 
L 342.839964 299.272193 
L 343.322542 298.626362 
L 343.80512 300.210526 
L 344.287698 300.823214 
L 344.770277 298.717218 
L 345.252855 293.520104 
L 345.735433 297.830323 
L 346.218012 297.260719 
L 346.70059 300.120709 
L 347.183168 297.01455 
L 347.665746 299.970318 
L 348.148325 295.061576 
L 348.630903 300.504942 
L 349.113481 300.488996 
L 349.59606 297.48947 
L 350.078638 300.953283 
L 350.561216 293.471027 
L 351.043794 300.362361 
L 352.008951 293.779078 
L 352.491529 298.575069 
L 352.974108 295.308311 
L 353.456686 298.970483 
L 353.939264 301.363436 
L 354.421843 299.559027 
L 354.904421 298.417928 
L 355.386999 299.743768 
L 355.869577 296.993175 
L 356.352156 298.874194 
L 356.834734 299.486406 
L 357.317312 299.097444 
L 357.799891 299.246987 
L 358.282469 296.5892 
L 358.765047 297.329079 
L 359.247625 297.050536 
L 359.730204 299.73413 
L 360.212782 296.223226 
L 360.69536 296.955103 
L 361.177939 294.644881 
L 361.660517 298.254619 
L 362.143095 297.378212 
L 362.625673 297.656401 
L 363.108252 299.599198 
L 363.59083 299.279367 
L 364.073408 296.785416 
L 364.555987 299.05663 
L 365.038565 295.592047 
L 365.521143 296.803249 
L 366.003721 296.943843 
L 366.4863 299.194066 
L 366.968878 300.235995 
L 367.451456 297.282745 
L 367.934035 295.200088 
L 368.416613 295.191469 
L 368.899191 296.360618 
L 369.38177 299.659179 
L 369.864348 297.047415 
L 370.346926 293.629735 
L 370.829504 294.865035 
L 371.312083 295.560535 
L 371.794661 296.9882 
L 372.277239 299.26573 
L 372.759818 296.301634 
L 373.242396 294.150469 
L 373.724974 297.368714 
L 374.207552 298.611459 
L 374.690131 293.970039 
L 375.172709 299.888135 
L 375.655287 296.132934 
L 376.137866 294.25116 
L 376.620444 298.095982 
L 377.103022 293.89032 
L 377.5856 299.227017 
L 378.068179 296.710352 
L 378.550757 297.580724 
L 379.033335 291.657938 
L 379.515914 295.720465 
L 379.998492 296.763716 
L 380.48107 294.626187 
L 380.963649 297.287765 
L 381.446227 297.502339 
L 381.928805 292.458661 
L 382.411383 296.032074 
L 382.893962 297.799066 
L 383.37654 293.511651 
L 383.859118 295.665577 
L 384.341697 295.956599 
L 384.824275 296.835776 
L 385.306853 298.134059 
L 385.789431 294.583541 
L 386.27201 297.8511 
L 386.754588 297.139673 
L 387.237166 293.13007 
L 387.719745 298.27288 
L 388.202323 298.730306 
L 388.684901 297.04097 
L 389.167479 299.591119 
L 389.650058 296.07355 
L 390.132636 295.619236 
L 390.615214 292.385089 
L 391.097793 281.220498 
L 391.580371 297.516038 
L 392.545528 292.972209 
L 393.028106 295.193484 
L 393.510684 296.365071 
L 393.993262 293.879795 
L 394.475841 297.024897 
L 394.958419 294.376062 
L 395.440997 295.171754 
L 395.923576 285.973124 
L 396.406154 290.128538 
L 396.888732 291.456774 
L 397.37131 295.217361 
L 397.853889 296.591566 
L 398.336467 295.938278 
L 398.819045 290.427825 
L 399.301624 287.570506 
L 399.784202 292.895386 
L 400.26678 294.923082 
L 400.749358 297.858075 
L 401.231937 296.349274 
L 401.714515 295.548362 
L 402.197093 297.516596 
L 403.16225 293.596867 
L 403.644828 296.941157 
L 404.127407 298.471408 
L 404.609985 293.119935 
L 405.092563 296.151714 
L 405.575141 290.023142 
L 406.05772 294.847489 
L 406.540298 288.813853 
L 407.022876 294.047076 
L 407.505455 293.638315 
L 407.505455 293.638315 
" style="fill:none;stroke:#1f77b4;stroke-linecap:square;stroke-width:1.5;"/>
   </g>
   <g id="patch_18">
    <path d="M 256 307.584 
L 256 189.312 
" style="fill:none;stroke:#000000;stroke-linecap:square;stroke-linejoin:miter;stroke-width:0.8;"/>
   </g>
   <g id="patch_19">
    <path d="M 414.72 307.584 
L 414.72 189.312 
" style="fill:none;stroke:#000000;stroke-linecap:square;stroke-linejoin:miter;stroke-width:0.8;"/>
   </g>
   <g id="patch_20">
    <path d="M 256 307.584 
L 414.72 307.584 
" style="fill:none;stroke:#000000;stroke-linecap:square;stroke-linejoin:miter;stroke-width:0.8;"/>
   </g>
   <g id="patch_21">
    <path d="M 256 189.312 
L 414.72 189.312 
" style="fill:none;stroke:#000000;stroke-linecap:square;stroke-linejoin:miter;stroke-width:0.8;"/>
   </g>
   <g id="text_36">
    <!-- val_loss -->
    <g transform="translate(311.875625 183.312)scale(0.12 -0.12)">
     <use xlink:href="#DejaVuSans-76"/>
     <use x="59.179688" xlink:href="#DejaVuSans-61"/>
     <use x="120.458984" xlink:href="#DejaVuSans-6c"/>
     <use x="148.242188" xlink:href="#DejaVuSans-5f"/>
     <use x="198.242188" xlink:href="#DejaVuSans-6c"/>
     <use x="226.025391" xlink:href="#DejaVuSans-6f"/>
     <use x="287.207031" xlink:href="#DejaVuSans-73"/>
     <use x="339.306641" xlink:href="#DejaVuSans-73"/>
    </g>
   </g>
  </g>
  <g id="text_37">
   <!-- benchmark 20171023_061445 -->
   <defs>
    <path d="M 48.6875 27.296875 
Q 48.6875 37.203125 44.609375 42.84375 
Q 40.53125 48.484375 33.40625 48.484375 
Q 26.265625 48.484375 22.1875 42.84375 
Q 18.109375 37.203125 18.109375 27.296875 
Q 18.109375 17.390625 22.1875 11.75 
Q 26.265625 6.109375 33.40625 6.109375 
Q 40.53125 6.109375 44.609375 11.75 
Q 48.6875 17.390625 48.6875 27.296875 
z
M 18.109375 46.390625 
Q 20.953125 51.265625 25.265625 53.625 
Q 29.59375 56 35.59375 56 
Q 45.5625 56 51.78125 48.09375 
Q 58.015625 40.1875 58.015625 27.296875 
Q 58.015625 14.40625 51.78125 6.484375 
Q 45.5625 -1.421875 35.59375 -1.421875 
Q 29.59375 -1.421875 25.265625 0.953125 
Q 20.953125 3.328125 18.109375 8.203125 
L 18.109375 0 
L 9.078125 0 
L 9.078125 75.984375 
L 18.109375 75.984375 
z
" id="DejaVuSans-62"/>
    <path d="M 56.203125 29.59375 
L 56.203125 25.203125 
L 14.890625 25.203125 
Q 15.484375 15.921875 20.484375 11.0625 
Q 25.484375 6.203125 34.421875 6.203125 
Q 39.59375 6.203125 44.453125 7.46875 
Q 49.3125 8.734375 54.109375 11.28125 
L 54.109375 2.78125 
Q 49.265625 0.734375 44.1875 -0.34375 
Q 39.109375 -1.421875 33.890625 -1.421875 
Q 20.796875 -1.421875 13.15625 6.1875 
Q 5.515625 13.8125 5.515625 26.8125 
Q 5.515625 40.234375 12.765625 48.109375 
Q 20.015625 56 32.328125 56 
Q 43.359375 56 49.78125 48.890625 
Q 56.203125 41.796875 56.203125 29.59375 
z
M 47.21875 32.234375 
Q 47.125 39.59375 43.09375 43.984375 
Q 39.0625 48.390625 32.421875 48.390625 
Q 24.90625 48.390625 20.390625 44.140625 
Q 15.875 39.890625 15.1875 32.171875 
z
" id="DejaVuSans-65"/>
    <path d="M 54.890625 33.015625 
L 54.890625 0 
L 45.90625 0 
L 45.90625 32.71875 
Q 45.90625 40.484375 42.875 44.328125 
Q 39.84375 48.1875 33.796875 48.1875 
Q 26.515625 48.1875 22.3125 43.546875 
Q 18.109375 38.921875 18.109375 30.90625 
L 18.109375 0 
L 9.078125 0 
L 9.078125 54.6875 
L 18.109375 54.6875 
L 18.109375 46.1875 
Q 21.34375 51.125 25.703125 53.5625 
Q 30.078125 56 35.796875 56 
Q 45.21875 56 50.046875 50.171875 
Q 54.890625 44.34375 54.890625 33.015625 
z
" id="DejaVuSans-6e"/>
    <path d="M 54.890625 33.015625 
L 54.890625 0 
L 45.90625 0 
L 45.90625 32.71875 
Q 45.90625 40.484375 42.875 44.328125 
Q 39.84375 48.1875 33.796875 48.1875 
Q 26.515625 48.1875 22.3125 43.546875 
Q 18.109375 38.921875 18.109375 30.90625 
L 18.109375 0 
L 9.078125 0 
L 9.078125 75.984375 
L 18.109375 75.984375 
L 18.109375 46.1875 
Q 21.34375 51.125 25.703125 53.5625 
Q 30.078125 56 35.796875 56 
Q 45.21875 56 50.046875 50.171875 
Q 54.890625 44.34375 54.890625 33.015625 
z
" id="DejaVuSans-68"/>
    <path d="M 52 44.1875 
Q 55.375 50.25 60.0625 53.125 
Q 64.75 56 71.09375 56 
Q 79.640625 56 84.28125 50.015625 
Q 88.921875 44.046875 88.921875 33.015625 
L 88.921875 0 
L 79.890625 0 
L 79.890625 32.71875 
Q 79.890625 40.578125 77.09375 44.375 
Q 74.3125 48.1875 68.609375 48.1875 
Q 61.625 48.1875 57.5625 43.546875 
Q 53.515625 38.921875 53.515625 30.90625 
L 53.515625 0 
L 44.484375 0 
L 44.484375 32.71875 
Q 44.484375 40.625 41.703125 44.40625 
Q 38.921875 48.1875 33.109375 48.1875 
Q 26.21875 48.1875 22.15625 43.53125 
Q 18.109375 38.875 18.109375 30.90625 
L 18.109375 0 
L 9.078125 0 
L 9.078125 54.6875 
L 18.109375 54.6875 
L 18.109375 46.1875 
Q 21.1875 51.21875 25.484375 53.609375 
Q 29.78125 56 35.6875 56 
Q 41.65625 56 45.828125 52.96875 
Q 50 49.953125 52 44.1875 
z
" id="DejaVuSans-6d"/>
    <path d="M 41.109375 46.296875 
Q 39.59375 47.171875 37.8125 47.578125 
Q 36.03125 48 33.890625 48 
Q 26.265625 48 22.1875 43.046875 
Q 18.109375 38.09375 18.109375 28.8125 
L 18.109375 0 
L 9.078125 0 
L 9.078125 54.6875 
L 18.109375 54.6875 
L 18.109375 46.1875 
Q 20.953125 51.171875 25.484375 53.578125 
Q 30.03125 56 36.53125 56 
Q 37.453125 56 38.578125 55.875 
Q 39.703125 55.765625 41.0625 55.515625 
z
" id="DejaVuSans-72"/>
    <path d="M 9.078125 75.984375 
L 18.109375 75.984375 
L 18.109375 31.109375 
L 44.921875 54.6875 
L 56.390625 54.6875 
L 27.390625 29.109375 
L 57.625 0 
L 45.90625 0 
L 18.109375 26.703125 
L 18.109375 0 
L 9.078125 0 
z
" id="DejaVuSans-6b"/>
    <path id="DejaVuSans-20"/>
    <path d="M 33.015625 40.375 
Q 26.375 40.375 22.484375 35.828125 
Q 18.609375 31.296875 18.609375 23.390625 
Q 18.609375 15.53125 22.484375 10.953125 
Q 26.375 6.390625 33.015625 6.390625 
Q 39.65625 6.390625 43.53125 10.953125 
Q 47.40625 15.53125 47.40625 23.390625 
Q 47.40625 31.296875 43.53125 35.828125 
Q 39.65625 40.375 33.015625 40.375 
z
M 52.59375 71.296875 
L 52.59375 62.3125 
Q 48.875 64.0625 45.09375 64.984375 
Q 41.3125 65.921875 37.59375 65.921875 
Q 27.828125 65.921875 22.671875 59.328125 
Q 17.53125 52.734375 16.796875 39.40625 
Q 19.671875 43.65625 24.015625 45.921875 
Q 28.375 48.1875 33.59375 48.1875 
Q 44.578125 48.1875 50.953125 41.515625 
Q 57.328125 34.859375 57.328125 23.390625 
Q 57.328125 12.15625 50.6875 5.359375 
Q 44.046875 -1.421875 33.015625 -1.421875 
Q 20.359375 -1.421875 13.671875 8.265625 
Q 6.984375 17.96875 6.984375 36.375 
Q 6.984375 53.65625 15.1875 63.9375 
Q 23.390625 74.21875 37.203125 74.21875 
Q 40.921875 74.21875 44.703125 73.484375 
Q 48.484375 72.75 52.59375 71.296875 
z
" id="DejaVuSans-36"/>
   </defs>
   <g transform="translate(138.180938 16.030125)scale(0.12 -0.12)">
    <use xlink:href="#DejaVuSans-62"/>
    <use x="63.476562" xlink:href="#DejaVuSans-65"/>
    <use x="125" xlink:href="#DejaVuSans-6e"/>
    <use x="188.378906" xlink:href="#DejaVuSans-63"/>
    <use x="243.359375" xlink:href="#DejaVuSans-68"/>
    <use x="306.738281" xlink:href="#DejaVuSans-6d"/>
    <use x="404.150391" xlink:href="#DejaVuSans-61"/>
    <use x="465.429688" xlink:href="#DejaVuSans-72"/>
    <use x="506.542969" xlink:href="#DejaVuSans-6b"/>
    <use x="564.453125" xlink:href="#DejaVuSans-20"/>
    <use x="596.240234" xlink:href="#DejaVuSans-32"/>
    <use x="659.863281" xlink:href="#DejaVuSans-30"/>
    <use x="723.486328" xlink:href="#DejaVuSans-31"/>
    <use x="787.109375" xlink:href="#DejaVuSans-37"/>
    <use x="850.732422" xlink:href="#DejaVuSans-31"/>
    <use x="914.355469" xlink:href="#DejaVuSans-30"/>
    <use x="977.978516" xlink:href="#DejaVuSans-32"/>
    <use x="1041.601562" xlink:href="#DejaVuSans-33"/>
    <use x="1105.224609" xlink:href="#DejaVuSans-5f"/>
    <use x="1155.224609" xlink:href="#DejaVuSans-30"/>
    <use x="1218.847656" xlink:href="#DejaVuSans-36"/>
    <use x="1282.470703" xlink:href="#DejaVuSans-31"/>
    <use x="1346.09375" xlink:href="#DejaVuSans-34"/>
    <use x="1409.716797" xlink:href="#DejaVuSans-34"/>
    <use x="1473.339844" xlink:href="#DejaVuSans-35"/>
   </g>
  </g>
 </g>
 <defs>
  <clipPath id="pdf824ff602">
   <rect height="118.272" width="158.72" x="57.6" y="41.472"/>
  </clipPath>
  <clipPath id="pd317f5595a">
   <rect height="118.272" width="158.72" x="256" y="41.472"/>
  </clipPath>
  <clipPath id="p11b49c530e">
   <rect height="118.272" width="158.72" x="57.6" y="189.312"/>
  </clipPath>
  <clipPath id="p8f9e72f4a7">
   <rect height="118.272" width="158.72" x="256" y="189.312"/>
  </clipPath>
 </defs>
</svg>
