<?xml version="1.0" encoding="utf-8" standalone="no"?>
<!DOCTYPE svg PUBLIC "-//W3C//DTD SVG 1.1//EN"
  "http://www.w3.org/Graphics/SVG/1.1/DTD/svg11.dtd">
<!-- Created with matplotlib (http://matplotlib.org/) -->
<svg height="345pt" version="1.1" viewBox="0 0 460 345" width="460pt" xmlns="http://www.w3.org/2000/svg" xmlns:xlink="http://www.w3.org/1999/xlink">
 <defs>
  <style type="text/css">
*{stroke-linecap:butt;stroke-linejoin:round;}
  </style>
 </defs>
 <g id="figure_1">
  <g id="patch_1">
   <path d="M 0 345.6 
L 460.8 345.6 
L 460.8 0 
L 0 0 
z
" style="fill:#ffffff;"/>
  </g>
  <g id="axes_1">
   <g id="patch_2">
    <path d="M 57.6 159.744 
L 216.32 159.744 
L 216.32 41.472 
L 57.6 41.472 
z
" style="fill:#ffffff;"/>
   </g>
   <g id="matplotlib.axis_1">
    <g id="xtick_1">
     <g id="line2d_1">
      <path clip-path="url(#pc6aa824a99)" d="M 64.814545 159.744 
L 64.814545 41.472 
" style="fill:none;stroke:#b0b0b0;stroke-linecap:square;stroke-width:0.8;"/>
     </g>
     <g id="line2d_2">
      <defs>
       <path d="M 0 0 
L 0 3.5 
" id="m8a50bb1a85" style="stroke:#000000;stroke-width:0.8;"/>
      </defs>
      <g>
       <use style="stroke:#000000;stroke-width:0.8;" x="64.814545" xlink:href="#m8a50bb1a85" y="159.744"/>
      </g>
     </g>
     <g id="text_1">
      <!-- 0 -->
      <defs>
       <path d="M 31.78125 66.40625 
Q 24.171875 66.40625 20.328125 58.90625 
Q 16.5 51.421875 16.5 36.375 
Q 16.5 21.390625 20.328125 13.890625 
Q 24.171875 6.390625 31.78125 6.390625 
Q 39.453125 6.390625 43.28125 13.890625 
Q 47.125 21.390625 47.125 36.375 
Q 47.125 51.421875 43.28125 58.90625 
Q 39.453125 66.40625 31.78125 66.40625 
z
M 31.78125 74.21875 
Q 44.046875 74.21875 50.515625 64.515625 
Q 56.984375 54.828125 56.984375 36.375 
Q 56.984375 17.96875 50.515625 8.265625 
Q 44.046875 -1.421875 31.78125 -1.421875 
Q 19.53125 -1.421875 13.0625 8.265625 
Q 6.59375 17.96875 6.59375 36.375 
Q 6.59375 54.828125 13.0625 64.515625 
Q 19.53125 74.21875 31.78125 74.21875 
z
" id="DejaVuSans-30"/>
      </defs>
      <g transform="translate(61.633295 174.342437)scale(0.1 -0.1)">
       <use xlink:href="#DejaVuSans-30"/>
      </g>
     </g>
    </g>
    <g id="xtick_2">
     <g id="line2d_3">
      <path clip-path="url(#pc6aa824a99)" d="M 113.072375 159.744 
L 113.072375 41.472 
" style="fill:none;stroke:#b0b0b0;stroke-linecap:square;stroke-width:0.8;"/>
     </g>
     <g id="line2d_4">
      <g>
       <use style="stroke:#000000;stroke-width:0.8;" x="113.072375" xlink:href="#m8a50bb1a85" y="159.744"/>
      </g>
     </g>
     <g id="text_2">
      <!-- 100 -->
      <defs>
       <path d="M 12.40625 8.296875 
L 28.515625 8.296875 
L 28.515625 63.921875 
L 10.984375 60.40625 
L 10.984375 69.390625 
L 28.421875 72.90625 
L 38.28125 72.90625 
L 38.28125 8.296875 
L 54.390625 8.296875 
L 54.390625 0 
L 12.40625 0 
z
" id="DejaVuSans-31"/>
      </defs>
      <g transform="translate(103.528625 174.342437)scale(0.1 -0.1)">
       <use xlink:href="#DejaVuSans-31"/>
       <use x="63.623047" xlink:href="#DejaVuSans-30"/>
       <use x="127.246094" xlink:href="#DejaVuSans-30"/>
      </g>
     </g>
    </g>
    <g id="xtick_3">
     <g id="line2d_5">
      <path clip-path="url(#pc6aa824a99)" d="M 161.330204 159.744 
L 161.330204 41.472 
" style="fill:none;stroke:#b0b0b0;stroke-linecap:square;stroke-width:0.8;"/>
     </g>
     <g id="line2d_6">
      <g>
       <use style="stroke:#000000;stroke-width:0.8;" x="161.330204" xlink:href="#m8a50bb1a85" y="159.744"/>
      </g>
     </g>
     <g id="text_3">
      <!-- 200 -->
      <defs>
       <path d="M 19.1875 8.296875 
L 53.609375 8.296875 
L 53.609375 0 
L 7.328125 0 
L 7.328125 8.296875 
Q 12.9375 14.109375 22.625 23.890625 
Q 32.328125 33.6875 34.8125 36.53125 
Q 39.546875 41.84375 41.421875 45.53125 
Q 43.3125 49.21875 43.3125 52.78125 
Q 43.3125 58.59375 39.234375 62.25 
Q 35.15625 65.921875 28.609375 65.921875 
Q 23.96875 65.921875 18.8125 64.3125 
Q 13.671875 62.703125 7.8125 59.421875 
L 7.8125 69.390625 
Q 13.765625 71.78125 18.9375 73 
Q 24.125 74.21875 28.421875 74.21875 
Q 39.75 74.21875 46.484375 68.546875 
Q 53.21875 62.890625 53.21875 53.421875 
Q 53.21875 48.921875 51.53125 44.890625 
Q 49.859375 40.875 45.40625 35.40625 
Q 44.1875 33.984375 37.640625 27.21875 
Q 31.109375 20.453125 19.1875 8.296875 
z
" id="DejaVuSans-32"/>
      </defs>
      <g transform="translate(151.786454 174.342437)scale(0.1 -0.1)">
       <use xlink:href="#DejaVuSans-32"/>
       <use x="63.623047" xlink:href="#DejaVuSans-30"/>
       <use x="127.246094" xlink:href="#DejaVuSans-30"/>
      </g>
     </g>
    </g>
    <g id="xtick_4">
     <g id="line2d_7">
      <path clip-path="url(#pc6aa824a99)" d="M 209.588033 159.744 
L 209.588033 41.472 
" style="fill:none;stroke:#b0b0b0;stroke-linecap:square;stroke-width:0.8;"/>
     </g>
     <g id="line2d_8">
      <g>
       <use style="stroke:#000000;stroke-width:0.8;" x="209.588033" xlink:href="#m8a50bb1a85" y="159.744"/>
      </g>
     </g>
     <g id="text_4">
      <!-- 300 -->
      <defs>
       <path d="M 40.578125 39.3125 
Q 47.65625 37.796875 51.625 33 
Q 55.609375 28.21875 55.609375 21.1875 
Q 55.609375 10.40625 48.1875 4.484375 
Q 40.765625 -1.421875 27.09375 -1.421875 
Q 22.515625 -1.421875 17.65625 -0.515625 
Q 12.796875 0.390625 7.625 2.203125 
L 7.625 11.71875 
Q 11.71875 9.328125 16.59375 8.109375 
Q 21.484375 6.890625 26.8125 6.890625 
Q 36.078125 6.890625 40.9375 10.546875 
Q 45.796875 14.203125 45.796875 21.1875 
Q 45.796875 27.640625 41.28125 31.265625 
Q 36.765625 34.90625 28.71875 34.90625 
L 20.21875 34.90625 
L 20.21875 43.015625 
L 29.109375 43.015625 
Q 36.375 43.015625 40.234375 45.921875 
Q 44.09375 48.828125 44.09375 54.296875 
Q 44.09375 59.90625 40.109375 62.90625 
Q 36.140625 65.921875 28.71875 65.921875 
Q 24.65625 65.921875 20.015625 65.03125 
Q 15.375 64.15625 9.8125 62.3125 
L 9.8125 71.09375 
Q 15.4375 72.65625 20.34375 73.4375 
Q 25.25 74.21875 29.59375 74.21875 
Q 40.828125 74.21875 47.359375 69.109375 
Q 53.90625 64.015625 53.90625 55.328125 
Q 53.90625 49.265625 50.4375 45.09375 
Q 46.96875 40.921875 40.578125 39.3125 
z
" id="DejaVuSans-33"/>
      </defs>
      <g transform="translate(200.044283 174.342437)scale(0.1 -0.1)">
       <use xlink:href="#DejaVuSans-33"/>
       <use x="63.623047" xlink:href="#DejaVuSans-30"/>
       <use x="127.246094" xlink:href="#DejaVuSans-30"/>
      </g>
     </g>
    </g>
   </g>
   <g id="matplotlib.axis_2">
    <g id="ytick_1">
     <g id="line2d_9">
      <path clip-path="url(#pc6aa824a99)" d="M 57.6 154.505318 
L 216.32 154.505318 
" style="fill:none;stroke:#b0b0b0;stroke-linecap:square;stroke-width:0.8;"/>
     </g>
     <g id="line2d_10">
      <defs>
       <path d="M 0 0 
L -3.5 0 
" id="me21ffd70b2" style="stroke:#000000;stroke-width:0.8;"/>
      </defs>
      <g>
       <use style="stroke:#000000;stroke-width:0.8;" x="57.6" xlink:href="#me21ffd70b2" y="154.505318"/>
      </g>
     </g>
     <g id="text_5">
      <!-- 0.0 -->
      <defs>
       <path d="M 10.6875 12.40625 
L 21 12.40625 
L 21 0 
L 10.6875 0 
z
" id="DejaVuSans-2e"/>
      </defs>
      <g transform="translate(34.696875 158.304537)scale(0.1 -0.1)">
       <use xlink:href="#DejaVuSans-30"/>
       <use x="63.623047" xlink:href="#DejaVuSans-2e"/>
       <use x="95.410156" xlink:href="#DejaVuSans-30"/>
      </g>
     </g>
    </g>
    <g id="ytick_2">
     <g id="line2d_11">
      <path clip-path="url(#pc6aa824a99)" d="M 57.6 126.38259 
L 216.32 126.38259 
" style="fill:none;stroke:#b0b0b0;stroke-linecap:square;stroke-width:0.8;"/>
     </g>
     <g id="line2d_12">
      <g>
       <use style="stroke:#000000;stroke-width:0.8;" x="57.6" xlink:href="#me21ffd70b2" y="126.38259"/>
      </g>
     </g>
     <g id="text_6">
      <!-- 0.2 -->
      <g transform="translate(34.696875 130.181809)scale(0.1 -0.1)">
       <use xlink:href="#DejaVuSans-30"/>
       <use x="63.623047" xlink:href="#DejaVuSans-2e"/>
       <use x="95.410156" xlink:href="#DejaVuSans-32"/>
      </g>
     </g>
    </g>
    <g id="ytick_3">
     <g id="line2d_13">
      <path clip-path="url(#pc6aa824a99)" d="M 57.6 98.259863 
L 216.32 98.259863 
" style="fill:none;stroke:#b0b0b0;stroke-linecap:square;stroke-width:0.8;"/>
     </g>
     <g id="line2d_14">
      <g>
       <use style="stroke:#000000;stroke-width:0.8;" x="57.6" xlink:href="#me21ffd70b2" y="98.259863"/>
      </g>
     </g>
     <g id="text_7">
      <!-- 0.4 -->
      <defs>
       <path d="M 37.796875 64.3125 
L 12.890625 25.390625 
L 37.796875 25.390625 
z
M 35.203125 72.90625 
L 47.609375 72.90625 
L 47.609375 25.390625 
L 58.015625 25.390625 
L 58.015625 17.1875 
L 47.609375 17.1875 
L 47.609375 0 
L 37.796875 0 
L 37.796875 17.1875 
L 4.890625 17.1875 
L 4.890625 26.703125 
z
" id="DejaVuSans-34"/>
      </defs>
      <g transform="translate(34.696875 102.059082)scale(0.1 -0.1)">
       <use xlink:href="#DejaVuSans-30"/>
       <use x="63.623047" xlink:href="#DejaVuSans-2e"/>
       <use x="95.410156" xlink:href="#DejaVuSans-34"/>
      </g>
     </g>
    </g>
    <g id="ytick_4">
     <g id="line2d_15">
      <path clip-path="url(#pc6aa824a99)" d="M 57.6 70.137135 
L 216.32 70.137135 
" style="fill:none;stroke:#b0b0b0;stroke-linecap:square;stroke-width:0.8;"/>
     </g>
     <g id="line2d_16">
      <g>
       <use style="stroke:#000000;stroke-width:0.8;" x="57.6" xlink:href="#me21ffd70b2" y="70.137135"/>
      </g>
     </g>
     <g id="text_8">
      <!-- 0.6 -->
      <defs>
       <path d="M 33.015625 40.375 
Q 26.375 40.375 22.484375 35.828125 
Q 18.609375 31.296875 18.609375 23.390625 
Q 18.609375 15.53125 22.484375 10.953125 
Q 26.375 6.390625 33.015625 6.390625 
Q 39.65625 6.390625 43.53125 10.953125 
Q 47.40625 15.53125 47.40625 23.390625 
Q 47.40625 31.296875 43.53125 35.828125 
Q 39.65625 40.375 33.015625 40.375 
z
M 52.59375 71.296875 
L 52.59375 62.3125 
Q 48.875 64.0625 45.09375 64.984375 
Q 41.3125 65.921875 37.59375 65.921875 
Q 27.828125 65.921875 22.671875 59.328125 
Q 17.53125 52.734375 16.796875 39.40625 
Q 19.671875 43.65625 24.015625 45.921875 
Q 28.375 48.1875 33.59375 48.1875 
Q 44.578125 48.1875 50.953125 41.515625 
Q 57.328125 34.859375 57.328125 23.390625 
Q 57.328125 12.15625 50.6875 5.359375 
Q 44.046875 -1.421875 33.015625 -1.421875 
Q 20.359375 -1.421875 13.671875 8.265625 
Q 6.984375 17.96875 6.984375 36.375 
Q 6.984375 53.65625 15.1875 63.9375 
Q 23.390625 74.21875 37.203125 74.21875 
Q 40.921875 74.21875 44.703125 73.484375 
Q 48.484375 72.75 52.59375 71.296875 
z
" id="DejaVuSans-36"/>
      </defs>
      <g transform="translate(34.696875 73.936354)scale(0.1 -0.1)">
       <use xlink:href="#DejaVuSans-30"/>
       <use x="63.623047" xlink:href="#DejaVuSans-2e"/>
       <use x="95.410156" xlink:href="#DejaVuSans-36"/>
      </g>
     </g>
    </g>
    <g id="ytick_5">
     <g id="line2d_17">
      <path clip-path="url(#pc6aa824a99)" d="M 57.6 42.014408 
L 216.32 42.014408 
" style="fill:none;stroke:#b0b0b0;stroke-linecap:square;stroke-width:0.8;"/>
     </g>
     <g id="line2d_18">
      <g>
       <use style="stroke:#000000;stroke-width:0.8;" x="57.6" xlink:href="#me21ffd70b2" y="42.014408"/>
      </g>
     </g>
     <g id="text_9">
      <!-- 0.8 -->
      <defs>
       <path d="M 31.78125 34.625 
Q 24.75 34.625 20.71875 30.859375 
Q 16.703125 27.09375 16.703125 20.515625 
Q 16.703125 13.921875 20.71875 10.15625 
Q 24.75 6.390625 31.78125 6.390625 
Q 38.8125 6.390625 42.859375 10.171875 
Q 46.921875 13.96875 46.921875 20.515625 
Q 46.921875 27.09375 42.890625 30.859375 
Q 38.875 34.625 31.78125 34.625 
z
M 21.921875 38.8125 
Q 15.578125 40.375 12.03125 44.71875 
Q 8.5 49.078125 8.5 55.328125 
Q 8.5 64.0625 14.71875 69.140625 
Q 20.953125 74.21875 31.78125 74.21875 
Q 42.671875 74.21875 48.875 69.140625 
Q 55.078125 64.0625 55.078125 55.328125 
Q 55.078125 49.078125 51.53125 44.71875 
Q 48 40.375 41.703125 38.8125 
Q 48.828125 37.15625 52.796875 32.3125 
Q 56.78125 27.484375 56.78125 20.515625 
Q 56.78125 9.90625 50.3125 4.234375 
Q 43.84375 -1.421875 31.78125 -1.421875 
Q 19.734375 -1.421875 13.25 4.234375 
Q 6.78125 9.90625 6.78125 20.515625 
Q 6.78125 27.484375 10.78125 32.3125 
Q 14.796875 37.15625 21.921875 38.8125 
z
M 18.3125 54.390625 
Q 18.3125 48.734375 21.84375 45.5625 
Q 25.390625 42.390625 31.78125 42.390625 
Q 38.140625 42.390625 41.71875 45.5625 
Q 45.3125 48.734375 45.3125 54.390625 
Q 45.3125 60.0625 41.71875 63.234375 
Q 38.140625 66.40625 31.78125 66.40625 
Q 25.390625 66.40625 21.84375 63.234375 
Q 18.3125 60.0625 18.3125 54.390625 
z
" id="DejaVuSans-38"/>
      </defs>
      <g transform="translate(34.696875 45.813626)scale(0.1 -0.1)">
       <use xlink:href="#DejaVuSans-30"/>
       <use x="63.623047" xlink:href="#DejaVuSans-2e"/>
       <use x="95.410156" xlink:href="#DejaVuSans-38"/>
      </g>
     </g>
    </g>
   </g>
   <g id="line2d_19">
    <path clip-path="url(#pc6aa824a99)" d="M 64.814545 154.368 
L 65.297124 153.452547 
L 65.779702 152.811729 
L 66.26228 152.99482 
L 66.744859 152.170912 
L 67.227437 151.667413 
L 67.710015 151.484322 
L 68.192593 149.928051 
L 68.675172 149.699188 
L 69.640328 148.005599 
L 70.122907 147.319009 
L 71.088063 145.442329 
L 71.570642 145.533875 
L 72.05322 144.389558 
L 73.018376 143.474105 
L 73.983533 141.414335 
L 74.466111 141.093926 
L 74.94869 140.956608 
L 75.431268 141.277016 
L 76.396424 138.576429 
L 76.879003 138.118702 
L 77.844159 137.56943 
L 78.326738 136.88284 
L 78.809316 134.868843 
L 79.291894 135.189251 
L 79.774472 134.685752 
L 80.257051 133.037936 
L 80.739629 133.861844 
L 81.222207 133.037936 
L 81.704786 132.488664 
L 82.669942 129.604986 
L 83.152521 129.559213 
L 84.117677 128.918396 
L 84.600255 127.179034 
L 85.082834 126.950171 
L 85.565412 125.622763 
L 86.04799 127.133262 
L 86.530569 126.263581 
L 87.013147 124.203811 
L 87.978303 123.33413 
L 88.460882 123.929175 
L 88.94346 123.471448 
L 89.426038 121.411678 
L 89.908617 120.953951 
L 90.391195 120.816633 
L 90.873773 119.946952 
L 91.356351 117.978728 
L 91.83893 119.443453 
L 92.321508 119.306135 
L 92.804086 117.612546 
L 93.286665 117.887182 
L 93.769243 115.781639 
L 94.251821 116.742866 
L 94.7344 115.690094 
L 95.216978 114.133824 
L 95.699556 114.088051 
L 96.182134 113.264143 
L 96.664713 113.264143 
L 97.147291 112.669098 
L 98.112448 111.799417 
L 98.595026 111.112827 
L 99.077604 110.060056 
L 99.560182 109.739647 
L 100.042761 108.915739 
L 100.525339 109.144603 
L 101.007917 107.084832 
L 101.490496 107.542559 
L 101.973074 106.810196 
L 102.455652 107.634104 
L 102.93823 106.169379 
L 103.420809 106.169379 
L 103.903387 106.35247 
L 104.385965 105.345471 
L 104.868544 105.894743 
L 105.8337 103.423019 
L 106.316279 102.599111 
L 106.798857 103.194156 
L 107.281435 101.592112 
L 107.764013 101.500567 
L 108.246592 101.134385 
L 108.72917 101.180158 
L 109.211748 99.303479 
L 109.694327 98.937297 
L 110.176905 99.852751 
L 110.659483 97.518345 
L 111.142061 98.708434 
L 112.107218 97.060618 
L 112.589796 96.969073 
L 113.072375 96.740209 
L 113.554953 95.595892 
L 114.037531 95.092393 
L 114.520109 94.36003 
L 115.002688 94.817757 
L 115.485266 93.719213 
L 115.967844 94.085394 
L 116.450423 93.536123 
L 116.933001 92.666442 
L 117.415579 90.560899 
L 117.898157 91.567897 
L 118.863314 89.920082 
L 119.345892 91.064398 
L 119.828471 90.606672 
L 120.311049 91.61367 
L 120.793627 89.325037 
L 121.276206 91.61367 
L 121.758784 88.501129 
L 122.241362 87.768766 
L 122.72394 88.684219 
L 123.206519 87.082176 
L 123.689097 87.356812 
L 124.171675 87.082176 
L 124.654254 86.441359 
L 125.136832 86.349813 
L 125.61941 86.99063 
L 126.101988 86.624449 
L 126.584567 85.342815 
L 127.067145 86.212495 
L 127.549723 83.145727 
L 128.032302 84.198498 
L 128.997458 83.328817 
L 129.480036 84.335816 
L 129.962615 82.642227 
L 130.445193 81.818319 
L 130.927771 82.321818 
L 131.41035 82.047182 
L 131.892928 82.321818 
L 132.375506 82.459136 
L 133.823241 80.994411 
L 134.305819 81.223274 
L 134.788398 80.170503 
L 135.270976 81.177502 
L 136.236133 78.06496 
L 136.718711 79.255049 
L 137.201289 78.476914 
L 137.683867 78.75155 
L 138.166446 77.836096 
L 138.649024 79.163504 
L 139.131602 77.927642 
L 139.614181 76.325598 
L 140.096759 76.554461 
L 140.579337 75.3186 
L 141.061915 77.012189 
L 141.544494 75.50169 
L 142.027072 77.195279 
L 142.50965 75.135509 
L 142.992229 75.089737 
L 143.474807 74.357373 
L 143.957385 73.304603 
L 144.439964 73.167284 
L 144.922542 73.579238 
L 145.40512 73.625011 
L 145.887698 72.480694 
L 146.370277 73.213057 
L 146.852855 73.029966 
L 147.335433 73.213057 
L 148.30059 71.702559 
L 148.783168 69.413925 
L 149.265746 70.054743 
L 149.748325 71.88565 
L 150.230903 70.00897 
L 150.713481 70.192061 
L 151.19606 69.505471 
L 151.678638 69.185062 
L 152.161216 69.32238 
L 152.643794 70.420924 
L 153.126373 69.642789 
L 153.608951 67.857654 
L 154.091529 70.100515 
L 154.574108 68.315381 
L 155.056686 68.956199 
L 155.539264 66.942201 
L 156.021843 67.4457 
L 156.504421 67.308383 
L 156.986999 67.766109 
L 157.469577 66.026747 
L 157.952156 67.399928 
L 158.434734 67.125292 
L 158.917312 65.019749 
L 159.399891 65.569021 
L 159.882469 66.392929 
L 160.365047 66.301384 
L 160.847625 64.058523 
L 161.330204 64.928203 
L 161.812782 63.646569 
L 162.29536 63.692342 
L 162.777939 64.378932 
L 163.260517 64.653568 
L 164.225673 63.097297 
L 164.708252 64.195841 
L 165.19083 63.509251 
L 165.673408 63.417706 
L 166.155987 62.044525 
L 166.638565 63.188842 
L 167.603721 61.26639 
L 168.0863 61.815662 
L 168.568878 63.966978 
L 169.051456 61.220617 
L 170.016613 60.305164 
L 170.499191 60.945982 
L 171.464348 61.44948 
L 171.946926 60.305164 
L 172.429504 59.984756 
L 172.912083 59.435484 
L 173.394661 59.435484 
L 173.877239 57.879213 
L 174.359818 59.389711 
L 174.842396 59.572801 
L 175.324974 58.657348 
L 175.807552 58.291167 
L 176.290131 58.611575 
L 176.772709 57.970758 
L 177.255287 57.924985 
L 177.737866 56.872214 
L 178.703022 58.108076 
L 179.1856 56.872214 
L 179.668179 58.153848 
L 180.150757 56.689123 
L 180.633335 57.192622 
L 181.115914 55.636352 
L 181.598492 57.970758 
L 182.563649 56.002533 
L 183.046227 56.094079 
L 183.528805 56.002534 
L 184.011383 55.77367 
L 184.493962 55.361716 
L 184.97654 55.27017 
L 185.459118 54.949762 
L 185.941697 54.766671 
L 186.424275 54.949762 
L 186.906853 53.851218 
L 187.389431 54.949762 
L 187.87201 54.949762 
L 188.354588 54.537808 
L 188.837166 54.492035 
L 189.319745 54.308945 
L 189.802323 54.263172 
L 190.284901 53.988536 
L 190.767479 54.217399 
L 191.250058 53.805446 
L 191.732636 52.706901 
L 192.215214 53.805445 
L 193.180371 52.432265 
L 193.662949 53.851218 
L 194.145528 53.256173 
L 194.628106 53.988536 
L 195.110684 52.294947 
L 195.593262 52.294947 
L 196.075841 51.104858 
L 196.558419 52.752674 
L 197.040997 51.104857 
L 197.523576 51.699902 
L 198.006154 51.791448 
L 198.488732 50.28095 
L 198.97131 51.287948 
L 199.453889 52.798446 
L 200.419045 50.830222 
L 200.901624 50.875995 
L 201.384202 50.601359 
L 201.86678 50.555585 
L 202.349358 49.914769 
L 202.831937 50.326722 
L 203.314515 51.15063 
L 203.797093 49.228179 
L 204.279672 49.731678 
L 205.244828 50.189405 
L 205.727407 49.090861 
L 206.209985 47.305726 
L 206.692563 50.738676 
L 207.175141 50.235177 
L 207.65772 46.848 
L 208.140298 49.502814 
L 208.622876 48.678907 
L 209.105455 48.90777 
L 209.105455 48.90777 
" style="fill:none;stroke:#1f77b4;stroke-linecap:square;stroke-width:1.5;"/>
   </g>
   <g id="patch_3">
    <path d="M 57.6 159.744 
L 57.6 41.472 
" style="fill:none;stroke:#000000;stroke-linecap:square;stroke-linejoin:miter;stroke-width:0.8;"/>
   </g>
   <g id="patch_4">
    <path d="M 216.32 159.744 
L 216.32 41.472 
" style="fill:none;stroke:#000000;stroke-linecap:square;stroke-linejoin:miter;stroke-width:0.8;"/>
   </g>
   <g id="patch_5">
    <path d="M 57.6 159.744 
L 216.32 159.744 
" style="fill:none;stroke:#000000;stroke-linecap:square;stroke-linejoin:miter;stroke-width:0.8;"/>
   </g>
   <g id="patch_6">
    <path d="M 57.6 41.472 
L 216.32 41.472 
" style="fill:none;stroke:#000000;stroke-linecap:square;stroke-linejoin:miter;stroke-width:0.8;"/>
   </g>
   <g id="text_10">
    <!-- acc -->
    <defs>
     <path d="M 34.28125 27.484375 
Q 23.390625 27.484375 19.1875 25 
Q 14.984375 22.515625 14.984375 16.5 
Q 14.984375 11.71875 18.140625 8.90625 
Q 21.296875 6.109375 26.703125 6.109375 
Q 34.1875 6.109375 38.703125 11.40625 
Q 43.21875 16.703125 43.21875 25.484375 
L 43.21875 27.484375 
z
M 52.203125 31.203125 
L 52.203125 0 
L 43.21875 0 
L 43.21875 8.296875 
Q 40.140625 3.328125 35.546875 0.953125 
Q 30.953125 -1.421875 24.3125 -1.421875 
Q 15.921875 -1.421875 10.953125 3.296875 
Q 6 8.015625 6 15.921875 
Q 6 25.140625 12.171875 29.828125 
Q 18.359375 34.515625 30.609375 34.515625 
L 43.21875 34.515625 
L 43.21875 35.40625 
Q 43.21875 41.609375 39.140625 45 
Q 35.0625 48.390625 27.6875 48.390625 
Q 23 48.390625 18.546875 47.265625 
Q 14.109375 46.140625 10.015625 43.890625 
L 10.015625 52.203125 
Q 14.9375 54.109375 19.578125 55.046875 
Q 24.21875 56 28.609375 56 
Q 40.484375 56 46.34375 49.84375 
Q 52.203125 43.703125 52.203125 31.203125 
z
" id="DejaVuSans-61"/>
     <path d="M 48.78125 52.59375 
L 48.78125 44.1875 
Q 44.96875 46.296875 41.140625 47.34375 
Q 37.3125 48.390625 33.40625 48.390625 
Q 24.65625 48.390625 19.8125 42.84375 
Q 14.984375 37.3125 14.984375 27.296875 
Q 14.984375 17.28125 19.8125 11.734375 
Q 24.65625 6.203125 33.40625 6.203125 
Q 37.3125 6.203125 41.140625 7.25 
Q 44.96875 8.296875 48.78125 10.40625 
L 48.78125 2.09375 
Q 45.015625 0.34375 40.984375 -0.53125 
Q 36.96875 -1.421875 32.421875 -1.421875 
Q 20.0625 -1.421875 12.78125 6.34375 
Q 5.515625 14.109375 5.515625 27.296875 
Q 5.515625 40.671875 12.859375 48.328125 
Q 20.21875 56 33.015625 56 
Q 37.15625 56 41.109375 55.140625 
Q 45.0625 54.296875 48.78125 52.59375 
z
" id="DejaVuSans-63"/>
    </defs>
    <g transform="translate(126.685 35.472)scale(0.12 -0.12)">
     <use xlink:href="#DejaVuSans-61"/>
     <use x="61.279297" xlink:href="#DejaVuSans-63"/>
     <use x="116.259766" xlink:href="#DejaVuSans-63"/>
    </g>
   </g>
  </g>
  <g id="axes_2">
   <g id="patch_7">
    <path d="M 256 159.744 
L 414.72 159.744 
L 414.72 41.472 
L 256 41.472 
z
" style="fill:#ffffff;"/>
   </g>
   <g id="matplotlib.axis_3">
    <g id="xtick_5">
     <g id="line2d_20">
      <path clip-path="url(#p82e3457ff3)" d="M 263.214545 159.744 
L 263.214545 41.472 
" style="fill:none;stroke:#b0b0b0;stroke-linecap:square;stroke-width:0.8;"/>
     </g>
     <g id="line2d_21">
      <g>
       <use style="stroke:#000000;stroke-width:0.8;" x="263.214545" xlink:href="#m8a50bb1a85" y="159.744"/>
      </g>
     </g>
     <g id="text_11">
      <!-- 0 -->
      <g transform="translate(260.033295 174.342437)scale(0.1 -0.1)">
       <use xlink:href="#DejaVuSans-30"/>
      </g>
     </g>
    </g>
    <g id="xtick_6">
     <g id="line2d_22">
      <path clip-path="url(#p82e3457ff3)" d="M 311.472375 159.744 
L 311.472375 41.472 
" style="fill:none;stroke:#b0b0b0;stroke-linecap:square;stroke-width:0.8;"/>
     </g>
     <g id="line2d_23">
      <g>
       <use style="stroke:#000000;stroke-width:0.8;" x="311.472375" xlink:href="#m8a50bb1a85" y="159.744"/>
      </g>
     </g>
     <g id="text_12">
      <!-- 100 -->
      <g transform="translate(301.928625 174.342437)scale(0.1 -0.1)">
       <use xlink:href="#DejaVuSans-31"/>
       <use x="63.623047" xlink:href="#DejaVuSans-30"/>
       <use x="127.246094" xlink:href="#DejaVuSans-30"/>
      </g>
     </g>
    </g>
    <g id="xtick_7">
     <g id="line2d_24">
      <path clip-path="url(#p82e3457ff3)" d="M 359.730204 159.744 
L 359.730204 41.472 
" style="fill:none;stroke:#b0b0b0;stroke-linecap:square;stroke-width:0.8;"/>
     </g>
     <g id="line2d_25">
      <g>
       <use style="stroke:#000000;stroke-width:0.8;" x="359.730204" xlink:href="#m8a50bb1a85" y="159.744"/>
      </g>
     </g>
     <g id="text_13">
      <!-- 200 -->
      <g transform="translate(350.186454 174.342437)scale(0.1 -0.1)">
       <use xlink:href="#DejaVuSans-32"/>
       <use x="63.623047" xlink:href="#DejaVuSans-30"/>
       <use x="127.246094" xlink:href="#DejaVuSans-30"/>
      </g>
     </g>
    </g>
    <g id="xtick_8">
     <g id="line2d_26">
      <path clip-path="url(#p82e3457ff3)" d="M 407.988033 159.744 
L 407.988033 41.472 
" style="fill:none;stroke:#b0b0b0;stroke-linecap:square;stroke-width:0.8;"/>
     </g>
     <g id="line2d_27">
      <g>
       <use style="stroke:#000000;stroke-width:0.8;" x="407.988033" xlink:href="#m8a50bb1a85" y="159.744"/>
      </g>
     </g>
     <g id="text_14">
      <!-- 300 -->
      <g transform="translate(398.444283 174.342437)scale(0.1 -0.1)">
       <use xlink:href="#DejaVuSans-33"/>
       <use x="63.623047" xlink:href="#DejaVuSans-30"/>
       <use x="127.246094" xlink:href="#DejaVuSans-30"/>
      </g>
     </g>
    </g>
   </g>
   <g id="matplotlib.axis_4">
    <g id="ytick_6">
     <g id="line2d_28">
      <path clip-path="url(#p82e3457ff3)" d="M 256 127.247619 
L 414.72 127.247619 
" style="fill:none;stroke:#b0b0b0;stroke-linecap:square;stroke-width:0.8;"/>
     </g>
     <g id="line2d_29">
      <g>
       <use style="stroke:#000000;stroke-width:0.8;" x="256" xlink:href="#me21ffd70b2" y="127.247619"/>
      </g>
     </g>
     <g id="text_15">
      <!-- 2 -->
      <g transform="translate(242.6375 131.046838)scale(0.1 -0.1)">
       <use xlink:href="#DejaVuSans-32"/>
      </g>
     </g>
    </g>
    <g id="ytick_7">
     <g id="line2d_30">
      <path clip-path="url(#p82e3457ff3)" d="M 256 81.94192 
L 414.72 81.94192 
" style="fill:none;stroke:#b0b0b0;stroke-linecap:square;stroke-width:0.8;"/>
     </g>
     <g id="line2d_31">
      <g>
       <use style="stroke:#000000;stroke-width:0.8;" x="256" xlink:href="#me21ffd70b2" y="81.94192"/>
      </g>
     </g>
     <g id="text_16">
      <!-- 4 -->
      <g transform="translate(242.6375 85.741139)scale(0.1 -0.1)">
       <use xlink:href="#DejaVuSans-34"/>
      </g>
     </g>
    </g>
   </g>
   <g id="line2d_32">
    <path clip-path="url(#p82e3457ff3)" d="M 263.214545 46.848 
L 263.697124 47.186576 
L 264.179702 49.311784 
L 265.627437 62.492537 
L 266.592593 67.140054 
L 269.970642 78.2225 
L 270.45322 79.385913 
L 270.935798 81.030323 
L 271.418376 81.650149 
L 271.900955 83.009196 
L 273.34869 85.775275 
L 273.831268 86.480109 
L 274.313846 87.608509 
L 274.796424 88.226705 
L 275.279003 89.358794 
L 275.761581 89.729105 
L 276.244159 90.334005 
L 277.209316 92.221912 
L 278.657051 94.001169 
L 279.139629 94.799926 
L 279.622207 95.250296 
L 280.104786 96.103871 
L 280.587364 96.547074 
L 281.552521 98.065687 
L 283.000255 99.945984 
L 283.482834 100.762427 
L 284.44799 101.769469 
L 285.895725 103.642801 
L 286.378303 103.923216 
L 286.860882 104.690919 
L 287.34346 105.15823 
L 287.826038 105.982921 
L 288.308617 106.345484 
L 288.791195 107.159475 
L 289.273773 107.501512 
L 289.756351 108.075687 
L 290.23893 108.380847 
L 291.204086 109.516806 
L 291.686665 110.340523 
L 292.169243 110.678037 
L 292.651821 111.367907 
L 293.1344 111.472092 
L 293.616978 112.146409 
L 294.099556 112.458459 
L 294.582134 113.243626 
L 295.064713 113.407794 
L 295.547291 114.139945 
L 296.512448 114.814261 
L 300.373074 118.16962 
L 301.820809 119.193186 
L 302.303387 119.898113 
L 302.785965 120.182389 
L 303.268544 120.076798 
L 303.751122 120.746173 
L 304.716279 121.251332 
L 305.198857 121.748852 
L 305.681435 121.848476 
L 306.164013 122.386985 
L 306.646592 122.680693 
L 307.12917 123.229636 
L 307.611748 123.510671 
L 308.094327 123.48369 
L 308.576905 124.204998 
L 309.059483 124.350036 
L 309.542061 124.677399 
L 310.02464 124.723182 
L 310.507218 125.571502 
L 310.989796 125.522768 
L 311.472375 125.695356 
L 311.954953 126.340285 
L 313.885266 127.315049 
L 314.367844 127.727621 
L 314.850423 127.704232 
L 315.333001 127.973937 
L 315.815579 128.666228 
L 316.298157 128.297899 
L 316.780736 129.001352 
L 317.263314 128.923083 
L 318.228471 129.681606 
L 318.711049 129.861296 
L 319.193627 130.18148 
L 319.676206 130.183235 
L 320.158784 130.400085 
L 320.641362 130.843309 
L 321.12394 130.969079 
L 321.606519 131.540167 
L 322.089097 131.537158 
L 323.054254 132.016169 
L 323.536832 132.310679 
L 324.01941 132.332723 
L 324.501988 132.510909 
L 324.984567 132.994434 
L 325.467145 132.839607 
L 325.949723 133.332368 
L 326.432302 133.38034 
L 326.91488 133.680132 
L 327.397458 134.264795 
L 327.880036 134.129554 
L 328.362615 134.20253 
L 328.845193 134.56387 
L 329.81035 134.751946 
L 330.292928 135.294094 
L 330.775506 135.196947 
L 331.258085 135.626043 
L 331.740663 135.717176 
L 332.223241 135.668332 
L 332.705819 136.139762 
L 333.188398 136.017528 
L 333.670976 136.403084 
L 334.153554 136.399187 
L 334.636133 136.941285 
L 335.118711 136.860451 
L 335.601289 137.245185 
L 336.083867 137.209928 
L 336.566446 137.77494 
L 337.049024 137.60367 
L 337.531602 137.986018 
L 338.979337 138.678316 
L 339.461915 138.643231 
L 339.944494 138.784689 
L 340.427072 138.760297 
L 341.392229 139.708708 
L 341.874807 139.454066 
L 343.322542 140.261169 
L 344.287698 140.243089 
L 344.770277 140.65744 
L 345.252855 140.505722 
L 345.735433 140.976575 
L 346.70059 141.094849 
L 347.183168 141.588836 
L 347.665746 141.413481 
L 348.148325 141.486545 
L 349.113481 141.983369 
L 350.078638 142.293842 
L 350.561216 142.176449 
L 351.043794 142.599033 
L 351.526373 142.539744 
L 352.491529 142.97814 
L 354.421843 143.707394 
L 354.904421 143.566328 
L 356.352156 143.921509 
L 356.834734 144.506921 
L 357.317312 144.471936 
L 357.799891 144.688939 
L 358.765047 144.744775 
L 359.247625 145.049635 
L 359.730204 144.93057 
L 360.212782 145.583053 
L 360.69536 145.288578 
L 361.177939 145.446761 
L 361.660517 145.443225 
L 362.143095 146.141083 
L 363.108252 146.025251 
L 363.59083 146.346335 
L 365.521143 146.582534 
L 366.003721 146.718789 
L 366.4863 146.724722 
L 366.968878 146.854278 
L 367.451456 147.261124 
L 367.934035 147.150521 
L 368.416613 147.496778 
L 368.899191 147.686249 
L 369.38177 147.075043 
L 369.864348 147.665394 
L 370.346926 147.71045 
L 370.829504 148.201968 
L 371.312083 147.742235 
L 372.277239 148.36984 
L 372.759818 148.41077 
L 373.242396 148.181654 
L 374.207552 148.682696 
L 374.690131 148.983313 
L 375.172709 148.765732 
L 377.103022 149.427553 
L 377.5856 149.385374 
L 378.068179 149.631595 
L 379.033335 149.526053 
L 380.48107 149.905381 
L 380.963649 150.123865 
L 381.446227 150.119791 
L 381.928805 150.297123 
L 382.411383 150.1393 
L 382.893962 150.648303 
L 383.859118 150.72145 
L 384.341697 151.048042 
L 384.824275 150.621136 
L 385.306853 151.048332 
L 385.789431 151.248976 
L 386.27201 151.127887 
L 386.754588 151.143476 
L 387.237166 151.011639 
L 388.202323 151.488334 
L 388.684901 151.638861 
L 389.167479 151.528416 
L 389.650058 151.593225 
L 390.132636 151.872769 
L 390.615214 151.806229 
L 391.097793 151.960599 
L 391.580371 151.823949 
L 392.062949 152.036591 
L 392.545528 151.882946 
L 393.028106 152.184512 
L 393.510684 152.071931 
L 393.993262 152.489352 
L 394.475841 152.549201 
L 394.958419 152.35805 
L 395.440997 152.760574 
L 395.923576 152.452203 
L 396.888732 152.838833 
L 397.853889 152.834734 
L 398.336467 153.145688 
L 398.819045 153.060942 
L 399.301624 153.361164 
L 399.784202 153.277851 
L 400.749358 153.550051 
L 401.231937 153.269813 
L 401.714515 153.326328 
L 402.197093 154.004244 
L 402.679672 153.540701 
L 403.16225 153.87792 
L 404.127407 153.891818 
L 404.609985 153.873644 
L 405.092563 154.091617 
L 405.575141 154.026866 
L 406.05772 154.309094 
L 406.540298 154.368 
L 407.022876 154.254835 
L 407.505455 154.302213 
L 407.505455 154.302213 
" style="fill:none;stroke:#1f77b4;stroke-linecap:square;stroke-width:1.5;"/>
   </g>
   <g id="patch_8">
    <path d="M 256 159.744 
L 256 41.472 
" style="fill:none;stroke:#000000;stroke-linecap:square;stroke-linejoin:miter;stroke-width:0.8;"/>
   </g>
   <g id="patch_9">
    <path d="M 414.72 159.744 
L 414.72 41.472 
" style="fill:none;stroke:#000000;stroke-linecap:square;stroke-linejoin:miter;stroke-width:0.8;"/>
   </g>
   <g id="patch_10">
    <path d="M 256 159.744 
L 414.72 159.744 
" style="fill:none;stroke:#000000;stroke-linecap:square;stroke-linejoin:miter;stroke-width:0.8;"/>
   </g>
   <g id="patch_11">
    <path d="M 256 41.472 
L 414.72 41.472 
" style="fill:none;stroke:#000000;stroke-linecap:square;stroke-linejoin:miter;stroke-width:0.8;"/>
   </g>
   <g id="text_17">
    <!-- loss -->
    <defs>
     <path d="M 9.421875 75.984375 
L 18.40625 75.984375 
L 18.40625 0 
L 9.421875 0 
z
" id="DejaVuSans-6c"/>
     <path d="M 30.609375 48.390625 
Q 23.390625 48.390625 19.1875 42.75 
Q 14.984375 37.109375 14.984375 27.296875 
Q 14.984375 17.484375 19.15625 11.84375 
Q 23.34375 6.203125 30.609375 6.203125 
Q 37.796875 6.203125 41.984375 11.859375 
Q 46.1875 17.53125 46.1875 27.296875 
Q 46.1875 37.015625 41.984375 42.703125 
Q 37.796875 48.390625 30.609375 48.390625 
z
M 30.609375 56 
Q 42.328125 56 49.015625 48.375 
Q 55.71875 40.765625 55.71875 27.296875 
Q 55.71875 13.875 49.015625 6.21875 
Q 42.328125 -1.421875 30.609375 -1.421875 
Q 18.84375 -1.421875 12.171875 6.21875 
Q 5.515625 13.875 5.515625 27.296875 
Q 5.515625 40.765625 12.171875 48.375 
Q 18.84375 56 30.609375 56 
z
" id="DejaVuSans-6f"/>
     <path d="M 44.28125 53.078125 
L 44.28125 44.578125 
Q 40.484375 46.53125 36.375 47.5 
Q 32.28125 48.484375 27.875 48.484375 
Q 21.1875 48.484375 17.84375 46.4375 
Q 14.5 44.390625 14.5 40.28125 
Q 14.5 37.15625 16.890625 35.375 
Q 19.28125 33.59375 26.515625 31.984375 
L 29.59375 31.296875 
Q 39.15625 29.25 43.1875 25.515625 
Q 47.21875 21.78125 47.21875 15.09375 
Q 47.21875 7.46875 41.1875 3.015625 
Q 35.15625 -1.421875 24.609375 -1.421875 
Q 20.21875 -1.421875 15.453125 -0.5625 
Q 10.6875 0.296875 5.421875 2 
L 5.421875 11.28125 
Q 10.40625 8.6875 15.234375 7.390625 
Q 20.0625 6.109375 24.8125 6.109375 
Q 31.15625 6.109375 34.5625 8.28125 
Q 37.984375 10.453125 37.984375 14.40625 
Q 37.984375 18.0625 35.515625 20.015625 
Q 33.0625 21.96875 24.703125 23.78125 
L 21.578125 24.515625 
Q 13.234375 26.265625 9.515625 29.90625 
Q 5.8125 33.546875 5.8125 39.890625 
Q 5.8125 47.609375 11.28125 51.796875 
Q 16.75 56 26.8125 56 
Q 31.78125 56 36.171875 55.265625 
Q 40.578125 54.546875 44.28125 53.078125 
z
" id="DejaVuSans-73"/>
    </defs>
    <g transform="translate(323.770625 35.472)scale(0.12 -0.12)">
     <use xlink:href="#DejaVuSans-6c"/>
     <use x="27.783203" xlink:href="#DejaVuSans-6f"/>
     <use x="88.964844" xlink:href="#DejaVuSans-73"/>
     <use x="141.064453" xlink:href="#DejaVuSans-73"/>
    </g>
   </g>
  </g>
  <g id="axes_3">
   <g id="patch_12">
    <path d="M 57.6 307.584 
L 216.32 307.584 
L 216.32 189.312 
L 57.6 189.312 
z
" style="fill:#ffffff;"/>
   </g>
   <g id="matplotlib.axis_5">
    <g id="xtick_9">
     <g id="line2d_33">
      <path clip-path="url(#p646a472f52)" d="M 64.814545 307.584 
L 64.814545 189.312 
" style="fill:none;stroke:#b0b0b0;stroke-linecap:square;stroke-width:0.8;"/>
     </g>
     <g id="line2d_34">
      <g>
       <use style="stroke:#000000;stroke-width:0.8;" x="64.814545" xlink:href="#m8a50bb1a85" y="307.584"/>
      </g>
     </g>
     <g id="text_18">
      <!-- 0 -->
      <g transform="translate(61.633295 322.182437)scale(0.1 -0.1)">
       <use xlink:href="#DejaVuSans-30"/>
      </g>
     </g>
    </g>
    <g id="xtick_10">
     <g id="line2d_35">
      <path clip-path="url(#p646a472f52)" d="M 113.072375 307.584 
L 113.072375 189.312 
" style="fill:none;stroke:#b0b0b0;stroke-linecap:square;stroke-width:0.8;"/>
     </g>
     <g id="line2d_36">
      <g>
       <use style="stroke:#000000;stroke-width:0.8;" x="113.072375" xlink:href="#m8a50bb1a85" y="307.584"/>
      </g>
     </g>
     <g id="text_19">
      <!-- 100 -->
      <g transform="translate(103.528625 322.182437)scale(0.1 -0.1)">
       <use xlink:href="#DejaVuSans-31"/>
       <use x="63.623047" xlink:href="#DejaVuSans-30"/>
       <use x="127.246094" xlink:href="#DejaVuSans-30"/>
      </g>
     </g>
    </g>
    <g id="xtick_11">
     <g id="line2d_37">
      <path clip-path="url(#p646a472f52)" d="M 161.330204 307.584 
L 161.330204 189.312 
" style="fill:none;stroke:#b0b0b0;stroke-linecap:square;stroke-width:0.8;"/>
     </g>
     <g id="line2d_38">
      <g>
       <use style="stroke:#000000;stroke-width:0.8;" x="161.330204" xlink:href="#m8a50bb1a85" y="307.584"/>
      </g>
     </g>
     <g id="text_20">
      <!-- 200 -->
      <g transform="translate(151.786454 322.182437)scale(0.1 -0.1)">
       <use xlink:href="#DejaVuSans-32"/>
       <use x="63.623047" xlink:href="#DejaVuSans-30"/>
       <use x="127.246094" xlink:href="#DejaVuSans-30"/>
      </g>
     </g>
    </g>
    <g id="xtick_12">
     <g id="line2d_39">
      <path clip-path="url(#p646a472f52)" d="M 209.588033 307.584 
L 209.588033 189.312 
" style="fill:none;stroke:#b0b0b0;stroke-linecap:square;stroke-width:0.8;"/>
     </g>
     <g id="line2d_40">
      <g>
       <use style="stroke:#000000;stroke-width:0.8;" x="209.588033" xlink:href="#m8a50bb1a85" y="307.584"/>
      </g>
     </g>
     <g id="text_21">
      <!-- 300 -->
      <g transform="translate(200.044283 322.182437)scale(0.1 -0.1)">
       <use xlink:href="#DejaVuSans-33"/>
       <use x="63.623047" xlink:href="#DejaVuSans-30"/>
       <use x="127.246094" xlink:href="#DejaVuSans-30"/>
      </g>
     </g>
    </g>
   </g>
   <g id="matplotlib.axis_6">
    <g id="ytick_8">
     <g id="line2d_41">
      <path clip-path="url(#p646a472f52)" d="M 57.6 304.020135 
L 216.32 304.020135 
" style="fill:none;stroke:#b0b0b0;stroke-linecap:square;stroke-width:0.8;"/>
     </g>
     <g id="line2d_42">
      <g>
       <use style="stroke:#000000;stroke-width:0.8;" x="57.6" xlink:href="#me21ffd70b2" y="304.020135"/>
      </g>
     </g>
     <g id="text_22">
      <!-- 0.0 -->
      <g transform="translate(34.696875 307.819354)scale(0.1 -0.1)">
       <use xlink:href="#DejaVuSans-30"/>
       <use x="63.623047" xlink:href="#DejaVuSans-2e"/>
       <use x="95.410156" xlink:href="#DejaVuSans-30"/>
      </g>
     </g>
    </g>
    <g id="ytick_9">
     <g id="line2d_43">
      <path clip-path="url(#p646a472f52)" d="M 57.6 273.093034 
L 216.32 273.093034 
" style="fill:none;stroke:#b0b0b0;stroke-linecap:square;stroke-width:0.8;"/>
     </g>
     <g id="line2d_44">
      <g>
       <use style="stroke:#000000;stroke-width:0.8;" x="57.6" xlink:href="#me21ffd70b2" y="273.093034"/>
      </g>
     </g>
     <g id="text_23">
      <!-- 0.2 -->
      <g transform="translate(34.696875 276.892253)scale(0.1 -0.1)">
       <use xlink:href="#DejaVuSans-30"/>
       <use x="63.623047" xlink:href="#DejaVuSans-2e"/>
       <use x="95.410156" xlink:href="#DejaVuSans-32"/>
      </g>
     </g>
    </g>
    <g id="ytick_10">
     <g id="line2d_45">
      <path clip-path="url(#p646a472f52)" d="M 57.6 242.165933 
L 216.32 242.165933 
" style="fill:none;stroke:#b0b0b0;stroke-linecap:square;stroke-width:0.8;"/>
     </g>
     <g id="line2d_46">
      <g>
       <use style="stroke:#000000;stroke-width:0.8;" x="57.6" xlink:href="#me21ffd70b2" y="242.165933"/>
      </g>
     </g>
     <g id="text_24">
      <!-- 0.4 -->
      <g transform="translate(34.696875 245.965152)scale(0.1 -0.1)">
       <use xlink:href="#DejaVuSans-30"/>
       <use x="63.623047" xlink:href="#DejaVuSans-2e"/>
       <use x="95.410156" xlink:href="#DejaVuSans-34"/>
      </g>
     </g>
    </g>
    <g id="ytick_11">
     <g id="line2d_47">
      <path clip-path="url(#p646a472f52)" d="M 57.6 211.238833 
L 216.32 211.238833 
" style="fill:none;stroke:#b0b0b0;stroke-linecap:square;stroke-width:0.8;"/>
     </g>
     <g id="line2d_48">
      <g>
       <use style="stroke:#000000;stroke-width:0.8;" x="57.6" xlink:href="#me21ffd70b2" y="211.238833"/>
      </g>
     </g>
     <g id="text_25">
      <!-- 0.6 -->
      <g transform="translate(34.696875 215.038051)scale(0.1 -0.1)">
       <use xlink:href="#DejaVuSans-30"/>
       <use x="63.623047" xlink:href="#DejaVuSans-2e"/>
       <use x="95.410156" xlink:href="#DejaVuSans-36"/>
      </g>
     </g>
    </g>
   </g>
   <g id="line2d_49">
    <path clip-path="url(#p646a472f52)" d="M 64.814545 302.208 
L 66.26228 302.208 
L 66.744859 300.395865 
L 67.227437 297.37564 
L 67.710015 297.979685 
L 68.192593 299.187775 
L 69.15775 294.355416 
L 69.640328 291.335191 
L 70.122907 293.751371 
L 70.605485 294.959461 
L 71.088063 290.731146 
L 71.570642 292.543281 
L 72.05322 290.731146 
L 72.535798 291.335191 
L 73.018376 290.127101 
L 73.500955 290.127101 
L 73.983533 291.939236 
L 74.466111 286.502831 
L 74.94869 287.710921 
L 75.431268 287.106876 
L 75.913846 287.710921 
L 76.396424 282.274517 
L 76.879003 285.898786 
L 77.361581 282.878562 
L 78.326738 284.086652 
L 78.809316 282.274516 
L 79.291894 284.086652 
L 79.774472 283.482606 
L 80.257051 283.482607 
L 80.739629 279.858337 
L 81.222207 279.858337 
L 81.704786 281.066427 
L 82.187364 279.858337 
L 82.669942 274.421932 
L 83.152521 278.046202 
L 83.635099 275.630022 
L 84.117677 278.650247 
L 84.600255 276.838112 
L 85.082834 272.005752 
L 85.565412 275.025977 
L 86.04799 275.025977 
L 86.530569 268.985528 
L 87.013147 272.005753 
L 87.495725 270.193618 
L 87.978303 271.401707 
L 88.460882 274.421932 
L 88.94346 271.401707 
L 89.426038 265.361258 
L 89.908617 270.797663 
L 90.391195 267.173393 
L 90.873773 267.173393 
L 91.356351 268.985528 
L 91.83893 264.153168 
L 92.321508 266.569348 
L 92.804086 260.528899 
L 93.286665 261.736988 
L 93.769243 265.361258 
L 94.251821 262.341033 
L 94.7344 260.528899 
L 95.216978 262.341033 
L 95.699556 261.736989 
L 96.182134 261.736989 
L 96.664713 265.361258 
L 97.147291 260.528899 
L 97.629869 250.86418 
L 98.112448 259.924853 
L 98.595026 262.945078 
L 99.077604 254.488449 
L 99.560182 251.468224 
L 100.042761 257.508674 
L 101.007917 250.864179 
L 101.490496 261.736989 
L 101.973074 253.884404 
L 102.93823 247.239909 
L 103.420809 251.468224 
L 103.903387 252.676314 
L 104.385965 249.65609 
L 104.868544 252.676314 
L 105.351122 257.508673 
L 106.316279 244.219685 
L 106.798857 249.052045 
L 107.281435 250.260134 
L 107.764013 248.448 
L 108.246592 249.052045 
L 108.72917 250.260134 
L 109.211748 244.219685 
L 109.694327 245.427775 
L 110.176905 244.219685 
L 110.659483 252.676314 
L 111.142061 247.843954 
L 112.107218 239.991371 
L 112.589796 246.635865 
L 113.072375 238.179236 
L 113.554953 243.61564 
L 114.037531 244.219685 
L 114.520109 242.407551 
L 115.002688 242.407551 
L 115.485266 239.387326 
L 115.967844 241.803505 
L 116.450423 240.595416 
L 116.933001 233.346877 
L 117.415579 238.179235 
L 117.898157 249.052044 
L 118.380736 237.575191 
L 118.863314 249.656089 
L 119.345892 235.763055 
L 119.828471 239.387326 
L 120.311049 239.991371 
L 120.793627 232.138787 
L 121.276206 238.179236 
L 121.758784 238.179235 
L 122.241362 241.803506 
L 122.72394 236.971146 
L 123.206519 237.575191 
L 124.171675 229.118561 
L 124.654254 229.722607 
L 125.136832 235.763056 
L 125.61941 230.930697 
L 126.101988 230.930696 
L 126.584567 232.138787 
L 127.067145 226.098337 
L 127.549723 237.575191 
L 128.032302 232.138786 
L 128.51488 235.159011 
L 128.997458 230.930697 
L 129.480036 230.930697 
L 129.962615 227.910471 
L 130.445193 222.474068 
L 130.927771 234.554966 
L 131.41035 226.702382 
L 131.892928 239.991371 
L 132.375506 235.15901 
L 132.858085 234.554966 
L 133.340663 223.682157 
L 133.823241 228.514517 
L 134.305819 229.118562 
L 134.788398 239.991371 
L 135.270976 226.702382 
L 135.753554 218.245752 
L 136.236133 221.265976 
L 136.718711 225.494292 
L 137.201289 233.346877 
L 137.683867 221.265977 
L 138.166446 231.534742 
L 138.649024 218.245753 
L 139.131602 227.306426 
L 139.614181 224.286202 
L 140.096759 226.702383 
L 140.579337 221.870023 
L 141.061915 220.057887 
L 141.544494 228.514517 
L 142.027072 221.870022 
L 142.50965 217.641707 
L 143.474807 220.057887 
L 143.957385 220.057887 
L 144.439964 220.661933 
L 144.922542 220.661932 
L 145.40512 220.057888 
L 145.887698 221.870022 
L 146.370277 221.870022 
L 146.852855 214.621484 
L 147.335433 219.453843 
L 147.818012 227.306426 
L 148.30059 224.286202 
L 148.783168 227.306427 
L 149.265746 215.829573 
L 149.748325 222.474067 
L 150.230903 218.849797 
L 150.713481 216.433616 
L 151.19606 221.870021 
L 151.678638 213.413393 
L 152.161216 216.433617 
L 152.643794 215.829572 
L 153.126373 217.641709 
L 153.608951 229.722607 
L 154.091529 221.870023 
L 154.574108 217.641707 
L 155.056686 217.641707 
L 155.539264 220.057888 
L 156.021843 212.205302 
L 156.504421 217.037662 
L 156.986999 213.413393 
L 157.469577 217.641708 
L 157.952156 218.245752 
L 158.434734 226.098337 
L 159.399891 209.789123 
L 159.882469 217.641708 
L 160.365047 216.433616 
L 160.847625 221.870021 
L 161.330204 214.621482 
L 161.812782 227.306428 
L 162.29536 207.976989 
L 162.777939 218.849797 
L 163.260517 222.474067 
L 163.743095 216.433618 
L 164.225673 214.621482 
L 165.19083 212.205301 
L 165.673408 211.601258 
L 166.155987 211.601257 
L 166.638565 218.849798 
L 167.603721 205.560808 
L 168.0863 212.205302 
L 168.568878 213.413393 
L 169.051456 206.164852 
L 169.534035 212.205302 
L 170.016613 210.393168 
L 170.98177 211.601257 
L 171.464348 217.641706 
L 171.946926 204.956762 
L 172.429504 208.581032 
L 172.912083 214.621482 
L 173.394661 209.789122 
L 173.877239 211.601257 
L 174.359818 214.017437 
L 174.842396 208.581033 
L 175.324974 212.205302 
L 175.807552 205.560809 
L 176.290131 207.372943 
L 176.772709 206.768898 
L 177.255287 215.829573 
L 177.737866 209.789123 
L 178.220444 205.560808 
L 178.703022 207.976987 
L 179.1856 204.956764 
L 179.668179 209.185078 
L 180.150757 210.997211 
L 180.633335 203.144628 
L 181.115914 212.809347 
L 181.598492 205.560808 
L 182.08107 209.185079 
L 182.563649 211.601258 
L 183.046227 204.352718 
L 183.528805 201.332493 
L 184.011383 209.789124 
L 184.493962 204.956764 
L 184.97654 208.581033 
L 185.459118 207.372944 
L 185.941697 202.540584 
L 186.424275 201.93654 
L 186.906853 203.748674 
L 187.389431 209.185078 
L 187.87201 205.56081 
L 188.354588 214.621482 
L 189.319745 202.540582 
L 189.802323 199.520359 
L 190.284901 203.144627 
L 190.767479 210.393167 
L 191.250058 201.936539 
L 191.732636 212.205302 
L 192.215214 199.520359 
L 192.697793 210.997212 
L 193.180371 198.312268 
L 193.662949 204.352719 
L 194.145528 203.748675 
L 194.628106 199.52036 
L 195.110684 200.124404 
L 195.593262 210.393169 
L 196.075841 204.956762 
L 196.558419 197.708225 
L 197.040997 198.312267 
L 197.523576 199.520358 
L 198.006154 204.956764 
L 198.488732 201.332493 
L 198.97131 200.124404 
L 199.453889 201.332493 
L 199.936467 200.728448 
L 200.419045 198.916313 
L 200.901624 200.728448 
L 201.384202 200.124404 
L 201.86678 206.768898 
L 202.831937 194.688 
L 203.314515 195.896089 
L 203.797093 203.144628 
L 204.76225 195.292045 
L 205.244828 209.185079 
L 205.727407 204.352717 
L 206.209985 197.104179 
L 206.692563 200.728448 
L 207.175141 200.728448 
L 207.65772 201.332493 
L 208.140298 200.124404 
L 208.622876 200.72845 
L 209.105455 203.14463 
L 209.105455 203.14463 
" style="fill:none;stroke:#1f77b4;stroke-linecap:square;stroke-width:1.5;"/>
   </g>
   <g id="patch_13">
    <path d="M 57.6 307.584 
L 57.6 189.312 
" style="fill:none;stroke:#000000;stroke-linecap:square;stroke-linejoin:miter;stroke-width:0.8;"/>
   </g>
   <g id="patch_14">
    <path d="M 216.32 307.584 
L 216.32 189.312 
" style="fill:none;stroke:#000000;stroke-linecap:square;stroke-linejoin:miter;stroke-width:0.8;"/>
   </g>
   <g id="patch_15">
    <path d="M 57.6 307.584 
L 216.32 307.584 
" style="fill:none;stroke:#000000;stroke-linecap:square;stroke-linejoin:miter;stroke-width:0.8;"/>
   </g>
   <g id="patch_16">
    <path d="M 57.6 189.312 
L 216.32 189.312 
" style="fill:none;stroke:#000000;stroke-linecap:square;stroke-linejoin:miter;stroke-width:0.8;"/>
   </g>
   <g id="text_26">
    <!-- val_acc -->
    <defs>
     <path d="M 2.984375 54.6875 
L 12.5 54.6875 
L 29.59375 8.796875 
L 46.6875 54.6875 
L 56.203125 54.6875 
L 35.6875 0 
L 23.484375 0 
z
" id="DejaVuSans-76"/>
     <path d="M 50.984375 -16.609375 
L 50.984375 -23.578125 
L -0.984375 -23.578125 
L -0.984375 -16.609375 
z
" id="DejaVuSans-5f"/>
    </defs>
    <g transform="translate(114.79 183.312)scale(0.12 -0.12)">
     <use xlink:href="#DejaVuSans-76"/>
     <use x="59.179688" xlink:href="#DejaVuSans-61"/>
     <use x="120.458984" xlink:href="#DejaVuSans-6c"/>
     <use x="148.242188" xlink:href="#DejaVuSans-5f"/>
     <use x="198.242188" xlink:href="#DejaVuSans-61"/>
     <use x="259.521484" xlink:href="#DejaVuSans-63"/>
     <use x="314.501953" xlink:href="#DejaVuSans-63"/>
    </g>
   </g>
  </g>
  <g id="axes_4">
   <g id="patch_17">
    <path d="M 256 307.584 
L 414.72 307.584 
L 414.72 189.312 
L 256 189.312 
z
" style="fill:#ffffff;"/>
   </g>
   <g id="matplotlib.axis_7">
    <g id="xtick_13">
     <g id="line2d_50">
      <path clip-path="url(#pa6d3ccf0f7)" d="M 263.214545 307.584 
L 263.214545 189.312 
" style="fill:none;stroke:#b0b0b0;stroke-linecap:square;stroke-width:0.8;"/>
     </g>
     <g id="line2d_51">
      <g>
       <use style="stroke:#000000;stroke-width:0.8;" x="263.214545" xlink:href="#m8a50bb1a85" y="307.584"/>
      </g>
     </g>
     <g id="text_27">
      <!-- 0 -->
      <g transform="translate(260.033295 322.182437)scale(0.1 -0.1)">
       <use xlink:href="#DejaVuSans-30"/>
      </g>
     </g>
    </g>
    <g id="xtick_14">
     <g id="line2d_52">
      <path clip-path="url(#pa6d3ccf0f7)" d="M 311.472375 307.584 
L 311.472375 189.312 
" style="fill:none;stroke:#b0b0b0;stroke-linecap:square;stroke-width:0.8;"/>
     </g>
     <g id="line2d_53">
      <g>
       <use style="stroke:#000000;stroke-width:0.8;" x="311.472375" xlink:href="#m8a50bb1a85" y="307.584"/>
      </g>
     </g>
     <g id="text_28">
      <!-- 100 -->
      <g transform="translate(301.928625 322.182437)scale(0.1 -0.1)">
       <use xlink:href="#DejaVuSans-31"/>
       <use x="63.623047" xlink:href="#DejaVuSans-30"/>
       <use x="127.246094" xlink:href="#DejaVuSans-30"/>
      </g>
     </g>
    </g>
    <g id="xtick_15">
     <g id="line2d_54">
      <path clip-path="url(#pa6d3ccf0f7)" d="M 359.730204 307.584 
L 359.730204 189.312 
" style="fill:none;stroke:#b0b0b0;stroke-linecap:square;stroke-width:0.8;"/>
     </g>
     <g id="line2d_55">
      <g>
       <use style="stroke:#000000;stroke-width:0.8;" x="359.730204" xlink:href="#m8a50bb1a85" y="307.584"/>
      </g>
     </g>
     <g id="text_29">
      <!-- 200 -->
      <g transform="translate(350.186454 322.182437)scale(0.1 -0.1)">
       <use xlink:href="#DejaVuSans-32"/>
       <use x="63.623047" xlink:href="#DejaVuSans-30"/>
       <use x="127.246094" xlink:href="#DejaVuSans-30"/>
      </g>
     </g>
    </g>
    <g id="xtick_16">
     <g id="line2d_56">
      <path clip-path="url(#pa6d3ccf0f7)" d="M 407.988033 307.584 
L 407.988033 189.312 
" style="fill:none;stroke:#b0b0b0;stroke-linecap:square;stroke-width:0.8;"/>
     </g>
     <g id="line2d_57">
      <g>
       <use style="stroke:#000000;stroke-width:0.8;" x="407.988033" xlink:href="#m8a50bb1a85" y="307.584"/>
      </g>
     </g>
     <g id="text_30">
      <!-- 300 -->
      <g transform="translate(398.444283 322.182437)scale(0.1 -0.1)">
       <use xlink:href="#DejaVuSans-33"/>
       <use x="63.623047" xlink:href="#DejaVuSans-30"/>
       <use x="127.246094" xlink:href="#DejaVuSans-30"/>
      </g>
     </g>
    </g>
   </g>
   <g id="matplotlib.axis_8">
    <g id="ytick_12">
     <g id="line2d_58">
      <path clip-path="url(#pa6d3ccf0f7)" d="M 256 304.423774 
L 414.72 304.423774 
" style="fill:none;stroke:#b0b0b0;stroke-linecap:square;stroke-width:0.8;"/>
     </g>
     <g id="line2d_59">
      <g>
       <use style="stroke:#000000;stroke-width:0.8;" x="256" xlink:href="#me21ffd70b2" y="304.423774"/>
      </g>
     </g>
     <g id="text_31">
      <!-- 1 -->
      <g transform="translate(242.6375 308.222992)scale(0.1 -0.1)">
       <use xlink:href="#DejaVuSans-31"/>
      </g>
     </g>
    </g>
    <g id="ytick_13">
     <g id="line2d_60">
      <path clip-path="url(#pa6d3ccf0f7)" d="M 256 280.273637 
L 414.72 280.273637 
" style="fill:none;stroke:#b0b0b0;stroke-linecap:square;stroke-width:0.8;"/>
     </g>
     <g id="line2d_61">
      <g>
       <use style="stroke:#000000;stroke-width:0.8;" x="256" xlink:href="#me21ffd70b2" y="280.273637"/>
      </g>
     </g>
     <g id="text_32">
      <!-- 2 -->
      <g transform="translate(242.6375 284.072856)scale(0.1 -0.1)">
       <use xlink:href="#DejaVuSans-32"/>
      </g>
     </g>
    </g>
    <g id="ytick_14">
     <g id="line2d_62">
      <path clip-path="url(#pa6d3ccf0f7)" d="M 256 256.123501 
L 414.72 256.123501 
" style="fill:none;stroke:#b0b0b0;stroke-linecap:square;stroke-width:0.8;"/>
     </g>
     <g id="line2d_63">
      <g>
       <use style="stroke:#000000;stroke-width:0.8;" x="256" xlink:href="#me21ffd70b2" y="256.123501"/>
      </g>
     </g>
     <g id="text_33">
      <!-- 3 -->
      <g transform="translate(242.6375 259.92272)scale(0.1 -0.1)">
       <use xlink:href="#DejaVuSans-33"/>
      </g>
     </g>
    </g>
    <g id="ytick_15">
     <g id="line2d_64">
      <path clip-path="url(#pa6d3ccf0f7)" d="M 256 231.973365 
L 414.72 231.973365 
" style="fill:none;stroke:#b0b0b0;stroke-linecap:square;stroke-width:0.8;"/>
     </g>
     <g id="line2d_65">
      <g>
       <use style="stroke:#000000;stroke-width:0.8;" x="256" xlink:href="#me21ffd70b2" y="231.973365"/>
      </g>
     </g>
     <g id="text_34">
      <!-- 4 -->
      <g transform="translate(242.6375 235.772584)scale(0.1 -0.1)">
       <use xlink:href="#DejaVuSans-34"/>
      </g>
     </g>
    </g>
    <g id="ytick_16">
     <g id="line2d_66">
      <path clip-path="url(#pa6d3ccf0f7)" d="M 256 207.823229 
L 414.72 207.823229 
" style="fill:none;stroke:#b0b0b0;stroke-linecap:square;stroke-width:0.8;"/>
     </g>
     <g id="line2d_67">
      <g>
       <use style="stroke:#000000;stroke-width:0.8;" x="256" xlink:href="#me21ffd70b2" y="207.823229"/>
      </g>
     </g>
     <g id="text_35">
      <!-- 5 -->
      <defs>
       <path d="M 10.796875 72.90625 
L 49.515625 72.90625 
L 49.515625 64.59375 
L 19.828125 64.59375 
L 19.828125 46.734375 
Q 21.96875 47.46875 24.109375 47.828125 
Q 26.265625 48.1875 28.421875 48.1875 
Q 40.625 48.1875 47.75 41.5 
Q 54.890625 34.8125 54.890625 23.390625 
Q 54.890625 11.625 47.5625 5.09375 
Q 40.234375 -1.421875 26.90625 -1.421875 
Q 22.3125 -1.421875 17.546875 -0.640625 
Q 12.796875 0.140625 7.71875 1.703125 
L 7.71875 11.625 
Q 12.109375 9.234375 16.796875 8.0625 
Q 21.484375 6.890625 26.703125 6.890625 
Q 35.15625 6.890625 40.078125 11.328125 
Q 45.015625 15.765625 45.015625 23.390625 
Q 45.015625 31 40.078125 35.4375 
Q 35.15625 39.890625 26.703125 39.890625 
Q 22.75 39.890625 18.8125 39.015625 
Q 14.890625 38.140625 10.796875 36.28125 
z
" id="DejaVuSans-35"/>
      </defs>
      <g transform="translate(242.6375 211.622448)scale(0.1 -0.1)">
       <use xlink:href="#DejaVuSans-35"/>
      </g>
     </g>
    </g>
   </g>
   <g id="line2d_68">
    <path clip-path="url(#pa6d3ccf0f7)" d="M 263.214545 194.688 
L 263.697124 195.486561 
L 264.179702 198.698123 
L 265.144859 208.169095 
L 265.627437 211.432702 
L 266.110015 213.184388 
L 266.592593 215.761019 
L 267.075172 216.687593 
L 267.55775 219.095791 
L 268.040328 220.869066 
L 268.522907 221.912436 
L 269.488063 225.133879 
L 270.45322 227.994906 
L 270.935798 228.813328 
L 271.418376 230.06243 
L 271.900955 229.843698 
L 272.383533 231.801766 
L 272.866111 232.989921 
L 273.34869 233.722051 
L 273.831268 234.901161 
L 274.796424 236.461581 
L 275.279003 236.635379 
L 276.244159 238.435132 
L 276.726738 238.270822 
L 277.209316 239.562122 
L 277.691894 239.67361 
L 278.657051 239.37329 
L 279.139629 242.120586 
L 279.622207 242.477979 
L 280.104786 243.628163 
L 280.587364 243.62729 
L 281.069942 244.809145 
L 281.552521 245.520008 
L 282.035099 245.790719 
L 282.517677 246.932733 
L 283.000255 246.460897 
L 283.482834 247.453908 
L 283.965412 246.094312 
L 284.44799 248.811702 
L 284.930569 249.556675 
L 285.413147 250.083825 
L 285.895725 249.846697 
L 286.378303 250.571896 
L 287.34346 252.493764 
L 287.826038 253.016672 
L 288.308617 252.318428 
L 288.791195 252.043874 
L 289.273773 253.77832 
L 289.756351 253.203935 
L 290.23893 255.649313 
L 290.721508 255.159381 
L 291.204086 256.581825 
L 291.686665 255.493061 
L 292.169243 257.289889 
L 292.651821 257.468997 
L 293.616978 258.53104 
L 294.099556 258.777226 
L 294.582134 258.839136 
L 295.064713 259.22777 
L 295.547291 260.60976 
L 296.029869 261.123629 
L 296.512448 260.991223 
L 296.995026 261.471792 
L 297.477604 261.18141 
L 297.960182 262.739052 
L 298.442761 262.3064 
L 298.925339 262.890209 
L 299.407917 263.852355 
L 299.890496 260.989682 
L 300.373074 264.30498 
L 300.855652 264.931315 
L 301.33823 265.107842 
L 301.820809 265.45403 
L 302.303387 265.38851 
L 302.785965 266.371469 
L 303.268544 266.86679 
L 303.751122 263.545524 
L 304.716279 267.138479 
L 305.198857 267.165519 
L 305.681435 267.554256 
L 306.646592 268.546406 
L 307.12917 268.399254 
L 307.611748 269.065673 
L 308.094327 269.47712 
L 308.576905 269.344555 
L 309.059483 268.705566 
L 309.542061 270.880402 
L 310.02464 270.880814 
L 310.507218 270.409159 
L 310.989796 268.16746 
L 311.472375 271.608979 
L 311.954953 270.777272 
L 312.437531 271.08199 
L 312.920109 272.925702 
L 313.402688 272.728368 
L 313.885266 273.246399 
L 314.367844 273.222996 
L 314.850423 273.472494 
L 315.333001 274.663488 
L 315.815579 273.953233 
L 316.298157 269.563604 
L 316.780736 274.658908 
L 317.263314 273.264434 
L 317.745892 275.288757 
L 318.228471 275.002445 
L 318.711049 273.786745 
L 319.193627 276.220731 
L 319.676206 276.168523 
L 320.158784 276.495009 
L 320.641362 273.940942 
L 321.12394 275.854267 
L 321.606519 276.385757 
L 322.089097 276.276249 
L 323.054254 278.072043 
L 323.536832 275.146903 
L 324.01941 277.657618 
L 324.501988 277.343373 
L 324.984567 277.584851 
L 325.467145 279.685167 
L 325.949723 278.788218 
L 326.432302 279.330516 
L 326.91488 276.817189 
L 327.397458 279.540701 
L 327.880036 280.328657 
L 328.362615 279.721649 
L 328.845193 280.648284 
L 329.327771 279.371006 
L 329.81035 280.936385 
L 330.292928 277.405349 
L 330.775506 280.220715 
L 331.258085 279.151235 
L 331.740663 281.359041 
L 332.223241 281.03624 
L 332.705819 280.277084 
L 333.188398 277.56404 
L 333.670976 281.894755 
L 334.153554 283.240129 
L 334.636133 281.470642 
L 335.118711 281.740817 
L 335.601289 281.399152 
L 336.083867 283.731355 
L 336.566446 282.491808 
L 337.049024 283.623746 
L 338.496759 283.022426 
L 338.979337 283.778926 
L 339.461915 284.300711 
L 339.944494 284.308357 
L 340.427072 282.872814 
L 340.90965 285.592384 
L 341.392229 284.323049 
L 343.322542 285.282455 
L 343.80512 284.742416 
L 344.287698 286.169716 
L 344.770277 285.770812 
L 345.252855 287.370429 
L 345.735433 285.360833 
L 346.218012 285.507169 
L 346.70059 287.797423 
L 347.183168 283.539457 
L 347.665746 287.808561 
L 348.148325 286.537316 
L 348.630903 287.221001 
L 349.113481 287.503409 
L 349.59606 286.220981 
L 350.078638 288.764901 
L 350.561216 286.59348 
L 351.043794 289.656728 
L 352.008951 285.493516 
L 352.974108 289.060397 
L 353.456686 289.573959 
L 353.939264 288.44027 
L 354.421843 290.6574 
L 354.904421 290.851539 
L 355.386999 289.444935 
L 355.869577 289.995734 
L 356.352156 290.730853 
L 356.834734 287.446811 
L 357.317312 290.579269 
L 357.799891 290.938746 
L 358.282469 291.472242 
L 358.765047 289.975143 
L 359.247625 290.041389 
L 359.730204 289.523833 
L 360.212782 288.193647 
L 360.69536 291.938615 
L 361.177939 291.751092 
L 361.660517 289.738405 
L 362.143095 292.370933 
L 362.625673 291.433028 
L 363.108252 291.04811 
L 363.59083 292.002161 
L 364.073408 290.218453 
L 364.555987 293.143718 
L 365.038565 290.345792 
L 365.521143 292.944248 
L 366.003721 293.311118 
L 366.4863 293.39822 
L 366.968878 292.615425 
L 367.451456 293.695255 
L 367.934035 293.831395 
L 368.416613 293.576125 
L 368.899191 294.763546 
L 369.38177 293.326115 
L 369.864348 294.447876 
L 370.346926 294.430326 
L 370.829504 293.497698 
L 371.312083 294.175553 
L 371.794661 293.983484 
L 372.277239 293.373429 
L 372.759818 293.243256 
L 373.242396 295.008111 
L 373.724974 293.829871 
L 374.207552 295.376197 
L 374.690131 295.399096 
L 375.172709 294.119973 
L 375.655287 293.51582 
L 376.137866 295.766192 
L 376.620444 296.991546 
L 377.103022 296.487455 
L 377.5856 295.63886 
L 378.068179 295.157592 
L 378.550757 295.367507 
L 379.033335 296.13271 
L 379.515914 292.401089 
L 379.998492 296.514062 
L 380.48107 296.119875 
L 380.963649 294.223368 
L 381.446227 297.494377 
L 381.928805 297.647687 
L 382.411383 296.22037 
L 382.893962 297.693113 
L 383.37654 295.442216 
L 383.859118 295.876869 
L 384.824275 298.499662 
L 385.306853 298.291339 
L 385.789431 297.161259 
L 386.27201 297.8799 
L 386.754588 293.686357 
L 387.719745 298.12066 
L 388.202323 298.456296 
L 388.684901 297.066142 
L 389.167479 296.843608 
L 389.650058 298.977664 
L 390.132636 294.761619 
L 390.615214 298.415249 
L 391.097793 293.416914 
L 391.580371 299.476035 
L 392.062949 298.840197 
L 392.545528 297.729496 
L 393.028106 299.431854 
L 393.510684 300.10131 
L 393.993262 297.844846 
L 394.475841 297.462764 
L 394.958419 299.775824 
L 395.440997 299.271783 
L 395.923576 299.965546 
L 396.406154 299.162606 
L 396.888732 300.329555 
L 397.37131 299.735624 
L 397.853889 300.586308 
L 398.336467 300.792619 
L 398.819045 300.257275 
L 399.301624 300.284347 
L 400.26678 299.032991 
L 400.749358 299.263689 
L 401.231937 301.136919 
L 401.714515 301.366154 
L 402.197093 299.759318 
L 402.679672 301.284457 
L 403.16225 301.92475 
L 403.644828 296.629383 
L 404.127407 299.880017 
L 404.609985 302.208 
L 405.092563 299.876864 
L 405.575141 301.259022 
L 406.05772 299.569266 
L 406.540298 301.492803 
L 407.022876 299.790979 
L 407.505455 300.799741 
L 407.505455 300.799741 
" style="fill:none;stroke:#1f77b4;stroke-linecap:square;stroke-width:1.5;"/>
   </g>
   <g id="patch_18">
    <path d="M 256 307.584 
L 256 189.312 
" style="fill:none;stroke:#000000;stroke-linecap:square;stroke-linejoin:miter;stroke-width:0.8;"/>
   </g>
   <g id="patch_19">
    <path d="M 414.72 307.584 
L 414.72 189.312 
" style="fill:none;stroke:#000000;stroke-linecap:square;stroke-linejoin:miter;stroke-width:0.8;"/>
   </g>
   <g id="patch_20">
    <path d="M 256 307.584 
L 414.72 307.584 
" style="fill:none;stroke:#000000;stroke-linecap:square;stroke-linejoin:miter;stroke-width:0.8;"/>
   </g>
   <g id="patch_21">
    <path d="M 256 189.312 
L 414.72 189.312 
" style="fill:none;stroke:#000000;stroke-linecap:square;stroke-linejoin:miter;stroke-width:0.8;"/>
   </g>
   <g id="text_36">
    <!-- val_loss -->
    <g transform="translate(311.875625 183.312)scale(0.12 -0.12)">
     <use xlink:href="#DejaVuSans-76"/>
     <use x="59.179688" xlink:href="#DejaVuSans-61"/>
     <use x="120.458984" xlink:href="#DejaVuSans-6c"/>
     <use x="148.242188" xlink:href="#DejaVuSans-5f"/>
     <use x="198.242188" xlink:href="#DejaVuSans-6c"/>
     <use x="226.025391" xlink:href="#DejaVuSans-6f"/>
     <use x="287.207031" xlink:href="#DejaVuSans-73"/>
     <use x="339.306641" xlink:href="#DejaVuSans-73"/>
    </g>
   </g>
  </g>
  <g id="text_37">
   <!-- model1 20171023_151914 -->
   <defs>
    <path d="M 52 44.1875 
Q 55.375 50.25 60.0625 53.125 
Q 64.75 56 71.09375 56 
Q 79.640625 56 84.28125 50.015625 
Q 88.921875 44.046875 88.921875 33.015625 
L 88.921875 0 
L 79.890625 0 
L 79.890625 32.71875 
Q 79.890625 40.578125 77.09375 44.375 
Q 74.3125 48.1875 68.609375 48.1875 
Q 61.625 48.1875 57.5625 43.546875 
Q 53.515625 38.921875 53.515625 30.90625 
L 53.515625 0 
L 44.484375 0 
L 44.484375 32.71875 
Q 44.484375 40.625 41.703125 44.40625 
Q 38.921875 48.1875 33.109375 48.1875 
Q 26.21875 48.1875 22.15625 43.53125 
Q 18.109375 38.875 18.109375 30.90625 
L 18.109375 0 
L 9.078125 0 
L 9.078125 54.6875 
L 18.109375 54.6875 
L 18.109375 46.1875 
Q 21.1875 51.21875 25.484375 53.609375 
Q 29.78125 56 35.6875 56 
Q 41.65625 56 45.828125 52.96875 
Q 50 49.953125 52 44.1875 
z
" id="DejaVuSans-6d"/>
    <path d="M 45.40625 46.390625 
L 45.40625 75.984375 
L 54.390625 75.984375 
L 54.390625 0 
L 45.40625 0 
L 45.40625 8.203125 
Q 42.578125 3.328125 38.25 0.953125 
Q 33.9375 -1.421875 27.875 -1.421875 
Q 17.96875 -1.421875 11.734375 6.484375 
Q 5.515625 14.40625 5.515625 27.296875 
Q 5.515625 40.1875 11.734375 48.09375 
Q 17.96875 56 27.875 56 
Q 33.9375 56 38.25 53.625 
Q 42.578125 51.265625 45.40625 46.390625 
z
M 14.796875 27.296875 
Q 14.796875 17.390625 18.875 11.75 
Q 22.953125 6.109375 30.078125 6.109375 
Q 37.203125 6.109375 41.296875 11.75 
Q 45.40625 17.390625 45.40625 27.296875 
Q 45.40625 37.203125 41.296875 42.84375 
Q 37.203125 48.484375 30.078125 48.484375 
Q 22.953125 48.484375 18.875 42.84375 
Q 14.796875 37.203125 14.796875 27.296875 
z
" id="DejaVuSans-64"/>
    <path d="M 56.203125 29.59375 
L 56.203125 25.203125 
L 14.890625 25.203125 
Q 15.484375 15.921875 20.484375 11.0625 
Q 25.484375 6.203125 34.421875 6.203125 
Q 39.59375 6.203125 44.453125 7.46875 
Q 49.3125 8.734375 54.109375 11.28125 
L 54.109375 2.78125 
Q 49.265625 0.734375 44.1875 -0.34375 
Q 39.109375 -1.421875 33.890625 -1.421875 
Q 20.796875 -1.421875 13.15625 6.1875 
Q 5.515625 13.8125 5.515625 26.8125 
Q 5.515625 40.234375 12.765625 48.109375 
Q 20.015625 56 32.328125 56 
Q 43.359375 56 49.78125 48.890625 
Q 56.203125 41.796875 56.203125 29.59375 
z
M 47.21875 32.234375 
Q 47.125 39.59375 43.09375 43.984375 
Q 39.0625 48.390625 32.421875 48.390625 
Q 24.90625 48.390625 20.390625 44.140625 
Q 15.875 39.890625 15.1875 32.171875 
z
" id="DejaVuSans-65"/>
    <path id="DejaVuSans-20"/>
    <path d="M 8.203125 72.90625 
L 55.078125 72.90625 
L 55.078125 68.703125 
L 28.609375 0 
L 18.3125 0 
L 43.21875 64.59375 
L 8.203125 64.59375 
z
" id="DejaVuSans-37"/>
    <path d="M 10.984375 1.515625 
L 10.984375 10.5 
Q 14.703125 8.734375 18.5 7.8125 
Q 22.3125 6.890625 25.984375 6.890625 
Q 35.75 6.890625 40.890625 13.453125 
Q 46.046875 20.015625 46.78125 33.40625 
Q 43.953125 29.203125 39.59375 26.953125 
Q 35.25 24.703125 29.984375 24.703125 
Q 19.046875 24.703125 12.671875 31.3125 
Q 6.296875 37.9375 6.296875 49.421875 
Q 6.296875 60.640625 12.9375 67.421875 
Q 19.578125 74.21875 30.609375 74.21875 
Q 43.265625 74.21875 49.921875 64.515625 
Q 56.59375 54.828125 56.59375 36.375 
Q 56.59375 19.140625 48.40625 8.859375 
Q 40.234375 -1.421875 26.421875 -1.421875 
Q 22.703125 -1.421875 18.890625 -0.6875 
Q 15.09375 0.046875 10.984375 1.515625 
z
M 30.609375 32.421875 
Q 37.25 32.421875 41.125 36.953125 
Q 45.015625 41.5 45.015625 49.421875 
Q 45.015625 57.28125 41.125 61.84375 
Q 37.25 66.40625 30.609375 66.40625 
Q 23.96875 66.40625 20.09375 61.84375 
Q 16.21875 57.28125 16.21875 49.421875 
Q 16.21875 41.5 20.09375 36.953125 
Q 23.96875 32.421875 30.609375 32.421875 
z
" id="DejaVuSans-39"/>
   </defs>
   <g transform="translate(149.547188 16.030125)scale(0.12 -0.12)">
    <use xlink:href="#DejaVuSans-6d"/>
    <use x="97.412109" xlink:href="#DejaVuSans-6f"/>
    <use x="158.59375" xlink:href="#DejaVuSans-64"/>
    <use x="222.070312" xlink:href="#DejaVuSans-65"/>
    <use x="283.59375" xlink:href="#DejaVuSans-6c"/>
    <use x="311.376953" xlink:href="#DejaVuSans-31"/>
    <use x="375" xlink:href="#DejaVuSans-20"/>
    <use x="406.787109" xlink:href="#DejaVuSans-32"/>
    <use x="470.410156" xlink:href="#DejaVuSans-30"/>
    <use x="534.033203" xlink:href="#DejaVuSans-31"/>
    <use x="597.65625" xlink:href="#DejaVuSans-37"/>
    <use x="661.279297" xlink:href="#DejaVuSans-31"/>
    <use x="724.902344" xlink:href="#DejaVuSans-30"/>
    <use x="788.525391" xlink:href="#DejaVuSans-32"/>
    <use x="852.148438" xlink:href="#DejaVuSans-33"/>
    <use x="915.771484" xlink:href="#DejaVuSans-5f"/>
    <use x="965.771484" xlink:href="#DejaVuSans-31"/>
    <use x="1029.394531" xlink:href="#DejaVuSans-35"/>
    <use x="1093.017578" xlink:href="#DejaVuSans-31"/>
    <use x="1156.640625" xlink:href="#DejaVuSans-39"/>
    <use x="1220.263672" xlink:href="#DejaVuSans-31"/>
    <use x="1283.886719" xlink:href="#DejaVuSans-34"/>
   </g>
  </g>
 </g>
 <defs>
  <clipPath id="pc6aa824a99">
   <rect height="118.272" width="158.72" x="57.6" y="41.472"/>
  </clipPath>
  <clipPath id="p82e3457ff3">
   <rect height="118.272" width="158.72" x="256" y="41.472"/>
  </clipPath>
  <clipPath id="p646a472f52">
   <rect height="118.272" width="158.72" x="57.6" y="189.312"/>
  </clipPath>
  <clipPath id="pa6d3ccf0f7">
   <rect height="118.272" width="158.72" x="256" y="189.312"/>
  </clipPath>
 </defs>
</svg>
