<?xml version="1.0" encoding="utf-8" standalone="no"?>
<!DOCTYPE svg PUBLIC "-//W3C//DTD SVG 1.1//EN"
  "http://www.w3.org/Graphics/SVG/1.1/DTD/svg11.dtd">
<!-- Created with matplotlib (http://matplotlib.org/) -->
<svg height="345pt" version="1.1" viewBox="0 0 460 345" width="460pt" xmlns="http://www.w3.org/2000/svg" xmlns:xlink="http://www.w3.org/1999/xlink">
 <defs>
  <style type="text/css">
*{stroke-linecap:butt;stroke-linejoin:round;}
  </style>
 </defs>
 <g id="figure_1">
  <g id="patch_1">
   <path d="M 0 345.6 
L 460.8 345.6 
L 460.8 0 
L 0 0 
z
" style="fill:#ffffff;"/>
  </g>
  <g id="axes_1">
   <g id="patch_2">
    <path d="M 57.6 159.744 
L 216.32 159.744 
L 216.32 41.472 
L 57.6 41.472 
z
" style="fill:#ffffff;"/>
   </g>
   <g id="matplotlib.axis_1">
    <g id="xtick_1">
     <g id="line2d_1">
      <path clip-path="url(#p344ff16d99)" d="M 64.814545 159.744 
L 64.814545 41.472 
" style="fill:none;stroke:#b0b0b0;stroke-linecap:square;stroke-width:0.8;"/>
     </g>
     <g id="line2d_2">
      <defs>
       <path d="M 0 0 
L 0 3.5 
" id="md082938005" style="stroke:#000000;stroke-width:0.8;"/>
      </defs>
      <g>
       <use style="stroke:#000000;stroke-width:0.8;" x="64.814545" xlink:href="#md082938005" y="159.744"/>
      </g>
     </g>
     <g id="text_1">
      <!-- 0 -->
      <defs>
       <path d="M 31.78125 66.40625 
Q 24.171875 66.40625 20.328125 58.90625 
Q 16.5 51.421875 16.5 36.375 
Q 16.5 21.390625 20.328125 13.890625 
Q 24.171875 6.390625 31.78125 6.390625 
Q 39.453125 6.390625 43.28125 13.890625 
Q 47.125 21.390625 47.125 36.375 
Q 47.125 51.421875 43.28125 58.90625 
Q 39.453125 66.40625 31.78125 66.40625 
z
M 31.78125 74.21875 
Q 44.046875 74.21875 50.515625 64.515625 
Q 56.984375 54.828125 56.984375 36.375 
Q 56.984375 17.96875 50.515625 8.265625 
Q 44.046875 -1.421875 31.78125 -1.421875 
Q 19.53125 -1.421875 13.0625 8.265625 
Q 6.59375 17.96875 6.59375 36.375 
Q 6.59375 54.828125 13.0625 64.515625 
Q 19.53125 74.21875 31.78125 74.21875 
z
" id="DejaVuSans-30"/>
      </defs>
      <g transform="translate(61.633295 174.342437)scale(0.1 -0.1)">
       <use xlink:href="#DejaVuSans-30"/>
      </g>
     </g>
    </g>
    <g id="xtick_2">
     <g id="line2d_3">
      <path clip-path="url(#p344ff16d99)" d="M 113.072375 159.744 
L 113.072375 41.472 
" style="fill:none;stroke:#b0b0b0;stroke-linecap:square;stroke-width:0.8;"/>
     </g>
     <g id="line2d_4">
      <g>
       <use style="stroke:#000000;stroke-width:0.8;" x="113.072375" xlink:href="#md082938005" y="159.744"/>
      </g>
     </g>
     <g id="text_2">
      <!-- 100 -->
      <defs>
       <path d="M 12.40625 8.296875 
L 28.515625 8.296875 
L 28.515625 63.921875 
L 10.984375 60.40625 
L 10.984375 69.390625 
L 28.421875 72.90625 
L 38.28125 72.90625 
L 38.28125 8.296875 
L 54.390625 8.296875 
L 54.390625 0 
L 12.40625 0 
z
" id="DejaVuSans-31"/>
      </defs>
      <g transform="translate(103.528625 174.342437)scale(0.1 -0.1)">
       <use xlink:href="#DejaVuSans-31"/>
       <use x="63.623047" xlink:href="#DejaVuSans-30"/>
       <use x="127.246094" xlink:href="#DejaVuSans-30"/>
      </g>
     </g>
    </g>
    <g id="xtick_3">
     <g id="line2d_5">
      <path clip-path="url(#p344ff16d99)" d="M 161.330204 159.744 
L 161.330204 41.472 
" style="fill:none;stroke:#b0b0b0;stroke-linecap:square;stroke-width:0.8;"/>
     </g>
     <g id="line2d_6">
      <g>
       <use style="stroke:#000000;stroke-width:0.8;" x="161.330204" xlink:href="#md082938005" y="159.744"/>
      </g>
     </g>
     <g id="text_3">
      <!-- 200 -->
      <defs>
       <path d="M 19.1875 8.296875 
L 53.609375 8.296875 
L 53.609375 0 
L 7.328125 0 
L 7.328125 8.296875 
Q 12.9375 14.109375 22.625 23.890625 
Q 32.328125 33.6875 34.8125 36.53125 
Q 39.546875 41.84375 41.421875 45.53125 
Q 43.3125 49.21875 43.3125 52.78125 
Q 43.3125 58.59375 39.234375 62.25 
Q 35.15625 65.921875 28.609375 65.921875 
Q 23.96875 65.921875 18.8125 64.3125 
Q 13.671875 62.703125 7.8125 59.421875 
L 7.8125 69.390625 
Q 13.765625 71.78125 18.9375 73 
Q 24.125 74.21875 28.421875 74.21875 
Q 39.75 74.21875 46.484375 68.546875 
Q 53.21875 62.890625 53.21875 53.421875 
Q 53.21875 48.921875 51.53125 44.890625 
Q 49.859375 40.875 45.40625 35.40625 
Q 44.1875 33.984375 37.640625 27.21875 
Q 31.109375 20.453125 19.1875 8.296875 
z
" id="DejaVuSans-32"/>
      </defs>
      <g transform="translate(151.786454 174.342437)scale(0.1 -0.1)">
       <use xlink:href="#DejaVuSans-32"/>
       <use x="63.623047" xlink:href="#DejaVuSans-30"/>
       <use x="127.246094" xlink:href="#DejaVuSans-30"/>
      </g>
     </g>
    </g>
    <g id="xtick_4">
     <g id="line2d_7">
      <path clip-path="url(#p344ff16d99)" d="M 209.588033 159.744 
L 209.588033 41.472 
" style="fill:none;stroke:#b0b0b0;stroke-linecap:square;stroke-width:0.8;"/>
     </g>
     <g id="line2d_8">
      <g>
       <use style="stroke:#000000;stroke-width:0.8;" x="209.588033" xlink:href="#md082938005" y="159.744"/>
      </g>
     </g>
     <g id="text_4">
      <!-- 300 -->
      <defs>
       <path d="M 40.578125 39.3125 
Q 47.65625 37.796875 51.625 33 
Q 55.609375 28.21875 55.609375 21.1875 
Q 55.609375 10.40625 48.1875 4.484375 
Q 40.765625 -1.421875 27.09375 -1.421875 
Q 22.515625 -1.421875 17.65625 -0.515625 
Q 12.796875 0.390625 7.625 2.203125 
L 7.625 11.71875 
Q 11.71875 9.328125 16.59375 8.109375 
Q 21.484375 6.890625 26.8125 6.890625 
Q 36.078125 6.890625 40.9375 10.546875 
Q 45.796875 14.203125 45.796875 21.1875 
Q 45.796875 27.640625 41.28125 31.265625 
Q 36.765625 34.90625 28.71875 34.90625 
L 20.21875 34.90625 
L 20.21875 43.015625 
L 29.109375 43.015625 
Q 36.375 43.015625 40.234375 45.921875 
Q 44.09375 48.828125 44.09375 54.296875 
Q 44.09375 59.90625 40.109375 62.90625 
Q 36.140625 65.921875 28.71875 65.921875 
Q 24.65625 65.921875 20.015625 65.03125 
Q 15.375 64.15625 9.8125 62.3125 
L 9.8125 71.09375 
Q 15.4375 72.65625 20.34375 73.4375 
Q 25.25 74.21875 29.59375 74.21875 
Q 40.828125 74.21875 47.359375 69.109375 
Q 53.90625 64.015625 53.90625 55.328125 
Q 53.90625 49.265625 50.4375 45.09375 
Q 46.96875 40.921875 40.578125 39.3125 
z
" id="DejaVuSans-33"/>
      </defs>
      <g transform="translate(200.044283 174.342437)scale(0.1 -0.1)">
       <use xlink:href="#DejaVuSans-33"/>
       <use x="63.623047" xlink:href="#DejaVuSans-30"/>
       <use x="127.246094" xlink:href="#DejaVuSans-30"/>
      </g>
     </g>
    </g>
   </g>
   <g id="matplotlib.axis_2">
    <g id="ytick_1">
     <g id="line2d_9">
      <path clip-path="url(#p344ff16d99)" d="M 57.6 156.507701 
L 216.32 156.507701 
" style="fill:none;stroke:#b0b0b0;stroke-linecap:square;stroke-width:0.8;"/>
     </g>
     <g id="line2d_10">
      <defs>
       <path d="M 0 0 
L -3.5 0 
" id="m63ceaaab1a" style="stroke:#000000;stroke-width:0.8;"/>
      </defs>
      <g>
       <use style="stroke:#000000;stroke-width:0.8;" x="57.6" xlink:href="#m63ceaaab1a" y="156.507701"/>
      </g>
     </g>
     <g id="text_5">
      <!-- 0.00 -->
      <defs>
       <path d="M 10.6875 12.40625 
L 21 12.40625 
L 21 0 
L 10.6875 0 
z
" id="DejaVuSans-2e"/>
      </defs>
      <g transform="translate(28.334375 160.30692)scale(0.1 -0.1)">
       <use xlink:href="#DejaVuSans-30"/>
       <use x="63.623047" xlink:href="#DejaVuSans-2e"/>
       <use x="95.410156" xlink:href="#DejaVuSans-30"/>
       <use x="159.033203" xlink:href="#DejaVuSans-30"/>
      </g>
     </g>
    </g>
    <g id="ytick_2">
     <g id="line2d_11">
      <path clip-path="url(#p344ff16d99)" d="M 57.6 115.425434 
L 216.32 115.425434 
" style="fill:none;stroke:#b0b0b0;stroke-linecap:square;stroke-width:0.8;"/>
     </g>
     <g id="line2d_12">
      <g>
       <use style="stroke:#000000;stroke-width:0.8;" x="57.6" xlink:href="#m63ceaaab1a" y="115.425434"/>
      </g>
     </g>
     <g id="text_6">
      <!-- 0.05 -->
      <defs>
       <path d="M 10.796875 72.90625 
L 49.515625 72.90625 
L 49.515625 64.59375 
L 19.828125 64.59375 
L 19.828125 46.734375 
Q 21.96875 47.46875 24.109375 47.828125 
Q 26.265625 48.1875 28.421875 48.1875 
Q 40.625 48.1875 47.75 41.5 
Q 54.890625 34.8125 54.890625 23.390625 
Q 54.890625 11.625 47.5625 5.09375 
Q 40.234375 -1.421875 26.90625 -1.421875 
Q 22.3125 -1.421875 17.546875 -0.640625 
Q 12.796875 0.140625 7.71875 1.703125 
L 7.71875 11.625 
Q 12.109375 9.234375 16.796875 8.0625 
Q 21.484375 6.890625 26.703125 6.890625 
Q 35.15625 6.890625 40.078125 11.328125 
Q 45.015625 15.765625 45.015625 23.390625 
Q 45.015625 31 40.078125 35.4375 
Q 35.15625 39.890625 26.703125 39.890625 
Q 22.75 39.890625 18.8125 39.015625 
Q 14.890625 38.140625 10.796875 36.28125 
z
" id="DejaVuSans-35"/>
      </defs>
      <g transform="translate(28.334375 119.224652)scale(0.1 -0.1)">
       <use xlink:href="#DejaVuSans-30"/>
       <use x="63.623047" xlink:href="#DejaVuSans-2e"/>
       <use x="95.410156" xlink:href="#DejaVuSans-30"/>
       <use x="159.033203" xlink:href="#DejaVuSans-35"/>
      </g>
     </g>
    </g>
    <g id="ytick_3">
     <g id="line2d_13">
      <path clip-path="url(#p344ff16d99)" d="M 57.6 74.343166 
L 216.32 74.343166 
" style="fill:none;stroke:#b0b0b0;stroke-linecap:square;stroke-width:0.8;"/>
     </g>
     <g id="line2d_14">
      <g>
       <use style="stroke:#000000;stroke-width:0.8;" x="57.6" xlink:href="#m63ceaaab1a" y="74.343166"/>
      </g>
     </g>
     <g id="text_7">
      <!-- 0.10 -->
      <g transform="translate(28.334375 78.142385)scale(0.1 -0.1)">
       <use xlink:href="#DejaVuSans-30"/>
       <use x="63.623047" xlink:href="#DejaVuSans-2e"/>
       <use x="95.410156" xlink:href="#DejaVuSans-31"/>
       <use x="159.033203" xlink:href="#DejaVuSans-30"/>
      </g>
     </g>
    </g>
   </g>
   <g id="line2d_15">
    <path clip-path="url(#p344ff16d99)" d="M 64.814545 154.100537 
L 65.297124 154.368 
L 65.779702 153.833075 
L 66.26228 151.158448 
L 66.744859 151.158448 
L 67.227437 150.35606 
L 67.710015 148.751284 
L 68.192593 145.541731 
L 68.675172 144.471881 
L 69.15775 144.204418 
L 69.640328 143.669493 
L 70.122907 143.936955 
L 70.605485 143.669493 
L 71.088063 144.204418 
L 71.570642 144.471881 
L 72.05322 143.134567 
L 72.535798 142.867105 
L 73.018376 141.529791 
L 73.983533 139.925015 
L 74.466111 141.262328 
L 74.94869 138.855164 
L 75.431268 135.110687 
L 75.913846 137.517851 
L 76.396424 132.970985 
L 76.879003 138.855164 
L 77.361581 138.052776 
L 77.844159 128.959045 
L 78.326738 132.43606 
L 78.809316 132.703522 
L 79.774472 127.621731 
L 80.257051 130.028896 
L 80.739629 129.761433 
L 81.222207 128.691582 
L 81.704786 124.679642 
L 82.187364 122.53994 
L 82.669942 121.47009 
L 83.152521 122.53994 
L 83.635099 126.284418 
L 84.117677 120.667702 
L 84.600255 117.458149 
L 85.082834 122.272478 
L 85.565412 114.783522 
L 86.04799 122.53994 
L 86.530569 113.178746 
L 87.013147 118.260537 
L 87.495725 118.528 
L 87.978303 114.248597 
L 88.460882 114.51606 
L 88.94346 112.108896 
L 89.426038 113.446209 
L 89.908617 113.446209 
L 90.391195 110.771582 
L 90.873773 111.57397 
L 91.356351 111.841433 
L 91.83893 109.701731 
L 92.321508 109.969194 
L 92.804086 113.446209 
L 93.286665 105.154866 
L 93.769243 109.166806 
L 94.251821 107.027105 
L 94.7344 108.899343 
L 95.216978 108.899343 
L 95.699556 102.480239 
L 96.182134 106.224716 
L 96.664713 103.015164 
L 97.147291 107.56203 
L 97.629869 103.817552 
L 98.112448 103.817552 
L 98.595026 103.550089 
L 99.077604 106.492179 
L 99.560182 100.608 
L 100.042761 107.56203 
L 100.525339 102.747702 
L 101.007917 102.212776 
L 101.973074 102.747701 
L 102.455652 98.735761 
L 102.93823 103.282627 
L 103.420809 97.933373 
L 103.903387 95.526209 
L 104.385965 100.608 
L 104.868544 97.398448 
L 105.351122 101.677851 
L 105.8337 92.049194 
L 106.316279 101.677851 
L 106.798857 97.130985 
L 107.281435 97.66591 
L 107.764013 98.468299 
L 108.246592 94.991284 
L 108.72917 97.66591 
L 109.211748 97.665911 
L 109.694327 93.119045 
L 110.176905 96.59606 
L 110.659483 93.386508 
L 111.142061 93.119045 
L 111.62464 93.921433 
L 112.107218 93.386507 
L 112.589796 91.781731 
L 113.072375 92.851582 
L 113.554953 91.781731 
L 114.037531 84.292776 
L 114.520109 94.188895 
L 115.002688 87.234866 
L 115.485266 93.921433 
L 115.967844 86.967403 
L 116.450423 90.444418 
L 116.933001 85.897552 
L 117.415579 86.967403 
L 117.898157 85.63009 
L 118.380736 90.979343 
L 118.863314 90.711881 
L 119.345892 89.107104 
L 119.828471 88.839642 
L 120.311049 88.304716 
L 120.793627 84.827701 
L 121.276206 85.897552 
L 121.758784 83.757851 
L 122.241362 84.292776 
L 122.72394 79.478448 
L 123.206519 78.408597 
L 123.689097 79.74591 
L 124.171675 78.408597 
L 124.654254 80.013373 
L 125.136832 84.560239 
L 125.61941 83.757851 
L 126.101988 75.466507 
L 126.584567 81.350687 
L 127.067145 83.757851 
L 127.549723 77.606209 
L 128.032302 86.165015 
L 128.51488 77.873672 
L 128.997458 81.618149 
L 129.480036 79.478448 
L 129.962615 79.74591 
L 130.445193 76.268896 
L 130.927771 77.873672 
L 131.41035 78.408597 
L 131.892928 79.745911 
L 132.375506 80.013373 
L 132.858085 83.757851 
L 133.340663 76.803821 
L 133.823241 81.618149 
L 134.305819 73.594269 
L 135.270976 79.478447 
L 135.753554 75.199045 
L 136.236133 78.943523 
L 137.201289 71.454567 
L 137.683867 74.664119 
L 138.166446 81.618149 
L 138.649024 81.618149 
L 139.131602 75.199045 
L 139.614181 74.129194 
L 140.096759 71.454567 
L 140.579337 75.199045 
L 141.061915 74.66412 
L 141.544494 70.919642 
L 142.027072 72.524418 
L 142.50965 77.071283 
L 142.992229 71.72203 
L 143.474807 71.989492 
L 143.957385 76.001433 
L 144.439964 68.77994 
L 144.922542 77.071283 
L 145.40512 76.001433 
L 145.887698 76.001433 
L 146.370277 71.989492 
L 146.852855 69.582328 
L 147.335433 67.977552 
L 147.818012 71.454567 
L 148.30059 66.907702 
L 148.783168 66.105313 
L 149.265746 67.710089 
L 149.748325 76.268895 
L 150.230903 71.187104 
L 150.713481 67.442627 
L 151.19606 67.977552 
L 151.678638 66.907702 
L 152.161216 72.256955 
L 152.643794 66.372776 
L 153.126373 66.907701 
L 153.608951 71.187104 
L 154.091529 65.570388 
L 154.574108 69.582328 
L 155.056686 69.047403 
L 155.539264 63.430686 
L 156.504421 68.512477 
L 156.986999 60.221134 
L 157.469577 65.837851 
L 157.952156 66.372776 
L 158.917312 68.77994 
L 159.399891 59.953672 
L 159.882469 70.117254 
L 160.365047 60.221134 
L 160.847625 59.151283 
L 161.330204 65.837851 
L 161.812782 64.500537 
L 162.29536 61.558448 
L 162.777939 66.640239 
L 163.260517 70.384717 
L 163.743095 64.233075 
L 164.225673 62.628299 
L 164.708252 69.314865 
L 165.19083 65.035463 
L 165.673408 57.546507 
L 166.155987 63.430686 
L 166.638565 64.768 
L 167.121143 63.163224 
L 167.603721 57.81397 
L 168.0863 64.500537 
L 168.568878 62.093373 
L 169.051456 61.290985 
L 169.534035 63.698149 
L 170.016613 63.430686 
L 170.499191 59.686209 
L 170.98177 60.756059 
L 171.464348 63.698149 
L 171.946926 63.698149 
L 172.429504 58.348895 
L 172.912083 60.75606 
L 173.394661 61.290985 
L 174.359818 66.640239 
L 174.842396 66.105314 
L 175.324974 61.023522 
L 175.807552 61.023522 
L 176.290131 57.81397 
L 176.772709 61.023522 
L 177.255287 61.82591 
L 177.737866 63.430686 
L 178.220444 60.75606 
L 178.703022 55.139343 
L 179.1856 60.75606 
L 179.668179 57.546508 
L 180.633335 56.476657 
L 181.115914 60.488597 
L 181.598492 58.883821 
L 182.08107 58.883821 
L 182.563649 50.592478 
L 183.046227 58.883821 
L 184.011383 54.871881 
L 184.493962 58.616358 
L 184.97654 60.221134 
L 185.459118 59.418746 
L 185.941697 53.534567 
L 186.424275 59.418746 
L 186.906853 57.81397 
L 187.389431 51.662328 
L 187.87201 56.209194 
L 188.354588 52.999642 
L 188.837166 55.139343 
L 189.319745 55.674269 
L 189.802323 52.197254 
L 190.284901 56.744119 
L 190.767479 49.522627 
L 191.250058 59.686209 
L 191.732636 54.604418 
L 192.215214 52.732179 
L 192.697793 55.674269 
L 193.180371 56.476657 
L 193.662949 53.80203 
L 194.145528 53.80203 
L 194.628106 55.674269 
L 195.110684 51.394866 
L 195.593262 56.744119 
L 196.075841 57.81397 
L 196.558419 52.732179 
L 197.040997 49.522627 
L 197.523576 53.534567 
L 198.006154 50.325015 
L 198.488732 54.069492 
L 198.97131 53.534567 
L 199.453889 51.929791 
L 199.936467 46.848 
L 200.419045 53.534567 
L 200.901624 47.115462 
L 201.384202 52.464717 
L 201.86678 51.929791 
L 202.349358 50.057552 
L 202.831937 54.069493 
L 203.314515 49.522627 
L 203.797093 51.662328 
L 204.279672 56.209194 
L 204.76225 49.790089 
L 205.244828 48.720239 
L 205.727407 53.534567 
L 206.209985 60.221134 
L 206.692563 50.057552 
L 207.175141 52.197254 
L 207.65772 57.279045 
L 208.140298 51.929791 
L 208.622876 49.522627 
L 209.105455 50.592477 
L 209.105455 50.592477 
" style="fill:none;stroke:#1f77b4;stroke-linecap:square;stroke-width:1.5;"/>
   </g>
   <g id="patch_3">
    <path d="M 57.6 159.744 
L 57.6 41.472 
" style="fill:none;stroke:#000000;stroke-linecap:square;stroke-linejoin:miter;stroke-width:0.8;"/>
   </g>
   <g id="patch_4">
    <path d="M 216.32 159.744 
L 216.32 41.472 
" style="fill:none;stroke:#000000;stroke-linecap:square;stroke-linejoin:miter;stroke-width:0.8;"/>
   </g>
   <g id="patch_5">
    <path d="M 57.6 159.744 
L 216.32 159.744 
" style="fill:none;stroke:#000000;stroke-linecap:square;stroke-linejoin:miter;stroke-width:0.8;"/>
   </g>
   <g id="patch_6">
    <path d="M 57.6 41.472 
L 216.32 41.472 
" style="fill:none;stroke:#000000;stroke-linecap:square;stroke-linejoin:miter;stroke-width:0.8;"/>
   </g>
   <g id="text_8">
    <!-- acc -->
    <defs>
     <path d="M 34.28125 27.484375 
Q 23.390625 27.484375 19.1875 25 
Q 14.984375 22.515625 14.984375 16.5 
Q 14.984375 11.71875 18.140625 8.90625 
Q 21.296875 6.109375 26.703125 6.109375 
Q 34.1875 6.109375 38.703125 11.40625 
Q 43.21875 16.703125 43.21875 25.484375 
L 43.21875 27.484375 
z
M 52.203125 31.203125 
L 52.203125 0 
L 43.21875 0 
L 43.21875 8.296875 
Q 40.140625 3.328125 35.546875 0.953125 
Q 30.953125 -1.421875 24.3125 -1.421875 
Q 15.921875 -1.421875 10.953125 3.296875 
Q 6 8.015625 6 15.921875 
Q 6 25.140625 12.171875 29.828125 
Q 18.359375 34.515625 30.609375 34.515625 
L 43.21875 34.515625 
L 43.21875 35.40625 
Q 43.21875 41.609375 39.140625 45 
Q 35.0625 48.390625 27.6875 48.390625 
Q 23 48.390625 18.546875 47.265625 
Q 14.109375 46.140625 10.015625 43.890625 
L 10.015625 52.203125 
Q 14.9375 54.109375 19.578125 55.046875 
Q 24.21875 56 28.609375 56 
Q 40.484375 56 46.34375 49.84375 
Q 52.203125 43.703125 52.203125 31.203125 
z
" id="DejaVuSans-61"/>
     <path d="M 48.78125 52.59375 
L 48.78125 44.1875 
Q 44.96875 46.296875 41.140625 47.34375 
Q 37.3125 48.390625 33.40625 48.390625 
Q 24.65625 48.390625 19.8125 42.84375 
Q 14.984375 37.3125 14.984375 27.296875 
Q 14.984375 17.28125 19.8125 11.734375 
Q 24.65625 6.203125 33.40625 6.203125 
Q 37.3125 6.203125 41.140625 7.25 
Q 44.96875 8.296875 48.78125 10.40625 
L 48.78125 2.09375 
Q 45.015625 0.34375 40.984375 -0.53125 
Q 36.96875 -1.421875 32.421875 -1.421875 
Q 20.0625 -1.421875 12.78125 6.34375 
Q 5.515625 14.109375 5.515625 27.296875 
Q 5.515625 40.671875 12.859375 48.328125 
Q 20.21875 56 33.015625 56 
Q 37.15625 56 41.109375 55.140625 
Q 45.0625 54.296875 48.78125 52.59375 
z
" id="DejaVuSans-63"/>
    </defs>
    <g transform="translate(126.685 35.472)scale(0.12 -0.12)">
     <use xlink:href="#DejaVuSans-61"/>
     <use x="61.279297" xlink:href="#DejaVuSans-63"/>
     <use x="116.259766" xlink:href="#DejaVuSans-63"/>
    </g>
   </g>
  </g>
  <g id="axes_2">
   <g id="patch_7">
    <path d="M 256 159.744 
L 414.72 159.744 
L 414.72 41.472 
L 256 41.472 
z
" style="fill:#ffffff;"/>
   </g>
   <g id="matplotlib.axis_3">
    <g id="xtick_5">
     <g id="line2d_16">
      <path clip-path="url(#p00fe920b65)" d="M 263.214545 159.744 
L 263.214545 41.472 
" style="fill:none;stroke:#b0b0b0;stroke-linecap:square;stroke-width:0.8;"/>
     </g>
     <g id="line2d_17">
      <g>
       <use style="stroke:#000000;stroke-width:0.8;" x="263.214545" xlink:href="#md082938005" y="159.744"/>
      </g>
     </g>
     <g id="text_9">
      <!-- 0 -->
      <g transform="translate(260.033295 174.342437)scale(0.1 -0.1)">
       <use xlink:href="#DejaVuSans-30"/>
      </g>
     </g>
    </g>
    <g id="xtick_6">
     <g id="line2d_18">
      <path clip-path="url(#p00fe920b65)" d="M 311.472375 159.744 
L 311.472375 41.472 
" style="fill:none;stroke:#b0b0b0;stroke-linecap:square;stroke-width:0.8;"/>
     </g>
     <g id="line2d_19">
      <g>
       <use style="stroke:#000000;stroke-width:0.8;" x="311.472375" xlink:href="#md082938005" y="159.744"/>
      </g>
     </g>
     <g id="text_10">
      <!-- 100 -->
      <g transform="translate(301.928625 174.342437)scale(0.1 -0.1)">
       <use xlink:href="#DejaVuSans-31"/>
       <use x="63.623047" xlink:href="#DejaVuSans-30"/>
       <use x="127.246094" xlink:href="#DejaVuSans-30"/>
      </g>
     </g>
    </g>
    <g id="xtick_7">
     <g id="line2d_20">
      <path clip-path="url(#p00fe920b65)" d="M 359.730204 159.744 
L 359.730204 41.472 
" style="fill:none;stroke:#b0b0b0;stroke-linecap:square;stroke-width:0.8;"/>
     </g>
     <g id="line2d_21">
      <g>
       <use style="stroke:#000000;stroke-width:0.8;" x="359.730204" xlink:href="#md082938005" y="159.744"/>
      </g>
     </g>
     <g id="text_11">
      <!-- 200 -->
      <g transform="translate(350.186454 174.342437)scale(0.1 -0.1)">
       <use xlink:href="#DejaVuSans-32"/>
       <use x="63.623047" xlink:href="#DejaVuSans-30"/>
       <use x="127.246094" xlink:href="#DejaVuSans-30"/>
      </g>
     </g>
    </g>
    <g id="xtick_8">
     <g id="line2d_22">
      <path clip-path="url(#p00fe920b65)" d="M 407.988033 159.744 
L 407.988033 41.472 
" style="fill:none;stroke:#b0b0b0;stroke-linecap:square;stroke-width:0.8;"/>
     </g>
     <g id="line2d_23">
      <g>
       <use style="stroke:#000000;stroke-width:0.8;" x="407.988033" xlink:href="#md082938005" y="159.744"/>
      </g>
     </g>
     <g id="text_12">
      <!-- 300 -->
      <g transform="translate(398.444283 174.342437)scale(0.1 -0.1)">
       <use xlink:href="#DejaVuSans-33"/>
       <use x="63.623047" xlink:href="#DejaVuSans-30"/>
       <use x="127.246094" xlink:href="#DejaVuSans-30"/>
      </g>
     </g>
    </g>
   </g>
   <g id="matplotlib.axis_4">
    <g id="ytick_4">
     <g id="line2d_24">
      <path clip-path="url(#p00fe920b65)" d="M 256 153.78922 
L 414.72 153.78922 
" style="fill:none;stroke:#b0b0b0;stroke-linecap:square;stroke-width:0.8;"/>
     </g>
     <g id="line2d_25">
      <g>
       <use style="stroke:#000000;stroke-width:0.8;" x="256" xlink:href="#m63ceaaab1a" y="153.78922"/>
      </g>
     </g>
     <g id="text_13">
      <!-- 3.5 -->
      <g transform="translate(233.096875 157.588439)scale(0.1 -0.1)">
       <use xlink:href="#DejaVuSans-33"/>
       <use x="63.623047" xlink:href="#DejaVuSans-2e"/>
       <use x="95.410156" xlink:href="#DejaVuSans-35"/>
      </g>
     </g>
    </g>
    <g id="ytick_5">
     <g id="line2d_26">
      <path clip-path="url(#p00fe920b65)" d="M 256 127.662719 
L 414.72 127.662719 
" style="fill:none;stroke:#b0b0b0;stroke-linecap:square;stroke-width:0.8;"/>
     </g>
     <g id="line2d_27">
      <g>
       <use style="stroke:#000000;stroke-width:0.8;" x="256" xlink:href="#m63ceaaab1a" y="127.662719"/>
      </g>
     </g>
     <g id="text_14">
      <!-- 4.0 -->
      <defs>
       <path d="M 37.796875 64.3125 
L 12.890625 25.390625 
L 37.796875 25.390625 
z
M 35.203125 72.90625 
L 47.609375 72.90625 
L 47.609375 25.390625 
L 58.015625 25.390625 
L 58.015625 17.1875 
L 47.609375 17.1875 
L 47.609375 0 
L 37.796875 0 
L 37.796875 17.1875 
L 4.890625 17.1875 
L 4.890625 26.703125 
z
" id="DejaVuSans-34"/>
      </defs>
      <g transform="translate(233.096875 131.461938)scale(0.1 -0.1)">
       <use xlink:href="#DejaVuSans-34"/>
       <use x="63.623047" xlink:href="#DejaVuSans-2e"/>
       <use x="95.410156" xlink:href="#DejaVuSans-30"/>
      </g>
     </g>
    </g>
    <g id="ytick_6">
     <g id="line2d_28">
      <path clip-path="url(#p00fe920b65)" d="M 256 101.536219 
L 414.72 101.536219 
" style="fill:none;stroke:#b0b0b0;stroke-linecap:square;stroke-width:0.8;"/>
     </g>
     <g id="line2d_29">
      <g>
       <use style="stroke:#000000;stroke-width:0.8;" x="256" xlink:href="#m63ceaaab1a" y="101.536219"/>
      </g>
     </g>
     <g id="text_15">
      <!-- 4.5 -->
      <g transform="translate(233.096875 105.335437)scale(0.1 -0.1)">
       <use xlink:href="#DejaVuSans-34"/>
       <use x="63.623047" xlink:href="#DejaVuSans-2e"/>
       <use x="95.410156" xlink:href="#DejaVuSans-35"/>
      </g>
     </g>
    </g>
    <g id="ytick_7">
     <g id="line2d_30">
      <path clip-path="url(#p00fe920b65)" d="M 256 75.409718 
L 414.72 75.409718 
" style="fill:none;stroke:#b0b0b0;stroke-linecap:square;stroke-width:0.8;"/>
     </g>
     <g id="line2d_31">
      <g>
       <use style="stroke:#000000;stroke-width:0.8;" x="256" xlink:href="#m63ceaaab1a" y="75.409718"/>
      </g>
     </g>
     <g id="text_16">
      <!-- 5.0 -->
      <g transform="translate(233.096875 79.208937)scale(0.1 -0.1)">
       <use xlink:href="#DejaVuSans-35"/>
       <use x="63.623047" xlink:href="#DejaVuSans-2e"/>
       <use x="95.410156" xlink:href="#DejaVuSans-30"/>
      </g>
     </g>
    </g>
    <g id="ytick_8">
     <g id="line2d_32">
      <path clip-path="url(#p00fe920b65)" d="M 256 49.283217 
L 414.72 49.283217 
" style="fill:none;stroke:#b0b0b0;stroke-linecap:square;stroke-width:0.8;"/>
     </g>
     <g id="line2d_33">
      <g>
       <use style="stroke:#000000;stroke-width:0.8;" x="256" xlink:href="#m63ceaaab1a" y="49.283217"/>
      </g>
     </g>
     <g id="text_17">
      <!-- 5.5 -->
      <g transform="translate(233.096875 53.082436)scale(0.1 -0.1)">
       <use xlink:href="#DejaVuSans-35"/>
       <use x="63.623047" xlink:href="#DejaVuSans-2e"/>
       <use x="95.410156" xlink:href="#DejaVuSans-35"/>
      </g>
     </g>
    </g>
   </g>
   <g id="line2d_34">
    <path clip-path="url(#p00fe920b65)" d="M 263.214545 46.848 
L 263.697124 48.57405 
L 265.144859 56.850393 
L 268.522907 78.342256 
L 269.970642 85.027487 
L 270.935798 88.688016 
L 272.383533 93.181079 
L 273.34869 95.879881 
L 273.831268 96.490458 
L 274.313846 98.006091 
L 275.761581 100.758024 
L 277.209316 103.290825 
L 278.657051 105.702415 
L 279.622207 106.868235 
L 280.587364 108.358041 
L 281.069942 108.830172 
L 283.482834 111.835862 
L 283.965412 112.151409 
L 286.378303 115.02527 
L 286.860882 115.299243 
L 288.308617 116.856631 
L 288.791195 116.97252 
L 289.273773 117.691658 
L 289.756351 117.94526 
L 290.721508 119.09588 
L 291.204086 119.278091 
L 291.686665 119.69986 
L 292.169243 120.305354 
L 293.616978 121.35841 
L 294.099556 121.858061 
L 294.582134 122.003088 
L 295.064713 122.680742 
L 295.547291 122.702333 
L 296.029869 123.544192 
L 296.512448 123.548743 
L 296.995026 123.715992 
L 298.442761 125.117828 
L 298.925339 125.423796 
L 299.890496 126.305134 
L 300.373074 126.573149 
L 300.855652 126.667458 
L 301.33823 127.126196 
L 301.820809 127.274726 
L 302.303387 128.111388 
L 302.785965 128.00654 
L 303.268544 128.098991 
L 303.751122 128.900678 
L 304.2337 129.142134 
L 304.716279 129.617518 
L 305.198857 129.343808 
L 305.681435 129.527592 
L 306.164013 130.31252 
L 306.646592 130.732365 
L 307.611748 130.675488 
L 308.094327 131.102691 
L 308.576905 131.363931 
L 309.059483 132.072118 
L 309.542061 132.033471 
L 310.02464 132.862325 
L 310.507218 132.589865 
L 310.989796 132.70956 
L 311.472375 133.19396 
L 312.437531 133.886195 
L 312.920109 133.723362 
L 313.402688 134.271065 
L 313.885266 134.522398 
L 314.367844 134.591078 
L 314.850423 135.093951 
L 315.333001 134.964042 
L 315.815579 135.390317 
L 316.298157 135.529064 
L 316.780736 136.015315 
L 317.745892 136.088888 
L 318.228471 136.311467 
L 319.676206 137.482532 
L 320.158784 137.68906 
L 320.641362 137.342012 
L 321.12394 137.975258 
L 321.606519 138.009855 
L 322.089097 138.543258 
L 322.571675 138.615997 
L 323.054254 138.315688 
L 324.01941 139.046553 
L 324.501988 139.058367 
L 325.949723 139.733547 
L 326.432302 139.801945 
L 326.91488 140.172353 
L 328.362615 140.520249 
L 328.845193 140.517596 
L 329.327771 140.900786 
L 330.292928 140.964474 
L 330.775506 141.127608 
L 331.258085 141.158119 
L 331.740663 142.022177 
L 332.223241 141.956578 
L 332.705819 142.268868 
L 333.188398 142.218515 
L 333.670976 142.532894 
L 334.153554 142.378251 
L 335.601289 142.558794 
L 336.083867 143.143551 
L 336.566446 143.020939 
L 337.531602 143.326984 
L 338.014181 143.382857 
L 338.496759 143.756746 
L 339.461915 143.770457 
L 339.944494 144.141254 
L 342.839964 144.673863 
L 343.322542 144.995061 
L 343.80512 144.881757 
L 344.770277 145.683323 
L 345.252855 145.423842 
L 345.735433 145.750434 
L 346.70059 145.347986 
L 347.183168 145.878783 
L 348.148325 145.858417 
L 348.630903 146.013118 
L 349.113481 145.963108 
L 349.59606 146.365159 
L 350.561216 146.718953 
L 351.043794 146.495947 
L 351.526373 146.885336 
L 352.008951 147.089543 
L 352.974108 146.956497 
L 353.939264 147.531298 
L 354.421843 147.166845 
L 355.386999 147.383416 
L 355.869577 147.725024 
L 356.352156 147.772807 
L 356.834734 148.049201 
L 357.317312 147.493966 
L 357.799891 148.043951 
L 358.282469 148.349009 
L 358.765047 147.941401 
L 359.247625 148.565484 
L 359.730204 148.398864 
L 360.212782 148.791566 
L 360.69536 148.176117 
L 361.177939 148.571573 
L 361.660517 148.709881 
L 362.143095 148.534733 
L 362.625673 148.786808 
L 363.108252 148.692338 
L 363.59083 149.060152 
L 364.073408 149.052163 
L 366.4863 149.519081 
L 366.968878 149.134278 
L 367.451456 149.75601 
L 367.934035 149.431552 
L 368.899191 150.055754 
L 369.38177 150.19654 
L 369.864348 150.006761 
L 370.346926 149.540145 
L 370.829504 150.145819 
L 372.277239 150.411115 
L 372.759818 150.625651 
L 373.242396 150.246567 
L 373.724974 150.683449 
L 374.207552 150.425112 
L 374.690131 151.143977 
L 375.172709 150.730605 
L 375.655287 150.934268 
L 376.137866 150.699609 
L 376.620444 151.038248 
L 377.103022 150.651555 
L 377.5856 151.446475 
L 378.068179 151.106617 
L 378.550757 151.129408 
L 379.033335 151.547917 
L 379.998492 151.230074 
L 380.48107 151.404608 
L 380.963649 151.369534 
L 381.446227 151.938782 
L 381.928805 151.508979 
L 382.411383 151.80614 
L 382.893962 151.520573 
L 383.859118 151.810038 
L 384.824275 152.161554 
L 385.306853 151.957687 
L 385.789431 152.117583 
L 386.27201 152.405355 
L 386.754588 151.933151 
L 387.237166 152.411014 
L 387.719745 152.382354 
L 388.202323 152.073149 
L 389.167479 152.598942 
L 389.650058 152.695236 
L 390.615214 152.595046 
L 391.580371 152.954976 
L 392.062949 152.512073 
L 392.545528 153.14228 
L 393.028106 152.679202 
L 393.510684 152.875145 
L 393.993262 152.841482 
L 394.475841 153.460304 
L 394.958419 153.197357 
L 395.440997 153.334824 
L 395.923576 153.04318 
L 396.406154 153.236078 
L 396.888732 153.304266 
L 397.37131 153.648808 
L 397.853889 153.291839 
L 398.819045 153.328346 
L 399.301624 154.039071 
L 399.784202 153.040972 
L 400.26678 153.66194 
L 400.749358 153.874577 
L 401.231937 153.701843 
L 401.714515 153.946045 
L 402.197093 153.548694 
L 402.679672 154.045966 
L 403.16225 153.754954 
L 403.644828 153.728192 
L 404.127407 154.098231 
L 404.609985 153.710249 
L 405.092563 154.122846 
L 405.575141 154.328831 
L 406.05772 154.135719 
L 406.540298 154.25895 
L 407.022876 154.238823 
L 407.505455 154.368 
L 407.505455 154.368 
" style="fill:none;stroke:#1f77b4;stroke-linecap:square;stroke-width:1.5;"/>
   </g>
   <g id="patch_8">
    <path d="M 256 159.744 
L 256 41.472 
" style="fill:none;stroke:#000000;stroke-linecap:square;stroke-linejoin:miter;stroke-width:0.8;"/>
   </g>
   <g id="patch_9">
    <path d="M 414.72 159.744 
L 414.72 41.472 
" style="fill:none;stroke:#000000;stroke-linecap:square;stroke-linejoin:miter;stroke-width:0.8;"/>
   </g>
   <g id="patch_10">
    <path d="M 256 159.744 
L 414.72 159.744 
" style="fill:none;stroke:#000000;stroke-linecap:square;stroke-linejoin:miter;stroke-width:0.8;"/>
   </g>
   <g id="patch_11">
    <path d="M 256 41.472 
L 414.72 41.472 
" style="fill:none;stroke:#000000;stroke-linecap:square;stroke-linejoin:miter;stroke-width:0.8;"/>
   </g>
   <g id="text_18">
    <!-- loss -->
    <defs>
     <path d="M 9.421875 75.984375 
L 18.40625 75.984375 
L 18.40625 0 
L 9.421875 0 
z
" id="DejaVuSans-6c"/>
     <path d="M 30.609375 48.390625 
Q 23.390625 48.390625 19.1875 42.75 
Q 14.984375 37.109375 14.984375 27.296875 
Q 14.984375 17.484375 19.15625 11.84375 
Q 23.34375 6.203125 30.609375 6.203125 
Q 37.796875 6.203125 41.984375 11.859375 
Q 46.1875 17.53125 46.1875 27.296875 
Q 46.1875 37.015625 41.984375 42.703125 
Q 37.796875 48.390625 30.609375 48.390625 
z
M 30.609375 56 
Q 42.328125 56 49.015625 48.375 
Q 55.71875 40.765625 55.71875 27.296875 
Q 55.71875 13.875 49.015625 6.21875 
Q 42.328125 -1.421875 30.609375 -1.421875 
Q 18.84375 -1.421875 12.171875 6.21875 
Q 5.515625 13.875 5.515625 27.296875 
Q 5.515625 40.765625 12.171875 48.375 
Q 18.84375 56 30.609375 56 
z
" id="DejaVuSans-6f"/>
     <path d="M 44.28125 53.078125 
L 44.28125 44.578125 
Q 40.484375 46.53125 36.375 47.5 
Q 32.28125 48.484375 27.875 48.484375 
Q 21.1875 48.484375 17.84375 46.4375 
Q 14.5 44.390625 14.5 40.28125 
Q 14.5 37.15625 16.890625 35.375 
Q 19.28125 33.59375 26.515625 31.984375 
L 29.59375 31.296875 
Q 39.15625 29.25 43.1875 25.515625 
Q 47.21875 21.78125 47.21875 15.09375 
Q 47.21875 7.46875 41.1875 3.015625 
Q 35.15625 -1.421875 24.609375 -1.421875 
Q 20.21875 -1.421875 15.453125 -0.5625 
Q 10.6875 0.296875 5.421875 2 
L 5.421875 11.28125 
Q 10.40625 8.6875 15.234375 7.390625 
Q 20.0625 6.109375 24.8125 6.109375 
Q 31.15625 6.109375 34.5625 8.28125 
Q 37.984375 10.453125 37.984375 14.40625 
Q 37.984375 18.0625 35.515625 20.015625 
Q 33.0625 21.96875 24.703125 23.78125 
L 21.578125 24.515625 
Q 13.234375 26.265625 9.515625 29.90625 
Q 5.8125 33.546875 5.8125 39.890625 
Q 5.8125 47.609375 11.28125 51.796875 
Q 16.75 56 26.8125 56 
Q 31.78125 56 36.171875 55.265625 
Q 40.578125 54.546875 44.28125 53.078125 
z
" id="DejaVuSans-73"/>
    </defs>
    <g transform="translate(323.770625 35.472)scale(0.12 -0.12)">
     <use xlink:href="#DejaVuSans-6c"/>
     <use x="27.783203" xlink:href="#DejaVuSans-6f"/>
     <use x="88.964844" xlink:href="#DejaVuSans-73"/>
     <use x="141.064453" xlink:href="#DejaVuSans-73"/>
    </g>
   </g>
  </g>
  <g id="axes_3">
   <g id="patch_12">
    <path d="M 57.6 307.584 
L 216.32 307.584 
L 216.32 189.312 
L 57.6 189.312 
z
" style="fill:#ffffff;"/>
   </g>
   <g id="matplotlib.axis_5">
    <g id="xtick_9">
     <g id="line2d_35">
      <path clip-path="url(#pb9c55ed3ba)" d="M 64.814545 307.584 
L 64.814545 189.312 
" style="fill:none;stroke:#b0b0b0;stroke-linecap:square;stroke-width:0.8;"/>
     </g>
     <g id="line2d_36">
      <g>
       <use style="stroke:#000000;stroke-width:0.8;" x="64.814545" xlink:href="#md082938005" y="307.584"/>
      </g>
     </g>
     <g id="text_19">
      <!-- 0 -->
      <g transform="translate(61.633295 322.182437)scale(0.1 -0.1)">
       <use xlink:href="#DejaVuSans-30"/>
      </g>
     </g>
    </g>
    <g id="xtick_10">
     <g id="line2d_37">
      <path clip-path="url(#pb9c55ed3ba)" d="M 113.072375 307.584 
L 113.072375 189.312 
" style="fill:none;stroke:#b0b0b0;stroke-linecap:square;stroke-width:0.8;"/>
     </g>
     <g id="line2d_38">
      <g>
       <use style="stroke:#000000;stroke-width:0.8;" x="113.072375" xlink:href="#md082938005" y="307.584"/>
      </g>
     </g>
     <g id="text_20">
      <!-- 100 -->
      <g transform="translate(103.528625 322.182437)scale(0.1 -0.1)">
       <use xlink:href="#DejaVuSans-31"/>
       <use x="63.623047" xlink:href="#DejaVuSans-30"/>
       <use x="127.246094" xlink:href="#DejaVuSans-30"/>
      </g>
     </g>
    </g>
    <g id="xtick_11">
     <g id="line2d_39">
      <path clip-path="url(#pb9c55ed3ba)" d="M 161.330204 307.584 
L 161.330204 189.312 
" style="fill:none;stroke:#b0b0b0;stroke-linecap:square;stroke-width:0.8;"/>
     </g>
     <g id="line2d_40">
      <g>
       <use style="stroke:#000000;stroke-width:0.8;" x="161.330204" xlink:href="#md082938005" y="307.584"/>
      </g>
     </g>
     <g id="text_21">
      <!-- 200 -->
      <g transform="translate(151.786454 322.182437)scale(0.1 -0.1)">
       <use xlink:href="#DejaVuSans-32"/>
       <use x="63.623047" xlink:href="#DejaVuSans-30"/>
       <use x="127.246094" xlink:href="#DejaVuSans-30"/>
      </g>
     </g>
    </g>
    <g id="xtick_12">
     <g id="line2d_41">
      <path clip-path="url(#pb9c55ed3ba)" d="M 209.588033 307.584 
L 209.588033 189.312 
" style="fill:none;stroke:#b0b0b0;stroke-linecap:square;stroke-width:0.8;"/>
     </g>
     <g id="line2d_42">
      <g>
       <use style="stroke:#000000;stroke-width:0.8;" x="209.588033" xlink:href="#md082938005" y="307.584"/>
      </g>
     </g>
     <g id="text_22">
      <!-- 300 -->
      <g transform="translate(200.044283 322.182437)scale(0.1 -0.1)">
       <use xlink:href="#DejaVuSans-33"/>
       <use x="63.623047" xlink:href="#DejaVuSans-30"/>
       <use x="127.246094" xlink:href="#DejaVuSans-30"/>
      </g>
     </g>
    </g>
   </g>
   <g id="matplotlib.axis_6">
    <g id="ytick_9">
     <g id="line2d_43">
      <path clip-path="url(#pb9c55ed3ba)" d="M 57.6 304.651636 
L 216.32 304.651636 
" style="fill:none;stroke:#b0b0b0;stroke-linecap:square;stroke-width:0.8;"/>
     </g>
     <g id="line2d_44">
      <g>
       <use style="stroke:#000000;stroke-width:0.8;" x="57.6" xlink:href="#m63ceaaab1a" y="304.651636"/>
      </g>
     </g>
     <g id="text_23">
      <!-- 0.00 -->
      <g transform="translate(28.334375 308.450855)scale(0.1 -0.1)">
       <use xlink:href="#DejaVuSans-30"/>
       <use x="63.623047" xlink:href="#DejaVuSans-2e"/>
       <use x="95.410156" xlink:href="#DejaVuSans-30"/>
       <use x="159.033203" xlink:href="#DejaVuSans-30"/>
      </g>
     </g>
    </g>
    <g id="ytick_10">
     <g id="line2d_45">
      <path clip-path="url(#pb9c55ed3ba)" d="M 57.6 273.373092 
L 216.32 273.373092 
" style="fill:none;stroke:#b0b0b0;stroke-linecap:square;stroke-width:0.8;"/>
     </g>
     <g id="line2d_46">
      <g>
       <use style="stroke:#000000;stroke-width:0.8;" x="57.6" xlink:href="#m63ceaaab1a" y="273.373092"/>
      </g>
     </g>
     <g id="text_24">
      <!-- 0.05 -->
      <g transform="translate(28.334375 277.17231)scale(0.1 -0.1)">
       <use xlink:href="#DejaVuSans-30"/>
       <use x="63.623047" xlink:href="#DejaVuSans-2e"/>
       <use x="95.410156" xlink:href="#DejaVuSans-30"/>
       <use x="159.033203" xlink:href="#DejaVuSans-35"/>
      </g>
     </g>
    </g>
    <g id="ytick_11">
     <g id="line2d_47">
      <path clip-path="url(#pb9c55ed3ba)" d="M 57.6 242.094547 
L 216.32 242.094547 
" style="fill:none;stroke:#b0b0b0;stroke-linecap:square;stroke-width:0.8;"/>
     </g>
     <g id="line2d_48">
      <g>
       <use style="stroke:#000000;stroke-width:0.8;" x="57.6" xlink:href="#m63ceaaab1a" y="242.094547"/>
      </g>
     </g>
     <g id="text_25">
      <!-- 0.10 -->
      <g transform="translate(28.334375 245.893766)scale(0.1 -0.1)">
       <use xlink:href="#DejaVuSans-30"/>
       <use x="63.623047" xlink:href="#DejaVuSans-2e"/>
       <use x="95.410156" xlink:href="#DejaVuSans-31"/>
       <use x="159.033203" xlink:href="#DejaVuSans-30"/>
      </g>
     </g>
    </g>
    <g id="ytick_12">
     <g id="line2d_49">
      <path clip-path="url(#pb9c55ed3ba)" d="M 57.6 210.816002 
L 216.32 210.816002 
" style="fill:none;stroke:#b0b0b0;stroke-linecap:square;stroke-width:0.8;"/>
     </g>
     <g id="line2d_50">
      <g>
       <use style="stroke:#000000;stroke-width:0.8;" x="57.6" xlink:href="#m63ceaaab1a" y="210.816002"/>
      </g>
     </g>
     <g id="text_26">
      <!-- 0.15 -->
      <g transform="translate(28.334375 214.615221)scale(0.1 -0.1)">
       <use xlink:href="#DejaVuSans-30"/>
       <use x="63.623047" xlink:href="#DejaVuSans-2e"/>
       <use x="95.410156" xlink:href="#DejaVuSans-31"/>
       <use x="159.033203" xlink:href="#DejaVuSans-35"/>
      </g>
     </g>
    </g>
   </g>
   <g id="line2d_51">
    <path clip-path="url(#pb9c55ed3ba)" d="M 64.814545 302.208 
L 66.26228 302.208 
L 66.744859 297.320727 
L 67.227437 297.320727 
L 67.710015 292.433455 
L 68.192593 294.877091 
L 69.15775 289.989818 
L 69.640328 297.320727 
L 70.122907 297.320727 
L 70.605485 292.433455 
L 71.088063 297.320727 
L 73.018376 287.546182 
L 73.500955 294.877091 
L 73.983533 280.215273 
L 74.466111 282.658909 
L 74.94869 282.658909 
L 75.431268 280.215273 
L 75.913846 270.440728 
L 76.396424 277.771637 
L 76.879003 287.546182 
L 77.361581 280.215273 
L 77.844159 285.102546 
L 78.326738 270.440728 
L 78.809316 272.884364 
L 79.291894 270.440728 
L 79.774472 270.440727 
L 80.257051 282.658909 
L 80.739629 263.109819 
L 81.222207 267.997091 
L 81.704786 267.997091 
L 82.187364 277.771637 
L 82.669942 258.222546 
L 83.152521 275.328 
L 83.635099 258.222546 
L 84.117677 267.997091 
L 84.600255 275.328 
L 85.082834 267.997091 
L 86.04799 263.109819 
L 86.530569 255.778909 
L 87.013147 260.666182 
L 87.495725 253.335273 
L 87.978303 258.222546 
L 88.460882 250.891637 
L 88.94346 258.222546 
L 89.426038 263.109819 
L 89.908617 255.77891 
L 90.391195 263.109819 
L 90.873773 255.778909 
L 91.356351 263.109819 
L 91.83893 267.997091 
L 92.321508 258.222546 
L 93.286665 258.222545 
L 93.769243 246.004364 
L 94.251821 248.448 
L 94.7344 243.560727 
L 95.216978 253.335273 
L 95.699556 243.560727 
L 96.182134 246.004364 
L 96.664713 246.004364 
L 97.147291 255.77891 
L 97.629869 253.335273 
L 98.112448 238.673455 
L 98.595026 246.004364 
L 99.077604 250.891637 
L 99.560182 250.891637 
L 100.042761 248.448 
L 100.525339 248.448 
L 101.007917 246.004364 
L 102.455652 246.004364 
L 102.93823 241.117091 
L 103.420809 248.448001 
L 103.903387 243.560728 
L 104.385965 255.778909 
L 104.868544 248.448001 
L 105.351122 248.448 
L 105.8337 255.778909 
L 106.316279 236.229818 
L 106.798857 246.004364 
L 107.281435 233.786182 
L 107.764013 241.117092 
L 108.72917 231.342545 
L 109.211748 241.117091 
L 109.694327 233.786182 
L 110.176905 233.786182 
L 110.659483 250.891637 
L 111.142061 231.342546 
L 111.62464 243.560727 
L 112.107218 238.673455 
L 112.589796 243.560728 
L 113.072375 243.560727 
L 113.554953 241.117091 
L 114.037531 236.229819 
L 115.002688 236.229819 
L 115.485266 243.560727 
L 115.967844 253.335273 
L 116.450423 236.229818 
L 116.933001 236.229818 
L 117.415579 231.342546 
L 117.898157 236.229819 
L 118.380736 226.455273 
L 118.863314 231.342547 
L 119.345892 228.89891 
L 119.828471 228.89891 
L 120.311049 233.786182 
L 120.793627 231.342545 
L 121.276206 231.342546 
L 121.758784 236.229819 
L 122.241362 224.011636 
L 122.72394 233.786182 
L 123.206519 228.898909 
L 123.689097 236.229818 
L 124.171675 224.011636 
L 124.654254 233.786183 
L 125.136832 238.673455 
L 125.61941 231.342546 
L 126.101988 228.898909 
L 126.584567 224.011636 
L 127.067145 228.898909 
L 128.032302 233.786182 
L 128.51488 241.117091 
L 128.997458 236.229818 
L 129.480036 243.560727 
L 129.962615 248.448001 
L 130.445193 214.237092 
L 131.892928 243.560727 
L 132.375506 236.229819 
L 132.858085 241.117091 
L 133.340663 228.89891 
L 133.823241 221.568 
L 134.305819 231.342545 
L 134.788398 221.568001 
L 135.270976 231.342546 
L 135.753554 216.680728 
L 136.236133 214.237091 
L 136.718711 231.342546 
L 137.201289 221.568001 
L 137.683867 231.342545 
L 138.166446 238.673455 
L 138.649024 231.342546 
L 139.131602 214.237091 
L 139.614181 236.229819 
L 140.096759 221.568001 
L 140.579337 228.89891 
L 141.544494 219.124364 
L 142.027072 228.89891 
L 142.50965 231.342545 
L 142.992229 236.229819 
L 143.474807 228.89891 
L 143.957385 226.455274 
L 144.922542 231.342546 
L 145.40512 226.455273 
L 145.887698 233.786182 
L 146.852855 219.124364 
L 147.335433 226.455273 
L 147.818012 219.124364 
L 148.30059 233.786182 
L 148.783168 214.237091 
L 149.265746 236.229818 
L 149.748325 204.462546 
L 150.230903 221.568001 
L 150.713481 209.349819 
L 151.19606 219.124364 
L 151.678638 231.342545 
L 152.161216 233.786183 
L 153.126373 206.906183 
L 153.608951 233.786182 
L 154.091529 221.568 
L 154.574108 226.455274 
L 155.056686 214.237092 
L 155.539264 228.898909 
L 156.021843 224.011637 
L 156.504421 221.568 
L 156.986999 236.229819 
L 157.469577 226.455274 
L 157.952156 221.568001 
L 158.917312 231.342545 
L 159.399891 221.568001 
L 159.882469 214.237092 
L 160.365047 209.349819 
L 160.847625 224.011637 
L 161.330204 214.237092 
L 161.812782 224.011637 
L 162.29536 221.568 
L 162.777939 209.349819 
L 163.260517 224.011636 
L 163.743095 228.898909 
L 164.225673 236.229818 
L 164.708252 211.793454 
L 165.19083 214.237092 
L 165.673408 226.455273 
L 166.638565 236.229819 
L 167.121143 214.237091 
L 167.603721 221.568 
L 168.0863 221.568 
L 168.568878 216.680728 
L 169.051456 224.011638 
L 169.534035 228.898909 
L 170.016613 228.89891 
L 170.499191 221.568 
L 170.98177 216.680728 
L 171.464348 236.229818 
L 171.946926 211.793454 
L 172.429504 231.342545 
L 172.912083 226.455273 
L 173.877239 221.568001 
L 174.359818 226.455273 
L 174.842396 206.906182 
L 175.324974 216.680728 
L 175.807552 236.229819 
L 176.290131 211.793455 
L 176.772709 216.680728 
L 177.255287 231.342545 
L 177.737866 216.680728 
L 178.220444 214.237091 
L 178.703022 216.680728 
L 179.1856 214.237091 
L 179.668179 228.89891 
L 180.150757 214.237091 
L 181.115914 228.89891 
L 181.598492 214.237091 
L 182.08107 214.237091 
L 182.563649 211.793455 
L 183.046227 219.124364 
L 184.011383 224.011637 
L 184.493962 224.011637 
L 184.97654 228.898909 
L 185.459118 219.124364 
L 185.941697 224.011637 
L 186.424275 219.124364 
L 186.906853 216.680727 
L 187.389431 216.680728 
L 187.87201 221.568 
L 188.354588 204.462546 
L 188.837166 233.786183 
L 189.319745 226.455273 
L 189.802323 226.455272 
L 190.284901 219.124364 
L 190.767479 221.568 
L 191.250058 199.575273 
L 191.732636 204.462546 
L 192.215214 221.568001 
L 192.697793 206.906183 
L 193.180371 219.124364 
L 193.662949 226.455273 
L 194.145528 219.124364 
L 194.628106 221.568 
L 195.110684 216.680728 
L 195.593262 206.906182 
L 196.075841 204.462546 
L 196.558419 211.793455 
L 197.040997 209.349819 
L 198.006154 219.124364 
L 198.488732 197.131636 
L 198.97131 216.680728 
L 199.453889 221.568 
L 199.936467 214.237091 
L 200.419045 197.131638 
L 200.901624 216.680728 
L 201.384202 194.688 
L 201.86678 214.237092 
L 202.349358 219.124363 
L 202.831937 206.906182 
L 203.314515 216.680728 
L 203.797093 224.011637 
L 204.279672 204.462546 
L 204.76225 216.680728 
L 205.244828 214.237092 
L 205.727407 216.680727 
L 206.209985 204.462546 
L 206.692563 219.124364 
L 207.175141 228.89891 
L 207.65772 214.237091 
L 208.140298 221.568 
L 208.622876 211.793454 
L 209.105455 206.906182 
L 209.105455 206.906182 
" style="fill:none;stroke:#1f77b4;stroke-linecap:square;stroke-width:1.5;"/>
   </g>
   <g id="patch_13">
    <path d="M 57.6 307.584 
L 57.6 189.312 
" style="fill:none;stroke:#000000;stroke-linecap:square;stroke-linejoin:miter;stroke-width:0.8;"/>
   </g>
   <g id="patch_14">
    <path d="M 216.32 307.584 
L 216.32 189.312 
" style="fill:none;stroke:#000000;stroke-linecap:square;stroke-linejoin:miter;stroke-width:0.8;"/>
   </g>
   <g id="patch_15">
    <path d="M 57.6 307.584 
L 216.32 307.584 
" style="fill:none;stroke:#000000;stroke-linecap:square;stroke-linejoin:miter;stroke-width:0.8;"/>
   </g>
   <g id="patch_16">
    <path d="M 57.6 189.312 
L 216.32 189.312 
" style="fill:none;stroke:#000000;stroke-linecap:square;stroke-linejoin:miter;stroke-width:0.8;"/>
   </g>
   <g id="text_27">
    <!-- val_acc -->
    <defs>
     <path d="M 2.984375 54.6875 
L 12.5 54.6875 
L 29.59375 8.796875 
L 46.6875 54.6875 
L 56.203125 54.6875 
L 35.6875 0 
L 23.484375 0 
z
" id="DejaVuSans-76"/>
     <path d="M 50.984375 -16.609375 
L 50.984375 -23.578125 
L -0.984375 -23.578125 
L -0.984375 -16.609375 
z
" id="DejaVuSans-5f"/>
    </defs>
    <g transform="translate(114.79 183.312)scale(0.12 -0.12)">
     <use xlink:href="#DejaVuSans-76"/>
     <use x="59.179688" xlink:href="#DejaVuSans-61"/>
     <use x="120.458984" xlink:href="#DejaVuSans-6c"/>
     <use x="148.242188" xlink:href="#DejaVuSans-5f"/>
     <use x="198.242188" xlink:href="#DejaVuSans-61"/>
     <use x="259.521484" xlink:href="#DejaVuSans-63"/>
     <use x="314.501953" xlink:href="#DejaVuSans-63"/>
    </g>
   </g>
  </g>
  <g id="axes_4">
   <g id="patch_17">
    <path d="M 256 307.584 
L 414.72 307.584 
L 414.72 189.312 
L 256 189.312 
z
" style="fill:#ffffff;"/>
   </g>
   <g id="matplotlib.axis_7">
    <g id="xtick_13">
     <g id="line2d_52">
      <path clip-path="url(#pe2b50db223)" d="M 263.214545 307.584 
L 263.214545 189.312 
" style="fill:none;stroke:#b0b0b0;stroke-linecap:square;stroke-width:0.8;"/>
     </g>
     <g id="line2d_53">
      <g>
       <use style="stroke:#000000;stroke-width:0.8;" x="263.214545" xlink:href="#md082938005" y="307.584"/>
      </g>
     </g>
     <g id="text_28">
      <!-- 0 -->
      <g transform="translate(260.033295 322.182437)scale(0.1 -0.1)">
       <use xlink:href="#DejaVuSans-30"/>
      </g>
     </g>
    </g>
    <g id="xtick_14">
     <g id="line2d_54">
      <path clip-path="url(#pe2b50db223)" d="M 311.472375 307.584 
L 311.472375 189.312 
" style="fill:none;stroke:#b0b0b0;stroke-linecap:square;stroke-width:0.8;"/>
     </g>
     <g id="line2d_55">
      <g>
       <use style="stroke:#000000;stroke-width:0.8;" x="311.472375" xlink:href="#md082938005" y="307.584"/>
      </g>
     </g>
     <g id="text_29">
      <!-- 100 -->
      <g transform="translate(301.928625 322.182437)scale(0.1 -0.1)">
       <use xlink:href="#DejaVuSans-31"/>
       <use x="63.623047" xlink:href="#DejaVuSans-30"/>
       <use x="127.246094" xlink:href="#DejaVuSans-30"/>
      </g>
     </g>
    </g>
    <g id="xtick_15">
     <g id="line2d_56">
      <path clip-path="url(#pe2b50db223)" d="M 359.730204 307.584 
L 359.730204 189.312 
" style="fill:none;stroke:#b0b0b0;stroke-linecap:square;stroke-width:0.8;"/>
     </g>
     <g id="line2d_57">
      <g>
       <use style="stroke:#000000;stroke-width:0.8;" x="359.730204" xlink:href="#md082938005" y="307.584"/>
      </g>
     </g>
     <g id="text_30">
      <!-- 200 -->
      <g transform="translate(350.186454 322.182437)scale(0.1 -0.1)">
       <use xlink:href="#DejaVuSans-32"/>
       <use x="63.623047" xlink:href="#DejaVuSans-30"/>
       <use x="127.246094" xlink:href="#DejaVuSans-30"/>
      </g>
     </g>
    </g>
    <g id="xtick_16">
     <g id="line2d_58">
      <path clip-path="url(#pe2b50db223)" d="M 407.988033 307.584 
L 407.988033 189.312 
" style="fill:none;stroke:#b0b0b0;stroke-linecap:square;stroke-width:0.8;"/>
     </g>
     <g id="line2d_59">
      <g>
       <use style="stroke:#000000;stroke-width:0.8;" x="407.988033" xlink:href="#md082938005" y="307.584"/>
      </g>
     </g>
     <g id="text_31">
      <!-- 300 -->
      <g transform="translate(398.444283 322.182437)scale(0.1 -0.1)">
       <use xlink:href="#DejaVuSans-33"/>
       <use x="63.623047" xlink:href="#DejaVuSans-30"/>
       <use x="127.246094" xlink:href="#DejaVuSans-30"/>
      </g>
     </g>
    </g>
   </g>
   <g id="matplotlib.axis_8">
    <g id="ytick_13">
     <g id="line2d_60">
      <path clip-path="url(#pe2b50db223)" d="M 256 300.810547 
L 414.72 300.810547 
" style="fill:none;stroke:#b0b0b0;stroke-linecap:square;stroke-width:0.8;"/>
     </g>
     <g id="line2d_61">
      <g>
       <use style="stroke:#000000;stroke-width:0.8;" x="256" xlink:href="#m63ceaaab1a" y="300.810547"/>
      </g>
     </g>
     <g id="text_32">
      <!-- 3.5 -->
      <g transform="translate(233.096875 304.609765)scale(0.1 -0.1)">
       <use xlink:href="#DejaVuSans-33"/>
       <use x="63.623047" xlink:href="#DejaVuSans-2e"/>
       <use x="95.410156" xlink:href="#DejaVuSans-35"/>
      </g>
     </g>
    </g>
    <g id="ytick_14">
     <g id="line2d_62">
      <path clip-path="url(#pe2b50db223)" d="M 256 274.644153 
L 414.72 274.644153 
" style="fill:none;stroke:#b0b0b0;stroke-linecap:square;stroke-width:0.8;"/>
     </g>
     <g id="line2d_63">
      <g>
       <use style="stroke:#000000;stroke-width:0.8;" x="256" xlink:href="#m63ceaaab1a" y="274.644153"/>
      </g>
     </g>
     <g id="text_33">
      <!-- 4.0 -->
      <g transform="translate(233.096875 278.443372)scale(0.1 -0.1)">
       <use xlink:href="#DejaVuSans-34"/>
       <use x="63.623047" xlink:href="#DejaVuSans-2e"/>
       <use x="95.410156" xlink:href="#DejaVuSans-30"/>
      </g>
     </g>
    </g>
    <g id="ytick_15">
     <g id="line2d_64">
      <path clip-path="url(#pe2b50db223)" d="M 256 248.477759 
L 414.72 248.477759 
" style="fill:none;stroke:#b0b0b0;stroke-linecap:square;stroke-width:0.8;"/>
     </g>
     <g id="line2d_65">
      <g>
       <use style="stroke:#000000;stroke-width:0.8;" x="256" xlink:href="#m63ceaaab1a" y="248.477759"/>
      </g>
     </g>
     <g id="text_34">
      <!-- 4.5 -->
      <g transform="translate(233.096875 252.276978)scale(0.1 -0.1)">
       <use xlink:href="#DejaVuSans-34"/>
       <use x="63.623047" xlink:href="#DejaVuSans-2e"/>
       <use x="95.410156" xlink:href="#DejaVuSans-35"/>
      </g>
     </g>
    </g>
    <g id="ytick_16">
     <g id="line2d_66">
      <path clip-path="url(#pe2b50db223)" d="M 256 222.311366 
L 414.72 222.311366 
" style="fill:none;stroke:#b0b0b0;stroke-linecap:square;stroke-width:0.8;"/>
     </g>
     <g id="line2d_67">
      <g>
       <use style="stroke:#000000;stroke-width:0.8;" x="256" xlink:href="#m63ceaaab1a" y="222.311366"/>
      </g>
     </g>
     <g id="text_35">
      <!-- 5.0 -->
      <g transform="translate(233.096875 226.110585)scale(0.1 -0.1)">
       <use xlink:href="#DejaVuSans-35"/>
       <use x="63.623047" xlink:href="#DejaVuSans-2e"/>
       <use x="95.410156" xlink:href="#DejaVuSans-30"/>
      </g>
     </g>
    </g>
    <g id="ytick_17">
     <g id="line2d_68">
      <path clip-path="url(#pe2b50db223)" d="M 256 196.144972 
L 414.72 196.144972 
" style="fill:none;stroke:#b0b0b0;stroke-linecap:square;stroke-width:0.8;"/>
     </g>
     <g id="line2d_69">
      <g>
       <use style="stroke:#000000;stroke-width:0.8;" x="256" xlink:href="#m63ceaaab1a" y="196.144972"/>
      </g>
     </g>
     <g id="text_36">
      <!-- 5.5 -->
      <g transform="translate(233.096875 199.944191)scale(0.1 -0.1)">
       <use xlink:href="#DejaVuSans-35"/>
       <use x="63.623047" xlink:href="#DejaVuSans-2e"/>
       <use x="95.410156" xlink:href="#DejaVuSans-35"/>
      </g>
     </g>
    </g>
   </g>
   <g id="line2d_70">
    <path clip-path="url(#pe2b50db223)" d="M 263.214545 194.688 
L 264.66228 203.097016 
L 266.592593 216.146203 
L 267.55775 222.494066 
L 268.522907 227.874087 
L 269.970642 234.54934 
L 271.418376 239.838637 
L 272.866111 244.061533 
L 273.831268 246.377144 
L 274.796424 248.596356 
L 275.761581 250.322647 
L 276.244159 251.112072 
L 277.209316 252.963312 
L 279.622207 256.602874 
L 280.587364 258.03835 
L 281.552521 259.116271 
L 282.517677 260.314604 
L 283.965412 261.934085 
L 284.44799 262.60903 
L 284.930569 262.602994 
L 285.413147 263.537711 
L 285.895725 264.180205 
L 286.378303 264.436325 
L 286.860882 264.893443 
L 287.34346 265.08703 
L 287.826038 265.769406 
L 289.273773 267.081722 
L 289.756351 267.85105 
L 290.721508 268.526744 
L 291.204086 268.754353 
L 291.686665 269.292702 
L 292.169243 269.554419 
L 294.099556 271.169549 
L 295.064713 271.771602 
L 295.547291 272.626193 
L 296.029869 272.507295 
L 296.512448 272.642352 
L 297.477604 273.916896 
L 297.960182 274.089142 
L 298.442761 274.716348 
L 299.407917 275.081245 
L 299.890496 275.520487 
L 300.373074 275.507085 
L 300.855652 276.147178 
L 301.33823 276.394795 
L 301.820809 276.942679 
L 302.303387 276.959136 
L 302.785965 277.314138 
L 303.268544 277.985195 
L 303.751122 278.071394 
L 304.716279 278.01541 
L 305.198857 278.984048 
L 306.646592 279.592689 
L 307.12917 280.274172 
L 307.611748 280.164321 
L 308.094327 280.671498 
L 308.576905 280.806322 
L 309.059483 280.747977 
L 309.542061 281.47635 
L 310.02464 281.222259 
L 310.507218 281.361448 
L 311.472375 282.501489 
L 311.954953 282.453416 
L 312.437531 282.705523 
L 312.920109 282.768417 
L 313.402688 283.482425 
L 313.885266 283.447885 
L 314.367844 284.103018 
L 314.850423 283.640751 
L 315.333001 283.726195 
L 316.298157 284.593523 
L 317.263314 284.859375 
L 317.745892 285.45674 
L 318.711049 285.97622 
L 319.676206 286.037062 
L 320.158784 285.998969 
L 320.641362 286.337052 
L 321.12394 286.978076 
L 321.606519 287.131393 
L 322.089097 286.603312 
L 322.571675 286.971322 
L 323.054254 287.669769 
L 323.536832 287.943435 
L 324.01941 287.62545 
L 324.501988 288.424563 
L 324.984567 288.066968 
L 325.949723 288.692303 
L 326.432302 288.719709 
L 326.91488 288.588938 
L 327.880036 289.188222 
L 328.362615 289.101136 
L 328.845193 289.705206 
L 329.327771 289.637689 
L 329.81035 289.688686 
L 330.292928 289.464567 
L 330.775506 289.885855 
L 331.258085 290.640514 
L 331.740663 290.561909 
L 332.223241 290.868241 
L 332.705819 290.553707 
L 333.188398 290.724042 
L 333.670976 291.024106 
L 334.153554 291.014131 
L 334.636133 291.300543 
L 335.118711 291.327894 
L 335.601289 291.661224 
L 336.083867 291.671068 
L 336.566446 291.483551 
L 337.049024 291.88403 
L 337.531602 291.51574 
L 338.014181 291.925686 
L 338.496759 291.908173 
L 338.979337 292.414071 
L 339.461915 293.108532 
L 339.944494 292.39804 
L 340.427072 293.008547 
L 340.90965 292.282765 
L 341.874807 293.113471 
L 342.357385 293.080816 
L 342.839964 293.698387 
L 343.322542 293.297436 
L 343.80512 293.417976 
L 344.287698 293.817167 
L 344.770277 293.043051 
L 345.252855 294.113226 
L 345.735433 293.493421 
L 346.218012 293.421599 
L 346.70059 294.085491 
L 347.183168 293.817691 
L 347.665746 294.271214 
L 349.113481 294.927629 
L 349.59606 294.752662 
L 350.078638 295.353131 
L 350.561216 294.598765 
L 351.043794 294.634451 
L 351.526373 294.897314 
L 352.008951 295.534667 
L 352.491529 294.568288 
L 352.974108 295.642166 
L 353.456686 295.494429 
L 353.939264 295.203102 
L 354.421843 295.80506 
L 354.904421 295.489299 
L 355.386999 295.897738 
L 355.869577 295.427232 
L 356.352156 295.888717 
L 356.834734 295.187263 
L 357.317312 296.951331 
L 357.799891 296.697308 
L 358.282469 296.147432 
L 359.247625 296.204927 
L 359.730204 296.945494 
L 360.212782 295.505586 
L 360.69536 296.911191 
L 361.177939 297.088648 
L 361.660517 296.141956 
L 362.143095 296.914475 
L 363.108252 296.930778 
L 363.59083 297.0274 
L 364.073408 297.435713 
L 364.555987 297.298997 
L 365.038565 297.991775 
L 365.521143 297.087774 
L 366.003721 296.954188 
L 366.4863 297.756199 
L 366.968878 298.033261 
L 367.451456 296.879095 
L 367.934035 297.859453 
L 368.416613 297.562555 
L 369.38177 298.043934 
L 369.864348 297.139014 
L 370.346926 298.647555 
L 370.829504 298.455798 
L 371.312083 298.557798 
L 371.794661 297.427459 
L 372.277239 298.417446 
L 372.759818 298.236254 
L 373.242396 298.754341 
L 373.724974 297.960583 
L 375.172709 298.389242 
L 375.655287 297.92827 
L 376.137866 298.666534 
L 377.103022 299.194404 
L 377.5856 298.368227 
L 378.550757 299.203319 
L 379.033335 298.791509 
L 379.515914 299.480775 
L 379.998492 299.49626 
L 380.48107 299.650447 
L 380.963649 298.793934 
L 381.446227 298.481395 
L 381.928805 299.580399 
L 382.411383 299.608757 
L 382.893962 299.079136 
L 383.37654 299.964268 
L 383.859118 299.401153 
L 384.341697 300.257296 
L 384.824275 299.218399 
L 385.306853 299.406175 
L 385.789431 299.255092 
L 386.27201 298.590155 
L 386.754588 300.21632 
L 387.237166 299.143104 
L 387.719745 299.371941 
L 388.202323 300.521667 
L 388.684901 300.090206 
L 389.167479 300.821991 
L 389.650058 300.189855 
L 390.615214 299.911231 
L 391.580371 300.154792 
L 392.062949 301.02688 
L 392.545528 299.583533 
L 393.028106 300.063198 
L 393.510684 300.838105 
L 393.993262 301.288137 
L 394.475841 300.598015 
L 394.958419 300.435713 
L 395.440997 299.667223 
L 395.923576 300.701553 
L 396.406154 301.149626 
L 396.888732 300.765888 
L 397.853889 300.555705 
L 398.336467 300.808528 
L 398.819045 301.706884 
L 399.301624 300.481707 
L 399.784202 301.660673 
L 400.26678 300.96778 
L 400.749358 300.006681 
L 401.231937 301.158844 
L 401.714515 300.745762 
L 402.197093 301.574247 
L 402.679672 301.212469 
L 403.16225 300.679726 
L 403.644828 301.408472 
L 404.609985 301.642802 
L 405.092563 301.135785 
L 406.05772 302.208 
L 406.540298 301.88201 
L 407.022876 301.383332 
L 407.505455 301.263676 
L 407.505455 301.263676 
" style="fill:none;stroke:#1f77b4;stroke-linecap:square;stroke-width:1.5;"/>
   </g>
   <g id="patch_18">
    <path d="M 256 307.584 
L 256 189.312 
" style="fill:none;stroke:#000000;stroke-linecap:square;stroke-linejoin:miter;stroke-width:0.8;"/>
   </g>
   <g id="patch_19">
    <path d="M 414.72 307.584 
L 414.72 189.312 
" style="fill:none;stroke:#000000;stroke-linecap:square;stroke-linejoin:miter;stroke-width:0.8;"/>
   </g>
   <g id="patch_20">
    <path d="M 256 307.584 
L 414.72 307.584 
" style="fill:none;stroke:#000000;stroke-linecap:square;stroke-linejoin:miter;stroke-width:0.8;"/>
   </g>
   <g id="patch_21">
    <path d="M 256 189.312 
L 414.72 189.312 
" style="fill:none;stroke:#000000;stroke-linecap:square;stroke-linejoin:miter;stroke-width:0.8;"/>
   </g>
   <g id="text_37">
    <!-- val_loss -->
    <g transform="translate(311.875625 183.312)scale(0.12 -0.12)">
     <use xlink:href="#DejaVuSans-76"/>
     <use x="59.179688" xlink:href="#DejaVuSans-61"/>
     <use x="120.458984" xlink:href="#DejaVuSans-6c"/>
     <use x="148.242188" xlink:href="#DejaVuSans-5f"/>
     <use x="198.242188" xlink:href="#DejaVuSans-6c"/>
     <use x="226.025391" xlink:href="#DejaVuSans-6f"/>
     <use x="287.207031" xlink:href="#DejaVuSans-73"/>
     <use x="339.306641" xlink:href="#DejaVuSans-73"/>
    </g>
   </g>
  </g>
  <g id="text_38">
   <!-- benchmark 20171023_074451 -->
   <defs>
    <path d="M 48.6875 27.296875 
Q 48.6875 37.203125 44.609375 42.84375 
Q 40.53125 48.484375 33.40625 48.484375 
Q 26.265625 48.484375 22.1875 42.84375 
Q 18.109375 37.203125 18.109375 27.296875 
Q 18.109375 17.390625 22.1875 11.75 
Q 26.265625 6.109375 33.40625 6.109375 
Q 40.53125 6.109375 44.609375 11.75 
Q 48.6875 17.390625 48.6875 27.296875 
z
M 18.109375 46.390625 
Q 20.953125 51.265625 25.265625 53.625 
Q 29.59375 56 35.59375 56 
Q 45.5625 56 51.78125 48.09375 
Q 58.015625 40.1875 58.015625 27.296875 
Q 58.015625 14.40625 51.78125 6.484375 
Q 45.5625 -1.421875 35.59375 -1.421875 
Q 29.59375 -1.421875 25.265625 0.953125 
Q 20.953125 3.328125 18.109375 8.203125 
L 18.109375 0 
L 9.078125 0 
L 9.078125 75.984375 
L 18.109375 75.984375 
z
" id="DejaVuSans-62"/>
    <path d="M 56.203125 29.59375 
L 56.203125 25.203125 
L 14.890625 25.203125 
Q 15.484375 15.921875 20.484375 11.0625 
Q 25.484375 6.203125 34.421875 6.203125 
Q 39.59375 6.203125 44.453125 7.46875 
Q 49.3125 8.734375 54.109375 11.28125 
L 54.109375 2.78125 
Q 49.265625 0.734375 44.1875 -0.34375 
Q 39.109375 -1.421875 33.890625 -1.421875 
Q 20.796875 -1.421875 13.15625 6.1875 
Q 5.515625 13.8125 5.515625 26.8125 
Q 5.515625 40.234375 12.765625 48.109375 
Q 20.015625 56 32.328125 56 
Q 43.359375 56 49.78125 48.890625 
Q 56.203125 41.796875 56.203125 29.59375 
z
M 47.21875 32.234375 
Q 47.125 39.59375 43.09375 43.984375 
Q 39.0625 48.390625 32.421875 48.390625 
Q 24.90625 48.390625 20.390625 44.140625 
Q 15.875 39.890625 15.1875 32.171875 
z
" id="DejaVuSans-65"/>
    <path d="M 54.890625 33.015625 
L 54.890625 0 
L 45.90625 0 
L 45.90625 32.71875 
Q 45.90625 40.484375 42.875 44.328125 
Q 39.84375 48.1875 33.796875 48.1875 
Q 26.515625 48.1875 22.3125 43.546875 
Q 18.109375 38.921875 18.109375 30.90625 
L 18.109375 0 
L 9.078125 0 
L 9.078125 54.6875 
L 18.109375 54.6875 
L 18.109375 46.1875 
Q 21.34375 51.125 25.703125 53.5625 
Q 30.078125 56 35.796875 56 
Q 45.21875 56 50.046875 50.171875 
Q 54.890625 44.34375 54.890625 33.015625 
z
" id="DejaVuSans-6e"/>
    <path d="M 54.890625 33.015625 
L 54.890625 0 
L 45.90625 0 
L 45.90625 32.71875 
Q 45.90625 40.484375 42.875 44.328125 
Q 39.84375 48.1875 33.796875 48.1875 
Q 26.515625 48.1875 22.3125 43.546875 
Q 18.109375 38.921875 18.109375 30.90625 
L 18.109375 0 
L 9.078125 0 
L 9.078125 75.984375 
L 18.109375 75.984375 
L 18.109375 46.1875 
Q 21.34375 51.125 25.703125 53.5625 
Q 30.078125 56 35.796875 56 
Q 45.21875 56 50.046875 50.171875 
Q 54.890625 44.34375 54.890625 33.015625 
z
" id="DejaVuSans-68"/>
    <path d="M 52 44.1875 
Q 55.375 50.25 60.0625 53.125 
Q 64.75 56 71.09375 56 
Q 79.640625 56 84.28125 50.015625 
Q 88.921875 44.046875 88.921875 33.015625 
L 88.921875 0 
L 79.890625 0 
L 79.890625 32.71875 
Q 79.890625 40.578125 77.09375 44.375 
Q 74.3125 48.1875 68.609375 48.1875 
Q 61.625 48.1875 57.5625 43.546875 
Q 53.515625 38.921875 53.515625 30.90625 
L 53.515625 0 
L 44.484375 0 
L 44.484375 32.71875 
Q 44.484375 40.625 41.703125 44.40625 
Q 38.921875 48.1875 33.109375 48.1875 
Q 26.21875 48.1875 22.15625 43.53125 
Q 18.109375 38.875 18.109375 30.90625 
L 18.109375 0 
L 9.078125 0 
L 9.078125 54.6875 
L 18.109375 54.6875 
L 18.109375 46.1875 
Q 21.1875 51.21875 25.484375 53.609375 
Q 29.78125 56 35.6875 56 
Q 41.65625 56 45.828125 52.96875 
Q 50 49.953125 52 44.1875 
z
" id="DejaVuSans-6d"/>
    <path d="M 41.109375 46.296875 
Q 39.59375 47.171875 37.8125 47.578125 
Q 36.03125 48 33.890625 48 
Q 26.265625 48 22.1875 43.046875 
Q 18.109375 38.09375 18.109375 28.8125 
L 18.109375 0 
L 9.078125 0 
L 9.078125 54.6875 
L 18.109375 54.6875 
L 18.109375 46.1875 
Q 20.953125 51.171875 25.484375 53.578125 
Q 30.03125 56 36.53125 56 
Q 37.453125 56 38.578125 55.875 
Q 39.703125 55.765625 41.0625 55.515625 
z
" id="DejaVuSans-72"/>
    <path d="M 9.078125 75.984375 
L 18.109375 75.984375 
L 18.109375 31.109375 
L 44.921875 54.6875 
L 56.390625 54.6875 
L 27.390625 29.109375 
L 57.625 0 
L 45.90625 0 
L 18.109375 26.703125 
L 18.109375 0 
L 9.078125 0 
z
" id="DejaVuSans-6b"/>
    <path id="DejaVuSans-20"/>
    <path d="M 8.203125 72.90625 
L 55.078125 72.90625 
L 55.078125 68.703125 
L 28.609375 0 
L 18.3125 0 
L 43.21875 64.59375 
L 8.203125 64.59375 
z
" id="DejaVuSans-37"/>
   </defs>
   <g transform="translate(138.180938 16.030125)scale(0.12 -0.12)">
    <use xlink:href="#DejaVuSans-62"/>
    <use x="63.476562" xlink:href="#DejaVuSans-65"/>
    <use x="125" xlink:href="#DejaVuSans-6e"/>
    <use x="188.378906" xlink:href="#DejaVuSans-63"/>
    <use x="243.359375" xlink:href="#DejaVuSans-68"/>
    <use x="306.738281" xlink:href="#DejaVuSans-6d"/>
    <use x="404.150391" xlink:href="#DejaVuSans-61"/>
    <use x="465.429688" xlink:href="#DejaVuSans-72"/>
    <use x="506.542969" xlink:href="#DejaVuSans-6b"/>
    <use x="564.453125" xlink:href="#DejaVuSans-20"/>
    <use x="596.240234" xlink:href="#DejaVuSans-32"/>
    <use x="659.863281" xlink:href="#DejaVuSans-30"/>
    <use x="723.486328" xlink:href="#DejaVuSans-31"/>
    <use x="787.109375" xlink:href="#DejaVuSans-37"/>
    <use x="850.732422" xlink:href="#DejaVuSans-31"/>
    <use x="914.355469" xlink:href="#DejaVuSans-30"/>
    <use x="977.978516" xlink:href="#DejaVuSans-32"/>
    <use x="1041.601562" xlink:href="#DejaVuSans-33"/>
    <use x="1105.224609" xlink:href="#DejaVuSans-5f"/>
    <use x="1155.224609" xlink:href="#DejaVuSans-30"/>
    <use x="1218.847656" xlink:href="#DejaVuSans-37"/>
    <use x="1282.470703" xlink:href="#DejaVuSans-34"/>
    <use x="1346.09375" xlink:href="#DejaVuSans-34"/>
    <use x="1409.716797" xlink:href="#DejaVuSans-35"/>
    <use x="1473.339844" xlink:href="#DejaVuSans-31"/>
   </g>
  </g>
 </g>
 <defs>
  <clipPath id="p344ff16d99">
   <rect height="118.272" width="158.72" x="57.6" y="41.472"/>
  </clipPath>
  <clipPath id="p00fe920b65">
   <rect height="118.272" width="158.72" x="256" y="41.472"/>
  </clipPath>
  <clipPath id="pb9c55ed3ba">
   <rect height="118.272" width="158.72" x="57.6" y="189.312"/>
  </clipPath>
  <clipPath id="pe2b50db223">
   <rect height="118.272" width="158.72" x="256" y="189.312"/>
  </clipPath>
 </defs>
</svg>
