<?xml version="1.0" encoding="utf-8" standalone="no"?>
<!DOCTYPE svg PUBLIC "-//W3C//DTD SVG 1.1//EN"
  "http://www.w3.org/Graphics/SVG/1.1/DTD/svg11.dtd">
<!-- Created with matplotlib (http://matplotlib.org/) -->
<svg height="345pt" version="1.1" viewBox="0 0 460 345" width="460pt" xmlns="http://www.w3.org/2000/svg" xmlns:xlink="http://www.w3.org/1999/xlink">
 <defs>
  <style type="text/css">
*{stroke-linecap:butt;stroke-linejoin:round;}
  </style>
 </defs>
 <g id="figure_1">
  <g id="patch_1">
   <path d="M 0 345.6 
L 460.8 345.6 
L 460.8 0 
L 0 0 
z
" style="fill:#ffffff;"/>
  </g>
  <g id="axes_1">
   <g id="patch_2">
    <path d="M 57.6 159.744 
L 216.32 159.744 
L 216.32 41.472 
L 57.6 41.472 
z
" style="fill:#ffffff;"/>
   </g>
   <g id="matplotlib.axis_1">
    <g id="xtick_1">
     <g id="line2d_1">
      <path clip-path="url(#p3ff152e890)" d="M 64.814545 159.744 
L 64.814545 41.472 
" style="fill:none;stroke:#b0b0b0;stroke-linecap:square;stroke-width:0.8;"/>
     </g>
     <g id="line2d_2">
      <defs>
       <path d="M 0 0 
L 0 3.5 
" id="m49127caa22" style="stroke:#000000;stroke-width:0.8;"/>
      </defs>
      <g>
       <use style="stroke:#000000;stroke-width:0.8;" x="64.814545" xlink:href="#m49127caa22" y="159.744"/>
      </g>
     </g>
     <g id="text_1">
      <!-- 0 -->
      <defs>
       <path d="M 31.78125 66.40625 
Q 24.171875 66.40625 20.328125 58.90625 
Q 16.5 51.421875 16.5 36.375 
Q 16.5 21.390625 20.328125 13.890625 
Q 24.171875 6.390625 31.78125 6.390625 
Q 39.453125 6.390625 43.28125 13.890625 
Q 47.125 21.390625 47.125 36.375 
Q 47.125 51.421875 43.28125 58.90625 
Q 39.453125 66.40625 31.78125 66.40625 
z
M 31.78125 74.21875 
Q 44.046875 74.21875 50.515625 64.515625 
Q 56.984375 54.828125 56.984375 36.375 
Q 56.984375 17.96875 50.515625 8.265625 
Q 44.046875 -1.421875 31.78125 -1.421875 
Q 19.53125 -1.421875 13.0625 8.265625 
Q 6.59375 17.96875 6.59375 36.375 
Q 6.59375 54.828125 13.0625 64.515625 
Q 19.53125 74.21875 31.78125 74.21875 
z
" id="DejaVuSans-30"/>
      </defs>
      <g transform="translate(61.633295 174.342437)scale(0.1 -0.1)">
       <use xlink:href="#DejaVuSans-30"/>
      </g>
     </g>
    </g>
    <g id="xtick_2">
     <g id="line2d_3">
      <path clip-path="url(#p3ff152e890)" d="M 113.072375 159.744 
L 113.072375 41.472 
" style="fill:none;stroke:#b0b0b0;stroke-linecap:square;stroke-width:0.8;"/>
     </g>
     <g id="line2d_4">
      <g>
       <use style="stroke:#000000;stroke-width:0.8;" x="113.072375" xlink:href="#m49127caa22" y="159.744"/>
      </g>
     </g>
     <g id="text_2">
      <!-- 100 -->
      <defs>
       <path d="M 12.40625 8.296875 
L 28.515625 8.296875 
L 28.515625 63.921875 
L 10.984375 60.40625 
L 10.984375 69.390625 
L 28.421875 72.90625 
L 38.28125 72.90625 
L 38.28125 8.296875 
L 54.390625 8.296875 
L 54.390625 0 
L 12.40625 0 
z
" id="DejaVuSans-31"/>
      </defs>
      <g transform="translate(103.528625 174.342437)scale(0.1 -0.1)">
       <use xlink:href="#DejaVuSans-31"/>
       <use x="63.623047" xlink:href="#DejaVuSans-30"/>
       <use x="127.246094" xlink:href="#DejaVuSans-30"/>
      </g>
     </g>
    </g>
    <g id="xtick_3">
     <g id="line2d_5">
      <path clip-path="url(#p3ff152e890)" d="M 161.330204 159.744 
L 161.330204 41.472 
" style="fill:none;stroke:#b0b0b0;stroke-linecap:square;stroke-width:0.8;"/>
     </g>
     <g id="line2d_6">
      <g>
       <use style="stroke:#000000;stroke-width:0.8;" x="161.330204" xlink:href="#m49127caa22" y="159.744"/>
      </g>
     </g>
     <g id="text_3">
      <!-- 200 -->
      <defs>
       <path d="M 19.1875 8.296875 
L 53.609375 8.296875 
L 53.609375 0 
L 7.328125 0 
L 7.328125 8.296875 
Q 12.9375 14.109375 22.625 23.890625 
Q 32.328125 33.6875 34.8125 36.53125 
Q 39.546875 41.84375 41.421875 45.53125 
Q 43.3125 49.21875 43.3125 52.78125 
Q 43.3125 58.59375 39.234375 62.25 
Q 35.15625 65.921875 28.609375 65.921875 
Q 23.96875 65.921875 18.8125 64.3125 
Q 13.671875 62.703125 7.8125 59.421875 
L 7.8125 69.390625 
Q 13.765625 71.78125 18.9375 73 
Q 24.125 74.21875 28.421875 74.21875 
Q 39.75 74.21875 46.484375 68.546875 
Q 53.21875 62.890625 53.21875 53.421875 
Q 53.21875 48.921875 51.53125 44.890625 
Q 49.859375 40.875 45.40625 35.40625 
Q 44.1875 33.984375 37.640625 27.21875 
Q 31.109375 20.453125 19.1875 8.296875 
z
" id="DejaVuSans-32"/>
      </defs>
      <g transform="translate(151.786454 174.342437)scale(0.1 -0.1)">
       <use xlink:href="#DejaVuSans-32"/>
       <use x="63.623047" xlink:href="#DejaVuSans-30"/>
       <use x="127.246094" xlink:href="#DejaVuSans-30"/>
      </g>
     </g>
    </g>
    <g id="xtick_4">
     <g id="line2d_7">
      <path clip-path="url(#p3ff152e890)" d="M 209.588033 159.744 
L 209.588033 41.472 
" style="fill:none;stroke:#b0b0b0;stroke-linecap:square;stroke-width:0.8;"/>
     </g>
     <g id="line2d_8">
      <g>
       <use style="stroke:#000000;stroke-width:0.8;" x="209.588033" xlink:href="#m49127caa22" y="159.744"/>
      </g>
     </g>
     <g id="text_4">
      <!-- 300 -->
      <defs>
       <path d="M 40.578125 39.3125 
Q 47.65625 37.796875 51.625 33 
Q 55.609375 28.21875 55.609375 21.1875 
Q 55.609375 10.40625 48.1875 4.484375 
Q 40.765625 -1.421875 27.09375 -1.421875 
Q 22.515625 -1.421875 17.65625 -0.515625 
Q 12.796875 0.390625 7.625 2.203125 
L 7.625 11.71875 
Q 11.71875 9.328125 16.59375 8.109375 
Q 21.484375 6.890625 26.8125 6.890625 
Q 36.078125 6.890625 40.9375 10.546875 
Q 45.796875 14.203125 45.796875 21.1875 
Q 45.796875 27.640625 41.28125 31.265625 
Q 36.765625 34.90625 28.71875 34.90625 
L 20.21875 34.90625 
L 20.21875 43.015625 
L 29.109375 43.015625 
Q 36.375 43.015625 40.234375 45.921875 
Q 44.09375 48.828125 44.09375 54.296875 
Q 44.09375 59.90625 40.109375 62.90625 
Q 36.140625 65.921875 28.71875 65.921875 
Q 24.65625 65.921875 20.015625 65.03125 
Q 15.375 64.15625 9.8125 62.3125 
L 9.8125 71.09375 
Q 15.4375 72.65625 20.34375 73.4375 
Q 25.25 74.21875 29.59375 74.21875 
Q 40.828125 74.21875 47.359375 69.109375 
Q 53.90625 64.015625 53.90625 55.328125 
Q 53.90625 49.265625 50.4375 45.09375 
Q 46.96875 40.921875 40.578125 39.3125 
z
" id="DejaVuSans-33"/>
      </defs>
      <g transform="translate(200.044283 174.342437)scale(0.1 -0.1)">
       <use xlink:href="#DejaVuSans-33"/>
       <use x="63.623047" xlink:href="#DejaVuSans-30"/>
       <use x="127.246094" xlink:href="#DejaVuSans-30"/>
      </g>
     </g>
    </g>
   </g>
   <g id="matplotlib.axis_2">
    <g id="ytick_1">
     <g id="line2d_9">
      <path clip-path="url(#p3ff152e890)" d="M 57.6 154.686735 
L 216.32 154.686735 
" style="fill:none;stroke:#b0b0b0;stroke-linecap:square;stroke-width:0.8;"/>
     </g>
     <g id="line2d_10">
      <defs>
       <path d="M 0 0 
L -3.5 0 
" id="m67ab0d6b59" style="stroke:#000000;stroke-width:0.8;"/>
      </defs>
      <g>
       <use style="stroke:#000000;stroke-width:0.8;" x="57.6" xlink:href="#m67ab0d6b59" y="154.686735"/>
      </g>
     </g>
     <g id="text_5">
      <!-- 0.00 -->
      <defs>
       <path d="M 10.6875 12.40625 
L 21 12.40625 
L 21 0 
L 10.6875 0 
z
" id="DejaVuSans-2e"/>
      </defs>
      <g transform="translate(28.334375 158.485954)scale(0.1 -0.1)">
       <use xlink:href="#DejaVuSans-30"/>
       <use x="63.623047" xlink:href="#DejaVuSans-2e"/>
       <use x="95.410156" xlink:href="#DejaVuSans-30"/>
       <use x="159.033203" xlink:href="#DejaVuSans-30"/>
      </g>
     </g>
    </g>
    <g id="ytick_2">
     <g id="line2d_11">
      <path clip-path="url(#p3ff152e890)" d="M 57.6 127.488 
L 216.32 127.488 
" style="fill:none;stroke:#b0b0b0;stroke-linecap:square;stroke-width:0.8;"/>
     </g>
     <g id="line2d_12">
      <g>
       <use style="stroke:#000000;stroke-width:0.8;" x="57.6" xlink:href="#m67ab0d6b59" y="127.488"/>
      </g>
     </g>
     <g id="text_6">
      <!-- 0.25 -->
      <defs>
       <path d="M 10.796875 72.90625 
L 49.515625 72.90625 
L 49.515625 64.59375 
L 19.828125 64.59375 
L 19.828125 46.734375 
Q 21.96875 47.46875 24.109375 47.828125 
Q 26.265625 48.1875 28.421875 48.1875 
Q 40.625 48.1875 47.75 41.5 
Q 54.890625 34.8125 54.890625 23.390625 
Q 54.890625 11.625 47.5625 5.09375 
Q 40.234375 -1.421875 26.90625 -1.421875 
Q 22.3125 -1.421875 17.546875 -0.640625 
Q 12.796875 0.140625 7.71875 1.703125 
L 7.71875 11.625 
Q 12.109375 9.234375 16.796875 8.0625 
Q 21.484375 6.890625 26.703125 6.890625 
Q 35.15625 6.890625 40.078125 11.328125 
Q 45.015625 15.765625 45.015625 23.390625 
Q 45.015625 31 40.078125 35.4375 
Q 35.15625 39.890625 26.703125 39.890625 
Q 22.75 39.890625 18.8125 39.015625 
Q 14.890625 38.140625 10.796875 36.28125 
z
" id="DejaVuSans-35"/>
      </defs>
      <g transform="translate(28.334375 131.287219)scale(0.1 -0.1)">
       <use xlink:href="#DejaVuSans-30"/>
       <use x="63.623047" xlink:href="#DejaVuSans-2e"/>
       <use x="95.410156" xlink:href="#DejaVuSans-32"/>
       <use x="159.033203" xlink:href="#DejaVuSans-35"/>
      </g>
     </g>
    </g>
    <g id="ytick_3">
     <g id="line2d_13">
      <path clip-path="url(#p3ff152e890)" d="M 57.6 100.289265 
L 216.32 100.289265 
" style="fill:none;stroke:#b0b0b0;stroke-linecap:square;stroke-width:0.8;"/>
     </g>
     <g id="line2d_14">
      <g>
       <use style="stroke:#000000;stroke-width:0.8;" x="57.6" xlink:href="#m67ab0d6b59" y="100.289265"/>
      </g>
     </g>
     <g id="text_7">
      <!-- 0.50 -->
      <g transform="translate(28.334375 104.088484)scale(0.1 -0.1)">
       <use xlink:href="#DejaVuSans-30"/>
       <use x="63.623047" xlink:href="#DejaVuSans-2e"/>
       <use x="95.410156" xlink:href="#DejaVuSans-35"/>
       <use x="159.033203" xlink:href="#DejaVuSans-30"/>
      </g>
     </g>
    </g>
    <g id="ytick_4">
     <g id="line2d_15">
      <path clip-path="url(#p3ff152e890)" d="M 57.6 73.09053 
L 216.32 73.09053 
" style="fill:none;stroke:#b0b0b0;stroke-linecap:square;stroke-width:0.8;"/>
     </g>
     <g id="line2d_16">
      <g>
       <use style="stroke:#000000;stroke-width:0.8;" x="57.6" xlink:href="#m67ab0d6b59" y="73.09053"/>
      </g>
     </g>
     <g id="text_8">
      <!-- 0.75 -->
      <defs>
       <path d="M 8.203125 72.90625 
L 55.078125 72.90625 
L 55.078125 68.703125 
L 28.609375 0 
L 18.3125 0 
L 43.21875 64.59375 
L 8.203125 64.59375 
z
" id="DejaVuSans-37"/>
      </defs>
      <g transform="translate(28.334375 76.889748)scale(0.1 -0.1)">
       <use xlink:href="#DejaVuSans-30"/>
       <use x="63.623047" xlink:href="#DejaVuSans-2e"/>
       <use x="95.410156" xlink:href="#DejaVuSans-37"/>
       <use x="159.033203" xlink:href="#DejaVuSans-35"/>
      </g>
     </g>
    </g>
    <g id="ytick_5">
     <g id="line2d_17">
      <path clip-path="url(#p3ff152e890)" d="M 57.6 45.891794 
L 216.32 45.891794 
" style="fill:none;stroke:#b0b0b0;stroke-linecap:square;stroke-width:0.8;"/>
     </g>
     <g id="line2d_18">
      <g>
       <use style="stroke:#000000;stroke-width:0.8;" x="57.6" xlink:href="#m67ab0d6b59" y="45.891794"/>
      </g>
     </g>
     <g id="text_9">
      <!-- 1.00 -->
      <g transform="translate(28.334375 49.691013)scale(0.1 -0.1)">
       <use xlink:href="#DejaVuSans-31"/>
       <use x="63.623047" xlink:href="#DejaVuSans-2e"/>
       <use x="95.410156" xlink:href="#DejaVuSans-30"/>
       <use x="159.033203" xlink:href="#DejaVuSans-30"/>
      </g>
     </g>
    </g>
   </g>
   <g id="line2d_19">
    <path clip-path="url(#p3ff152e890)" d="M 64.814545 154.368 
L 65.297124 154.22634 
L 65.779702 153.765945 
L 66.26228 152.491004 
L 66.744859 150.826498 
L 67.710015 146.080885 
L 68.675172 139.104126 
L 69.640328 134.854324 
L 70.122907 130.356616 
L 70.605485 127.169264 
L 71.088063 125.327683 
L 71.570642 121.042466 
L 72.05322 119.200885 
L 72.535798 116.473928 
L 73.018376 115.907288 
L 73.500955 111.19709 
L 73.983533 110.134639 
L 74.466111 107.655588 
L 74.94869 106.309817 
L 75.431268 103.724521 
L 76.396424 100.253849 
L 76.879003 97.420647 
L 77.361581 96.641516 
L 79.774472 86.583651 
L 81.222207 82.404678 
L 81.704786 80.704757 
L 82.187364 80.421437 
L 82.669942 78.898591 
L 83.152521 78.721516 
L 83.635099 76.49037 
L 84.600255 74.046734 
L 85.082834 73.940488 
L 85.565412 72.948869 
L 86.04799 71.178117 
L 86.530569 70.221912 
L 87.013147 71.284363 
L 87.495725 69.194876 
L 87.978303 69.371952 
L 88.460882 68.486576 
L 88.94346 67.990766 
L 89.908617 66.46792 
L 90.391195 64.874245 
L 90.873773 64.413849 
L 91.356351 65.75962 
L 91.83893 63.882624 
L 92.321508 63.634719 
L 92.804086 63.953454 
L 93.286665 62.288948 
L 93.769243 62.678514 
L 94.251821 61.155668 
L 94.7344 61.368158 
L 95.216978 61.120253 
L 95.699556 59.809897 
L 96.182134 60.270293 
L 96.664713 59.278672 
L 97.147291 58.995352 
L 97.629869 58.570372 
L 98.112448 58.924522 
L 98.595026 58.995352 
L 99.077604 57.791241 
L 99.560182 57.720412 
L 100.042761 57.472506 
L 100.525339 58.145392 
L 101.007917 57.153771 
L 101.490496 56.870451 
L 101.973074 56.728791 
L 102.455652 55.560095 
L 102.93823 55.73717 
L 103.420809 55.38302 
L 103.903387 55.878831 
L 104.868544 54.568475 
L 105.351122 54.285155 
L 106.316279 54.214325 
L 106.798857 54.355985 
L 107.281435 54.710135 
L 107.764013 53.576854 
L 108.72917 54.108079 
L 109.211748 53.399779 
L 109.694327 53.470609 
L 110.176905 53.293534 
L 110.659483 52.691479 
L 111.142061 52.549819 
L 111.62464 53.222704 
L 112.107218 52.620649 
L 112.589796 52.372744 
L 113.072375 51.912348 
L 114.037531 52.443574 
L 114.520109 52.266499 
L 115.002688 52.514404 
L 115.485266 51.841518 
L 116.450423 51.381123 
L 116.933001 52.124838 
L 117.898157 51.381123 
L 118.380736 51.876933 
L 118.863314 51.487368 
L 119.345892 51.664443 
L 119.828471 51.026973 
L 120.311049 51.735273 
L 120.793627 51.239463 
L 121.758784 51.062388 
L 122.72394 51.239463 
L 123.206519 50.531163 
L 123.689097 50.531163 
L 124.171675 50.849898 
L 125.136832 50.637408 
L 125.61941 50.389503 
L 126.101988 50.424918 
L 126.584567 49.999937 
L 127.067145 50.389503 
L 127.549723 49.964522 
L 128.51488 50.566578 
L 128.997458 50.283257 
L 129.480036 49.468712 
L 129.962615 50.177012 
L 130.445193 50.070767 
L 130.927771 50.247842 
L 131.41035 49.929107 
L 131.892928 50.035352 
L 133.340663 49.999937 
L 133.823241 49.468712 
L 134.788398 49.858277 
L 135.270976 49.752032 
L 135.753554 49.256222 
L 136.236133 49.929108 
L 136.718711 49.220807 
L 137.201289 49.079147 
L 137.683867 49.539542 
L 138.166446 49.504127 
L 138.649024 49.043732 
L 139.131602 49.079147 
L 139.614181 49.858277 
L 140.096759 48.795826 
L 141.544494 49.539542 
L 142.027072 49.362467 
L 142.992229 49.645787 
L 143.474807 49.114562 
L 143.957385 48.795827 
L 144.922542 49.079147 
L 145.887698 48.477091 
L 146.370277 49.114562 
L 146.852855 48.760411 
L 148.30059 48.831241 
L 148.783168 49.681202 
L 149.265746 48.335431 
L 150.230903 49.008316 
L 150.713481 48.441676 
L 151.19606 48.972902 
L 151.678638 48.795827 
L 152.643794 48.689581 
L 153.126373 48.335431 
L 153.608951 49.149977 
L 154.091529 48.052111 
L 154.574108 48.335431 
L 155.539264 48.300016 
L 156.021843 48.689581 
L 156.504421 48.016696 
L 156.986999 48.264601 
L 157.469577 48.087526 
L 157.952156 48.689581 
L 158.434734 47.875036 
L 158.917312 48.795827 
L 159.399891 48.193771 
L 159.882469 48.618752 
L 160.365047 48.052111 
L 160.847625 48.264601 
L 161.330204 48.052111 
L 161.812782 48.087526 
L 162.29536 48.547921 
L 162.777939 48.229186 
L 163.260517 48.618751 
L 163.743095 47.981281 
L 164.225673 48.370846 
L 164.708252 48.441676 
L 165.19083 48.335431 
L 165.673408 48.087526 
L 166.155987 48.370846 
L 166.638565 48.264601 
L 167.121143 48.547921 
L 167.603721 48.300016 
L 168.0863 48.477091 
L 168.568878 48.122941 
L 169.051456 48.406261 
L 169.534035 48.016696 
L 170.016613 48.300016 
L 170.499191 48.193771 
L 171.464348 48.300016 
L 171.946926 48.158356 
L 172.429504 48.477091 
L 173.394661 47.875036 
L 173.877239 48.193771 
L 174.359818 47.591716 
L 174.842396 48.406261 
L 175.324974 47.697961 
L 176.290131 48.016696 
L 176.772709 47.804206 
L 177.255287 47.945866 
L 177.737866 47.910451 
L 178.220444 47.733376 
L 178.703022 48.441676 
L 179.1856 48.193771 
L 179.668179 47.768791 
L 180.150757 47.910451 
L 180.633335 47.804206 
L 181.115914 47.981281 
L 181.598492 47.20215 
L 182.08107 48.122941 
L 182.563649 47.556301 
L 183.046227 47.697961 
L 183.528805 48.335431 
L 184.011383 47.308395 
L 184.493962 47.875036 
L 184.97654 47.910451 
L 185.459118 47.662546 
L 185.941697 47.556301 
L 186.424275 47.627131 
L 186.906853 47.308395 
L 187.389431 47.450056 
L 187.87201 47.379226 
L 188.837166 47.556301 
L 189.319745 47.237565 
L 189.802323 47.591716 
L 190.284901 47.768791 
L 190.767479 47.804206 
L 191.250058 47.025075 
L 191.732636 47.627131 
L 192.215214 47.662546 
L 192.697793 48.016696 
L 193.180371 47.591716 
L 194.628106 47.41464 
L 195.593262 47.768791 
L 196.075841 47.379226 
L 196.558419 47.485471 
L 197.040997 47.839621 
L 197.523576 47.13132 
L 198.006154 47.485471 
L 198.488732 47.13132 
L 198.97131 47.485471 
L 199.453889 47.095905 
L 199.936467 47.27298 
L 200.419045 47.697961 
L 200.901624 47.768791 
L 201.384202 47.379226 
L 201.86678 47.237565 
L 202.349358 47.237565 
L 202.831937 46.848 
L 203.314515 46.954245 
L 203.797093 47.627131 
L 204.76225 47.13132 
L 205.244828 47.237565 
L 205.727407 47.485471 
L 206.209985 47.13132 
L 206.692563 47.41464 
L 207.175141 47.13132 
L 207.65772 47.025075 
L 208.140298 47.414641 
L 208.622876 47.095905 
L 209.105455 47.166735 
L 209.105455 47.166735 
" style="fill:none;stroke:#1f77b4;stroke-linecap:square;stroke-width:1.5;"/>
   </g>
   <g id="patch_3">
    <path d="M 57.6 159.744 
L 57.6 41.472 
" style="fill:none;stroke:#000000;stroke-linecap:square;stroke-linejoin:miter;stroke-width:0.8;"/>
   </g>
   <g id="patch_4">
    <path d="M 216.32 159.744 
L 216.32 41.472 
" style="fill:none;stroke:#000000;stroke-linecap:square;stroke-linejoin:miter;stroke-width:0.8;"/>
   </g>
   <g id="patch_5">
    <path d="M 57.6 159.744 
L 216.32 159.744 
" style="fill:none;stroke:#000000;stroke-linecap:square;stroke-linejoin:miter;stroke-width:0.8;"/>
   </g>
   <g id="patch_6">
    <path d="M 57.6 41.472 
L 216.32 41.472 
" style="fill:none;stroke:#000000;stroke-linecap:square;stroke-linejoin:miter;stroke-width:0.8;"/>
   </g>
   <g id="text_10">
    <!-- acc -->
    <defs>
     <path d="M 34.28125 27.484375 
Q 23.390625 27.484375 19.1875 25 
Q 14.984375 22.515625 14.984375 16.5 
Q 14.984375 11.71875 18.140625 8.90625 
Q 21.296875 6.109375 26.703125 6.109375 
Q 34.1875 6.109375 38.703125 11.40625 
Q 43.21875 16.703125 43.21875 25.484375 
L 43.21875 27.484375 
z
M 52.203125 31.203125 
L 52.203125 0 
L 43.21875 0 
L 43.21875 8.296875 
Q 40.140625 3.328125 35.546875 0.953125 
Q 30.953125 -1.421875 24.3125 -1.421875 
Q 15.921875 -1.421875 10.953125 3.296875 
Q 6 8.015625 6 15.921875 
Q 6 25.140625 12.171875 29.828125 
Q 18.359375 34.515625 30.609375 34.515625 
L 43.21875 34.515625 
L 43.21875 35.40625 
Q 43.21875 41.609375 39.140625 45 
Q 35.0625 48.390625 27.6875 48.390625 
Q 23 48.390625 18.546875 47.265625 
Q 14.109375 46.140625 10.015625 43.890625 
L 10.015625 52.203125 
Q 14.9375 54.109375 19.578125 55.046875 
Q 24.21875 56 28.609375 56 
Q 40.484375 56 46.34375 49.84375 
Q 52.203125 43.703125 52.203125 31.203125 
z
" id="DejaVuSans-61"/>
     <path d="M 48.78125 52.59375 
L 48.78125 44.1875 
Q 44.96875 46.296875 41.140625 47.34375 
Q 37.3125 48.390625 33.40625 48.390625 
Q 24.65625 48.390625 19.8125 42.84375 
Q 14.984375 37.3125 14.984375 27.296875 
Q 14.984375 17.28125 19.8125 11.734375 
Q 24.65625 6.203125 33.40625 6.203125 
Q 37.3125 6.203125 41.140625 7.25 
Q 44.96875 8.296875 48.78125 10.40625 
L 48.78125 2.09375 
Q 45.015625 0.34375 40.984375 -0.53125 
Q 36.96875 -1.421875 32.421875 -1.421875 
Q 20.0625 -1.421875 12.78125 6.34375 
Q 5.515625 14.109375 5.515625 27.296875 
Q 5.515625 40.671875 12.859375 48.328125 
Q 20.21875 56 33.015625 56 
Q 37.15625 56 41.109375 55.140625 
Q 45.0625 54.296875 48.78125 52.59375 
z
" id="DejaVuSans-63"/>
    </defs>
    <g transform="translate(126.685 35.472)scale(0.12 -0.12)">
     <use xlink:href="#DejaVuSans-61"/>
     <use x="61.279297" xlink:href="#DejaVuSans-63"/>
     <use x="116.259766" xlink:href="#DejaVuSans-63"/>
    </g>
   </g>
  </g>
  <g id="axes_2">
   <g id="patch_7">
    <path d="M 256 159.744 
L 414.72 159.744 
L 414.72 41.472 
L 256 41.472 
z
" style="fill:#ffffff;"/>
   </g>
   <g id="matplotlib.axis_3">
    <g id="xtick_5">
     <g id="line2d_20">
      <path clip-path="url(#p5d5e046170)" d="M 263.214545 159.744 
L 263.214545 41.472 
" style="fill:none;stroke:#b0b0b0;stroke-linecap:square;stroke-width:0.8;"/>
     </g>
     <g id="line2d_21">
      <g>
       <use style="stroke:#000000;stroke-width:0.8;" x="263.214545" xlink:href="#m49127caa22" y="159.744"/>
      </g>
     </g>
     <g id="text_11">
      <!-- 0 -->
      <g transform="translate(260.033295 174.342437)scale(0.1 -0.1)">
       <use xlink:href="#DejaVuSans-30"/>
      </g>
     </g>
    </g>
    <g id="xtick_6">
     <g id="line2d_22">
      <path clip-path="url(#p5d5e046170)" d="M 311.472375 159.744 
L 311.472375 41.472 
" style="fill:none;stroke:#b0b0b0;stroke-linecap:square;stroke-width:0.8;"/>
     </g>
     <g id="line2d_23">
      <g>
       <use style="stroke:#000000;stroke-width:0.8;" x="311.472375" xlink:href="#m49127caa22" y="159.744"/>
      </g>
     </g>
     <g id="text_12">
      <!-- 100 -->
      <g transform="translate(301.928625 174.342437)scale(0.1 -0.1)">
       <use xlink:href="#DejaVuSans-31"/>
       <use x="63.623047" xlink:href="#DejaVuSans-30"/>
       <use x="127.246094" xlink:href="#DejaVuSans-30"/>
      </g>
     </g>
    </g>
    <g id="xtick_7">
     <g id="line2d_24">
      <path clip-path="url(#p5d5e046170)" d="M 359.730204 159.744 
L 359.730204 41.472 
" style="fill:none;stroke:#b0b0b0;stroke-linecap:square;stroke-width:0.8;"/>
     </g>
     <g id="line2d_25">
      <g>
       <use style="stroke:#000000;stroke-width:0.8;" x="359.730204" xlink:href="#m49127caa22" y="159.744"/>
      </g>
     </g>
     <g id="text_13">
      <!-- 200 -->
      <g transform="translate(350.186454 174.342437)scale(0.1 -0.1)">
       <use xlink:href="#DejaVuSans-32"/>
       <use x="63.623047" xlink:href="#DejaVuSans-30"/>
       <use x="127.246094" xlink:href="#DejaVuSans-30"/>
      </g>
     </g>
    </g>
    <g id="xtick_8">
     <g id="line2d_26">
      <path clip-path="url(#p5d5e046170)" d="M 407.988033 159.744 
L 407.988033 41.472 
" style="fill:none;stroke:#b0b0b0;stroke-linecap:square;stroke-width:0.8;"/>
     </g>
     <g id="line2d_27">
      <g>
       <use style="stroke:#000000;stroke-width:0.8;" x="407.988033" xlink:href="#m49127caa22" y="159.744"/>
      </g>
     </g>
     <g id="text_14">
      <!-- 300 -->
      <g transform="translate(398.444283 174.342437)scale(0.1 -0.1)">
       <use xlink:href="#DejaVuSans-33"/>
       <use x="63.623047" xlink:href="#DejaVuSans-30"/>
       <use x="127.246094" xlink:href="#DejaVuSans-30"/>
      </g>
     </g>
    </g>
   </g>
   <g id="matplotlib.axis_4">
    <g id="ytick_6">
     <g id="line2d_28">
      <path clip-path="url(#p5d5e046170)" d="M 256 154.971786 
L 414.72 154.971786 
" style="fill:none;stroke:#b0b0b0;stroke-linecap:square;stroke-width:0.8;"/>
     </g>
     <g id="line2d_29">
      <g>
       <use style="stroke:#000000;stroke-width:0.8;" x="256" xlink:href="#m67ab0d6b59" y="154.971786"/>
      </g>
     </g>
     <g id="text_15">
      <!-- 0 -->
      <g transform="translate(242.6375 158.771005)scale(0.1 -0.1)">
       <use xlink:href="#DejaVuSans-30"/>
      </g>
     </g>
    </g>
    <g id="ytick_7">
     <g id="line2d_30">
      <path clip-path="url(#p5d5e046170)" d="M 256 116.003699 
L 414.72 116.003699 
" style="fill:none;stroke:#b0b0b0;stroke-linecap:square;stroke-width:0.8;"/>
     </g>
     <g id="line2d_31">
      <g>
       <use style="stroke:#000000;stroke-width:0.8;" x="256" xlink:href="#m67ab0d6b59" y="116.003699"/>
      </g>
     </g>
     <g id="text_16">
      <!-- 2 -->
      <g transform="translate(242.6375 119.802918)scale(0.1 -0.1)">
       <use xlink:href="#DejaVuSans-32"/>
      </g>
     </g>
    </g>
    <g id="ytick_8">
     <g id="line2d_32">
      <path clip-path="url(#p5d5e046170)" d="M 256 77.035613 
L 414.72 77.035613 
" style="fill:none;stroke:#b0b0b0;stroke-linecap:square;stroke-width:0.8;"/>
     </g>
     <g id="line2d_33">
      <g>
       <use style="stroke:#000000;stroke-width:0.8;" x="256" xlink:href="#m67ab0d6b59" y="77.035613"/>
      </g>
     </g>
     <g id="text_17">
      <!-- 4 -->
      <defs>
       <path d="M 37.796875 64.3125 
L 12.890625 25.390625 
L 37.796875 25.390625 
z
M 35.203125 72.90625 
L 47.609375 72.90625 
L 47.609375 25.390625 
L 58.015625 25.390625 
L 58.015625 17.1875 
L 47.609375 17.1875 
L 47.609375 0 
L 37.796875 0 
L 37.796875 17.1875 
L 4.890625 17.1875 
L 4.890625 26.703125 
z
" id="DejaVuSans-34"/>
      </defs>
      <g transform="translate(242.6375 80.834832)scale(0.1 -0.1)">
       <use xlink:href="#DejaVuSans-34"/>
      </g>
     </g>
    </g>
   </g>
   <g id="line2d_34">
    <path clip-path="url(#p5d5e046170)" d="M 263.214545 46.848 
L 263.697124 48.102963 
L 264.179702 51.851092 
L 264.66228 57.465441 
L 265.627437 72.500054 
L 267.075172 87.747701 
L 269.005485 100.78481 
L 270.45322 107.817373 
L 271.418376 111.18976 
L 271.900955 113.235124 
L 272.866111 115.836913 
L 273.34869 117.108387 
L 273.831268 118.98044 
L 274.313846 119.977579 
L 275.279003 123.548367 
L 275.761581 124.260643 
L 276.726738 126.946731 
L 277.691894 129.275126 
L 279.622207 132.873207 
L 280.104786 133.922329 
L 281.552521 135.657357 
L 282.035099 136.805189 
L 282.517677 136.904974 
L 283.000255 138.230283 
L 283.482834 138.443858 
L 283.965412 139.087654 
L 284.44799 140.197258 
L 284.930569 140.442286 
L 285.413147 140.484425 
L 285.895725 141.223763 
L 286.378303 141.401968 
L 289.273773 144.318258 
L 289.756351 144.03832 
L 290.23893 144.616895 
L 290.721508 144.917258 
L 291.204086 144.871346 
L 291.686665 145.72536 
L 292.169243 145.846194 
L 292.651821 146.121303 
L 293.616978 146.454509 
L 294.099556 146.970498 
L 294.582134 147.063796 
L 295.064713 147.394003 
L 295.547291 147.482779 
L 296.029869 147.74784 
L 296.512448 147.68908 
L 296.995026 148.134109 
L 297.477604 148.149984 
L 298.442761 148.658208 
L 298.925339 148.362727 
L 299.407917 148.851017 
L 300.373074 149.165116 
L 300.855652 149.382729 
L 301.33823 149.269721 
L 301.820809 149.577836 
L 302.303387 149.551114 
L 302.785965 150.06201 
L 303.268544 150.385129 
L 303.751122 150.044303 
L 304.2337 150.332278 
L 304.716279 150.238186 
L 305.198857 150.387289 
L 305.681435 150.389117 
L 306.164013 150.73357 
L 306.646592 150.789721 
L 307.12917 150.618431 
L 307.611748 150.944354 
L 308.094327 150.900262 
L 308.576905 151.110713 
L 309.059483 151.012904 
L 309.542061 151.419748 
L 310.02464 151.218692 
L 311.472375 151.664983 
L 311.954953 151.517525 
L 312.920109 151.511231 
L 313.402688 151.34733 
L 313.885266 151.848811 
L 314.850423 151.793599 
L 315.333001 151.51544 
L 315.815579 151.779788 
L 316.780736 151.984859 
L 317.263314 151.838143 
L 317.745892 151.906421 
L 318.228471 152.235935 
L 318.711049 151.791505 
L 319.676206 152.286773 
L 320.641362 152.229961 
L 321.12394 152.089161 
L 321.606519 152.520287 
L 322.089097 152.554129 
L 322.571675 152.24178 
L 323.054254 152.287998 
L 323.536832 152.514952 
L 324.01941 152.306847 
L 324.984567 152.515424 
L 325.949723 152.714801 
L 326.432302 152.775633 
L 326.91488 152.406711 
L 327.397458 152.560806 
L 327.880036 152.92747 
L 329.327771 152.442561 
L 329.81035 152.933486 
L 331.740663 152.608227 
L 332.223241 153.080615 
L 332.705819 153.049244 
L 333.188398 152.733793 
L 333.670976 152.661607 
L 334.153554 153.229535 
L 334.636133 152.917243 
L 335.118711 153.205927 
L 335.601289 153.127187 
L 336.083867 152.884983 
L 336.566446 152.904412 
L 337.049024 153.346469 
L 337.531602 153.277859 
L 338.014181 152.831667 
L 338.496759 153.387482 
L 338.979337 153.031071 
L 339.461915 153.334741 
L 339.944494 152.993499 
L 340.427072 153.160272 
L 340.90965 153.147861 
L 341.392229 153.345492 
L 341.874807 153.24193 
L 342.357385 153.374325 
L 342.839964 153.219025 
L 343.322542 153.181723 
L 343.80512 153.46212 
L 344.287698 153.522662 
L 344.770277 153.161787 
L 345.735433 153.530113 
L 346.218012 152.959039 
L 346.70059 153.475164 
L 347.183168 153.214853 
L 347.665746 153.248735 
L 348.148325 153.408138 
L 349.59606 153.357412 
L 350.078638 153.411676 
L 351.043794 153.109788 
L 351.526373 153.46617 
L 352.008951 153.188837 
L 352.491529 153.638789 
L 352.974108 153.464468 
L 353.456686 153.61864 
L 353.939264 153.542887 
L 354.421843 153.329765 
L 354.904421 153.617253 
L 355.386999 153.448472 
L 355.869577 153.523484 
L 356.352156 152.885493 
L 356.834734 153.861552 
L 357.317312 153.343337 
L 357.799891 153.686354 
L 358.282469 153.546275 
L 358.765047 153.790483 
L 359.247625 153.324617 
L 359.730204 153.573437 
L 360.69536 153.335103 
L 361.177939 153.552657 
L 361.660517 153.442327 
L 362.143095 153.612258 
L 363.108252 153.246048 
L 364.073408 153.576515 
L 364.555987 153.442864 
L 365.038565 153.452033 
L 365.521143 153.596118 
L 366.003721 153.213184 
L 366.4863 153.394071 
L 366.968878 153.810545 
L 367.451456 153.523802 
L 368.416613 153.789064 
L 368.899191 153.809002 
L 369.864348 153.536336 
L 370.346926 153.784176 
L 370.829504 153.520621 
L 371.794661 153.802048 
L 372.277239 153.637752 
L 372.759818 153.876489 
L 373.242396 153.269974 
L 373.724974 153.749348 
L 374.690131 153.589991 
L 375.655287 153.827045 
L 376.137866 153.79096 
L 376.620444 153.600482 
L 377.103022 153.275964 
L 378.068179 153.84225 
L 378.550757 153.642265 
L 379.033335 153.837614 
L 379.515914 153.580175 
L 379.998492 154.063815 
L 380.48107 153.711541 
L 380.963649 153.929859 
L 381.446227 153.742316 
L 381.928805 153.433724 
L 382.411383 154.177034 
L 382.893962 153.804299 
L 383.37654 153.631189 
L 383.859118 153.862165 
L 384.824275 153.84787 
L 385.306853 153.913328 
L 385.789431 153.718933 
L 386.27201 153.942061 
L 386.754588 153.76889 
L 387.237166 153.888097 
L 387.719745 154.156937 
L 389.167479 153.644638 
L 389.650058 153.913645 
L 390.615214 153.788784 
L 391.097793 153.555087 
L 391.580371 153.990146 
L 392.062949 153.889043 
L 392.545528 154.006952 
L 393.028106 153.847588 
L 393.510684 153.975317 
L 393.993262 153.883156 
L 394.958419 154.12061 
L 395.440997 153.967825 
L 395.923576 154.190333 
L 396.888732 153.961735 
L 397.37131 153.990061 
L 397.853889 154.242561 
L 398.336467 154.053382 
L 398.819045 154.016572 
L 399.301624 153.816611 
L 399.784202 153.992433 
L 400.26678 153.969621 
L 401.231937 154.368 
L 401.714515 154.214577 
L 402.197093 153.902779 
L 403.644828 154.235705 
L 404.127407 153.954918 
L 404.609985 154.334059 
L 405.092563 153.964224 
L 405.575141 154.254957 
L 407.505455 153.996391 
L 407.505455 153.996391 
" style="fill:none;stroke:#1f77b4;stroke-linecap:square;stroke-width:1.5;"/>
   </g>
   <g id="patch_8">
    <path d="M 256 159.744 
L 256 41.472 
" style="fill:none;stroke:#000000;stroke-linecap:square;stroke-linejoin:miter;stroke-width:0.8;"/>
   </g>
   <g id="patch_9">
    <path d="M 414.72 159.744 
L 414.72 41.472 
" style="fill:none;stroke:#000000;stroke-linecap:square;stroke-linejoin:miter;stroke-width:0.8;"/>
   </g>
   <g id="patch_10">
    <path d="M 256 159.744 
L 414.72 159.744 
" style="fill:none;stroke:#000000;stroke-linecap:square;stroke-linejoin:miter;stroke-width:0.8;"/>
   </g>
   <g id="patch_11">
    <path d="M 256 41.472 
L 414.72 41.472 
" style="fill:none;stroke:#000000;stroke-linecap:square;stroke-linejoin:miter;stroke-width:0.8;"/>
   </g>
   <g id="text_18">
    <!-- loss -->
    <defs>
     <path d="M 9.421875 75.984375 
L 18.40625 75.984375 
L 18.40625 0 
L 9.421875 0 
z
" id="DejaVuSans-6c"/>
     <path d="M 30.609375 48.390625 
Q 23.390625 48.390625 19.1875 42.75 
Q 14.984375 37.109375 14.984375 27.296875 
Q 14.984375 17.484375 19.15625 11.84375 
Q 23.34375 6.203125 30.609375 6.203125 
Q 37.796875 6.203125 41.984375 11.859375 
Q 46.1875 17.53125 46.1875 27.296875 
Q 46.1875 37.015625 41.984375 42.703125 
Q 37.796875 48.390625 30.609375 48.390625 
z
M 30.609375 56 
Q 42.328125 56 49.015625 48.375 
Q 55.71875 40.765625 55.71875 27.296875 
Q 55.71875 13.875 49.015625 6.21875 
Q 42.328125 -1.421875 30.609375 -1.421875 
Q 18.84375 -1.421875 12.171875 6.21875 
Q 5.515625 13.875 5.515625 27.296875 
Q 5.515625 40.765625 12.171875 48.375 
Q 18.84375 56 30.609375 56 
z
" id="DejaVuSans-6f"/>
     <path d="M 44.28125 53.078125 
L 44.28125 44.578125 
Q 40.484375 46.53125 36.375 47.5 
Q 32.28125 48.484375 27.875 48.484375 
Q 21.1875 48.484375 17.84375 46.4375 
Q 14.5 44.390625 14.5 40.28125 
Q 14.5 37.15625 16.890625 35.375 
Q 19.28125 33.59375 26.515625 31.984375 
L 29.59375 31.296875 
Q 39.15625 29.25 43.1875 25.515625 
Q 47.21875 21.78125 47.21875 15.09375 
Q 47.21875 7.46875 41.1875 3.015625 
Q 35.15625 -1.421875 24.609375 -1.421875 
Q 20.21875 -1.421875 15.453125 -0.5625 
Q 10.6875 0.296875 5.421875 2 
L 5.421875 11.28125 
Q 10.40625 8.6875 15.234375 7.390625 
Q 20.0625 6.109375 24.8125 6.109375 
Q 31.15625 6.109375 34.5625 8.28125 
Q 37.984375 10.453125 37.984375 14.40625 
Q 37.984375 18.0625 35.515625 20.015625 
Q 33.0625 21.96875 24.703125 23.78125 
L 21.578125 24.515625 
Q 13.234375 26.265625 9.515625 29.90625 
Q 5.8125 33.546875 5.8125 39.890625 
Q 5.8125 47.609375 11.28125 51.796875 
Q 16.75 56 26.8125 56 
Q 31.78125 56 36.171875 55.265625 
Q 40.578125 54.546875 44.28125 53.078125 
z
" id="DejaVuSans-73"/>
    </defs>
    <g transform="translate(323.770625 35.472)scale(0.12 -0.12)">
     <use xlink:href="#DejaVuSans-6c"/>
     <use x="27.783203" xlink:href="#DejaVuSans-6f"/>
     <use x="88.964844" xlink:href="#DejaVuSans-73"/>
     <use x="141.064453" xlink:href="#DejaVuSans-73"/>
    </g>
   </g>
  </g>
  <g id="axes_3">
   <g id="patch_12">
    <path d="M 57.6 307.584 
L 216.32 307.584 
L 216.32 189.312 
L 57.6 189.312 
z
" style="fill:#ffffff;"/>
   </g>
   <g id="matplotlib.axis_5">
    <g id="xtick_9">
     <g id="line2d_35">
      <path clip-path="url(#p6b7c00aeaa)" d="M 64.814545 307.584 
L 64.814545 189.312 
" style="fill:none;stroke:#b0b0b0;stroke-linecap:square;stroke-width:0.8;"/>
     </g>
     <g id="line2d_36">
      <g>
       <use style="stroke:#000000;stroke-width:0.8;" x="64.814545" xlink:href="#m49127caa22" y="307.584"/>
      </g>
     </g>
     <g id="text_19">
      <!-- 0 -->
      <g transform="translate(61.633295 322.182437)scale(0.1 -0.1)">
       <use xlink:href="#DejaVuSans-30"/>
      </g>
     </g>
    </g>
    <g id="xtick_10">
     <g id="line2d_37">
      <path clip-path="url(#p6b7c00aeaa)" d="M 113.072375 307.584 
L 113.072375 189.312 
" style="fill:none;stroke:#b0b0b0;stroke-linecap:square;stroke-width:0.8;"/>
     </g>
     <g id="line2d_38">
      <g>
       <use style="stroke:#000000;stroke-width:0.8;" x="113.072375" xlink:href="#m49127caa22" y="307.584"/>
      </g>
     </g>
     <g id="text_20">
      <!-- 100 -->
      <g transform="translate(103.528625 322.182437)scale(0.1 -0.1)">
       <use xlink:href="#DejaVuSans-31"/>
       <use x="63.623047" xlink:href="#DejaVuSans-30"/>
       <use x="127.246094" xlink:href="#DejaVuSans-30"/>
      </g>
     </g>
    </g>
    <g id="xtick_11">
     <g id="line2d_39">
      <path clip-path="url(#p6b7c00aeaa)" d="M 161.330204 307.584 
L 161.330204 189.312 
" style="fill:none;stroke:#b0b0b0;stroke-linecap:square;stroke-width:0.8;"/>
     </g>
     <g id="line2d_40">
      <g>
       <use style="stroke:#000000;stroke-width:0.8;" x="161.330204" xlink:href="#m49127caa22" y="307.584"/>
      </g>
     </g>
     <g id="text_21">
      <!-- 200 -->
      <g transform="translate(151.786454 322.182437)scale(0.1 -0.1)">
       <use xlink:href="#DejaVuSans-32"/>
       <use x="63.623047" xlink:href="#DejaVuSans-30"/>
       <use x="127.246094" xlink:href="#DejaVuSans-30"/>
      </g>
     </g>
    </g>
    <g id="xtick_12">
     <g id="line2d_41">
      <path clip-path="url(#p6b7c00aeaa)" d="M 209.588033 307.584 
L 209.588033 189.312 
" style="fill:none;stroke:#b0b0b0;stroke-linecap:square;stroke-width:0.8;"/>
     </g>
     <g id="line2d_42">
      <g>
       <use style="stroke:#000000;stroke-width:0.8;" x="209.588033" xlink:href="#m49127caa22" y="307.584"/>
      </g>
     </g>
     <g id="text_22">
      <!-- 300 -->
      <g transform="translate(200.044283 322.182437)scale(0.1 -0.1)">
       <use xlink:href="#DejaVuSans-33"/>
       <use x="63.623047" xlink:href="#DejaVuSans-30"/>
       <use x="127.246094" xlink:href="#DejaVuSans-30"/>
      </g>
     </g>
    </g>
   </g>
   <g id="matplotlib.axis_6">
    <g id="ytick_9">
     <g id="line2d_43">
      <path clip-path="url(#p6b7c00aeaa)" d="M 57.6 302.652298 
L 216.32 302.652298 
" style="fill:none;stroke:#b0b0b0;stroke-linecap:square;stroke-width:0.8;"/>
     </g>
     <g id="line2d_44">
      <g>
       <use style="stroke:#000000;stroke-width:0.8;" x="57.6" xlink:href="#m67ab0d6b59" y="302.652298"/>
      </g>
     </g>
     <g id="text_23">
      <!-- 0.00 -->
      <g transform="translate(28.334375 306.451516)scale(0.1 -0.1)">
       <use xlink:href="#DejaVuSans-30"/>
       <use x="63.623047" xlink:href="#DejaVuSans-2e"/>
       <use x="95.410156" xlink:href="#DejaVuSans-30"/>
       <use x="159.033203" xlink:href="#DejaVuSans-30"/>
      </g>
     </g>
    </g>
    <g id="ytick_10">
     <g id="line2d_45">
      <path clip-path="url(#p6b7c00aeaa)" d="M 57.6 274.217256 
L 216.32 274.217256 
" style="fill:none;stroke:#b0b0b0;stroke-linecap:square;stroke-width:0.8;"/>
     </g>
     <g id="line2d_46">
      <g>
       <use style="stroke:#000000;stroke-width:0.8;" x="57.6" xlink:href="#m67ab0d6b59" y="274.217256"/>
      </g>
     </g>
     <g id="text_24">
      <!-- 0.25 -->
      <g transform="translate(28.334375 278.016475)scale(0.1 -0.1)">
       <use xlink:href="#DejaVuSans-30"/>
       <use x="63.623047" xlink:href="#DejaVuSans-2e"/>
       <use x="95.410156" xlink:href="#DejaVuSans-32"/>
       <use x="159.033203" xlink:href="#DejaVuSans-35"/>
      </g>
     </g>
    </g>
    <g id="ytick_11">
     <g id="line2d_47">
      <path clip-path="url(#p6b7c00aeaa)" d="M 57.6 245.782214 
L 216.32 245.782214 
" style="fill:none;stroke:#b0b0b0;stroke-linecap:square;stroke-width:0.8;"/>
     </g>
     <g id="line2d_48">
      <g>
       <use style="stroke:#000000;stroke-width:0.8;" x="57.6" xlink:href="#m67ab0d6b59" y="245.782214"/>
      </g>
     </g>
     <g id="text_25">
      <!-- 0.50 -->
      <g transform="translate(28.334375 249.581433)scale(0.1 -0.1)">
       <use xlink:href="#DejaVuSans-30"/>
       <use x="63.623047" xlink:href="#DejaVuSans-2e"/>
       <use x="95.410156" xlink:href="#DejaVuSans-35"/>
       <use x="159.033203" xlink:href="#DejaVuSans-30"/>
      </g>
     </g>
    </g>
    <g id="ytick_12">
     <g id="line2d_49">
      <path clip-path="url(#p6b7c00aeaa)" d="M 57.6 217.347173 
L 216.32 217.347173 
" style="fill:none;stroke:#b0b0b0;stroke-linecap:square;stroke-width:0.8;"/>
     </g>
     <g id="line2d_50">
      <g>
       <use style="stroke:#000000;stroke-width:0.8;" x="57.6" xlink:href="#m67ab0d6b59" y="217.347173"/>
      </g>
     </g>
     <g id="text_26">
      <!-- 0.75 -->
      <g transform="translate(28.334375 221.146392)scale(0.1 -0.1)">
       <use xlink:href="#DejaVuSans-30"/>
       <use x="63.623047" xlink:href="#DejaVuSans-2e"/>
       <use x="95.410156" xlink:href="#DejaVuSans-37"/>
       <use x="159.033203" xlink:href="#DejaVuSans-35"/>
      </g>
     </g>
    </g>
    <g id="ytick_13">
     <g id="line2d_51">
      <path clip-path="url(#p6b7c00aeaa)" d="M 57.6 188.912131 
L 216.32 188.912131 
" style="fill:none;stroke:#b0b0b0;stroke-linecap:square;stroke-width:0.8;"/>
     </g>
     <g id="line2d_52">
      <g>
       <use style="stroke:#000000;stroke-width:0.8;" x="57.6" xlink:href="#m67ab0d6b59" y="188.912131"/>
      </g>
     </g>
     <g id="text_27">
      <!-- 1.00 -->
      <g transform="translate(28.334375 192.71135)scale(0.1 -0.1)">
       <use xlink:href="#DejaVuSans-31"/>
       <use x="63.623047" xlink:href="#DejaVuSans-2e"/>
       <use x="95.410156" xlink:href="#DejaVuSans-30"/>
       <use x="159.033203" xlink:href="#DejaVuSans-30"/>
      </g>
     </g>
    </g>
   </g>
   <g id="line2d_53">
    <path clip-path="url(#p6b7c00aeaa)" d="M 64.814545 302.208 
L 65.297124 302.208 
L 65.779702 299.542215 
L 66.26228 299.542215 
L 66.744859 295.099239 
L 67.227437 295.987835 
L 67.710015 291.544859 
L 68.192593 291.544859 
L 68.675172 287.546181 
L 69.15775 281.770314 
L 69.640328 277.771636 
L 70.122907 278.660231 
L 70.605485 272.440065 
L 71.088063 275.550148 
L 71.570642 273.772958 
L 72.05322 275.994446 
L 72.535798 270.218578 
L 73.018376 268.885685 
L 73.500955 263.998413 
L 73.983533 266.664197 
L 74.466111 259.999734 
L 74.94869 259.555437 
L 75.431268 260.444032 
L 75.913846 259.111139 
L 76.396424 250.669487 
L 76.879003 260.444033 
L 77.361581 262.66552 
L 77.844159 260.444032 
L 78.326738 245.337916 
L 78.809316 260.444032 
L 79.291894 253.335272 
L 79.774472 240.006346 
L 80.257051 248.0037 
L 80.739629 247.559404 
L 81.222207 236.451965 
L 81.704786 232.453287 
L 82.187364 248.447999 
L 82.669942 243.560726 
L 83.152521 236.007667 
L 83.635099 245.337915 
L 84.117677 227.566015 
L 84.600255 225.344526 
L 85.082834 229.343205 
L 85.565412 234.674775 
L 86.04799 232.897585 
L 86.530569 230.231799 
L 87.013147 228.454609 
L 87.978303 224.011633 
L 88.460882 233.786181 
L 88.94346 225.344526 
L 89.426038 225.344527 
L 89.908617 246.226511 
L 90.391195 223.123039 
L 90.873773 240.450643 
L 91.356351 218.680064 
L 91.83893 220.901553 
L 92.321508 226.677418 
L 92.804086 214.681386 
L 93.286665 215.125684 
L 93.769243 216.902873 
L 94.251821 224.011633 
L 94.7344 220.012957 
L 95.216978 214.23709 
L 95.699556 214.23709 
L 96.182134 223.123039 
L 96.664713 214.681388 
L 97.147291 223.123038 
L 97.629869 228.454609 
L 98.112448 215.125684 
L 98.595026 216.458576 
L 99.560182 208.905519 
L 100.042761 229.787503 
L 100.525339 222.67874 
L 101.007917 208.016925 
L 101.490496 208.461222 
L 101.973074 207.572627 
L 102.455652 210.238412 
L 102.93823 211.571304 
L 103.420809 207.572627 
L 103.903387 225.788825 
L 104.385965 229.343205 
L 104.868544 207.572627 
L 105.351122 207.572626 
L 105.8337 210.68271 
L 106.316279 206.684032 
L 106.798857 218.680064 
L 107.281435 204.906843 
L 107.764013 207.572628 
L 108.246592 205.35114 
L 108.72917 212.904197 
L 109.211748 205.35114 
L 110.176905 208.016924 
L 110.659483 213.348494 
L 111.142061 202.241058 
L 111.62464 212.015602 
L 112.107218 206.684033 
L 112.589796 211.127007 
L 113.072375 204.018248 
L 113.554953 210.682711 
L 114.037531 202.685356 
L 114.520109 220.901551 
L 115.002688 204.906842 
L 115.485266 208.016925 
L 115.967844 204.462545 
L 116.450423 205.795438 
L 116.933001 205.795436 
L 117.415579 206.239734 
L 117.898157 207.12833 
L 118.380736 207.12833 
L 118.863314 209.794115 
L 119.345892 204.462544 
L 119.828471 223.12304 
L 120.311049 206.684033 
L 120.793627 205.795437 
L 121.276206 205.795436 
L 121.758784 205.351139 
L 122.241362 202.685355 
L 122.72394 204.018247 
L 123.206519 208.016924 
L 123.689097 204.906842 
L 124.171675 204.906843 
L 124.654254 208.461222 
L 125.136832 211.127006 
L 125.61941 203.57395 
L 126.101988 205.35114 
L 126.584567 207.572627 
L 127.067145 202.685357 
L 127.549723 204.018247 
L 128.51488 205.795437 
L 129.480036 200.463867 
L 129.962615 204.462546 
L 130.445193 219.56866 
L 130.927771 202.685356 
L 131.892928 206.239735 
L 132.375506 211.127007 
L 132.858085 201.79676 
L 133.340663 204.018246 
L 133.823241 201.79676 
L 134.305819 207.12833 
L 134.788398 200.463868 
L 135.270976 205.351141 
L 135.753554 208.016925 
L 136.236133 200.019571 
L 136.718711 208.016924 
L 137.201289 204.462545 
L 137.683867 238.673453 
L 138.166446 204.018246 
L 138.649024 202.685355 
L 139.131602 200.908165 
L 139.614181 203.573949 
L 140.096759 208.90552 
L 140.579337 208.016924 
L 141.061915 200.908164 
L 141.544494 203.573949 
L 142.027072 218.680065 
L 142.50965 202.241057 
L 142.992229 200.019569 
L 143.474807 201.796761 
L 143.957385 204.018246 
L 144.439964 204.906842 
L 144.922542 201.352463 
L 145.887698 208.461222 
L 146.370277 201.79676 
L 146.852855 205.795438 
L 147.335433 208.461222 
L 147.818012 204.462545 
L 148.30059 212.015601 
L 148.783168 203.129652 
L 149.265746 215.569981 
L 149.748325 217.791468 
L 150.230903 203.573951 
L 150.713481 200.908165 
L 151.19606 203.129653 
L 151.678638 200.463868 
L 152.161216 200.463867 
L 152.643794 202.241058 
L 153.126373 228.898908 
L 153.608951 202.241057 
L 154.091529 204.018248 
L 154.574108 199.575272 
L 155.056686 203.573952 
L 156.021843 199.130976 
L 156.504421 228.454609 
L 156.986999 200.01957 
L 157.469577 204.018247 
L 157.952156 203.57395 
L 158.434734 200.463868 
L 158.917312 204.462544 
L 159.399891 220.012957 
L 159.882469 201.352462 
L 160.365047 198.686679 
L 160.847625 201.79676 
L 161.330204 209.794115 
L 161.812782 209.349818 
L 162.29536 200.908165 
L 162.777939 202.685356 
L 163.260517 220.901553 
L 163.743095 201.352463 
L 164.225673 200.463867 
L 164.708252 198.242379 
L 165.673408 204.018247 
L 166.155987 202.241057 
L 166.638565 198.686678 
L 167.121143 233.341883 
L 167.603721 202.241057 
L 168.0863 202.241057 
L 168.568878 201.352462 
L 169.051456 203.129653 
L 170.016613 204.018248 
L 170.499191 220.901552 
L 170.98177 200.01957 
L 171.464348 199.130974 
L 171.946926 199.575272 
L 172.429504 209.794113 
L 172.912083 201.79676 
L 173.394661 200.908165 
L 173.877239 203.129653 
L 174.359818 220.457254 
L 174.842396 202.241057 
L 175.324974 196.909488 
L 175.807552 211.571304 
L 176.290131 199.130975 
L 176.772709 200.463868 
L 177.255287 204.462545 
L 177.737866 200.01957 
L 178.703022 197.353785 
L 179.1856 200.01957 
L 179.668179 201.352462 
L 180.150757 198.686678 
L 180.633335 201.352461 
L 181.115914 218.235768 
L 181.598492 203.129653 
L 182.08107 196.020892 
L 182.563649 199.130975 
L 183.046227 198.242381 
L 183.528805 200.908165 
L 184.011383 196.909487 
L 184.493962 198.24238 
L 184.97654 200.01957 
L 185.459118 198.242381 
L 185.941697 196.909488 
L 186.424275 194.688 
L 186.906853 199.130975 
L 187.389431 200.908164 
L 187.87201 201.796759 
L 188.354588 211.571304 
L 188.837166 196.909488 
L 189.319745 203.129652 
L 189.802323 200.01957 
L 190.767479 200.908165 
L 191.250058 197.798083 
L 191.732636 199.130975 
L 192.215214 203.573951 
L 192.697793 205.795438 
L 193.180371 198.686678 
L 193.662949 210.238411 
L 194.145528 200.019571 
L 194.628106 202.241058 
L 195.110684 200.908165 
L 195.593262 211.571306 
L 196.075841 197.353786 
L 196.558419 206.239736 
L 197.040997 200.908164 
L 197.523576 200.463867 
L 198.006154 206.684032 
L 198.488732 200.01957 
L 198.97131 202.241057 
L 199.453889 200.463867 
L 199.936467 199.575273 
L 200.419045 221.790148 
L 200.901624 201.79676 
L 201.384202 200.908165 
L 201.86678 199.130976 
L 202.349358 202.685355 
L 202.831937 196.909488 
L 203.314515 211.127006 
L 203.797093 197.798083 
L 204.279672 196.909488 
L 204.76225 200.463868 
L 205.244828 203.129652 
L 205.727407 201.352462 
L 206.209985 196.909487 
L 206.692563 213.348494 
L 207.175141 198.686677 
L 207.65772 196.909488 
L 208.140298 198.242379 
L 208.622876 196.020893 
L 209.105455 198.24238 
L 209.105455 198.24238 
" style="fill:none;stroke:#1f77b4;stroke-linecap:square;stroke-width:1.5;"/>
   </g>
   <g id="patch_13">
    <path d="M 57.6 307.584 
L 57.6 189.312 
" style="fill:none;stroke:#000000;stroke-linecap:square;stroke-linejoin:miter;stroke-width:0.8;"/>
   </g>
   <g id="patch_14">
    <path d="M 216.32 307.584 
L 216.32 189.312 
" style="fill:none;stroke:#000000;stroke-linecap:square;stroke-linejoin:miter;stroke-width:0.8;"/>
   </g>
   <g id="patch_15">
    <path d="M 57.6 307.584 
L 216.32 307.584 
" style="fill:none;stroke:#000000;stroke-linecap:square;stroke-linejoin:miter;stroke-width:0.8;"/>
   </g>
   <g id="patch_16">
    <path d="M 57.6 189.312 
L 216.32 189.312 
" style="fill:none;stroke:#000000;stroke-linecap:square;stroke-linejoin:miter;stroke-width:0.8;"/>
   </g>
   <g id="text_28">
    <!-- val_acc -->
    <defs>
     <path d="M 2.984375 54.6875 
L 12.5 54.6875 
L 29.59375 8.796875 
L 46.6875 54.6875 
L 56.203125 54.6875 
L 35.6875 0 
L 23.484375 0 
z
" id="DejaVuSans-76"/>
     <path d="M 50.984375 -16.609375 
L 50.984375 -23.578125 
L -0.984375 -23.578125 
L -0.984375 -16.609375 
z
" id="DejaVuSans-5f"/>
    </defs>
    <g transform="translate(114.79 183.312)scale(0.12 -0.12)">
     <use xlink:href="#DejaVuSans-76"/>
     <use x="59.179688" xlink:href="#DejaVuSans-61"/>
     <use x="120.458984" xlink:href="#DejaVuSans-6c"/>
     <use x="148.242188" xlink:href="#DejaVuSans-5f"/>
     <use x="198.242188" xlink:href="#DejaVuSans-61"/>
     <use x="259.521484" xlink:href="#DejaVuSans-63"/>
     <use x="314.501953" xlink:href="#DejaVuSans-63"/>
    </g>
   </g>
  </g>
  <g id="axes_4">
   <g id="patch_17">
    <path d="M 256 307.584 
L 414.72 307.584 
L 414.72 189.312 
L 256 189.312 
z
" style="fill:#ffffff;"/>
   </g>
   <g id="matplotlib.axis_7">
    <g id="xtick_13">
     <g id="line2d_54">
      <path clip-path="url(#paebbb6576d)" d="M 263.214545 307.584 
L 263.214545 189.312 
" style="fill:none;stroke:#b0b0b0;stroke-linecap:square;stroke-width:0.8;"/>
     </g>
     <g id="line2d_55">
      <g>
       <use style="stroke:#000000;stroke-width:0.8;" x="263.214545" xlink:href="#m49127caa22" y="307.584"/>
      </g>
     </g>
     <g id="text_29">
      <!-- 0 -->
      <g transform="translate(260.033295 322.182437)scale(0.1 -0.1)">
       <use xlink:href="#DejaVuSans-30"/>
      </g>
     </g>
    </g>
    <g id="xtick_14">
     <g id="line2d_56">
      <path clip-path="url(#paebbb6576d)" d="M 311.472375 307.584 
L 311.472375 189.312 
" style="fill:none;stroke:#b0b0b0;stroke-linecap:square;stroke-width:0.8;"/>
     </g>
     <g id="line2d_57">
      <g>
       <use style="stroke:#000000;stroke-width:0.8;" x="311.472375" xlink:href="#m49127caa22" y="307.584"/>
      </g>
     </g>
     <g id="text_30">
      <!-- 100 -->
      <g transform="translate(301.928625 322.182437)scale(0.1 -0.1)">
       <use xlink:href="#DejaVuSans-31"/>
       <use x="63.623047" xlink:href="#DejaVuSans-30"/>
       <use x="127.246094" xlink:href="#DejaVuSans-30"/>
      </g>
     </g>
    </g>
    <g id="xtick_15">
     <g id="line2d_58">
      <path clip-path="url(#paebbb6576d)" d="M 359.730204 307.584 
L 359.730204 189.312 
" style="fill:none;stroke:#b0b0b0;stroke-linecap:square;stroke-width:0.8;"/>
     </g>
     <g id="line2d_59">
      <g>
       <use style="stroke:#000000;stroke-width:0.8;" x="359.730204" xlink:href="#m49127caa22" y="307.584"/>
      </g>
     </g>
     <g id="text_31">
      <!-- 200 -->
      <g transform="translate(350.186454 322.182437)scale(0.1 -0.1)">
       <use xlink:href="#DejaVuSans-32"/>
       <use x="63.623047" xlink:href="#DejaVuSans-30"/>
       <use x="127.246094" xlink:href="#DejaVuSans-30"/>
      </g>
     </g>
    </g>
    <g id="xtick_16">
     <g id="line2d_60">
      <path clip-path="url(#paebbb6576d)" d="M 407.988033 307.584 
L 407.988033 189.312 
" style="fill:none;stroke:#b0b0b0;stroke-linecap:square;stroke-width:0.8;"/>
     </g>
     <g id="line2d_61">
      <g>
       <use style="stroke:#000000;stroke-width:0.8;" x="407.988033" xlink:href="#m49127caa22" y="307.584"/>
      </g>
     </g>
     <g id="text_32">
      <!-- 300 -->
      <g transform="translate(398.444283 322.182437)scale(0.1 -0.1)">
       <use xlink:href="#DejaVuSans-33"/>
       <use x="63.623047" xlink:href="#DejaVuSans-30"/>
       <use x="127.246094" xlink:href="#DejaVuSans-30"/>
      </g>
     </g>
    </g>
   </g>
   <g id="matplotlib.axis_8">
    <g id="ytick_14">
     <g id="line2d_62">
      <path clip-path="url(#paebbb6576d)" d="M 256 306.302236 
L 414.72 306.302236 
" style="fill:none;stroke:#b0b0b0;stroke-linecap:square;stroke-width:0.8;"/>
     </g>
     <g id="line2d_63">
      <g>
       <use style="stroke:#000000;stroke-width:0.8;" x="256" xlink:href="#m67ab0d6b59" y="306.302236"/>
      </g>
     </g>
     <g id="text_33">
      <!-- 0 -->
      <g transform="translate(242.6375 310.101454)scale(0.1 -0.1)">
       <use xlink:href="#DejaVuSans-30"/>
      </g>
     </g>
    </g>
    <g id="ytick_15">
     <g id="line2d_64">
      <path clip-path="url(#paebbb6576d)" d="M 256 265.999455 
L 414.72 265.999455 
" style="fill:none;stroke:#b0b0b0;stroke-linecap:square;stroke-width:0.8;"/>
     </g>
     <g id="line2d_65">
      <g>
       <use style="stroke:#000000;stroke-width:0.8;" x="256" xlink:href="#m67ab0d6b59" y="265.999455"/>
      </g>
     </g>
     <g id="text_34">
      <!-- 2 -->
      <g transform="translate(242.6375 269.798674)scale(0.1 -0.1)">
       <use xlink:href="#DejaVuSans-32"/>
      </g>
     </g>
    </g>
    <g id="ytick_16">
     <g id="line2d_66">
      <path clip-path="url(#paebbb6576d)" d="M 256 225.696675 
L 414.72 225.696675 
" style="fill:none;stroke:#b0b0b0;stroke-linecap:square;stroke-width:0.8;"/>
     </g>
     <g id="line2d_67">
      <g>
       <use style="stroke:#000000;stroke-width:0.8;" x="256" xlink:href="#m67ab0d6b59" y="225.696675"/>
      </g>
     </g>
     <g id="text_35">
      <!-- 4 -->
      <g transform="translate(242.6375 229.495893)scale(0.1 -0.1)">
       <use xlink:href="#DejaVuSans-34"/>
      </g>
     </g>
    </g>
   </g>
   <g id="line2d_68">
    <path clip-path="url(#paebbb6576d)" d="M 263.214545 194.688 
L 263.697124 197.671725 
L 264.179702 200.152828 
L 264.66228 206.562927 
L 265.144859 215.202218 
L 265.627437 218.88927 
L 266.110015 225.258029 
L 266.592593 226.596602 
L 267.55775 236.000482 
L 268.040328 239.30209 
L 268.522907 241.169779 
L 269.005485 243.846122 
L 269.488063 244.429477 
L 269.970642 244.818141 
L 270.45322 245.359651 
L 270.935798 247.795203 
L 271.418376 251.314269 
L 271.900955 253.969369 
L 272.383533 252.749103 
L 272.866111 256.043231 
L 273.34869 256.302739 
L 273.831268 258.109763 
L 274.313846 254.64513 
L 274.796424 262.820017 
L 275.761581 255.479106 
L 276.244159 261.366311 
L 276.726738 265.892349 
L 277.209316 260.281977 
L 278.174472 269.300626 
L 278.657051 269.444702 
L 279.139629 268.625703 
L 279.622207 275.015853 
L 280.104786 275.132949 
L 280.587364 269.748576 
L 281.069942 270.858742 
L 281.552521 276.568323 
L 282.035099 268.509012 
L 282.517677 277.957959 
L 283.000255 279.960658 
L 283.482834 279.511464 
L 283.965412 275.460187 
L 284.44799 276.227241 
L 284.930569 280.799581 
L 285.413147 279.019091 
L 285.895725 282.436219 
L 286.378303 283.214775 
L 286.860882 278.321816 
L 287.34346 282.277069 
L 287.826038 283.588271 
L 288.308617 272.809595 
L 288.791195 285.366303 
L 289.273773 275.157766 
L 289.756351 287.161813 
L 290.23893 286.442846 
L 290.721508 283.720039 
L 291.204086 288.359396 
L 291.686665 289.498919 
L 292.169243 288.866585 
L 292.651821 286.697989 
L 293.616978 289.762525 
L 294.099556 288.703713 
L 294.582134 286.924727 
L 295.064713 289.882312 
L 296.029869 278.657428 
L 296.512448 289.335576 
L 296.995026 289.357439 
L 297.477604 292.004438 
L 297.960182 292.096795 
L 298.442761 280.647012 
L 299.407917 293.236179 
L 299.890496 292.538668 
L 300.373074 294.377449 
L 300.855652 293.255528 
L 301.33823 293.529428 
L 301.820809 293.960774 
L 302.303387 283.189594 
L 302.785965 281.852981 
L 303.268544 293.756296 
L 303.751122 294.791144 
L 304.2337 292.540448 
L 304.716279 295.038447 
L 305.198857 291.087857 
L 305.681435 295.235047 
L 306.164013 293.598821 
L 306.646592 295.986423 
L 307.12917 292.622214 
L 307.611748 295.563799 
L 308.094327 296.182944 
L 309.059483 291.719825 
L 309.542061 297.160002 
L 310.02464 292.070348 
L 310.507218 296.05854 
L 310.989796 290.982864 
L 311.472375 297.233709 
L 311.954953 293.970189 
L 312.437531 297.772303 
L 312.920109 288.478907 
L 313.402688 295.866089 
L 313.885266 295.762383 
L 314.367844 297.206596 
L 314.850423 296.940099 
L 315.333001 296.210693 
L 315.815579 296.389455 
L 316.298157 297.11977 
L 316.780736 294.338633 
L 317.263314 294.676725 
L 317.745892 296.993125 
L 318.228471 287.119988 
L 318.711049 295.883451 
L 319.193627 296.582282 
L 319.676206 296.380186 
L 320.158784 296.523121 
L 320.641362 297.532344 
L 321.12394 297.646849 
L 321.606519 295.297401 
L 322.089097 297.500915 
L 322.571675 297.216637 
L 323.054254 295.799878 
L 323.536832 293.816767 
L 324.01941 297.043376 
L 324.984567 296.287387 
L 325.467145 297.549392 
L 325.949723 297.059089 
L 326.91488 296.88468 
L 327.397458 299.147764 
L 327.880036 299.350127 
L 328.362615 296.973571 
L 328.845193 287.802901 
L 329.327771 297.36198 
L 329.81035 297.563295 
L 330.292928 297.499341 
L 330.775506 293.273296 
L 331.258085 298.704429 
L 331.740663 297.079391 
L 332.223241 298.138384 
L 332.705819 295.883982 
L 333.188398 299.027367 
L 333.670976 296.241217 
L 334.153554 295.846718 
L 334.636133 298.835506 
L 335.118711 294.211636 
L 335.601289 297.41072 
L 336.083867 266.877584 
L 336.566446 296.325363 
L 337.049024 297.517667 
L 337.531602 297.377673 
L 338.014181 298.048213 
L 338.496759 294.656985 
L 338.979337 294.39232 
L 339.461915 298.015257 
L 339.944494 298.45257 
L 340.427072 286.263232 
L 340.90965 298.191948 
L 341.392229 298.988212 
L 341.874807 299.132725 
L 342.357385 297.516488 
L 342.839964 296.614586 
L 343.322542 297.991031 
L 343.80512 297.144302 
L 344.287698 293.783494 
L 344.770277 299.106579 
L 345.735433 294.620087 
L 346.218012 297.824032 
L 346.70059 293.563237 
L 347.183168 298.038001 
L 347.665746 289.18997 
L 348.148325 289.767221 
L 348.630903 297.199814 
L 349.113481 298.532653 
L 349.59606 298.459954 
L 350.078638 298.855229 
L 350.561216 298.289246 
L 351.043794 297.021287 
L 351.526373 278.572864 
L 352.008951 297.59696 
L 352.491529 296.764555 
L 352.974108 299.375366 
L 353.456686 297.950401 
L 353.939264 298.329125 
L 354.421843 298.38151 
L 354.904421 272.43174 
L 355.386999 300.682875 
L 355.869577 296.472799 
L 356.352156 297.134276 
L 356.834734 299.252674 
L 357.317312 296.245249 
L 357.799891 284.847289 
L 358.282469 298.481006 
L 358.765047 299.371301 
L 359.247625 297.065809 
L 359.730204 290.879873 
L 360.212782 291.577744 
L 360.69536 299.707541 
L 361.177939 297.198944 
L 361.660517 280.3886 
L 362.143095 300.192923 
L 362.625673 300.238744 
L 363.108252 299.547439 
L 363.59083 300.520497 
L 364.073408 296.235182 
L 365.038565 300.343398 
L 365.521143 260.792954 
L 366.003721 297.742781 
L 366.4863 298.290593 
L 366.968878 297.653363 
L 367.451456 297.848766 
L 367.934035 296.500493 
L 368.416613 298.0361 
L 368.899191 280.950562 
L 369.38177 299.422813 
L 369.864348 300.830009 
L 370.346926 298.696458 
L 370.829504 290.340041 
L 371.312083 296.880497 
L 371.794661 300.490634 
L 372.277239 298.341414 
L 372.759818 282.252101 
L 373.242396 299.151375 
L 373.724974 301.712793 
L 374.207552 288.790947 
L 374.690131 298.622567 
L 375.172709 300.392106 
L 375.655287 297.002168 
L 376.137866 300.050763 
L 377.103022 300.547265 
L 377.5856 298.677234 
L 378.068179 298.40051 
L 378.550757 299.716539 
L 379.033335 298.245266 
L 379.515914 284.493852 
L 379.998492 295.246848 
L 380.48107 298.718831 
L 380.963649 299.552135 
L 381.446227 299.292689 
L 381.928805 297.448808 
L 382.411383 298.82734 
L 382.893962 299.828054 
L 383.859118 300.797366 
L 384.824275 302.208 
L 385.306853 299.529401 
L 385.789431 299.741454 
L 386.27201 299.203869 
L 386.754588 286.766396 
L 387.237166 299.081913 
L 387.719745 296.220275 
L 388.202323 297.944431 
L 389.167479 300.070103 
L 389.650058 299.194937 
L 390.132636 297.898903 
L 390.615214 294.809899 
L 391.097793 292.861891 
L 391.580371 299.748111 
L 392.062949 290.085573 
L 392.545528 298.981627 
L 393.510684 297.71311 
L 393.993262 288.146909 
L 394.475841 300.89465 
L 394.958419 292.922154 
L 395.440997 299.056881 
L 395.923576 296.402579 
L 396.406154 291.053092 
L 396.888732 298.271172 
L 397.37131 297.677527 
L 397.853889 297.598799 
L 398.336467 300.371427 
L 398.819045 279.120675 
L 399.301624 296.022031 
L 399.784202 299.012945 
L 400.26678 300.135317 
L 400.749358 296.464707 
L 401.231937 301.177184 
L 401.714515 290.229941 
L 402.197093 300.203074 
L 402.679672 301.403572 
L 403.16225 298.992132 
L 403.644828 299.284964 
L 404.127407 298.336897 
L 404.609985 301.804569 
L 405.092563 287.02639 
L 405.575141 298.729718 
L 406.05772 299.496688 
L 406.540298 299.742346 
L 407.022876 300.900445 
L 407.505455 299.45538 
L 407.505455 299.45538 
" style="fill:none;stroke:#1f77b4;stroke-linecap:square;stroke-width:1.5;"/>
   </g>
   <g id="patch_18">
    <path d="M 256 307.584 
L 256 189.312 
" style="fill:none;stroke:#000000;stroke-linecap:square;stroke-linejoin:miter;stroke-width:0.8;"/>
   </g>
   <g id="patch_19">
    <path d="M 414.72 307.584 
L 414.72 189.312 
" style="fill:none;stroke:#000000;stroke-linecap:square;stroke-linejoin:miter;stroke-width:0.8;"/>
   </g>
   <g id="patch_20">
    <path d="M 256 307.584 
L 414.72 307.584 
" style="fill:none;stroke:#000000;stroke-linecap:square;stroke-linejoin:miter;stroke-width:0.8;"/>
   </g>
   <g id="patch_21">
    <path d="M 256 189.312 
L 414.72 189.312 
" style="fill:none;stroke:#000000;stroke-linecap:square;stroke-linejoin:miter;stroke-width:0.8;"/>
   </g>
   <g id="text_36">
    <!-- val_loss -->
    <g transform="translate(311.875625 183.312)scale(0.12 -0.12)">
     <use xlink:href="#DejaVuSans-76"/>
     <use x="59.179688" xlink:href="#DejaVuSans-61"/>
     <use x="120.458984" xlink:href="#DejaVuSans-6c"/>
     <use x="148.242188" xlink:href="#DejaVuSans-5f"/>
     <use x="198.242188" xlink:href="#DejaVuSans-6c"/>
     <use x="226.025391" xlink:href="#DejaVuSans-6f"/>
     <use x="287.207031" xlink:href="#DejaVuSans-73"/>
     <use x="339.306641" xlink:href="#DejaVuSans-73"/>
    </g>
   </g>
  </g>
  <g id="text_37">
   <!-- benchmark 20171023_065009 -->
   <defs>
    <path d="M 48.6875 27.296875 
Q 48.6875 37.203125 44.609375 42.84375 
Q 40.53125 48.484375 33.40625 48.484375 
Q 26.265625 48.484375 22.1875 42.84375 
Q 18.109375 37.203125 18.109375 27.296875 
Q 18.109375 17.390625 22.1875 11.75 
Q 26.265625 6.109375 33.40625 6.109375 
Q 40.53125 6.109375 44.609375 11.75 
Q 48.6875 17.390625 48.6875 27.296875 
z
M 18.109375 46.390625 
Q 20.953125 51.265625 25.265625 53.625 
Q 29.59375 56 35.59375 56 
Q 45.5625 56 51.78125 48.09375 
Q 58.015625 40.1875 58.015625 27.296875 
Q 58.015625 14.40625 51.78125 6.484375 
Q 45.5625 -1.421875 35.59375 -1.421875 
Q 29.59375 -1.421875 25.265625 0.953125 
Q 20.953125 3.328125 18.109375 8.203125 
L 18.109375 0 
L 9.078125 0 
L 9.078125 75.984375 
L 18.109375 75.984375 
z
" id="DejaVuSans-62"/>
    <path d="M 56.203125 29.59375 
L 56.203125 25.203125 
L 14.890625 25.203125 
Q 15.484375 15.921875 20.484375 11.0625 
Q 25.484375 6.203125 34.421875 6.203125 
Q 39.59375 6.203125 44.453125 7.46875 
Q 49.3125 8.734375 54.109375 11.28125 
L 54.109375 2.78125 
Q 49.265625 0.734375 44.1875 -0.34375 
Q 39.109375 -1.421875 33.890625 -1.421875 
Q 20.796875 -1.421875 13.15625 6.1875 
Q 5.515625 13.8125 5.515625 26.8125 
Q 5.515625 40.234375 12.765625 48.109375 
Q 20.015625 56 32.328125 56 
Q 43.359375 56 49.78125 48.890625 
Q 56.203125 41.796875 56.203125 29.59375 
z
M 47.21875 32.234375 
Q 47.125 39.59375 43.09375 43.984375 
Q 39.0625 48.390625 32.421875 48.390625 
Q 24.90625 48.390625 20.390625 44.140625 
Q 15.875 39.890625 15.1875 32.171875 
z
" id="DejaVuSans-65"/>
    <path d="M 54.890625 33.015625 
L 54.890625 0 
L 45.90625 0 
L 45.90625 32.71875 
Q 45.90625 40.484375 42.875 44.328125 
Q 39.84375 48.1875 33.796875 48.1875 
Q 26.515625 48.1875 22.3125 43.546875 
Q 18.109375 38.921875 18.109375 30.90625 
L 18.109375 0 
L 9.078125 0 
L 9.078125 54.6875 
L 18.109375 54.6875 
L 18.109375 46.1875 
Q 21.34375 51.125 25.703125 53.5625 
Q 30.078125 56 35.796875 56 
Q 45.21875 56 50.046875 50.171875 
Q 54.890625 44.34375 54.890625 33.015625 
z
" id="DejaVuSans-6e"/>
    <path d="M 54.890625 33.015625 
L 54.890625 0 
L 45.90625 0 
L 45.90625 32.71875 
Q 45.90625 40.484375 42.875 44.328125 
Q 39.84375 48.1875 33.796875 48.1875 
Q 26.515625 48.1875 22.3125 43.546875 
Q 18.109375 38.921875 18.109375 30.90625 
L 18.109375 0 
L 9.078125 0 
L 9.078125 75.984375 
L 18.109375 75.984375 
L 18.109375 46.1875 
Q 21.34375 51.125 25.703125 53.5625 
Q 30.078125 56 35.796875 56 
Q 45.21875 56 50.046875 50.171875 
Q 54.890625 44.34375 54.890625 33.015625 
z
" id="DejaVuSans-68"/>
    <path d="M 52 44.1875 
Q 55.375 50.25 60.0625 53.125 
Q 64.75 56 71.09375 56 
Q 79.640625 56 84.28125 50.015625 
Q 88.921875 44.046875 88.921875 33.015625 
L 88.921875 0 
L 79.890625 0 
L 79.890625 32.71875 
Q 79.890625 40.578125 77.09375 44.375 
Q 74.3125 48.1875 68.609375 48.1875 
Q 61.625 48.1875 57.5625 43.546875 
Q 53.515625 38.921875 53.515625 30.90625 
L 53.515625 0 
L 44.484375 0 
L 44.484375 32.71875 
Q 44.484375 40.625 41.703125 44.40625 
Q 38.921875 48.1875 33.109375 48.1875 
Q 26.21875 48.1875 22.15625 43.53125 
Q 18.109375 38.875 18.109375 30.90625 
L 18.109375 0 
L 9.078125 0 
L 9.078125 54.6875 
L 18.109375 54.6875 
L 18.109375 46.1875 
Q 21.1875 51.21875 25.484375 53.609375 
Q 29.78125 56 35.6875 56 
Q 41.65625 56 45.828125 52.96875 
Q 50 49.953125 52 44.1875 
z
" id="DejaVuSans-6d"/>
    <path d="M 41.109375 46.296875 
Q 39.59375 47.171875 37.8125 47.578125 
Q 36.03125 48 33.890625 48 
Q 26.265625 48 22.1875 43.046875 
Q 18.109375 38.09375 18.109375 28.8125 
L 18.109375 0 
L 9.078125 0 
L 9.078125 54.6875 
L 18.109375 54.6875 
L 18.109375 46.1875 
Q 20.953125 51.171875 25.484375 53.578125 
Q 30.03125 56 36.53125 56 
Q 37.453125 56 38.578125 55.875 
Q 39.703125 55.765625 41.0625 55.515625 
z
" id="DejaVuSans-72"/>
    <path d="M 9.078125 75.984375 
L 18.109375 75.984375 
L 18.109375 31.109375 
L 44.921875 54.6875 
L 56.390625 54.6875 
L 27.390625 29.109375 
L 57.625 0 
L 45.90625 0 
L 18.109375 26.703125 
L 18.109375 0 
L 9.078125 0 
z
" id="DejaVuSans-6b"/>
    <path id="DejaVuSans-20"/>
    <path d="M 33.015625 40.375 
Q 26.375 40.375 22.484375 35.828125 
Q 18.609375 31.296875 18.609375 23.390625 
Q 18.609375 15.53125 22.484375 10.953125 
Q 26.375 6.390625 33.015625 6.390625 
Q 39.65625 6.390625 43.53125 10.953125 
Q 47.40625 15.53125 47.40625 23.390625 
Q 47.40625 31.296875 43.53125 35.828125 
Q 39.65625 40.375 33.015625 40.375 
z
M 52.59375 71.296875 
L 52.59375 62.3125 
Q 48.875 64.0625 45.09375 64.984375 
Q 41.3125 65.921875 37.59375 65.921875 
Q 27.828125 65.921875 22.671875 59.328125 
Q 17.53125 52.734375 16.796875 39.40625 
Q 19.671875 43.65625 24.015625 45.921875 
Q 28.375 48.1875 33.59375 48.1875 
Q 44.578125 48.1875 50.953125 41.515625 
Q 57.328125 34.859375 57.328125 23.390625 
Q 57.328125 12.15625 50.6875 5.359375 
Q 44.046875 -1.421875 33.015625 -1.421875 
Q 20.359375 -1.421875 13.671875 8.265625 
Q 6.984375 17.96875 6.984375 36.375 
Q 6.984375 53.65625 15.1875 63.9375 
Q 23.390625 74.21875 37.203125 74.21875 
Q 40.921875 74.21875 44.703125 73.484375 
Q 48.484375 72.75 52.59375 71.296875 
z
" id="DejaVuSans-36"/>
    <path d="M 10.984375 1.515625 
L 10.984375 10.5 
Q 14.703125 8.734375 18.5 7.8125 
Q 22.3125 6.890625 25.984375 6.890625 
Q 35.75 6.890625 40.890625 13.453125 
Q 46.046875 20.015625 46.78125 33.40625 
Q 43.953125 29.203125 39.59375 26.953125 
Q 35.25 24.703125 29.984375 24.703125 
Q 19.046875 24.703125 12.671875 31.3125 
Q 6.296875 37.9375 6.296875 49.421875 
Q 6.296875 60.640625 12.9375 67.421875 
Q 19.578125 74.21875 30.609375 74.21875 
Q 43.265625 74.21875 49.921875 64.515625 
Q 56.59375 54.828125 56.59375 36.375 
Q 56.59375 19.140625 48.40625 8.859375 
Q 40.234375 -1.421875 26.421875 -1.421875 
Q 22.703125 -1.421875 18.890625 -0.6875 
Q 15.09375 0.046875 10.984375 1.515625 
z
M 30.609375 32.421875 
Q 37.25 32.421875 41.125 36.953125 
Q 45.015625 41.5 45.015625 49.421875 
Q 45.015625 57.28125 41.125 61.84375 
Q 37.25 66.40625 30.609375 66.40625 
Q 23.96875 66.40625 20.09375 61.84375 
Q 16.21875 57.28125 16.21875 49.421875 
Q 16.21875 41.5 20.09375 36.953125 
Q 23.96875 32.421875 30.609375 32.421875 
z
" id="DejaVuSans-39"/>
   </defs>
   <g transform="translate(138.180938 16.030125)scale(0.12 -0.12)">
    <use xlink:href="#DejaVuSans-62"/>
    <use x="63.476562" xlink:href="#DejaVuSans-65"/>
    <use x="125" xlink:href="#DejaVuSans-6e"/>
    <use x="188.378906" xlink:href="#DejaVuSans-63"/>
    <use x="243.359375" xlink:href="#DejaVuSans-68"/>
    <use x="306.738281" xlink:href="#DejaVuSans-6d"/>
    <use x="404.150391" xlink:href="#DejaVuSans-61"/>
    <use x="465.429688" xlink:href="#DejaVuSans-72"/>
    <use x="506.542969" xlink:href="#DejaVuSans-6b"/>
    <use x="564.453125" xlink:href="#DejaVuSans-20"/>
    <use x="596.240234" xlink:href="#DejaVuSans-32"/>
    <use x="659.863281" xlink:href="#DejaVuSans-30"/>
    <use x="723.486328" xlink:href="#DejaVuSans-31"/>
    <use x="787.109375" xlink:href="#DejaVuSans-37"/>
    <use x="850.732422" xlink:href="#DejaVuSans-31"/>
    <use x="914.355469" xlink:href="#DejaVuSans-30"/>
    <use x="977.978516" xlink:href="#DejaVuSans-32"/>
    <use x="1041.601562" xlink:href="#DejaVuSans-33"/>
    <use x="1105.224609" xlink:href="#DejaVuSans-5f"/>
    <use x="1155.224609" xlink:href="#DejaVuSans-30"/>
    <use x="1218.847656" xlink:href="#DejaVuSans-36"/>
    <use x="1282.470703" xlink:href="#DejaVuSans-35"/>
    <use x="1346.09375" xlink:href="#DejaVuSans-30"/>
    <use x="1409.716797" xlink:href="#DejaVuSans-30"/>
    <use x="1473.339844" xlink:href="#DejaVuSans-39"/>
   </g>
  </g>
 </g>
 <defs>
  <clipPath id="p3ff152e890">
   <rect height="118.272" width="158.72" x="57.6" y="41.472"/>
  </clipPath>
  <clipPath id="p5d5e046170">
   <rect height="118.272" width="158.72" x="256" y="41.472"/>
  </clipPath>
  <clipPath id="p6b7c00aeaa">
   <rect height="118.272" width="158.72" x="57.6" y="189.312"/>
  </clipPath>
  <clipPath id="paebbb6576d">
   <rect height="118.272" width="158.72" x="256" y="189.312"/>
  </clipPath>
 </defs>
</svg>
