<?xml version="1.0" encoding="utf-8" standalone="no"?>
<!DOCTYPE svg PUBLIC "-//W3C//DTD SVG 1.1//EN"
  "http://www.w3.org/Graphics/SVG/1.1/DTD/svg11.dtd">
<!-- Created with matplotlib (http://matplotlib.org/) -->
<svg height="345pt" version="1.1" viewBox="0 0 460 345" width="460pt" xmlns="http://www.w3.org/2000/svg" xmlns:xlink="http://www.w3.org/1999/xlink">
 <defs>
  <style type="text/css">
*{stroke-linecap:butt;stroke-linejoin:round;}
  </style>
 </defs>
 <g id="figure_1">
  <g id="patch_1">
   <path d="M 0 345.6 
L 460.8 345.6 
L 460.8 0 
L 0 0 
z
" style="fill:#ffffff;"/>
  </g>
  <g id="axes_1">
   <g id="patch_2">
    <path d="M 57.6 159.744 
L 216.32 159.744 
L 216.32 41.472 
L 57.6 41.472 
z
" style="fill:#ffffff;"/>
   </g>
   <g id="matplotlib.axis_1">
    <g id="xtick_1">
     <g id="line2d_1">
      <path clip-path="url(#p28af1ff5de)" d="M 64.814545 159.744 
L 64.814545 41.472 
" style="fill:none;stroke:#b0b0b0;stroke-linecap:square;stroke-width:0.8;"/>
     </g>
     <g id="line2d_2">
      <defs>
       <path d="M 0 0 
L 0 3.5 
" id="mb45b50989a" style="stroke:#000000;stroke-width:0.8;"/>
      </defs>
      <g>
       <use style="stroke:#000000;stroke-width:0.8;" x="64.814545" xlink:href="#mb45b50989a" y="159.744"/>
      </g>
     </g>
     <g id="text_1">
      <!-- 0 -->
      <defs>
       <path d="M 31.78125 66.40625 
Q 24.171875 66.40625 20.328125 58.90625 
Q 16.5 51.421875 16.5 36.375 
Q 16.5 21.390625 20.328125 13.890625 
Q 24.171875 6.390625 31.78125 6.390625 
Q 39.453125 6.390625 43.28125 13.890625 
Q 47.125 21.390625 47.125 36.375 
Q 47.125 51.421875 43.28125 58.90625 
Q 39.453125 66.40625 31.78125 66.40625 
z
M 31.78125 74.21875 
Q 44.046875 74.21875 50.515625 64.515625 
Q 56.984375 54.828125 56.984375 36.375 
Q 56.984375 17.96875 50.515625 8.265625 
Q 44.046875 -1.421875 31.78125 -1.421875 
Q 19.53125 -1.421875 13.0625 8.265625 
Q 6.59375 17.96875 6.59375 36.375 
Q 6.59375 54.828125 13.0625 64.515625 
Q 19.53125 74.21875 31.78125 74.21875 
z
" id="DejaVuSans-30"/>
      </defs>
      <g transform="translate(61.633295 174.342437)scale(0.1 -0.1)">
       <use xlink:href="#DejaVuSans-30"/>
      </g>
     </g>
    </g>
    <g id="xtick_2">
     <g id="line2d_3">
      <path clip-path="url(#p28af1ff5de)" d="M 113.072375 159.744 
L 113.072375 41.472 
" style="fill:none;stroke:#b0b0b0;stroke-linecap:square;stroke-width:0.8;"/>
     </g>
     <g id="line2d_4">
      <g>
       <use style="stroke:#000000;stroke-width:0.8;" x="113.072375" xlink:href="#mb45b50989a" y="159.744"/>
      </g>
     </g>
     <g id="text_2">
      <!-- 100 -->
      <defs>
       <path d="M 12.40625 8.296875 
L 28.515625 8.296875 
L 28.515625 63.921875 
L 10.984375 60.40625 
L 10.984375 69.390625 
L 28.421875 72.90625 
L 38.28125 72.90625 
L 38.28125 8.296875 
L 54.390625 8.296875 
L 54.390625 0 
L 12.40625 0 
z
" id="DejaVuSans-31"/>
      </defs>
      <g transform="translate(103.528625 174.342437)scale(0.1 -0.1)">
       <use xlink:href="#DejaVuSans-31"/>
       <use x="63.623047" xlink:href="#DejaVuSans-30"/>
       <use x="127.246094" xlink:href="#DejaVuSans-30"/>
      </g>
     </g>
    </g>
    <g id="xtick_3">
     <g id="line2d_5">
      <path clip-path="url(#p28af1ff5de)" d="M 161.330204 159.744 
L 161.330204 41.472 
" style="fill:none;stroke:#b0b0b0;stroke-linecap:square;stroke-width:0.8;"/>
     </g>
     <g id="line2d_6">
      <g>
       <use style="stroke:#000000;stroke-width:0.8;" x="161.330204" xlink:href="#mb45b50989a" y="159.744"/>
      </g>
     </g>
     <g id="text_3">
      <!-- 200 -->
      <defs>
       <path d="M 19.1875 8.296875 
L 53.609375 8.296875 
L 53.609375 0 
L 7.328125 0 
L 7.328125 8.296875 
Q 12.9375 14.109375 22.625 23.890625 
Q 32.328125 33.6875 34.8125 36.53125 
Q 39.546875 41.84375 41.421875 45.53125 
Q 43.3125 49.21875 43.3125 52.78125 
Q 43.3125 58.59375 39.234375 62.25 
Q 35.15625 65.921875 28.609375 65.921875 
Q 23.96875 65.921875 18.8125 64.3125 
Q 13.671875 62.703125 7.8125 59.421875 
L 7.8125 69.390625 
Q 13.765625 71.78125 18.9375 73 
Q 24.125 74.21875 28.421875 74.21875 
Q 39.75 74.21875 46.484375 68.546875 
Q 53.21875 62.890625 53.21875 53.421875 
Q 53.21875 48.921875 51.53125 44.890625 
Q 49.859375 40.875 45.40625 35.40625 
Q 44.1875 33.984375 37.640625 27.21875 
Q 31.109375 20.453125 19.1875 8.296875 
z
" id="DejaVuSans-32"/>
      </defs>
      <g transform="translate(151.786454 174.342437)scale(0.1 -0.1)">
       <use xlink:href="#DejaVuSans-32"/>
       <use x="63.623047" xlink:href="#DejaVuSans-30"/>
       <use x="127.246094" xlink:href="#DejaVuSans-30"/>
      </g>
     </g>
    </g>
    <g id="xtick_4">
     <g id="line2d_7">
      <path clip-path="url(#p28af1ff5de)" d="M 209.588033 159.744 
L 209.588033 41.472 
" style="fill:none;stroke:#b0b0b0;stroke-linecap:square;stroke-width:0.8;"/>
     </g>
     <g id="line2d_8">
      <g>
       <use style="stroke:#000000;stroke-width:0.8;" x="209.588033" xlink:href="#mb45b50989a" y="159.744"/>
      </g>
     </g>
     <g id="text_4">
      <!-- 300 -->
      <defs>
       <path d="M 40.578125 39.3125 
Q 47.65625 37.796875 51.625 33 
Q 55.609375 28.21875 55.609375 21.1875 
Q 55.609375 10.40625 48.1875 4.484375 
Q 40.765625 -1.421875 27.09375 -1.421875 
Q 22.515625 -1.421875 17.65625 -0.515625 
Q 12.796875 0.390625 7.625 2.203125 
L 7.625 11.71875 
Q 11.71875 9.328125 16.59375 8.109375 
Q 21.484375 6.890625 26.8125 6.890625 
Q 36.078125 6.890625 40.9375 10.546875 
Q 45.796875 14.203125 45.796875 21.1875 
Q 45.796875 27.640625 41.28125 31.265625 
Q 36.765625 34.90625 28.71875 34.90625 
L 20.21875 34.90625 
L 20.21875 43.015625 
L 29.109375 43.015625 
Q 36.375 43.015625 40.234375 45.921875 
Q 44.09375 48.828125 44.09375 54.296875 
Q 44.09375 59.90625 40.109375 62.90625 
Q 36.140625 65.921875 28.71875 65.921875 
Q 24.65625 65.921875 20.015625 65.03125 
Q 15.375 64.15625 9.8125 62.3125 
L 9.8125 71.09375 
Q 15.4375 72.65625 20.34375 73.4375 
Q 25.25 74.21875 29.59375 74.21875 
Q 40.828125 74.21875 47.359375 69.109375 
Q 53.90625 64.015625 53.90625 55.328125 
Q 53.90625 49.265625 50.4375 45.09375 
Q 46.96875 40.921875 40.578125 39.3125 
z
" id="DejaVuSans-33"/>
      </defs>
      <g transform="translate(200.044283 174.342437)scale(0.1 -0.1)">
       <use xlink:href="#DejaVuSans-33"/>
       <use x="63.623047" xlink:href="#DejaVuSans-30"/>
       <use x="127.246094" xlink:href="#DejaVuSans-30"/>
      </g>
     </g>
    </g>
   </g>
   <g id="matplotlib.axis_2">
    <g id="ytick_1">
     <g id="line2d_9">
      <path clip-path="url(#p28af1ff5de)" d="M 57.6 154.756159 
L 216.32 154.756159 
" style="fill:none;stroke:#b0b0b0;stroke-linecap:square;stroke-width:0.8;"/>
     </g>
     <g id="line2d_10">
      <defs>
       <path d="M 0 0 
L -3.5 0 
" id="mda7246de9d" style="stroke:#000000;stroke-width:0.8;"/>
      </defs>
      <g>
       <use style="stroke:#000000;stroke-width:0.8;" x="57.6" xlink:href="#mda7246de9d" y="154.756159"/>
      </g>
     </g>
     <g id="text_5">
      <!-- 0.00 -->
      <defs>
       <path d="M 10.6875 12.40625 
L 21 12.40625 
L 21 0 
L 10.6875 0 
z
" id="DejaVuSans-2e"/>
      </defs>
      <g transform="translate(28.334375 158.555378)scale(0.1 -0.1)">
       <use xlink:href="#DejaVuSans-30"/>
       <use x="63.623047" xlink:href="#DejaVuSans-2e"/>
       <use x="95.410156" xlink:href="#DejaVuSans-30"/>
       <use x="159.033203" xlink:href="#DejaVuSans-30"/>
      </g>
     </g>
    </g>
    <g id="ytick_2">
     <g id="line2d_11">
      <path clip-path="url(#p28af1ff5de)" d="M 57.6 127.655614 
L 216.32 127.655614 
" style="fill:none;stroke:#b0b0b0;stroke-linecap:square;stroke-width:0.8;"/>
     </g>
     <g id="line2d_12">
      <g>
       <use style="stroke:#000000;stroke-width:0.8;" x="57.6" xlink:href="#mda7246de9d" y="127.655614"/>
      </g>
     </g>
     <g id="text_6">
      <!-- 0.25 -->
      <defs>
       <path d="M 10.796875 72.90625 
L 49.515625 72.90625 
L 49.515625 64.59375 
L 19.828125 64.59375 
L 19.828125 46.734375 
Q 21.96875 47.46875 24.109375 47.828125 
Q 26.265625 48.1875 28.421875 48.1875 
Q 40.625 48.1875 47.75 41.5 
Q 54.890625 34.8125 54.890625 23.390625 
Q 54.890625 11.625 47.5625 5.09375 
Q 40.234375 -1.421875 26.90625 -1.421875 
Q 22.3125 -1.421875 17.546875 -0.640625 
Q 12.796875 0.140625 7.71875 1.703125 
L 7.71875 11.625 
Q 12.109375 9.234375 16.796875 8.0625 
Q 21.484375 6.890625 26.703125 6.890625 
Q 35.15625 6.890625 40.078125 11.328125 
Q 45.015625 15.765625 45.015625 23.390625 
Q 45.015625 31 40.078125 35.4375 
Q 35.15625 39.890625 26.703125 39.890625 
Q 22.75 39.890625 18.8125 39.015625 
Q 14.890625 38.140625 10.796875 36.28125 
z
" id="DejaVuSans-35"/>
      </defs>
      <g transform="translate(28.334375 131.454833)scale(0.1 -0.1)">
       <use xlink:href="#DejaVuSans-30"/>
       <use x="63.623047" xlink:href="#DejaVuSans-2e"/>
       <use x="95.410156" xlink:href="#DejaVuSans-32"/>
       <use x="159.033203" xlink:href="#DejaVuSans-35"/>
      </g>
     </g>
    </g>
    <g id="ytick_3">
     <g id="line2d_13">
      <path clip-path="url(#p28af1ff5de)" d="M 57.6 100.555069 
L 216.32 100.555069 
" style="fill:none;stroke:#b0b0b0;stroke-linecap:square;stroke-width:0.8;"/>
     </g>
     <g id="line2d_14">
      <g>
       <use style="stroke:#000000;stroke-width:0.8;" x="57.6" xlink:href="#mda7246de9d" y="100.555069"/>
      </g>
     </g>
     <g id="text_7">
      <!-- 0.50 -->
      <g transform="translate(28.334375 104.354288)scale(0.1 -0.1)">
       <use xlink:href="#DejaVuSans-30"/>
       <use x="63.623047" xlink:href="#DejaVuSans-2e"/>
       <use x="95.410156" xlink:href="#DejaVuSans-35"/>
       <use x="159.033203" xlink:href="#DejaVuSans-30"/>
      </g>
     </g>
    </g>
    <g id="ytick_4">
     <g id="line2d_15">
      <path clip-path="url(#p28af1ff5de)" d="M 57.6 73.454524 
L 216.32 73.454524 
" style="fill:none;stroke:#b0b0b0;stroke-linecap:square;stroke-width:0.8;"/>
     </g>
     <g id="line2d_16">
      <g>
       <use style="stroke:#000000;stroke-width:0.8;" x="57.6" xlink:href="#mda7246de9d" y="73.454524"/>
      </g>
     </g>
     <g id="text_8">
      <!-- 0.75 -->
      <defs>
       <path d="M 8.203125 72.90625 
L 55.078125 72.90625 
L 55.078125 68.703125 
L 28.609375 0 
L 18.3125 0 
L 43.21875 64.59375 
L 8.203125 64.59375 
z
" id="DejaVuSans-37"/>
      </defs>
      <g transform="translate(28.334375 77.253743)scale(0.1 -0.1)">
       <use xlink:href="#DejaVuSans-30"/>
       <use x="63.623047" xlink:href="#DejaVuSans-2e"/>
       <use x="95.410156" xlink:href="#DejaVuSans-37"/>
       <use x="159.033203" xlink:href="#DejaVuSans-35"/>
      </g>
     </g>
    </g>
    <g id="ytick_5">
     <g id="line2d_17">
      <path clip-path="url(#p28af1ff5de)" d="M 57.6 46.35398 
L 216.32 46.35398 
" style="fill:none;stroke:#b0b0b0;stroke-linecap:square;stroke-width:0.8;"/>
     </g>
     <g id="line2d_18">
      <g>
       <use style="stroke:#000000;stroke-width:0.8;" x="57.6" xlink:href="#mda7246de9d" y="46.35398"/>
      </g>
     </g>
     <g id="text_9">
      <!-- 1.00 -->
      <g transform="translate(28.334375 50.153198)scale(0.1 -0.1)">
       <use xlink:href="#DejaVuSans-31"/>
       <use x="63.623047" xlink:href="#DejaVuSans-2e"/>
       <use x="95.410156" xlink:href="#DejaVuSans-30"/>
       <use x="159.033203" xlink:href="#DejaVuSans-30"/>
      </g>
     </g>
    </g>
   </g>
   <g id="line2d_19">
    <path clip-path="url(#p28af1ff5de)" d="M 64.814545 154.368 
L 65.297124 153.626969 
L 65.779702 152.638929 
L 67.227437 146.710684 
L 67.710015 143.393691 
L 68.192593 142.546799 
L 69.15775 134.642473 
L 69.640328 132.419381 
L 70.122907 128.467218 
L 70.605485 125.961829 
L 71.088063 122.115528 
L 71.570642 119.186693 
L 72.535798 112.305695 
L 73.500955 108.282958 
L 73.983533 104.013211 
L 74.466111 101.40196 
L 74.94869 97.908531 
L 75.431268 96.250033 
L 75.913846 93.532922 
L 76.879003 89.616046 
L 77.361581 88.663292 
L 77.844159 87.216518 
L 78.809316 81.747007 
L 79.291894 82.593899 
L 80.257051 77.300824 
L 80.739629 75.995199 
L 81.222207 76.206922 
L 81.704786 73.172226 
L 82.187364 72.854641 
L 82.669942 72.007749 
L 83.152521 69.749371 
L 83.635099 68.937766 
L 84.117677 68.76133 
L 84.600255 66.361803 
L 85.082834 66.467665 
L 85.565412 66.291229 
L 86.04799 63.926989 
L 86.530569 65.338475 
L 87.013147 63.962276 
L 87.978303 62.762512 
L 88.460882 61.562749 
L 88.94346 61.139303 
L 89.426038 61.033441 
L 89.908617 60.43356 
L 90.391195 58.951499 
L 90.873773 59.727816 
L 91.356351 59.516093 
L 91.83893 58.422191 
L 92.321508 58.281043 
L 93.286665 57.328289 
L 93.769243 56.94013 
L 94.251821 57.469438 
L 94.7344 56.410823 
L 95.216978 56.057951 
L 95.699556 55.95209 
L 96.182134 55.634505 
L 97.147291 54.187731 
L 97.629869 54.046583 
L 98.112448 54.964049 
L 98.595026 53.83486 
L 99.560182 54.011296 
L 100.042761 53.446701 
L 100.525339 53.552562 
L 101.007917 52.987968 
L 101.490496 52.882106 
L 101.973074 52.529235 
L 102.455652 52.317512 
L 102.93823 52.776245 
L 103.903387 51.788204 
L 104.385965 51.823491 
L 104.868544 52.141076 
L 105.351122 52.035214 
L 105.8337 51.576481 
L 106.316279 51.71763 
L 106.798857 51.470619 
L 107.281435 51.400045 
L 107.764013 50.835451 
L 108.246592 51.505907 
L 109.211748 51.047173 
L 110.659483 50.976599 
L 111.142061 50.412004 
L 112.107218 50.376717 
L 112.589796 50.059133 
L 113.072375 50.412005 
L 113.554953 49.882697 
L 114.037531 50.482579 
L 114.520109 50.09442 
L 115.485266 49.706261 
L 115.967844 49.988559 
L 116.450423 49.670974 
L 116.933001 49.635687 
L 117.415579 49.882697 
L 117.898157 49.565112 
L 118.380736 49.882697 
L 119.345892 49.812123 
L 119.828471 49.141666 
L 120.793627 49.670974 
L 121.276206 49.176954 
L 121.758784 49.423964 
L 122.241362 48.929943 
L 122.72394 49.353389 
L 123.689097 48.753507 
L 124.171675 48.96523 
L 125.136832 48.824082 
L 126.101988 49.353389 
L 126.584567 48.859369 
L 127.067145 49.035805 
L 127.549723 48.788795 
L 128.032302 49.282815 
L 128.997458 48.682933 
L 129.480036 48.577072 
L 129.962615 49.106379 
L 130.445193 48.365349 
L 130.927771 48.541784 
L 131.892928 48.541784 
L 132.375506 48.788795 
L 132.858085 48.682933 
L 133.340663 48.71822 
L 133.823241 48.188913 
L 134.305819 48.682933 
L 134.788398 47.97719 
L 135.270976 48.259487 
L 135.753554 47.97719 
L 136.236133 48.47121 
L 136.718711 48.365348 
L 137.201289 48.682933 
L 137.683867 47.836041 
L 138.166446 48.435923 
L 138.649024 47.836041 
L 140.096759 48.012477 
L 140.579337 47.659605 
L 141.061915 48.047764 
L 141.544494 47.730179 
L 142.027072 47.906615 
L 142.50965 48.541784 
L 143.474807 47.941902 
L 143.957385 48.153625 
L 144.439964 47.447882 
L 144.922542 48.2242 
L 145.40512 48.647646 
L 145.887698 47.97719 
L 146.370277 47.589031 
L 146.852855 48.188913 
L 147.335433 47.800754 
L 147.818012 48.012477 
L 148.30059 47.941902 
L 148.783168 47.624318 
L 149.748325 47.624318 
L 150.230903 47.483169 
L 150.713481 47.553744 
L 151.19606 48.047764 
L 152.161216 47.589031 
L 152.643794 47.730179 
L 154.091529 47.34202 
L 154.574108 47.871328 
L 155.539264 47.624318 
L 156.021843 47.941902 
L 156.504421 47.377308 
L 156.986999 47.659605 
L 157.469577 47.624318 
L 157.952156 47.412595 
L 158.434734 47.765467 
L 158.917312 47.412595 
L 159.399891 47.412595 
L 160.365047 47.765467 
L 160.847625 47.624318 
L 161.330204 47.306733 
L 161.812782 47.553743 
L 162.777939 47.271446 
L 163.260517 47.447882 
L 163.743095 47.306733 
L 164.225673 47.412595 
L 164.708252 47.236159 
L 165.19083 47.553744 
L 165.673408 47.377308 
L 166.155987 47.447882 
L 166.638565 47.34202 
L 167.603721 47.765467 
L 168.0863 47.518456 
L 168.568878 47.730179 
L 169.051456 47.447882 
L 169.534035 47.518456 
L 170.016613 47.34202 
L 170.499191 47.447882 
L 170.98177 46.953862 
L 171.464348 47.624318 
L 173.394661 47.306733 
L 173.877239 47.271446 
L 174.359818 47.09501 
L 174.842396 47.306733 
L 175.807552 47.412595 
L 176.290131 47.589031 
L 176.772709 47.024436 
L 177.255287 47.024436 
L 177.737866 47.34202 
L 178.220444 47.412595 
L 178.703022 47.306733 
L 179.1856 47.518456 
L 179.668179 47.024436 
L 180.150757 47.34202 
L 180.633335 47.306733 
L 181.115914 47.024436 
L 181.598492 47.024436 
L 182.08107 47.236159 
L 183.046227 47.306733 
L 183.528805 47.059723 
L 184.011383 47.165585 
L 184.97654 47.024436 
L 185.459118 47.200872 
L 185.941697 46.848 
L 186.424275 47.483169 
L 187.389431 47.518456 
L 187.87201 47.130297 
L 188.354588 47.059723 
L 189.319745 47.130297 
L 190.284901 47.236159 
L 190.767479 47.377308 
L 191.250058 47.200872 
L 191.732636 47.306733 
L 192.215214 46.989149 
L 193.180371 47.483169 
L 193.662949 46.848 
L 194.145528 47.024436 
L 194.628106 46.918574 
L 195.110684 47.447882 
L 195.593262 46.989149 
L 196.075841 47.447882 
L 196.558419 47.165585 
L 197.040997 47.412595 
L 197.523576 47.09501 
L 198.488732 47.306733 
L 199.453889 47.165585 
L 200.419045 47.447882 
L 200.901624 47.200872 
L 201.384202 47.34202 
L 202.349358 47.236159 
L 202.831937 46.989149 
L 203.314515 46.953862 
L 204.279672 47.165585 
L 204.76225 46.989149 
L 205.244828 47.09501 
L 205.727407 47.059723 
L 206.209985 47.236159 
L 206.692563 46.989149 
L 207.175141 47.271446 
L 207.65772 47.024436 
L 208.140298 47.130297 
L 209.105455 46.953862 
L 209.105455 46.953862 
" style="fill:none;stroke:#1f77b4;stroke-linecap:square;stroke-width:1.5;"/>
   </g>
   <g id="patch_3">
    <path d="M 57.6 159.744 
L 57.6 41.472 
" style="fill:none;stroke:#000000;stroke-linecap:square;stroke-linejoin:miter;stroke-width:0.8;"/>
   </g>
   <g id="patch_4">
    <path d="M 216.32 159.744 
L 216.32 41.472 
" style="fill:none;stroke:#000000;stroke-linecap:square;stroke-linejoin:miter;stroke-width:0.8;"/>
   </g>
   <g id="patch_5">
    <path d="M 57.6 159.744 
L 216.32 159.744 
" style="fill:none;stroke:#000000;stroke-linecap:square;stroke-linejoin:miter;stroke-width:0.8;"/>
   </g>
   <g id="patch_6">
    <path d="M 57.6 41.472 
L 216.32 41.472 
" style="fill:none;stroke:#000000;stroke-linecap:square;stroke-linejoin:miter;stroke-width:0.8;"/>
   </g>
   <g id="text_10">
    <!-- acc -->
    <defs>
     <path d="M 34.28125 27.484375 
Q 23.390625 27.484375 19.1875 25 
Q 14.984375 22.515625 14.984375 16.5 
Q 14.984375 11.71875 18.140625 8.90625 
Q 21.296875 6.109375 26.703125 6.109375 
Q 34.1875 6.109375 38.703125 11.40625 
Q 43.21875 16.703125 43.21875 25.484375 
L 43.21875 27.484375 
z
M 52.203125 31.203125 
L 52.203125 0 
L 43.21875 0 
L 43.21875 8.296875 
Q 40.140625 3.328125 35.546875 0.953125 
Q 30.953125 -1.421875 24.3125 -1.421875 
Q 15.921875 -1.421875 10.953125 3.296875 
Q 6 8.015625 6 15.921875 
Q 6 25.140625 12.171875 29.828125 
Q 18.359375 34.515625 30.609375 34.515625 
L 43.21875 34.515625 
L 43.21875 35.40625 
Q 43.21875 41.609375 39.140625 45 
Q 35.0625 48.390625 27.6875 48.390625 
Q 23 48.390625 18.546875 47.265625 
Q 14.109375 46.140625 10.015625 43.890625 
L 10.015625 52.203125 
Q 14.9375 54.109375 19.578125 55.046875 
Q 24.21875 56 28.609375 56 
Q 40.484375 56 46.34375 49.84375 
Q 52.203125 43.703125 52.203125 31.203125 
z
" id="DejaVuSans-61"/>
     <path d="M 48.78125 52.59375 
L 48.78125 44.1875 
Q 44.96875 46.296875 41.140625 47.34375 
Q 37.3125 48.390625 33.40625 48.390625 
Q 24.65625 48.390625 19.8125 42.84375 
Q 14.984375 37.3125 14.984375 27.296875 
Q 14.984375 17.28125 19.8125 11.734375 
Q 24.65625 6.203125 33.40625 6.203125 
Q 37.3125 6.203125 41.140625 7.25 
Q 44.96875 8.296875 48.78125 10.40625 
L 48.78125 2.09375 
Q 45.015625 0.34375 40.984375 -0.53125 
Q 36.96875 -1.421875 32.421875 -1.421875 
Q 20.0625 -1.421875 12.78125 6.34375 
Q 5.515625 14.109375 5.515625 27.296875 
Q 5.515625 40.671875 12.859375 48.328125 
Q 20.21875 56 33.015625 56 
Q 37.15625 56 41.109375 55.140625 
Q 45.0625 54.296875 48.78125 52.59375 
z
" id="DejaVuSans-63"/>
    </defs>
    <g transform="translate(126.685 35.472)scale(0.12 -0.12)">
     <use xlink:href="#DejaVuSans-61"/>
     <use x="61.279297" xlink:href="#DejaVuSans-63"/>
     <use x="116.259766" xlink:href="#DejaVuSans-63"/>
    </g>
   </g>
  </g>
  <g id="axes_2">
   <g id="patch_7">
    <path d="M 256 159.744 
L 414.72 159.744 
L 414.72 41.472 
L 256 41.472 
z
" style="fill:#ffffff;"/>
   </g>
   <g id="matplotlib.axis_3">
    <g id="xtick_5">
     <g id="line2d_20">
      <path clip-path="url(#p98aa18c3d5)" d="M 263.214545 159.744 
L 263.214545 41.472 
" style="fill:none;stroke:#b0b0b0;stroke-linecap:square;stroke-width:0.8;"/>
     </g>
     <g id="line2d_21">
      <g>
       <use style="stroke:#000000;stroke-width:0.8;" x="263.214545" xlink:href="#mb45b50989a" y="159.744"/>
      </g>
     </g>
     <g id="text_11">
      <!-- 0 -->
      <g transform="translate(260.033295 174.342437)scale(0.1 -0.1)">
       <use xlink:href="#DejaVuSans-30"/>
      </g>
     </g>
    </g>
    <g id="xtick_6">
     <g id="line2d_22">
      <path clip-path="url(#p98aa18c3d5)" d="M 311.472375 159.744 
L 311.472375 41.472 
" style="fill:none;stroke:#b0b0b0;stroke-linecap:square;stroke-width:0.8;"/>
     </g>
     <g id="line2d_23">
      <g>
       <use style="stroke:#000000;stroke-width:0.8;" x="311.472375" xlink:href="#mb45b50989a" y="159.744"/>
      </g>
     </g>
     <g id="text_12">
      <!-- 100 -->
      <g transform="translate(301.928625 174.342437)scale(0.1 -0.1)">
       <use xlink:href="#DejaVuSans-31"/>
       <use x="63.623047" xlink:href="#DejaVuSans-30"/>
       <use x="127.246094" xlink:href="#DejaVuSans-30"/>
      </g>
     </g>
    </g>
    <g id="xtick_7">
     <g id="line2d_24">
      <path clip-path="url(#p98aa18c3d5)" d="M 359.730204 159.744 
L 359.730204 41.472 
" style="fill:none;stroke:#b0b0b0;stroke-linecap:square;stroke-width:0.8;"/>
     </g>
     <g id="line2d_25">
      <g>
       <use style="stroke:#000000;stroke-width:0.8;" x="359.730204" xlink:href="#mb45b50989a" y="159.744"/>
      </g>
     </g>
     <g id="text_13">
      <!-- 200 -->
      <g transform="translate(350.186454 174.342437)scale(0.1 -0.1)">
       <use xlink:href="#DejaVuSans-32"/>
       <use x="63.623047" xlink:href="#DejaVuSans-30"/>
       <use x="127.246094" xlink:href="#DejaVuSans-30"/>
      </g>
     </g>
    </g>
    <g id="xtick_8">
     <g id="line2d_26">
      <path clip-path="url(#p98aa18c3d5)" d="M 407.988033 159.744 
L 407.988033 41.472 
" style="fill:none;stroke:#b0b0b0;stroke-linecap:square;stroke-width:0.8;"/>
     </g>
     <g id="line2d_27">
      <g>
       <use style="stroke:#000000;stroke-width:0.8;" x="407.988033" xlink:href="#mb45b50989a" y="159.744"/>
      </g>
     </g>
     <g id="text_14">
      <!-- 300 -->
      <g transform="translate(398.444283 174.342437)scale(0.1 -0.1)">
       <use xlink:href="#DejaVuSans-33"/>
       <use x="63.623047" xlink:href="#DejaVuSans-30"/>
       <use x="127.246094" xlink:href="#DejaVuSans-30"/>
      </g>
     </g>
    </g>
   </g>
   <g id="matplotlib.axis_4">
    <g id="ytick_6">
     <g id="line2d_28">
      <path clip-path="url(#p98aa18c3d5)" d="M 256 154.674491 
L 414.72 154.674491 
" style="fill:none;stroke:#b0b0b0;stroke-linecap:square;stroke-width:0.8;"/>
     </g>
     <g id="line2d_29">
      <g>
       <use style="stroke:#000000;stroke-width:0.8;" x="256" xlink:href="#mda7246de9d" y="154.674491"/>
      </g>
     </g>
     <g id="text_15">
      <!-- 0 -->
      <g transform="translate(242.6375 158.47371)scale(0.1 -0.1)">
       <use xlink:href="#DejaVuSans-30"/>
      </g>
     </g>
    </g>
    <g id="ytick_7">
     <g id="line2d_30">
      <path clip-path="url(#p98aa18c3d5)" d="M 256 115.684343 
L 414.72 115.684343 
" style="fill:none;stroke:#b0b0b0;stroke-linecap:square;stroke-width:0.8;"/>
     </g>
     <g id="line2d_31">
      <g>
       <use style="stroke:#000000;stroke-width:0.8;" x="256" xlink:href="#mda7246de9d" y="115.684343"/>
      </g>
     </g>
     <g id="text_16">
      <!-- 2 -->
      <g transform="translate(242.6375 119.483562)scale(0.1 -0.1)">
       <use xlink:href="#DejaVuSans-32"/>
      </g>
     </g>
    </g>
    <g id="ytick_8">
     <g id="line2d_32">
      <path clip-path="url(#p98aa18c3d5)" d="M 256 76.694195 
L 414.72 76.694195 
" style="fill:none;stroke:#b0b0b0;stroke-linecap:square;stroke-width:0.8;"/>
     </g>
     <g id="line2d_33">
      <g>
       <use style="stroke:#000000;stroke-width:0.8;" x="256" xlink:href="#mda7246de9d" y="76.694195"/>
      </g>
     </g>
     <g id="text_17">
      <!-- 4 -->
      <defs>
       <path d="M 37.796875 64.3125 
L 12.890625 25.390625 
L 37.796875 25.390625 
z
M 35.203125 72.90625 
L 47.609375 72.90625 
L 47.609375 25.390625 
L 58.015625 25.390625 
L 58.015625 17.1875 
L 47.609375 17.1875 
L 47.609375 0 
L 37.796875 0 
L 37.796875 17.1875 
L 4.890625 17.1875 
L 4.890625 26.703125 
z
" id="DejaVuSans-34"/>
      </defs>
      <g transform="translate(242.6375 80.493414)scale(0.1 -0.1)">
       <use xlink:href="#DejaVuSans-34"/>
      </g>
     </g>
    </g>
   </g>
   <g id="line2d_34">
    <path clip-path="url(#p98aa18c3d5)" d="M 263.214545 46.848 
L 264.66228 69.984203 
L 268.522907 102.191471 
L 269.488063 108.377736 
L 271.418376 118.15795 
L 273.34869 125.394562 
L 275.279003 130.521788 
L 276.726738 134.129054 
L 277.209316 135.226703 
L 277.691894 135.805257 
L 278.657051 137.86432 
L 279.139629 138.543931 
L 279.622207 139.017128 
L 280.104786 140.133369 
L 280.587364 140.495663 
L 281.069942 141.12318 
L 281.552521 142.075205 
L 282.035099 142.346175 
L 282.517677 142.844854 
L 283.000255 143.699875 
L 283.482834 143.711313 
L 283.965412 144.193276 
L 284.44799 144.840185 
L 284.930569 144.849758 
L 285.413147 145.435489 
L 285.895725 145.819334 
L 286.378303 145.970937 
L 286.860882 146.541834 
L 287.34346 146.638038 
L 287.826038 146.882763 
L 288.308617 146.924858 
L 288.791195 147.550576 
L 289.273773 147.587557 
L 289.756351 148.172952 
L 290.721508 148.161611 
L 291.686665 149.053728 
L 293.1344 149.322695 
L 293.616978 149.562478 
L 294.099556 149.548832 
L 294.582134 149.978895 
L 295.064713 149.746778 
L 295.547291 150.207904 
L 296.029869 150.280337 
L 296.512448 150.099621 
L 296.995026 150.556256 
L 297.960182 150.830345 
L 298.442761 150.706303 
L 298.925339 150.750252 
L 299.407917 151.040127 
L 300.855652 151.399473 
L 301.33823 151.169047 
L 301.820809 151.568541 
L 302.303387 151.633884 
L 302.785965 151.542797 
L 303.268544 151.667144 
L 303.751122 151.631262 
L 305.681435 151.953695 
L 306.164013 152.201551 
L 306.646592 152.122978 
L 308.576905 152.166325 
L 309.059483 152.116078 
L 309.542061 152.573468 
L 310.507218 152.599109 
L 310.989796 152.406404 
L 311.472375 152.621903 
L 311.954953 152.71414 
L 312.437531 152.567503 
L 312.920109 152.845764 
L 313.402688 152.710921 
L 314.367844 152.712966 
L 314.850423 152.926381 
L 315.333001 152.833011 
L 316.780736 152.95004 
L 317.263314 152.797036 
L 317.745892 152.974425 
L 318.711049 153.089614 
L 319.193627 152.944386 
L 319.676206 153.125071 
L 320.158784 153.007958 
L 320.641362 153.256877 
L 321.12394 153.133685 
L 323.536832 153.405676 
L 324.01941 153.15331 
L 325.467145 153.259882 
L 325.949723 153.427984 
L 326.91488 153.133816 
L 327.397458 153.38685 
L 327.880036 153.434647 
L 328.362615 153.333079 
L 329.81035 153.604504 
L 330.775506 153.419256 
L 331.258085 153.172549 
L 331.740663 153.411434 
L 332.705819 153.48287 
L 333.188398 153.758239 
L 333.670976 153.543863 
L 334.153554 153.87834 
L 334.636133 153.564235 
L 335.118711 153.50785 
L 336.083867 153.769449 
L 336.566446 153.48201 
L 337.049024 153.970477 
L 338.014181 153.828581 
L 338.496759 153.811765 
L 338.979337 153.927684 
L 339.461915 153.817662 
L 339.944494 153.986747 
L 340.427072 153.862388 
L 340.90965 153.541504 
L 341.392229 153.807634 
L 342.839964 153.892868 
L 343.322542 153.606779 
L 343.80512 153.62198 
L 344.287698 153.750261 
L 344.770277 154.055175 
L 345.252855 153.795962 
L 346.70059 153.873088 
L 348.148325 154.030214 
L 350.078638 153.839199 
L 350.561216 154.003955 
L 351.043794 153.846504 
L 352.008951 153.897728 
L 352.491529 154.118136 
L 353.456686 153.791698 
L 353.939264 153.896311 
L 354.421843 153.831295 
L 354.904421 154.198897 
L 355.386999 153.927989 
L 356.352156 154.109997 
L 356.834734 153.898566 
L 357.317312 153.954276 
L 357.799891 154.134481 
L 358.282469 153.935053 
L 359.247625 153.920059 
L 359.730204 154.032719 
L 360.212782 154.001386 
L 361.177939 154.089123 
L 361.660517 153.947899 
L 362.143095 154.194994 
L 362.625673 154.039253 
L 363.108252 154.19017 
L 363.59083 154.036039 
L 365.521143 154.135831 
L 366.003721 153.880928 
L 366.4863 154.022528 
L 366.968878 153.975641 
L 367.451456 154.150965 
L 368.899191 154.104607 
L 369.38177 154.231724 
L 369.864348 153.993417 
L 370.346926 153.89694 
L 371.794661 154.145842 
L 373.242396 154.207886 
L 373.724974 154.226834 
L 374.207552 154.020872 
L 375.655287 154.216763 
L 376.137866 154.012102 
L 377.103022 154.29308 
L 377.5856 153.992232 
L 378.068179 154.266306 
L 378.550757 154.042923 
L 379.033335 154.109878 
L 379.515914 154.298646 
L 381.446227 154.19593 
L 383.859118 154.198738 
L 384.341697 154.368 
L 384.824275 154.001591 
L 385.306853 153.975412 
L 386.754588 154.300758 
L 387.237166 154.051711 
L 388.202323 154.265511 
L 390.132636 154.094877 
L 390.615214 154.184322 
L 391.580371 153.96234 
L 392.062949 154.348897 
L 392.545528 154.10902 
L 393.028106 154.228461 
L 393.510684 153.981642 
L 393.993262 154.298472 
L 394.475841 153.971629 
L 394.958419 154.328022 
L 395.440997 154.004315 
L 395.923576 154.055588 
L 396.406154 154.271529 
L 396.888732 153.994325 
L 397.37131 153.997726 
L 397.853889 154.202435 
L 398.336467 154.234206 
L 398.819045 154.02829 
L 399.301624 154.235339 
L 399.784202 153.970483 
L 401.231937 154.317473 
L 401.714515 154.172664 
L 402.197093 154.215456 
L 402.679672 154.097215 
L 403.16225 154.309709 
L 405.092563 154.305945 
L 405.575141 154.091519 
L 406.05772 154.221955 
L 406.540298 154.229586 
L 407.022876 154.111342 
L 407.505455 154.30446 
L 407.505455 154.30446 
" style="fill:none;stroke:#1f77b4;stroke-linecap:square;stroke-width:1.5;"/>
   </g>
   <g id="patch_8">
    <path d="M 256 159.744 
L 256 41.472 
" style="fill:none;stroke:#000000;stroke-linecap:square;stroke-linejoin:miter;stroke-width:0.8;"/>
   </g>
   <g id="patch_9">
    <path d="M 414.72 159.744 
L 414.72 41.472 
" style="fill:none;stroke:#000000;stroke-linecap:square;stroke-linejoin:miter;stroke-width:0.8;"/>
   </g>
   <g id="patch_10">
    <path d="M 256 159.744 
L 414.72 159.744 
" style="fill:none;stroke:#000000;stroke-linecap:square;stroke-linejoin:miter;stroke-width:0.8;"/>
   </g>
   <g id="patch_11">
    <path d="M 256 41.472 
L 414.72 41.472 
" style="fill:none;stroke:#000000;stroke-linecap:square;stroke-linejoin:miter;stroke-width:0.8;"/>
   </g>
   <g id="text_18">
    <!-- loss -->
    <defs>
     <path d="M 9.421875 75.984375 
L 18.40625 75.984375 
L 18.40625 0 
L 9.421875 0 
z
" id="DejaVuSans-6c"/>
     <path d="M 30.609375 48.390625 
Q 23.390625 48.390625 19.1875 42.75 
Q 14.984375 37.109375 14.984375 27.296875 
Q 14.984375 17.484375 19.15625 11.84375 
Q 23.34375 6.203125 30.609375 6.203125 
Q 37.796875 6.203125 41.984375 11.859375 
Q 46.1875 17.53125 46.1875 27.296875 
Q 46.1875 37.015625 41.984375 42.703125 
Q 37.796875 48.390625 30.609375 48.390625 
z
M 30.609375 56 
Q 42.328125 56 49.015625 48.375 
Q 55.71875 40.765625 55.71875 27.296875 
Q 55.71875 13.875 49.015625 6.21875 
Q 42.328125 -1.421875 30.609375 -1.421875 
Q 18.84375 -1.421875 12.171875 6.21875 
Q 5.515625 13.875 5.515625 27.296875 
Q 5.515625 40.765625 12.171875 48.375 
Q 18.84375 56 30.609375 56 
z
" id="DejaVuSans-6f"/>
     <path d="M 44.28125 53.078125 
L 44.28125 44.578125 
Q 40.484375 46.53125 36.375 47.5 
Q 32.28125 48.484375 27.875 48.484375 
Q 21.1875 48.484375 17.84375 46.4375 
Q 14.5 44.390625 14.5 40.28125 
Q 14.5 37.15625 16.890625 35.375 
Q 19.28125 33.59375 26.515625 31.984375 
L 29.59375 31.296875 
Q 39.15625 29.25 43.1875 25.515625 
Q 47.21875 21.78125 47.21875 15.09375 
Q 47.21875 7.46875 41.1875 3.015625 
Q 35.15625 -1.421875 24.609375 -1.421875 
Q 20.21875 -1.421875 15.453125 -0.5625 
Q 10.6875 0.296875 5.421875 2 
L 5.421875 11.28125 
Q 10.40625 8.6875 15.234375 7.390625 
Q 20.0625 6.109375 24.8125 6.109375 
Q 31.15625 6.109375 34.5625 8.28125 
Q 37.984375 10.453125 37.984375 14.40625 
Q 37.984375 18.0625 35.515625 20.015625 
Q 33.0625 21.96875 24.703125 23.78125 
L 21.578125 24.515625 
Q 13.234375 26.265625 9.515625 29.90625 
Q 5.8125 33.546875 5.8125 39.890625 
Q 5.8125 47.609375 11.28125 51.796875 
Q 16.75 56 26.8125 56 
Q 31.78125 56 36.171875 55.265625 
Q 40.578125 54.546875 44.28125 53.078125 
z
" id="DejaVuSans-73"/>
    </defs>
    <g transform="translate(323.770625 35.472)scale(0.12 -0.12)">
     <use xlink:href="#DejaVuSans-6c"/>
     <use x="27.783203" xlink:href="#DejaVuSans-6f"/>
     <use x="88.964844" xlink:href="#DejaVuSans-73"/>
     <use x="141.064453" xlink:href="#DejaVuSans-73"/>
    </g>
   </g>
  </g>
  <g id="axes_3">
   <g id="patch_12">
    <path d="M 57.6 307.584 
L 216.32 307.584 
L 216.32 189.312 
L 57.6 189.312 
z
" style="fill:#ffffff;"/>
   </g>
   <g id="matplotlib.axis_5">
    <g id="xtick_9">
     <g id="line2d_35">
      <path clip-path="url(#p548e6fd832)" d="M 64.814545 307.584 
L 64.814545 189.312 
" style="fill:none;stroke:#b0b0b0;stroke-linecap:square;stroke-width:0.8;"/>
     </g>
     <g id="line2d_36">
      <g>
       <use style="stroke:#000000;stroke-width:0.8;" x="64.814545" xlink:href="#mb45b50989a" y="307.584"/>
      </g>
     </g>
     <g id="text_19">
      <!-- 0 -->
      <g transform="translate(61.633295 322.182437)scale(0.1 -0.1)">
       <use xlink:href="#DejaVuSans-30"/>
      </g>
     </g>
    </g>
    <g id="xtick_10">
     <g id="line2d_37">
      <path clip-path="url(#p548e6fd832)" d="M 113.072375 307.584 
L 113.072375 189.312 
" style="fill:none;stroke:#b0b0b0;stroke-linecap:square;stroke-width:0.8;"/>
     </g>
     <g id="line2d_38">
      <g>
       <use style="stroke:#000000;stroke-width:0.8;" x="113.072375" xlink:href="#mb45b50989a" y="307.584"/>
      </g>
     </g>
     <g id="text_20">
      <!-- 100 -->
      <g transform="translate(103.528625 322.182437)scale(0.1 -0.1)">
       <use xlink:href="#DejaVuSans-31"/>
       <use x="63.623047" xlink:href="#DejaVuSans-30"/>
       <use x="127.246094" xlink:href="#DejaVuSans-30"/>
      </g>
     </g>
    </g>
    <g id="xtick_11">
     <g id="line2d_39">
      <path clip-path="url(#p548e6fd832)" d="M 161.330204 307.584 
L 161.330204 189.312 
" style="fill:none;stroke:#b0b0b0;stroke-linecap:square;stroke-width:0.8;"/>
     </g>
     <g id="line2d_40">
      <g>
       <use style="stroke:#000000;stroke-width:0.8;" x="161.330204" xlink:href="#mb45b50989a" y="307.584"/>
      </g>
     </g>
     <g id="text_21">
      <!-- 200 -->
      <g transform="translate(151.786454 322.182437)scale(0.1 -0.1)">
       <use xlink:href="#DejaVuSans-32"/>
       <use x="63.623047" xlink:href="#DejaVuSans-30"/>
       <use x="127.246094" xlink:href="#DejaVuSans-30"/>
      </g>
     </g>
    </g>
    <g id="xtick_12">
     <g id="line2d_41">
      <path clip-path="url(#p548e6fd832)" d="M 209.588033 307.584 
L 209.588033 189.312 
" style="fill:none;stroke:#b0b0b0;stroke-linecap:square;stroke-width:0.8;"/>
     </g>
     <g id="line2d_42">
      <g>
       <use style="stroke:#000000;stroke-width:0.8;" x="209.588033" xlink:href="#mb45b50989a" y="307.584"/>
      </g>
     </g>
     <g id="text_22">
      <!-- 300 -->
      <g transform="translate(200.044283 322.182437)scale(0.1 -0.1)">
       <use xlink:href="#DejaVuSans-33"/>
       <use x="63.623047" xlink:href="#DejaVuSans-30"/>
       <use x="127.246094" xlink:href="#DejaVuSans-30"/>
      </g>
     </g>
    </g>
   </g>
   <g id="matplotlib.axis_6">
    <g id="ytick_9">
     <g id="line2d_43">
      <path clip-path="url(#p548e6fd832)" d="M 57.6 303.4931 
L 216.32 303.4931 
" style="fill:none;stroke:#b0b0b0;stroke-linecap:square;stroke-width:0.8;"/>
     </g>
     <g id="line2d_44">
      <g>
       <use style="stroke:#000000;stroke-width:0.8;" x="57.6" xlink:href="#mda7246de9d" y="303.4931"/>
      </g>
     </g>
     <g id="text_23">
      <!-- 0.00 -->
      <g transform="translate(28.334375 307.292318)scale(0.1 -0.1)">
       <use xlink:href="#DejaVuSans-30"/>
       <use x="63.623047" xlink:href="#DejaVuSans-2e"/>
       <use x="95.410156" xlink:href="#DejaVuSans-30"/>
       <use x="159.033203" xlink:href="#DejaVuSans-30"/>
      </g>
     </g>
    </g>
    <g id="ytick_10">
     <g id="line2d_45">
      <path clip-path="url(#p548e6fd832)" d="M 57.6 276.077641 
L 216.32 276.077641 
" style="fill:none;stroke:#b0b0b0;stroke-linecap:square;stroke-width:0.8;"/>
     </g>
     <g id="line2d_46">
      <g>
       <use style="stroke:#000000;stroke-width:0.8;" x="57.6" xlink:href="#mda7246de9d" y="276.077641"/>
      </g>
     </g>
     <g id="text_24">
      <!-- 0.25 -->
      <g transform="translate(28.334375 279.87686)scale(0.1 -0.1)">
       <use xlink:href="#DejaVuSans-30"/>
       <use x="63.623047" xlink:href="#DejaVuSans-2e"/>
       <use x="95.410156" xlink:href="#DejaVuSans-32"/>
       <use x="159.033203" xlink:href="#DejaVuSans-35"/>
      </g>
     </g>
    </g>
    <g id="ytick_11">
     <g id="line2d_47">
      <path clip-path="url(#p548e6fd832)" d="M 57.6 248.662183 
L 216.32 248.662183 
" style="fill:none;stroke:#b0b0b0;stroke-linecap:square;stroke-width:0.8;"/>
     </g>
     <g id="line2d_48">
      <g>
       <use style="stroke:#000000;stroke-width:0.8;" x="57.6" xlink:href="#mda7246de9d" y="248.662183"/>
      </g>
     </g>
     <g id="text_25">
      <!-- 0.50 -->
      <g transform="translate(28.334375 252.461402)scale(0.1 -0.1)">
       <use xlink:href="#DejaVuSans-30"/>
       <use x="63.623047" xlink:href="#DejaVuSans-2e"/>
       <use x="95.410156" xlink:href="#DejaVuSans-35"/>
       <use x="159.033203" xlink:href="#DejaVuSans-30"/>
      </g>
     </g>
    </g>
    <g id="ytick_12">
     <g id="line2d_49">
      <path clip-path="url(#p548e6fd832)" d="M 57.6 221.246725 
L 216.32 221.246725 
" style="fill:none;stroke:#b0b0b0;stroke-linecap:square;stroke-width:0.8;"/>
     </g>
     <g id="line2d_50">
      <g>
       <use style="stroke:#000000;stroke-width:0.8;" x="57.6" xlink:href="#mda7246de9d" y="221.246725"/>
      </g>
     </g>
     <g id="text_26">
      <!-- 0.75 -->
      <g transform="translate(28.334375 225.045944)scale(0.1 -0.1)">
       <use xlink:href="#DejaVuSans-30"/>
       <use x="63.623047" xlink:href="#DejaVuSans-2e"/>
       <use x="95.410156" xlink:href="#DejaVuSans-37"/>
       <use x="159.033203" xlink:href="#DejaVuSans-35"/>
      </g>
     </g>
    </g>
    <g id="ytick_13">
     <g id="line2d_51">
      <path clip-path="url(#p548e6fd832)" d="M 57.6 193.831267 
L 216.32 193.831267 
" style="fill:none;stroke:#b0b0b0;stroke-linecap:square;stroke-width:0.8;"/>
     </g>
     <g id="line2d_52">
      <g>
       <use style="stroke:#000000;stroke-width:0.8;" x="57.6" xlink:href="#mda7246de9d" y="193.831267"/>
      </g>
     </g>
     <g id="text_27">
      <!-- 1.00 -->
      <g transform="translate(28.334375 197.630485)scale(0.1 -0.1)">
       <use xlink:href="#DejaVuSans-31"/>
       <use x="63.623047" xlink:href="#DejaVuSans-2e"/>
       <use x="95.410156" xlink:href="#DejaVuSans-30"/>
       <use x="159.033203" xlink:href="#DejaVuSans-30"/>
      </g>
     </g>
    </g>
   </g>
   <g id="line2d_53">
    <path clip-path="url(#p548e6fd832)" d="M 64.814545 302.208 
L 65.297124 301.351267 
L 65.779702 299.637801 
L 66.26228 295.782502 
L 66.744859 297.067601 
L 67.227437 292.783936 
L 67.710015 291.498836 
L 69.15775 283.788239 
L 69.640328 275.220907 
L 70.122907 272.650709 
L 70.605485 272.650708 
L 71.088063 267.51031 
L 71.570642 266.22521 
L 72.05322 270.080509 
L 72.535798 259.371346 
L 73.018376 263.655011 
L 73.500955 259.799712 
L 73.983533 251.660748 
L 74.466111 251.660748 
L 74.94869 242.66505 
L 75.431268 256.37278 
L 75.913846 257.229513 
L 76.396424 242.236684 
L 76.879003 240.094852 
L 77.361581 240.523218 
L 77.844159 232.384253 
L 78.326738 234.09772 
L 78.809316 231.955888 
L 79.291894 228.100588 
L 79.774472 227.243855 
L 80.257051 236.239552 
L 80.739629 234.526086 
L 81.222207 223.388557 
L 81.704786 219.961626 
L 82.669942 225.958755 
L 83.152521 219.533257 
L 83.635099 218.248158 
L 84.117677 217.391425 
L 84.600255 217.391425 
L 85.082834 215.249593 
L 85.565412 218.676525 
L 86.04799 223.816924 
L 86.530569 213.536126 
L 87.013147 218.248159 
L 87.495725 209.252461 
L 87.978303 209.680828 
L 88.460882 208.824094 
L 88.94346 213.536126 
L 89.426038 213.536127 
L 89.908617 208.824095 
L 90.391195 208.395729 
L 90.873773 214.821226 
L 91.356351 210.109195 
L 91.83893 220.389991 
L 92.321508 201.970232 
L 92.804086 204.968797 
L 93.769243 205.825531 
L 94.251821 215.67796 
L 94.7344 203.683699 
L 95.216978 210.965928 
L 95.699556 203.255331 
L 96.182134 210.109194 
L 96.664713 204.54043 
L 97.147291 202.398598 
L 97.629869 204.112064 
L 98.112448 199.400032 
L 98.595026 211.822662 
L 99.077604 207.538997 
L 99.560182 200.256765 
L 100.042761 204.112065 
L 100.525339 202.826965 
L 101.007917 204.54043 
L 101.490496 201.113498 
L 101.973074 204.112064 
L 102.455652 201.113498 
L 103.420809 201.970232 
L 103.903387 199.400032 
L 104.868544 201.970231 
L 105.351122 201.970231 
L 105.8337 199.8284 
L 106.316279 199.828399 
L 106.798857 202.398598 
L 107.281435 201.970232 
L 107.764013 205.397163 
L 108.246592 204.968797 
L 108.72917 198.114933 
L 109.211748 198.971665 
L 109.694327 212.679394 
L 110.176905 201.541865 
L 110.659483 199.400033 
L 111.142061 201.113499 
L 111.62464 200.256766 
L 112.107218 198.971666 
L 112.589796 199.828399 
L 113.072375 199.828399 
L 113.554953 196.401466 
L 114.037531 206.682264 
L 114.520109 205.397163 
L 115.002688 197.2582 
L 115.485266 206.253897 
L 115.967844 200.685132 
L 116.450423 199.828399 
L 116.933001 204.968797 
L 117.415579 203.683697 
L 117.898157 195.9731 
L 118.380736 199.400033 
L 118.863314 200.685133 
L 119.345892 197.2582 
L 119.828471 196.829833 
L 120.311049 195.9731 
L 120.793627 196.829833 
L 121.276206 197.2582 
L 121.758784 196.401466 
L 122.241362 198.971666 
L 122.72394 200.256765 
L 123.206519 198.543299 
L 123.689097 197.686566 
L 124.171675 198.971665 
L 124.654254 196.401467 
L 125.136832 202.398598 
L 125.61941 198.543299 
L 126.101988 196.829833 
L 126.584567 200.256766 
L 127.067145 196.829833 
L 127.549723 197.2582 
L 128.032302 196.401467 
L 128.997458 200.685132 
L 129.480036 196.401466 
L 129.962615 197.686566 
L 130.445193 196.401467 
L 130.927771 197.2582 
L 131.41035 197.2582 
L 131.892928 198.114933 
L 132.375506 203.683697 
L 132.858085 198.114933 
L 133.340663 197.686566 
L 133.823241 196.401466 
L 134.305819 201.113498 
L 134.788398 197.2582 
L 135.753554 198.114933 
L 136.236133 198.114933 
L 136.718711 201.113499 
L 137.201289 195.116367 
L 137.683867 196.829833 
L 138.166446 195.9731 
L 138.649024 198.114933 
L 139.131602 198.543299 
L 139.614181 197.686566 
L 140.096759 195.116367 
L 140.579337 201.541866 
L 141.061915 195.9731 
L 141.544494 195.116367 
L 142.027072 196.401467 
L 142.50965 199.828399 
L 142.992229 195.544733 
L 143.474807 197.686566 
L 143.957385 195.116367 
L 144.439964 196.829833 
L 144.922542 199.828398 
L 145.40512 197.2582 
L 145.887698 198.5433 
L 146.370277 196.829833 
L 146.852855 195.973099 
L 147.335433 197.258199 
L 147.818012 195.9731 
L 148.30059 195.9731 
L 148.783168 199.828399 
L 149.265746 196.401467 
L 149.748325 197.2582 
L 150.230903 195.9731 
L 150.713481 195.544733 
L 151.19606 195.9731 
L 151.678638 195.544733 
L 152.161216 194.688 
L 152.643794 201.541865 
L 153.126373 199.400032 
L 153.608951 195.544733 
L 154.091529 199.400032 
L 154.574108 195.9731 
L 155.056686 197.2582 
L 155.539264 197.686566 
L 156.021843 195.9731 
L 156.504421 196.401466 
L 156.986999 195.544733 
L 157.469577 198.114933 
L 157.952156 198.114933 
L 158.434734 197.686566 
L 158.917312 196.401467 
L 159.399891 195.9731 
L 159.882469 198.543299 
L 160.365047 196.401467 
L 160.847625 198.114933 
L 161.330204 195.544733 
L 161.812782 195.9731 
L 162.29536 199.400032 
L 162.777939 199.400032 
L 163.260517 195.544733 
L 163.743095 200.256765 
L 164.225673 195.9731 
L 164.708252 199.828399 
L 165.673408 196.401467 
L 166.155987 195.544733 
L 166.638565 195.9731 
L 167.121143 195.116367 
L 167.603721 195.544733 
L 168.0863 196.401466 
L 168.568878 195.544733 
L 169.051456 198.5433 
L 169.534035 195.116367 
L 170.016613 195.9731 
L 170.499191 195.116367 
L 170.98177 207.967362 
L 171.464348 195.116367 
L 171.946926 195.9731 
L 172.429504 195.9731 
L 172.912083 195.544733 
L 173.877239 200.256766 
L 174.359818 197.258199 
L 175.324974 195.544733 
L 175.807552 196.401467 
L 176.290131 195.9731 
L 176.772709 196.829833 
L 177.255287 195.116367 
L 177.737866 195.9731 
L 178.220444 195.116367 
L 178.703022 197.258199 
L 179.1856 196.401466 
L 179.668179 195.9731 
L 180.150757 195.116367 
L 180.633335 197.686566 
L 181.115914 197.2582 
L 181.598492 196.401466 
L 182.08107 197.2582 
L 182.563649 196.401466 
L 183.046227 197.2582 
L 183.528805 195.9731 
L 184.011383 195.116367 
L 184.493962 200.685132 
L 184.97654 200.256765 
L 185.459118 195.9731 
L 185.941697 197.2582 
L 186.424275 195.9731 
L 186.906853 195.9731 
L 187.389431 195.544733 
L 187.87201 196.829833 
L 188.354588 195.544733 
L 188.837166 195.544733 
L 189.319745 196.401467 
L 189.802323 195.9731 
L 190.284901 197.686566 
L 190.767479 195.544733 
L 191.250058 195.9731 
L 191.732636 195.9731 
L 192.215214 198.971666 
L 192.697793 195.9731 
L 193.180371 196.401467 
L 193.662949 199.828398 
L 194.145528 195.9731 
L 194.628106 201.541864 
L 195.110684 198.543299 
L 195.593262 203.683698 
L 196.075841 195.116367 
L 196.558419 196.829833 
L 197.040997 195.9731 
L 197.523576 196.401467 
L 198.006154 197.258199 
L 198.488732 195.973099 
L 199.453889 196.829833 
L 199.936467 196.401466 
L 200.419045 197.2582 
L 200.901624 195.9731 
L 201.384202 196.401466 
L 201.86678 197.258199 
L 202.349358 195.9731 
L 202.831937 195.9731 
L 203.314515 195.544733 
L 203.797093 197.258199 
L 204.279672 195.116367 
L 204.76225 210.109195 
L 205.244828 198.114933 
L 205.727407 195.9731 
L 206.209985 195.544733 
L 206.692563 194.688 
L 207.175141 194.688 
L 207.65772 195.9731 
L 208.140298 195.973099 
L 208.622876 196.401466 
L 209.105455 195.544733 
L 209.105455 195.544733 
" style="fill:none;stroke:#1f77b4;stroke-linecap:square;stroke-width:1.5;"/>
   </g>
   <g id="patch_13">
    <path d="M 57.6 307.584 
L 57.6 189.312 
" style="fill:none;stroke:#000000;stroke-linecap:square;stroke-linejoin:miter;stroke-width:0.8;"/>
   </g>
   <g id="patch_14">
    <path d="M 216.32 307.584 
L 216.32 189.312 
" style="fill:none;stroke:#000000;stroke-linecap:square;stroke-linejoin:miter;stroke-width:0.8;"/>
   </g>
   <g id="patch_15">
    <path d="M 57.6 307.584 
L 216.32 307.584 
" style="fill:none;stroke:#000000;stroke-linecap:square;stroke-linejoin:miter;stroke-width:0.8;"/>
   </g>
   <g id="patch_16">
    <path d="M 57.6 189.312 
L 216.32 189.312 
" style="fill:none;stroke:#000000;stroke-linecap:square;stroke-linejoin:miter;stroke-width:0.8;"/>
   </g>
   <g id="text_28">
    <!-- val_acc -->
    <defs>
     <path d="M 2.984375 54.6875 
L 12.5 54.6875 
L 29.59375 8.796875 
L 46.6875 54.6875 
L 56.203125 54.6875 
L 35.6875 0 
L 23.484375 0 
z
" id="DejaVuSans-76"/>
     <path d="M 50.984375 -16.609375 
L 50.984375 -23.578125 
L -0.984375 -23.578125 
L -0.984375 -16.609375 
z
" id="DejaVuSans-5f"/>
    </defs>
    <g transform="translate(114.79 183.312)scale(0.12 -0.12)">
     <use xlink:href="#DejaVuSans-76"/>
     <use x="59.179688" xlink:href="#DejaVuSans-61"/>
     <use x="120.458984" xlink:href="#DejaVuSans-6c"/>
     <use x="148.242188" xlink:href="#DejaVuSans-5f"/>
     <use x="198.242188" xlink:href="#DejaVuSans-61"/>
     <use x="259.521484" xlink:href="#DejaVuSans-63"/>
     <use x="314.501953" xlink:href="#DejaVuSans-63"/>
    </g>
   </g>
  </g>
  <g id="axes_4">
   <g id="patch_17">
    <path d="M 256 307.584 
L 414.72 307.584 
L 414.72 189.312 
L 256 189.312 
z
" style="fill:#ffffff;"/>
   </g>
   <g id="matplotlib.axis_7">
    <g id="xtick_13">
     <g id="line2d_54">
      <path clip-path="url(#p5c5e45099e)" d="M 263.214545 307.584 
L 263.214545 189.312 
" style="fill:none;stroke:#b0b0b0;stroke-linecap:square;stroke-width:0.8;"/>
     </g>
     <g id="line2d_55">
      <g>
       <use style="stroke:#000000;stroke-width:0.8;" x="263.214545" xlink:href="#mb45b50989a" y="307.584"/>
      </g>
     </g>
     <g id="text_29">
      <!-- 0 -->
      <g transform="translate(260.033295 322.182437)scale(0.1 -0.1)">
       <use xlink:href="#DejaVuSans-30"/>
      </g>
     </g>
    </g>
    <g id="xtick_14">
     <g id="line2d_56">
      <path clip-path="url(#p5c5e45099e)" d="M 311.472375 307.584 
L 311.472375 189.312 
" style="fill:none;stroke:#b0b0b0;stroke-linecap:square;stroke-width:0.8;"/>
     </g>
     <g id="line2d_57">
      <g>
       <use style="stroke:#000000;stroke-width:0.8;" x="311.472375" xlink:href="#mb45b50989a" y="307.584"/>
      </g>
     </g>
     <g id="text_30">
      <!-- 100 -->
      <g transform="translate(301.928625 322.182437)scale(0.1 -0.1)">
       <use xlink:href="#DejaVuSans-31"/>
       <use x="63.623047" xlink:href="#DejaVuSans-30"/>
       <use x="127.246094" xlink:href="#DejaVuSans-30"/>
      </g>
     </g>
    </g>
    <g id="xtick_15">
     <g id="line2d_58">
      <path clip-path="url(#p5c5e45099e)" d="M 359.730204 307.584 
L 359.730204 189.312 
" style="fill:none;stroke:#b0b0b0;stroke-linecap:square;stroke-width:0.8;"/>
     </g>
     <g id="line2d_59">
      <g>
       <use style="stroke:#000000;stroke-width:0.8;" x="359.730204" xlink:href="#mb45b50989a" y="307.584"/>
      </g>
     </g>
     <g id="text_31">
      <!-- 200 -->
      <g transform="translate(350.186454 322.182437)scale(0.1 -0.1)">
       <use xlink:href="#DejaVuSans-32"/>
       <use x="63.623047" xlink:href="#DejaVuSans-30"/>
       <use x="127.246094" xlink:href="#DejaVuSans-30"/>
      </g>
     </g>
    </g>
    <g id="xtick_16">
     <g id="line2d_60">
      <path clip-path="url(#p5c5e45099e)" d="M 407.988033 307.584 
L 407.988033 189.312 
" style="fill:none;stroke:#b0b0b0;stroke-linecap:square;stroke-width:0.8;"/>
     </g>
     <g id="line2d_61">
      <g>
       <use style="stroke:#000000;stroke-width:0.8;" x="407.988033" xlink:href="#mb45b50989a" y="307.584"/>
      </g>
     </g>
     <g id="text_32">
      <!-- 300 -->
      <g transform="translate(398.444283 322.182437)scale(0.1 -0.1)">
       <use xlink:href="#DejaVuSans-33"/>
       <use x="63.623047" xlink:href="#DejaVuSans-30"/>
       <use x="127.246094" xlink:href="#DejaVuSans-30"/>
      </g>
     </g>
    </g>
   </g>
   <g id="matplotlib.axis_8">
    <g id="ytick_14">
     <g id="line2d_62">
      <path clip-path="url(#p5c5e45099e)" d="M 256 302.877604 
L 414.72 302.877604 
" style="fill:none;stroke:#b0b0b0;stroke-linecap:square;stroke-width:0.8;"/>
     </g>
     <g id="line2d_63">
      <g>
       <use style="stroke:#000000;stroke-width:0.8;" x="256" xlink:href="#mda7246de9d" y="302.877604"/>
      </g>
     </g>
     <g id="text_33">
      <!-- 0 -->
      <g transform="translate(242.6375 306.676823)scale(0.1 -0.1)">
       <use xlink:href="#DejaVuSans-30"/>
      </g>
     </g>
    </g>
    <g id="ytick_15">
     <g id="line2d_64">
      <path clip-path="url(#p5c5e45099e)" d="M 256 262.973983 
L 414.72 262.973983 
" style="fill:none;stroke:#b0b0b0;stroke-linecap:square;stroke-width:0.8;"/>
     </g>
     <g id="line2d_65">
      <g>
       <use style="stroke:#000000;stroke-width:0.8;" x="256" xlink:href="#mda7246de9d" y="262.973983"/>
      </g>
     </g>
     <g id="text_34">
      <!-- 2 -->
      <g transform="translate(242.6375 266.773201)scale(0.1 -0.1)">
       <use xlink:href="#DejaVuSans-32"/>
      </g>
     </g>
    </g>
    <g id="ytick_16">
     <g id="line2d_66">
      <path clip-path="url(#p5c5e45099e)" d="M 256 223.070361 
L 414.72 223.070361 
" style="fill:none;stroke:#b0b0b0;stroke-linecap:square;stroke-width:0.8;"/>
     </g>
     <g id="line2d_67">
      <g>
       <use style="stroke:#000000;stroke-width:0.8;" x="256" xlink:href="#mda7246de9d" y="223.070361"/>
      </g>
     </g>
     <g id="text_35">
      <!-- 4 -->
      <g transform="translate(242.6375 226.86958)scale(0.1 -0.1)">
       <use xlink:href="#DejaVuSans-34"/>
      </g>
     </g>
    </g>
   </g>
   <g id="line2d_68">
    <path clip-path="url(#p5c5e45099e)" d="M 263.214545 194.688 
L 263.697124 204.913818 
L 264.179702 212.082129 
L 264.66228 216.438191 
L 265.144859 219.44742 
L 266.110015 227.046736 
L 266.592593 229.518153 
L 267.075172 234.834171 
L 267.55775 237.436369 
L 268.040328 241.508972 
L 269.970642 252.352148 
L 270.45322 253.533687 
L 270.935798 256.542058 
L 271.418376 258.683412 
L 271.900955 259.926504 
L 272.383533 263.08741 
L 272.866111 263.593155 
L 273.34869 266.548461 
L 273.831268 265.223506 
L 274.313846 266.079731 
L 275.279003 271.310093 
L 275.761581 272.128446 
L 276.244159 273.592679 
L 276.726738 274.113375 
L 277.209316 275.759739 
L 277.691894 276.647389 
L 278.174472 278.581657 
L 278.657051 276.982207 
L 279.139629 278.600148 
L 279.622207 281.168659 
L 280.104786 282.458797 
L 280.587364 281.856465 
L 281.069942 282.230818 
L 281.552521 285.263417 
L 282.035099 283.724177 
L 282.517677 286.177273 
L 283.000255 286.811776 
L 283.482834 287.155821 
L 283.965412 286.15885 
L 284.44799 284.626498 
L 284.930569 288.22689 
L 285.413147 285.765044 
L 285.895725 290.319321 
L 286.378303 289.794803 
L 286.860882 291.116662 
L 287.34346 289.463112 
L 287.826038 288.702838 
L 288.308617 291.442429 
L 288.791195 292.398031 
L 289.273773 290.185348 
L 289.756351 291.640417 
L 290.23893 288.073676 
L 290.721508 293.691997 
L 291.204086 293.380027 
L 291.686665 293.771531 
L 292.169243 294.383426 
L 292.651821 290.137098 
L 293.1344 295.187064 
L 293.616978 291.454877 
L 294.099556 294.321796 
L 294.582134 292.838704 
L 295.064713 295.113594 
L 295.547291 295.618863 
L 296.029869 295.315916 
L 296.512448 296.645128 
L 296.995026 292.696858 
L 297.477604 294.395972 
L 297.960182 296.762828 
L 298.925339 295.782541 
L 299.407917 294.954887 
L 299.890496 296.443402 
L 300.373074 296.039505 
L 300.855652 296.644466 
L 301.33823 297.715572 
L 301.820809 296.529544 
L 302.303387 297.869053 
L 302.785965 298.233346 
L 303.268544 296.420419 
L 303.751122 297.313476 
L 304.2337 297.955463 
L 304.716279 298.063291 
L 305.681435 296.934938 
L 306.164013 296.001411 
L 306.646592 296.153468 
L 307.12917 299.188604 
L 307.611748 298.657592 
L 308.094327 293.284937 
L 308.576905 298.077934 
L 309.059483 298.416007 
L 309.542061 298.45747 
L 310.507218 299.366095 
L 311.472375 298.867571 
L 311.954953 300.06363 
L 312.437531 295.594902 
L 312.920109 296.309931 
L 313.402688 299.915595 
L 313.885266 297.026615 
L 314.367844 298.764959 
L 314.850423 299.499216 
L 315.333001 297.096663 
L 315.815579 297.311305 
L 316.298157 300.125711 
L 317.263314 299.02062 
L 317.745892 300.184008 
L 318.711049 300.590929 
L 319.676206 300.436188 
L 320.158784 300.635106 
L 320.641362 299.500932 
L 321.12394 298.90884 
L 322.089097 299.773085 
L 322.571675 299.431424 
L 323.054254 300.543913 
L 323.536832 298.102978 
L 324.501988 300.893138 
L 324.984567 298.915045 
L 325.467145 300.344718 
L 325.949723 300.680816 
L 326.432302 300.828206 
L 326.91488 300.489341 
L 327.397458 299.629979 
L 327.880036 301.025143 
L 328.362615 300.3001 
L 328.845193 301.019257 
L 329.327771 300.51978 
L 329.81035 300.83142 
L 330.292928 300.65667 
L 330.775506 296.645201 
L 331.258085 300.392768 
L 331.740663 300.211135 
L 332.223241 300.593807 
L 332.705819 298.399377 
L 333.188398 300.776537 
L 333.670976 300.998942 
L 334.153554 300.512159 
L 334.636133 300.655201 
L 335.118711 299.016054 
L 335.601289 301.601434 
L 336.083867 301.05567 
L 336.566446 301.717976 
L 337.049024 300.888722 
L 337.531602 299.74144 
L 338.014181 300.850438 
L 338.496759 301.570973 
L 338.979337 298.233258 
L 339.461915 301.318192 
L 339.944494 301.488581 
L 340.427072 300.897427 
L 340.90965 299.381373 
L 341.392229 301.462285 
L 341.874807 300.901515 
L 342.357385 301.785613 
L 342.839964 301.103545 
L 343.322542 300.168942 
L 343.80512 300.832638 
L 344.287698 300.529505 
L 344.770277 301.431738 
L 345.252855 301.533153 
L 345.735433 301.091877 
L 346.218012 301.635378 
L 346.70059 301.606951 
L 347.183168 300.0046 
L 347.665746 301.169971 
L 348.148325 300.943706 
L 349.113481 301.834459 
L 349.59606 301.619672 
L 350.078638 301.72312 
L 350.561216 302.003196 
L 351.043794 298.99472 
L 351.526373 299.986469 
L 352.008951 301.593953 
L 352.491529 300.073402 
L 352.974108 301.466971 
L 353.456686 301.213743 
L 353.939264 301.5476 
L 354.421843 301.602566 
L 354.904421 301.018799 
L 355.386999 301.778283 
L 355.869577 300.80258 
L 357.317312 301.009787 
L 357.799891 301.79698 
L 358.282469 300.480716 
L 358.765047 301.681111 
L 359.247625 300.574001 
L 359.730204 301.85037 
L 360.212782 301.419467 
L 360.69536 299.949687 
L 361.177939 299.723749 
L 361.660517 301.660277 
L 362.143095 300.013702 
L 362.625673 301.757989 
L 363.108252 299.501555 
L 363.59083 301.278863 
L 366.003721 301.976383 
L 366.4863 301.625458 
L 366.968878 301.601953 
L 367.451456 299.769313 
L 367.934035 301.755112 
L 368.416613 301.630499 
L 368.899191 301.982935 
L 369.38177 293.923449 
L 369.864348 301.959431 
L 370.829504 301.51757 
L 371.312083 301.851085 
L 371.794661 300.533962 
L 372.277239 299.802418 
L 372.759818 300.898918 
L 373.242396 301.178886 
L 373.724974 302.003376 
L 374.207552 301.613891 
L 375.172709 301.693707 
L 375.655287 302.162852 
L 376.137866 301.73035 
L 376.620444 302.073765 
L 377.103022 301.260063 
L 377.5856 301.692871 
L 378.068179 301.127404 
L 378.550757 301.914835 
L 379.033335 301.129114 
L 379.515914 300.661713 
L 379.998492 301.546283 
L 380.48107 301.574364 
L 381.446227 301.225287 
L 381.928805 301.546733 
L 382.411383 302.078308 
L 382.893962 298.879277 
L 383.37654 299.014523 
L 383.859118 301.792104 
L 384.341697 299.790779 
L 384.824275 301.46631 
L 385.306853 301.625231 
L 385.789431 301.979087 
L 386.27201 301.33185 
L 386.754588 302.09956 
L 387.237166 301.667746 
L 387.719745 302.106656 
L 388.202323 301.516406 
L 388.684901 301.309283 
L 389.167479 301.950109 
L 389.650058 301.788695 
L 390.132636 301.960786 
L 390.615214 298.171354 
L 391.097793 301.796614 
L 391.580371 301.672465 
L 392.062949 299.460393 
L 392.545528 301.901529 
L 393.028106 298.912519 
L 393.510684 301.097095 
L 393.993262 297.761342 
L 394.475841 302.114045 
L 394.958419 301.211531 
L 395.440997 301.587437 
L 396.406154 300.969935 
L 396.888732 302.021972 
L 397.37131 301.714825 
L 397.853889 300.888408 
L 398.819045 301.475421 
L 399.301624 302.01147 
L 399.784202 301.441195 
L 400.26678 301.186432 
L 401.231937 302.049791 
L 401.714515 302.198529 
L 402.197093 301.524652 
L 402.679672 302.208 
L 403.16225 292.194387 
L 403.644828 300.672482 
L 404.127407 302.004168 
L 404.609985 301.450484 
L 405.092563 302.193927 
L 405.575141 302.174922 
L 406.05772 301.209043 
L 406.540298 301.284593 
L 407.022876 300.542436 
L 407.505455 301.710751 
L 407.505455 301.710751 
" style="fill:none;stroke:#1f77b4;stroke-linecap:square;stroke-width:1.5;"/>
   </g>
   <g id="patch_18">
    <path d="M 256 307.584 
L 256 189.312 
" style="fill:none;stroke:#000000;stroke-linecap:square;stroke-linejoin:miter;stroke-width:0.8;"/>
   </g>
   <g id="patch_19">
    <path d="M 414.72 307.584 
L 414.72 189.312 
" style="fill:none;stroke:#000000;stroke-linecap:square;stroke-linejoin:miter;stroke-width:0.8;"/>
   </g>
   <g id="patch_20">
    <path d="M 256 307.584 
L 414.72 307.584 
" style="fill:none;stroke:#000000;stroke-linecap:square;stroke-linejoin:miter;stroke-width:0.8;"/>
   </g>
   <g id="patch_21">
    <path d="M 256 189.312 
L 414.72 189.312 
" style="fill:none;stroke:#000000;stroke-linecap:square;stroke-linejoin:miter;stroke-width:0.8;"/>
   </g>
   <g id="text_36">
    <!-- val_loss -->
    <g transform="translate(311.875625 183.312)scale(0.12 -0.12)">
     <use xlink:href="#DejaVuSans-76"/>
     <use x="59.179688" xlink:href="#DejaVuSans-61"/>
     <use x="120.458984" xlink:href="#DejaVuSans-6c"/>
     <use x="148.242188" xlink:href="#DejaVuSans-5f"/>
     <use x="198.242188" xlink:href="#DejaVuSans-6c"/>
     <use x="226.025391" xlink:href="#DejaVuSans-6f"/>
     <use x="287.207031" xlink:href="#DejaVuSans-73"/>
     <use x="339.306641" xlink:href="#DejaVuSans-73"/>
    </g>
   </g>
  </g>
  <g id="text_37">
   <!-- solution 20171021_145602 -->
   <defs>
    <path d="M 8.5 21.578125 
L 8.5 54.6875 
L 17.484375 54.6875 
L 17.484375 21.921875 
Q 17.484375 14.15625 20.5 10.265625 
Q 23.53125 6.390625 29.59375 6.390625 
Q 36.859375 6.390625 41.078125 11.03125 
Q 45.3125 15.671875 45.3125 23.6875 
L 45.3125 54.6875 
L 54.296875 54.6875 
L 54.296875 0 
L 45.3125 0 
L 45.3125 8.40625 
Q 42.046875 3.421875 37.71875 1 
Q 33.40625 -1.421875 27.6875 -1.421875 
Q 18.265625 -1.421875 13.375 4.4375 
Q 8.5 10.296875 8.5 21.578125 
z
M 31.109375 56 
z
" id="DejaVuSans-75"/>
    <path d="M 18.3125 70.21875 
L 18.3125 54.6875 
L 36.8125 54.6875 
L 36.8125 47.703125 
L 18.3125 47.703125 
L 18.3125 18.015625 
Q 18.3125 11.328125 20.140625 9.421875 
Q 21.96875 7.515625 27.59375 7.515625 
L 36.8125 7.515625 
L 36.8125 0 
L 27.59375 0 
Q 17.1875 0 13.234375 3.875 
Q 9.28125 7.765625 9.28125 18.015625 
L 9.28125 47.703125 
L 2.6875 47.703125 
L 2.6875 54.6875 
L 9.28125 54.6875 
L 9.28125 70.21875 
z
" id="DejaVuSans-74"/>
    <path d="M 9.421875 54.6875 
L 18.40625 54.6875 
L 18.40625 0 
L 9.421875 0 
z
M 9.421875 75.984375 
L 18.40625 75.984375 
L 18.40625 64.59375 
L 9.421875 64.59375 
z
" id="DejaVuSans-69"/>
    <path d="M 54.890625 33.015625 
L 54.890625 0 
L 45.90625 0 
L 45.90625 32.71875 
Q 45.90625 40.484375 42.875 44.328125 
Q 39.84375 48.1875 33.796875 48.1875 
Q 26.515625 48.1875 22.3125 43.546875 
Q 18.109375 38.921875 18.109375 30.90625 
L 18.109375 0 
L 9.078125 0 
L 9.078125 54.6875 
L 18.109375 54.6875 
L 18.109375 46.1875 
Q 21.34375 51.125 25.703125 53.5625 
Q 30.078125 56 35.796875 56 
Q 45.21875 56 50.046875 50.171875 
Q 54.890625 44.34375 54.890625 33.015625 
z
" id="DejaVuSans-6e"/>
    <path id="DejaVuSans-20"/>
    <path d="M 33.015625 40.375 
Q 26.375 40.375 22.484375 35.828125 
Q 18.609375 31.296875 18.609375 23.390625 
Q 18.609375 15.53125 22.484375 10.953125 
Q 26.375 6.390625 33.015625 6.390625 
Q 39.65625 6.390625 43.53125 10.953125 
Q 47.40625 15.53125 47.40625 23.390625 
Q 47.40625 31.296875 43.53125 35.828125 
Q 39.65625 40.375 33.015625 40.375 
z
M 52.59375 71.296875 
L 52.59375 62.3125 
Q 48.875 64.0625 45.09375 64.984375 
Q 41.3125 65.921875 37.59375 65.921875 
Q 27.828125 65.921875 22.671875 59.328125 
Q 17.53125 52.734375 16.796875 39.40625 
Q 19.671875 43.65625 24.015625 45.921875 
Q 28.375 48.1875 33.59375 48.1875 
Q 44.578125 48.1875 50.953125 41.515625 
Q 57.328125 34.859375 57.328125 23.390625 
Q 57.328125 12.15625 50.6875 5.359375 
Q 44.046875 -1.421875 33.015625 -1.421875 
Q 20.359375 -1.421875 13.671875 8.265625 
Q 6.984375 17.96875 6.984375 36.375 
Q 6.984375 53.65625 15.1875 63.9375 
Q 23.390625 74.21875 37.203125 74.21875 
Q 40.921875 74.21875 44.703125 73.484375 
Q 48.484375 72.75 52.59375 71.296875 
z
" id="DejaVuSans-36"/>
   </defs>
   <g transform="translate(148.289062 16.030125)scale(0.12 -0.12)">
    <use xlink:href="#DejaVuSans-73"/>
    <use x="52.099609" xlink:href="#DejaVuSans-6f"/>
    <use x="113.28125" xlink:href="#DejaVuSans-6c"/>
    <use x="141.064453" xlink:href="#DejaVuSans-75"/>
    <use x="204.443359" xlink:href="#DejaVuSans-74"/>
    <use x="243.652344" xlink:href="#DejaVuSans-69"/>
    <use x="271.435547" xlink:href="#DejaVuSans-6f"/>
    <use x="332.617188" xlink:href="#DejaVuSans-6e"/>
    <use x="395.996094" xlink:href="#DejaVuSans-20"/>
    <use x="427.783203" xlink:href="#DejaVuSans-32"/>
    <use x="491.40625" xlink:href="#DejaVuSans-30"/>
    <use x="555.029297" xlink:href="#DejaVuSans-31"/>
    <use x="618.652344" xlink:href="#DejaVuSans-37"/>
    <use x="682.275391" xlink:href="#DejaVuSans-31"/>
    <use x="745.898438" xlink:href="#DejaVuSans-30"/>
    <use x="809.521484" xlink:href="#DejaVuSans-32"/>
    <use x="873.144531" xlink:href="#DejaVuSans-31"/>
    <use x="936.767578" xlink:href="#DejaVuSans-5f"/>
    <use x="986.767578" xlink:href="#DejaVuSans-31"/>
    <use x="1050.390625" xlink:href="#DejaVuSans-34"/>
    <use x="1114.013672" xlink:href="#DejaVuSans-35"/>
    <use x="1177.636719" xlink:href="#DejaVuSans-36"/>
    <use x="1241.259766" xlink:href="#DejaVuSans-30"/>
    <use x="1304.882812" xlink:href="#DejaVuSans-32"/>
   </g>
  </g>
 </g>
 <defs>
  <clipPath id="p28af1ff5de">
   <rect height="118.272" width="158.72" x="57.6" y="41.472"/>
  </clipPath>
  <clipPath id="p98aa18c3d5">
   <rect height="118.272" width="158.72" x="256" y="41.472"/>
  </clipPath>
  <clipPath id="p548e6fd832">
   <rect height="118.272" width="158.72" x="57.6" y="189.312"/>
  </clipPath>
  <clipPath id="p5c5e45099e">
   <rect height="118.272" width="158.72" x="256" y="189.312"/>
  </clipPath>
 </defs>
</svg>
