<?xml version="1.0" encoding="utf-8" standalone="no"?>
<!DOCTYPE svg PUBLIC "-//W3C//DTD SVG 1.1//EN"
  "http://www.w3.org/Graphics/SVG/1.1/DTD/svg11.dtd">
<!-- Created with matplotlib (http://matplotlib.org/) -->
<svg height="345pt" version="1.1" viewBox="0 0 460 345" width="460pt" xmlns="http://www.w3.org/2000/svg" xmlns:xlink="http://www.w3.org/1999/xlink">
 <defs>
  <style type="text/css">
*{stroke-linecap:butt;stroke-linejoin:round;}
  </style>
 </defs>
 <g id="figure_1">
  <g id="patch_1">
   <path d="M 0 345.6 
L 460.8 345.6 
L 460.8 0 
L 0 0 
z
" style="fill:#ffffff;"/>
  </g>
  <g id="axes_1">
   <g id="patch_2">
    <path d="M 57.6 159.744 
L 216.32 159.744 
L 216.32 41.472 
L 57.6 41.472 
z
" style="fill:#ffffff;"/>
   </g>
   <g id="matplotlib.axis_1">
    <g id="xtick_1">
     <g id="line2d_1">
      <path clip-path="url(#p05c8804c0a)" d="M 64.814545 159.744 
L 64.814545 41.472 
" style="fill:none;stroke:#b0b0b0;stroke-linecap:square;stroke-width:0.8;"/>
     </g>
     <g id="line2d_2">
      <defs>
       <path d="M 0 0 
L 0 3.5 
" id="m9db88e9e5a" style="stroke:#000000;stroke-width:0.8;"/>
      </defs>
      <g>
       <use style="stroke:#000000;stroke-width:0.8;" x="64.814545" xlink:href="#m9db88e9e5a" y="159.744"/>
      </g>
     </g>
     <g id="text_1">
      <!-- 0 -->
      <defs>
       <path d="M 31.78125 66.40625 
Q 24.171875 66.40625 20.328125 58.90625 
Q 16.5 51.421875 16.5 36.375 
Q 16.5 21.390625 20.328125 13.890625 
Q 24.171875 6.390625 31.78125 6.390625 
Q 39.453125 6.390625 43.28125 13.890625 
Q 47.125 21.390625 47.125 36.375 
Q 47.125 51.421875 43.28125 58.90625 
Q 39.453125 66.40625 31.78125 66.40625 
z
M 31.78125 74.21875 
Q 44.046875 74.21875 50.515625 64.515625 
Q 56.984375 54.828125 56.984375 36.375 
Q 56.984375 17.96875 50.515625 8.265625 
Q 44.046875 -1.421875 31.78125 -1.421875 
Q 19.53125 -1.421875 13.0625 8.265625 
Q 6.59375 17.96875 6.59375 36.375 
Q 6.59375 54.828125 13.0625 64.515625 
Q 19.53125 74.21875 31.78125 74.21875 
z
" id="DejaVuSans-30"/>
      </defs>
      <g transform="translate(61.633295 174.342437)scale(0.1 -0.1)">
       <use xlink:href="#DejaVuSans-30"/>
      </g>
     </g>
    </g>
    <g id="xtick_2">
     <g id="line2d_3">
      <path clip-path="url(#p05c8804c0a)" d="M 113.072375 159.744 
L 113.072375 41.472 
" style="fill:none;stroke:#b0b0b0;stroke-linecap:square;stroke-width:0.8;"/>
     </g>
     <g id="line2d_4">
      <g>
       <use style="stroke:#000000;stroke-width:0.8;" x="113.072375" xlink:href="#m9db88e9e5a" y="159.744"/>
      </g>
     </g>
     <g id="text_2">
      <!-- 100 -->
      <defs>
       <path d="M 12.40625 8.296875 
L 28.515625 8.296875 
L 28.515625 63.921875 
L 10.984375 60.40625 
L 10.984375 69.390625 
L 28.421875 72.90625 
L 38.28125 72.90625 
L 38.28125 8.296875 
L 54.390625 8.296875 
L 54.390625 0 
L 12.40625 0 
z
" id="DejaVuSans-31"/>
      </defs>
      <g transform="translate(103.528625 174.342437)scale(0.1 -0.1)">
       <use xlink:href="#DejaVuSans-31"/>
       <use x="63.623047" xlink:href="#DejaVuSans-30"/>
       <use x="127.246094" xlink:href="#DejaVuSans-30"/>
      </g>
     </g>
    </g>
    <g id="xtick_3">
     <g id="line2d_5">
      <path clip-path="url(#p05c8804c0a)" d="M 161.330204 159.744 
L 161.330204 41.472 
" style="fill:none;stroke:#b0b0b0;stroke-linecap:square;stroke-width:0.8;"/>
     </g>
     <g id="line2d_6">
      <g>
       <use style="stroke:#000000;stroke-width:0.8;" x="161.330204" xlink:href="#m9db88e9e5a" y="159.744"/>
      </g>
     </g>
     <g id="text_3">
      <!-- 200 -->
      <defs>
       <path d="M 19.1875 8.296875 
L 53.609375 8.296875 
L 53.609375 0 
L 7.328125 0 
L 7.328125 8.296875 
Q 12.9375 14.109375 22.625 23.890625 
Q 32.328125 33.6875 34.8125 36.53125 
Q 39.546875 41.84375 41.421875 45.53125 
Q 43.3125 49.21875 43.3125 52.78125 
Q 43.3125 58.59375 39.234375 62.25 
Q 35.15625 65.921875 28.609375 65.921875 
Q 23.96875 65.921875 18.8125 64.3125 
Q 13.671875 62.703125 7.8125 59.421875 
L 7.8125 69.390625 
Q 13.765625 71.78125 18.9375 73 
Q 24.125 74.21875 28.421875 74.21875 
Q 39.75 74.21875 46.484375 68.546875 
Q 53.21875 62.890625 53.21875 53.421875 
Q 53.21875 48.921875 51.53125 44.890625 
Q 49.859375 40.875 45.40625 35.40625 
Q 44.1875 33.984375 37.640625 27.21875 
Q 31.109375 20.453125 19.1875 8.296875 
z
" id="DejaVuSans-32"/>
      </defs>
      <g transform="translate(151.786454 174.342437)scale(0.1 -0.1)">
       <use xlink:href="#DejaVuSans-32"/>
       <use x="63.623047" xlink:href="#DejaVuSans-30"/>
       <use x="127.246094" xlink:href="#DejaVuSans-30"/>
      </g>
     </g>
    </g>
    <g id="xtick_4">
     <g id="line2d_7">
      <path clip-path="url(#p05c8804c0a)" d="M 209.588033 159.744 
L 209.588033 41.472 
" style="fill:none;stroke:#b0b0b0;stroke-linecap:square;stroke-width:0.8;"/>
     </g>
     <g id="line2d_8">
      <g>
       <use style="stroke:#000000;stroke-width:0.8;" x="209.588033" xlink:href="#m9db88e9e5a" y="159.744"/>
      </g>
     </g>
     <g id="text_4">
      <!-- 300 -->
      <defs>
       <path d="M 40.578125 39.3125 
Q 47.65625 37.796875 51.625 33 
Q 55.609375 28.21875 55.609375 21.1875 
Q 55.609375 10.40625 48.1875 4.484375 
Q 40.765625 -1.421875 27.09375 -1.421875 
Q 22.515625 -1.421875 17.65625 -0.515625 
Q 12.796875 0.390625 7.625 2.203125 
L 7.625 11.71875 
Q 11.71875 9.328125 16.59375 8.109375 
Q 21.484375 6.890625 26.8125 6.890625 
Q 36.078125 6.890625 40.9375 10.546875 
Q 45.796875 14.203125 45.796875 21.1875 
Q 45.796875 27.640625 41.28125 31.265625 
Q 36.765625 34.90625 28.71875 34.90625 
L 20.21875 34.90625 
L 20.21875 43.015625 
L 29.109375 43.015625 
Q 36.375 43.015625 40.234375 45.921875 
Q 44.09375 48.828125 44.09375 54.296875 
Q 44.09375 59.90625 40.109375 62.90625 
Q 36.140625 65.921875 28.71875 65.921875 
Q 24.65625 65.921875 20.015625 65.03125 
Q 15.375 64.15625 9.8125 62.3125 
L 9.8125 71.09375 
Q 15.4375 72.65625 20.34375 73.4375 
Q 25.25 74.21875 29.59375 74.21875 
Q 40.828125 74.21875 47.359375 69.109375 
Q 53.90625 64.015625 53.90625 55.328125 
Q 53.90625 49.265625 50.4375 45.09375 
Q 46.96875 40.921875 40.578125 39.3125 
z
" id="DejaVuSans-33"/>
      </defs>
      <g transform="translate(200.044283 174.342437)scale(0.1 -0.1)">
       <use xlink:href="#DejaVuSans-33"/>
       <use x="63.623047" xlink:href="#DejaVuSans-30"/>
       <use x="127.246094" xlink:href="#DejaVuSans-30"/>
      </g>
     </g>
    </g>
   </g>
   <g id="matplotlib.axis_2">
    <g id="ytick_1">
     <g id="line2d_9">
      <path clip-path="url(#p05c8804c0a)" d="M 57.6 154.755777 
L 216.32 154.755777 
" style="fill:none;stroke:#b0b0b0;stroke-linecap:square;stroke-width:0.8;"/>
     </g>
     <g id="line2d_10">
      <defs>
       <path d="M 0 0 
L -3.5 0 
" id="m3d87ae0fee" style="stroke:#000000;stroke-width:0.8;"/>
      </defs>
      <g>
       <use style="stroke:#000000;stroke-width:0.8;" x="57.6" xlink:href="#m3d87ae0fee" y="154.755777"/>
      </g>
     </g>
     <g id="text_5">
      <!-- 0.00 -->
      <defs>
       <path d="M 10.6875 12.40625 
L 21 12.40625 
L 21 0 
L 10.6875 0 
z
" id="DejaVuSans-2e"/>
      </defs>
      <g transform="translate(28.334375 158.554996)scale(0.1 -0.1)">
       <use xlink:href="#DejaVuSans-30"/>
       <use x="63.623047" xlink:href="#DejaVuSans-2e"/>
       <use x="95.410156" xlink:href="#DejaVuSans-30"/>
       <use x="159.033203" xlink:href="#DejaVuSans-30"/>
      </g>
     </g>
    </g>
    <g id="ytick_2">
     <g id="line2d_11">
      <path clip-path="url(#p05c8804c0a)" d="M 57.6 127.681889 
L 216.32 127.681889 
" style="fill:none;stroke:#b0b0b0;stroke-linecap:square;stroke-width:0.8;"/>
     </g>
     <g id="line2d_12">
      <g>
       <use style="stroke:#000000;stroke-width:0.8;" x="57.6" xlink:href="#m3d87ae0fee" y="127.681889"/>
      </g>
     </g>
     <g id="text_6">
      <!-- 0.25 -->
      <defs>
       <path d="M 10.796875 72.90625 
L 49.515625 72.90625 
L 49.515625 64.59375 
L 19.828125 64.59375 
L 19.828125 46.734375 
Q 21.96875 47.46875 24.109375 47.828125 
Q 26.265625 48.1875 28.421875 48.1875 
Q 40.625 48.1875 47.75 41.5 
Q 54.890625 34.8125 54.890625 23.390625 
Q 54.890625 11.625 47.5625 5.09375 
Q 40.234375 -1.421875 26.90625 -1.421875 
Q 22.3125 -1.421875 17.546875 -0.640625 
Q 12.796875 0.140625 7.71875 1.703125 
L 7.71875 11.625 
Q 12.109375 9.234375 16.796875 8.0625 
Q 21.484375 6.890625 26.703125 6.890625 
Q 35.15625 6.890625 40.078125 11.328125 
Q 45.015625 15.765625 45.015625 23.390625 
Q 45.015625 31 40.078125 35.4375 
Q 35.15625 39.890625 26.703125 39.890625 
Q 22.75 39.890625 18.8125 39.015625 
Q 14.890625 38.140625 10.796875 36.28125 
z
" id="DejaVuSans-35"/>
      </defs>
      <g transform="translate(28.334375 131.481107)scale(0.1 -0.1)">
       <use xlink:href="#DejaVuSans-30"/>
       <use x="63.623047" xlink:href="#DejaVuSans-2e"/>
       <use x="95.410156" xlink:href="#DejaVuSans-32"/>
       <use x="159.033203" xlink:href="#DejaVuSans-35"/>
      </g>
     </g>
    </g>
    <g id="ytick_3">
     <g id="line2d_13">
      <path clip-path="url(#p05c8804c0a)" d="M 57.6 100.608 
L 216.32 100.608 
" style="fill:none;stroke:#b0b0b0;stroke-linecap:square;stroke-width:0.8;"/>
     </g>
     <g id="line2d_14">
      <g>
       <use style="stroke:#000000;stroke-width:0.8;" x="57.6" xlink:href="#m3d87ae0fee" y="100.608"/>
      </g>
     </g>
     <g id="text_7">
      <!-- 0.50 -->
      <g transform="translate(28.334375 104.407219)scale(0.1 -0.1)">
       <use xlink:href="#DejaVuSans-30"/>
       <use x="63.623047" xlink:href="#DejaVuSans-2e"/>
       <use x="95.410156" xlink:href="#DejaVuSans-35"/>
       <use x="159.033203" xlink:href="#DejaVuSans-30"/>
      </g>
     </g>
    </g>
    <g id="ytick_4">
     <g id="line2d_15">
      <path clip-path="url(#p05c8804c0a)" d="M 57.6 73.534111 
L 216.32 73.534111 
" style="fill:none;stroke:#b0b0b0;stroke-linecap:square;stroke-width:0.8;"/>
     </g>
     <g id="line2d_16">
      <g>
       <use style="stroke:#000000;stroke-width:0.8;" x="57.6" xlink:href="#m3d87ae0fee" y="73.534111"/>
      </g>
     </g>
     <g id="text_8">
      <!-- 0.75 -->
      <defs>
       <path d="M 8.203125 72.90625 
L 55.078125 72.90625 
L 55.078125 68.703125 
L 28.609375 0 
L 18.3125 0 
L 43.21875 64.59375 
L 8.203125 64.59375 
z
" id="DejaVuSans-37"/>
      </defs>
      <g transform="translate(28.334375 77.33333)scale(0.1 -0.1)">
       <use xlink:href="#DejaVuSans-30"/>
       <use x="63.623047" xlink:href="#DejaVuSans-2e"/>
       <use x="95.410156" xlink:href="#DejaVuSans-37"/>
       <use x="159.033203" xlink:href="#DejaVuSans-35"/>
      </g>
     </g>
    </g>
    <g id="ytick_5">
     <g id="line2d_17">
      <path clip-path="url(#p05c8804c0a)" d="M 57.6 46.460223 
L 216.32 46.460223 
" style="fill:none;stroke:#b0b0b0;stroke-linecap:square;stroke-width:0.8;"/>
     </g>
     <g id="line2d_18">
      <g>
       <use style="stroke:#000000;stroke-width:0.8;" x="57.6" xlink:href="#m3d87ae0fee" y="46.460223"/>
      </g>
     </g>
     <g id="text_9">
      <!-- 1.00 -->
      <g transform="translate(28.334375 50.259442)scale(0.1 -0.1)">
       <use xlink:href="#DejaVuSans-31"/>
       <use x="63.623047" xlink:href="#DejaVuSans-2e"/>
       <use x="95.410156" xlink:href="#DejaVuSans-30"/>
       <use x="159.033203" xlink:href="#DejaVuSans-30"/>
      </g>
     </g>
    </g>
   </g>
   <g id="line2d_19">
    <path clip-path="url(#p05c8804c0a)" d="M 64.814545 154.368 
L 65.297124 154.191738 
L 65.779702 153.063659 
L 66.26228 149.996695 
L 67.227437 141.923882 
L 67.710015 135.966216 
L 68.675172 128.245927 
L 69.15775 121.26594 
L 70.122907 116.013324 
L 70.605485 110.302425 
L 71.088063 108.610307 
L 72.535798 98.951133 
L 73.018376 97.012248 
L 73.500955 94.121546 
L 73.983533 92.781953 
L 74.466111 90.561048 
L 74.94869 88.939434 
L 75.431268 88.657415 
L 75.913846 85.237926 
L 76.396424 85.273178 
L 76.879003 82.241468 
L 77.361581 81.324903 
L 77.844159 79.597533 
L 78.326738 80.12632 
L 78.809316 77.447133 
L 79.774472 75.437743 
L 80.257051 75.261481 
L 80.739629 73.710372 
L 81.222207 74.203907 
L 81.704786 70.960681 
L 82.187364 70.890176 
L 82.669942 70.608156 
L 83.152521 69.092301 
L 83.635099 68.739776 
L 84.600255 67.752708 
L 85.082834 66.131094 
L 85.565412 66.166347 
L 86.04799 64.897259 
L 86.530569 64.051199 
L 87.013147 64.297966 
L 87.495725 63.099383 
L 87.978303 62.570596 
L 88.460882 62.288577 
L 88.94346 62.782111 
L 89.426038 61.61878 
L 89.908617 61.75979 
L 90.391195 61.019489 
L 90.873773 60.525954 
L 91.356351 59.397876 
L 91.83893 59.785653 
L 92.321508 59.89141 
L 92.804086 59.292118 
L 93.286665 58.269797 
L 93.769243 58.234545 
L 94.251821 57.987778 
L 94.7344 58.622322 
L 95.216978 57.45899 
L 95.699556 56.824446 
L 96.182134 56.542427 
L 96.664713 55.555358 
L 97.147291 55.449601 
L 97.629869 54.744551 
L 98.112448 54.850309 
L 98.595026 55.484853 
L 99.077604 54.674047 
L 99.560182 55.449601 
L 100.042761 54.497784 
L 100.525339 54.039502 
L 101.007917 54.709299 
L 101.490496 54.251017 
L 101.973074 54.356774 
L 102.455652 53.158191 
L 102.93823 53.510715 
L 103.420809 53.158191 
L 103.903387 53.58122 
L 104.385965 52.558899 
L 104.868544 53.158191 
L 105.351122 52.312132 
L 105.8337 52.523647 
L 106.316279 51.99486 
L 106.798857 52.735161 
L 107.281435 52.171122 
L 108.246592 52.100617 
L 108.72917 51.748092 
L 109.694327 51.85385 
L 110.659483 51.607083 
L 111.62464 51.078296 
L 112.107218 51.395568 
L 112.589796 50.937286 
L 113.072375 50.866781 
L 113.554953 50.584761 
L 114.037531 50.902033 
L 115.002688 51.007791 
L 115.967844 50.514256 
L 116.450423 49.84446 
L 116.933001 50.443752 
L 117.415579 49.668197 
L 117.898157 50.373246 
L 118.380736 50.479004 
L 118.863314 49.914964 
L 119.345892 50.373246 
L 120.311049 49.738702 
L 121.276206 49.879712 
L 121.758784 49.773955 
L 122.241362 50.302742 
L 123.689097 49.456682 
L 124.171675 49.527187 
L 124.654254 50.126479 
L 125.136832 49.84446 
L 125.61941 48.963148 
L 126.101988 49.104158 
L 126.584567 49.809207 
L 127.067145 49.56244 
L 127.549723 49.13941 
L 128.032302 49.245168 
L 128.51488 48.786886 
L 128.997458 49.174663 
L 129.480036 48.963148 
L 129.962615 49.28042 
L 130.445193 48.9984 
L 130.927771 48.575371 
L 132.375506 48.963148 
L 132.858085 48.434361 
L 133.340663 50.055974 
L 133.823241 48.258099 
L 134.305819 48.927895 
L 134.788398 49.104158 
L 135.270976 48.716381 
L 135.753554 48.610623 
L 136.236133 48.328604 
L 136.718711 48.681128 
L 137.201289 48.328603 
L 137.683867 48.786886 
L 138.166446 48.892643 
L 138.649024 48.222846 
L 139.131602 48.540118 
L 140.096759 48.258099 
L 140.579337 48.504866 
L 141.061915 48.363856 
L 141.544494 48.046584 
L 142.027072 48.610623 
L 142.50965 48.081836 
L 143.474807 48.328604 
L 143.957385 47.905574 
L 144.439964 47.905574 
L 144.922542 48.152341 
L 145.40512 48.187594 
L 145.887698 47.870322 
L 146.370277 47.940826 
L 146.852855 48.258099 
L 147.335433 48.187594 
L 147.818012 48.293351 
L 148.30059 48.222846 
L 148.783168 47.976079 
L 149.748325 48.469613 
L 150.230903 47.447292 
L 150.713481 47.799817 
L 151.19606 48.469613 
L 151.678638 48.011331 
L 152.161216 48.187594 
L 152.643794 48.011331 
L 153.126373 48.081836 
L 153.608951 47.905574 
L 154.091529 48.434361 
L 154.574108 47.835069 
L 155.056686 47.940826 
L 155.539264 47.482544 
L 156.021843 48.011331 
L 156.504421 47.694059 
L 156.986999 47.517797 
L 157.469577 47.694059 
L 157.952156 47.694059 
L 158.434734 48.046584 
L 158.917312 47.729312 
L 159.399891 47.976079 
L 159.882469 47.729312 
L 160.365047 47.905574 
L 161.330204 47.729312 
L 161.812782 47.870321 
L 162.777939 47.729312 
L 163.260517 47.940826 
L 164.225673 47.517797 
L 164.708252 47.658807 
L 165.673408 47.341535 
L 166.155987 47.940826 
L 166.638565 47.447292 
L 167.603721 47.623554 
L 168.0863 47.940826 
L 168.568878 47.517797 
L 169.051456 47.306282 
L 169.534035 47.658807 
L 170.016613 47.447292 
L 170.499191 47.694059 
L 170.98177 47.517797 
L 172.429504 47.799817 
L 172.912083 47.588302 
L 173.394661 47.658807 
L 173.877239 47.447292 
L 174.359818 47.447292 
L 174.842396 47.870322 
L 175.324974 47.658807 
L 176.772709 47.482544 
L 177.255287 47.729312 
L 177.737866 47.482544 
L 178.220444 47.764564 
L 178.703022 47.517797 
L 179.1856 47.623554 
L 179.668179 48.081836 
L 180.150757 47.341535 
L 181.115914 47.553049 
L 181.598492 47.376787 
L 182.08107 47.870322 
L 182.563649 47.27103 
L 183.046227 47.729312 
L 183.528805 47.553049 
L 184.011383 47.623554 
L 184.493962 47.517797 
L 184.97654 47.623554 
L 185.459118 47.412039 
L 185.941697 47.447292 
L 186.424275 47.341535 
L 187.389431 47.376787 
L 187.87201 47.165272 
L 188.354588 47.27103 
L 188.837166 47.517797 
L 189.319745 47.13002 
L 189.802323 47.623554 
L 190.284901 47.658807 
L 190.767479 47.306282 
L 191.250058 47.553049 
L 191.732636 47.447292 
L 192.215214 47.024262 
L 192.697793 47.553049 
L 193.180371 47.447292 
L 193.662949 47.588302 
L 194.145528 47.094767 
L 195.593262 47.482544 
L 196.075841 47.412039 
L 197.040997 47.447292 
L 197.523576 47.094767 
L 198.006154 47.376787 
L 198.97131 47.376787 
L 199.453889 47.517797 
L 199.936467 47.200525 
L 200.419045 47.447292 
L 200.901624 47.13002 
L 201.384202 46.953757 
L 201.86678 47.376787 
L 202.349358 47.376787 
L 202.831937 47.094767 
L 203.797093 47.341535 
L 204.279672 47.200525 
L 204.76225 46.848 
L 205.244828 47.200525 
L 206.209985 47.200525 
L 206.692563 46.98901 
L 207.175141 47.27103 
L 207.65772 47.165272 
L 208.140298 46.918505 
L 209.105455 47.376787 
L 209.105455 47.376787 
" style="fill:none;stroke:#1f77b4;stroke-linecap:square;stroke-width:1.5;"/>
   </g>
   <g id="patch_3">
    <path d="M 57.6 159.744 
L 57.6 41.472 
" style="fill:none;stroke:#000000;stroke-linecap:square;stroke-linejoin:miter;stroke-width:0.8;"/>
   </g>
   <g id="patch_4">
    <path d="M 216.32 159.744 
L 216.32 41.472 
" style="fill:none;stroke:#000000;stroke-linecap:square;stroke-linejoin:miter;stroke-width:0.8;"/>
   </g>
   <g id="patch_5">
    <path d="M 57.6 159.744 
L 216.32 159.744 
" style="fill:none;stroke:#000000;stroke-linecap:square;stroke-linejoin:miter;stroke-width:0.8;"/>
   </g>
   <g id="patch_6">
    <path d="M 57.6 41.472 
L 216.32 41.472 
" style="fill:none;stroke:#000000;stroke-linecap:square;stroke-linejoin:miter;stroke-width:0.8;"/>
   </g>
   <g id="text_10">
    <!-- acc -->
    <defs>
     <path d="M 34.28125 27.484375 
Q 23.390625 27.484375 19.1875 25 
Q 14.984375 22.515625 14.984375 16.5 
Q 14.984375 11.71875 18.140625 8.90625 
Q 21.296875 6.109375 26.703125 6.109375 
Q 34.1875 6.109375 38.703125 11.40625 
Q 43.21875 16.703125 43.21875 25.484375 
L 43.21875 27.484375 
z
M 52.203125 31.203125 
L 52.203125 0 
L 43.21875 0 
L 43.21875 8.296875 
Q 40.140625 3.328125 35.546875 0.953125 
Q 30.953125 -1.421875 24.3125 -1.421875 
Q 15.921875 -1.421875 10.953125 3.296875 
Q 6 8.015625 6 15.921875 
Q 6 25.140625 12.171875 29.828125 
Q 18.359375 34.515625 30.609375 34.515625 
L 43.21875 34.515625 
L 43.21875 35.40625 
Q 43.21875 41.609375 39.140625 45 
Q 35.0625 48.390625 27.6875 48.390625 
Q 23 48.390625 18.546875 47.265625 
Q 14.109375 46.140625 10.015625 43.890625 
L 10.015625 52.203125 
Q 14.9375 54.109375 19.578125 55.046875 
Q 24.21875 56 28.609375 56 
Q 40.484375 56 46.34375 49.84375 
Q 52.203125 43.703125 52.203125 31.203125 
z
" id="DejaVuSans-61"/>
     <path d="M 48.78125 52.59375 
L 48.78125 44.1875 
Q 44.96875 46.296875 41.140625 47.34375 
Q 37.3125 48.390625 33.40625 48.390625 
Q 24.65625 48.390625 19.8125 42.84375 
Q 14.984375 37.3125 14.984375 27.296875 
Q 14.984375 17.28125 19.8125 11.734375 
Q 24.65625 6.203125 33.40625 6.203125 
Q 37.3125 6.203125 41.140625 7.25 
Q 44.96875 8.296875 48.78125 10.40625 
L 48.78125 2.09375 
Q 45.015625 0.34375 40.984375 -0.53125 
Q 36.96875 -1.421875 32.421875 -1.421875 
Q 20.0625 -1.421875 12.78125 6.34375 
Q 5.515625 14.109375 5.515625 27.296875 
Q 5.515625 40.671875 12.859375 48.328125 
Q 20.21875 56 33.015625 56 
Q 37.15625 56 41.109375 55.140625 
Q 45.0625 54.296875 48.78125 52.59375 
z
" id="DejaVuSans-63"/>
    </defs>
    <g transform="translate(126.685 35.472)scale(0.12 -0.12)">
     <use xlink:href="#DejaVuSans-61"/>
     <use x="61.279297" xlink:href="#DejaVuSans-63"/>
     <use x="116.259766" xlink:href="#DejaVuSans-63"/>
    </g>
   </g>
  </g>
  <g id="axes_2">
   <g id="patch_7">
    <path d="M 256 159.744 
L 414.72 159.744 
L 414.72 41.472 
L 256 41.472 
z
" style="fill:#ffffff;"/>
   </g>
   <g id="matplotlib.axis_3">
    <g id="xtick_5">
     <g id="line2d_20">
      <path clip-path="url(#p5d242efae0)" d="M 263.214545 159.744 
L 263.214545 41.472 
" style="fill:none;stroke:#b0b0b0;stroke-linecap:square;stroke-width:0.8;"/>
     </g>
     <g id="line2d_21">
      <g>
       <use style="stroke:#000000;stroke-width:0.8;" x="263.214545" xlink:href="#m9db88e9e5a" y="159.744"/>
      </g>
     </g>
     <g id="text_11">
      <!-- 0 -->
      <g transform="translate(260.033295 174.342437)scale(0.1 -0.1)">
       <use xlink:href="#DejaVuSans-30"/>
      </g>
     </g>
    </g>
    <g id="xtick_6">
     <g id="line2d_22">
      <path clip-path="url(#p5d242efae0)" d="M 311.472375 159.744 
L 311.472375 41.472 
" style="fill:none;stroke:#b0b0b0;stroke-linecap:square;stroke-width:0.8;"/>
     </g>
     <g id="line2d_23">
      <g>
       <use style="stroke:#000000;stroke-width:0.8;" x="311.472375" xlink:href="#m9db88e9e5a" y="159.744"/>
      </g>
     </g>
     <g id="text_12">
      <!-- 100 -->
      <g transform="translate(301.928625 174.342437)scale(0.1 -0.1)">
       <use xlink:href="#DejaVuSans-31"/>
       <use x="63.623047" xlink:href="#DejaVuSans-30"/>
       <use x="127.246094" xlink:href="#DejaVuSans-30"/>
      </g>
     </g>
    </g>
    <g id="xtick_7">
     <g id="line2d_24">
      <path clip-path="url(#p5d242efae0)" d="M 359.730204 159.744 
L 359.730204 41.472 
" style="fill:none;stroke:#b0b0b0;stroke-linecap:square;stroke-width:0.8;"/>
     </g>
     <g id="line2d_25">
      <g>
       <use style="stroke:#000000;stroke-width:0.8;" x="359.730204" xlink:href="#m9db88e9e5a" y="159.744"/>
      </g>
     </g>
     <g id="text_13">
      <!-- 200 -->
      <g transform="translate(350.186454 174.342437)scale(0.1 -0.1)">
       <use xlink:href="#DejaVuSans-32"/>
       <use x="63.623047" xlink:href="#DejaVuSans-30"/>
       <use x="127.246094" xlink:href="#DejaVuSans-30"/>
      </g>
     </g>
    </g>
    <g id="xtick_8">
     <g id="line2d_26">
      <path clip-path="url(#p5d242efae0)" d="M 407.988033 159.744 
L 407.988033 41.472 
" style="fill:none;stroke:#b0b0b0;stroke-linecap:square;stroke-width:0.8;"/>
     </g>
     <g id="line2d_27">
      <g>
       <use style="stroke:#000000;stroke-width:0.8;" x="407.988033" xlink:href="#m9db88e9e5a" y="159.744"/>
      </g>
     </g>
     <g id="text_14">
      <!-- 300 -->
      <g transform="translate(398.444283 174.342437)scale(0.1 -0.1)">
       <use xlink:href="#DejaVuSans-33"/>
       <use x="63.623047" xlink:href="#DejaVuSans-30"/>
       <use x="127.246094" xlink:href="#DejaVuSans-30"/>
      </g>
     </g>
    </g>
   </g>
   <g id="matplotlib.axis_4">
    <g id="ytick_6">
     <g id="line2d_28">
      <path clip-path="url(#p5d242efae0)" d="M 256 154.734621 
L 414.72 154.734621 
" style="fill:none;stroke:#b0b0b0;stroke-linecap:square;stroke-width:0.8;"/>
     </g>
     <g id="line2d_29">
      <g>
       <use style="stroke:#000000;stroke-width:0.8;" x="256" xlink:href="#m3d87ae0fee" y="154.734621"/>
      </g>
     </g>
     <g id="text_15">
      <!-- 0 -->
      <g transform="translate(242.6375 158.53384)scale(0.1 -0.1)">
       <use xlink:href="#DejaVuSans-30"/>
      </g>
     </g>
    </g>
    <g id="ytick_7">
     <g id="line2d_30">
      <path clip-path="url(#p5d242efae0)" d="M 256 115.831233 
L 414.72 115.831233 
" style="fill:none;stroke:#b0b0b0;stroke-linecap:square;stroke-width:0.8;"/>
     </g>
     <g id="line2d_31">
      <g>
       <use style="stroke:#000000;stroke-width:0.8;" x="256" xlink:href="#m3d87ae0fee" y="115.831233"/>
      </g>
     </g>
     <g id="text_16">
      <!-- 2 -->
      <g transform="translate(242.6375 119.630452)scale(0.1 -0.1)">
       <use xlink:href="#DejaVuSans-32"/>
      </g>
     </g>
    </g>
    <g id="ytick_8">
     <g id="line2d_32">
      <path clip-path="url(#p5d242efae0)" d="M 256 76.927845 
L 414.72 76.927845 
" style="fill:none;stroke:#b0b0b0;stroke-linecap:square;stroke-width:0.8;"/>
     </g>
     <g id="line2d_33">
      <g>
       <use style="stroke:#000000;stroke-width:0.8;" x="256" xlink:href="#m3d87ae0fee" y="76.927845"/>
      </g>
     </g>
     <g id="text_17">
      <!-- 4 -->
      <defs>
       <path d="M 37.796875 64.3125 
L 12.890625 25.390625 
L 37.796875 25.390625 
z
M 35.203125 72.90625 
L 47.609375 72.90625 
L 47.609375 25.390625 
L 58.015625 25.390625 
L 58.015625 17.1875 
L 47.609375 17.1875 
L 47.609375 0 
L 37.796875 0 
L 37.796875 17.1875 
L 4.890625 17.1875 
L 4.890625 26.703125 
z
" id="DejaVuSans-34"/>
      </defs>
      <g transform="translate(242.6375 80.727064)scale(0.1 -0.1)">
       <use xlink:href="#DejaVuSans-34"/>
      </g>
     </g>
    </g>
   </g>
   <g id="line2d_34">
    <path clip-path="url(#p5d242efae0)" d="M 263.214545 46.848 
L 263.697124 50.115581 
L 264.66228 69.901953 
L 265.627437 87.747127 
L 266.592593 99.388595 
L 268.040328 110.308363 
L 269.005485 115.870951 
L 269.970642 119.991461 
L 272.383533 128.15381 
L 273.34869 130.37463 
L 273.831268 131.032201 
L 274.313846 132.564731 
L 274.796424 133.145816 
L 275.761581 135.219659 
L 276.726738 136.191538 
L 278.174472 138.410471 
L 278.657051 138.804404 
L 279.139629 139.516122 
L 279.622207 139.624124 
L 280.587364 141.26152 
L 281.069942 141.253809 
L 281.552521 142.242956 
L 282.035099 142.419294 
L 282.517677 142.941772 
L 283.000255 143.072341 
L 283.482834 143.701005 
L 283.965412 143.888244 
L 284.44799 144.404233 
L 285.895725 145.202533 
L 286.378303 145.619936 
L 286.860882 145.392315 
L 287.826038 146.345345 
L 288.308617 146.530339 
L 288.791195 146.876504 
L 289.273773 146.872647 
L 289.756351 147.249963 
L 290.23893 147.390061 
L 290.721508 147.674524 
L 291.204086 147.768818 
L 291.686665 148.212206 
L 292.169243 148.436528 
L 293.1344 148.412334 
L 293.616978 148.847583 
L 294.582134 148.951217 
L 295.064713 149.536273 
L 296.995026 149.819458 
L 297.477604 150.084737 
L 297.960182 149.809641 
L 298.442761 150.012157 
L 298.925339 150.338707 
L 299.407917 150.310327 
L 299.890496 150.416975 
L 300.373074 150.374865 
L 300.855652 150.855377 
L 301.33823 150.740342 
L 301.820809 151.162678 
L 302.303387 151.089278 
L 302.785965 151.232084 
L 303.268544 151.222492 
L 303.751122 151.451123 
L 304.2337 151.296578 
L 304.716279 151.500212 
L 305.198857 151.328394 
L 305.681435 151.474891 
L 306.646592 151.442177 
L 307.12917 151.467961 
L 307.611748 151.791738 
L 308.094327 151.745851 
L 308.576905 152.040938 
L 309.542061 152.031857 
L 310.02464 151.859072 
L 310.507218 151.97893 
L 310.989796 152.282405 
L 311.954953 152.406813 
L 312.920109 152.219526 
L 313.402688 152.474732 
L 313.885266 152.440533 
L 314.850423 152.756144 
L 315.333001 152.589181 
L 315.815579 152.78835 
L 316.780736 152.506666 
L 317.263314 152.768877 
L 317.745892 152.588518 
L 318.228471 152.631273 
L 318.711049 153.005744 
L 319.193627 152.994576 
L 319.676206 152.786828 
L 320.158784 152.976967 
L 320.641362 152.72147 
L 321.12394 152.904416 
L 321.606519 152.726111 
L 322.089097 153.097365 
L 322.571675 152.869601 
L 323.054254 152.475948 
L 323.536832 152.928148 
L 324.501988 153.220326 
L 324.984567 152.960662 
L 325.949723 153.318621 
L 326.432302 152.968624 
L 326.91488 153.164477 
L 327.397458 153.071571 
L 327.880036 153.294531 
L 328.362615 153.114614 
L 328.845193 153.19819 
L 329.327771 153.445438 
L 329.81035 153.471889 
L 330.775506 153.272814 
L 331.258085 153.474036 
L 331.740663 152.981982 
L 332.223241 153.68162 
L 332.705819 153.172472 
L 333.188398 153.164218 
L 333.670976 153.452241 
L 334.153554 153.335599 
L 334.636133 153.474116 
L 336.566446 153.346857 
L 337.049024 153.520271 
L 338.979337 153.588792 
L 339.944494 153.734221 
L 340.427072 153.494801 
L 340.90965 153.727171 
L 341.392229 153.627002 
L 341.874807 153.779823 
L 342.357385 153.501304 
L 342.839964 153.711796 
L 343.322542 153.642021 
L 343.80512 153.878336 
L 345.252855 153.566336 
L 345.735433 153.711865 
L 346.70059 153.656997 
L 347.183168 153.465185 
L 347.665746 153.799375 
L 348.148325 153.500923 
L 348.630903 154.021377 
L 349.113481 153.67968 
L 349.59606 153.560974 
L 350.078638 153.849537 
L 350.561216 153.60639 
L 351.043794 153.816717 
L 351.526373 153.566655 
L 352.008951 153.923763 
L 352.491529 153.484784 
L 352.974108 153.92478 
L 353.456686 153.782662 
L 355.386999 153.915401 
L 355.869577 153.517991 
L 356.352156 153.888806 
L 356.834734 153.772223 
L 357.799891 153.924376 
L 358.282469 153.758634 
L 358.765047 153.904516 
L 364.073408 154.01165 
L 364.555987 153.571524 
L 365.038565 153.900139 
L 366.003721 153.875259 
L 366.4863 153.772714 
L 366.968878 154.036735 
L 367.451456 154.051617 
L 367.934035 153.88097 
L 368.416613 153.969851 
L 368.899191 153.715119 
L 369.38177 154.130955 
L 369.864348 153.839973 
L 370.346926 153.879645 
L 370.829504 153.742587 
L 371.312083 154.024142 
L 372.277239 154.022374 
L 372.759818 153.985504 
L 373.242396 153.8098 
L 373.724974 153.993904 
L 374.690131 153.890087 
L 375.172709 154.122746 
L 375.655287 153.956999 
L 376.137866 153.99698 
L 378.068179 153.559953 
L 378.550757 154.08452 
L 379.998492 153.871663 
L 380.48107 153.861177 
L 380.963649 154.14255 
L 381.446227 153.917283 
L 381.928805 154.046357 
L 383.37654 154.017927 
L 385.789431 153.963279 
L 386.27201 154.298106 
L 386.754588 153.969834 
L 387.237166 154.046045 
L 387.719745 154.245962 
L 388.202323 153.829899 
L 388.684901 154.004104 
L 389.167479 154.058607 
L 389.650058 153.886956 
L 390.615214 154.102764 
L 391.097793 153.778581 
L 391.580371 154.047327 
L 392.062949 153.738311 
L 392.545528 154.157688 
L 395.440997 153.953731 
L 395.923576 154.226514 
L 396.406154 154.138642 
L 396.888732 153.857439 
L 398.336467 153.991685 
L 398.819045 153.846762 
L 399.301624 154.170728 
L 399.784202 154.258595 
L 400.26678 154.02653 
L 401.231937 154.246152 
L 401.714515 153.936348 
L 402.679672 154.094829 
L 403.16225 154.248999 
L 404.127407 154.118682 
L 404.609985 153.71957 
L 405.092563 154.280297 
L 406.05772 154.253304 
L 406.540298 154.368 
L 407.022876 153.997833 
L 407.505455 153.988619 
L 407.505455 153.988619 
" style="fill:none;stroke:#1f77b4;stroke-linecap:square;stroke-width:1.5;"/>
   </g>
   <g id="patch_8">
    <path d="M 256 159.744 
L 256 41.472 
" style="fill:none;stroke:#000000;stroke-linecap:square;stroke-linejoin:miter;stroke-width:0.8;"/>
   </g>
   <g id="patch_9">
    <path d="M 414.72 159.744 
L 414.72 41.472 
" style="fill:none;stroke:#000000;stroke-linecap:square;stroke-linejoin:miter;stroke-width:0.8;"/>
   </g>
   <g id="patch_10">
    <path d="M 256 159.744 
L 414.72 159.744 
" style="fill:none;stroke:#000000;stroke-linecap:square;stroke-linejoin:miter;stroke-width:0.8;"/>
   </g>
   <g id="patch_11">
    <path d="M 256 41.472 
L 414.72 41.472 
" style="fill:none;stroke:#000000;stroke-linecap:square;stroke-linejoin:miter;stroke-width:0.8;"/>
   </g>
   <g id="text_18">
    <!-- loss -->
    <defs>
     <path d="M 9.421875 75.984375 
L 18.40625 75.984375 
L 18.40625 0 
L 9.421875 0 
z
" id="DejaVuSans-6c"/>
     <path d="M 30.609375 48.390625 
Q 23.390625 48.390625 19.1875 42.75 
Q 14.984375 37.109375 14.984375 27.296875 
Q 14.984375 17.484375 19.15625 11.84375 
Q 23.34375 6.203125 30.609375 6.203125 
Q 37.796875 6.203125 41.984375 11.859375 
Q 46.1875 17.53125 46.1875 27.296875 
Q 46.1875 37.015625 41.984375 42.703125 
Q 37.796875 48.390625 30.609375 48.390625 
z
M 30.609375 56 
Q 42.328125 56 49.015625 48.375 
Q 55.71875 40.765625 55.71875 27.296875 
Q 55.71875 13.875 49.015625 6.21875 
Q 42.328125 -1.421875 30.609375 -1.421875 
Q 18.84375 -1.421875 12.171875 6.21875 
Q 5.515625 13.875 5.515625 27.296875 
Q 5.515625 40.765625 12.171875 48.375 
Q 18.84375 56 30.609375 56 
z
" id="DejaVuSans-6f"/>
     <path d="M 44.28125 53.078125 
L 44.28125 44.578125 
Q 40.484375 46.53125 36.375 47.5 
Q 32.28125 48.484375 27.875 48.484375 
Q 21.1875 48.484375 17.84375 46.4375 
Q 14.5 44.390625 14.5 40.28125 
Q 14.5 37.15625 16.890625 35.375 
Q 19.28125 33.59375 26.515625 31.984375 
L 29.59375 31.296875 
Q 39.15625 29.25 43.1875 25.515625 
Q 47.21875 21.78125 47.21875 15.09375 
Q 47.21875 7.46875 41.1875 3.015625 
Q 35.15625 -1.421875 24.609375 -1.421875 
Q 20.21875 -1.421875 15.453125 -0.5625 
Q 10.6875 0.296875 5.421875 2 
L 5.421875 11.28125 
Q 10.40625 8.6875 15.234375 7.390625 
Q 20.0625 6.109375 24.8125 6.109375 
Q 31.15625 6.109375 34.5625 8.28125 
Q 37.984375 10.453125 37.984375 14.40625 
Q 37.984375 18.0625 35.515625 20.015625 
Q 33.0625 21.96875 24.703125 23.78125 
L 21.578125 24.515625 
Q 13.234375 26.265625 9.515625 29.90625 
Q 5.8125 33.546875 5.8125 39.890625 
Q 5.8125 47.609375 11.28125 51.796875 
Q 16.75 56 26.8125 56 
Q 31.78125 56 36.171875 55.265625 
Q 40.578125 54.546875 44.28125 53.078125 
z
" id="DejaVuSans-73"/>
    </defs>
    <g transform="translate(323.770625 35.472)scale(0.12 -0.12)">
     <use xlink:href="#DejaVuSans-6c"/>
     <use x="27.783203" xlink:href="#DejaVuSans-6f"/>
     <use x="88.964844" xlink:href="#DejaVuSans-73"/>
     <use x="141.064453" xlink:href="#DejaVuSans-73"/>
    </g>
   </g>
  </g>
  <g id="axes_3">
   <g id="patch_12">
    <path d="M 57.6 307.584 
L 216.32 307.584 
L 216.32 189.312 
L 57.6 189.312 
z
" style="fill:#ffffff;"/>
   </g>
   <g id="matplotlib.axis_5">
    <g id="xtick_9">
     <g id="line2d_35">
      <path clip-path="url(#p9eda7f71ea)" d="M 64.814545 307.584 
L 64.814545 189.312 
" style="fill:none;stroke:#b0b0b0;stroke-linecap:square;stroke-width:0.8;"/>
     </g>
     <g id="line2d_36">
      <g>
       <use style="stroke:#000000;stroke-width:0.8;" x="64.814545" xlink:href="#m9db88e9e5a" y="307.584"/>
      </g>
     </g>
     <g id="text_19">
      <!-- 0 -->
      <g transform="translate(61.633295 322.182437)scale(0.1 -0.1)">
       <use xlink:href="#DejaVuSans-30"/>
      </g>
     </g>
    </g>
    <g id="xtick_10">
     <g id="line2d_37">
      <path clip-path="url(#p9eda7f71ea)" d="M 113.072375 307.584 
L 113.072375 189.312 
" style="fill:none;stroke:#b0b0b0;stroke-linecap:square;stroke-width:0.8;"/>
     </g>
     <g id="line2d_38">
      <g>
       <use style="stroke:#000000;stroke-width:0.8;" x="113.072375" xlink:href="#m9db88e9e5a" y="307.584"/>
      </g>
     </g>
     <g id="text_20">
      <!-- 100 -->
      <g transform="translate(103.528625 322.182437)scale(0.1 -0.1)">
       <use xlink:href="#DejaVuSans-31"/>
       <use x="63.623047" xlink:href="#DejaVuSans-30"/>
       <use x="127.246094" xlink:href="#DejaVuSans-30"/>
      </g>
     </g>
    </g>
    <g id="xtick_11">
     <g id="line2d_39">
      <path clip-path="url(#p9eda7f71ea)" d="M 161.330204 307.584 
L 161.330204 189.312 
" style="fill:none;stroke:#b0b0b0;stroke-linecap:square;stroke-width:0.8;"/>
     </g>
     <g id="line2d_40">
      <g>
       <use style="stroke:#000000;stroke-width:0.8;" x="161.330204" xlink:href="#m9db88e9e5a" y="307.584"/>
      </g>
     </g>
     <g id="text_21">
      <!-- 200 -->
      <g transform="translate(151.786454 322.182437)scale(0.1 -0.1)">
       <use xlink:href="#DejaVuSans-32"/>
       <use x="63.623047" xlink:href="#DejaVuSans-30"/>
       <use x="127.246094" xlink:href="#DejaVuSans-30"/>
      </g>
     </g>
    </g>
    <g id="xtick_12">
     <g id="line2d_41">
      <path clip-path="url(#p9eda7f71ea)" d="M 209.588033 307.584 
L 209.588033 189.312 
" style="fill:none;stroke:#b0b0b0;stroke-linecap:square;stroke-width:0.8;"/>
     </g>
     <g id="line2d_42">
      <g>
       <use style="stroke:#000000;stroke-width:0.8;" x="209.588033" xlink:href="#m9db88e9e5a" y="307.584"/>
      </g>
     </g>
     <g id="text_22">
      <!-- 300 -->
      <g transform="translate(200.044283 322.182437)scale(0.1 -0.1)">
       <use xlink:href="#DejaVuSans-33"/>
       <use x="63.623047" xlink:href="#DejaVuSans-30"/>
       <use x="127.246094" xlink:href="#DejaVuSans-30"/>
      </g>
     </g>
    </g>
   </g>
   <g id="matplotlib.axis_6">
    <g id="ytick_9">
     <g id="line2d_43">
      <path clip-path="url(#p9eda7f71ea)" d="M 57.6 303.089311 
L 216.32 303.089311 
" style="fill:none;stroke:#b0b0b0;stroke-linecap:square;stroke-width:0.8;"/>
     </g>
     <g id="line2d_44">
      <g>
       <use style="stroke:#000000;stroke-width:0.8;" x="57.6" xlink:href="#m3d87ae0fee" y="303.089311"/>
      </g>
     </g>
     <g id="text_23">
      <!-- 0.00 -->
      <g transform="translate(28.334375 306.88853)scale(0.1 -0.1)">
       <use xlink:href="#DejaVuSans-30"/>
       <use x="63.623047" xlink:href="#DejaVuSans-2e"/>
       <use x="95.410156" xlink:href="#DejaVuSans-30"/>
       <use x="159.033203" xlink:href="#DejaVuSans-30"/>
      </g>
     </g>
    </g>
    <g id="ytick_10">
     <g id="line2d_45">
      <path clip-path="url(#p9eda7f71ea)" d="M 57.6 274.887344 
L 216.32 274.887344 
" style="fill:none;stroke:#b0b0b0;stroke-linecap:square;stroke-width:0.8;"/>
     </g>
     <g id="line2d_46">
      <g>
       <use style="stroke:#000000;stroke-width:0.8;" x="57.6" xlink:href="#m3d87ae0fee" y="274.887344"/>
      </g>
     </g>
     <g id="text_24">
      <!-- 0.25 -->
      <g transform="translate(28.334375 278.686563)scale(0.1 -0.1)">
       <use xlink:href="#DejaVuSans-30"/>
       <use x="63.623047" xlink:href="#DejaVuSans-2e"/>
       <use x="95.410156" xlink:href="#DejaVuSans-32"/>
       <use x="159.033203" xlink:href="#DejaVuSans-35"/>
      </g>
     </g>
    </g>
    <g id="ytick_11">
     <g id="line2d_47">
      <path clip-path="url(#p9eda7f71ea)" d="M 57.6 246.685377 
L 216.32 246.685377 
" style="fill:none;stroke:#b0b0b0;stroke-linecap:square;stroke-width:0.8;"/>
     </g>
     <g id="line2d_48">
      <g>
       <use style="stroke:#000000;stroke-width:0.8;" x="57.6" xlink:href="#m3d87ae0fee" y="246.685377"/>
      </g>
     </g>
     <g id="text_25">
      <!-- 0.50 -->
      <g transform="translate(28.334375 250.484596)scale(0.1 -0.1)">
       <use xlink:href="#DejaVuSans-30"/>
       <use x="63.623047" xlink:href="#DejaVuSans-2e"/>
       <use x="95.410156" xlink:href="#DejaVuSans-35"/>
       <use x="159.033203" xlink:href="#DejaVuSans-30"/>
      </g>
     </g>
    </g>
    <g id="ytick_12">
     <g id="line2d_49">
      <path clip-path="url(#p9eda7f71ea)" d="M 57.6 218.483409 
L 216.32 218.483409 
" style="fill:none;stroke:#b0b0b0;stroke-linecap:square;stroke-width:0.8;"/>
     </g>
     <g id="line2d_50">
      <g>
       <use style="stroke:#000000;stroke-width:0.8;" x="57.6" xlink:href="#m3d87ae0fee" y="218.483409"/>
      </g>
     </g>
     <g id="text_26">
      <!-- 0.75 -->
      <g transform="translate(28.334375 222.282628)scale(0.1 -0.1)">
       <use xlink:href="#DejaVuSans-30"/>
       <use x="63.623047" xlink:href="#DejaVuSans-2e"/>
       <use x="95.410156" xlink:href="#DejaVuSans-37"/>
       <use x="159.033203" xlink:href="#DejaVuSans-35"/>
      </g>
     </g>
    </g>
    <g id="ytick_13">
     <g id="line2d_51">
      <path clip-path="url(#p9eda7f71ea)" d="M 57.6 190.281442 
L 216.32 190.281442 
" style="fill:none;stroke:#b0b0b0;stroke-linecap:square;stroke-width:0.8;"/>
     </g>
     <g id="line2d_52">
      <g>
       <use style="stroke:#000000;stroke-width:0.8;" x="57.6" xlink:href="#m3d87ae0fee" y="190.281442"/>
      </g>
     </g>
     <g id="text_27">
      <!-- 1.00 -->
      <g transform="translate(28.334375 194.080661)scale(0.1 -0.1)">
       <use xlink:href="#DejaVuSans-31"/>
       <use x="63.623047" xlink:href="#DejaVuSans-2e"/>
       <use x="95.410156" xlink:href="#DejaVuSans-30"/>
       <use x="159.033203" xlink:href="#DejaVuSans-30"/>
      </g>
     </g>
    </g>
   </g>
   <g id="line2d_53">
    <path clip-path="url(#p9eda7f71ea)" d="M 64.814545 302.208 
L 65.297124 302.208 
L 65.779702 297.801443 
L 66.26228 296.479475 
L 66.744859 290.310295 
L 67.227437 286.344393 
L 67.710015 280.175212 
L 68.192593 283.259803 
L 68.675172 273.565376 
L 69.15775 277.531278 
L 70.122907 257.701769 
L 70.605485 264.311606 
L 71.088063 253.295213 
L 71.570642 256.820458 
L 72.05322 255.057836 
L 72.535798 249.329311 
L 73.018376 246.685376 
L 73.500955 241.397507 
L 73.983533 244.482097 
L 75.431268 241.838163 
L 75.913846 239.194228 
L 76.396424 230.381112 
L 76.879003 236.550293 
L 77.361581 233.906359 
L 77.844159 228.177833 
L 78.326738 251.091933 
L 78.809316 228.177833 
L 79.291894 236.109637 
L 79.774472 222.008655 
L 80.257051 220.686688 
L 80.739629 224.652589 
L 81.222207 225.093245 
L 81.704786 217.602097 
L 82.187364 219.805376 
L 82.669942 218.924064 
L 83.152521 222.44931 
L 83.635099 219.36472 
L 84.117677 226.855866 
L 85.082834 214.958162 
L 85.565412 229.4998 
L 86.04799 219.364719 
L 86.530569 236.109637 
L 87.013147 220.686687 
L 87.495725 217.16144 
L 87.978303 214.958162 
L 88.460882 221.567998 
L 88.94346 215.398818 
L 89.426038 216.28013 
L 89.908617 210.11095 
L 90.391195 212.754883 
L 90.873773 207.467016 
L 91.356351 226.855868 
L 91.83893 214.517506 
L 92.321508 226.855867 
L 92.804086 207.026361 
L 93.286665 206.145048 
L 93.769243 210.11095 
L 94.251821 209.670293 
L 94.7344 212.754883 
L 95.216978 214.958162 
L 95.699556 212.314228 
L 96.182134 204.823082 
L 96.664713 207.02636 
L 97.629869 202.179148 
L 98.112448 207.467015 
L 98.595026 206.145049 
L 99.077604 206.585704 
L 99.560182 204.823081 
L 100.042761 204.382425 
L 100.525339 208.348327 
L 101.007917 199.975869 
L 101.490496 208.348327 
L 102.455652 203.501114 
L 102.93823 207.02636 
L 103.420809 205.704393 
L 103.903387 203.501115 
L 104.385965 210.551606 
L 104.868544 202.619803 
L 105.351122 221.567998 
L 105.8337 202.179147 
L 106.316279 203.060458 
L 106.798857 203.060459 
L 107.281435 208.348327 
L 107.764013 201.738491 
L 108.246592 202.619803 
L 108.72917 203.060459 
L 109.694327 202.179148 
L 110.176905 205.263738 
L 110.659483 203.060458 
L 111.142061 198.213247 
L 111.62464 201.297836 
L 112.107218 198.653902 
L 112.589796 200.416525 
L 113.072375 205.704392 
L 113.554953 199.094557 
L 114.037531 202.179147 
L 114.520109 203.501114 
L 115.002688 201.738492 
L 115.485266 208.788982 
L 115.967844 201.738492 
L 116.450423 200.857181 
L 116.933001 199.535213 
L 117.415579 200.416524 
L 117.898157 199.094558 
L 118.380736 203.060459 
L 118.863314 199.535213 
L 119.345892 199.535213 
L 119.828471 199.975869 
L 120.311049 198.653902 
L 120.793627 200.857181 
L 121.276206 200.857181 
L 121.758784 199.535213 
L 122.241362 202.619803 
L 122.72394 199.975869 
L 123.206519 200.416525 
L 123.689097 199.094558 
L 124.171675 215.839473 
L 124.654254 199.535213 
L 125.136832 200.85718 
L 125.61941 197.331934 
L 126.101988 203.941771 
L 126.584567 199.97587 
L 127.067145 198.653901 
L 127.549723 198.213246 
L 128.032302 200.416526 
L 128.51488 198.653903 
L 128.997458 199.094557 
L 129.480036 199.975869 
L 129.962615 199.535214 
L 130.445193 203.060459 
L 130.927771 199.094558 
L 131.41035 196.891279 
L 131.892928 198.213246 
L 132.375506 197.772591 
L 132.858085 202.179148 
L 133.340663 196.009968 
L 133.823241 199.535213 
L 134.788398 197.772591 
L 135.270976 201.738492 
L 135.753554 202.619803 
L 136.236133 198.213247 
L 136.718711 198.213246 
L 137.201289 197.77259 
L 137.683867 199.535213 
L 138.166446 200.416525 
L 138.649024 198.213246 
L 139.131602 197.331935 
L 139.614181 200.85718 
L 140.096759 196.89128 
L 140.579337 199.535214 
L 141.061915 199.975868 
L 141.544494 196.450624 
L 142.027072 199.535214 
L 142.50965 196.891279 
L 142.992229 199.975869 
L 143.474807 195.128656 
L 143.957385 204.82308 
L 144.439964 199.094558 
L 144.922542 195.569312 
L 145.40512 199.535213 
L 145.887698 196.891279 
L 146.370277 200.416524 
L 146.852855 199.535214 
L 147.335433 205.704393 
L 147.818012 197.331934 
L 148.783168 196.450623 
L 149.265746 207.907671 
L 149.748325 197.331935 
L 150.230903 196.891279 
L 150.713481 215.839474 
L 151.19606 199.535213 
L 151.678638 197.331934 
L 152.161216 198.653902 
L 152.643794 201.738491 
L 153.126373 199.094557 
L 153.608951 201.738491 
L 154.091529 197.77259 
L 154.574108 200.416524 
L 155.056686 199.094558 
L 155.539264 195.569312 
L 156.021843 197.772591 
L 156.504421 198.213247 
L 156.986999 198.213246 
L 157.469577 197.331935 
L 157.952156 197.772591 
L 158.434734 202.619803 
L 158.917312 199.975869 
L 159.399891 199.535213 
L 159.882469 197.331936 
L 160.365047 199.094558 
L 160.847625 200.416525 
L 161.330204 199.975869 
L 161.812782 198.653901 
L 162.777939 197.772591 
L 163.260517 197.772591 
L 163.743095 199.094558 
L 164.225673 197.77259 
L 164.708252 195.128656 
L 165.19083 199.094557 
L 165.673408 197.331934 
L 166.155987 197.331934 
L 166.638565 196.450623 
L 167.121143 199.094558 
L 167.603721 207.907671 
L 168.0863 197.331935 
L 168.568878 199.094558 
L 169.051456 199.535213 
L 169.534035 200.416525 
L 170.016613 196.891279 
L 170.499191 196.009968 
L 170.98177 199.094557 
L 171.464348 196.450624 
L 171.946926 198.213246 
L 172.429504 197.331934 
L 172.912083 198.213247 
L 173.394661 196.891279 
L 173.877239 201.297835 
L 174.359818 200.85718 
L 174.842396 197.77259 
L 175.324974 196.450623 
L 175.807552 197.331935 
L 176.290131 197.331935 
L 176.772709 199.094558 
L 177.255287 197.77259 
L 177.737866 199.094558 
L 178.220444 199.535213 
L 178.703022 196.891279 
L 179.1856 196.450623 
L 179.668179 196.891279 
L 180.150757 196.450623 
L 180.633335 196.891279 
L 181.115914 197.77259 
L 181.598492 196.450623 
L 182.08107 196.009967 
L 182.563649 196.450624 
L 183.046227 196.009968 
L 183.528805 197.331935 
L 184.011383 199.535214 
L 184.493962 197.772591 
L 184.97654 197.331935 
L 185.459118 196.009968 
L 185.941697 197.77259 
L 186.424275 199.094558 
L 186.906853 196.891279 
L 187.389431 197.77259 
L 187.87201 196.450623 
L 188.354588 196.891279 
L 188.837166 195.569312 
L 189.319745 196.450624 
L 189.802323 194.688 
L 190.284901 198.213247 
L 190.767479 196.891279 
L 191.250058 201.297835 
L 191.732636 197.331934 
L 192.215214 200.85718 
L 192.697793 196.891279 
L 193.180371 198.213246 
L 194.145528 199.975869 
L 194.628106 197.331935 
L 195.110684 195.569312 
L 195.593262 197.77259 
L 196.075841 198.213247 
L 196.558419 196.450623 
L 197.523576 197.331934 
L 198.488732 196.450623 
L 198.97131 198.653901 
L 199.453889 201.738491 
L 199.936467 197.331935 
L 200.901624 199.094557 
L 201.384202 198.653902 
L 201.86678 199.094558 
L 202.349358 196.009968 
L 202.831937 196.89128 
L 203.314515 199.094557 
L 203.797093 195.569312 
L 204.279672 197.331935 
L 204.76225 202.179147 
L 205.244828 196.89128 
L 205.727407 197.331935 
L 206.209985 198.653902 
L 207.175141 196.891279 
L 207.65772 197.77259 
L 208.140298 197.331935 
L 208.622876 197.77259 
L 209.105455 194.688001 
L 209.105455 194.688001 
" style="fill:none;stroke:#1f77b4;stroke-linecap:square;stroke-width:1.5;"/>
   </g>
   <g id="patch_13">
    <path d="M 57.6 307.584 
L 57.6 189.312 
" style="fill:none;stroke:#000000;stroke-linecap:square;stroke-linejoin:miter;stroke-width:0.8;"/>
   </g>
   <g id="patch_14">
    <path d="M 216.32 307.584 
L 216.32 189.312 
" style="fill:none;stroke:#000000;stroke-linecap:square;stroke-linejoin:miter;stroke-width:0.8;"/>
   </g>
   <g id="patch_15">
    <path d="M 57.6 307.584 
L 216.32 307.584 
" style="fill:none;stroke:#000000;stroke-linecap:square;stroke-linejoin:miter;stroke-width:0.8;"/>
   </g>
   <g id="patch_16">
    <path d="M 57.6 189.312 
L 216.32 189.312 
" style="fill:none;stroke:#000000;stroke-linecap:square;stroke-linejoin:miter;stroke-width:0.8;"/>
   </g>
   <g id="text_28">
    <!-- val_acc -->
    <defs>
     <path d="M 2.984375 54.6875 
L 12.5 54.6875 
L 29.59375 8.796875 
L 46.6875 54.6875 
L 56.203125 54.6875 
L 35.6875 0 
L 23.484375 0 
z
" id="DejaVuSans-76"/>
     <path d="M 50.984375 -16.609375 
L 50.984375 -23.578125 
L -0.984375 -23.578125 
L -0.984375 -16.609375 
z
" id="DejaVuSans-5f"/>
    </defs>
    <g transform="translate(114.79 183.312)scale(0.12 -0.12)">
     <use xlink:href="#DejaVuSans-76"/>
     <use x="59.179688" xlink:href="#DejaVuSans-61"/>
     <use x="120.458984" xlink:href="#DejaVuSans-6c"/>
     <use x="148.242188" xlink:href="#DejaVuSans-5f"/>
     <use x="198.242188" xlink:href="#DejaVuSans-61"/>
     <use x="259.521484" xlink:href="#DejaVuSans-63"/>
     <use x="314.501953" xlink:href="#DejaVuSans-63"/>
    </g>
   </g>
  </g>
  <g id="axes_4">
   <g id="patch_17">
    <path d="M 256 307.584 
L 414.72 307.584 
L 414.72 189.312 
L 256 189.312 
z
" style="fill:#ffffff;"/>
   </g>
   <g id="matplotlib.axis_7">
    <g id="xtick_13">
     <g id="line2d_54">
      <path clip-path="url(#pead75b672f)" d="M 263.214545 307.584 
L 263.214545 189.312 
" style="fill:none;stroke:#b0b0b0;stroke-linecap:square;stroke-width:0.8;"/>
     </g>
     <g id="line2d_55">
      <g>
       <use style="stroke:#000000;stroke-width:0.8;" x="263.214545" xlink:href="#m9db88e9e5a" y="307.584"/>
      </g>
     </g>
     <g id="text_29">
      <!-- 0 -->
      <g transform="translate(260.033295 322.182437)scale(0.1 -0.1)">
       <use xlink:href="#DejaVuSans-30"/>
      </g>
     </g>
    </g>
    <g id="xtick_14">
     <g id="line2d_56">
      <path clip-path="url(#pead75b672f)" d="M 311.472375 307.584 
L 311.472375 189.312 
" style="fill:none;stroke:#b0b0b0;stroke-linecap:square;stroke-width:0.8;"/>
     </g>
     <g id="line2d_57">
      <g>
       <use style="stroke:#000000;stroke-width:0.8;" x="311.472375" xlink:href="#m9db88e9e5a" y="307.584"/>
      </g>
     </g>
     <g id="text_30">
      <!-- 100 -->
      <g transform="translate(301.928625 322.182437)scale(0.1 -0.1)">
       <use xlink:href="#DejaVuSans-31"/>
       <use x="63.623047" xlink:href="#DejaVuSans-30"/>
       <use x="127.246094" xlink:href="#DejaVuSans-30"/>
      </g>
     </g>
    </g>
    <g id="xtick_15">
     <g id="line2d_58">
      <path clip-path="url(#pead75b672f)" d="M 359.730204 307.584 
L 359.730204 189.312 
" style="fill:none;stroke:#b0b0b0;stroke-linecap:square;stroke-width:0.8;"/>
     </g>
     <g id="line2d_59">
      <g>
       <use style="stroke:#000000;stroke-width:0.8;" x="359.730204" xlink:href="#m9db88e9e5a" y="307.584"/>
      </g>
     </g>
     <g id="text_31">
      <!-- 200 -->
      <g transform="translate(350.186454 322.182437)scale(0.1 -0.1)">
       <use xlink:href="#DejaVuSans-32"/>
       <use x="63.623047" xlink:href="#DejaVuSans-30"/>
       <use x="127.246094" xlink:href="#DejaVuSans-30"/>
      </g>
     </g>
    </g>
    <g id="xtick_16">
     <g id="line2d_60">
      <path clip-path="url(#pead75b672f)" d="M 407.988033 307.584 
L 407.988033 189.312 
" style="fill:none;stroke:#b0b0b0;stroke-linecap:square;stroke-width:0.8;"/>
     </g>
     <g id="line2d_61">
      <g>
       <use style="stroke:#000000;stroke-width:0.8;" x="407.988033" xlink:href="#m9db88e9e5a" y="307.584"/>
      </g>
     </g>
     <g id="text_32">
      <!-- 300 -->
      <g transform="translate(398.444283 322.182437)scale(0.1 -0.1)">
       <use xlink:href="#DejaVuSans-33"/>
       <use x="63.623047" xlink:href="#DejaVuSans-30"/>
       <use x="127.246094" xlink:href="#DejaVuSans-30"/>
      </g>
     </g>
    </g>
   </g>
   <g id="matplotlib.axis_8">
    <g id="ytick_14">
     <g id="line2d_62">
      <path clip-path="url(#pead75b672f)" d="M 256 306.59749 
L 414.72 306.59749 
" style="fill:none;stroke:#b0b0b0;stroke-linecap:square;stroke-width:0.8;"/>
     </g>
     <g id="line2d_63">
      <g>
       <use style="stroke:#000000;stroke-width:0.8;" x="256" xlink:href="#m3d87ae0fee" y="306.59749"/>
      </g>
     </g>
     <g id="text_33">
      <!-- 0 -->
      <g transform="translate(242.6375 310.396709)scale(0.1 -0.1)">
       <use xlink:href="#DejaVuSans-30"/>
      </g>
     </g>
    </g>
    <g id="ytick_15">
     <g id="line2d_64">
      <path clip-path="url(#pead75b672f)" d="M 256 266.038251 
L 414.72 266.038251 
" style="fill:none;stroke:#b0b0b0;stroke-linecap:square;stroke-width:0.8;"/>
     </g>
     <g id="line2d_65">
      <g>
       <use style="stroke:#000000;stroke-width:0.8;" x="256" xlink:href="#m3d87ae0fee" y="266.038251"/>
      </g>
     </g>
     <g id="text_34">
      <!-- 2 -->
      <g transform="translate(242.6375 269.83747)scale(0.1 -0.1)">
       <use xlink:href="#DejaVuSans-32"/>
      </g>
     </g>
    </g>
    <g id="ytick_16">
     <g id="line2d_66">
      <path clip-path="url(#pead75b672f)" d="M 256 225.479012 
L 414.72 225.479012 
" style="fill:none;stroke:#b0b0b0;stroke-linecap:square;stroke-width:0.8;"/>
     </g>
     <g id="line2d_67">
      <g>
       <use style="stroke:#000000;stroke-width:0.8;" x="256" xlink:href="#m3d87ae0fee" y="225.479012"/>
      </g>
     </g>
     <g id="text_35">
      <!-- 4 -->
      <g transform="translate(242.6375 229.278231)scale(0.1 -0.1)">
       <use xlink:href="#DejaVuSans-34"/>
      </g>
     </g>
    </g>
   </g>
   <g id="line2d_68">
    <path clip-path="url(#pead75b672f)" d="M 263.214545 194.688 
L 263.697124 200.635765 
L 265.144859 228.532568 
L 265.627437 231.463982 
L 266.110015 240.319678 
L 266.592593 241.316537 
L 267.075172 248.984749 
L 267.55775 249.221955 
L 268.040328 253.929457 
L 268.522907 256.616444 
L 269.005485 253.497523 
L 269.488063 261.553844 
L 269.970642 262.773422 
L 270.45322 262.389886 
L 270.935798 265.386169 
L 271.418376 267.243773 
L 271.900955 269.603641 
L 272.383533 269.039492 
L 272.866111 270.170683 
L 273.34869 270.45692 
L 273.831268 271.121146 
L 274.313846 272.998422 
L 274.796424 277.224758 
L 275.279003 275.894265 
L 275.761581 278.031224 
L 276.244159 278.633622 
L 276.726738 268.973679 
L 277.209316 279.371415 
L 277.691894 278.219963 
L 278.174472 282.259985 
L 279.139629 283.343344 
L 279.622207 282.460543 
L 280.104786 285.381095 
L 280.587364 285.819878 
L 281.069942 286.024854 
L 281.552521 285.826047 
L 282.035099 285.029514 
L 282.517677 284.490832 
L 283.000255 285.246632 
L 283.482834 287.393325 
L 283.965412 282.446683 
L 284.44799 288.198179 
L 284.930569 278.949061 
L 285.413147 286.8415 
L 285.895725 289.156873 
L 286.378303 289.27576 
L 286.860882 289.717027 
L 287.34346 290.438841 
L 287.826038 290.624348 
L 288.308617 292.151721 
L 288.791195 291.940057 
L 289.273773 292.961023 
L 289.756351 286.001278 
L 290.23893 291.321792 
L 290.721508 284.537902 
L 291.204086 294.198033 
L 291.686665 294.188345 
L 292.169243 293.634354 
L 292.651821 294.935179 
L 293.1344 293.17349 
L 293.616978 292.085031 
L 294.099556 293.135801 
L 294.582134 296.193716 
L 295.064713 295.758501 
L 295.547291 296.372744 
L 296.029869 297.628981 
L 296.512448 294.270002 
L 296.995026 295.474385 
L 297.477604 295.858114 
L 297.960182 296.814792 
L 298.442761 295.666356 
L 298.925339 294.856036 
L 299.407917 297.423548 
L 299.890496 295.522901 
L 300.373074 295.745722 
L 300.855652 297.628293 
L 301.820809 295.695722 
L 302.303387 297.81464 
L 302.785965 294.09432 
L 303.268544 298.573102 
L 303.751122 287.053416 
L 304.2337 298.758693 
L 304.716279 297.283442 
L 305.198857 297.256591 
L 305.681435 294.91457 
L 306.164013 297.950657 
L 306.646592 298.277222 
L 307.12917 299.309129 
L 307.611748 298.782779 
L 308.094327 298.614736 
L 308.576905 297.706355 
L 309.059483 298.022281 
L 309.542061 299.769383 
L 310.02464 298.956742 
L 310.507218 298.439955 
L 310.989796 299.808488 
L 311.472375 297.188878 
L 311.954953 299.174467 
L 312.437531 298.255265 
L 312.920109 298.783597 
L 313.402688 299.890248 
L 313.885266 296.796872 
L 314.367844 298.608891 
L 314.850423 298.46978 
L 315.333001 300.027223 
L 315.815579 299.457608 
L 316.298157 300.357047 
L 316.780736 299.416166 
L 317.263314 299.531626 
L 318.711049 300.357026 
L 319.193627 299.238456 
L 319.676206 298.920386 
L 320.158784 299.929688 
L 320.641362 297.667 
L 321.12394 299.686639 
L 321.606519 297.380478 
L 322.089097 300.655938 
L 322.571675 292.670126 
L 323.054254 299.986181 
L 323.536832 300.134318 
L 324.01941 300.057131 
L 324.501988 297.377641 
L 324.984567 299.942609 
L 325.467145 300.800133 
L 325.949723 300.710878 
L 326.432302 299.462172 
L 326.91488 298.864903 
L 327.397458 299.671903 
L 327.880036 298.702205 
L 328.362615 300.449657 
L 328.845193 297.365289 
L 329.327771 299.222576 
L 329.81035 300.603407 
L 330.292928 300.36443 
L 330.775506 299.966115 
L 331.258085 298.900139 
L 331.740663 301.939002 
L 332.223241 299.206786 
L 332.705819 298.186484 
L 333.188398 300.951085 
L 333.670976 299.560865 
L 334.153554 297.681904 
L 334.636133 299.949822 
L 335.118711 300.39379 
L 335.601289 301.236973 
L 336.083867 300.148728 
L 336.566446 299.352105 
L 337.049024 299.257783 
L 337.531602 300.464753 
L 338.014181 299.206788 
L 338.496759 300.526025 
L 338.979337 299.486532 
L 339.944494 301.203928 
L 340.427072 298.423307 
L 340.90965 301.757296 
L 341.392229 299.157774 
L 341.874807 301.667343 
L 342.357385 295.49533 
L 342.839964 298.302596 
L 343.322542 301.879008 
L 343.80512 299.895695 
L 344.287698 301.61674 
L 344.770277 299.731431 
L 345.252855 300.199945 
L 345.735433 294.830991 
L 346.218012 300.665449 
L 346.70059 299.370684 
L 347.183168 301.699748 
L 347.665746 292.83617 
L 348.148325 300.551711 
L 348.630903 300.894043 
L 349.113481 287.729751 
L 349.59606 299.786008 
L 350.078638 298.595587 
L 350.561216 300.825258 
L 351.043794 298.716901 
L 351.526373 300.268748 
L 352.008951 296.248698 
L 352.491529 301.059819 
L 352.974108 298.939816 
L 353.456686 301.166413 
L 353.939264 302.208 
L 354.421843 299.807867 
L 354.904421 300.677949 
L 355.386999 301.16051 
L 355.869577 300.191061 
L 356.352156 300.740373 
L 356.834734 298.643544 
L 357.317312 301.026549 
L 357.799891 300.031842 
L 358.282469 301.498855 
L 358.765047 300.564263 
L 359.730204 299.203323 
L 360.212782 299.789614 
L 361.177939 301.248106 
L 361.660517 299.59531 
L 362.625673 300.111964 
L 363.108252 301.041078 
L 363.59083 297.659809 
L 364.073408 301.00175 
L 364.555987 300.294162 
L 365.038565 300.015704 
L 365.521143 298.089737 
L 366.003721 292.852374 
L 366.4863 300.203569 
L 366.968878 299.810056 
L 367.451456 299.067812 
L 367.934035 300.332042 
L 368.416613 300.582028 
L 368.899191 301.808039 
L 369.38177 300.000471 
L 369.864348 300.445821 
L 370.346926 299.835216 
L 370.829504 300.058857 
L 371.794661 301.324987 
L 372.277239 298.330525 
L 372.759818 296.615154 
L 373.242396 300.655672 
L 374.207552 299.486429 
L 374.690131 299.470826 
L 375.172709 299.094626 
L 375.655287 301.277535 
L 376.137866 297.668839 
L 376.620444 298.691424 
L 377.103022 300.573663 
L 377.5856 300.834014 
L 378.068179 300.325725 
L 378.550757 301.616623 
L 379.033335 299.600351 
L 379.515914 299.674854 
L 379.998492 300.981029 
L 380.48107 301.226635 
L 380.963649 299.67243 
L 381.446227 300.427822 
L 381.928805 299.883725 
L 382.411383 298.957387 
L 382.893962 299.112057 
L 383.37654 301.388689 
L 383.859118 301.400815 
L 384.341697 299.128588 
L 384.824275 298.388731 
L 385.306853 300.81064 
L 385.789431 298.601251 
L 386.27201 300.179572 
L 386.754588 299.032455 
L 387.237166 301.371733 
L 387.719745 298.987704 
L 388.202323 301.069187 
L 388.684901 298.185381 
L 389.167479 301.033709 
L 389.650058 296.014871 
L 390.132636 300.300117 
L 390.615214 295.639254 
L 391.097793 300.463592 
L 391.580371 299.020053 
L 392.062949 299.385009 
L 392.545528 297.403939 
L 393.028106 299.460101 
L 393.510684 300.700382 
L 394.475841 299.155171 
L 394.958419 299.621753 
L 395.440997 299.778048 
L 395.923576 300.158936 
L 396.406154 299.584489 
L 396.888732 299.800662 
L 397.37131 299.206651 
L 397.853889 297.047502 
L 398.336467 299.071656 
L 398.819045 299.169737 
L 400.26678 296.940664 
L 400.749358 300.585876 
L 401.231937 301.155733 
L 401.714515 298.966869 
L 402.197093 300.812817 
L 402.679672 297.779865 
L 403.16225 296.610107 
L 403.644828 299.977398 
L 404.127407 300.174316 
L 404.609985 299.499787 
L 405.092563 299.658234 
L 405.575141 300.234429 
L 406.05772 299.975256 
L 406.540298 299.114036 
L 407.022876 298.995448 
L 407.505455 300.311819 
L 407.505455 300.311819 
" style="fill:none;stroke:#1f77b4;stroke-linecap:square;stroke-width:1.5;"/>
   </g>
   <g id="patch_18">
    <path d="M 256 307.584 
L 256 189.312 
" style="fill:none;stroke:#000000;stroke-linecap:square;stroke-linejoin:miter;stroke-width:0.8;"/>
   </g>
   <g id="patch_19">
    <path d="M 414.72 307.584 
L 414.72 189.312 
" style="fill:none;stroke:#000000;stroke-linecap:square;stroke-linejoin:miter;stroke-width:0.8;"/>
   </g>
   <g id="patch_20">
    <path d="M 256 307.584 
L 414.72 307.584 
" style="fill:none;stroke:#000000;stroke-linecap:square;stroke-linejoin:miter;stroke-width:0.8;"/>
   </g>
   <g id="patch_21">
    <path d="M 256 189.312 
L 414.72 189.312 
" style="fill:none;stroke:#000000;stroke-linecap:square;stroke-linejoin:miter;stroke-width:0.8;"/>
   </g>
   <g id="text_36">
    <!-- val_loss -->
    <g transform="translate(311.875625 183.312)scale(0.12 -0.12)">
     <use xlink:href="#DejaVuSans-76"/>
     <use x="59.179688" xlink:href="#DejaVuSans-61"/>
     <use x="120.458984" xlink:href="#DejaVuSans-6c"/>
     <use x="148.242188" xlink:href="#DejaVuSans-5f"/>
     <use x="198.242188" xlink:href="#DejaVuSans-6c"/>
     <use x="226.025391" xlink:href="#DejaVuSans-6f"/>
     <use x="287.207031" xlink:href="#DejaVuSans-73"/>
     <use x="339.306641" xlink:href="#DejaVuSans-73"/>
    </g>
   </g>
  </g>
  <g id="text_37">
   <!-- model3 20171023_144934 -->
   <defs>
    <path d="M 52 44.1875 
Q 55.375 50.25 60.0625 53.125 
Q 64.75 56 71.09375 56 
Q 79.640625 56 84.28125 50.015625 
Q 88.921875 44.046875 88.921875 33.015625 
L 88.921875 0 
L 79.890625 0 
L 79.890625 32.71875 
Q 79.890625 40.578125 77.09375 44.375 
Q 74.3125 48.1875 68.609375 48.1875 
Q 61.625 48.1875 57.5625 43.546875 
Q 53.515625 38.921875 53.515625 30.90625 
L 53.515625 0 
L 44.484375 0 
L 44.484375 32.71875 
Q 44.484375 40.625 41.703125 44.40625 
Q 38.921875 48.1875 33.109375 48.1875 
Q 26.21875 48.1875 22.15625 43.53125 
Q 18.109375 38.875 18.109375 30.90625 
L 18.109375 0 
L 9.078125 0 
L 9.078125 54.6875 
L 18.109375 54.6875 
L 18.109375 46.1875 
Q 21.1875 51.21875 25.484375 53.609375 
Q 29.78125 56 35.6875 56 
Q 41.65625 56 45.828125 52.96875 
Q 50 49.953125 52 44.1875 
z
" id="DejaVuSans-6d"/>
    <path d="M 45.40625 46.390625 
L 45.40625 75.984375 
L 54.390625 75.984375 
L 54.390625 0 
L 45.40625 0 
L 45.40625 8.203125 
Q 42.578125 3.328125 38.25 0.953125 
Q 33.9375 -1.421875 27.875 -1.421875 
Q 17.96875 -1.421875 11.734375 6.484375 
Q 5.515625 14.40625 5.515625 27.296875 
Q 5.515625 40.1875 11.734375 48.09375 
Q 17.96875 56 27.875 56 
Q 33.9375 56 38.25 53.625 
Q 42.578125 51.265625 45.40625 46.390625 
z
M 14.796875 27.296875 
Q 14.796875 17.390625 18.875 11.75 
Q 22.953125 6.109375 30.078125 6.109375 
Q 37.203125 6.109375 41.296875 11.75 
Q 45.40625 17.390625 45.40625 27.296875 
Q 45.40625 37.203125 41.296875 42.84375 
Q 37.203125 48.484375 30.078125 48.484375 
Q 22.953125 48.484375 18.875 42.84375 
Q 14.796875 37.203125 14.796875 27.296875 
z
" id="DejaVuSans-64"/>
    <path d="M 56.203125 29.59375 
L 56.203125 25.203125 
L 14.890625 25.203125 
Q 15.484375 15.921875 20.484375 11.0625 
Q 25.484375 6.203125 34.421875 6.203125 
Q 39.59375 6.203125 44.453125 7.46875 
Q 49.3125 8.734375 54.109375 11.28125 
L 54.109375 2.78125 
Q 49.265625 0.734375 44.1875 -0.34375 
Q 39.109375 -1.421875 33.890625 -1.421875 
Q 20.796875 -1.421875 13.15625 6.1875 
Q 5.515625 13.8125 5.515625 26.8125 
Q 5.515625 40.234375 12.765625 48.109375 
Q 20.015625 56 32.328125 56 
Q 43.359375 56 49.78125 48.890625 
Q 56.203125 41.796875 56.203125 29.59375 
z
M 47.21875 32.234375 
Q 47.125 39.59375 43.09375 43.984375 
Q 39.0625 48.390625 32.421875 48.390625 
Q 24.90625 48.390625 20.390625 44.140625 
Q 15.875 39.890625 15.1875 32.171875 
z
" id="DejaVuSans-65"/>
    <path id="DejaVuSans-20"/>
    <path d="M 10.984375 1.515625 
L 10.984375 10.5 
Q 14.703125 8.734375 18.5 7.8125 
Q 22.3125 6.890625 25.984375 6.890625 
Q 35.75 6.890625 40.890625 13.453125 
Q 46.046875 20.015625 46.78125 33.40625 
Q 43.953125 29.203125 39.59375 26.953125 
Q 35.25 24.703125 29.984375 24.703125 
Q 19.046875 24.703125 12.671875 31.3125 
Q 6.296875 37.9375 6.296875 49.421875 
Q 6.296875 60.640625 12.9375 67.421875 
Q 19.578125 74.21875 30.609375 74.21875 
Q 43.265625 74.21875 49.921875 64.515625 
Q 56.59375 54.828125 56.59375 36.375 
Q 56.59375 19.140625 48.40625 8.859375 
Q 40.234375 -1.421875 26.421875 -1.421875 
Q 22.703125 -1.421875 18.890625 -0.6875 
Q 15.09375 0.046875 10.984375 1.515625 
z
M 30.609375 32.421875 
Q 37.25 32.421875 41.125 36.953125 
Q 45.015625 41.5 45.015625 49.421875 
Q 45.015625 57.28125 41.125 61.84375 
Q 37.25 66.40625 30.609375 66.40625 
Q 23.96875 66.40625 20.09375 61.84375 
Q 16.21875 57.28125 16.21875 49.421875 
Q 16.21875 41.5 20.09375 36.953125 
Q 23.96875 32.421875 30.609375 32.421875 
z
" id="DejaVuSans-39"/>
   </defs>
   <g transform="translate(149.547188 16.030125)scale(0.12 -0.12)">
    <use xlink:href="#DejaVuSans-6d"/>
    <use x="97.412109" xlink:href="#DejaVuSans-6f"/>
    <use x="158.59375" xlink:href="#DejaVuSans-64"/>
    <use x="222.070312" xlink:href="#DejaVuSans-65"/>
    <use x="283.59375" xlink:href="#DejaVuSans-6c"/>
    <use x="311.376953" xlink:href="#DejaVuSans-33"/>
    <use x="375" xlink:href="#DejaVuSans-20"/>
    <use x="406.787109" xlink:href="#DejaVuSans-32"/>
    <use x="470.410156" xlink:href="#DejaVuSans-30"/>
    <use x="534.033203" xlink:href="#DejaVuSans-31"/>
    <use x="597.65625" xlink:href="#DejaVuSans-37"/>
    <use x="661.279297" xlink:href="#DejaVuSans-31"/>
    <use x="724.902344" xlink:href="#DejaVuSans-30"/>
    <use x="788.525391" xlink:href="#DejaVuSans-32"/>
    <use x="852.148438" xlink:href="#DejaVuSans-33"/>
    <use x="915.771484" xlink:href="#DejaVuSans-5f"/>
    <use x="965.771484" xlink:href="#DejaVuSans-31"/>
    <use x="1029.394531" xlink:href="#DejaVuSans-34"/>
    <use x="1093.017578" xlink:href="#DejaVuSans-34"/>
    <use x="1156.640625" xlink:href="#DejaVuSans-39"/>
    <use x="1220.263672" xlink:href="#DejaVuSans-33"/>
    <use x="1283.886719" xlink:href="#DejaVuSans-34"/>
   </g>
  </g>
 </g>
 <defs>
  <clipPath id="p05c8804c0a">
   <rect height="118.272" width="158.72" x="57.6" y="41.472"/>
  </clipPath>
  <clipPath id="p5d242efae0">
   <rect height="118.272" width="158.72" x="256" y="41.472"/>
  </clipPath>
  <clipPath id="p9eda7f71ea">
   <rect height="118.272" width="158.72" x="57.6" y="189.312"/>
  </clipPath>
  <clipPath id="pead75b672f">
   <rect height="118.272" width="158.72" x="256" y="189.312"/>
  </clipPath>
 </defs>
</svg>
