<?xml version="1.0" encoding="utf-8" standalone="no"?>
<!DOCTYPE svg PUBLIC "-//W3C//DTD SVG 1.1//EN"
  "http://www.w3.org/Graphics/SVG/1.1/DTD/svg11.dtd">
<!-- Created with matplotlib (http://matplotlib.org/) -->
<svg height="345pt" version="1.1" viewBox="0 0 460 345" width="460pt" xmlns="http://www.w3.org/2000/svg" xmlns:xlink="http://www.w3.org/1999/xlink">
 <defs>
  <style type="text/css">
*{stroke-linecap:butt;stroke-linejoin:round;}
  </style>
 </defs>
 <g id="figure_1">
  <g id="patch_1">
   <path d="M 0 345.6 
L 460.8 345.6 
L 460.8 0 
L 0 0 
z
" style="fill:#ffffff;"/>
  </g>
  <g id="axes_1">
   <g id="patch_2">
    <path d="M 57.6 159.744 
L 216.32 159.744 
L 216.32 41.472 
L 57.6 41.472 
z
" style="fill:#ffffff;"/>
   </g>
   <g id="matplotlib.axis_1">
    <g id="xtick_1">
     <g id="line2d_1">
      <path clip-path="url(#p3fff500ad4)" d="M 64.814545 159.744 
L 64.814545 41.472 
" style="fill:none;stroke:#b0b0b0;stroke-linecap:square;stroke-width:0.8;"/>
     </g>
     <g id="line2d_2">
      <defs>
       <path d="M 0 0 
L 0 3.5 
" id="m75ad2a393f" style="stroke:#000000;stroke-width:0.8;"/>
      </defs>
      <g>
       <use style="stroke:#000000;stroke-width:0.8;" x="64.814545" xlink:href="#m75ad2a393f" y="159.744"/>
      </g>
     </g>
     <g id="text_1">
      <!-- 0 -->
      <defs>
       <path d="M 31.78125 66.40625 
Q 24.171875 66.40625 20.328125 58.90625 
Q 16.5 51.421875 16.5 36.375 
Q 16.5 21.390625 20.328125 13.890625 
Q 24.171875 6.390625 31.78125 6.390625 
Q 39.453125 6.390625 43.28125 13.890625 
Q 47.125 21.390625 47.125 36.375 
Q 47.125 51.421875 43.28125 58.90625 
Q 39.453125 66.40625 31.78125 66.40625 
z
M 31.78125 74.21875 
Q 44.046875 74.21875 50.515625 64.515625 
Q 56.984375 54.828125 56.984375 36.375 
Q 56.984375 17.96875 50.515625 8.265625 
Q 44.046875 -1.421875 31.78125 -1.421875 
Q 19.53125 -1.421875 13.0625 8.265625 
Q 6.59375 17.96875 6.59375 36.375 
Q 6.59375 54.828125 13.0625 64.515625 
Q 19.53125 74.21875 31.78125 74.21875 
z
" id="DejaVuSans-30"/>
      </defs>
      <g transform="translate(61.633295 174.342437)scale(0.1 -0.1)">
       <use xlink:href="#DejaVuSans-30"/>
      </g>
     </g>
    </g>
    <g id="xtick_2">
     <g id="line2d_3">
      <path clip-path="url(#p3fff500ad4)" d="M 113.072375 159.744 
L 113.072375 41.472 
" style="fill:none;stroke:#b0b0b0;stroke-linecap:square;stroke-width:0.8;"/>
     </g>
     <g id="line2d_4">
      <g>
       <use style="stroke:#000000;stroke-width:0.8;" x="113.072375" xlink:href="#m75ad2a393f" y="159.744"/>
      </g>
     </g>
     <g id="text_2">
      <!-- 100 -->
      <defs>
       <path d="M 12.40625 8.296875 
L 28.515625 8.296875 
L 28.515625 63.921875 
L 10.984375 60.40625 
L 10.984375 69.390625 
L 28.421875 72.90625 
L 38.28125 72.90625 
L 38.28125 8.296875 
L 54.390625 8.296875 
L 54.390625 0 
L 12.40625 0 
z
" id="DejaVuSans-31"/>
      </defs>
      <g transform="translate(103.528625 174.342437)scale(0.1 -0.1)">
       <use xlink:href="#DejaVuSans-31"/>
       <use x="63.623047" xlink:href="#DejaVuSans-30"/>
       <use x="127.246094" xlink:href="#DejaVuSans-30"/>
      </g>
     </g>
    </g>
    <g id="xtick_3">
     <g id="line2d_5">
      <path clip-path="url(#p3fff500ad4)" d="M 161.330204 159.744 
L 161.330204 41.472 
" style="fill:none;stroke:#b0b0b0;stroke-linecap:square;stroke-width:0.8;"/>
     </g>
     <g id="line2d_6">
      <g>
       <use style="stroke:#000000;stroke-width:0.8;" x="161.330204" xlink:href="#m75ad2a393f" y="159.744"/>
      </g>
     </g>
     <g id="text_3">
      <!-- 200 -->
      <defs>
       <path d="M 19.1875 8.296875 
L 53.609375 8.296875 
L 53.609375 0 
L 7.328125 0 
L 7.328125 8.296875 
Q 12.9375 14.109375 22.625 23.890625 
Q 32.328125 33.6875 34.8125 36.53125 
Q 39.546875 41.84375 41.421875 45.53125 
Q 43.3125 49.21875 43.3125 52.78125 
Q 43.3125 58.59375 39.234375 62.25 
Q 35.15625 65.921875 28.609375 65.921875 
Q 23.96875 65.921875 18.8125 64.3125 
Q 13.671875 62.703125 7.8125 59.421875 
L 7.8125 69.390625 
Q 13.765625 71.78125 18.9375 73 
Q 24.125 74.21875 28.421875 74.21875 
Q 39.75 74.21875 46.484375 68.546875 
Q 53.21875 62.890625 53.21875 53.421875 
Q 53.21875 48.921875 51.53125 44.890625 
Q 49.859375 40.875 45.40625 35.40625 
Q 44.1875 33.984375 37.640625 27.21875 
Q 31.109375 20.453125 19.1875 8.296875 
z
" id="DejaVuSans-32"/>
      </defs>
      <g transform="translate(151.786454 174.342437)scale(0.1 -0.1)">
       <use xlink:href="#DejaVuSans-32"/>
       <use x="63.623047" xlink:href="#DejaVuSans-30"/>
       <use x="127.246094" xlink:href="#DejaVuSans-30"/>
      </g>
     </g>
    </g>
    <g id="xtick_4">
     <g id="line2d_7">
      <path clip-path="url(#p3fff500ad4)" d="M 209.588033 159.744 
L 209.588033 41.472 
" style="fill:none;stroke:#b0b0b0;stroke-linecap:square;stroke-width:0.8;"/>
     </g>
     <g id="line2d_8">
      <g>
       <use style="stroke:#000000;stroke-width:0.8;" x="209.588033" xlink:href="#m75ad2a393f" y="159.744"/>
      </g>
     </g>
     <g id="text_4">
      <!-- 300 -->
      <defs>
       <path d="M 40.578125 39.3125 
Q 47.65625 37.796875 51.625 33 
Q 55.609375 28.21875 55.609375 21.1875 
Q 55.609375 10.40625 48.1875 4.484375 
Q 40.765625 -1.421875 27.09375 -1.421875 
Q 22.515625 -1.421875 17.65625 -0.515625 
Q 12.796875 0.390625 7.625 2.203125 
L 7.625 11.71875 
Q 11.71875 9.328125 16.59375 8.109375 
Q 21.484375 6.890625 26.8125 6.890625 
Q 36.078125 6.890625 40.9375 10.546875 
Q 45.796875 14.203125 45.796875 21.1875 
Q 45.796875 27.640625 41.28125 31.265625 
Q 36.765625 34.90625 28.71875 34.90625 
L 20.21875 34.90625 
L 20.21875 43.015625 
L 29.109375 43.015625 
Q 36.375 43.015625 40.234375 45.921875 
Q 44.09375 48.828125 44.09375 54.296875 
Q 44.09375 59.90625 40.109375 62.90625 
Q 36.140625 65.921875 28.71875 65.921875 
Q 24.65625 65.921875 20.015625 65.03125 
Q 15.375 64.15625 9.8125 62.3125 
L 9.8125 71.09375 
Q 15.4375 72.65625 20.34375 73.4375 
Q 25.25 74.21875 29.59375 74.21875 
Q 40.828125 74.21875 47.359375 69.109375 
Q 53.90625 64.015625 53.90625 55.328125 
Q 53.90625 49.265625 50.4375 45.09375 
Q 46.96875 40.921875 40.578125 39.3125 
z
" id="DejaVuSans-33"/>
      </defs>
      <g transform="translate(200.044283 174.342437)scale(0.1 -0.1)">
       <use xlink:href="#DejaVuSans-33"/>
       <use x="63.623047" xlink:href="#DejaVuSans-30"/>
       <use x="127.246094" xlink:href="#DejaVuSans-30"/>
      </g>
     </g>
    </g>
   </g>
   <g id="matplotlib.axis_2">
    <g id="ytick_1">
     <g id="line2d_9">
      <path clip-path="url(#p3fff500ad4)" d="M 57.6 154.857583 
L 216.32 154.857583 
" style="fill:none;stroke:#b0b0b0;stroke-linecap:square;stroke-width:0.8;"/>
     </g>
     <g id="line2d_10">
      <defs>
       <path d="M 0 0 
L -3.5 0 
" id="m02482a24a2" style="stroke:#000000;stroke-width:0.8;"/>
      </defs>
      <g>
       <use style="stroke:#000000;stroke-width:0.8;" x="57.6" xlink:href="#m02482a24a2" y="154.857583"/>
      </g>
     </g>
     <g id="text_5">
      <!-- 0.00 -->
      <defs>
       <path d="M 10.6875 12.40625 
L 21 12.40625 
L 21 0 
L 10.6875 0 
z
" id="DejaVuSans-2e"/>
      </defs>
      <g transform="translate(28.334375 158.656802)scale(0.1 -0.1)">
       <use xlink:href="#DejaVuSans-30"/>
       <use x="63.623047" xlink:href="#DejaVuSans-2e"/>
       <use x="95.410156" xlink:href="#DejaVuSans-30"/>
       <use x="159.033203" xlink:href="#DejaVuSans-30"/>
      </g>
     </g>
    </g>
    <g id="ytick_2">
     <g id="line2d_11">
      <path clip-path="url(#p3fff500ad4)" d="M 57.6 125.934515 
L 216.32 125.934515 
" style="fill:none;stroke:#b0b0b0;stroke-linecap:square;stroke-width:0.8;"/>
     </g>
     <g id="line2d_12">
      <g>
       <use style="stroke:#000000;stroke-width:0.8;" x="57.6" xlink:href="#m02482a24a2" y="125.934515"/>
      </g>
     </g>
     <g id="text_6">
      <!-- 0.25 -->
      <defs>
       <path d="M 10.796875 72.90625 
L 49.515625 72.90625 
L 49.515625 64.59375 
L 19.828125 64.59375 
L 19.828125 46.734375 
Q 21.96875 47.46875 24.109375 47.828125 
Q 26.265625 48.1875 28.421875 48.1875 
Q 40.625 48.1875 47.75 41.5 
Q 54.890625 34.8125 54.890625 23.390625 
Q 54.890625 11.625 47.5625 5.09375 
Q 40.234375 -1.421875 26.90625 -1.421875 
Q 22.3125 -1.421875 17.546875 -0.640625 
Q 12.796875 0.140625 7.71875 1.703125 
L 7.71875 11.625 
Q 12.109375 9.234375 16.796875 8.0625 
Q 21.484375 6.890625 26.703125 6.890625 
Q 35.15625 6.890625 40.078125 11.328125 
Q 45.015625 15.765625 45.015625 23.390625 
Q 45.015625 31 40.078125 35.4375 
Q 35.15625 39.890625 26.703125 39.890625 
Q 22.75 39.890625 18.8125 39.015625 
Q 14.890625 38.140625 10.796875 36.28125 
z
" id="DejaVuSans-35"/>
      </defs>
      <g transform="translate(28.334375 129.733733)scale(0.1 -0.1)">
       <use xlink:href="#DejaVuSans-30"/>
       <use x="63.623047" xlink:href="#DejaVuSans-2e"/>
       <use x="95.410156" xlink:href="#DejaVuSans-32"/>
       <use x="159.033203" xlink:href="#DejaVuSans-35"/>
      </g>
     </g>
    </g>
    <g id="ytick_3">
     <g id="line2d_13">
      <path clip-path="url(#p3fff500ad4)" d="M 57.6 97.011446 
L 216.32 97.011446 
" style="fill:none;stroke:#b0b0b0;stroke-linecap:square;stroke-width:0.8;"/>
     </g>
     <g id="line2d_14">
      <g>
       <use style="stroke:#000000;stroke-width:0.8;" x="57.6" xlink:href="#m02482a24a2" y="97.011446"/>
      </g>
     </g>
     <g id="text_7">
      <!-- 0.50 -->
      <g transform="translate(28.334375 100.810665)scale(0.1 -0.1)">
       <use xlink:href="#DejaVuSans-30"/>
       <use x="63.623047" xlink:href="#DejaVuSans-2e"/>
       <use x="95.410156" xlink:href="#DejaVuSans-35"/>
       <use x="159.033203" xlink:href="#DejaVuSans-30"/>
      </g>
     </g>
    </g>
    <g id="ytick_4">
     <g id="line2d_15">
      <path clip-path="url(#p3fff500ad4)" d="M 57.6 68.088378 
L 216.32 68.088378 
" style="fill:none;stroke:#b0b0b0;stroke-linecap:square;stroke-width:0.8;"/>
     </g>
     <g id="line2d_16">
      <g>
       <use style="stroke:#000000;stroke-width:0.8;" x="57.6" xlink:href="#m02482a24a2" y="68.088378"/>
      </g>
     </g>
     <g id="text_8">
      <!-- 0.75 -->
      <defs>
       <path d="M 8.203125 72.90625 
L 55.078125 72.90625 
L 55.078125 68.703125 
L 28.609375 0 
L 18.3125 0 
L 43.21875 64.59375 
L 8.203125 64.59375 
z
" id="DejaVuSans-37"/>
      </defs>
      <g transform="translate(28.334375 71.887596)scale(0.1 -0.1)">
       <use xlink:href="#DejaVuSans-30"/>
       <use x="63.623047" xlink:href="#DejaVuSans-2e"/>
       <use x="95.410156" xlink:href="#DejaVuSans-37"/>
       <use x="159.033203" xlink:href="#DejaVuSans-35"/>
      </g>
     </g>
    </g>
   </g>
   <g id="line2d_17">
    <path clip-path="url(#p3fff500ad4)" d="M 64.814545 154.368 
L 65.297124 153.803096 
L 65.779702 152.89925 
L 66.26228 152.597968 
L 67.227437 148.116399 
L 67.710015 145.404861 
L 69.15775 139.492203 
L 69.640328 138.889639 
L 70.122907 136.517043 
L 70.605485 136.592364 
L 71.570642 132.035474 
L 72.05322 130.491404 
L 72.535798 130.340763 
L 73.500955 127.403264 
L 73.983533 126.725379 
L 74.466111 124.955348 
L 74.94869 123.637239 
L 75.431268 122.695733 
L 75.913846 120.511439 
L 76.396424 120.247817 
L 76.879003 118.779067 
L 77.361581 118.477785 
L 77.844159 116.745414 
L 78.326738 115.992209 
L 79.291894 113.243011 
L 80.257051 112.188524 
L 81.222207 109.815929 
L 82.669942 106.95375 
L 84.600255 102.735803 
L 85.082834 103.150065 
L 85.565412 101.756636 
L 86.04799 98.781477 
L 86.530569 99.2334 
L 87.013147 98.555515 
L 87.495725 97.651669 
L 87.978303 96.032279 
L 88.460882 95.806317 
L 88.94346 94.827151 
L 89.426038 93.358401 
L 89.908617 94.450548 
L 90.391195 93.057119 
L 90.873773 91.023466 
L 91.356351 91.362408 
L 91.83893 90.383242 
L 92.321508 88.57555 
L 92.804086 90.270261 
L 93.286665 87.06914 
L 93.769243 87.219781 
L 94.251821 86.541897 
L 94.7344 85.412089 
L 95.699556 84.05632 
L 96.664713 83.792698 
L 97.147291 81.872026 
L 98.595026 80.214975 
L 99.077604 80.139654 
L 99.560182 78.934526 
L 100.042761 78.859206 
L 100.525339 78.595584 
L 101.973074 76.787893 
L 102.455652 75.884046 
L 102.93823 76.938534 
L 103.420809 75.733406 
L 103.903387 75.846386 
L 104.385965 74.82956 
L 104.868544 74.716579 
L 105.351122 74.114016 
L 106.798857 71.138856 
L 107.281435 71.101196 
L 107.764013 72.231003 
L 108.246592 71.892061 
L 108.72917 71.402478 
L 109.211748 70.084369 
L 109.694327 70.310331 
L 110.176905 68.954562 
L 110.659483 68.992222 
L 111.142061 69.820747 
L 111.62464 68.427319 
L 112.107218 68.992222 
L 112.589796 67.410492 
L 113.072375 67.749433 
L 113.554953 67.10921 
L 114.037531 67.259851 
L 114.520109 66.807928 
L 115.002688 66.544306 
L 115.485266 65.678121 
L 115.967844 66.205364 
L 116.450423 64.887256 
L 116.933001 64.472993 
L 117.415579 65.000236 
L 117.898157 63.908089 
L 118.863314 64.698954 
L 119.345892 64.134051 
L 119.828471 62.815942 
L 120.311049 63.192545 
L 120.793627 62.891263 
L 121.276206 64.209371 
L 121.758784 62.665301 
L 122.72394 62.928923 
L 123.206519 61.799116 
L 123.689097 61.949757 
L 125.136832 60.89527 
L 125.61941 61.234212 
L 126.101988 61.158892 
L 126.584567 61.309533 
L 127.549723 60.443347 
L 128.032302 60.706969 
L 128.51488 59.049918 
L 128.997458 60.029084 
L 129.480036 59.991424 
L 129.962615 60.217386 
L 130.445193 59.539501 
L 130.927771 58.560335 
L 131.41035 59.577162 
L 132.375506 57.69415 
L 132.858085 58.786296 
L 133.340663 58.710976 
L 133.823241 58.372034 
L 134.305819 58.786297 
L 134.788398 57.392868 
L 135.270976 58.296713 
L 135.753554 58.033092 
L 136.236133 57.543509 
L 136.718711 56.790304 
L 137.201289 56.978605 
L 137.683867 57.995432 
L 138.166446 57.844791 
L 138.649024 56.30072 
L 139.131602 56.827964 
L 139.614181 56.790304 
L 140.096759 56.338381 
L 140.579337 56.338381 
L 141.061915 56.752644 
L 141.544494 55.961778 
L 142.027072 56.526682 
L 142.50965 55.095593 
L 142.992229 56.489022 
L 143.474807 55.811137 
L 143.957385 55.735817 
L 144.439964 56.827964 
L 144.922542 55.472195 
L 145.40512 56.037099 
L 145.887698 54.229407 
L 146.370277 55.020272 
L 146.852855 54.493029 
L 147.335433 55.246234 
L 147.818012 54.64367 
L 148.783168 54.794311 
L 149.265746 53.702164 
L 149.748325 54.267067 
L 150.230903 53.815145 
L 150.713481 54.304728 
L 151.678638 53.777484 
L 152.643794 52.911299 
L 153.126373 53.890465 
L 153.608951 54.041106 
L 154.091529 53.0996 
L 154.574108 53.513863 
L 155.056686 53.02428 
L 155.539264 52.308735 
L 156.504421 53.438542 
L 156.986999 53.212581 
L 157.469577 53.777484 
L 157.952156 53.664504 
L 158.434734 52.421716 
L 158.917312 52.873639 
L 159.399891 53.13726 
L 159.882469 52.271075 
L 160.365047 52.497036 
L 160.847625 51.894472 
L 161.812782 52.497036 
L 162.29536 51.630851 
L 162.777939 51.630851 
L 163.260517 52.271075 
L 163.743095 52.308735 
L 164.225673 52.082774 
L 164.708252 51.668511 
L 165.19083 50.877646 
L 165.673408 50.877646 
L 166.155987 52.722998 
L 167.121143 51.668511 
L 167.603721 51.969793 
L 168.0863 51.404889 
L 168.568878 52.233415 
L 169.051456 50.839986 
L 169.534035 51.028287 
L 170.016613 50.538704 
L 171.464348 51.44255 
L 171.946926 50.990627 
L 172.429504 51.51787 
L 172.912083 50.275082 
L 173.394661 50.350403 
L 173.877239 51.103607 
L 174.359818 50.312742 
L 174.842396 50.275082 
L 175.324974 50.689345 
L 175.807552 49.93614 
L 176.290131 50.237422 
L 176.772709 50.124441 
L 177.255287 50.576364 
L 178.220444 50.689345 
L 179.1856 49.823159 
L 179.668179 49.89848 
L 180.150757 50.275082 
L 180.633335 49.93614 
L 181.115914 50.425723 
L 181.598492 49.860819 
L 182.563649 50.425723 
L 183.528805 48.994634 
L 184.011383 50.01146 
L 184.493962 49.521877 
L 184.97654 49.86082 
L 185.459118 49.145275 
L 185.941697 49.785499 
L 186.424275 49.371236 
L 186.906853 49.371236 
L 187.389431 48.956974 
L 187.87201 49.860819 
L 188.354588 49.333576 
L 188.837166 49.710179 
L 189.802323 48.956974 
L 190.284901 48.467391 
L 190.767479 49.258255 
L 191.250058 49.408897 
L 191.732636 49.710179 
L 192.215214 48.843993 
L 193.180371 49.258256 
L 193.662949 49.559538 
L 194.628106 49.258255 
L 195.110684 48.505051 
L 195.593262 48.505051 
L 196.075841 48.956973 
L 196.558419 48.35441 
L 197.040997 48.203769 
L 197.523576 48.881653 
L 198.488732 47.789506 
L 198.97131 49.032294 
L 199.453889 49.069954 
L 199.936467 47.902487 
L 200.901624 48.768672 
L 201.384202 48.128448 
L 201.86678 47.714186 
L 202.349358 48.015468 
L 202.831937 47.864827 
L 203.314515 48.053128 
L 203.797093 48.843993 
L 205.244828 47.412904 
L 205.727407 47.714186 
L 206.209985 47.563545 
L 206.692563 48.42973 
L 207.175141 47.940147 
L 207.65772 46.848 
L 208.140298 48.090788 
L 208.622876 47.525885 
L 209.105455 47.224602 
L 209.105455 47.224602 
" style="fill:none;stroke:#1f77b4;stroke-linecap:square;stroke-width:1.5;"/>
   </g>
   <g id="patch_3">
    <path d="M 57.6 159.744 
L 57.6 41.472 
" style="fill:none;stroke:#000000;stroke-linecap:square;stroke-linejoin:miter;stroke-width:0.8;"/>
   </g>
   <g id="patch_4">
    <path d="M 216.32 159.744 
L 216.32 41.472 
" style="fill:none;stroke:#000000;stroke-linecap:square;stroke-linejoin:miter;stroke-width:0.8;"/>
   </g>
   <g id="patch_5">
    <path d="M 57.6 159.744 
L 216.32 159.744 
" style="fill:none;stroke:#000000;stroke-linecap:square;stroke-linejoin:miter;stroke-width:0.8;"/>
   </g>
   <g id="patch_6">
    <path d="M 57.6 41.472 
L 216.32 41.472 
" style="fill:none;stroke:#000000;stroke-linecap:square;stroke-linejoin:miter;stroke-width:0.8;"/>
   </g>
   <g id="text_9">
    <!-- acc -->
    <defs>
     <path d="M 34.28125 27.484375 
Q 23.390625 27.484375 19.1875 25 
Q 14.984375 22.515625 14.984375 16.5 
Q 14.984375 11.71875 18.140625 8.90625 
Q 21.296875 6.109375 26.703125 6.109375 
Q 34.1875 6.109375 38.703125 11.40625 
Q 43.21875 16.703125 43.21875 25.484375 
L 43.21875 27.484375 
z
M 52.203125 31.203125 
L 52.203125 0 
L 43.21875 0 
L 43.21875 8.296875 
Q 40.140625 3.328125 35.546875 0.953125 
Q 30.953125 -1.421875 24.3125 -1.421875 
Q 15.921875 -1.421875 10.953125 3.296875 
Q 6 8.015625 6 15.921875 
Q 6 25.140625 12.171875 29.828125 
Q 18.359375 34.515625 30.609375 34.515625 
L 43.21875 34.515625 
L 43.21875 35.40625 
Q 43.21875 41.609375 39.140625 45 
Q 35.0625 48.390625 27.6875 48.390625 
Q 23 48.390625 18.546875 47.265625 
Q 14.109375 46.140625 10.015625 43.890625 
L 10.015625 52.203125 
Q 14.9375 54.109375 19.578125 55.046875 
Q 24.21875 56 28.609375 56 
Q 40.484375 56 46.34375 49.84375 
Q 52.203125 43.703125 52.203125 31.203125 
z
" id="DejaVuSans-61"/>
     <path d="M 48.78125 52.59375 
L 48.78125 44.1875 
Q 44.96875 46.296875 41.140625 47.34375 
Q 37.3125 48.390625 33.40625 48.390625 
Q 24.65625 48.390625 19.8125 42.84375 
Q 14.984375 37.3125 14.984375 27.296875 
Q 14.984375 17.28125 19.8125 11.734375 
Q 24.65625 6.203125 33.40625 6.203125 
Q 37.3125 6.203125 41.140625 7.25 
Q 44.96875 8.296875 48.78125 10.40625 
L 48.78125 2.09375 
Q 45.015625 0.34375 40.984375 -0.53125 
Q 36.96875 -1.421875 32.421875 -1.421875 
Q 20.0625 -1.421875 12.78125 6.34375 
Q 5.515625 14.109375 5.515625 27.296875 
Q 5.515625 40.671875 12.859375 48.328125 
Q 20.21875 56 33.015625 56 
Q 37.15625 56 41.109375 55.140625 
Q 45.0625 54.296875 48.78125 52.59375 
z
" id="DejaVuSans-63"/>
    </defs>
    <g transform="translate(126.685 35.472)scale(0.12 -0.12)">
     <use xlink:href="#DejaVuSans-61"/>
     <use x="61.279297" xlink:href="#DejaVuSans-63"/>
     <use x="116.259766" xlink:href="#DejaVuSans-63"/>
    </g>
   </g>
  </g>
  <g id="axes_2">
   <g id="patch_7">
    <path d="M 256 159.744 
L 414.72 159.744 
L 414.72 41.472 
L 256 41.472 
z
" style="fill:#ffffff;"/>
   </g>
   <g id="matplotlib.axis_3">
    <g id="xtick_5">
     <g id="line2d_18">
      <path clip-path="url(#p657a7f7c62)" d="M 263.214545 159.744 
L 263.214545 41.472 
" style="fill:none;stroke:#b0b0b0;stroke-linecap:square;stroke-width:0.8;"/>
     </g>
     <g id="line2d_19">
      <g>
       <use style="stroke:#000000;stroke-width:0.8;" x="263.214545" xlink:href="#m75ad2a393f" y="159.744"/>
      </g>
     </g>
     <g id="text_10">
      <!-- 0 -->
      <g transform="translate(260.033295 174.342437)scale(0.1 -0.1)">
       <use xlink:href="#DejaVuSans-30"/>
      </g>
     </g>
    </g>
    <g id="xtick_6">
     <g id="line2d_20">
      <path clip-path="url(#p657a7f7c62)" d="M 311.472375 159.744 
L 311.472375 41.472 
" style="fill:none;stroke:#b0b0b0;stroke-linecap:square;stroke-width:0.8;"/>
     </g>
     <g id="line2d_21">
      <g>
       <use style="stroke:#000000;stroke-width:0.8;" x="311.472375" xlink:href="#m75ad2a393f" y="159.744"/>
      </g>
     </g>
     <g id="text_11">
      <!-- 100 -->
      <g transform="translate(301.928625 174.342437)scale(0.1 -0.1)">
       <use xlink:href="#DejaVuSans-31"/>
       <use x="63.623047" xlink:href="#DejaVuSans-30"/>
       <use x="127.246094" xlink:href="#DejaVuSans-30"/>
      </g>
     </g>
    </g>
    <g id="xtick_7">
     <g id="line2d_22">
      <path clip-path="url(#p657a7f7c62)" d="M 359.730204 159.744 
L 359.730204 41.472 
" style="fill:none;stroke:#b0b0b0;stroke-linecap:square;stroke-width:0.8;"/>
     </g>
     <g id="line2d_23">
      <g>
       <use style="stroke:#000000;stroke-width:0.8;" x="359.730204" xlink:href="#m75ad2a393f" y="159.744"/>
      </g>
     </g>
     <g id="text_12">
      <!-- 200 -->
      <g transform="translate(350.186454 174.342437)scale(0.1 -0.1)">
       <use xlink:href="#DejaVuSans-32"/>
       <use x="63.623047" xlink:href="#DejaVuSans-30"/>
       <use x="127.246094" xlink:href="#DejaVuSans-30"/>
      </g>
     </g>
    </g>
    <g id="xtick_8">
     <g id="line2d_24">
      <path clip-path="url(#p657a7f7c62)" d="M 407.988033 159.744 
L 407.988033 41.472 
" style="fill:none;stroke:#b0b0b0;stroke-linecap:square;stroke-width:0.8;"/>
     </g>
     <g id="line2d_25">
      <g>
       <use style="stroke:#000000;stroke-width:0.8;" x="407.988033" xlink:href="#m75ad2a393f" y="159.744"/>
      </g>
     </g>
     <g id="text_13">
      <!-- 300 -->
      <g transform="translate(398.444283 174.342437)scale(0.1 -0.1)">
       <use xlink:href="#DejaVuSans-33"/>
       <use x="63.623047" xlink:href="#DejaVuSans-30"/>
       <use x="127.246094" xlink:href="#DejaVuSans-30"/>
      </g>
     </g>
    </g>
   </g>
   <g id="matplotlib.axis_4">
    <g id="ytick_5">
     <g id="line2d_26">
      <path clip-path="url(#p657a7f7c62)" d="M 256 158.61139 
L 414.72 158.61139 
" style="fill:none;stroke:#b0b0b0;stroke-linecap:square;stroke-width:0.8;"/>
     </g>
     <g id="line2d_27">
      <g>
       <use style="stroke:#000000;stroke-width:0.8;" x="256" xlink:href="#m02482a24a2" y="158.61139"/>
      </g>
     </g>
     <g id="text_14">
      <!-- 0 -->
      <g transform="translate(242.6375 162.410608)scale(0.1 -0.1)">
       <use xlink:href="#DejaVuSans-30"/>
      </g>
     </g>
    </g>
    <g id="ytick_6">
     <g id="line2d_28">
      <path clip-path="url(#p657a7f7c62)" d="M 256 118.25764 
L 414.72 118.25764 
" style="fill:none;stroke:#b0b0b0;stroke-linecap:square;stroke-width:0.8;"/>
     </g>
     <g id="line2d_29">
      <g>
       <use style="stroke:#000000;stroke-width:0.8;" x="256" xlink:href="#m02482a24a2" y="118.25764"/>
      </g>
     </g>
     <g id="text_15">
      <!-- 2 -->
      <g transform="translate(242.6375 122.056859)scale(0.1 -0.1)">
       <use xlink:href="#DejaVuSans-32"/>
      </g>
     </g>
    </g>
    <g id="ytick_7">
     <g id="line2d_30">
      <path clip-path="url(#p657a7f7c62)" d="M 256 77.903891 
L 414.72 77.903891 
" style="fill:none;stroke:#b0b0b0;stroke-linecap:square;stroke-width:0.8;"/>
     </g>
     <g id="line2d_31">
      <g>
       <use style="stroke:#000000;stroke-width:0.8;" x="256" xlink:href="#m02482a24a2" y="77.903891"/>
      </g>
     </g>
     <g id="text_16">
      <!-- 4 -->
      <defs>
       <path d="M 37.796875 64.3125 
L 12.890625 25.390625 
L 37.796875 25.390625 
z
M 35.203125 72.90625 
L 47.609375 72.90625 
L 47.609375 25.390625 
L 58.015625 25.390625 
L 58.015625 17.1875 
L 47.609375 17.1875 
L 47.609375 0 
L 37.796875 0 
L 37.796875 17.1875 
L 4.890625 17.1875 
L 4.890625 26.703125 
z
" id="DejaVuSans-34"/>
      </defs>
      <g transform="translate(242.6375 81.70311)scale(0.1 -0.1)">
       <use xlink:href="#DejaVuSans-34"/>
      </g>
     </g>
    </g>
   </g>
   <g id="line2d_32">
    <path clip-path="url(#p657a7f7c62)" d="M 263.214545 46.848 
L 263.697124 50.982407 
L 264.66228 67.112944 
L 265.627437 76.815066 
L 266.592593 84.886786 
L 267.55775 91.035403 
L 268.040328 92.817064 
L 268.522907 95.347846 
L 269.005485 96.718127 
L 269.970642 100.383587 
L 270.45322 101.217238 
L 271.418376 104.057493 
L 271.900955 105.307741 
L 272.383533 106.185178 
L 273.34869 108.278256 
L 274.313846 110.183057 
L 274.796424 110.815444 
L 275.761581 112.582102 
L 276.244159 113.175707 
L 276.726738 114.409846 
L 277.209316 114.519557 
L 277.691894 115.86901 
L 278.657051 116.935811 
L 279.622207 118.56981 
L 280.104786 118.837261 
L 281.552521 121.207769 
L 282.035099 121.322236 
L 283.000255 122.806376 
L 285.895725 126.091914 
L 287.34346 127.170307 
L 287.826038 127.981956 
L 289.273773 129.458467 
L 289.756351 130.108295 
L 290.23893 130.535932 
L 291.204086 130.788606 
L 291.686665 131.691728 
L 292.169243 131.638464 
L 292.651821 132.287206 
L 293.1344 132.400437 
L 293.616978 133.291048 
L 294.099556 133.745882 
L 294.582134 133.76857 
L 295.547291 134.917564 
L 296.029869 135.005487 
L 297.477604 136.188511 
L 297.960182 136.54086 
L 298.442761 136.463986 
L 298.925339 137.110443 
L 299.407917 137.514249 
L 299.890496 137.284851 
L 300.373074 138.189407 
L 301.33823 138.448304 
L 301.820809 138.764147 
L 302.303387 138.927127 
L 302.785965 139.37379 
L 303.268544 139.5092 
L 303.751122 139.878538 
L 304.2337 140.465843 
L 304.716279 140.252848 
L 305.198857 140.820225 
L 305.681435 140.889214 
L 306.164013 141.325549 
L 306.646592 141.102622 
L 307.12917 141.190981 
L 308.094327 141.93015 
L 308.576905 142.341578 
L 309.059483 142.411098 
L 310.02464 142.70432 
L 310.507218 142.645699 
L 310.989796 143.174036 
L 311.472375 143.329304 
L 311.954953 143.237895 
L 312.437531 143.478145 
L 312.920109 143.912701 
L 313.402688 143.738412 
L 313.885266 144.086887 
L 314.850423 144.407627 
L 315.333001 144.745055 
L 315.815579 144.371575 
L 316.298157 145.107825 
L 316.780736 144.866299 
L 317.263314 145.261407 
L 317.745892 145.261472 
L 318.228471 145.434985 
L 318.711049 145.943484 
L 319.193627 145.777978 
L 319.676206 145.760432 
L 320.158784 145.855082 
L 320.641362 146.170461 
L 321.12394 145.978247 
L 321.606519 146.398879 
L 322.571675 146.611144 
L 323.054254 146.80887 
L 323.536832 146.864955 
L 324.01941 146.595026 
L 324.501988 147.219701 
L 324.984567 147.119109 
L 325.949723 147.403779 
L 326.432302 147.363291 
L 327.397458 147.772423 
L 328.845193 147.843869 
L 329.327771 148.2502 
L 329.81035 148.003974 
L 330.292928 148.263514 
L 330.775506 148.331529 
L 331.258085 148.714585 
L 331.740663 148.483959 
L 333.188398 148.761141 
L 334.153554 148.725819 
L 334.636133 148.989771 
L 335.601289 149.130774 
L 336.083867 149.13051 
L 336.566446 148.838932 
L 337.049024 149.65895 
L 337.531602 149.194054 
L 338.496759 149.642134 
L 338.979337 149.258549 
L 339.944494 149.85988 
L 340.427072 149.44306 
L 340.90965 150.110802 
L 341.392229 149.930676 
L 341.874807 150.089588 
L 342.839964 149.665964 
L 343.322542 150.124211 
L 343.80512 149.894602 
L 344.287698 150.39501 
L 345.252855 150.261707 
L 345.735433 150.421149 
L 346.218012 150.277787 
L 347.183168 150.424405 
L 347.665746 150.716816 
L 348.148325 150.575927 
L 348.630903 150.633758 
L 349.113481 150.506576 
L 349.59606 150.990635 
L 351.526373 150.816127 
L 352.008951 151.174842 
L 352.491529 151.050552 
L 353.939264 151.328258 
L 354.421843 151.083379 
L 355.386999 151.418975 
L 355.869577 151.103461 
L 356.352156 151.19062 
L 356.834734 151.51132 
L 358.282469 151.34335 
L 359.247625 151.933379 
L 360.212782 151.496445 
L 360.69536 152.028104 
L 361.660517 151.740519 
L 362.143095 152.049302 
L 362.625673 151.959711 
L 363.108252 152.140288 
L 363.59083 151.951555 
L 364.073408 152.2052 
L 364.555987 151.795525 
L 365.521143 152.264332 
L 366.003721 152.259022 
L 366.4863 152.573833 
L 366.968878 152.083291 
L 367.451456 152.565938 
L 368.899191 152.382285 
L 369.38177 152.315142 
L 369.864348 152.521683 
L 370.829504 152.503214 
L 371.312083 152.938368 
L 371.794661 152.411099 
L 373.242396 152.728227 
L 373.724974 152.636719 
L 374.690131 152.824171 
L 375.655287 152.583811 
L 376.620444 152.804955 
L 377.103022 152.710925 
L 377.5856 153.22574 
L 378.550757 152.957662 
L 379.998492 153.10728 
L 380.48107 153.009498 
L 380.963649 153.074158 
L 381.446227 152.832998 
L 381.928805 153.316683 
L 382.411383 152.86976 
L 382.893962 153.157217 
L 383.37654 153.159885 
L 383.859118 153.393458 
L 384.341697 153.107526 
L 384.824275 153.340798 
L 385.306853 153.224653 
L 385.789431 153.714527 
L 386.27201 153.2264 
L 386.754588 153.010968 
L 387.237166 153.257514 
L 389.167479 153.643361 
L 390.132636 153.241328 
L 390.615214 153.647313 
L 391.097793 153.652993 
L 391.580371 153.377148 
L 392.062949 153.734219 
L 392.545528 153.712249 
L 393.028106 153.40382 
L 393.993262 153.667781 
L 394.475841 153.460079 
L 394.958419 153.862783 
L 395.440997 153.687376 
L 395.923576 153.669 
L 396.888732 153.996718 
L 397.37131 153.740023 
L 397.853889 153.924614 
L 399.301624 153.674339 
L 399.784202 154.19448 
L 400.749358 153.997787 
L 401.231937 153.924624 
L 401.714515 154.014389 
L 402.197093 153.564477 
L 402.679672 154.059574 
L 403.644828 154.034074 
L 404.127407 154.302823 
L 405.092563 154.101024 
L 405.575141 154.158206 
L 406.05772 154.368 
L 406.540298 153.979478 
L 407.505455 154.314783 
L 407.505455 154.314783 
" style="fill:none;stroke:#1f77b4;stroke-linecap:square;stroke-width:1.5;"/>
   </g>
   <g id="patch_8">
    <path d="M 256 159.744 
L 256 41.472 
" style="fill:none;stroke:#000000;stroke-linecap:square;stroke-linejoin:miter;stroke-width:0.8;"/>
   </g>
   <g id="patch_9">
    <path d="M 414.72 159.744 
L 414.72 41.472 
" style="fill:none;stroke:#000000;stroke-linecap:square;stroke-linejoin:miter;stroke-width:0.8;"/>
   </g>
   <g id="patch_10">
    <path d="M 256 159.744 
L 414.72 159.744 
" style="fill:none;stroke:#000000;stroke-linecap:square;stroke-linejoin:miter;stroke-width:0.8;"/>
   </g>
   <g id="patch_11">
    <path d="M 256 41.472 
L 414.72 41.472 
" style="fill:none;stroke:#000000;stroke-linecap:square;stroke-linejoin:miter;stroke-width:0.8;"/>
   </g>
   <g id="text_17">
    <!-- loss -->
    <defs>
     <path d="M 9.421875 75.984375 
L 18.40625 75.984375 
L 18.40625 0 
L 9.421875 0 
z
" id="DejaVuSans-6c"/>
     <path d="M 30.609375 48.390625 
Q 23.390625 48.390625 19.1875 42.75 
Q 14.984375 37.109375 14.984375 27.296875 
Q 14.984375 17.484375 19.15625 11.84375 
Q 23.34375 6.203125 30.609375 6.203125 
Q 37.796875 6.203125 41.984375 11.859375 
Q 46.1875 17.53125 46.1875 27.296875 
Q 46.1875 37.015625 41.984375 42.703125 
Q 37.796875 48.390625 30.609375 48.390625 
z
M 30.609375 56 
Q 42.328125 56 49.015625 48.375 
Q 55.71875 40.765625 55.71875 27.296875 
Q 55.71875 13.875 49.015625 6.21875 
Q 42.328125 -1.421875 30.609375 -1.421875 
Q 18.84375 -1.421875 12.171875 6.21875 
Q 5.515625 13.875 5.515625 27.296875 
Q 5.515625 40.765625 12.171875 48.375 
Q 18.84375 56 30.609375 56 
z
" id="DejaVuSans-6f"/>
     <path d="M 44.28125 53.078125 
L 44.28125 44.578125 
Q 40.484375 46.53125 36.375 47.5 
Q 32.28125 48.484375 27.875 48.484375 
Q 21.1875 48.484375 17.84375 46.4375 
Q 14.5 44.390625 14.5 40.28125 
Q 14.5 37.15625 16.890625 35.375 
Q 19.28125 33.59375 26.515625 31.984375 
L 29.59375 31.296875 
Q 39.15625 29.25 43.1875 25.515625 
Q 47.21875 21.78125 47.21875 15.09375 
Q 47.21875 7.46875 41.1875 3.015625 
Q 35.15625 -1.421875 24.609375 -1.421875 
Q 20.21875 -1.421875 15.453125 -0.5625 
Q 10.6875 0.296875 5.421875 2 
L 5.421875 11.28125 
Q 10.40625 8.6875 15.234375 7.390625 
Q 20.0625 6.109375 24.8125 6.109375 
Q 31.15625 6.109375 34.5625 8.28125 
Q 37.984375 10.453125 37.984375 14.40625 
Q 37.984375 18.0625 35.515625 20.015625 
Q 33.0625 21.96875 24.703125 23.78125 
L 21.578125 24.515625 
Q 13.234375 26.265625 9.515625 29.90625 
Q 5.8125 33.546875 5.8125 39.890625 
Q 5.8125 47.609375 11.28125 51.796875 
Q 16.75 56 26.8125 56 
Q 31.78125 56 36.171875 55.265625 
Q 40.578125 54.546875 44.28125 53.078125 
z
" id="DejaVuSans-73"/>
    </defs>
    <g transform="translate(323.770625 35.472)scale(0.12 -0.12)">
     <use xlink:href="#DejaVuSans-6c"/>
     <use x="27.783203" xlink:href="#DejaVuSans-6f"/>
     <use x="88.964844" xlink:href="#DejaVuSans-73"/>
     <use x="141.064453" xlink:href="#DejaVuSans-73"/>
    </g>
   </g>
  </g>
  <g id="axes_3">
   <g id="patch_12">
    <path d="M 57.6 307.584 
L 216.32 307.584 
L 216.32 189.312 
L 57.6 189.312 
z
" style="fill:#ffffff;"/>
   </g>
   <g id="matplotlib.axis_5">
    <g id="xtick_9">
     <g id="line2d_33">
      <path clip-path="url(#pb939908f11)" d="M 64.814545 307.584 
L 64.814545 189.312 
" style="fill:none;stroke:#b0b0b0;stroke-linecap:square;stroke-width:0.8;"/>
     </g>
     <g id="line2d_34">
      <g>
       <use style="stroke:#000000;stroke-width:0.8;" x="64.814545" xlink:href="#m75ad2a393f" y="307.584"/>
      </g>
     </g>
     <g id="text_18">
      <!-- 0 -->
      <g transform="translate(61.633295 322.182437)scale(0.1 -0.1)">
       <use xlink:href="#DejaVuSans-30"/>
      </g>
     </g>
    </g>
    <g id="xtick_10">
     <g id="line2d_35">
      <path clip-path="url(#pb939908f11)" d="M 113.072375 307.584 
L 113.072375 189.312 
" style="fill:none;stroke:#b0b0b0;stroke-linecap:square;stroke-width:0.8;"/>
     </g>
     <g id="line2d_36">
      <g>
       <use style="stroke:#000000;stroke-width:0.8;" x="113.072375" xlink:href="#m75ad2a393f" y="307.584"/>
      </g>
     </g>
     <g id="text_19">
      <!-- 100 -->
      <g transform="translate(103.528625 322.182437)scale(0.1 -0.1)">
       <use xlink:href="#DejaVuSans-31"/>
       <use x="63.623047" xlink:href="#DejaVuSans-30"/>
       <use x="127.246094" xlink:href="#DejaVuSans-30"/>
      </g>
     </g>
    </g>
    <g id="xtick_11">
     <g id="line2d_37">
      <path clip-path="url(#pb939908f11)" d="M 161.330204 307.584 
L 161.330204 189.312 
" style="fill:none;stroke:#b0b0b0;stroke-linecap:square;stroke-width:0.8;"/>
     </g>
     <g id="line2d_38">
      <g>
       <use style="stroke:#000000;stroke-width:0.8;" x="161.330204" xlink:href="#m75ad2a393f" y="307.584"/>
      </g>
     </g>
     <g id="text_20">
      <!-- 200 -->
      <g transform="translate(151.786454 322.182437)scale(0.1 -0.1)">
       <use xlink:href="#DejaVuSans-32"/>
       <use x="63.623047" xlink:href="#DejaVuSans-30"/>
       <use x="127.246094" xlink:href="#DejaVuSans-30"/>
      </g>
     </g>
    </g>
    <g id="xtick_12">
     <g id="line2d_39">
      <path clip-path="url(#pb939908f11)" d="M 209.588033 307.584 
L 209.588033 189.312 
" style="fill:none;stroke:#b0b0b0;stroke-linecap:square;stroke-width:0.8;"/>
     </g>
     <g id="line2d_40">
      <g>
       <use style="stroke:#000000;stroke-width:0.8;" x="209.588033" xlink:href="#m75ad2a393f" y="307.584"/>
      </g>
     </g>
     <g id="text_21">
      <!-- 300 -->
      <g transform="translate(200.044283 322.182437)scale(0.1 -0.1)">
       <use xlink:href="#DejaVuSans-33"/>
       <use x="63.623047" xlink:href="#DejaVuSans-30"/>
       <use x="127.246094" xlink:href="#DejaVuSans-30"/>
      </g>
     </g>
    </g>
   </g>
   <g id="matplotlib.axis_6">
    <g id="ytick_8">
     <g id="line2d_41">
      <path clip-path="url(#pb939908f11)" d="M 57.6 303.592378 
L 216.32 303.592378 
" style="fill:none;stroke:#b0b0b0;stroke-linecap:square;stroke-width:0.8;"/>
     </g>
     <g id="line2d_42">
      <g>
       <use style="stroke:#000000;stroke-width:0.8;" x="57.6" xlink:href="#m02482a24a2" y="303.592378"/>
      </g>
     </g>
     <g id="text_22">
      <!-- 0.00 -->
      <g transform="translate(28.334375 307.391596)scale(0.1 -0.1)">
       <use xlink:href="#DejaVuSans-30"/>
       <use x="63.623047" xlink:href="#DejaVuSans-2e"/>
       <use x="95.410156" xlink:href="#DejaVuSans-30"/>
       <use x="159.033203" xlink:href="#DejaVuSans-30"/>
      </g>
     </g>
    </g>
    <g id="ytick_9">
     <g id="line2d_43">
      <path clip-path="url(#pb939908f11)" d="M 57.6 274.058987 
L 216.32 274.058987 
" style="fill:none;stroke:#b0b0b0;stroke-linecap:square;stroke-width:0.8;"/>
     </g>
     <g id="line2d_44">
      <g>
       <use style="stroke:#000000;stroke-width:0.8;" x="57.6" xlink:href="#m02482a24a2" y="274.058987"/>
      </g>
     </g>
     <g id="text_23">
      <!-- 0.25 -->
      <g transform="translate(28.334375 277.858206)scale(0.1 -0.1)">
       <use xlink:href="#DejaVuSans-30"/>
       <use x="63.623047" xlink:href="#DejaVuSans-2e"/>
       <use x="95.410156" xlink:href="#DejaVuSans-32"/>
       <use x="159.033203" xlink:href="#DejaVuSans-35"/>
      </g>
     </g>
    </g>
    <g id="ytick_10">
     <g id="line2d_45">
      <path clip-path="url(#pb939908f11)" d="M 57.6 244.525596 
L 216.32 244.525596 
" style="fill:none;stroke:#b0b0b0;stroke-linecap:square;stroke-width:0.8;"/>
     </g>
     <g id="line2d_46">
      <g>
       <use style="stroke:#000000;stroke-width:0.8;" x="57.6" xlink:href="#m02482a24a2" y="244.525596"/>
      </g>
     </g>
     <g id="text_24">
      <!-- 0.50 -->
      <g transform="translate(28.334375 248.324815)scale(0.1 -0.1)">
       <use xlink:href="#DejaVuSans-30"/>
       <use x="63.623047" xlink:href="#DejaVuSans-2e"/>
       <use x="95.410156" xlink:href="#DejaVuSans-35"/>
       <use x="159.033203" xlink:href="#DejaVuSans-30"/>
      </g>
     </g>
    </g>
    <g id="ytick_11">
     <g id="line2d_47">
      <path clip-path="url(#pb939908f11)" d="M 57.6 214.992205 
L 216.32 214.992205 
" style="fill:none;stroke:#b0b0b0;stroke-linecap:square;stroke-width:0.8;"/>
     </g>
     <g id="line2d_48">
      <g>
       <use style="stroke:#000000;stroke-width:0.8;" x="57.6" xlink:href="#m02482a24a2" y="214.992205"/>
      </g>
     </g>
     <g id="text_25">
      <!-- 0.75 -->
      <g transform="translate(28.334375 218.791424)scale(0.1 -0.1)">
       <use xlink:href="#DejaVuSans-30"/>
       <use x="63.623047" xlink:href="#DejaVuSans-2e"/>
       <use x="95.410156" xlink:href="#DejaVuSans-37"/>
       <use x="159.033203" xlink:href="#DejaVuSans-35"/>
      </g>
     </g>
    </g>
   </g>
   <g id="line2d_49">
    <path clip-path="url(#pb939908f11)" d="M 64.814545 302.208 
L 65.297124 301.746541 
L 65.779702 299.900704 
L 66.26228 299.439245 
L 66.744859 298.054867 
L 67.227437 294.363193 
L 67.710015 289.7486 
L 68.192593 288.364223 
L 68.675172 289.287141 
L 69.15775 285.134008 
L 69.640328 284.211089 
L 70.122907 282.365253 
L 70.605485 280.980875 
L 71.088063 283.288171 
L 71.570642 277.75066 
L 72.05322 277.289201 
L 72.535798 273.597527 
L 73.018376 274.520446 
L 73.500955 274.520445 
L 73.983533 271.290231 
L 74.466111 272.21315 
L 74.94869 269.444394 
L 75.431268 274.520445 
L 75.913846 269.905854 
L 76.396424 269.905853 
L 76.879003 272.213149 
L 77.844159 265.29126 
L 78.326738 269.905853 
L 78.809316 268.982935 
L 79.291894 267.137098 
L 79.774472 259.75375 
L 80.257051 261.599587 
L 80.739629 258.369372 
L 81.222207 256.984995 
L 81.704786 261.138128 
L 82.187364 261.599587 
L 82.669942 255.600617 
L 83.152521 259.292291 
L 83.635099 256.523536 
L 84.117677 255.600617 
L 84.600255 256.062077 
L 85.082834 256.062076 
L 85.565412 254.677699 
L 86.04799 252.370402 
L 86.530569 256.523535 
L 87.013147 247.755809 
L 87.495725 246.371432 
L 87.978303 254.216239 
L 88.460882 247.755809 
L 88.94346 244.987055 
L 89.426038 243.602677 
L 89.908617 243.602676 
L 90.391195 250.063106 
L 90.873773 243.602676 
L 91.356351 245.448514 
L 91.83893 240.833921 
L 92.321508 242.679759 
L 92.804086 238.526625 
L 93.286665 237.603706 
L 93.769243 239.911003 
L 94.251821 246.832891 
L 94.7344 239.911003 
L 95.216978 238.526625 
L 95.699556 244.987054 
L 96.182134 240.372461 
L 96.664713 242.218299 
L 97.147291 235.296409 
L 97.629869 232.527655 
L 98.595026 239.449544 
L 99.077604 235.757868 
L 99.560182 236.680788 
L 100.042761 231.604738 
L 100.525339 232.989114 
L 101.007917 229.297439 
L 101.490496 236.219329 
L 101.973074 232.989114 
L 102.455652 234.373492 
L 102.93823 236.219329 
L 103.420809 226.990143 
L 103.903387 231.143276 
L 104.385965 238.065166 
L 104.868544 227.913062 
L 105.351122 236.680788 
L 105.8337 228.374521 
L 106.316279 233.450572 
L 106.798857 224.221388 
L 107.281435 223.75993 
L 107.764013 226.990144 
L 108.246592 229.297441 
L 108.72917 225.144308 
L 109.211748 229.758899 
L 109.694327 223.298468 
L 110.176905 228.374522 
L 110.659483 224.221388 
L 111.142061 224.682847 
L 111.62464 229.29744 
L 112.107218 220.991173 
L 112.589796 220.991173 
L 113.072375 219.606797 
L 113.554953 220.068256 
L 114.037531 220.991173 
L 114.520109 227.913062 
L 115.002688 220.529715 
L 115.485266 225.144307 
L 115.967844 224.682848 
L 116.450423 215.915122 
L 116.933001 219.606796 
L 117.415579 217.760958 
L 117.898157 226.067225 
L 118.380736 212.684908 
L 118.863314 217.760959 
L 119.345892 214.992204 
L 119.828471 220.991175 
L 120.311049 215.453663 
L 120.793627 222.83701 
L 121.276206 221.914092 
L 121.758784 217.760958 
L 122.241362 216.838041 
L 122.72394 219.145337 
L 123.206519 214.069285 
L 123.689097 220.068254 
L 124.171675 216.37658 
L 124.654254 214.530744 
L 125.136832 217.760959 
L 125.61941 214.992204 
L 126.101988 225.605765 
L 126.584567 211.76199 
L 128.032302 213.146367 
L 128.51488 214.992204 
L 128.997458 214.069285 
L 129.480036 213.607826 
L 129.962615 212.223449 
L 130.445193 208.070315 
L 130.927771 213.607826 
L 131.41035 217.760959 
L 131.892928 213.607827 
L 132.375506 215.915121 
L 132.858085 211.300532 
L 133.340663 208.993235 
L 133.823241 213.146367 
L 134.305819 211.76199 
L 134.788398 209.916153 
L 135.270976 210.377613 
L 135.753554 215.915121 
L 136.236133 208.993234 
L 136.718711 215.915123 
L 137.201289 205.763019 
L 137.683867 208.531775 
L 138.166446 210.377612 
L 138.649024 210.377611 
L 139.131602 213.607825 
L 139.614181 210.377613 
L 140.096759 208.070316 
L 140.579337 208.993234 
L 141.061915 214.069284 
L 141.544494 215.453663 
L 142.027072 226.528685 
L 142.992229 208.531775 
L 143.474807 206.22448 
L 143.957385 205.301561 
L 144.439964 214.530745 
L 144.922542 214.530744 
L 145.40512 206.22448 
L 145.887698 202.532806 
L 146.370277 207.608857 
L 146.852855 206.224479 
L 147.335433 206.685939 
L 147.818012 220.529714 
L 148.30059 203.917184 
L 148.783168 208.070317 
L 149.265746 204.378643 
L 149.748325 208.070317 
L 150.230903 218.222419 
L 150.713481 204.378643 
L 151.19606 213.607828 
L 151.678638 212.223449 
L 152.161216 208.531775 
L 152.643794 210.377612 
L 153.126373 209.916154 
L 153.608951 210.377611 
L 154.091529 209.454694 
L 154.574108 204.378642 
L 155.539264 212.684907 
L 156.021843 209.454695 
L 156.504421 208.531776 
L 156.986999 207.147399 
L 157.469577 207.608857 
L 157.952156 205.763021 
L 158.434734 203.455725 
L 158.917312 211.300531 
L 159.399891 199.764051 
L 159.882469 210.377612 
L 160.365047 202.994265 
L 160.847625 213.146369 
L 161.330204 202.532805 
L 161.812782 204.840101 
L 162.29536 202.994265 
L 162.777939 207.608858 
L 163.260517 206.685939 
L 163.743095 203.455725 
L 164.225673 206.685939 
L 164.708252 201.148428 
L 165.19083 207.608856 
L 165.673408 208.993234 
L 166.155987 201.609888 
L 166.638565 205.76302 
L 167.121143 208.531775 
L 167.603721 203.917184 
L 168.0863 210.377611 
L 168.568878 214.992205 
L 169.051456 201.609887 
L 169.534035 212.223448 
L 170.016613 203.455724 
L 170.499191 202.994266 
L 170.98177 203.917184 
L 171.464348 202.532806 
L 171.946926 208.531776 
L 172.429504 205.763021 
L 172.912083 208.993236 
L 173.394661 199.302592 
L 173.877239 201.148428 
L 174.359818 202.532806 
L 174.842396 200.686969 
L 175.324974 202.532805 
L 175.807552 197.918215 
L 176.290131 201.609886 
L 176.772709 206.685939 
L 177.255287 197.456755 
L 177.737866 202.071347 
L 178.220444 198.841132 
L 178.703022 202.532805 
L 179.1856 202.071346 
L 179.668179 200.68697 
L 180.150757 202.071347 
L 180.633335 201.609887 
L 181.115914 199.302592 
L 181.598492 206.22448 
L 182.08107 202.994265 
L 182.563649 207.147398 
L 183.046227 202.071348 
L 183.528805 208.070315 
L 184.011383 198.841132 
L 184.493962 199.76405 
L 184.97654 220.068256 
L 185.459118 200.225508 
L 185.941697 207.608856 
L 186.424275 199.302592 
L 186.906853 201.148428 
L 187.389431 201.609887 
L 187.87201 201.148429 
L 188.354588 202.532806 
L 188.837166 199.764051 
L 189.319745 200.22551 
L 189.802323 198.841134 
L 190.284901 200.22551 
L 190.767479 199.302591 
L 191.250058 208.070317 
L 191.732636 194.688 
L 192.697793 202.994265 
L 193.180371 205.301561 
L 193.662949 206.685938 
L 194.145528 200.225511 
L 194.628106 200.686969 
L 195.110684 204.840101 
L 195.593262 196.533836 
L 196.075841 196.995295 
L 196.558419 201.148429 
L 197.040997 203.455725 
L 197.523576 201.148429 
L 198.006154 200.686969 
L 198.488732 202.532806 
L 198.97131 199.764051 
L 199.453889 199.76405 
L 199.936467 205.76302 
L 200.419045 198.841132 
L 200.901624 200.68697 
L 201.384202 201.148429 
L 201.86678 196.995296 
L 202.349358 202.071346 
L 202.831937 205.76302 
L 203.314515 195.149458 
L 203.797093 199.302592 
L 204.279672 197.918215 
L 204.76225 200.225511 
L 205.244828 196.995296 
L 205.727407 206.224479 
L 206.209985 198.841133 
L 206.692563 197.456755 
L 207.175141 198.841132 
L 207.65772 207.608857 
L 208.140298 200.22551 
L 208.622876 196.533837 
L 209.105455 201.148429 
L 209.105455 201.148429 
" style="fill:none;stroke:#1f77b4;stroke-linecap:square;stroke-width:1.5;"/>
   </g>
   <g id="patch_13">
    <path d="M 57.6 307.584 
L 57.6 189.312 
" style="fill:none;stroke:#000000;stroke-linecap:square;stroke-linejoin:miter;stroke-width:0.8;"/>
   </g>
   <g id="patch_14">
    <path d="M 216.32 307.584 
L 216.32 189.312 
" style="fill:none;stroke:#000000;stroke-linecap:square;stroke-linejoin:miter;stroke-width:0.8;"/>
   </g>
   <g id="patch_15">
    <path d="M 57.6 307.584 
L 216.32 307.584 
" style="fill:none;stroke:#000000;stroke-linecap:square;stroke-linejoin:miter;stroke-width:0.8;"/>
   </g>
   <g id="patch_16">
    <path d="M 57.6 189.312 
L 216.32 189.312 
" style="fill:none;stroke:#000000;stroke-linecap:square;stroke-linejoin:miter;stroke-width:0.8;"/>
   </g>
   <g id="text_26">
    <!-- val_acc -->
    <defs>
     <path d="M 2.984375 54.6875 
L 12.5 54.6875 
L 29.59375 8.796875 
L 46.6875 54.6875 
L 56.203125 54.6875 
L 35.6875 0 
L 23.484375 0 
z
" id="DejaVuSans-76"/>
     <path d="M 50.984375 -16.609375 
L 50.984375 -23.578125 
L -0.984375 -23.578125 
L -0.984375 -16.609375 
z
" id="DejaVuSans-5f"/>
    </defs>
    <g transform="translate(114.79 183.312)scale(0.12 -0.12)">
     <use xlink:href="#DejaVuSans-76"/>
     <use x="59.179688" xlink:href="#DejaVuSans-61"/>
     <use x="120.458984" xlink:href="#DejaVuSans-6c"/>
     <use x="148.242188" xlink:href="#DejaVuSans-5f"/>
     <use x="198.242188" xlink:href="#DejaVuSans-61"/>
     <use x="259.521484" xlink:href="#DejaVuSans-63"/>
     <use x="314.501953" xlink:href="#DejaVuSans-63"/>
    </g>
   </g>
  </g>
  <g id="axes_4">
   <g id="patch_17">
    <path d="M 256 307.584 
L 414.72 307.584 
L 414.72 189.312 
L 256 189.312 
z
" style="fill:#ffffff;"/>
   </g>
   <g id="matplotlib.axis_7">
    <g id="xtick_13">
     <g id="line2d_50">
      <path clip-path="url(#pccee7e2887)" d="M 263.214545 307.584 
L 263.214545 189.312 
" style="fill:none;stroke:#b0b0b0;stroke-linecap:square;stroke-width:0.8;"/>
     </g>
     <g id="line2d_51">
      <g>
       <use style="stroke:#000000;stroke-width:0.8;" x="263.214545" xlink:href="#m75ad2a393f" y="307.584"/>
      </g>
     </g>
     <g id="text_27">
      <!-- 0 -->
      <g transform="translate(260.033295 322.182437)scale(0.1 -0.1)">
       <use xlink:href="#DejaVuSans-30"/>
      </g>
     </g>
    </g>
    <g id="xtick_14">
     <g id="line2d_52">
      <path clip-path="url(#pccee7e2887)" d="M 311.472375 307.584 
L 311.472375 189.312 
" style="fill:none;stroke:#b0b0b0;stroke-linecap:square;stroke-width:0.8;"/>
     </g>
     <g id="line2d_53">
      <g>
       <use style="stroke:#000000;stroke-width:0.8;" x="311.472375" xlink:href="#m75ad2a393f" y="307.584"/>
      </g>
     </g>
     <g id="text_28">
      <!-- 100 -->
      <g transform="translate(301.928625 322.182437)scale(0.1 -0.1)">
       <use xlink:href="#DejaVuSans-31"/>
       <use x="63.623047" xlink:href="#DejaVuSans-30"/>
       <use x="127.246094" xlink:href="#DejaVuSans-30"/>
      </g>
     </g>
    </g>
    <g id="xtick_15">
     <g id="line2d_54">
      <path clip-path="url(#pccee7e2887)" d="M 359.730204 307.584 
L 359.730204 189.312 
" style="fill:none;stroke:#b0b0b0;stroke-linecap:square;stroke-width:0.8;"/>
     </g>
     <g id="line2d_55">
      <g>
       <use style="stroke:#000000;stroke-width:0.8;" x="359.730204" xlink:href="#m75ad2a393f" y="307.584"/>
      </g>
     </g>
     <g id="text_29">
      <!-- 200 -->
      <g transform="translate(350.186454 322.182437)scale(0.1 -0.1)">
       <use xlink:href="#DejaVuSans-32"/>
       <use x="63.623047" xlink:href="#DejaVuSans-30"/>
       <use x="127.246094" xlink:href="#DejaVuSans-30"/>
      </g>
     </g>
    </g>
    <g id="xtick_16">
     <g id="line2d_56">
      <path clip-path="url(#pccee7e2887)" d="M 407.988033 307.584 
L 407.988033 189.312 
" style="fill:none;stroke:#b0b0b0;stroke-linecap:square;stroke-width:0.8;"/>
     </g>
     <g id="line2d_57">
      <g>
       <use style="stroke:#000000;stroke-width:0.8;" x="407.988033" xlink:href="#m75ad2a393f" y="307.584"/>
      </g>
     </g>
     <g id="text_30">
      <!-- 300 -->
      <g transform="translate(398.444283 322.182437)scale(0.1 -0.1)">
       <use xlink:href="#DejaVuSans-33"/>
       <use x="63.623047" xlink:href="#DejaVuSans-30"/>
       <use x="127.246094" xlink:href="#DejaVuSans-30"/>
      </g>
     </g>
    </g>
   </g>
   <g id="matplotlib.axis_8">
    <g id="ytick_12">
     <g id="line2d_58">
      <path clip-path="url(#pccee7e2887)" d="M 256 267.514224 
L 414.72 267.514224 
" style="fill:none;stroke:#b0b0b0;stroke-linecap:square;stroke-width:0.8;"/>
     </g>
     <g id="line2d_59">
      <g>
       <use style="stroke:#000000;stroke-width:0.8;" x="256" xlink:href="#m02482a24a2" y="267.514224"/>
      </g>
     </g>
     <g id="text_31">
      <!-- 2 -->
      <g transform="translate(242.6375 271.313442)scale(0.1 -0.1)">
       <use xlink:href="#DejaVuSans-32"/>
      </g>
     </g>
    </g>
    <g id="ytick_13">
     <g id="line2d_60">
      <path clip-path="url(#pccee7e2887)" d="M 256 225.899216 
L 414.72 225.899216 
" style="fill:none;stroke:#b0b0b0;stroke-linecap:square;stroke-width:0.8;"/>
     </g>
     <g id="line2d_61">
      <g>
       <use style="stroke:#000000;stroke-width:0.8;" x="256" xlink:href="#m02482a24a2" y="225.899216"/>
      </g>
     </g>
     <g id="text_32">
      <!-- 4 -->
      <g transform="translate(242.6375 229.698435)scale(0.1 -0.1)">
       <use xlink:href="#DejaVuSans-34"/>
      </g>
     </g>
    </g>
   </g>
   <g id="line2d_62">
    <path clip-path="url(#pccee7e2887)" d="M 263.214545 194.688 
L 263.697124 200.734473 
L 264.179702 208.768269 
L 264.66228 214.937853 
L 266.110015 227.083284 
L 267.075172 233.202405 
L 268.040328 237.853164 
L 268.522907 239.165069 
L 269.005485 240.943171 
L 269.970642 243.18282 
L 270.45322 245.082785 
L 270.935798 245.978969 
L 271.418376 247.677205 
L 271.900955 248.504538 
L 272.383533 249.834924 
L 272.866111 250.192112 
L 273.34869 251.293984 
L 273.831268 251.314685 
L 274.313846 253.157409 
L 274.796424 253.551028 
L 275.279003 253.20849 
L 276.244159 256.682772 
L 276.726738 255.085775 
L 277.209316 256.638437 
L 277.691894 256.751836 
L 278.174472 258.943742 
L 279.139629 260.478085 
L 279.622207 260.773016 
L 280.104786 260.32917 
L 280.587364 260.783819 
L 281.069942 262.696147 
L 281.552521 262.569938 
L 282.035099 263.747164 
L 282.517677 264.595614 
L 283.000255 264.625483 
L 283.482834 264.859671 
L 283.965412 264.725331 
L 284.44799 265.552223 
L 284.930569 265.639636 
L 285.413147 267.708416 
L 285.895725 267.297463 
L 286.378303 266.339741 
L 286.860882 269.005646 
L 287.34346 268.973624 
L 287.826038 269.393902 
L 288.308617 270.445957 
L 288.791195 269.614313 
L 289.273773 271.381093 
L 289.756351 271.291145 
L 290.23893 271.326283 
L 290.721508 272.817705 
L 291.204086 273.741792 
L 291.686665 273.279862 
L 292.169243 273.187783 
L 292.651821 270.867071 
L 293.1344 274.563952 
L 293.616978 274.644594 
L 294.099556 273.026179 
L 294.582134 275.06699 
L 295.064713 274.880827 
L 295.547291 275.701022 
L 296.029869 276.804164 
L 296.512448 277.205836 
L 296.995026 277.015601 
L 297.477604 278.002778 
L 297.960182 277.998059 
L 298.442761 279.192071 
L 298.925339 278.725024 
L 299.407917 279.178862 
L 299.890496 278.829309 
L 300.373074 278.223429 
L 300.855652 279.930128 
L 301.33823 277.86963 
L 301.820809 281.202615 
L 302.303387 281.275388 
L 302.785965 277.857912 
L 303.268544 280.870691 
L 303.751122 278.259223 
L 304.2337 281.460561 
L 304.716279 280.093497 
L 305.198857 283.203624 
L 305.681435 282.941993 
L 306.164013 282.368466 
L 306.646592 281.496806 
L 307.12917 283.257044 
L 308.094327 283.945513 
L 308.576905 283.618533 
L 309.059483 284.535998 
L 309.542061 284.852583 
L 310.02464 283.440095 
L 310.507218 284.782899 
L 310.989796 285.280071 
L 311.472375 285.589432 
L 311.954953 286.097413 
L 312.437531 285.823429 
L 312.920109 285.17129 
L 313.402688 286.94069 
L 313.885266 286.390968 
L 314.367844 284.761603 
L 314.850423 287.015051 
L 315.333001 287.463144 
L 315.815579 287.427998 
L 316.298157 284.175214 
L 316.780736 288.922546 
L 317.263314 288.811512 
L 317.745892 289.038699 
L 318.228471 288.42873 
L 318.711049 289.346749 
L 319.193627 286.58018 
L 319.676206 288.335474 
L 320.158784 288.118197 
L 320.641362 289.405233 
L 321.12394 287.634693 
L 321.606519 289.569389 
L 322.089097 288.598969 
L 322.571675 289.064435 
L 323.054254 290.754869 
L 323.536832 288.922527 
L 324.01941 289.762595 
L 324.501988 286.137944 
L 324.984567 291.650261 
L 325.467145 291.039157 
L 325.949723 291.637981 
L 326.91488 290.418992 
L 327.397458 290.361279 
L 327.880036 291.824525 
L 328.362615 292.177951 
L 328.845193 292.946509 
L 329.327771 290.769884 
L 329.81035 289.791776 
L 330.292928 292.406081 
L 330.775506 291.608508 
L 331.258085 292.312884 
L 331.740663 292.330732 
L 332.223241 291.404834 
L 332.705819 292.626313 
L 333.188398 293.147436 
L 333.670976 291.930872 
L 334.153554 291.293768 
L 334.636133 292.996072 
L 335.118711 292.32893 
L 335.601289 294.604363 
L 336.083867 294.340753 
L 336.566446 292.671186 
L 337.049024 293.704946 
L 337.531602 291.244459 
L 338.014181 293.786527 
L 338.496759 294.277611 
L 338.979337 293.599919 
L 339.461915 290.776411 
L 339.944494 291.762814 
L 340.427072 287.57684 
L 340.90965 291.459572 
L 341.874807 295.427797 
L 342.357385 295.998446 
L 343.322542 292.199347 
L 343.80512 294.744254 
L 344.287698 296.531712 
L 344.770277 294.605774 
L 345.252855 294.756551 
L 345.735433 295.519171 
L 346.218012 290.951903 
L 346.70059 296.266885 
L 347.665746 295.437359 
L 348.148325 294.650821 
L 348.630903 289.907282 
L 349.113481 295.366339 
L 349.59606 292.188201 
L 350.078638 293.535666 
L 350.561216 295.340754 
L 351.043794 293.948926 
L 352.008951 295.262445 
L 352.491529 294.680619 
L 352.974108 296.347167 
L 353.456686 294.344038 
L 353.939264 293.490341 
L 354.421843 294.469826 
L 354.904421 295.880857 
L 355.386999 295.298409 
L 355.869577 295.646102 
L 356.352156 296.811026 
L 356.834734 297.545982 
L 357.317312 293.282759 
L 357.799891 298.103837 
L 358.282469 295.092951 
L 358.765047 296.892797 
L 359.247625 293.039128 
L 359.730204 297.996637 
L 360.212782 297.450172 
L 360.69536 297.758275 
L 361.177939 295.910946 
L 361.660517 296.952117 
L 362.143095 297.404416 
L 362.625673 296.887204 
L 363.108252 297.951074 
L 363.59083 295.685195 
L 364.073408 295.634228 
L 364.555987 298.292428 
L 365.038565 296.71144 
L 365.521143 296.002123 
L 366.003721 296.376685 
L 366.4863 295.524452 
L 366.968878 293.162012 
L 367.451456 298.83465 
L 367.934035 293.949001 
L 368.416613 297.947234 
L 368.899191 298.324028 
L 369.38177 297.335001 
L 369.864348 299.364397 
L 370.346926 296.280343 
L 370.829504 297.56413 
L 371.312083 294.867595 
L 371.794661 298.987742 
L 372.277239 299.407309 
L 372.759818 297.984334 
L 373.242396 298.711209 
L 373.724974 299.70389 
L 374.207552 299.406038 
L 374.690131 298.771193 
L 375.172709 295.911046 
L 375.655287 300.097849 
L 376.137866 298.06968 
L 376.620444 299.695658 
L 377.103022 299.094941 
L 377.5856 299.287552 
L 378.068179 298.873942 
L 378.550757 299.354895 
L 379.515914 299.641728 
L 379.998492 297.909373 
L 380.48107 297.886153 
L 380.963649 295.374274 
L 381.446227 298.2718 
L 381.928805 297.45921 
L 382.411383 300.395039 
L 382.893962 300.030272 
L 383.37654 289.651757 
L 383.859118 299.653548 
L 384.341697 295.883125 
L 384.824275 300.061327 
L 385.306853 299.650148 
L 385.789431 299.565971 
L 386.27201 299.092146 
L 386.754588 298.927001 
L 387.719745 300.353556 
L 388.202323 300.50478 
L 388.684901 300.130009 
L 389.167479 300.983729 
L 389.650058 295.618923 
L 390.132636 301.500136 
L 391.097793 298.571381 
L 392.062949 298.481076 
L 392.545528 300.173381 
L 393.028106 299.871191 
L 393.510684 298.216063 
L 393.993262 301.16841 
L 394.475841 301.475365 
L 394.958419 300.602589 
L 395.440997 299.135106 
L 395.923576 300.228899 
L 396.406154 300.340205 
L 396.888732 299.399693 
L 397.37131 300.947168 
L 397.853889 300.416027 
L 398.336467 297.537436 
L 398.819045 301.179808 
L 399.301624 299.544737 
L 399.784202 300.848355 
L 400.26678 301.110665 
L 400.749358 298.187594 
L 401.231937 298.275951 
L 401.714515 301.556373 
L 402.197093 301.117884 
L 402.679672 301.471925 
L 403.16225 300.61889 
L 403.644828 301.376165 
L 404.127407 297.831852 
L 404.609985 302.208 
L 405.092563 301.469821 
L 406.05772 298.431691 
L 407.022876 301.975266 
L 407.505455 300.379128 
L 407.505455 300.379128 
" style="fill:none;stroke:#1f77b4;stroke-linecap:square;stroke-width:1.5;"/>
   </g>
   <g id="patch_18">
    <path d="M 256 307.584 
L 256 189.312 
" style="fill:none;stroke:#000000;stroke-linecap:square;stroke-linejoin:miter;stroke-width:0.8;"/>
   </g>
   <g id="patch_19">
    <path d="M 414.72 307.584 
L 414.72 189.312 
" style="fill:none;stroke:#000000;stroke-linecap:square;stroke-linejoin:miter;stroke-width:0.8;"/>
   </g>
   <g id="patch_20">
    <path d="M 256 307.584 
L 414.72 307.584 
" style="fill:none;stroke:#000000;stroke-linecap:square;stroke-linejoin:miter;stroke-width:0.8;"/>
   </g>
   <g id="patch_21">
    <path d="M 256 189.312 
L 414.72 189.312 
" style="fill:none;stroke:#000000;stroke-linecap:square;stroke-linejoin:miter;stroke-width:0.8;"/>
   </g>
   <g id="text_33">
    <!-- val_loss -->
    <g transform="translate(311.875625 183.312)scale(0.12 -0.12)">
     <use xlink:href="#DejaVuSans-76"/>
     <use x="59.179688" xlink:href="#DejaVuSans-61"/>
     <use x="120.458984" xlink:href="#DejaVuSans-6c"/>
     <use x="148.242188" xlink:href="#DejaVuSans-5f"/>
     <use x="198.242188" xlink:href="#DejaVuSans-6c"/>
     <use x="226.025391" xlink:href="#DejaVuSans-6f"/>
     <use x="287.207031" xlink:href="#DejaVuSans-73"/>
     <use x="339.306641" xlink:href="#DejaVuSans-73"/>
    </g>
   </g>
  </g>
  <g id="text_34">
   <!-- model2 20171023_144110 -->
   <defs>
    <path d="M 52 44.1875 
Q 55.375 50.25 60.0625 53.125 
Q 64.75 56 71.09375 56 
Q 79.640625 56 84.28125 50.015625 
Q 88.921875 44.046875 88.921875 33.015625 
L 88.921875 0 
L 79.890625 0 
L 79.890625 32.71875 
Q 79.890625 40.578125 77.09375 44.375 
Q 74.3125 48.1875 68.609375 48.1875 
Q 61.625 48.1875 57.5625 43.546875 
Q 53.515625 38.921875 53.515625 30.90625 
L 53.515625 0 
L 44.484375 0 
L 44.484375 32.71875 
Q 44.484375 40.625 41.703125 44.40625 
Q 38.921875 48.1875 33.109375 48.1875 
Q 26.21875 48.1875 22.15625 43.53125 
Q 18.109375 38.875 18.109375 30.90625 
L 18.109375 0 
L 9.078125 0 
L 9.078125 54.6875 
L 18.109375 54.6875 
L 18.109375 46.1875 
Q 21.1875 51.21875 25.484375 53.609375 
Q 29.78125 56 35.6875 56 
Q 41.65625 56 45.828125 52.96875 
Q 50 49.953125 52 44.1875 
z
" id="DejaVuSans-6d"/>
    <path d="M 45.40625 46.390625 
L 45.40625 75.984375 
L 54.390625 75.984375 
L 54.390625 0 
L 45.40625 0 
L 45.40625 8.203125 
Q 42.578125 3.328125 38.25 0.953125 
Q 33.9375 -1.421875 27.875 -1.421875 
Q 17.96875 -1.421875 11.734375 6.484375 
Q 5.515625 14.40625 5.515625 27.296875 
Q 5.515625 40.1875 11.734375 48.09375 
Q 17.96875 56 27.875 56 
Q 33.9375 56 38.25 53.625 
Q 42.578125 51.265625 45.40625 46.390625 
z
M 14.796875 27.296875 
Q 14.796875 17.390625 18.875 11.75 
Q 22.953125 6.109375 30.078125 6.109375 
Q 37.203125 6.109375 41.296875 11.75 
Q 45.40625 17.390625 45.40625 27.296875 
Q 45.40625 37.203125 41.296875 42.84375 
Q 37.203125 48.484375 30.078125 48.484375 
Q 22.953125 48.484375 18.875 42.84375 
Q 14.796875 37.203125 14.796875 27.296875 
z
" id="DejaVuSans-64"/>
    <path d="M 56.203125 29.59375 
L 56.203125 25.203125 
L 14.890625 25.203125 
Q 15.484375 15.921875 20.484375 11.0625 
Q 25.484375 6.203125 34.421875 6.203125 
Q 39.59375 6.203125 44.453125 7.46875 
Q 49.3125 8.734375 54.109375 11.28125 
L 54.109375 2.78125 
Q 49.265625 0.734375 44.1875 -0.34375 
Q 39.109375 -1.421875 33.890625 -1.421875 
Q 20.796875 -1.421875 13.15625 6.1875 
Q 5.515625 13.8125 5.515625 26.8125 
Q 5.515625 40.234375 12.765625 48.109375 
Q 20.015625 56 32.328125 56 
Q 43.359375 56 49.78125 48.890625 
Q 56.203125 41.796875 56.203125 29.59375 
z
M 47.21875 32.234375 
Q 47.125 39.59375 43.09375 43.984375 
Q 39.0625 48.390625 32.421875 48.390625 
Q 24.90625 48.390625 20.390625 44.140625 
Q 15.875 39.890625 15.1875 32.171875 
z
" id="DejaVuSans-65"/>
    <path id="DejaVuSans-20"/>
   </defs>
   <g transform="translate(149.547188 16.030125)scale(0.12 -0.12)">
    <use xlink:href="#DejaVuSans-6d"/>
    <use x="97.412109" xlink:href="#DejaVuSans-6f"/>
    <use x="158.59375" xlink:href="#DejaVuSans-64"/>
    <use x="222.070312" xlink:href="#DejaVuSans-65"/>
    <use x="283.59375" xlink:href="#DejaVuSans-6c"/>
    <use x="311.376953" xlink:href="#DejaVuSans-32"/>
    <use x="375" xlink:href="#DejaVuSans-20"/>
    <use x="406.787109" xlink:href="#DejaVuSans-32"/>
    <use x="470.410156" xlink:href="#DejaVuSans-30"/>
    <use x="534.033203" xlink:href="#DejaVuSans-31"/>
    <use x="597.65625" xlink:href="#DejaVuSans-37"/>
    <use x="661.279297" xlink:href="#DejaVuSans-31"/>
    <use x="724.902344" xlink:href="#DejaVuSans-30"/>
    <use x="788.525391" xlink:href="#DejaVuSans-32"/>
    <use x="852.148438" xlink:href="#DejaVuSans-33"/>
    <use x="915.771484" xlink:href="#DejaVuSans-5f"/>
    <use x="965.771484" xlink:href="#DejaVuSans-31"/>
    <use x="1029.394531" xlink:href="#DejaVuSans-34"/>
    <use x="1093.017578" xlink:href="#DejaVuSans-34"/>
    <use x="1156.640625" xlink:href="#DejaVuSans-31"/>
    <use x="1220.263672" xlink:href="#DejaVuSans-31"/>
    <use x="1283.886719" xlink:href="#DejaVuSans-30"/>
   </g>
  </g>
 </g>
 <defs>
  <clipPath id="p3fff500ad4">
   <rect height="118.272" width="158.72" x="57.6" y="41.472"/>
  </clipPath>
  <clipPath id="p657a7f7c62">
   <rect height="118.272" width="158.72" x="256" y="41.472"/>
  </clipPath>
  <clipPath id="pb939908f11">
   <rect height="118.272" width="158.72" x="57.6" y="189.312"/>
  </clipPath>
  <clipPath id="pccee7e2887">
   <rect height="118.272" width="158.72" x="256" y="189.312"/>
  </clipPath>
 </defs>
</svg>
