<?xml version="1.0" encoding="utf-8" standalone="no"?>
<!DOCTYPE svg PUBLIC "-//W3C//DTD SVG 1.1//EN"
  "http://www.w3.org/Graphics/SVG/1.1/DTD/svg11.dtd">
<!-- Created with matplotlib (http://matplotlib.org/) -->
<svg height="345pt" version="1.1" viewBox="0 0 460 345" width="460pt" xmlns="http://www.w3.org/2000/svg" xmlns:xlink="http://www.w3.org/1999/xlink">
 <defs>
  <style type="text/css">
*{stroke-linecap:butt;stroke-linejoin:round;}
  </style>
 </defs>
 <g id="figure_1">
  <g id="patch_1">
   <path d="M 0 345.6 
L 460.8 345.6 
L 460.8 0 
L 0 0 
z
" style="fill:#ffffff;"/>
  </g>
  <g id="axes_1">
   <g id="patch_2">
    <path d="M 57.6 159.744 
L 216.32 159.744 
L 216.32 41.472 
L 57.6 41.472 
z
" style="fill:#ffffff;"/>
   </g>
   <g id="matplotlib.axis_1">
    <g id="xtick_1">
     <g id="line2d_1">
      <path clip-path="url(#pac84648e4b)" d="M 64.814545 159.744 
L 64.814545 41.472 
" style="fill:none;stroke:#b0b0b0;stroke-linecap:square;stroke-width:0.8;"/>
     </g>
     <g id="line2d_2">
      <defs>
       <path d="M 0 0 
L 0 3.5 
" id="m9e4f818af3" style="stroke:#000000;stroke-width:0.8;"/>
      </defs>
      <g>
       <use style="stroke:#000000;stroke-width:0.8;" x="64.814545" xlink:href="#m9e4f818af3" y="159.744"/>
      </g>
     </g>
     <g id="text_1">
      <!-- 0 -->
      <defs>
       <path d="M 31.78125 66.40625 
Q 24.171875 66.40625 20.328125 58.90625 
Q 16.5 51.421875 16.5 36.375 
Q 16.5 21.390625 20.328125 13.890625 
Q 24.171875 6.390625 31.78125 6.390625 
Q 39.453125 6.390625 43.28125 13.890625 
Q 47.125 21.390625 47.125 36.375 
Q 47.125 51.421875 43.28125 58.90625 
Q 39.453125 66.40625 31.78125 66.40625 
z
M 31.78125 74.21875 
Q 44.046875 74.21875 50.515625 64.515625 
Q 56.984375 54.828125 56.984375 36.375 
Q 56.984375 17.96875 50.515625 8.265625 
Q 44.046875 -1.421875 31.78125 -1.421875 
Q 19.53125 -1.421875 13.0625 8.265625 
Q 6.59375 17.96875 6.59375 36.375 
Q 6.59375 54.828125 13.0625 64.515625 
Q 19.53125 74.21875 31.78125 74.21875 
z
" id="DejaVuSans-30"/>
      </defs>
      <g transform="translate(61.633295 174.342437)scale(0.1 -0.1)">
       <use xlink:href="#DejaVuSans-30"/>
      </g>
     </g>
    </g>
    <g id="xtick_2">
     <g id="line2d_3">
      <path clip-path="url(#pac84648e4b)" d="M 113.072375 159.744 
L 113.072375 41.472 
" style="fill:none;stroke:#b0b0b0;stroke-linecap:square;stroke-width:0.8;"/>
     </g>
     <g id="line2d_4">
      <g>
       <use style="stroke:#000000;stroke-width:0.8;" x="113.072375" xlink:href="#m9e4f818af3" y="159.744"/>
      </g>
     </g>
     <g id="text_2">
      <!-- 100 -->
      <defs>
       <path d="M 12.40625 8.296875 
L 28.515625 8.296875 
L 28.515625 63.921875 
L 10.984375 60.40625 
L 10.984375 69.390625 
L 28.421875 72.90625 
L 38.28125 72.90625 
L 38.28125 8.296875 
L 54.390625 8.296875 
L 54.390625 0 
L 12.40625 0 
z
" id="DejaVuSans-31"/>
      </defs>
      <g transform="translate(103.528625 174.342437)scale(0.1 -0.1)">
       <use xlink:href="#DejaVuSans-31"/>
       <use x="63.623047" xlink:href="#DejaVuSans-30"/>
       <use x="127.246094" xlink:href="#DejaVuSans-30"/>
      </g>
     </g>
    </g>
    <g id="xtick_3">
     <g id="line2d_5">
      <path clip-path="url(#pac84648e4b)" d="M 161.330204 159.744 
L 161.330204 41.472 
" style="fill:none;stroke:#b0b0b0;stroke-linecap:square;stroke-width:0.8;"/>
     </g>
     <g id="line2d_6">
      <g>
       <use style="stroke:#000000;stroke-width:0.8;" x="161.330204" xlink:href="#m9e4f818af3" y="159.744"/>
      </g>
     </g>
     <g id="text_3">
      <!-- 200 -->
      <defs>
       <path d="M 19.1875 8.296875 
L 53.609375 8.296875 
L 53.609375 0 
L 7.328125 0 
L 7.328125 8.296875 
Q 12.9375 14.109375 22.625 23.890625 
Q 32.328125 33.6875 34.8125 36.53125 
Q 39.546875 41.84375 41.421875 45.53125 
Q 43.3125 49.21875 43.3125 52.78125 
Q 43.3125 58.59375 39.234375 62.25 
Q 35.15625 65.921875 28.609375 65.921875 
Q 23.96875 65.921875 18.8125 64.3125 
Q 13.671875 62.703125 7.8125 59.421875 
L 7.8125 69.390625 
Q 13.765625 71.78125 18.9375 73 
Q 24.125 74.21875 28.421875 74.21875 
Q 39.75 74.21875 46.484375 68.546875 
Q 53.21875 62.890625 53.21875 53.421875 
Q 53.21875 48.921875 51.53125 44.890625 
Q 49.859375 40.875 45.40625 35.40625 
Q 44.1875 33.984375 37.640625 27.21875 
Q 31.109375 20.453125 19.1875 8.296875 
z
" id="DejaVuSans-32"/>
      </defs>
      <g transform="translate(151.786454 174.342437)scale(0.1 -0.1)">
       <use xlink:href="#DejaVuSans-32"/>
       <use x="63.623047" xlink:href="#DejaVuSans-30"/>
       <use x="127.246094" xlink:href="#DejaVuSans-30"/>
      </g>
     </g>
    </g>
    <g id="xtick_4">
     <g id="line2d_7">
      <path clip-path="url(#pac84648e4b)" d="M 209.588033 159.744 
L 209.588033 41.472 
" style="fill:none;stroke:#b0b0b0;stroke-linecap:square;stroke-width:0.8;"/>
     </g>
     <g id="line2d_8">
      <g>
       <use style="stroke:#000000;stroke-width:0.8;" x="209.588033" xlink:href="#m9e4f818af3" y="159.744"/>
      </g>
     </g>
     <g id="text_4">
      <!-- 300 -->
      <defs>
       <path d="M 40.578125 39.3125 
Q 47.65625 37.796875 51.625 33 
Q 55.609375 28.21875 55.609375 21.1875 
Q 55.609375 10.40625 48.1875 4.484375 
Q 40.765625 -1.421875 27.09375 -1.421875 
Q 22.515625 -1.421875 17.65625 -0.515625 
Q 12.796875 0.390625 7.625 2.203125 
L 7.625 11.71875 
Q 11.71875 9.328125 16.59375 8.109375 
Q 21.484375 6.890625 26.8125 6.890625 
Q 36.078125 6.890625 40.9375 10.546875 
Q 45.796875 14.203125 45.796875 21.1875 
Q 45.796875 27.640625 41.28125 31.265625 
Q 36.765625 34.90625 28.71875 34.90625 
L 20.21875 34.90625 
L 20.21875 43.015625 
L 29.109375 43.015625 
Q 36.375 43.015625 40.234375 45.921875 
Q 44.09375 48.828125 44.09375 54.296875 
Q 44.09375 59.90625 40.109375 62.90625 
Q 36.140625 65.921875 28.71875 65.921875 
Q 24.65625 65.921875 20.015625 65.03125 
Q 15.375 64.15625 9.8125 62.3125 
L 9.8125 71.09375 
Q 15.4375 72.65625 20.34375 73.4375 
Q 25.25 74.21875 29.59375 74.21875 
Q 40.828125 74.21875 47.359375 69.109375 
Q 53.90625 64.015625 53.90625 55.328125 
Q 53.90625 49.265625 50.4375 45.09375 
Q 46.96875 40.921875 40.578125 39.3125 
z
" id="DejaVuSans-33"/>
      </defs>
      <g transform="translate(200.044283 174.342437)scale(0.1 -0.1)">
       <use xlink:href="#DejaVuSans-33"/>
       <use x="63.623047" xlink:href="#DejaVuSans-30"/>
       <use x="127.246094" xlink:href="#DejaVuSans-30"/>
      </g>
     </g>
    </g>
   </g>
   <g id="matplotlib.axis_2">
    <g id="ytick_1">
     <g id="line2d_9">
      <path clip-path="url(#pac84648e4b)" d="M 57.6 154.691855 
L 216.32 154.691855 
" style="fill:none;stroke:#b0b0b0;stroke-linecap:square;stroke-width:0.8;"/>
     </g>
     <g id="line2d_10">
      <defs>
       <path d="M 0 0 
L -3.5 0 
" id="m6939a6f924" style="stroke:#000000;stroke-width:0.8;"/>
      </defs>
      <g>
       <use style="stroke:#000000;stroke-width:0.8;" x="57.6" xlink:href="#m6939a6f924" y="154.691855"/>
      </g>
     </g>
     <g id="text_5">
      <!-- 0.0 -->
      <defs>
       <path d="M 10.6875 12.40625 
L 21 12.40625 
L 21 0 
L 10.6875 0 
z
" id="DejaVuSans-2e"/>
      </defs>
      <g transform="translate(34.696875 158.491074)scale(0.1 -0.1)">
       <use xlink:href="#DejaVuSans-30"/>
       <use x="63.623047" xlink:href="#DejaVuSans-2e"/>
       <use x="95.410156" xlink:href="#DejaVuSans-30"/>
      </g>
     </g>
    </g>
    <g id="ytick_2">
     <g id="line2d_11">
      <path clip-path="url(#pac84648e4b)" d="M 57.6 129.819759 
L 216.32 129.819759 
" style="fill:none;stroke:#b0b0b0;stroke-linecap:square;stroke-width:0.8;"/>
     </g>
     <g id="line2d_12">
      <g>
       <use style="stroke:#000000;stroke-width:0.8;" x="57.6" xlink:href="#m6939a6f924" y="129.819759"/>
      </g>
     </g>
     <g id="text_6">
      <!-- 0.2 -->
      <g transform="translate(34.696875 133.618978)scale(0.1 -0.1)">
       <use xlink:href="#DejaVuSans-30"/>
       <use x="63.623047" xlink:href="#DejaVuSans-2e"/>
       <use x="95.410156" xlink:href="#DejaVuSans-32"/>
      </g>
     </g>
    </g>
    <g id="ytick_3">
     <g id="line2d_13">
      <path clip-path="url(#pac84648e4b)" d="M 57.6 104.947663 
L 216.32 104.947663 
" style="fill:none;stroke:#b0b0b0;stroke-linecap:square;stroke-width:0.8;"/>
     </g>
     <g id="line2d_14">
      <g>
       <use style="stroke:#000000;stroke-width:0.8;" x="57.6" xlink:href="#m6939a6f924" y="104.947663"/>
      </g>
     </g>
     <g id="text_7">
      <!-- 0.4 -->
      <defs>
       <path d="M 37.796875 64.3125 
L 12.890625 25.390625 
L 37.796875 25.390625 
z
M 35.203125 72.90625 
L 47.609375 72.90625 
L 47.609375 25.390625 
L 58.015625 25.390625 
L 58.015625 17.1875 
L 47.609375 17.1875 
L 47.609375 0 
L 37.796875 0 
L 37.796875 17.1875 
L 4.890625 17.1875 
L 4.890625 26.703125 
z
" id="DejaVuSans-34"/>
      </defs>
      <g transform="translate(34.696875 108.746881)scale(0.1 -0.1)">
       <use xlink:href="#DejaVuSans-30"/>
       <use x="63.623047" xlink:href="#DejaVuSans-2e"/>
       <use x="95.410156" xlink:href="#DejaVuSans-34"/>
      </g>
     </g>
    </g>
    <g id="ytick_4">
     <g id="line2d_15">
      <path clip-path="url(#pac84648e4b)" d="M 57.6 80.075566 
L 216.32 80.075566 
" style="fill:none;stroke:#b0b0b0;stroke-linecap:square;stroke-width:0.8;"/>
     </g>
     <g id="line2d_16">
      <g>
       <use style="stroke:#000000;stroke-width:0.8;" x="57.6" xlink:href="#m6939a6f924" y="80.075566"/>
      </g>
     </g>
     <g id="text_8">
      <!-- 0.6 -->
      <defs>
       <path d="M 33.015625 40.375 
Q 26.375 40.375 22.484375 35.828125 
Q 18.609375 31.296875 18.609375 23.390625 
Q 18.609375 15.53125 22.484375 10.953125 
Q 26.375 6.390625 33.015625 6.390625 
Q 39.65625 6.390625 43.53125 10.953125 
Q 47.40625 15.53125 47.40625 23.390625 
Q 47.40625 31.296875 43.53125 35.828125 
Q 39.65625 40.375 33.015625 40.375 
z
M 52.59375 71.296875 
L 52.59375 62.3125 
Q 48.875 64.0625 45.09375 64.984375 
Q 41.3125 65.921875 37.59375 65.921875 
Q 27.828125 65.921875 22.671875 59.328125 
Q 17.53125 52.734375 16.796875 39.40625 
Q 19.671875 43.65625 24.015625 45.921875 
Q 28.375 48.1875 33.59375 48.1875 
Q 44.578125 48.1875 50.953125 41.515625 
Q 57.328125 34.859375 57.328125 23.390625 
Q 57.328125 12.15625 50.6875 5.359375 
Q 44.046875 -1.421875 33.015625 -1.421875 
Q 20.359375 -1.421875 13.671875 8.265625 
Q 6.984375 17.96875 6.984375 36.375 
Q 6.984375 53.65625 15.1875 63.9375 
Q 23.390625 74.21875 37.203125 74.21875 
Q 40.921875 74.21875 44.703125 73.484375 
Q 48.484375 72.75 52.59375 71.296875 
z
" id="DejaVuSans-36"/>
      </defs>
      <g transform="translate(34.696875 83.874785)scale(0.1 -0.1)">
       <use xlink:href="#DejaVuSans-30"/>
       <use x="63.623047" xlink:href="#DejaVuSans-2e"/>
       <use x="95.410156" xlink:href="#DejaVuSans-36"/>
      </g>
     </g>
    </g>
    <g id="ytick_5">
     <g id="line2d_17">
      <path clip-path="url(#pac84648e4b)" d="M 57.6 55.20347 
L 216.32 55.20347 
" style="fill:none;stroke:#b0b0b0;stroke-linecap:square;stroke-width:0.8;"/>
     </g>
     <g id="line2d_18">
      <g>
       <use style="stroke:#000000;stroke-width:0.8;" x="57.6" xlink:href="#m6939a6f924" y="55.20347"/>
      </g>
     </g>
     <g id="text_9">
      <!-- 0.8 -->
      <defs>
       <path d="M 31.78125 34.625 
Q 24.75 34.625 20.71875 30.859375 
Q 16.703125 27.09375 16.703125 20.515625 
Q 16.703125 13.921875 20.71875 10.15625 
Q 24.75 6.390625 31.78125 6.390625 
Q 38.8125 6.390625 42.859375 10.171875 
Q 46.921875 13.96875 46.921875 20.515625 
Q 46.921875 27.09375 42.890625 30.859375 
Q 38.875 34.625 31.78125 34.625 
z
M 21.921875 38.8125 
Q 15.578125 40.375 12.03125 44.71875 
Q 8.5 49.078125 8.5 55.328125 
Q 8.5 64.0625 14.71875 69.140625 
Q 20.953125 74.21875 31.78125 74.21875 
Q 42.671875 74.21875 48.875 69.140625 
Q 55.078125 64.0625 55.078125 55.328125 
Q 55.078125 49.078125 51.53125 44.71875 
Q 48 40.375 41.703125 38.8125 
Q 48.828125 37.15625 52.796875 32.3125 
Q 56.78125 27.484375 56.78125 20.515625 
Q 56.78125 9.90625 50.3125 4.234375 
Q 43.84375 -1.421875 31.78125 -1.421875 
Q 19.734375 -1.421875 13.25 4.234375 
Q 6.78125 9.90625 6.78125 20.515625 
Q 6.78125 27.484375 10.78125 32.3125 
Q 14.796875 37.15625 21.921875 38.8125 
z
M 18.3125 54.390625 
Q 18.3125 48.734375 21.84375 45.5625 
Q 25.390625 42.390625 31.78125 42.390625 
Q 38.140625 42.390625 41.71875 45.5625 
Q 45.3125 48.734375 45.3125 54.390625 
Q 45.3125 60.0625 41.71875 63.234375 
Q 38.140625 66.40625 31.78125 66.40625 
Q 25.390625 66.40625 21.84375 63.234375 
Q 18.3125 60.0625 18.3125 54.390625 
z
" id="DejaVuSans-38"/>
      </defs>
      <g transform="translate(34.696875 59.002689)scale(0.1 -0.1)">
       <use xlink:href="#DejaVuSans-30"/>
       <use x="63.623047" xlink:href="#DejaVuSans-2e"/>
       <use x="95.410156" xlink:href="#DejaVuSans-38"/>
      </g>
     </g>
    </g>
   </g>
   <g id="line2d_19">
    <path clip-path="url(#pac84648e4b)" d="M 64.814545 154.368 
L 66.744859 152.546313 
L 67.227437 151.453301 
L 67.710015 150.076916 
L 68.192593 149.631614 
L 68.675172 148.093301 
L 69.640328 146.676434 
L 70.122907 144.895229 
L 70.605485 144.288 
L 71.088063 142.668723 
L 71.570642 141.859084 
L 73.500955 137.082216 
L 73.983533 135.05812 
L 74.466111 135.786795 
L 74.94869 134.208 
L 75.431268 134.288963 
L 75.913846 133.398361 
L 76.396424 131.374265 
L 76.879003 130.807518 
L 77.361581 130.64559 
L 77.844159 129.674024 
L 78.326738 129.066795 
L 78.809316 127.609445 
L 79.291894 127.042698 
L 79.774472 125.990168 
L 80.257051 126.273542 
L 80.739629 124.532819 
L 81.222207 124.047035 
L 81.704786 122.387277 
L 82.187364 122.751614 
L 82.669942 122.46824 
L 83.152521 121.820529 
L 83.635099 120.36318 
L 84.117677 119.31065 
L 84.600255 119.917879 
L 85.082834 118.136674 
L 85.565412 117.8533 
L 86.04799 116.922216 
L 86.530569 117.812819 
L 87.013147 116.679325 
L 87.495725 116.436433 
L 87.978303 114.776674 
L 88.460882 116.112578 
L 88.94346 113.481252 
L 89.426038 114.817156 
L 89.908617 115.060047 
L 90.391195 111.821493 
L 90.873773 111.983421 
L 91.356351 111.092818 
L 91.83893 110.890409 
L 92.321508 109.23065 
L 92.804086 110.971373 
L 93.769243 108.218601 
L 94.251821 107.7733 
L 94.7344 107.7733 
L 95.216978 106.680288 
L 95.699556 104.61571 
L 96.182134 104.4133 
L 96.664713 104.939565 
L 97.147291 104.251373 
L 97.629869 103.846553 
L 98.112448 103.279806 
L 98.595026 101.943903 
L 99.077604 102.632096 
L 99.560182 100.486553 
L 100.042761 101.45812 
L 101.007917 99.029204 
L 101.490496 99.272096 
L 101.973074 97.814746 
L 102.455652 98.583903 
L 102.93823 96.721734 
L 103.420809 96.600288 
L 103.903387 97.774264 
L 104.385965 95.345348 
L 104.868544 96.154987 
L 105.8337 92.835469 
L 106.316279 94.616673 
L 106.798857 93.199806 
L 107.764013 91.742457 
L 108.246592 91.499565 
L 108.72917 90.042216 
L 109.211748 90.001734 
L 110.176905 87.896673 
L 110.659483 87.653782 
L 111.142061 88.584866 
L 111.62464 86.56077 
L 112.107218 86.803661 
L 112.589796 85.872577 
L 113.072375 86.115469 
L 113.554953 85.143902 
L 114.037531 84.698601 
L 115.002688 82.79595 
L 115.485266 83.362697 
L 115.967844 81.500529 
L 116.450423 82.067276 
L 116.933001 80.933782 
L 117.415579 82.229204 
L 117.898157 80.69089 
L 118.380736 78.707276 
L 118.863314 80.124143 
L 119.345892 79.597878 
L 119.828471 78.019082 
L 120.311049 77.5333 
L 120.793627 77.573782 
L 121.276206 76.966552 
L 121.758784 77.371372 
L 122.241362 76.642697 
L 122.72394 76.845107 
L 123.206519 75.468721 
L 123.689097 75.266312 
L 124.171675 75.428239 
L 124.654254 75.387757 
L 125.136832 75.185348 
L 125.61941 73.687517 
L 126.584567 73.606552 
L 127.067145 72.675469 
L 127.549723 72.473058 
L 128.032302 73.444625 
L 128.997458 71.015709 
L 129.480036 72.027757 
L 129.962615 69.720288 
L 130.927771 72.230167 
L 131.41035 70.975227 
L 131.892928 70.732336 
L 133.340663 68.060528 
L 133.823241 69.072577 
L 134.305819 69.396432 
L 134.788398 68.181975 
L 135.270976 67.979565 
L 135.753554 68.951131 
L 136.236133 67.615227 
L 136.718711 67.04848 
L 137.201289 67.898601 
L 137.683867 67.412818 
L 138.166446 66.603179 
L 138.649024 66.441251 
L 139.131602 65.469685 
L 139.614181 65.064866 
L 140.096759 65.834022 
L 140.579337 64.821974 
L 141.061915 66.238842 
L 141.544494 64.700528 
L 142.027072 65.186311 
L 142.50965 64.012336 
L 142.992229 64.174264 
L 143.474807 62.919324 
L 143.957385 64.0933 
L 144.439964 64.133781 
L 144.922542 62.63595 
L 145.40512 62.959806 
L 145.887698 62.83836 
L 146.370277 62.919324 
L 146.852855 64.052818 
L 147.335433 62.231131 
L 147.818012 62.028721 
L 148.30059 62.069203 
L 148.783168 63.000287 
L 149.265746 62.514504 
L 149.748325 61.664385 
L 150.230903 61.38101 
L 150.713481 61.583421 
L 151.678638 60.7333 
L 152.161216 61.623902 
L 152.643794 60.692818 
L 153.126373 59.194987 
L 153.608951 59.721252 
L 154.091529 59.88318 
L 154.574108 61.421492 
L 155.539264 58.952095 
L 156.021843 59.356915 
L 156.504421 58.790167 
L 157.469577 59.923661 
L 157.952156 59.154505 
L 158.434734 59.194986 
L 158.917312 58.790167 
L 159.399891 58.952095 
L 159.882469 58.385348 
L 160.365047 58.385348 
L 160.847625 57.413782 
L 161.330204 59.235468 
L 161.812782 57.17089 
L 162.29536 57.697155 
L 163.260517 57.170891 
L 163.743095 57.535228 
L 164.225673 55.511131 
L 164.708252 56.523179 
L 165.19083 56.72559 
L 165.673408 57.089927 
L 166.155987 56.604143 
L 168.0863 55.713541 
L 168.568878 54.782457 
L 169.051456 56.239806 
L 169.534035 55.106313 
L 170.016613 55.875469 
L 170.499191 54.580047 
L 170.98177 54.337156 
L 171.946926 55.915951 
L 172.429504 54.984866 
L 172.912083 54.377638 
L 173.394661 54.337156 
L 173.877239 55.673059 
L 174.359818 53.527517 
L 174.842396 54.256192 
L 175.324974 54.134746 
L 176.290131 54.822938 
L 176.772709 52.717879 
L 177.255287 52.394024 
L 177.737866 53.365589 
L 178.220444 53.851372 
L 178.703022 53.810891 
L 179.1856 53.36559 
L 179.668179 52.272578 
L 180.150757 53.244144 
L 180.633335 53.122698 
L 181.598492 53.446553 
L 182.08107 53.203662 
L 182.563649 52.515469 
L 183.046227 51.422458 
L 183.528805 52.029686 
L 184.011383 50.936674 
L 184.493962 51.90824 
L 184.97654 52.353542 
L 185.459118 51.705831 
L 185.941697 51.584385 
L 186.424275 51.989204 
L 186.906853 52.191614 
L 187.389431 51.746313 
L 187.87201 50.896192 
L 188.354588 50.653301 
L 188.837166 51.179566 
L 189.319745 50.531855 
L 189.802323 50.572337 
L 190.284901 49.722216 
L 190.767479 51.05812 
L 191.250058 51.220048 
L 191.732636 49.236434 
L 192.697793 50.734265 
L 193.180371 50.774746 
L 193.662949 49.438843 
L 194.145528 50.167518 
L 194.628106 51.098602 
L 195.110684 48.993542 
L 195.593262 49.357879 
L 196.075841 49.884144 
L 196.558419 49.560289 
L 197.040997 48.183904 
L 197.523576 49.924626 
L 198.006154 48.507759 
L 198.488732 50.208 
L 198.97131 49.843662 
L 199.453889 48.993542 
L 199.936467 49.155469 
L 200.419045 48.993542 
L 200.901624 48.183903 
L 201.384202 49.519807 
L 201.86678 47.414747 
L 202.349358 49.114988 
L 202.831937 48.993542 
L 203.314515 48.143422 
L 203.797093 48.831614 
L 204.279672 47.738603 
L 204.76225 47.738602 
L 205.244828 47.860048 
L 205.727407 48.426795 
L 206.209985 48.062458 
L 206.692563 46.848 
L 207.175141 47.860048 
L 208.140298 47.455229 
L 208.622876 48.467277 
L 209.105455 47.05041 
L 209.105455 47.05041 
" style="fill:none;stroke:#1f77b4;stroke-linecap:square;stroke-width:1.5;"/>
   </g>
   <g id="patch_3">
    <path d="M 57.6 159.744 
L 57.6 41.472 
" style="fill:none;stroke:#000000;stroke-linecap:square;stroke-linejoin:miter;stroke-width:0.8;"/>
   </g>
   <g id="patch_4">
    <path d="M 216.32 159.744 
L 216.32 41.472 
" style="fill:none;stroke:#000000;stroke-linecap:square;stroke-linejoin:miter;stroke-width:0.8;"/>
   </g>
   <g id="patch_5">
    <path d="M 57.6 159.744 
L 216.32 159.744 
" style="fill:none;stroke:#000000;stroke-linecap:square;stroke-linejoin:miter;stroke-width:0.8;"/>
   </g>
   <g id="patch_6">
    <path d="M 57.6 41.472 
L 216.32 41.472 
" style="fill:none;stroke:#000000;stroke-linecap:square;stroke-linejoin:miter;stroke-width:0.8;"/>
   </g>
   <g id="text_10">
    <!-- acc -->
    <defs>
     <path d="M 34.28125 27.484375 
Q 23.390625 27.484375 19.1875 25 
Q 14.984375 22.515625 14.984375 16.5 
Q 14.984375 11.71875 18.140625 8.90625 
Q 21.296875 6.109375 26.703125 6.109375 
Q 34.1875 6.109375 38.703125 11.40625 
Q 43.21875 16.703125 43.21875 25.484375 
L 43.21875 27.484375 
z
M 52.203125 31.203125 
L 52.203125 0 
L 43.21875 0 
L 43.21875 8.296875 
Q 40.140625 3.328125 35.546875 0.953125 
Q 30.953125 -1.421875 24.3125 -1.421875 
Q 15.921875 -1.421875 10.953125 3.296875 
Q 6 8.015625 6 15.921875 
Q 6 25.140625 12.171875 29.828125 
Q 18.359375 34.515625 30.609375 34.515625 
L 43.21875 34.515625 
L 43.21875 35.40625 
Q 43.21875 41.609375 39.140625 45 
Q 35.0625 48.390625 27.6875 48.390625 
Q 23 48.390625 18.546875 47.265625 
Q 14.109375 46.140625 10.015625 43.890625 
L 10.015625 52.203125 
Q 14.9375 54.109375 19.578125 55.046875 
Q 24.21875 56 28.609375 56 
Q 40.484375 56 46.34375 49.84375 
Q 52.203125 43.703125 52.203125 31.203125 
z
" id="DejaVuSans-61"/>
     <path d="M 48.78125 52.59375 
L 48.78125 44.1875 
Q 44.96875 46.296875 41.140625 47.34375 
Q 37.3125 48.390625 33.40625 48.390625 
Q 24.65625 48.390625 19.8125 42.84375 
Q 14.984375 37.3125 14.984375 27.296875 
Q 14.984375 17.28125 19.8125 11.734375 
Q 24.65625 6.203125 33.40625 6.203125 
Q 37.3125 6.203125 41.140625 7.25 
Q 44.96875 8.296875 48.78125 10.40625 
L 48.78125 2.09375 
Q 45.015625 0.34375 40.984375 -0.53125 
Q 36.96875 -1.421875 32.421875 -1.421875 
Q 20.0625 -1.421875 12.78125 6.34375 
Q 5.515625 14.109375 5.515625 27.296875 
Q 5.515625 40.671875 12.859375 48.328125 
Q 20.21875 56 33.015625 56 
Q 37.15625 56 41.109375 55.140625 
Q 45.0625 54.296875 48.78125 52.59375 
z
" id="DejaVuSans-63"/>
    </defs>
    <g transform="translate(126.685 35.472)scale(0.12 -0.12)">
     <use xlink:href="#DejaVuSans-61"/>
     <use x="61.279297" xlink:href="#DejaVuSans-63"/>
     <use x="116.259766" xlink:href="#DejaVuSans-63"/>
    </g>
   </g>
  </g>
  <g id="axes_2">
   <g id="patch_7">
    <path d="M 256 159.744 
L 414.72 159.744 
L 414.72 41.472 
L 256 41.472 
z
" style="fill:#ffffff;"/>
   </g>
   <g id="matplotlib.axis_3">
    <g id="xtick_5">
     <g id="line2d_20">
      <path clip-path="url(#p5f8c618425)" d="M 263.214545 159.744 
L 263.214545 41.472 
" style="fill:none;stroke:#b0b0b0;stroke-linecap:square;stroke-width:0.8;"/>
     </g>
     <g id="line2d_21">
      <g>
       <use style="stroke:#000000;stroke-width:0.8;" x="263.214545" xlink:href="#m9e4f818af3" y="159.744"/>
      </g>
     </g>
     <g id="text_11">
      <!-- 0 -->
      <g transform="translate(260.033295 174.342437)scale(0.1 -0.1)">
       <use xlink:href="#DejaVuSans-30"/>
      </g>
     </g>
    </g>
    <g id="xtick_6">
     <g id="line2d_22">
      <path clip-path="url(#p5f8c618425)" d="M 311.472375 159.744 
L 311.472375 41.472 
" style="fill:none;stroke:#b0b0b0;stroke-linecap:square;stroke-width:0.8;"/>
     </g>
     <g id="line2d_23">
      <g>
       <use style="stroke:#000000;stroke-width:0.8;" x="311.472375" xlink:href="#m9e4f818af3" y="159.744"/>
      </g>
     </g>
     <g id="text_12">
      <!-- 100 -->
      <g transform="translate(301.928625 174.342437)scale(0.1 -0.1)">
       <use xlink:href="#DejaVuSans-31"/>
       <use x="63.623047" xlink:href="#DejaVuSans-30"/>
       <use x="127.246094" xlink:href="#DejaVuSans-30"/>
      </g>
     </g>
    </g>
    <g id="xtick_7">
     <g id="line2d_24">
      <path clip-path="url(#p5f8c618425)" d="M 359.730204 159.744 
L 359.730204 41.472 
" style="fill:none;stroke:#b0b0b0;stroke-linecap:square;stroke-width:0.8;"/>
     </g>
     <g id="line2d_25">
      <g>
       <use style="stroke:#000000;stroke-width:0.8;" x="359.730204" xlink:href="#m9e4f818af3" y="159.744"/>
      </g>
     </g>
     <g id="text_13">
      <!-- 200 -->
      <g transform="translate(350.186454 174.342437)scale(0.1 -0.1)">
       <use xlink:href="#DejaVuSans-32"/>
       <use x="63.623047" xlink:href="#DejaVuSans-30"/>
       <use x="127.246094" xlink:href="#DejaVuSans-30"/>
      </g>
     </g>
    </g>
    <g id="xtick_8">
     <g id="line2d_26">
      <path clip-path="url(#p5f8c618425)" d="M 407.988033 159.744 
L 407.988033 41.472 
" style="fill:none;stroke:#b0b0b0;stroke-linecap:square;stroke-width:0.8;"/>
     </g>
     <g id="line2d_27">
      <g>
       <use style="stroke:#000000;stroke-width:0.8;" x="407.988033" xlink:href="#m9e4f818af3" y="159.744"/>
      </g>
     </g>
     <g id="text_14">
      <!-- 300 -->
      <g transform="translate(398.444283 174.342437)scale(0.1 -0.1)">
       <use xlink:href="#DejaVuSans-33"/>
       <use x="63.623047" xlink:href="#DejaVuSans-30"/>
       <use x="127.246094" xlink:href="#DejaVuSans-30"/>
      </g>
     </g>
    </g>
   </g>
   <g id="matplotlib.axis_4">
    <g id="ytick_6">
     <g id="line2d_28">
      <path clip-path="url(#p5f8c618425)" d="M 256 121.027706 
L 414.72 121.027706 
" style="fill:none;stroke:#b0b0b0;stroke-linecap:square;stroke-width:0.8;"/>
     </g>
     <g id="line2d_29">
      <g>
       <use style="stroke:#000000;stroke-width:0.8;" x="256" xlink:href="#m6939a6f924" y="121.027706"/>
      </g>
     </g>
     <g id="text_15">
      <!-- 2 -->
      <g transform="translate(242.6375 124.826925)scale(0.1 -0.1)">
       <use xlink:href="#DejaVuSans-32"/>
      </g>
     </g>
    </g>
    <g id="ytick_7">
     <g id="line2d_30">
      <path clip-path="url(#p5f8c618425)" d="M 256 79.225298 
L 414.72 79.225298 
" style="fill:none;stroke:#b0b0b0;stroke-linecap:square;stroke-width:0.8;"/>
     </g>
     <g id="line2d_31">
      <g>
       <use style="stroke:#000000;stroke-width:0.8;" x="256" xlink:href="#m6939a6f924" y="79.225298"/>
      </g>
     </g>
     <g id="text_16">
      <!-- 4 -->
      <g transform="translate(242.6375 83.024516)scale(0.1 -0.1)">
       <use xlink:href="#DejaVuSans-34"/>
      </g>
     </g>
    </g>
   </g>
   <g id="line2d_32">
    <path clip-path="url(#p5f8c618425)" d="M 263.214545 46.848 
L 263.697124 47.212565 
L 264.179702 50.999881 
L 265.144859 62.431796 
L 265.627437 66.142879 
L 266.592593 70.974288 
L 269.005485 81.964623 
L 270.45322 88.090286 
L 271.900955 92.771176 
L 272.866111 94.993764 
L 273.34869 95.73131 
L 275.279003 99.715511 
L 276.244159 100.642926 
L 276.726738 101.532684 
L 277.209316 102.032077 
L 277.691894 102.809379 
L 278.174472 103.189709 
L 279.139629 104.634595 
L 281.552521 107.337208 
L 282.035099 108.041104 
L 283.000255 108.612098 
L 283.482834 109.276519 
L 284.44799 110.080769 
L 284.930569 110.503262 
L 285.413147 111.201727 
L 285.895725 111.423168 
L 286.378303 112.243484 
L 286.860882 111.891978 
L 287.34346 113.013956 
L 287.826038 113.123826 
L 288.308617 113.437779 
L 289.273773 114.699303 
L 289.756351 114.867686 
L 290.23893 115.24599 
L 290.721508 116.119838 
L 291.204086 115.741492 
L 291.686665 116.063941 
L 292.169243 117.00443 
L 292.651821 116.964054 
L 294.582134 119.076102 
L 295.064713 119.077139 
L 296.995026 120.853165 
L 297.477604 120.930103 
L 297.960182 121.665419 
L 298.442761 121.807802 
L 298.925339 122.483202 
L 299.407917 122.408563 
L 299.890496 122.624176 
L 300.373074 123.551048 
L 300.855652 123.686361 
L 301.33823 124.208901 
L 301.820809 124.562968 
L 302.303387 124.722025 
L 302.785965 125.052756 
L 303.268544 125.585714 
L 303.751122 125.636689 
L 304.2337 126.414948 
L 304.716279 126.446369 
L 305.681435 127.586437 
L 306.164013 127.609453 
L 307.12917 128.433173 
L 308.094327 129.582166 
L 308.576905 129.477899 
L 309.542061 130.452782 
L 310.02464 130.590362 
L 310.507218 131.188873 
L 310.989796 131.469711 
L 311.472375 131.290425 
L 311.954953 132.149807 
L 312.437531 132.190582 
L 313.402688 133.292215 
L 313.885266 133.195196 
L 314.367844 134.144671 
L 314.850423 134.178642 
L 315.333001 134.001415 
L 315.815579 134.230816 
L 316.780736 135.171391 
L 317.745892 135.731759 
L 318.228471 135.804271 
L 318.711049 136.068015 
L 319.676206 136.897399 
L 320.158784 136.893829 
L 320.641362 137.17547 
L 321.12394 137.080868 
L 322.089097 138.190554 
L 322.571675 138.019931 
L 323.054254 138.027568 
L 323.536832 138.712368 
L 324.01941 138.946754 
L 324.501988 138.74772 
L 324.984567 139.262518 
L 325.467145 139.301564 
L 325.949723 139.598879 
L 326.432302 139.415501 
L 326.91488 139.73947 
L 327.397458 140.394735 
L 327.880036 140.369456 
L 328.362615 141.133069 
L 329.327771 140.538538 
L 329.81035 141.087328 
L 330.292928 141.296707 
L 330.775506 141.733244 
L 331.258085 141.731719 
L 333.188398 142.645878 
L 333.670976 142.380843 
L 334.153554 142.357947 
L 334.636133 142.756638 
L 335.118711 142.999802 
L 335.601289 143.453899 
L 336.083867 143.313101 
L 337.049024 143.282754 
L 337.531602 143.824598 
L 338.496759 143.990672 
L 338.979337 144.441577 
L 339.461915 144.316633 
L 339.944494 144.666983 
L 340.427072 144.564075 
L 341.392229 144.714679 
L 341.874807 145.208426 
L 342.357385 145.029893 
L 342.839964 145.21686 
L 343.322542 145.603745 
L 343.80512 145.503302 
L 344.287698 145.908269 
L 344.770277 145.848325 
L 345.252855 145.618418 
L 345.735433 145.875252 
L 347.665746 146.371665 
L 348.148325 146.237489 
L 348.630903 146.459885 
L 349.113481 146.47071 
L 349.59606 146.626592 
L 350.078638 146.901776 
L 350.561216 146.705919 
L 351.043794 146.689329 
L 351.526373 147.104669 
L 352.491529 147.492162 
L 352.974108 147.265342 
L 353.456686 147.352059 
L 354.421843 147.742682 
L 355.386999 148.036205 
L 355.869577 147.799524 
L 356.352156 148.261746 
L 357.317312 148.058142 
L 357.799891 148.135111 
L 358.282469 148.589834 
L 359.730204 148.49028 
L 360.212782 148.987809 
L 360.69536 148.483786 
L 361.177939 149.101853 
L 362.143095 148.970466 
L 362.625673 149.44432 
L 363.108252 149.306483 
L 363.59083 149.549133 
L 364.073408 149.258765 
L 364.555987 149.551335 
L 365.521143 149.447289 
L 366.4863 149.784943 
L 366.968878 150.051772 
L 367.934035 149.978534 
L 368.416613 149.633278 
L 368.899191 150.404122 
L 369.38177 150.212 
L 369.864348 150.391167 
L 370.346926 150.221389 
L 370.829504 150.425236 
L 371.312083 150.452566 
L 371.794661 150.678878 
L 372.277239 150.38773 
L 372.759818 150.846488 
L 373.242396 150.794298 
L 373.724974 150.467136 
L 374.207552 150.829853 
L 374.690131 150.547366 
L 375.172709 151.037454 
L 375.655287 151.214712 
L 376.137866 151.244261 
L 376.620444 151.089389 
L 377.103022 151.308921 
L 377.5856 151.32008 
L 378.068179 151.507315 
L 378.550757 151.564538 
L 379.033335 151.214221 
L 379.515914 151.566669 
L 379.998492 151.537079 
L 380.48107 151.348045 
L 381.446227 151.814193 
L 381.928805 152.015342 
L 382.411383 152.351141 
L 382.893962 151.613069 
L 383.37654 152.057314 
L 384.341697 152.015194 
L 385.306853 152.031749 
L 387.719745 152.607033 
L 388.202323 152.896543 
L 388.684901 152.935002 
L 389.167479 152.526519 
L 390.132636 152.935553 
L 390.615214 152.846751 
L 391.580371 152.812312 
L 392.545528 153.142532 
L 393.028106 152.636074 
L 393.510684 153.460383 
L 393.993262 152.878304 
L 394.475841 152.814821 
L 394.958419 153.044868 
L 395.440997 153.525781 
L 395.923576 153.159176 
L 396.406154 153.772743 
L 396.888732 153.064862 
L 397.853889 153.560796 
L 398.336467 153.388793 
L 399.301624 153.506232 
L 399.784202 153.258165 
L 400.26678 153.956353 
L 400.749358 153.619414 
L 401.231937 153.544696 
L 401.714515 153.854826 
L 402.197093 153.78771 
L 402.679672 154.060857 
L 403.16225 154.099525 
L 403.644828 153.677939 
L 404.127407 154.143481 
L 404.609985 154.099876 
L 405.092563 154.333628 
L 405.575141 154.076141 
L 406.05772 154.360472 
L 407.022876 154.157923 
L 407.505455 154.368 
L 407.505455 154.368 
" style="fill:none;stroke:#1f77b4;stroke-linecap:square;stroke-width:1.5;"/>
   </g>
   <g id="patch_8">
    <path d="M 256 159.744 
L 256 41.472 
" style="fill:none;stroke:#000000;stroke-linecap:square;stroke-linejoin:miter;stroke-width:0.8;"/>
   </g>
   <g id="patch_9">
    <path d="M 414.72 159.744 
L 414.72 41.472 
" style="fill:none;stroke:#000000;stroke-linecap:square;stroke-linejoin:miter;stroke-width:0.8;"/>
   </g>
   <g id="patch_10">
    <path d="M 256 159.744 
L 414.72 159.744 
" style="fill:none;stroke:#000000;stroke-linecap:square;stroke-linejoin:miter;stroke-width:0.8;"/>
   </g>
   <g id="patch_11">
    <path d="M 256 41.472 
L 414.72 41.472 
" style="fill:none;stroke:#000000;stroke-linecap:square;stroke-linejoin:miter;stroke-width:0.8;"/>
   </g>
   <g id="text_17">
    <!-- loss -->
    <defs>
     <path d="M 9.421875 75.984375 
L 18.40625 75.984375 
L 18.40625 0 
L 9.421875 0 
z
" id="DejaVuSans-6c"/>
     <path d="M 30.609375 48.390625 
Q 23.390625 48.390625 19.1875 42.75 
Q 14.984375 37.109375 14.984375 27.296875 
Q 14.984375 17.484375 19.15625 11.84375 
Q 23.34375 6.203125 30.609375 6.203125 
Q 37.796875 6.203125 41.984375 11.859375 
Q 46.1875 17.53125 46.1875 27.296875 
Q 46.1875 37.015625 41.984375 42.703125 
Q 37.796875 48.390625 30.609375 48.390625 
z
M 30.609375 56 
Q 42.328125 56 49.015625 48.375 
Q 55.71875 40.765625 55.71875 27.296875 
Q 55.71875 13.875 49.015625 6.21875 
Q 42.328125 -1.421875 30.609375 -1.421875 
Q 18.84375 -1.421875 12.171875 6.21875 
Q 5.515625 13.875 5.515625 27.296875 
Q 5.515625 40.765625 12.171875 48.375 
Q 18.84375 56 30.609375 56 
z
" id="DejaVuSans-6f"/>
     <path d="M 44.28125 53.078125 
L 44.28125 44.578125 
Q 40.484375 46.53125 36.375 47.5 
Q 32.28125 48.484375 27.875 48.484375 
Q 21.1875 48.484375 17.84375 46.4375 
Q 14.5 44.390625 14.5 40.28125 
Q 14.5 37.15625 16.890625 35.375 
Q 19.28125 33.59375 26.515625 31.984375 
L 29.59375 31.296875 
Q 39.15625 29.25 43.1875 25.515625 
Q 47.21875 21.78125 47.21875 15.09375 
Q 47.21875 7.46875 41.1875 3.015625 
Q 35.15625 -1.421875 24.609375 -1.421875 
Q 20.21875 -1.421875 15.453125 -0.5625 
Q 10.6875 0.296875 5.421875 2 
L 5.421875 11.28125 
Q 10.40625 8.6875 15.234375 7.390625 
Q 20.0625 6.109375 24.8125 6.109375 
Q 31.15625 6.109375 34.5625 8.28125 
Q 37.984375 10.453125 37.984375 14.40625 
Q 37.984375 18.0625 35.515625 20.015625 
Q 33.0625 21.96875 24.703125 23.78125 
L 21.578125 24.515625 
Q 13.234375 26.265625 9.515625 29.90625 
Q 5.8125 33.546875 5.8125 39.890625 
Q 5.8125 47.609375 11.28125 51.796875 
Q 16.75 56 26.8125 56 
Q 31.78125 56 36.171875 55.265625 
Q 40.578125 54.546875 44.28125 53.078125 
z
" id="DejaVuSans-73"/>
    </defs>
    <g transform="translate(323.770625 35.472)scale(0.12 -0.12)">
     <use xlink:href="#DejaVuSans-6c"/>
     <use x="27.783203" xlink:href="#DejaVuSans-6f"/>
     <use x="88.964844" xlink:href="#DejaVuSans-73"/>
     <use x="141.064453" xlink:href="#DejaVuSans-73"/>
    </g>
   </g>
  </g>
  <g id="axes_3">
   <g id="patch_12">
    <path d="M 57.6 307.584 
L 216.32 307.584 
L 216.32 189.312 
L 57.6 189.312 
z
" style="fill:#ffffff;"/>
   </g>
   <g id="matplotlib.axis_5">
    <g id="xtick_9">
     <g id="line2d_33">
      <path clip-path="url(#p6261538c73)" d="M 64.814545 307.584 
L 64.814545 189.312 
" style="fill:none;stroke:#b0b0b0;stroke-linecap:square;stroke-width:0.8;"/>
     </g>
     <g id="line2d_34">
      <g>
       <use style="stroke:#000000;stroke-width:0.8;" x="64.814545" xlink:href="#m9e4f818af3" y="307.584"/>
      </g>
     </g>
     <g id="text_18">
      <!-- 0 -->
      <g transform="translate(61.633295 322.182437)scale(0.1 -0.1)">
       <use xlink:href="#DejaVuSans-30"/>
      </g>
     </g>
    </g>
    <g id="xtick_10">
     <g id="line2d_35">
      <path clip-path="url(#p6261538c73)" d="M 113.072375 307.584 
L 113.072375 189.312 
" style="fill:none;stroke:#b0b0b0;stroke-linecap:square;stroke-width:0.8;"/>
     </g>
     <g id="line2d_36">
      <g>
       <use style="stroke:#000000;stroke-width:0.8;" x="113.072375" xlink:href="#m9e4f818af3" y="307.584"/>
      </g>
     </g>
     <g id="text_19">
      <!-- 100 -->
      <g transform="translate(103.528625 322.182437)scale(0.1 -0.1)">
       <use xlink:href="#DejaVuSans-31"/>
       <use x="63.623047" xlink:href="#DejaVuSans-30"/>
       <use x="127.246094" xlink:href="#DejaVuSans-30"/>
      </g>
     </g>
    </g>
    <g id="xtick_11">
     <g id="line2d_37">
      <path clip-path="url(#p6261538c73)" d="M 161.330204 307.584 
L 161.330204 189.312 
" style="fill:none;stroke:#b0b0b0;stroke-linecap:square;stroke-width:0.8;"/>
     </g>
     <g id="line2d_38">
      <g>
       <use style="stroke:#000000;stroke-width:0.8;" x="161.330204" xlink:href="#m9e4f818af3" y="307.584"/>
      </g>
     </g>
     <g id="text_20">
      <!-- 200 -->
      <g transform="translate(151.786454 322.182437)scale(0.1 -0.1)">
       <use xlink:href="#DejaVuSans-32"/>
       <use x="63.623047" xlink:href="#DejaVuSans-30"/>
       <use x="127.246094" xlink:href="#DejaVuSans-30"/>
      </g>
     </g>
    </g>
    <g id="xtick_12">
     <g id="line2d_39">
      <path clip-path="url(#p6261538c73)" d="M 209.588033 307.584 
L 209.588033 189.312 
" style="fill:none;stroke:#b0b0b0;stroke-linecap:square;stroke-width:0.8;"/>
     </g>
     <g id="line2d_40">
      <g>
       <use style="stroke:#000000;stroke-width:0.8;" x="209.588033" xlink:href="#m9e4f818af3" y="307.584"/>
      </g>
     </g>
     <g id="text_21">
      <!-- 300 -->
      <g transform="translate(200.044283 322.182437)scale(0.1 -0.1)">
       <use xlink:href="#DejaVuSans-33"/>
       <use x="63.623047" xlink:href="#DejaVuSans-30"/>
       <use x="127.246094" xlink:href="#DejaVuSans-30"/>
      </g>
     </g>
    </g>
   </g>
   <g id="matplotlib.axis_6">
    <g id="ytick_8">
     <g id="line2d_41">
      <path clip-path="url(#p6261538c73)" d="M 57.6 302.740277 
L 216.32 302.740277 
" style="fill:none;stroke:#b0b0b0;stroke-linecap:square;stroke-width:0.8;"/>
     </g>
     <g id="line2d_42">
      <g>
       <use style="stroke:#000000;stroke-width:0.8;" x="57.6" xlink:href="#m6939a6f924" y="302.740277"/>
      </g>
     </g>
     <g id="text_22">
      <!-- 0.0 -->
      <g transform="translate(34.696875 306.539496)scale(0.1 -0.1)">
       <use xlink:href="#DejaVuSans-30"/>
       <use x="63.623047" xlink:href="#DejaVuSans-2e"/>
       <use x="95.410156" xlink:href="#DejaVuSans-30"/>
      </g>
     </g>
    </g>
    <g id="ytick_9">
     <g id="line2d_43">
      <path clip-path="url(#p6261538c73)" d="M 57.6 275.487684 
L 216.32 275.487684 
" style="fill:none;stroke:#b0b0b0;stroke-linecap:square;stroke-width:0.8;"/>
     </g>
     <g id="line2d_44">
      <g>
       <use style="stroke:#000000;stroke-width:0.8;" x="57.6" xlink:href="#m6939a6f924" y="275.487684"/>
      </g>
     </g>
     <g id="text_23">
      <!-- 0.2 -->
      <g transform="translate(34.696875 279.286902)scale(0.1 -0.1)">
       <use xlink:href="#DejaVuSans-30"/>
       <use x="63.623047" xlink:href="#DejaVuSans-2e"/>
       <use x="95.410156" xlink:href="#DejaVuSans-32"/>
      </g>
     </g>
    </g>
    <g id="ytick_10">
     <g id="line2d_45">
      <path clip-path="url(#p6261538c73)" d="M 57.6 248.23509 
L 216.32 248.23509 
" style="fill:none;stroke:#b0b0b0;stroke-linecap:square;stroke-width:0.8;"/>
     </g>
     <g id="line2d_46">
      <g>
       <use style="stroke:#000000;stroke-width:0.8;" x="57.6" xlink:href="#m6939a6f924" y="248.23509"/>
      </g>
     </g>
     <g id="text_24">
      <!-- 0.4 -->
      <g transform="translate(34.696875 252.034309)scale(0.1 -0.1)">
       <use xlink:href="#DejaVuSans-30"/>
       <use x="63.623047" xlink:href="#DejaVuSans-2e"/>
       <use x="95.410156" xlink:href="#DejaVuSans-34"/>
      </g>
     </g>
    </g>
    <g id="ytick_11">
     <g id="line2d_47">
      <path clip-path="url(#p6261538c73)" d="M 57.6 220.982496 
L 216.32 220.982496 
" style="fill:none;stroke:#b0b0b0;stroke-linecap:square;stroke-width:0.8;"/>
     </g>
     <g id="line2d_48">
      <g>
       <use style="stroke:#000000;stroke-width:0.8;" x="57.6" xlink:href="#m6939a6f924" y="220.982496"/>
      </g>
     </g>
     <g id="text_25">
      <!-- 0.6 -->
      <g transform="translate(34.696875 224.781715)scale(0.1 -0.1)">
       <use xlink:href="#DejaVuSans-30"/>
       <use x="63.623047" xlink:href="#DejaVuSans-2e"/>
       <use x="95.410156" xlink:href="#DejaVuSans-36"/>
      </g>
     </g>
    </g>
    <g id="ytick_12">
     <g id="line2d_49">
      <path clip-path="url(#p6261538c73)" d="M 57.6 193.729902 
L 216.32 193.729902 
" style="fill:none;stroke:#b0b0b0;stroke-linecap:square;stroke-width:0.8;"/>
     </g>
     <g id="line2d_50">
      <g>
       <use style="stroke:#000000;stroke-width:0.8;" x="57.6" xlink:href="#m6939a6f924" y="193.729902"/>
      </g>
     </g>
     <g id="text_26">
      <!-- 0.8 -->
      <g transform="translate(34.696875 197.529121)scale(0.1 -0.1)">
       <use xlink:href="#DejaVuSans-30"/>
       <use x="63.623047" xlink:href="#DejaVuSans-2e"/>
       <use x="95.410156" xlink:href="#DejaVuSans-38"/>
      </g>
     </g>
    </g>
   </g>
   <g id="line2d_51">
    <path clip-path="url(#p6261538c73)" d="M 64.814545 301.143446 
L 65.297124 302.208 
L 65.779702 301.143446 
L 66.26228 299.546614 
L 66.744859 298.482059 
L 67.227437 296.35295 
L 67.710015 299.014337 
L 68.675172 293.159287 
L 69.15775 292.094733 
L 69.640328 289.965624 
L 70.122907 290.497901 
L 70.605485 287.304238 
L 71.088063 286.77196 
L 71.570642 285.175128 
L 72.05322 287.836515 
L 72.535798 282.513742 
L 73.018376 280.916911 
L 73.500955 280.384633 
L 73.983533 287.304237 
L 74.466111 284.642851 
L 75.431268 276.658693 
L 75.913846 287.836515 
L 76.396424 278.255524 
L 76.879003 291.562455 
L 77.361581 272.400475 
L 77.844159 279.320079 
L 78.326738 271.33592 
L 78.809316 270.803643 
L 79.291894 273.46503 
L 80.257051 274.529584 
L 80.739629 272.932752 
L 81.222207 270.803643 
L 81.704786 267.60998 
L 82.187364 266.545425 
L 82.669942 270.271366 
L 83.152521 269.206812 
L 83.635099 262.287208 
L 84.117677 278.255524 
L 84.600255 268.142257 
L 85.082834 268.142257 
L 85.565412 261.222653 
L 86.04799 257.496713 
L 86.530569 262.819485 
L 87.013147 277.19097 
L 87.495725 266.013148 
L 87.978303 273.465029 
L 88.460882 259.093544 
L 88.94346 259.625822 
L 89.426038 263.884039 
L 89.908617 258.02899 
L 90.391195 261.75493 
L 90.873773 256.432158 
L 91.356351 255.367604 
L 91.83893 251.641663 
L 92.321508 260.690376 
L 92.804086 261.222653 
L 93.286665 255.367603 
L 93.769243 258.561267 
L 94.251821 256.964435 
L 94.7344 266.545425 
L 95.216978 261.75493 
L 95.699556 250.577108 
L 96.182134 246.851168 
L 97.147291 260.690375 
L 97.629869 253.238495 
L 98.595026 255.367604 
L 99.560182 250.577109 
L 100.042761 245.254336 
L 100.525339 244.722059 
L 101.007917 260.690375 
L 101.490496 253.238495 
L 101.973074 254.303049 
L 102.455652 242.060673 
L 102.93823 247.915723 
L 103.420809 242.59295 
L 103.903387 243.125228 
L 104.385965 244.189782 
L 105.351122 238.334732 
L 105.8337 255.899882 
L 106.316279 239.931565 
L 106.798857 240.463841 
L 107.281435 237.802456 
L 107.764013 242.592951 
L 108.246592 240.996118 
L 108.72917 236.737902 
L 109.211748 235.673347 
L 109.694327 237.270178 
L 110.659483 234.076514 
L 111.142061 231.947406 
L 111.62464 239.931564 
L 112.107218 238.334732 
L 112.589796 231.947406 
L 113.072375 233.544237 
L 113.554953 232.479683 
L 114.037531 226.092357 
L 114.520109 226.624634 
L 115.002688 228.753742 
L 115.485266 224.495525 
L 115.967844 228.753742 
L 116.450423 235.141069 
L 116.933001 231.415127 
L 117.898157 229.28602 
L 118.380736 227.15691 
L 118.863314 223.43097 
L 119.345892 226.624632 
L 119.828471 239.931564 
L 120.311049 232.479683 
L 120.793627 229.818296 
L 121.276206 224.495525 
L 121.758784 223.430971 
L 122.241362 225.027801 
L 122.72394 227.156911 
L 123.206519 225.560077 
L 123.689097 235.673347 
L 124.171675 222.366415 
L 124.654254 215.979088 
L 125.136832 226.624634 
L 125.61941 218.108197 
L 126.101988 227.689188 
L 126.584567 220.769583 
L 127.067145 217.575921 
L 127.549723 221.834138 
L 128.032302 219.705029 
L 128.51488 221.834138 
L 128.997458 216.511364 
L 129.480036 213.317702 
L 129.962615 217.575921 
L 130.445193 218.108197 
L 130.927771 217.57592 
L 131.41035 219.172752 
L 131.892928 217.575919 
L 132.375506 219.172751 
L 132.858085 214.382255 
L 133.340663 218.108197 
L 133.823241 215.979088 
L 134.305819 219.172752 
L 134.788398 220.237306 
L 135.753554 220.237307 
L 136.236133 213.317702 
L 136.718711 215.97909 
L 137.201289 216.511366 
L 137.683867 215.446811 
L 138.166446 235.141068 
L 138.649024 214.382258 
L 139.131602 213.84998 
L 139.614181 215.979089 
L 140.096759 211.188593 
L 140.579337 218.108198 
L 141.061915 213.317701 
L 141.544494 217.043643 
L 142.027072 215.446811 
L 142.50965 218.108197 
L 142.992229 219.705029 
L 143.474807 211.72087 
L 143.957385 210.124039 
L 144.439964 209.059485 
L 144.922542 213.317702 
L 145.40512 209.059484 
L 146.370277 216.511365 
L 146.852855 210.656314 
L 147.335433 212.253148 
L 147.818012 211.188594 
L 148.30059 223.963247 
L 148.783168 209.591762 
L 149.265746 205.333545 
L 149.748325 210.656316 
L 150.230903 207.99493 
L 150.713481 211.188593 
L 151.678638 206.930375 
L 152.161216 209.059484 
L 152.643794 203.736712 
L 153.126373 207.99493 
L 153.608951 210.124039 
L 154.091529 215.44681 
L 154.574108 207.994929 
L 155.056686 212.785425 
L 155.539264 206.398098 
L 156.021843 205.865822 
L 156.504421 208.527206 
L 156.986999 205.333546 
L 157.469577 214.914533 
L 157.952156 214.914534 
L 158.917312 205.333545 
L 159.399891 203.736713 
L 159.882469 205.333545 
L 160.365047 206.398097 
L 160.847625 210.124039 
L 161.812782 207.99493 
L 162.29536 201.607603 
L 162.777939 213.84998 
L 163.260517 207.994928 
L 163.743095 204.26899 
L 164.225673 203.204434 
L 164.708252 203.736713 
L 165.19083 203.204435 
L 165.673408 206.398099 
L 166.155987 207.994931 
L 166.638565 207.99493 
L 167.121143 204.801267 
L 167.603721 203.736711 
L 168.0863 207.462652 
L 168.568878 206.398099 
L 169.051456 203.204434 
L 169.534035 210.656316 
L 170.016613 205.333544 
L 170.499191 205.865821 
L 170.98177 214.914534 
L 171.464348 212.785425 
L 171.946926 209.059484 
L 172.429504 202.672159 
L 172.912083 202.672158 
L 173.394661 203.204435 
L 173.877239 204.801265 
L 174.359818 206.930376 
L 174.842396 211.188592 
L 175.324974 200.543049 
L 175.807552 204.268989 
L 176.290131 203.204435 
L 176.772709 200.010771 
L 177.255287 222.366415 
L 177.737866 203.204436 
L 178.220444 209.059485 
L 178.703022 217.575921 
L 179.1856 209.591761 
L 179.668179 196.284832 
L 180.633335 201.075327 
L 181.115914 200.010773 
L 181.598492 211.188592 
L 182.08107 204.268988 
L 182.563649 201.607603 
L 183.046227 201.607603 
L 183.528805 200.010772 
L 184.011383 204.801266 
L 184.493962 202.139881 
L 184.97654 205.333544 
L 185.459118 198.946216 
L 185.941697 210.124039 
L 186.424275 206.398099 
L 186.906853 201.075326 
L 187.389431 199.478495 
L 187.87201 197.349387 
L 188.837166 206.930375 
L 189.319745 200.54305 
L 189.802323 201.607603 
L 190.284901 200.010771 
L 190.767479 201.607604 
L 191.250058 199.478496 
L 191.732636 201.075326 
L 192.215214 201.075326 
L 192.697793 195.752555 
L 193.180371 198.41394 
L 193.662949 203.204435 
L 194.145528 196.81711 
L 194.628106 198.946218 
L 195.110684 198.413939 
L 195.593262 206.930377 
L 196.075841 197.881663 
L 196.558419 198.413943 
L 197.040997 210.656316 
L 197.523576 196.284832 
L 198.006154 197.881663 
L 198.488732 201.075326 
L 198.97131 201.075326 
L 199.453889 202.672158 
L 200.419045 202.672159 
L 200.901624 208.527208 
L 201.384202 200.010771 
L 201.86678 202.672157 
L 202.349358 199.478496 
L 202.831937 197.881663 
L 203.314515 204.268989 
L 203.797093 194.688 
L 204.279672 200.543049 
L 204.76225 203.204435 
L 205.727407 197.881665 
L 206.209985 201.607604 
L 206.692563 198.946218 
L 207.175141 201.075328 
L 207.65772 197.349386 
L 208.140298 198.946217 
L 208.622876 201.075327 
L 209.105455 197.881663 
L 209.105455 197.881663 
" style="fill:none;stroke:#1f77b4;stroke-linecap:square;stroke-width:1.5;"/>
   </g>
   <g id="patch_13">
    <path d="M 57.6 307.584 
L 57.6 189.312 
" style="fill:none;stroke:#000000;stroke-linecap:square;stroke-linejoin:miter;stroke-width:0.8;"/>
   </g>
   <g id="patch_14">
    <path d="M 216.32 307.584 
L 216.32 189.312 
" style="fill:none;stroke:#000000;stroke-linecap:square;stroke-linejoin:miter;stroke-width:0.8;"/>
   </g>
   <g id="patch_15">
    <path d="M 57.6 307.584 
L 216.32 307.584 
" style="fill:none;stroke:#000000;stroke-linecap:square;stroke-linejoin:miter;stroke-width:0.8;"/>
   </g>
   <g id="patch_16">
    <path d="M 57.6 189.312 
L 216.32 189.312 
" style="fill:none;stroke:#000000;stroke-linecap:square;stroke-linejoin:miter;stroke-width:0.8;"/>
   </g>
   <g id="text_27">
    <!-- val_acc -->
    <defs>
     <path d="M 2.984375 54.6875 
L 12.5 54.6875 
L 29.59375 8.796875 
L 46.6875 54.6875 
L 56.203125 54.6875 
L 35.6875 0 
L 23.484375 0 
z
" id="DejaVuSans-76"/>
     <path d="M 50.984375 -16.609375 
L 50.984375 -23.578125 
L -0.984375 -23.578125 
L -0.984375 -16.609375 
z
" id="DejaVuSans-5f"/>
    </defs>
    <g transform="translate(114.79 183.312)scale(0.12 -0.12)">
     <use xlink:href="#DejaVuSans-76"/>
     <use x="59.179688" xlink:href="#DejaVuSans-61"/>
     <use x="120.458984" xlink:href="#DejaVuSans-6c"/>
     <use x="148.242188" xlink:href="#DejaVuSans-5f"/>
     <use x="198.242188" xlink:href="#DejaVuSans-61"/>
     <use x="259.521484" xlink:href="#DejaVuSans-63"/>
     <use x="314.501953" xlink:href="#DejaVuSans-63"/>
    </g>
   </g>
  </g>
  <g id="axes_4">
   <g id="patch_17">
    <path d="M 256 307.584 
L 414.72 307.584 
L 414.72 189.312 
L 256 189.312 
z
" style="fill:#ffffff;"/>
   </g>
   <g id="matplotlib.axis_7">
    <g id="xtick_13">
     <g id="line2d_52">
      <path clip-path="url(#p7f33b16f4d)" d="M 263.214545 307.584 
L 263.214545 189.312 
" style="fill:none;stroke:#b0b0b0;stroke-linecap:square;stroke-width:0.8;"/>
     </g>
     <g id="line2d_53">
      <g>
       <use style="stroke:#000000;stroke-width:0.8;" x="263.214545" xlink:href="#m9e4f818af3" y="307.584"/>
      </g>
     </g>
     <g id="text_28">
      <!-- 0 -->
      <g transform="translate(260.033295 322.182437)scale(0.1 -0.1)">
       <use xlink:href="#DejaVuSans-30"/>
      </g>
     </g>
    </g>
    <g id="xtick_14">
     <g id="line2d_54">
      <path clip-path="url(#p7f33b16f4d)" d="M 311.472375 307.584 
L 311.472375 189.312 
" style="fill:none;stroke:#b0b0b0;stroke-linecap:square;stroke-width:0.8;"/>
     </g>
     <g id="line2d_55">
      <g>
       <use style="stroke:#000000;stroke-width:0.8;" x="311.472375" xlink:href="#m9e4f818af3" y="307.584"/>
      </g>
     </g>
     <g id="text_29">
      <!-- 100 -->
      <g transform="translate(301.928625 322.182437)scale(0.1 -0.1)">
       <use xlink:href="#DejaVuSans-31"/>
       <use x="63.623047" xlink:href="#DejaVuSans-30"/>
       <use x="127.246094" xlink:href="#DejaVuSans-30"/>
      </g>
     </g>
    </g>
    <g id="xtick_15">
     <g id="line2d_56">
      <path clip-path="url(#p7f33b16f4d)" d="M 359.730204 307.584 
L 359.730204 189.312 
" style="fill:none;stroke:#b0b0b0;stroke-linecap:square;stroke-width:0.8;"/>
     </g>
     <g id="line2d_57">
      <g>
       <use style="stroke:#000000;stroke-width:0.8;" x="359.730204" xlink:href="#m9e4f818af3" y="307.584"/>
      </g>
     </g>
     <g id="text_30">
      <!-- 200 -->
      <g transform="translate(350.186454 322.182437)scale(0.1 -0.1)">
       <use xlink:href="#DejaVuSans-32"/>
       <use x="63.623047" xlink:href="#DejaVuSans-30"/>
       <use x="127.246094" xlink:href="#DejaVuSans-30"/>
      </g>
     </g>
    </g>
    <g id="xtick_16">
     <g id="line2d_58">
      <path clip-path="url(#p7f33b16f4d)" d="M 407.988033 307.584 
L 407.988033 189.312 
" style="fill:none;stroke:#b0b0b0;stroke-linecap:square;stroke-width:0.8;"/>
     </g>
     <g id="line2d_59">
      <g>
       <use style="stroke:#000000;stroke-width:0.8;" x="407.988033" xlink:href="#m9e4f818af3" y="307.584"/>
      </g>
     </g>
     <g id="text_31">
      <!-- 300 -->
      <g transform="translate(398.444283 322.182437)scale(0.1 -0.1)">
       <use xlink:href="#DejaVuSans-33"/>
       <use x="63.623047" xlink:href="#DejaVuSans-30"/>
       <use x="127.246094" xlink:href="#DejaVuSans-30"/>
      </g>
     </g>
    </g>
   </g>
   <g id="matplotlib.axis_8">
    <g id="ytick_13">
     <g id="line2d_60">
      <path clip-path="url(#p7f33b16f4d)" d="M 256 273.697859 
L 414.72 273.697859 
" style="fill:none;stroke:#b0b0b0;stroke-linecap:square;stroke-width:0.8;"/>
     </g>
     <g id="line2d_61">
      <g>
       <use style="stroke:#000000;stroke-width:0.8;" x="256" xlink:href="#m6939a6f924" y="273.697859"/>
      </g>
     </g>
     <g id="text_32">
      <!-- 2 -->
      <g transform="translate(242.6375 277.497078)scale(0.1 -0.1)">
       <use xlink:href="#DejaVuSans-32"/>
      </g>
     </g>
    </g>
    <g id="ytick_14">
     <g id="line2d_62">
      <path clip-path="url(#p7f33b16f4d)" d="M 256 229.111292 
L 414.72 229.111292 
" style="fill:none;stroke:#b0b0b0;stroke-linecap:square;stroke-width:0.8;"/>
     </g>
     <g id="line2d_63">
      <g>
       <use style="stroke:#000000;stroke-width:0.8;" x="256" xlink:href="#m6939a6f924" y="229.111292"/>
      </g>
     </g>
     <g id="text_33">
      <!-- 4 -->
      <g transform="translate(242.6375 232.91051)scale(0.1 -0.1)">
       <use xlink:href="#DejaVuSans-34"/>
      </g>
     </g>
    </g>
   </g>
   <g id="line2d_64">
    <path clip-path="url(#p7f33b16f4d)" d="M 263.214545 194.688 
L 263.697124 195.832078 
L 265.627437 214.432389 
L 266.110015 214.933255 
L 266.592593 217.234183 
L 267.075172 220.899277 
L 268.040328 225.204711 
L 268.522907 226.501861 
L 269.005485 229.491548 
L 269.488063 231.715161 
L 269.970642 232.77153 
L 270.45322 234.149023 
L 270.935798 236.423241 
L 271.900955 239.288455 
L 272.383533 237.660468 
L 272.866111 238.943063 
L 273.831268 243.76115 
L 274.313846 239.632053 
L 274.796424 244.724449 
L 275.279003 234.494034 
L 275.761581 246.281291 
L 276.244159 245.8545 
L 276.726738 247.677439 
L 277.209316 247.760911 
L 277.691894 248.79099 
L 278.174472 247.940072 
L 278.657051 247.570745 
L 279.139629 250.328914 
L 279.622207 250.953752 
L 280.104786 251.787735 
L 280.587364 251.841885 
L 281.069942 251.653633 
L 281.552521 251.8841 
L 282.035099 253.263035 
L 282.517677 244.824816 
L 283.000255 251.663186 
L 283.482834 252.648997 
L 283.965412 255.056635 
L 284.44799 255.855986 
L 284.930569 255.32541 
L 285.413147 249.439898 
L 285.895725 256.941468 
L 286.378303 253.786849 
L 286.860882 257.927083 
L 287.34346 257.791931 
L 287.826038 255.087404 
L 288.308617 258.088376 
L 288.791195 258.063975 
L 289.273773 258.922888 
L 289.756351 260.154839 
L 290.23893 260.240232 
L 290.721508 258.954965 
L 291.204086 258.218855 
L 291.686665 260.13044 
L 292.169243 260.362183 
L 292.651821 260.333099 
L 293.1344 256.161143 
L 293.616978 258.654804 
L 294.582134 264.484359 
L 295.064713 263.128019 
L 295.547291 260.057647 
L 296.029869 261.257841 
L 296.512448 263.801025 
L 296.995026 261.03812 
L 297.477604 264.903938 
L 297.960182 265.478046 
L 298.442761 265.211485 
L 298.925339 266.727733 
L 299.407917 259.781939 
L 299.890496 263.386025 
L 300.855652 268.079425 
L 301.33823 266.597248 
L 301.820809 268.693004 
L 302.303387 268.594615 
L 302.785965 269.574736 
L 303.268544 269.198153 
L 303.751122 270.449886 
L 304.2337 265.543095 
L 304.716279 269.804642 
L 305.198857 271.217291 
L 305.681435 271.05737 
L 306.164013 269.548746 
L 306.646592 271.314492 
L 307.12917 272.475656 
L 307.611748 272.714148 
L 308.094327 272.378066 
L 308.576905 272.614752 
L 309.059483 273.81471 
L 309.542061 274.452237 
L 310.02464 272.697329 
L 310.507218 273.654923 
L 310.989796 274.952731 
L 311.472375 272.93358 
L 311.954953 274.543697 
L 312.437531 277.14901 
L 312.920109 275.802138 
L 313.402688 276.33229 
L 313.885266 278.071434 
L 314.850423 276.901697 
L 315.333001 276.515721 
L 315.815579 277.977503 
L 316.298157 277.023853 
L 316.780736 278.661043 
L 317.263314 279.764472 
L 317.745892 280.387788 
L 318.228471 273.038934 
L 319.193627 280.55352 
L 319.676206 280.476051 
L 320.158784 280.269359 
L 320.641362 279.856348 
L 321.606519 280.42613 
L 322.089097 276.847483 
L 322.571675 280.233445 
L 323.054254 282.656454 
L 323.536832 279.423377 
L 324.01941 282.345182 
L 324.501988 280.33371 
L 324.984567 283.071282 
L 325.467145 284.011608 
L 325.949723 283.562939 
L 326.432302 284.049552 
L 326.91488 283.377069 
L 327.397458 284.899197 
L 327.880036 286.037899 
L 328.845193 284.143621 
L 329.327771 285.58895 
L 329.81035 285.583904 
L 330.292928 285.975825 
L 330.775506 283.868262 
L 331.258085 286.453161 
L 331.740663 283.364171 
L 332.223241 285.792493 
L 332.705819 286.100702 
L 333.188398 285.416404 
L 333.670976 286.242541 
L 334.153554 284.989255 
L 334.636133 287.590984 
L 335.118711 287.225726 
L 335.601289 287.69111 
L 336.083867 286.826828 
L 336.566446 281.723515 
L 337.049024 287.767812 
L 337.531602 287.311493 
L 338.014181 288.567159 
L 338.496759 289.05624 
L 338.979337 286.546182 
L 339.461915 288.336954 
L 339.944494 288.738862 
L 340.90965 287.042512 
L 341.392229 287.775751 
L 341.874807 289.44602 
L 342.839964 290.684535 
L 343.322542 290.072924 
L 343.80512 290.991976 
L 344.287698 290.735208 
L 344.770277 288.784033 
L 345.252855 290.899171 
L 345.735433 291.172652 
L 346.218012 291.927795 
L 346.70059 286.484015 
L 347.183168 290.760315 
L 347.665746 292.390809 
L 348.148325 291.468321 
L 348.630903 292.306966 
L 349.113481 291.515821 
L 349.59606 292.218315 
L 350.078638 292.412686 
L 350.561216 292.020912 
L 351.043794 292.235904 
L 351.526373 293.474017 
L 352.491529 289.526579 
L 352.974108 293.211174 
L 353.456686 291.727341 
L 353.939264 293.122291 
L 354.421843 292.463011 
L 354.904421 293.850725 
L 355.386999 293.994138 
L 355.869577 292.067984 
L 356.352156 291.143568 
L 356.834734 293.210754 
L 357.799891 294.334796 
L 358.282469 294.008245 
L 358.765047 294.001097 
L 359.247625 294.252381 
L 359.730204 293.940276 
L 360.212782 294.023728 
L 360.69536 295.20765 
L 361.177939 291.614629 
L 361.660517 294.173035 
L 362.143095 295.989137 
L 362.625673 295.827197 
L 363.108252 296.32459 
L 363.59083 295.109312 
L 364.073408 295.102431 
L 364.555987 294.281749 
L 365.038565 295.399158 
L 365.521143 295.985483 
L 366.003721 296.212152 
L 366.4863 294.153917 
L 366.968878 295.591639 
L 367.451456 296.578666 
L 367.934035 295.173943 
L 368.416613 295.477448 
L 368.899191 296.234355 
L 369.38177 292.850988 
L 369.864348 293.520779 
L 370.346926 296.255068 
L 370.829504 297.023217 
L 371.794661 295.687988 
L 372.277239 294.212455 
L 372.759818 295.076135 
L 373.242396 295.206175 
L 373.724974 297.92736 
L 374.207552 297.780293 
L 374.690131 296.707646 
L 375.172709 298.148084 
L 375.655287 289.74677 
L 376.137866 297.803676 
L 376.620444 294.316601 
L 377.103022 292.777399 
L 377.5856 295.336681 
L 378.068179 298.671941 
L 378.550757 298.929882 
L 379.033335 298.443877 
L 379.515914 297.752022 
L 379.998492 295.571835 
L 380.48107 297.284291 
L 380.963649 298.287142 
L 381.446227 298.047222 
L 381.928805 298.464095 
L 382.411383 297.267303 
L 382.893962 299.438623 
L 383.37654 298.075957 
L 383.859118 299.602965 
L 384.341697 297.338859 
L 384.824275 298.879118 
L 385.306853 298.487707 
L 385.789431 299.512393 
L 386.27201 300.204383 
L 386.754588 299.067371 
L 387.237166 296.788291 
L 387.719745 299.955914 
L 388.202323 297.428096 
L 388.684901 299.898658 
L 389.167479 299.323386 
L 389.650058 299.153815 
L 390.132636 300.008085 
L 391.097793 300.13207 
L 391.580371 300.814938 
L 392.062949 298.745796 
L 392.545528 300.627719 
L 393.028106 300.113042 
L 393.510684 299.88498 
L 393.993262 298.729268 
L 394.475841 300.411373 
L 394.958419 299.744058 
L 395.440997 296.173017 
L 395.923576 299.655234 
L 396.406154 300.313827 
L 396.888732 298.805283 
L 397.37131 300.313801 
L 397.853889 296.967355 
L 398.336467 298.403772 
L 398.819045 298.316869 
L 399.301624 297.256494 
L 399.784202 299.574355 
L 400.26678 300.007047 
L 400.749358 300.261268 
L 401.231937 301.778975 
L 401.714515 297.808467 
L 402.197093 301.463392 
L 403.16225 299.585965 
L 403.644828 300.360434 
L 404.127407 300.84875 
L 404.609985 300.07199 
L 405.092563 301.222515 
L 405.575141 300.674094 
L 406.05772 301.387618 
L 406.540298 301.464982 
L 407.022876 299.598041 
L 407.505455 302.208 
L 407.505455 302.208 
" style="fill:none;stroke:#1f77b4;stroke-linecap:square;stroke-width:1.5;"/>
   </g>
   <g id="patch_18">
    <path d="M 256 307.584 
L 256 189.312 
" style="fill:none;stroke:#000000;stroke-linecap:square;stroke-linejoin:miter;stroke-width:0.8;"/>
   </g>
   <g id="patch_19">
    <path d="M 414.72 307.584 
L 414.72 189.312 
" style="fill:none;stroke:#000000;stroke-linecap:square;stroke-linejoin:miter;stroke-width:0.8;"/>
   </g>
   <g id="patch_20">
    <path d="M 256 307.584 
L 414.72 307.584 
" style="fill:none;stroke:#000000;stroke-linecap:square;stroke-linejoin:miter;stroke-width:0.8;"/>
   </g>
   <g id="patch_21">
    <path d="M 256 189.312 
L 414.72 189.312 
" style="fill:none;stroke:#000000;stroke-linecap:square;stroke-linejoin:miter;stroke-width:0.8;"/>
   </g>
   <g id="text_34">
    <!-- val_loss -->
    <g transform="translate(311.875625 183.312)scale(0.12 -0.12)">
     <use xlink:href="#DejaVuSans-76"/>
     <use x="59.179688" xlink:href="#DejaVuSans-61"/>
     <use x="120.458984" xlink:href="#DejaVuSans-6c"/>
     <use x="148.242188" xlink:href="#DejaVuSans-5f"/>
     <use x="198.242188" xlink:href="#DejaVuSans-6c"/>
     <use x="226.025391" xlink:href="#DejaVuSans-6f"/>
     <use x="287.207031" xlink:href="#DejaVuSans-73"/>
     <use x="339.306641" xlink:href="#DejaVuSans-73"/>
    </g>
   </g>
  </g>
  <g id="text_35">
   <!-- benchmark 20171023_064144 -->
   <defs>
    <path d="M 48.6875 27.296875 
Q 48.6875 37.203125 44.609375 42.84375 
Q 40.53125 48.484375 33.40625 48.484375 
Q 26.265625 48.484375 22.1875 42.84375 
Q 18.109375 37.203125 18.109375 27.296875 
Q 18.109375 17.390625 22.1875 11.75 
Q 26.265625 6.109375 33.40625 6.109375 
Q 40.53125 6.109375 44.609375 11.75 
Q 48.6875 17.390625 48.6875 27.296875 
z
M 18.109375 46.390625 
Q 20.953125 51.265625 25.265625 53.625 
Q 29.59375 56 35.59375 56 
Q 45.5625 56 51.78125 48.09375 
Q 58.015625 40.1875 58.015625 27.296875 
Q 58.015625 14.40625 51.78125 6.484375 
Q 45.5625 -1.421875 35.59375 -1.421875 
Q 29.59375 -1.421875 25.265625 0.953125 
Q 20.953125 3.328125 18.109375 8.203125 
L 18.109375 0 
L 9.078125 0 
L 9.078125 75.984375 
L 18.109375 75.984375 
z
" id="DejaVuSans-62"/>
    <path d="M 56.203125 29.59375 
L 56.203125 25.203125 
L 14.890625 25.203125 
Q 15.484375 15.921875 20.484375 11.0625 
Q 25.484375 6.203125 34.421875 6.203125 
Q 39.59375 6.203125 44.453125 7.46875 
Q 49.3125 8.734375 54.109375 11.28125 
L 54.109375 2.78125 
Q 49.265625 0.734375 44.1875 -0.34375 
Q 39.109375 -1.421875 33.890625 -1.421875 
Q 20.796875 -1.421875 13.15625 6.1875 
Q 5.515625 13.8125 5.515625 26.8125 
Q 5.515625 40.234375 12.765625 48.109375 
Q 20.015625 56 32.328125 56 
Q 43.359375 56 49.78125 48.890625 
Q 56.203125 41.796875 56.203125 29.59375 
z
M 47.21875 32.234375 
Q 47.125 39.59375 43.09375 43.984375 
Q 39.0625 48.390625 32.421875 48.390625 
Q 24.90625 48.390625 20.390625 44.140625 
Q 15.875 39.890625 15.1875 32.171875 
z
" id="DejaVuSans-65"/>
    <path d="M 54.890625 33.015625 
L 54.890625 0 
L 45.90625 0 
L 45.90625 32.71875 
Q 45.90625 40.484375 42.875 44.328125 
Q 39.84375 48.1875 33.796875 48.1875 
Q 26.515625 48.1875 22.3125 43.546875 
Q 18.109375 38.921875 18.109375 30.90625 
L 18.109375 0 
L 9.078125 0 
L 9.078125 54.6875 
L 18.109375 54.6875 
L 18.109375 46.1875 
Q 21.34375 51.125 25.703125 53.5625 
Q 30.078125 56 35.796875 56 
Q 45.21875 56 50.046875 50.171875 
Q 54.890625 44.34375 54.890625 33.015625 
z
" id="DejaVuSans-6e"/>
    <path d="M 54.890625 33.015625 
L 54.890625 0 
L 45.90625 0 
L 45.90625 32.71875 
Q 45.90625 40.484375 42.875 44.328125 
Q 39.84375 48.1875 33.796875 48.1875 
Q 26.515625 48.1875 22.3125 43.546875 
Q 18.109375 38.921875 18.109375 30.90625 
L 18.109375 0 
L 9.078125 0 
L 9.078125 75.984375 
L 18.109375 75.984375 
L 18.109375 46.1875 
Q 21.34375 51.125 25.703125 53.5625 
Q 30.078125 56 35.796875 56 
Q 45.21875 56 50.046875 50.171875 
Q 54.890625 44.34375 54.890625 33.015625 
z
" id="DejaVuSans-68"/>
    <path d="M 52 44.1875 
Q 55.375 50.25 60.0625 53.125 
Q 64.75 56 71.09375 56 
Q 79.640625 56 84.28125 50.015625 
Q 88.921875 44.046875 88.921875 33.015625 
L 88.921875 0 
L 79.890625 0 
L 79.890625 32.71875 
Q 79.890625 40.578125 77.09375 44.375 
Q 74.3125 48.1875 68.609375 48.1875 
Q 61.625 48.1875 57.5625 43.546875 
Q 53.515625 38.921875 53.515625 30.90625 
L 53.515625 0 
L 44.484375 0 
L 44.484375 32.71875 
Q 44.484375 40.625 41.703125 44.40625 
Q 38.921875 48.1875 33.109375 48.1875 
Q 26.21875 48.1875 22.15625 43.53125 
Q 18.109375 38.875 18.109375 30.90625 
L 18.109375 0 
L 9.078125 0 
L 9.078125 54.6875 
L 18.109375 54.6875 
L 18.109375 46.1875 
Q 21.1875 51.21875 25.484375 53.609375 
Q 29.78125 56 35.6875 56 
Q 41.65625 56 45.828125 52.96875 
Q 50 49.953125 52 44.1875 
z
" id="DejaVuSans-6d"/>
    <path d="M 41.109375 46.296875 
Q 39.59375 47.171875 37.8125 47.578125 
Q 36.03125 48 33.890625 48 
Q 26.265625 48 22.1875 43.046875 
Q 18.109375 38.09375 18.109375 28.8125 
L 18.109375 0 
L 9.078125 0 
L 9.078125 54.6875 
L 18.109375 54.6875 
L 18.109375 46.1875 
Q 20.953125 51.171875 25.484375 53.578125 
Q 30.03125 56 36.53125 56 
Q 37.453125 56 38.578125 55.875 
Q 39.703125 55.765625 41.0625 55.515625 
z
" id="DejaVuSans-72"/>
    <path d="M 9.078125 75.984375 
L 18.109375 75.984375 
L 18.109375 31.109375 
L 44.921875 54.6875 
L 56.390625 54.6875 
L 27.390625 29.109375 
L 57.625 0 
L 45.90625 0 
L 18.109375 26.703125 
L 18.109375 0 
L 9.078125 0 
z
" id="DejaVuSans-6b"/>
    <path id="DejaVuSans-20"/>
    <path d="M 8.203125 72.90625 
L 55.078125 72.90625 
L 55.078125 68.703125 
L 28.609375 0 
L 18.3125 0 
L 43.21875 64.59375 
L 8.203125 64.59375 
z
" id="DejaVuSans-37"/>
   </defs>
   <g transform="translate(138.180938 16.030125)scale(0.12 -0.12)">
    <use xlink:href="#DejaVuSans-62"/>
    <use x="63.476562" xlink:href="#DejaVuSans-65"/>
    <use x="125" xlink:href="#DejaVuSans-6e"/>
    <use x="188.378906" xlink:href="#DejaVuSans-63"/>
    <use x="243.359375" xlink:href="#DejaVuSans-68"/>
    <use x="306.738281" xlink:href="#DejaVuSans-6d"/>
    <use x="404.150391" xlink:href="#DejaVuSans-61"/>
    <use x="465.429688" xlink:href="#DejaVuSans-72"/>
    <use x="506.542969" xlink:href="#DejaVuSans-6b"/>
    <use x="564.453125" xlink:href="#DejaVuSans-20"/>
    <use x="596.240234" xlink:href="#DejaVuSans-32"/>
    <use x="659.863281" xlink:href="#DejaVuSans-30"/>
    <use x="723.486328" xlink:href="#DejaVuSans-31"/>
    <use x="787.109375" xlink:href="#DejaVuSans-37"/>
    <use x="850.732422" xlink:href="#DejaVuSans-31"/>
    <use x="914.355469" xlink:href="#DejaVuSans-30"/>
    <use x="977.978516" xlink:href="#DejaVuSans-32"/>
    <use x="1041.601562" xlink:href="#DejaVuSans-33"/>
    <use x="1105.224609" xlink:href="#DejaVuSans-5f"/>
    <use x="1155.224609" xlink:href="#DejaVuSans-30"/>
    <use x="1218.847656" xlink:href="#DejaVuSans-36"/>
    <use x="1282.470703" xlink:href="#DejaVuSans-34"/>
    <use x="1346.09375" xlink:href="#DejaVuSans-31"/>
    <use x="1409.716797" xlink:href="#DejaVuSans-34"/>
    <use x="1473.339844" xlink:href="#DejaVuSans-34"/>
   </g>
  </g>
 </g>
 <defs>
  <clipPath id="pac84648e4b">
   <rect height="118.272" width="158.72" x="57.6" y="41.472"/>
  </clipPath>
  <clipPath id="p5f8c618425">
   <rect height="118.272" width="158.72" x="256" y="41.472"/>
  </clipPath>
  <clipPath id="p6261538c73">
   <rect height="118.272" width="158.72" x="57.6" y="189.312"/>
  </clipPath>
  <clipPath id="p7f33b16f4d">
   <rect height="118.272" width="158.72" x="256" y="189.312"/>
  </clipPath>
 </defs>
</svg>
