<?xml version="1.0" encoding="utf-8" standalone="no"?>
<!DOCTYPE svg PUBLIC "-//W3C//DTD SVG 1.1//EN"
  "http://www.w3.org/Graphics/SVG/1.1/DTD/svg11.dtd">
<!-- Created with matplotlib (http://matplotlib.org/) -->
<svg height="345pt" version="1.1" viewBox="0 0 460 345" width="460pt" xmlns="http://www.w3.org/2000/svg" xmlns:xlink="http://www.w3.org/1999/xlink">
 <defs>
  <style type="text/css">
*{stroke-linecap:butt;stroke-linejoin:round;}
  </style>
 </defs>
 <g id="figure_1">
  <g id="patch_1">
   <path d="M 0 345.6 
L 460.8 345.6 
L 460.8 0 
L 0 0 
z
" style="fill:#ffffff;"/>
  </g>
  <g id="axes_1">
   <g id="patch_2">
    <path d="M 57.6 159.744 
L 216.32 159.744 
L 216.32 41.472 
L 57.6 41.472 
z
" style="fill:#ffffff;"/>
   </g>
   <g id="matplotlib.axis_1">
    <g id="xtick_1">
     <g id="line2d_1">
      <path clip-path="url(#p238260f773)" d="M 64.814545 159.744 
L 64.814545 41.472 
" style="fill:none;stroke:#b0b0b0;stroke-linecap:square;stroke-width:0.8;"/>
     </g>
     <g id="line2d_2">
      <defs>
       <path d="M 0 0 
L 0 3.5 
" id="m6d48a88ad7" style="stroke:#000000;stroke-width:0.8;"/>
      </defs>
      <g>
       <use style="stroke:#000000;stroke-width:0.8;" x="64.814545" xlink:href="#m6d48a88ad7" y="159.744"/>
      </g>
     </g>
     <g id="text_1">
      <!-- 0 -->
      <defs>
       <path d="M 31.78125 66.40625 
Q 24.171875 66.40625 20.328125 58.90625 
Q 16.5 51.421875 16.5 36.375 
Q 16.5 21.390625 20.328125 13.890625 
Q 24.171875 6.390625 31.78125 6.390625 
Q 39.453125 6.390625 43.28125 13.890625 
Q 47.125 21.390625 47.125 36.375 
Q 47.125 51.421875 43.28125 58.90625 
Q 39.453125 66.40625 31.78125 66.40625 
z
M 31.78125 74.21875 
Q 44.046875 74.21875 50.515625 64.515625 
Q 56.984375 54.828125 56.984375 36.375 
Q 56.984375 17.96875 50.515625 8.265625 
Q 44.046875 -1.421875 31.78125 -1.421875 
Q 19.53125 -1.421875 13.0625 8.265625 
Q 6.59375 17.96875 6.59375 36.375 
Q 6.59375 54.828125 13.0625 64.515625 
Q 19.53125 74.21875 31.78125 74.21875 
z
" id="DejaVuSans-30"/>
      </defs>
      <g transform="translate(61.633295 174.342437)scale(0.1 -0.1)">
       <use xlink:href="#DejaVuSans-30"/>
      </g>
     </g>
    </g>
    <g id="xtick_2">
     <g id="line2d_3">
      <path clip-path="url(#p238260f773)" d="M 113.072375 159.744 
L 113.072375 41.472 
" style="fill:none;stroke:#b0b0b0;stroke-linecap:square;stroke-width:0.8;"/>
     </g>
     <g id="line2d_4">
      <g>
       <use style="stroke:#000000;stroke-width:0.8;" x="113.072375" xlink:href="#m6d48a88ad7" y="159.744"/>
      </g>
     </g>
     <g id="text_2">
      <!-- 100 -->
      <defs>
       <path d="M 12.40625 8.296875 
L 28.515625 8.296875 
L 28.515625 63.921875 
L 10.984375 60.40625 
L 10.984375 69.390625 
L 28.421875 72.90625 
L 38.28125 72.90625 
L 38.28125 8.296875 
L 54.390625 8.296875 
L 54.390625 0 
L 12.40625 0 
z
" id="DejaVuSans-31"/>
      </defs>
      <g transform="translate(103.528625 174.342437)scale(0.1 -0.1)">
       <use xlink:href="#DejaVuSans-31"/>
       <use x="63.623047" xlink:href="#DejaVuSans-30"/>
       <use x="127.246094" xlink:href="#DejaVuSans-30"/>
      </g>
     </g>
    </g>
    <g id="xtick_3">
     <g id="line2d_5">
      <path clip-path="url(#p238260f773)" d="M 161.330204 159.744 
L 161.330204 41.472 
" style="fill:none;stroke:#b0b0b0;stroke-linecap:square;stroke-width:0.8;"/>
     </g>
     <g id="line2d_6">
      <g>
       <use style="stroke:#000000;stroke-width:0.8;" x="161.330204" xlink:href="#m6d48a88ad7" y="159.744"/>
      </g>
     </g>
     <g id="text_3">
      <!-- 200 -->
      <defs>
       <path d="M 19.1875 8.296875 
L 53.609375 8.296875 
L 53.609375 0 
L 7.328125 0 
L 7.328125 8.296875 
Q 12.9375 14.109375 22.625 23.890625 
Q 32.328125 33.6875 34.8125 36.53125 
Q 39.546875 41.84375 41.421875 45.53125 
Q 43.3125 49.21875 43.3125 52.78125 
Q 43.3125 58.59375 39.234375 62.25 
Q 35.15625 65.921875 28.609375 65.921875 
Q 23.96875 65.921875 18.8125 64.3125 
Q 13.671875 62.703125 7.8125 59.421875 
L 7.8125 69.390625 
Q 13.765625 71.78125 18.9375 73 
Q 24.125 74.21875 28.421875 74.21875 
Q 39.75 74.21875 46.484375 68.546875 
Q 53.21875 62.890625 53.21875 53.421875 
Q 53.21875 48.921875 51.53125 44.890625 
Q 49.859375 40.875 45.40625 35.40625 
Q 44.1875 33.984375 37.640625 27.21875 
Q 31.109375 20.453125 19.1875 8.296875 
z
" id="DejaVuSans-32"/>
      </defs>
      <g transform="translate(151.786454 174.342437)scale(0.1 -0.1)">
       <use xlink:href="#DejaVuSans-32"/>
       <use x="63.623047" xlink:href="#DejaVuSans-30"/>
       <use x="127.246094" xlink:href="#DejaVuSans-30"/>
      </g>
     </g>
    </g>
    <g id="xtick_4">
     <g id="line2d_7">
      <path clip-path="url(#p238260f773)" d="M 209.588033 159.744 
L 209.588033 41.472 
" style="fill:none;stroke:#b0b0b0;stroke-linecap:square;stroke-width:0.8;"/>
     </g>
     <g id="line2d_8">
      <g>
       <use style="stroke:#000000;stroke-width:0.8;" x="209.588033" xlink:href="#m6d48a88ad7" y="159.744"/>
      </g>
     </g>
     <g id="text_4">
      <!-- 300 -->
      <defs>
       <path d="M 40.578125 39.3125 
Q 47.65625 37.796875 51.625 33 
Q 55.609375 28.21875 55.609375 21.1875 
Q 55.609375 10.40625 48.1875 4.484375 
Q 40.765625 -1.421875 27.09375 -1.421875 
Q 22.515625 -1.421875 17.65625 -0.515625 
Q 12.796875 0.390625 7.625 2.203125 
L 7.625 11.71875 
Q 11.71875 9.328125 16.59375 8.109375 
Q 21.484375 6.890625 26.8125 6.890625 
Q 36.078125 6.890625 40.9375 10.546875 
Q 45.796875 14.203125 45.796875 21.1875 
Q 45.796875 27.640625 41.28125 31.265625 
Q 36.765625 34.90625 28.71875 34.90625 
L 20.21875 34.90625 
L 20.21875 43.015625 
L 29.109375 43.015625 
Q 36.375 43.015625 40.234375 45.921875 
Q 44.09375 48.828125 44.09375 54.296875 
Q 44.09375 59.90625 40.109375 62.90625 
Q 36.140625 65.921875 28.71875 65.921875 
Q 24.65625 65.921875 20.015625 65.03125 
Q 15.375 64.15625 9.8125 62.3125 
L 9.8125 71.09375 
Q 15.4375 72.65625 20.34375 73.4375 
Q 25.25 74.21875 29.59375 74.21875 
Q 40.828125 74.21875 47.359375 69.109375 
Q 53.90625 64.015625 53.90625 55.328125 
Q 53.90625 49.265625 50.4375 45.09375 
Q 46.96875 40.921875 40.578125 39.3125 
z
" id="DejaVuSans-33"/>
      </defs>
      <g transform="translate(200.044283 174.342437)scale(0.1 -0.1)">
       <use xlink:href="#DejaVuSans-33"/>
       <use x="63.623047" xlink:href="#DejaVuSans-30"/>
       <use x="127.246094" xlink:href="#DejaVuSans-30"/>
      </g>
     </g>
    </g>
   </g>
   <g id="matplotlib.axis_2">
    <g id="ytick_1">
     <g id="line2d_9">
      <path clip-path="url(#p238260f773)" d="M 57.6 154.792281 
L 216.32 154.792281 
" style="fill:none;stroke:#b0b0b0;stroke-linecap:square;stroke-width:0.8;"/>
     </g>
     <g id="line2d_10">
      <defs>
       <path d="M 0 0 
L -3.5 0 
" id="m3b9a0e2a5e" style="stroke:#000000;stroke-width:0.8;"/>
      </defs>
      <g>
       <use style="stroke:#000000;stroke-width:0.8;" x="57.6" xlink:href="#m3b9a0e2a5e" y="154.792281"/>
      </g>
     </g>
     <g id="text_5">
      <!-- 0.00 -->
      <defs>
       <path d="M 10.6875 12.40625 
L 21 12.40625 
L 21 0 
L 10.6875 0 
z
" id="DejaVuSans-2e"/>
      </defs>
      <g transform="translate(28.334375 158.5915)scale(0.1 -0.1)">
       <use xlink:href="#DejaVuSans-30"/>
       <use x="63.623047" xlink:href="#DejaVuSans-2e"/>
       <use x="95.410156" xlink:href="#DejaVuSans-30"/>
       <use x="159.033203" xlink:href="#DejaVuSans-30"/>
      </g>
     </g>
    </g>
    <g id="ytick_2">
     <g id="line2d_11">
      <path clip-path="url(#p238260f773)" d="M 57.6 127.638266 
L 216.32 127.638266 
" style="fill:none;stroke:#b0b0b0;stroke-linecap:square;stroke-width:0.8;"/>
     </g>
     <g id="line2d_12">
      <g>
       <use style="stroke:#000000;stroke-width:0.8;" x="57.6" xlink:href="#m3b9a0e2a5e" y="127.638266"/>
      </g>
     </g>
     <g id="text_6">
      <!-- 0.25 -->
      <defs>
       <path d="M 10.796875 72.90625 
L 49.515625 72.90625 
L 49.515625 64.59375 
L 19.828125 64.59375 
L 19.828125 46.734375 
Q 21.96875 47.46875 24.109375 47.828125 
Q 26.265625 48.1875 28.421875 48.1875 
Q 40.625 48.1875 47.75 41.5 
Q 54.890625 34.8125 54.890625 23.390625 
Q 54.890625 11.625 47.5625 5.09375 
Q 40.234375 -1.421875 26.90625 -1.421875 
Q 22.3125 -1.421875 17.546875 -0.640625 
Q 12.796875 0.140625 7.71875 1.703125 
L 7.71875 11.625 
Q 12.109375 9.234375 16.796875 8.0625 
Q 21.484375 6.890625 26.703125 6.890625 
Q 35.15625 6.890625 40.078125 11.328125 
Q 45.015625 15.765625 45.015625 23.390625 
Q 45.015625 31 40.078125 35.4375 
Q 35.15625 39.890625 26.703125 39.890625 
Q 22.75 39.890625 18.8125 39.015625 
Q 14.890625 38.140625 10.796875 36.28125 
z
" id="DejaVuSans-35"/>
      </defs>
      <g transform="translate(28.334375 131.437485)scale(0.1 -0.1)">
       <use xlink:href="#DejaVuSans-30"/>
       <use x="63.623047" xlink:href="#DejaVuSans-2e"/>
       <use x="95.410156" xlink:href="#DejaVuSans-32"/>
       <use x="159.033203" xlink:href="#DejaVuSans-35"/>
      </g>
     </g>
    </g>
    <g id="ytick_3">
     <g id="line2d_13">
      <path clip-path="url(#p238260f773)" d="M 57.6 100.484251 
L 216.32 100.484251 
" style="fill:none;stroke:#b0b0b0;stroke-linecap:square;stroke-width:0.8;"/>
     </g>
     <g id="line2d_14">
      <g>
       <use style="stroke:#000000;stroke-width:0.8;" x="57.6" xlink:href="#m3b9a0e2a5e" y="100.484251"/>
      </g>
     </g>
     <g id="text_7">
      <!-- 0.50 -->
      <g transform="translate(28.334375 104.28347)scale(0.1 -0.1)">
       <use xlink:href="#DejaVuSans-30"/>
       <use x="63.623047" xlink:href="#DejaVuSans-2e"/>
       <use x="95.410156" xlink:href="#DejaVuSans-35"/>
       <use x="159.033203" xlink:href="#DejaVuSans-30"/>
      </g>
     </g>
    </g>
    <g id="ytick_4">
     <g id="line2d_15">
      <path clip-path="url(#p238260f773)" d="M 57.6 73.330236 
L 216.32 73.330236 
" style="fill:none;stroke:#b0b0b0;stroke-linecap:square;stroke-width:0.8;"/>
     </g>
     <g id="line2d_16">
      <g>
       <use style="stroke:#000000;stroke-width:0.8;" x="57.6" xlink:href="#m3b9a0e2a5e" y="73.330236"/>
      </g>
     </g>
     <g id="text_8">
      <!-- 0.75 -->
      <defs>
       <path d="M 8.203125 72.90625 
L 55.078125 72.90625 
L 55.078125 68.703125 
L 28.609375 0 
L 18.3125 0 
L 43.21875 64.59375 
L 8.203125 64.59375 
z
" id="DejaVuSans-37"/>
      </defs>
      <g transform="translate(28.334375 77.129455)scale(0.1 -0.1)">
       <use xlink:href="#DejaVuSans-30"/>
       <use x="63.623047" xlink:href="#DejaVuSans-2e"/>
       <use x="95.410156" xlink:href="#DejaVuSans-37"/>
       <use x="159.033203" xlink:href="#DejaVuSans-35"/>
      </g>
     </g>
    </g>
    <g id="ytick_5">
     <g id="line2d_17">
      <path clip-path="url(#p238260f773)" d="M 57.6 46.176221 
L 216.32 46.176221 
" style="fill:none;stroke:#b0b0b0;stroke-linecap:square;stroke-width:0.8;"/>
     </g>
     <g id="line2d_18">
      <g>
       <use style="stroke:#000000;stroke-width:0.8;" x="57.6" xlink:href="#m3b9a0e2a5e" y="46.176221"/>
      </g>
     </g>
     <g id="text_9">
      <!-- 1.00 -->
      <g transform="translate(28.334375 49.97544)scale(0.1 -0.1)">
       <use xlink:href="#DejaVuSans-31"/>
       <use x="63.623047" xlink:href="#DejaVuSans-2e"/>
       <use x="95.410156" xlink:href="#DejaVuSans-30"/>
       <use x="159.033203" xlink:href="#DejaVuSans-30"/>
      </g>
     </g>
    </g>
   </g>
   <g id="line2d_19">
    <path clip-path="url(#p238260f773)" d="M 64.814545 154.368 
L 65.297124 153.095156 
L 65.779702 148.357346 
L 66.26228 142.417405 
L 68.675172 105.009919 
L 69.640328 92.811826 
L 70.122907 86.37689 
L 70.605485 81.63908 
L 71.088063 79.482316 
L 71.570642 75.310215 
L 73.018376 67.036726 
L 73.500955 65.728525 
L 73.983533 63.642475 
L 74.466111 63.25355 
L 74.94869 60.778576 
L 75.431268 60.884646 
L 75.913846 58.657168 
L 76.396424 57.561108 
L 76.879003 56.853972 
L 77.361581 57.384324 
L 77.844159 55.015419 
L 78.326738 55.298273 
L 78.809316 54.272926 
L 79.291894 53.884002 
L 79.774472 53.282937 
L 80.257051 53.106152 
L 80.739629 52.328303 
L 81.222207 52.575801 
L 81.704786 51.833308 
L 82.187364 51.833308 
L 82.669942 51.656524 
L 83.152521 50.772604 
L 83.635099 51.055459 
L 84.117677 51.126172 
L 84.600255 50.48975 
L 85.082834 50.419036 
L 85.565412 50.171539 
L 86.04799 50.171539 
L 86.530569 49.959398 
L 88.460882 49.782614 
L 88.94346 49.181549 
L 89.426038 49.429046 
L 89.908617 49.322976 
L 91.356351 49.570473 
L 91.83893 48.580483 
L 92.321508 48.72191 
L 92.804086 48.580483 
L 93.286665 48.898694 
L 93.769243 48.403699 
L 94.7344 48.969408 
L 95.216978 48.651197 
L 95.699556 48.651197 
L 96.182134 48.439056 
L 96.664713 48.827981 
L 97.147291 48.297629 
L 97.629869 48.191558 
L 98.112448 47.767277 
L 98.595026 48.757267 
L 99.077604 47.873347 
L 99.560182 47.979417 
L 100.042761 47.83799 
L 100.525339 48.368342 
L 101.007917 48.191558 
L 101.490496 48.156202 
L 101.973074 48.262272 
L 102.93823 47.83799 
L 103.420809 47.908704 
L 103.903387 48.332986 
L 104.385965 48.368342 
L 104.868544 48.120845 
L 105.351122 48.120845 
L 105.8337 48.332985 
L 106.316279 48.297629 
L 106.798857 47.484422 
L 107.764013 48.014774 
L 108.72917 47.484422 
L 109.211748 47.413709 
L 109.694327 48.226915 
L 110.176905 47.449065 
L 110.659483 47.83799 
L 111.142061 48.014774 
L 111.62464 47.555136 
L 112.107218 48.085488 
L 112.589796 47.484422 
L 113.554953 47.908704 
L 115.002688 47.83799 
L 115.967844 47.307638 
L 116.450423 47.236925 
L 116.933001 47.661206 
L 117.415579 47.484422 
L 117.898157 47.590493 
L 118.380736 47.908704 
L 118.863314 47.201568 
L 119.345892 47.661206 
L 119.828471 47.201568 
L 120.311049 47.413709 
L 120.793627 47.272282 
L 121.276206 47.449066 
L 121.758784 47.767277 
L 122.241362 47.449066 
L 122.72394 48.014774 
L 123.206519 47.236925 
L 123.689097 47.484422 
L 124.171675 46.989427 
L 124.654254 47.944061 
L 125.136832 47.449065 
L 125.61941 47.413709 
L 126.101988 47.802634 
L 127.067145 47.378352 
L 127.549723 47.555136 
L 128.032302 48.120845 
L 129.480036 47.378352 
L 129.962615 47.519779 
L 130.445193 47.236925 
L 130.927771 47.661206 
L 131.892928 47.873347 
L 132.375506 47.590493 
L 133.340663 47.484422 
L 133.823241 47.095498 
L 134.305819 47.342995 
L 134.788398 47.166211 
L 135.270976 47.696563 
L 135.753554 47.555136 
L 136.236133 47.236925 
L 137.201289 47.519779 
L 137.683867 47.166211 
L 138.166446 47.555136 
L 138.649024 47.696563 
L 139.614181 46.848 
L 140.096759 46.95407 
L 140.579337 47.342995 
L 141.061915 47.307638 
L 141.544494 47.62585 
L 142.027072 47.201568 
L 142.50965 47.236925 
L 142.992229 47.449066 
L 143.957385 47.342995 
L 144.439964 47.767277 
L 144.922542 47.413709 
L 145.40512 47.413709 
L 145.887698 48.014774 
L 146.370277 47.342995 
L 146.852855 47.201568 
L 147.335433 47.555136 
L 147.818012 47.201568 
L 148.30059 47.661206 
L 148.783168 47.060141 
L 149.265746 47.519779 
L 149.748325 46.883357 
L 150.230903 46.883357 
L 150.713481 47.272281 
L 151.19606 46.95407 
L 151.678638 47.555136 
L 152.161216 47.555136 
L 152.643794 47.272282 
L 153.126373 47.62585 
L 153.608951 47.342995 
L 154.091529 47.519779 
L 154.574108 47.166211 
L 156.504421 47.62585 
L 156.986999 47.378352 
L 157.952156 47.73192 
L 158.917312 47.201568 
L 159.399891 47.449066 
L 160.365047 47.201568 
L 160.847625 47.519779 
L 161.812782 47.449066 
L 162.29536 47.555136 
L 163.260517 46.883357 
L 163.743095 47.944061 
L 164.225673 47.130854 
L 164.708252 46.989427 
L 165.19083 47.661206 
L 165.673408 47.413709 
L 166.155987 47.555136 
L 166.638565 47.484422 
L 167.121143 47.236925 
L 168.0863 47.484422 
L 168.568878 47.484422 
L 169.051456 47.661206 
L 170.016613 47.484422 
L 170.499191 47.908704 
L 170.98177 47.449066 
L 171.464348 47.201568 
L 171.946926 47.696563 
L 172.912083 47.83799 
L 173.394661 47.166211 
L 173.877239 47.342995 
L 174.359818 47.307638 
L 175.324974 47.555136 
L 176.290131 47.342995 
L 176.772709 47.484422 
L 177.255287 46.918714 
L 177.737866 47.449066 
L 178.703022 47.024784 
L 179.1856 47.555136 
L 180.150757 47.590493 
L 180.633335 47.307638 
L 181.115914 47.201568 
L 181.598492 47.555136 
L 182.08107 47.555136 
L 182.563649 47.307638 
L 183.046227 47.272282 
L 183.528805 47.802634 
L 184.011383 47.73192 
L 184.493962 47.342995 
L 184.97654 48.332986 
L 185.459118 47.236925 
L 185.941697 47.767277 
L 186.424275 47.342995 
L 187.389431 47.484422 
L 187.87201 47.413709 
L 188.354588 47.873347 
L 188.837166 47.696563 
L 189.319745 47.378352 
L 190.284901 47.590493 
L 190.767479 47.413709 
L 191.250058 47.62585 
L 192.215214 47.378352 
L 192.697793 46.918714 
L 193.180371 47.590493 
L 193.662949 46.918714 
L 195.110684 47.555136 
L 195.593262 47.979417 
L 196.075841 47.979418 
L 196.558419 48.120845 
L 197.040997 47.590493 
L 198.006154 47.661206 
L 198.488732 47.873347 
L 199.453889 47.484422 
L 199.936467 46.989427 
L 200.419045 47.908704 
L 201.384202 47.413709 
L 201.86678 47.378352 
L 202.349358 47.519779 
L 202.831937 48.085488 
L 203.314515 47.272282 
L 203.797093 47.449066 
L 204.279672 47.83799 
L 204.76225 47.908704 
L 205.244828 48.226915 
L 205.727407 47.908704 
L 206.209985 47.449066 
L 206.692563 47.484422 
L 207.65772 47.979418 
L 208.140298 47.590493 
L 208.622876 47.378352 
L 209.105455 47.484422 
L 209.105455 47.484422 
" style="fill:none;stroke:#1f77b4;stroke-linecap:square;stroke-width:1.5;"/>
   </g>
   <g id="patch_3">
    <path d="M 57.6 159.744 
L 57.6 41.472 
" style="fill:none;stroke:#000000;stroke-linecap:square;stroke-linejoin:miter;stroke-width:0.8;"/>
   </g>
   <g id="patch_4">
    <path d="M 216.32 159.744 
L 216.32 41.472 
" style="fill:none;stroke:#000000;stroke-linecap:square;stroke-linejoin:miter;stroke-width:0.8;"/>
   </g>
   <g id="patch_5">
    <path d="M 57.6 159.744 
L 216.32 159.744 
" style="fill:none;stroke:#000000;stroke-linecap:square;stroke-linejoin:miter;stroke-width:0.8;"/>
   </g>
   <g id="patch_6">
    <path d="M 57.6 41.472 
L 216.32 41.472 
" style="fill:none;stroke:#000000;stroke-linecap:square;stroke-linejoin:miter;stroke-width:0.8;"/>
   </g>
   <g id="text_10">
    <!-- acc -->
    <defs>
     <path d="M 34.28125 27.484375 
Q 23.390625 27.484375 19.1875 25 
Q 14.984375 22.515625 14.984375 16.5 
Q 14.984375 11.71875 18.140625 8.90625 
Q 21.296875 6.109375 26.703125 6.109375 
Q 34.1875 6.109375 38.703125 11.40625 
Q 43.21875 16.703125 43.21875 25.484375 
L 43.21875 27.484375 
z
M 52.203125 31.203125 
L 52.203125 0 
L 43.21875 0 
L 43.21875 8.296875 
Q 40.140625 3.328125 35.546875 0.953125 
Q 30.953125 -1.421875 24.3125 -1.421875 
Q 15.921875 -1.421875 10.953125 3.296875 
Q 6 8.015625 6 15.921875 
Q 6 25.140625 12.171875 29.828125 
Q 18.359375 34.515625 30.609375 34.515625 
L 43.21875 34.515625 
L 43.21875 35.40625 
Q 43.21875 41.609375 39.140625 45 
Q 35.0625 48.390625 27.6875 48.390625 
Q 23 48.390625 18.546875 47.265625 
Q 14.109375 46.140625 10.015625 43.890625 
L 10.015625 52.203125 
Q 14.9375 54.109375 19.578125 55.046875 
Q 24.21875 56 28.609375 56 
Q 40.484375 56 46.34375 49.84375 
Q 52.203125 43.703125 52.203125 31.203125 
z
" id="DejaVuSans-61"/>
     <path d="M 48.78125 52.59375 
L 48.78125 44.1875 
Q 44.96875 46.296875 41.140625 47.34375 
Q 37.3125 48.390625 33.40625 48.390625 
Q 24.65625 48.390625 19.8125 42.84375 
Q 14.984375 37.3125 14.984375 27.296875 
Q 14.984375 17.28125 19.8125 11.734375 
Q 24.65625 6.203125 33.40625 6.203125 
Q 37.3125 6.203125 41.140625 7.25 
Q 44.96875 8.296875 48.78125 10.40625 
L 48.78125 2.09375 
Q 45.015625 0.34375 40.984375 -0.53125 
Q 36.96875 -1.421875 32.421875 -1.421875 
Q 20.0625 -1.421875 12.78125 6.34375 
Q 5.515625 14.109375 5.515625 27.296875 
Q 5.515625 40.671875 12.859375 48.328125 
Q 20.21875 56 33.015625 56 
Q 37.15625 56 41.109375 55.140625 
Q 45.0625 54.296875 48.78125 52.59375 
z
" id="DejaVuSans-63"/>
    </defs>
    <g transform="translate(126.685 35.472)scale(0.12 -0.12)">
     <use xlink:href="#DejaVuSans-61"/>
     <use x="61.279297" xlink:href="#DejaVuSans-63"/>
     <use x="116.259766" xlink:href="#DejaVuSans-63"/>
    </g>
   </g>
  </g>
  <g id="axes_2">
   <g id="patch_7">
    <path d="M 256 159.744 
L 414.72 159.744 
L 414.72 41.472 
L 256 41.472 
z
" style="fill:#ffffff;"/>
   </g>
   <g id="matplotlib.axis_3">
    <g id="xtick_5">
     <g id="line2d_20">
      <path clip-path="url(#p0ddd156227)" d="M 263.214545 159.744 
L 263.214545 41.472 
" style="fill:none;stroke:#b0b0b0;stroke-linecap:square;stroke-width:0.8;"/>
     </g>
     <g id="line2d_21">
      <g>
       <use style="stroke:#000000;stroke-width:0.8;" x="263.214545" xlink:href="#m6d48a88ad7" y="159.744"/>
      </g>
     </g>
     <g id="text_11">
      <!-- 0 -->
      <g transform="translate(260.033295 174.342437)scale(0.1 -0.1)">
       <use xlink:href="#DejaVuSans-30"/>
      </g>
     </g>
    </g>
    <g id="xtick_6">
     <g id="line2d_22">
      <path clip-path="url(#p0ddd156227)" d="M 311.472375 159.744 
L 311.472375 41.472 
" style="fill:none;stroke:#b0b0b0;stroke-linecap:square;stroke-width:0.8;"/>
     </g>
     <g id="line2d_23">
      <g>
       <use style="stroke:#000000;stroke-width:0.8;" x="311.472375" xlink:href="#m6d48a88ad7" y="159.744"/>
      </g>
     </g>
     <g id="text_12">
      <!-- 100 -->
      <g transform="translate(301.928625 174.342437)scale(0.1 -0.1)">
       <use xlink:href="#DejaVuSans-31"/>
       <use x="63.623047" xlink:href="#DejaVuSans-30"/>
       <use x="127.246094" xlink:href="#DejaVuSans-30"/>
      </g>
     </g>
    </g>
    <g id="xtick_7">
     <g id="line2d_24">
      <path clip-path="url(#p0ddd156227)" d="M 359.730204 159.744 
L 359.730204 41.472 
" style="fill:none;stroke:#b0b0b0;stroke-linecap:square;stroke-width:0.8;"/>
     </g>
     <g id="line2d_25">
      <g>
       <use style="stroke:#000000;stroke-width:0.8;" x="359.730204" xlink:href="#m6d48a88ad7" y="159.744"/>
      </g>
     </g>
     <g id="text_13">
      <!-- 200 -->
      <g transform="translate(350.186454 174.342437)scale(0.1 -0.1)">
       <use xlink:href="#DejaVuSans-32"/>
       <use x="63.623047" xlink:href="#DejaVuSans-30"/>
       <use x="127.246094" xlink:href="#DejaVuSans-30"/>
      </g>
     </g>
    </g>
    <g id="xtick_8">
     <g id="line2d_26">
      <path clip-path="url(#p0ddd156227)" d="M 407.988033 159.744 
L 407.988033 41.472 
" style="fill:none;stroke:#b0b0b0;stroke-linecap:square;stroke-width:0.8;"/>
     </g>
     <g id="line2d_27">
      <g>
       <use style="stroke:#000000;stroke-width:0.8;" x="407.988033" xlink:href="#m6d48a88ad7" y="159.744"/>
      </g>
     </g>
     <g id="text_14">
      <!-- 300 -->
      <g transform="translate(398.444283 174.342437)scale(0.1 -0.1)">
       <use xlink:href="#DejaVuSans-33"/>
       <use x="63.623047" xlink:href="#DejaVuSans-30"/>
       <use x="127.246094" xlink:href="#DejaVuSans-30"/>
      </g>
     </g>
    </g>
   </g>
   <g id="matplotlib.axis_4">
    <g id="ytick_6">
     <g id="line2d_28">
      <path clip-path="url(#p0ddd156227)" d="M 256 155.101211 
L 414.72 155.101211 
" style="fill:none;stroke:#b0b0b0;stroke-linecap:square;stroke-width:0.8;"/>
     </g>
     <g id="line2d_29">
      <g>
       <use style="stroke:#000000;stroke-width:0.8;" x="256" xlink:href="#m3b9a0e2a5e" y="155.101211"/>
      </g>
     </g>
     <g id="text_15">
      <!-- 0 -->
      <g transform="translate(242.6375 158.90043)scale(0.1 -0.1)">
       <use xlink:href="#DejaVuSans-30"/>
      </g>
     </g>
    </g>
    <g id="ytick_7">
     <g id="line2d_30">
      <path clip-path="url(#p0ddd156227)" d="M 256 115.695786 
L 414.72 115.695786 
" style="fill:none;stroke:#b0b0b0;stroke-linecap:square;stroke-width:0.8;"/>
     </g>
     <g id="line2d_31">
      <g>
       <use style="stroke:#000000;stroke-width:0.8;" x="256" xlink:href="#m3b9a0e2a5e" y="115.695786"/>
      </g>
     </g>
     <g id="text_16">
      <!-- 2 -->
      <g transform="translate(242.6375 119.495005)scale(0.1 -0.1)">
       <use xlink:href="#DejaVuSans-32"/>
      </g>
     </g>
    </g>
    <g id="ytick_8">
     <g id="line2d_32">
      <path clip-path="url(#p0ddd156227)" d="M 256 76.290361 
L 414.72 76.290361 
" style="fill:none;stroke:#b0b0b0;stroke-linecap:square;stroke-width:0.8;"/>
     </g>
     <g id="line2d_33">
      <g>
       <use style="stroke:#000000;stroke-width:0.8;" x="256" xlink:href="#m3b9a0e2a5e" y="76.290361"/>
      </g>
     </g>
     <g id="text_17">
      <!-- 4 -->
      <defs>
       <path d="M 37.796875 64.3125 
L 12.890625 25.390625 
L 37.796875 25.390625 
z
M 35.203125 72.90625 
L 47.609375 72.90625 
L 47.609375 25.390625 
L 58.015625 25.390625 
L 58.015625 17.1875 
L 47.609375 17.1875 
L 47.609375 0 
L 37.796875 0 
L 37.796875 17.1875 
L 4.890625 17.1875 
L 4.890625 26.703125 
z
" id="DejaVuSans-34"/>
      </defs>
      <g transform="translate(242.6375 80.08958)scale(0.1 -0.1)">
       <use xlink:href="#DejaVuSans-34"/>
      </g>
     </g>
    </g>
   </g>
   <g id="line2d_34">
    <path clip-path="url(#p0ddd156227)" d="M 263.214545 46.848 
L 263.697124 56.293395 
L 264.66228 84.929249 
L 265.627437 101.868194 
L 266.592593 114.083268 
L 267.55775 123.159171 
L 268.522907 130.919702 
L 269.005485 133.595526 
L 269.488063 135.202606 
L 269.970642 137.750322 
L 271.900955 143.908393 
L 272.383533 144.847398 
L 272.866111 145.254616 
L 273.34869 146.670123 
L 273.831268 146.830653 
L 274.313846 148.192633 
L 275.279003 149.061922 
L 275.761581 149.16333 
L 276.244159 150.142525 
L 276.726738 149.903695 
L 277.209316 150.593272 
L 277.691894 151.016471 
L 278.657051 151.102332 
L 279.139629 151.713427 
L 279.622207 151.625955 
L 280.104786 151.90291 
L 281.069942 152.054672 
L 281.552521 152.396584 
L 282.517677 152.335515 
L 283.000255 152.716013 
L 283.965412 152.782535 
L 284.44799 152.610069 
L 284.930569 152.908593 
L 286.378303 152.945353 
L 286.860882 152.956555 
L 287.34346 153.129844 
L 288.308617 153.101588 
L 288.791195 153.355272 
L 289.273773 153.125235 
L 290.721508 153.686558 
L 291.204086 153.728237 
L 291.686665 153.51386 
L 292.169243 153.779622 
L 292.651821 153.257418 
L 293.1344 153.443863 
L 293.616978 153.499778 
L 294.099556 153.729607 
L 295.064713 153.580308 
L 296.029869 153.902818 
L 296.512448 153.922682 
L 296.995026 153.39074 
L 297.477604 153.790653 
L 297.960182 153.734068 
L 298.442761 153.828489 
L 298.925339 153.483005 
L 299.407917 153.763566 
L 299.890496 153.844248 
L 300.373074 153.50861 
L 300.855652 153.852136 
L 301.33823 153.708093 
L 301.820809 153.954615 
L 302.785965 153.687263 
L 303.268544 153.898967 
L 303.751122 153.803333 
L 304.716279 153.408627 
L 305.198857 153.941135 
L 305.681435 154.05502 
L 306.164013 153.771141 
L 307.12917 154.198492 
L 307.611748 154.332569 
L 308.094327 153.594753 
L 308.576905 153.855291 
L 309.059483 153.914149 
L 309.542061 153.699031 
L 310.02464 153.9346 
L 310.507218 153.765678 
L 310.989796 154.259602 
L 311.472375 153.762225 
L 311.954953 153.947169 
L 312.437531 153.394557 
L 312.920109 153.789762 
L 314.367844 154.216325 
L 315.815579 154.088224 
L 316.298157 153.752507 
L 317.263314 154.144856 
L 317.745892 153.738145 
L 318.228471 154.368 
L 318.711049 154.07594 
L 319.193627 154.107763 
L 320.158784 153.542673 
L 320.641362 154.040899 
L 321.12394 153.43749 
L 321.606519 154.077107 
L 322.089097 153.654957 
L 322.571675 154.318484 
L 323.054254 153.230921 
L 323.536832 153.821208 
L 324.01941 153.846089 
L 324.501988 153.626569 
L 324.984567 153.221496 
L 325.467145 153.836109 
L 325.949723 153.976291 
L 326.432302 153.258167 
L 326.91488 153.795756 
L 327.880036 154.078392 
L 328.362615 153.8177 
L 328.845193 154.102826 
L 329.327771 153.548777 
L 330.292928 153.47715 
L 331.258085 153.967367 
L 331.740663 153.942181 
L 333.188398 154.246631 
L 333.670976 153.728026 
L 334.153554 153.480257 
L 334.636133 154.097542 
L 335.118711 153.575924 
L 335.601289 153.996899 
L 336.083867 154.221123 
L 336.566446 153.640897 
L 337.049024 153.343702 
L 337.531602 153.923336 
L 338.014181 154.234578 
L 338.496759 154.235571 
L 338.979337 153.988228 
L 339.461915 154.088719 
L 339.944494 153.492037 
L 340.427072 154.098493 
L 340.90965 154.036552 
L 341.392229 153.484956 
L 341.874807 153.913623 
L 342.839964 153.178532 
L 343.80512 153.933003 
L 344.287698 152.863761 
L 345.252855 153.984752 
L 345.735433 153.418598 
L 346.218012 153.943288 
L 346.70059 153.180821 
L 347.183168 153.930148 
L 347.665746 153.38104 
L 348.148325 154.322004 
L 348.630903 154.144664 
L 349.113481 153.689161 
L 349.59606 154.198189 
L 350.078638 153.351721 
L 350.561216 153.533597 
L 351.043794 153.557433 
L 351.526373 153.332657 
L 352.008951 153.665189 
L 352.491529 153.346455 
L 352.974108 153.798561 
L 353.456686 153.257134 
L 353.939264 153.003398 
L 354.904421 152.884799 
L 355.386999 153.313718 
L 355.869577 153.143549 
L 356.352156 152.706032 
L 357.317312 153.697227 
L 357.799891 153.331381 
L 358.282469 153.762233 
L 358.765047 153.505785 
L 359.247625 153.005666 
L 359.730204 153.42384 
L 360.69536 153.24264 
L 361.177939 153.505463 
L 361.660517 154.152525 
L 362.143095 152.368859 
L 362.625673 153.589003 
L 363.108252 153.749451 
L 363.59083 152.828617 
L 364.073408 152.976984 
L 365.521143 153.850041 
L 366.4863 152.862515 
L 366.968878 153.291714 
L 367.451456 152.677314 
L 367.934035 152.431669 
L 368.416613 153.040169 
L 368.899191 152.67843 
L 369.38177 153.384703 
L 369.864348 153.201475 
L 370.346926 152.617472 
L 370.829504 152.434308 
L 371.312083 151.916824 
L 371.794661 153.70815 
L 372.277239 153.029149 
L 372.759818 153.383722 
L 373.242396 152.936361 
L 373.724974 152.854722 
L 374.207552 153.503912 
L 375.172709 153.333389 
L 375.655287 154.044211 
L 376.137866 152.804231 
L 376.620444 153.33353 
L 377.103022 153.672501 
L 377.5856 152.411096 
L 378.068179 152.674902 
L 378.550757 152.161395 
L 379.033335 153.422806 
L 379.515914 153.536428 
L 379.998492 152.442404 
L 380.48107 152.807036 
L 380.963649 153.730418 
L 381.446227 153.208989 
L 381.928805 152.395564 
L 382.411383 152.243983 
L 382.893962 152.862713 
L 383.37654 151.254283 
L 383.859118 153.383056 
L 384.341697 152.044702 
L 384.824275 153.157604 
L 385.306853 153.059302 
L 385.789431 152.538071 
L 386.27201 153.135189 
L 386.754588 151.954586 
L 387.237166 152.767379 
L 387.719745 152.942457 
L 388.202323 152.753946 
L 388.684901 152.775125 
L 389.167479 153.406114 
L 389.650058 152.059599 
L 390.615214 153.104206 
L 391.097793 153.791413 
L 391.580371 152.883089 
L 392.062949 153.870356 
L 392.545528 153.670496 
L 393.028106 152.828687 
L 393.510684 152.220128 
L 393.993262 152.201268 
L 394.958419 151.254905 
L 395.440997 152.563362 
L 395.923576 152.212128 
L 396.406154 152.345942 
L 396.888732 152.149995 
L 398.336467 153.391291 
L 398.819045 151.523639 
L 399.301624 152.344242 
L 400.26678 152.830317 
L 400.749358 152.686339 
L 401.231937 151.14269 
L 401.714515 152.815751 
L 402.197093 152.454681 
L 403.16225 151.290629 
L 403.644828 151.138241 
L 404.609985 153.062999 
L 405.092563 152.557548 
L 405.575141 151.72153 
L 406.05772 151.262776 
L 406.540298 152.443492 
L 407.022876 152.279228 
L 407.505455 152.495586 
L 407.505455 152.495586 
" style="fill:none;stroke:#1f77b4;stroke-linecap:square;stroke-width:1.5;"/>
   </g>
   <g id="patch_8">
    <path d="M 256 159.744 
L 256 41.472 
" style="fill:none;stroke:#000000;stroke-linecap:square;stroke-linejoin:miter;stroke-width:0.8;"/>
   </g>
   <g id="patch_9">
    <path d="M 414.72 159.744 
L 414.72 41.472 
" style="fill:none;stroke:#000000;stroke-linecap:square;stroke-linejoin:miter;stroke-width:0.8;"/>
   </g>
   <g id="patch_10">
    <path d="M 256 159.744 
L 414.72 159.744 
" style="fill:none;stroke:#000000;stroke-linecap:square;stroke-linejoin:miter;stroke-width:0.8;"/>
   </g>
   <g id="patch_11">
    <path d="M 256 41.472 
L 414.72 41.472 
" style="fill:none;stroke:#000000;stroke-linecap:square;stroke-linejoin:miter;stroke-width:0.8;"/>
   </g>
   <g id="text_18">
    <!-- loss -->
    <defs>
     <path d="M 9.421875 75.984375 
L 18.40625 75.984375 
L 18.40625 0 
L 9.421875 0 
z
" id="DejaVuSans-6c"/>
     <path d="M 30.609375 48.390625 
Q 23.390625 48.390625 19.1875 42.75 
Q 14.984375 37.109375 14.984375 27.296875 
Q 14.984375 17.484375 19.15625 11.84375 
Q 23.34375 6.203125 30.609375 6.203125 
Q 37.796875 6.203125 41.984375 11.859375 
Q 46.1875 17.53125 46.1875 27.296875 
Q 46.1875 37.015625 41.984375 42.703125 
Q 37.796875 48.390625 30.609375 48.390625 
z
M 30.609375 56 
Q 42.328125 56 49.015625 48.375 
Q 55.71875 40.765625 55.71875 27.296875 
Q 55.71875 13.875 49.015625 6.21875 
Q 42.328125 -1.421875 30.609375 -1.421875 
Q 18.84375 -1.421875 12.171875 6.21875 
Q 5.515625 13.875 5.515625 27.296875 
Q 5.515625 40.765625 12.171875 48.375 
Q 18.84375 56 30.609375 56 
z
" id="DejaVuSans-6f"/>
     <path d="M 44.28125 53.078125 
L 44.28125 44.578125 
Q 40.484375 46.53125 36.375 47.5 
Q 32.28125 48.484375 27.875 48.484375 
Q 21.1875 48.484375 17.84375 46.4375 
Q 14.5 44.390625 14.5 40.28125 
Q 14.5 37.15625 16.890625 35.375 
Q 19.28125 33.59375 26.515625 31.984375 
L 29.59375 31.296875 
Q 39.15625 29.25 43.1875 25.515625 
Q 47.21875 21.78125 47.21875 15.09375 
Q 47.21875 7.46875 41.1875 3.015625 
Q 35.15625 -1.421875 24.609375 -1.421875 
Q 20.21875 -1.421875 15.453125 -0.5625 
Q 10.6875 0.296875 5.421875 2 
L 5.421875 11.28125 
Q 10.40625 8.6875 15.234375 7.390625 
Q 20.0625 6.109375 24.8125 6.109375 
Q 31.15625 6.109375 34.5625 8.28125 
Q 37.984375 10.453125 37.984375 14.40625 
Q 37.984375 18.0625 35.515625 20.015625 
Q 33.0625 21.96875 24.703125 23.78125 
L 21.578125 24.515625 
Q 13.234375 26.265625 9.515625 29.90625 
Q 5.8125 33.546875 5.8125 39.890625 
Q 5.8125 47.609375 11.28125 51.796875 
Q 16.75 56 26.8125 56 
Q 31.78125 56 36.171875 55.265625 
Q 40.578125 54.546875 44.28125 53.078125 
z
" id="DejaVuSans-73"/>
    </defs>
    <g transform="translate(323.770625 35.472)scale(0.12 -0.12)">
     <use xlink:href="#DejaVuSans-6c"/>
     <use x="27.783203" xlink:href="#DejaVuSans-6f"/>
     <use x="88.964844" xlink:href="#DejaVuSans-73"/>
     <use x="141.064453" xlink:href="#DejaVuSans-73"/>
    </g>
   </g>
  </g>
  <g id="axes_3">
   <g id="patch_12">
    <path d="M 57.6 307.584 
L 216.32 307.584 
L 216.32 189.312 
L 57.6 189.312 
z
" style="fill:#ffffff;"/>
   </g>
   <g id="matplotlib.axis_5">
    <g id="xtick_9">
     <g id="line2d_35">
      <path clip-path="url(#p3a6a8b481e)" d="M 64.814545 307.584 
L 64.814545 189.312 
" style="fill:none;stroke:#b0b0b0;stroke-linecap:square;stroke-width:0.8;"/>
     </g>
     <g id="line2d_36">
      <g>
       <use style="stroke:#000000;stroke-width:0.8;" x="64.814545" xlink:href="#m6d48a88ad7" y="307.584"/>
      </g>
     </g>
     <g id="text_19">
      <!-- 0 -->
      <g transform="translate(61.633295 322.182437)scale(0.1 -0.1)">
       <use xlink:href="#DejaVuSans-30"/>
      </g>
     </g>
    </g>
    <g id="xtick_10">
     <g id="line2d_37">
      <path clip-path="url(#p3a6a8b481e)" d="M 113.072375 307.584 
L 113.072375 189.312 
" style="fill:none;stroke:#b0b0b0;stroke-linecap:square;stroke-width:0.8;"/>
     </g>
     <g id="line2d_38">
      <g>
       <use style="stroke:#000000;stroke-width:0.8;" x="113.072375" xlink:href="#m6d48a88ad7" y="307.584"/>
      </g>
     </g>
     <g id="text_20">
      <!-- 100 -->
      <g transform="translate(103.528625 322.182437)scale(0.1 -0.1)">
       <use xlink:href="#DejaVuSans-31"/>
       <use x="63.623047" xlink:href="#DejaVuSans-30"/>
       <use x="127.246094" xlink:href="#DejaVuSans-30"/>
      </g>
     </g>
    </g>
    <g id="xtick_11">
     <g id="line2d_39">
      <path clip-path="url(#p3a6a8b481e)" d="M 161.330204 307.584 
L 161.330204 189.312 
" style="fill:none;stroke:#b0b0b0;stroke-linecap:square;stroke-width:0.8;"/>
     </g>
     <g id="line2d_40">
      <g>
       <use style="stroke:#000000;stroke-width:0.8;" x="161.330204" xlink:href="#m6d48a88ad7" y="307.584"/>
      </g>
     </g>
     <g id="text_21">
      <!-- 200 -->
      <g transform="translate(151.786454 322.182437)scale(0.1 -0.1)">
       <use xlink:href="#DejaVuSans-32"/>
       <use x="63.623047" xlink:href="#DejaVuSans-30"/>
       <use x="127.246094" xlink:href="#DejaVuSans-30"/>
      </g>
     </g>
    </g>
    <g id="xtick_12">
     <g id="line2d_41">
      <path clip-path="url(#p3a6a8b481e)" d="M 209.588033 307.584 
L 209.588033 189.312 
" style="fill:none;stroke:#b0b0b0;stroke-linecap:square;stroke-width:0.8;"/>
     </g>
     <g id="line2d_42">
      <g>
       <use style="stroke:#000000;stroke-width:0.8;" x="209.588033" xlink:href="#m6d48a88ad7" y="307.584"/>
      </g>
     </g>
     <g id="text_22">
      <!-- 300 -->
      <g transform="translate(200.044283 322.182437)scale(0.1 -0.1)">
       <use xlink:href="#DejaVuSans-33"/>
       <use x="63.623047" xlink:href="#DejaVuSans-30"/>
       <use x="127.246094" xlink:href="#DejaVuSans-30"/>
      </g>
     </g>
    </g>
   </g>
   <g id="matplotlib.axis_6">
    <g id="ytick_9">
     <g id="line2d_43">
      <path clip-path="url(#p3a6a8b481e)" d="M 57.6 303.51922 
L 216.32 303.51922 
" style="fill:none;stroke:#b0b0b0;stroke-linecap:square;stroke-width:0.8;"/>
     </g>
     <g id="line2d_44">
      <g>
       <use style="stroke:#000000;stroke-width:0.8;" x="57.6" xlink:href="#m3b9a0e2a5e" y="303.51922"/>
      </g>
     </g>
     <g id="text_23">
      <!-- 0.00 -->
      <g transform="translate(28.334375 307.318438)scale(0.1 -0.1)">
       <use xlink:href="#DejaVuSans-30"/>
       <use x="63.623047" xlink:href="#DejaVuSans-2e"/>
       <use x="95.410156" xlink:href="#DejaVuSans-30"/>
       <use x="159.033203" xlink:href="#DejaVuSans-30"/>
      </g>
     </g>
    </g>
    <g id="ytick_10">
     <g id="line2d_45">
      <path clip-path="url(#p3a6a8b481e)" d="M 57.6 275.546536 
L 216.32 275.546536 
" style="fill:none;stroke:#b0b0b0;stroke-linecap:square;stroke-width:0.8;"/>
     </g>
     <g id="line2d_46">
      <g>
       <use style="stroke:#000000;stroke-width:0.8;" x="57.6" xlink:href="#m3b9a0e2a5e" y="275.546536"/>
      </g>
     </g>
     <g id="text_24">
      <!-- 0.25 -->
      <g transform="translate(28.334375 279.345755)scale(0.1 -0.1)">
       <use xlink:href="#DejaVuSans-30"/>
       <use x="63.623047" xlink:href="#DejaVuSans-2e"/>
       <use x="95.410156" xlink:href="#DejaVuSans-32"/>
       <use x="159.033203" xlink:href="#DejaVuSans-35"/>
      </g>
     </g>
    </g>
    <g id="ytick_11">
     <g id="line2d_47">
      <path clip-path="url(#p3a6a8b481e)" d="M 57.6 247.573853 
L 216.32 247.573853 
" style="fill:none;stroke:#b0b0b0;stroke-linecap:square;stroke-width:0.8;"/>
     </g>
     <g id="line2d_48">
      <g>
       <use style="stroke:#000000;stroke-width:0.8;" x="57.6" xlink:href="#m3b9a0e2a5e" y="247.573853"/>
      </g>
     </g>
     <g id="text_25">
      <!-- 0.50 -->
      <g transform="translate(28.334375 251.373072)scale(0.1 -0.1)">
       <use xlink:href="#DejaVuSans-30"/>
       <use x="63.623047" xlink:href="#DejaVuSans-2e"/>
       <use x="95.410156" xlink:href="#DejaVuSans-35"/>
       <use x="159.033203" xlink:href="#DejaVuSans-30"/>
      </g>
     </g>
    </g>
    <g id="ytick_12">
     <g id="line2d_49">
      <path clip-path="url(#p3a6a8b481e)" d="M 57.6 219.60117 
L 216.32 219.60117 
" style="fill:none;stroke:#b0b0b0;stroke-linecap:square;stroke-width:0.8;"/>
     </g>
     <g id="line2d_50">
      <g>
       <use style="stroke:#000000;stroke-width:0.8;" x="57.6" xlink:href="#m3b9a0e2a5e" y="219.60117"/>
      </g>
     </g>
     <g id="text_26">
      <!-- 0.75 -->
      <g transform="translate(28.334375 223.400389)scale(0.1 -0.1)">
       <use xlink:href="#DejaVuSans-30"/>
       <use x="63.623047" xlink:href="#DejaVuSans-2e"/>
       <use x="95.410156" xlink:href="#DejaVuSans-37"/>
       <use x="159.033203" xlink:href="#DejaVuSans-35"/>
      </g>
     </g>
    </g>
    <g id="ytick_13">
     <g id="line2d_51">
      <path clip-path="url(#p3a6a8b481e)" d="M 57.6 191.628487 
L 216.32 191.628487 
" style="fill:none;stroke:#b0b0b0;stroke-linecap:square;stroke-width:0.8;"/>
     </g>
     <g id="line2d_52">
      <g>
       <use style="stroke:#000000;stroke-width:0.8;" x="57.6" xlink:href="#m3b9a0e2a5e" y="191.628487"/>
      </g>
     </g>
     <g id="text_27">
      <!-- 1.00 -->
      <g transform="translate(28.334375 195.427706)scale(0.1 -0.1)">
       <use xlink:href="#DejaVuSans-31"/>
       <use x="63.623047" xlink:href="#DejaVuSans-2e"/>
       <use x="95.410156" xlink:href="#DejaVuSans-30"/>
       <use x="159.033203" xlink:href="#DejaVuSans-30"/>
      </g>
     </g>
    </g>
   </g>
   <g id="line2d_53">
    <path clip-path="url(#p3a6a8b481e)" d="M 64.814545 302.208 
L 65.297124 299.148488 
L 66.26228 290.844097 
L 66.744859 279.917267 
L 67.227437 273.798243 
L 67.710015 270.301658 
L 68.192593 261.123121 
L 68.675172 255.004097 
L 69.15775 251.070438 
L 69.640328 244.077266 
L 70.122907 230.527998 
L 70.605485 241.017754 
L 71.088063 240.580681 
L 71.570642 227.031412 
L 72.05322 228.342632 
L 72.535798 235.772876 
L 73.018376 220.038242 
L 73.983533 219.164096 
L 74.466111 221.786533 
L 74.94869 217.415804 
L 75.431268 209.985561 
L 75.913846 211.733852 
L 76.396424 208.674341 
L 76.879003 209.111413 
L 77.361581 210.859706 
L 77.844159 202.992391 
L 78.326738 207.363122 
L 78.809316 204.30361 
L 79.291894 207.363121 
L 79.774472 206.488975 
L 80.257051 206.051902 
L 80.739629 202.118243 
L 81.222207 217.415803 
L 81.704786 205.177756 
L 82.187364 202.992391 
L 82.669942 202.118245 
L 83.152521 202.555317 
L 83.635099 203.429464 
L 84.117677 203.429463 
L 85.082834 202.555318 
L 85.565412 201.68117 
L 86.04799 202.118244 
L 86.530569 198.621659 
L 87.013147 217.415803 
L 87.495725 202.118244 
L 87.978303 205.177755 
L 88.460882 205.614829 
L 88.94346 200.36995 
L 89.426038 198.184585 
L 89.908617 199.495804 
L 90.391195 203.866536 
L 90.873773 199.058732 
L 91.356351 198.184586 
L 91.83893 202.992391 
L 92.321508 198.621658 
L 92.804086 199.932878 
L 93.286665 201.681171 
L 93.769243 201.68117 
L 94.251821 209.111414 
L 94.7344 200.369952 
L 95.216978 198.621658 
L 95.699556 200.807025 
L 96.182134 198.184585 
L 96.664713 200.807024 
L 97.147291 198.621658 
L 97.629869 199.058732 
L 98.112448 198.621659 
L 98.595026 197.747512 
L 99.077604 201.244098 
L 99.560182 199.495806 
L 100.042761 199.058732 
L 100.525339 202.992391 
L 101.007917 201.244097 
L 101.490496 195.99922 
L 101.973074 196.436293 
L 102.93823 201.681171 
L 103.420809 196.873366 
L 103.903387 197.31044 
L 104.385965 194.688 
L 104.868544 205.614828 
L 105.351122 201.244099 
L 105.8337 202.118244 
L 106.316279 198.621658 
L 106.798857 201.244097 
L 107.281435 199.932878 
L 107.764013 196.436293 
L 108.246592 197.31044 
L 108.72917 196.436293 
L 109.211748 198.184585 
L 109.694327 197.310439 
L 110.176905 199.058732 
L 110.659483 197.747512 
L 111.142061 198.184586 
L 111.62464 199.932878 
L 112.107218 198.621659 
L 113.072375 196.873366 
L 113.554953 196.436293 
L 114.037531 199.495804 
L 114.520109 196.873366 
L 115.002688 198.621659 
L 115.485266 198.621659 
L 115.967844 198.184586 
L 116.450423 198.184586 
L 116.933001 197.310439 
L 117.415579 197.31044 
L 117.898157 198.184586 
L 118.863314 198.184585 
L 119.345892 200.369952 
L 119.828471 197.747512 
L 120.311049 197.747513 
L 120.793627 198.621658 
L 121.276206 200.369951 
L 121.758784 199.058732 
L 122.241362 197.310439 
L 122.72394 200.807024 
L 123.206519 199.932878 
L 123.689097 196.873366 
L 124.171675 199.058732 
L 124.654254 198.184585 
L 125.136832 199.058732 
L 125.61941 199.058732 
L 126.101988 202.992391 
L 126.584567 197.31044 
L 127.067145 202.118244 
L 127.549723 196.436293 
L 128.032302 197.747512 
L 128.51488 198.621658 
L 128.997458 195.99922 
L 129.480036 197.310439 
L 129.962615 197.747513 
L 130.445193 199.495804 
L 130.927771 200.369952 
L 131.41035 199.058731 
L 131.892928 198.621659 
L 132.375506 196.436293 
L 132.858085 197.31044 
L 133.340663 200.369952 
L 133.823241 197.747512 
L 134.305819 197.747513 
L 134.788398 199.932879 
L 135.753554 198.184586 
L 136.236133 199.495806 
L 137.201289 197.747512 
L 137.683867 199.058732 
L 138.166446 197.747512 
L 138.649024 199.058732 
L 139.131602 199.058732 
L 139.614181 198.184586 
L 140.096759 197.747512 
L 140.579337 201.68117 
L 141.061915 197.747513 
L 141.544494 197.747512 
L 142.027072 198.184586 
L 142.50965 196.873366 
L 142.992229 199.058732 
L 143.474807 198.184585 
L 143.957385 198.621659 
L 144.439964 195.99922 
L 144.922542 198.621659 
L 145.887698 197.747512 
L 146.370277 196.873366 
L 146.852855 196.436292 
L 147.335433 199.058732 
L 147.818012 199.932878 
L 148.30059 197.747512 
L 148.783168 199.932878 
L 149.265746 200.369952 
L 149.748325 198.621659 
L 150.230903 198.184586 
L 150.713481 199.932879 
L 151.19606 196.436293 
L 151.678638 197.747512 
L 152.161216 196.873366 
L 152.643794 196.436293 
L 153.126373 198.184586 
L 153.608951 195.999219 
L 154.091529 200.369951 
L 154.574108 194.688 
L 155.056686 197.31044 
L 155.539264 201.681171 
L 156.021843 197.310439 
L 156.504421 201.681171 
L 156.986999 197.747513 
L 157.469577 199.058732 
L 158.917312 197.747512 
L 159.399891 198.621659 
L 159.882469 197.747512 
L 160.365047 198.184586 
L 160.847625 199.495806 
L 161.330204 197.31044 
L 161.812782 199.495806 
L 162.29536 196.436292 
L 162.777939 198.184586 
L 163.260517 199.058732 
L 163.743095 198.621659 
L 164.225673 197.747512 
L 164.708252 197.747512 
L 165.19083 202.118244 
L 165.673408 196.873366 
L 166.155987 197.747512 
L 166.638565 196.436293 
L 167.121143 198.184585 
L 167.603721 197.310439 
L 168.0863 200.807025 
L 168.568878 196.436293 
L 169.051456 198.621659 
L 169.534035 198.621658 
L 170.016613 199.932879 
L 170.499191 198.184585 
L 170.98177 198.621658 
L 171.464348 202.555317 
L 171.946926 203.429464 
L 172.429504 197.310439 
L 172.912083 197.31044 
L 173.394661 202.555317 
L 173.877239 198.621659 
L 174.359818 196.873366 
L 174.842396 196.873366 
L 175.324974 198.184586 
L 175.807552 197.310439 
L 176.290131 198.621659 
L 176.772709 198.184586 
L 177.255287 195.99922 
L 177.737866 197.310439 
L 178.220444 196.873366 
L 178.703022 201.244098 
L 179.1856 200.369953 
L 179.668179 199.932879 
L 180.150757 197.747512 
L 180.633335 196.436293 
L 181.115914 199.932878 
L 181.598492 199.932878 
L 182.08107 199.058732 
L 182.563649 195.99922 
L 183.046227 198.184585 
L 183.528805 199.058732 
L 184.011383 196.873366 
L 184.493962 195.562146 
L 184.97654 198.184585 
L 185.459118 199.058732 
L 185.941697 195.125073 
L 186.424275 199.058732 
L 186.906853 196.436293 
L 187.389431 196.873366 
L 187.87201 197.747512 
L 188.354588 197.310439 
L 188.837166 196.436293 
L 189.319745 197.310439 
L 189.802323 197.310439 
L 190.284901 199.932878 
L 190.767479 198.621659 
L 191.250058 199.058732 
L 191.732636 197.747512 
L 192.215214 199.058732 
L 192.697793 196.873366 
L 193.180371 200.807024 
L 193.662949 200.369951 
L 194.145528 201.244097 
L 194.628106 198.184586 
L 195.110684 200.807024 
L 195.593262 199.058732 
L 196.075841 197.747513 
L 196.558419 200.807025 
L 197.040997 197.31044 
L 198.006154 198.184585 
L 198.488732 198.184585 
L 198.97131 196.873366 
L 199.453889 197.310439 
L 199.936467 201.244097 
L 200.419045 201.244098 
L 200.901624 197.31044 
L 201.384202 197.747512 
L 201.86678 196.873366 
L 202.349358 200.369951 
L 202.831937 197.747512 
L 203.314515 197.31044 
L 203.797093 198.184585 
L 204.279672 201.244097 
L 204.76225 198.184586 
L 205.244828 196.436293 
L 205.727407 199.495806 
L 206.209985 198.184586 
L 206.692563 195.99922 
L 207.175141 197.31044 
L 207.65772 197.747512 
L 208.140298 212.170926 
L 208.622876 196.873366 
L 209.105455 197.310439 
L 209.105455 197.310439 
" style="fill:none;stroke:#1f77b4;stroke-linecap:square;stroke-width:1.5;"/>
   </g>
   <g id="patch_13">
    <path d="M 57.6 307.584 
L 57.6 189.312 
" style="fill:none;stroke:#000000;stroke-linecap:square;stroke-linejoin:miter;stroke-width:0.8;"/>
   </g>
   <g id="patch_14">
    <path d="M 216.32 307.584 
L 216.32 189.312 
" style="fill:none;stroke:#000000;stroke-linecap:square;stroke-linejoin:miter;stroke-width:0.8;"/>
   </g>
   <g id="patch_15">
    <path d="M 57.6 307.584 
L 216.32 307.584 
" style="fill:none;stroke:#000000;stroke-linecap:square;stroke-linejoin:miter;stroke-width:0.8;"/>
   </g>
   <g id="patch_16">
    <path d="M 57.6 189.312 
L 216.32 189.312 
" style="fill:none;stroke:#000000;stroke-linecap:square;stroke-linejoin:miter;stroke-width:0.8;"/>
   </g>
   <g id="text_28">
    <!-- val_acc -->
    <defs>
     <path d="M 2.984375 54.6875 
L 12.5 54.6875 
L 29.59375 8.796875 
L 46.6875 54.6875 
L 56.203125 54.6875 
L 35.6875 0 
L 23.484375 0 
z
" id="DejaVuSans-76"/>
     <path d="M 50.984375 -16.609375 
L 50.984375 -23.578125 
L -0.984375 -23.578125 
L -0.984375 -16.609375 
z
" id="DejaVuSans-5f"/>
    </defs>
    <g transform="translate(114.79 183.312)scale(0.12 -0.12)">
     <use xlink:href="#DejaVuSans-76"/>
     <use x="59.179688" xlink:href="#DejaVuSans-61"/>
     <use x="120.458984" xlink:href="#DejaVuSans-6c"/>
     <use x="148.242188" xlink:href="#DejaVuSans-5f"/>
     <use x="198.242188" xlink:href="#DejaVuSans-61"/>
     <use x="259.521484" xlink:href="#DejaVuSans-63"/>
     <use x="314.501953" xlink:href="#DejaVuSans-63"/>
    </g>
   </g>
  </g>
  <g id="axes_4">
   <g id="patch_17">
    <path d="M 256 307.584 
L 414.72 307.584 
L 414.72 189.312 
L 256 189.312 
z
" style="fill:#ffffff;"/>
   </g>
   <g id="matplotlib.axis_7">
    <g id="xtick_13">
     <g id="line2d_54">
      <path clip-path="url(#p9acf1b9e5d)" d="M 263.214545 307.584 
L 263.214545 189.312 
" style="fill:none;stroke:#b0b0b0;stroke-linecap:square;stroke-width:0.8;"/>
     </g>
     <g id="line2d_55">
      <g>
       <use style="stroke:#000000;stroke-width:0.8;" x="263.214545" xlink:href="#m6d48a88ad7" y="307.584"/>
      </g>
     </g>
     <g id="text_29">
      <!-- 0 -->
      <g transform="translate(260.033295 322.182437)scale(0.1 -0.1)">
       <use xlink:href="#DejaVuSans-30"/>
      </g>
     </g>
    </g>
    <g id="xtick_14">
     <g id="line2d_56">
      <path clip-path="url(#p9acf1b9e5d)" d="M 311.472375 307.584 
L 311.472375 189.312 
" style="fill:none;stroke:#b0b0b0;stroke-linecap:square;stroke-width:0.8;"/>
     </g>
     <g id="line2d_57">
      <g>
       <use style="stroke:#000000;stroke-width:0.8;" x="311.472375" xlink:href="#m6d48a88ad7" y="307.584"/>
      </g>
     </g>
     <g id="text_30">
      <!-- 100 -->
      <g transform="translate(301.928625 322.182437)scale(0.1 -0.1)">
       <use xlink:href="#DejaVuSans-31"/>
       <use x="63.623047" xlink:href="#DejaVuSans-30"/>
       <use x="127.246094" xlink:href="#DejaVuSans-30"/>
      </g>
     </g>
    </g>
    <g id="xtick_15">
     <g id="line2d_58">
      <path clip-path="url(#p9acf1b9e5d)" d="M 359.730204 307.584 
L 359.730204 189.312 
" style="fill:none;stroke:#b0b0b0;stroke-linecap:square;stroke-width:0.8;"/>
     </g>
     <g id="line2d_59">
      <g>
       <use style="stroke:#000000;stroke-width:0.8;" x="359.730204" xlink:href="#m6d48a88ad7" y="307.584"/>
      </g>
     </g>
     <g id="text_31">
      <!-- 200 -->
      <g transform="translate(350.186454 322.182437)scale(0.1 -0.1)">
       <use xlink:href="#DejaVuSans-32"/>
       <use x="63.623047" xlink:href="#DejaVuSans-30"/>
       <use x="127.246094" xlink:href="#DejaVuSans-30"/>
      </g>
     </g>
    </g>
    <g id="xtick_16">
     <g id="line2d_60">
      <path clip-path="url(#p9acf1b9e5d)" d="M 407.988033 307.584 
L 407.988033 189.312 
" style="fill:none;stroke:#b0b0b0;stroke-linecap:square;stroke-width:0.8;"/>
     </g>
     <g id="line2d_61">
      <g>
       <use style="stroke:#000000;stroke-width:0.8;" x="407.988033" xlink:href="#m6d48a88ad7" y="307.584"/>
      </g>
     </g>
     <g id="text_32">
      <!-- 300 -->
      <g transform="translate(398.444283 322.182437)scale(0.1 -0.1)">
       <use xlink:href="#DejaVuSans-33"/>
       <use x="63.623047" xlink:href="#DejaVuSans-30"/>
       <use x="127.246094" xlink:href="#DejaVuSans-30"/>
      </g>
     </g>
    </g>
   </g>
   <g id="matplotlib.axis_8">
    <g id="ytick_14">
     <g id="line2d_62">
      <path clip-path="url(#p9acf1b9e5d)" d="M 256 305.299611 
L 414.72 305.299611 
" style="fill:none;stroke:#b0b0b0;stroke-linecap:square;stroke-width:0.8;"/>
     </g>
     <g id="line2d_63">
      <g>
       <use style="stroke:#000000;stroke-width:0.8;" x="256" xlink:href="#m3b9a0e2a5e" y="305.299611"/>
      </g>
     </g>
     <g id="text_33">
      <!-- 0 -->
      <g transform="translate(242.6375 309.09883)scale(0.1 -0.1)">
       <use xlink:href="#DejaVuSans-30"/>
      </g>
     </g>
    </g>
    <g id="ytick_15">
     <g id="line2d_64">
      <path clip-path="url(#p9acf1b9e5d)" d="M 256 263.853879 
L 414.72 263.853879 
" style="fill:none;stroke:#b0b0b0;stroke-linecap:square;stroke-width:0.8;"/>
     </g>
     <g id="line2d_65">
      <g>
       <use style="stroke:#000000;stroke-width:0.8;" x="256" xlink:href="#m3b9a0e2a5e" y="263.853879"/>
      </g>
     </g>
     <g id="text_34">
      <!-- 2 -->
      <g transform="translate(242.6375 267.653097)scale(0.1 -0.1)">
       <use xlink:href="#DejaVuSans-32"/>
      </g>
     </g>
    </g>
    <g id="ytick_16">
     <g id="line2d_66">
      <path clip-path="url(#p9acf1b9e5d)" d="M 256 222.408146 
L 414.72 222.408146 
" style="fill:none;stroke:#b0b0b0;stroke-linecap:square;stroke-width:0.8;"/>
     </g>
     <g id="line2d_67">
      <g>
       <use style="stroke:#000000;stroke-width:0.8;" x="256" xlink:href="#m3b9a0e2a5e" y="222.408146"/>
      </g>
     </g>
     <g id="text_35">
      <!-- 4 -->
      <g transform="translate(242.6375 226.207365)scale(0.1 -0.1)">
       <use xlink:href="#DejaVuSans-34"/>
      </g>
     </g>
    </g>
   </g>
   <g id="line2d_68">
    <path clip-path="url(#p9acf1b9e5d)" d="M 263.214545 194.688 
L 263.697124 204.577264 
L 264.66228 229.356352 
L 266.110015 249.008953 
L 266.592593 250.210704 
L 267.075172 257.749128 
L 267.55775 258.459761 
L 268.040328 265.040941 
L 268.522907 269.920006 
L 269.005485 270.868631 
L 269.488063 271.12186 
L 269.970642 276.335979 
L 270.45322 277.214157 
L 270.935798 275.79371 
L 271.900955 283.978036 
L 272.383533 285.394617 
L 272.866111 284.8844 
L 273.34869 285.45426 
L 273.831268 289.951783 
L 274.313846 288.572537 
L 274.796424 292.401971 
L 275.279003 293.812334 
L 275.761581 292.551211 
L 276.244159 295.845067 
L 276.726738 293.511059 
L 277.209316 296.332615 
L 277.691894 293.902548 
L 278.174472 295.812204 
L 278.657051 295.110434 
L 279.139629 297.118827 
L 279.622207 288.823662 
L 280.104786 296.955172 
L 280.587364 297.372838 
L 281.069942 298.272618 
L 282.035099 297.282984 
L 283.000255 297.610407 
L 283.482834 298.64819 
L 283.965412 298.014587 
L 284.44799 299.251377 
L 284.930569 300.925503 
L 285.413147 287.031855 
L 285.895725 299.043416 
L 286.378303 298.470008 
L 286.860882 296.297355 
L 287.34346 300.26775 
L 287.826038 301.075002 
L 288.308617 299.329861 
L 288.791195 298.175758 
L 289.273773 300.991439 
L 290.23893 299.379481 
L 290.721508 300.985922 
L 291.204086 299.888131 
L 291.686665 299.485863 
L 292.169243 298.7555 
L 292.651821 293.342167 
L 293.1344 299.62937 
L 293.616978 300.416434 
L 294.099556 297.935873 
L 294.582134 300.425217 
L 295.064713 299.7613 
L 295.547291 300.58569 
L 296.029869 300.730544 
L 296.512448 300.67995 
L 296.995026 300.839466 
L 297.477604 299.904818 
L 297.960182 300.807846 
L 298.442761 299.819387 
L 298.925339 297.803221 
L 299.407917 299.633401 
L 299.890496 300.944749 
L 300.373074 301.074459 
L 300.855652 299.290778 
L 301.33823 298.585403 
L 301.820809 301.244282 
L 302.303387 300.389828 
L 302.785965 301.365315 
L 303.268544 296.189236 
L 303.751122 298.925871 
L 304.2337 298.942056 
L 304.716279 301.074063 
L 305.198857 298.978359 
L 305.681435 298.918614 
L 306.164013 301.40278 
L 306.646592 300.974801 
L 307.12917 301.215771 
L 307.611748 300.731055 
L 308.094327 302.208 
L 308.576905 300.296778 
L 309.059483 301.363451 
L 309.542061 301.00858 
L 310.02464 299.190834 
L 310.507218 300.723832 
L 310.989796 300.200156 
L 311.472375 301.657256 
L 311.954953 301.436631 
L 312.437531 300.576065 
L 312.920109 300.097763 
L 313.402688 298.403045 
L 313.885266 300.466328 
L 314.367844 300.648665 
L 314.850423 299.909725 
L 315.333001 301.974168 
L 315.815579 301.192048 
L 316.298157 299.313314 
L 316.780736 300.941468 
L 317.263314 299.295201 
L 317.745892 298.457398 
L 318.228471 300.215745 
L 318.711049 299.66235 
L 319.193627 299.6587 
L 319.676206 297.312044 
L 320.158784 299.985571 
L 320.641362 298.996029 
L 321.12394 296.448651 
L 321.606519 299.457026 
L 322.089097 300.416266 
L 322.571675 299.848308 
L 323.054254 300.417989 
L 323.536832 297.70461 
L 324.501988 299.022816 
L 324.984567 298.080761 
L 325.467145 296.512125 
L 325.949723 300.386552 
L 326.432302 299.101814 
L 326.91488 298.964255 
L 327.397458 301.636018 
L 328.362615 299.812037 
L 328.845193 299.907653 
L 329.327771 299.262621 
L 329.81035 296.975303 
L 330.292928 298.946425 
L 330.775506 300.265308 
L 331.258085 299.371416 
L 331.740663 296.706986 
L 332.223241 300.174973 
L 332.705819 299.494077 
L 333.670976 298.414886 
L 334.153554 300.317547 
L 334.636133 298.245254 
L 335.118711 297.621208 
L 335.601289 297.959108 
L 336.083867 295.806556 
L 336.566446 297.178315 
L 337.049024 296.732285 
L 337.531602 298.410209 
L 338.014181 296.55665 
L 338.496759 297.635209 
L 338.979337 293.352381 
L 339.461915 298.653354 
L 339.944494 299.438911 
L 340.427072 298.127259 
L 340.90965 298.601634 
L 341.392229 296.433911 
L 341.874807 299.493849 
L 342.357385 297.81347 
L 342.839964 299.337658 
L 343.322542 298.456282 
L 343.80512 298.586209 
L 344.287698 297.888434 
L 344.770277 299.347319 
L 345.252855 299.071806 
L 345.735433 297.987398 
L 346.218012 296.226847 
L 346.70059 297.402899 
L 347.183168 297.442534 
L 347.665746 294.211739 
L 348.148325 298.735223 
L 348.630903 297.796664 
L 349.113481 295.331126 
L 349.59606 298.601427 
L 350.078638 297.200028 
L 350.561216 299.815148 
L 351.043794 300.458901 
L 351.526373 296.717782 
L 352.008951 298.711449 
L 352.491529 297.625331 
L 352.974108 299.825949 
L 353.456686 299.088847 
L 353.939264 291.287805 
L 354.421843 297.192098 
L 354.904421 290.873164 
L 355.386999 298.403385 
L 355.869577 292.909104 
L 356.352156 296.827569 
L 356.834734 295.339393 
L 357.317312 297.458962 
L 357.799891 295.861569 
L 358.282469 296.356866 
L 358.765047 297.633196 
L 359.247625 295.787549 
L 359.730204 298.574525 
L 360.212782 295.599827 
L 360.69536 298.162537 
L 361.660517 291.901622 
L 362.143095 296.083833 
L 362.625673 297.719198 
L 363.108252 298.818094 
L 363.59083 291.815235 
L 364.073408 298.192553 
L 364.555987 295.844212 
L 365.038565 296.67219 
L 365.521143 294.600772 
L 366.003721 298.160447 
L 366.4863 290.083264 
L 366.968878 296.236311 
L 367.451456 295.995334 
L 367.934035 293.087498 
L 368.416613 294.262645 
L 368.899191 295.804719 
L 369.38177 297.835148 
L 369.864348 283.965153 
L 370.346926 287.229108 
L 370.829504 295.444377 
L 371.794661 294.043383 
L 372.277239 295.650071 
L 372.759818 299.265502 
L 373.242396 296.912393 
L 373.724974 295.768677 
L 374.207552 296.294474 
L 374.690131 294.394445 
L 375.172709 295.146572 
L 375.655287 297.332373 
L 376.137866 296.974533 
L 376.620444 297.94309 
L 377.103022 286.271749 
L 377.5856 292.314434 
L 378.068179 289.002717 
L 378.550757 298.766942 
L 379.033335 298.745255 
L 379.515914 295.44329 
L 379.998492 293.499169 
L 380.48107 292.576227 
L 380.963649 299.550134 
L 381.446227 293.782646 
L 381.928805 293.961986 
L 382.411383 296.85942 
L 382.893962 298.790035 
L 383.37654 293.501824 
L 383.859118 293.096594 
L 384.341697 300.161467 
L 384.824275 293.9914 
L 385.306853 295.445993 
L 385.789431 296.487525 
L 386.27201 296.531251 
L 386.754588 296.317916 
L 387.237166 297.051313 
L 387.719745 296.853316 
L 388.202323 297.086942 
L 388.684901 290.014127 
L 389.167479 295.350753 
L 389.650058 293.8978 
L 390.132636 295.643493 
L 390.615214 291.794684 
L 391.097793 296.797299 
L 391.580371 289.863672 
L 392.062949 292.2567 
L 392.545528 291.298862 
L 393.028106 294.177467 
L 393.510684 289.083862 
L 393.993262 289.22457 
L 394.475841 294.228216 
L 394.958419 288.937409 
L 395.440997 295.919859 
L 395.923576 293.722126 
L 396.406154 292.133616 
L 396.888732 293.793631 
L 397.37131 294.130572 
L 397.853889 291.586909 
L 398.336467 287.556297 
L 398.819045 287.634411 
L 399.301624 296.589884 
L 399.784202 294.227424 
L 400.26678 295.672115 
L 400.749358 287.277268 
L 401.231937 293.075458 
L 401.714515 294.001465 
L 402.197093 293.028737 
L 402.679672 288.898722 
L 403.16225 294.378871 
L 403.644828 295.627662 
L 404.127407 289.516573 
L 404.609985 291.364478 
L 405.092563 297.758822 
L 405.575141 295.191373 
L 406.05772 294.926375 
L 406.540298 263.328327 
L 407.022876 297.104729 
L 407.505455 293.310948 
L 407.505455 293.310948 
" style="fill:none;stroke:#1f77b4;stroke-linecap:square;stroke-width:1.5;"/>
   </g>
   <g id="patch_18">
    <path d="M 256 307.584 
L 256 189.312 
" style="fill:none;stroke:#000000;stroke-linecap:square;stroke-linejoin:miter;stroke-width:0.8;"/>
   </g>
   <g id="patch_19">
    <path d="M 414.72 307.584 
L 414.72 189.312 
" style="fill:none;stroke:#000000;stroke-linecap:square;stroke-linejoin:miter;stroke-width:0.8;"/>
   </g>
   <g id="patch_20">
    <path d="M 256 307.584 
L 414.72 307.584 
" style="fill:none;stroke:#000000;stroke-linecap:square;stroke-linejoin:miter;stroke-width:0.8;"/>
   </g>
   <g id="patch_21">
    <path d="M 256 189.312 
L 414.72 189.312 
" style="fill:none;stroke:#000000;stroke-linecap:square;stroke-linejoin:miter;stroke-width:0.8;"/>
   </g>
   <g id="text_36">
    <!-- val_loss -->
    <g transform="translate(311.875625 183.312)scale(0.12 -0.12)">
     <use xlink:href="#DejaVuSans-76"/>
     <use x="59.179688" xlink:href="#DejaVuSans-61"/>
     <use x="120.458984" xlink:href="#DejaVuSans-6c"/>
     <use x="148.242188" xlink:href="#DejaVuSans-5f"/>
     <use x="198.242188" xlink:href="#DejaVuSans-6c"/>
     <use x="226.025391" xlink:href="#DejaVuSans-6f"/>
     <use x="287.207031" xlink:href="#DejaVuSans-73"/>
     <use x="339.306641" xlink:href="#DejaVuSans-73"/>
    </g>
   </g>
  </g>
  <g id="text_37">
   <!-- model4 20171023_150411 -->
   <defs>
    <path d="M 52 44.1875 
Q 55.375 50.25 60.0625 53.125 
Q 64.75 56 71.09375 56 
Q 79.640625 56 84.28125 50.015625 
Q 88.921875 44.046875 88.921875 33.015625 
L 88.921875 0 
L 79.890625 0 
L 79.890625 32.71875 
Q 79.890625 40.578125 77.09375 44.375 
Q 74.3125 48.1875 68.609375 48.1875 
Q 61.625 48.1875 57.5625 43.546875 
Q 53.515625 38.921875 53.515625 30.90625 
L 53.515625 0 
L 44.484375 0 
L 44.484375 32.71875 
Q 44.484375 40.625 41.703125 44.40625 
Q 38.921875 48.1875 33.109375 48.1875 
Q 26.21875 48.1875 22.15625 43.53125 
Q 18.109375 38.875 18.109375 30.90625 
L 18.109375 0 
L 9.078125 0 
L 9.078125 54.6875 
L 18.109375 54.6875 
L 18.109375 46.1875 
Q 21.1875 51.21875 25.484375 53.609375 
Q 29.78125 56 35.6875 56 
Q 41.65625 56 45.828125 52.96875 
Q 50 49.953125 52 44.1875 
z
" id="DejaVuSans-6d"/>
    <path d="M 45.40625 46.390625 
L 45.40625 75.984375 
L 54.390625 75.984375 
L 54.390625 0 
L 45.40625 0 
L 45.40625 8.203125 
Q 42.578125 3.328125 38.25 0.953125 
Q 33.9375 -1.421875 27.875 -1.421875 
Q 17.96875 -1.421875 11.734375 6.484375 
Q 5.515625 14.40625 5.515625 27.296875 
Q 5.515625 40.1875 11.734375 48.09375 
Q 17.96875 56 27.875 56 
Q 33.9375 56 38.25 53.625 
Q 42.578125 51.265625 45.40625 46.390625 
z
M 14.796875 27.296875 
Q 14.796875 17.390625 18.875 11.75 
Q 22.953125 6.109375 30.078125 6.109375 
Q 37.203125 6.109375 41.296875 11.75 
Q 45.40625 17.390625 45.40625 27.296875 
Q 45.40625 37.203125 41.296875 42.84375 
Q 37.203125 48.484375 30.078125 48.484375 
Q 22.953125 48.484375 18.875 42.84375 
Q 14.796875 37.203125 14.796875 27.296875 
z
" id="DejaVuSans-64"/>
    <path d="M 56.203125 29.59375 
L 56.203125 25.203125 
L 14.890625 25.203125 
Q 15.484375 15.921875 20.484375 11.0625 
Q 25.484375 6.203125 34.421875 6.203125 
Q 39.59375 6.203125 44.453125 7.46875 
Q 49.3125 8.734375 54.109375 11.28125 
L 54.109375 2.78125 
Q 49.265625 0.734375 44.1875 -0.34375 
Q 39.109375 -1.421875 33.890625 -1.421875 
Q 20.796875 -1.421875 13.15625 6.1875 
Q 5.515625 13.8125 5.515625 26.8125 
Q 5.515625 40.234375 12.765625 48.109375 
Q 20.015625 56 32.328125 56 
Q 43.359375 56 49.78125 48.890625 
Q 56.203125 41.796875 56.203125 29.59375 
z
M 47.21875 32.234375 
Q 47.125 39.59375 43.09375 43.984375 
Q 39.0625 48.390625 32.421875 48.390625 
Q 24.90625 48.390625 20.390625 44.140625 
Q 15.875 39.890625 15.1875 32.171875 
z
" id="DejaVuSans-65"/>
    <path id="DejaVuSans-20"/>
   </defs>
   <g transform="translate(149.547188 16.030125)scale(0.12 -0.12)">
    <use xlink:href="#DejaVuSans-6d"/>
    <use x="97.412109" xlink:href="#DejaVuSans-6f"/>
    <use x="158.59375" xlink:href="#DejaVuSans-64"/>
    <use x="222.070312" xlink:href="#DejaVuSans-65"/>
    <use x="283.59375" xlink:href="#DejaVuSans-6c"/>
    <use x="311.376953" xlink:href="#DejaVuSans-34"/>
    <use x="375" xlink:href="#DejaVuSans-20"/>
    <use x="406.787109" xlink:href="#DejaVuSans-32"/>
    <use x="470.410156" xlink:href="#DejaVuSans-30"/>
    <use x="534.033203" xlink:href="#DejaVuSans-31"/>
    <use x="597.65625" xlink:href="#DejaVuSans-37"/>
    <use x="661.279297" xlink:href="#DejaVuSans-31"/>
    <use x="724.902344" xlink:href="#DejaVuSans-30"/>
    <use x="788.525391" xlink:href="#DejaVuSans-32"/>
    <use x="852.148438" xlink:href="#DejaVuSans-33"/>
    <use x="915.771484" xlink:href="#DejaVuSans-5f"/>
    <use x="965.771484" xlink:href="#DejaVuSans-31"/>
    <use x="1029.394531" xlink:href="#DejaVuSans-35"/>
    <use x="1093.017578" xlink:href="#DejaVuSans-30"/>
    <use x="1156.640625" xlink:href="#DejaVuSans-34"/>
    <use x="1220.263672" xlink:href="#DejaVuSans-31"/>
    <use x="1283.886719" xlink:href="#DejaVuSans-31"/>
   </g>
  </g>
 </g>
 <defs>
  <clipPath id="p238260f773">
   <rect height="118.272" width="158.72" x="57.6" y="41.472"/>
  </clipPath>
  <clipPath id="p0ddd156227">
   <rect height="118.272" width="158.72" x="256" y="41.472"/>
  </clipPath>
  <clipPath id="p3a6a8b481e">
   <rect height="118.272" width="158.72" x="57.6" y="189.312"/>
  </clipPath>
  <clipPath id="p9acf1b9e5d">
   <rect height="118.272" width="158.72" x="256" y="189.312"/>
  </clipPath>
 </defs>
</svg>
