<?xml version="1.0" encoding="utf-8" standalone="no"?>
<!DOCTYPE svg PUBLIC "-//W3C//DTD SVG 1.1//EN"
  "http://www.w3.org/Graphics/SVG/1.1/DTD/svg11.dtd">
<!-- Created with matplotlib (http://matplotlib.org/) -->
<svg height="345pt" version="1.1" viewBox="0 0 460 345" width="460pt" xmlns="http://www.w3.org/2000/svg" xmlns:xlink="http://www.w3.org/1999/xlink">
 <defs>
  <style type="text/css">
*{stroke-linecap:butt;stroke-linejoin:round;}
  </style>
 </defs>
 <g id="figure_1">
  <g id="patch_1">
   <path d="M 0 345.6 
L 460.8 345.6 
L 460.8 0 
L 0 0 
z
" style="fill:#ffffff;"/>
  </g>
  <g id="axes_1">
   <g id="patch_2">
    <path d="M 57.6 159.744 
L 216.32 159.744 
L 216.32 41.472 
L 57.6 41.472 
z
" style="fill:#ffffff;"/>
   </g>
   <g id="matplotlib.axis_1">
    <g id="xtick_1">
     <g id="line2d_1">
      <path clip-path="url(#p48ecf51c39)" d="M 64.814545 159.744 
L 64.814545 41.472 
" style="fill:none;stroke:#b0b0b0;stroke-linecap:square;stroke-width:0.8;"/>
     </g>
     <g id="line2d_2">
      <defs>
       <path d="M 0 0 
L 0 3.5 
" id="m896d23b769" style="stroke:#000000;stroke-width:0.8;"/>
      </defs>
      <g>
       <use style="stroke:#000000;stroke-width:0.8;" x="64.814545" xlink:href="#m896d23b769" y="159.744"/>
      </g>
     </g>
     <g id="text_1">
      <!-- 0 -->
      <defs>
       <path d="M 31.78125 66.40625 
Q 24.171875 66.40625 20.328125 58.90625 
Q 16.5 51.421875 16.5 36.375 
Q 16.5 21.390625 20.328125 13.890625 
Q 24.171875 6.390625 31.78125 6.390625 
Q 39.453125 6.390625 43.28125 13.890625 
Q 47.125 21.390625 47.125 36.375 
Q 47.125 51.421875 43.28125 58.90625 
Q 39.453125 66.40625 31.78125 66.40625 
z
M 31.78125 74.21875 
Q 44.046875 74.21875 50.515625 64.515625 
Q 56.984375 54.828125 56.984375 36.375 
Q 56.984375 17.96875 50.515625 8.265625 
Q 44.046875 -1.421875 31.78125 -1.421875 
Q 19.53125 -1.421875 13.0625 8.265625 
Q 6.59375 17.96875 6.59375 36.375 
Q 6.59375 54.828125 13.0625 64.515625 
Q 19.53125 74.21875 31.78125 74.21875 
z
" id="DejaVuSans-30"/>
      </defs>
      <g transform="translate(61.633295 174.342437)scale(0.1 -0.1)">
       <use xlink:href="#DejaVuSans-30"/>
      </g>
     </g>
    </g>
    <g id="xtick_2">
     <g id="line2d_3">
      <path clip-path="url(#p48ecf51c39)" d="M 113.072375 159.744 
L 113.072375 41.472 
" style="fill:none;stroke:#b0b0b0;stroke-linecap:square;stroke-width:0.8;"/>
     </g>
     <g id="line2d_4">
      <g>
       <use style="stroke:#000000;stroke-width:0.8;" x="113.072375" xlink:href="#m896d23b769" y="159.744"/>
      </g>
     </g>
     <g id="text_2">
      <!-- 100 -->
      <defs>
       <path d="M 12.40625 8.296875 
L 28.515625 8.296875 
L 28.515625 63.921875 
L 10.984375 60.40625 
L 10.984375 69.390625 
L 28.421875 72.90625 
L 38.28125 72.90625 
L 38.28125 8.296875 
L 54.390625 8.296875 
L 54.390625 0 
L 12.40625 0 
z
" id="DejaVuSans-31"/>
      </defs>
      <g transform="translate(103.528625 174.342437)scale(0.1 -0.1)">
       <use xlink:href="#DejaVuSans-31"/>
       <use x="63.623047" xlink:href="#DejaVuSans-30"/>
       <use x="127.246094" xlink:href="#DejaVuSans-30"/>
      </g>
     </g>
    </g>
    <g id="xtick_3">
     <g id="line2d_5">
      <path clip-path="url(#p48ecf51c39)" d="M 161.330204 159.744 
L 161.330204 41.472 
" style="fill:none;stroke:#b0b0b0;stroke-linecap:square;stroke-width:0.8;"/>
     </g>
     <g id="line2d_6">
      <g>
       <use style="stroke:#000000;stroke-width:0.8;" x="161.330204" xlink:href="#m896d23b769" y="159.744"/>
      </g>
     </g>
     <g id="text_3">
      <!-- 200 -->
      <defs>
       <path d="M 19.1875 8.296875 
L 53.609375 8.296875 
L 53.609375 0 
L 7.328125 0 
L 7.328125 8.296875 
Q 12.9375 14.109375 22.625 23.890625 
Q 32.328125 33.6875 34.8125 36.53125 
Q 39.546875 41.84375 41.421875 45.53125 
Q 43.3125 49.21875 43.3125 52.78125 
Q 43.3125 58.59375 39.234375 62.25 
Q 35.15625 65.921875 28.609375 65.921875 
Q 23.96875 65.921875 18.8125 64.3125 
Q 13.671875 62.703125 7.8125 59.421875 
L 7.8125 69.390625 
Q 13.765625 71.78125 18.9375 73 
Q 24.125 74.21875 28.421875 74.21875 
Q 39.75 74.21875 46.484375 68.546875 
Q 53.21875 62.890625 53.21875 53.421875 
Q 53.21875 48.921875 51.53125 44.890625 
Q 49.859375 40.875 45.40625 35.40625 
Q 44.1875 33.984375 37.640625 27.21875 
Q 31.109375 20.453125 19.1875 8.296875 
z
" id="DejaVuSans-32"/>
      </defs>
      <g transform="translate(151.786454 174.342437)scale(0.1 -0.1)">
       <use xlink:href="#DejaVuSans-32"/>
       <use x="63.623047" xlink:href="#DejaVuSans-30"/>
       <use x="127.246094" xlink:href="#DejaVuSans-30"/>
      </g>
     </g>
    </g>
    <g id="xtick_4">
     <g id="line2d_7">
      <path clip-path="url(#p48ecf51c39)" d="M 209.588033 159.744 
L 209.588033 41.472 
" style="fill:none;stroke:#b0b0b0;stroke-linecap:square;stroke-width:0.8;"/>
     </g>
     <g id="line2d_8">
      <g>
       <use style="stroke:#000000;stroke-width:0.8;" x="209.588033" xlink:href="#m896d23b769" y="159.744"/>
      </g>
     </g>
     <g id="text_4">
      <!-- 300 -->
      <defs>
       <path d="M 40.578125 39.3125 
Q 47.65625 37.796875 51.625 33 
Q 55.609375 28.21875 55.609375 21.1875 
Q 55.609375 10.40625 48.1875 4.484375 
Q 40.765625 -1.421875 27.09375 -1.421875 
Q 22.515625 -1.421875 17.65625 -0.515625 
Q 12.796875 0.390625 7.625 2.203125 
L 7.625 11.71875 
Q 11.71875 9.328125 16.59375 8.109375 
Q 21.484375 6.890625 26.8125 6.890625 
Q 36.078125 6.890625 40.9375 10.546875 
Q 45.796875 14.203125 45.796875 21.1875 
Q 45.796875 27.640625 41.28125 31.265625 
Q 36.765625 34.90625 28.71875 34.90625 
L 20.21875 34.90625 
L 20.21875 43.015625 
L 29.109375 43.015625 
Q 36.375 43.015625 40.234375 45.921875 
Q 44.09375 48.828125 44.09375 54.296875 
Q 44.09375 59.90625 40.109375 62.90625 
Q 36.140625 65.921875 28.71875 65.921875 
Q 24.65625 65.921875 20.015625 65.03125 
Q 15.375 64.15625 9.8125 62.3125 
L 9.8125 71.09375 
Q 15.4375 72.65625 20.34375 73.4375 
Q 25.25 74.21875 29.59375 74.21875 
Q 40.828125 74.21875 47.359375 69.109375 
Q 53.90625 64.015625 53.90625 55.328125 
Q 53.90625 49.265625 50.4375 45.09375 
Q 46.96875 40.921875 40.578125 39.3125 
z
" id="DejaVuSans-33"/>
      </defs>
      <g transform="translate(200.044283 174.342437)scale(0.1 -0.1)">
       <use xlink:href="#DejaVuSans-33"/>
       <use x="63.623047" xlink:href="#DejaVuSans-30"/>
       <use x="127.246094" xlink:href="#DejaVuSans-30"/>
      </g>
     </g>
    </g>
   </g>
   <g id="matplotlib.axis_2">
    <g id="ytick_1">
     <g id="line2d_9">
      <path clip-path="url(#p48ecf51c39)" d="M 57.6 155.17325 
L 216.32 155.17325 
" style="fill:none;stroke:#b0b0b0;stroke-linecap:square;stroke-width:0.8;"/>
     </g>
     <g id="line2d_10">
      <defs>
       <path d="M 0 0 
L -3.5 0 
" id="mf93a7c1197" style="stroke:#000000;stroke-width:0.8;"/>
      </defs>
      <g>
       <use style="stroke:#000000;stroke-width:0.8;" x="57.6" xlink:href="#mf93a7c1197" y="155.17325"/>
      </g>
     </g>
     <g id="text_5">
      <!-- 0.00 -->
      <defs>
       <path d="M 10.6875 12.40625 
L 21 12.40625 
L 21 0 
L 10.6875 0 
z
" id="DejaVuSans-2e"/>
      </defs>
      <g transform="translate(28.334375 158.972468)scale(0.1 -0.1)">
       <use xlink:href="#DejaVuSans-30"/>
       <use x="63.623047" xlink:href="#DejaVuSans-2e"/>
       <use x="95.410156" xlink:href="#DejaVuSans-30"/>
       <use x="159.033203" xlink:href="#DejaVuSans-30"/>
      </g>
     </g>
    </g>
    <g id="ytick_2">
     <g id="line2d_11">
      <path clip-path="url(#p48ecf51c39)" d="M 57.6 125.72412 
L 216.32 125.72412 
" style="fill:none;stroke:#b0b0b0;stroke-linecap:square;stroke-width:0.8;"/>
     </g>
     <g id="line2d_12">
      <g>
       <use style="stroke:#000000;stroke-width:0.8;" x="57.6" xlink:href="#mf93a7c1197" y="125.72412"/>
      </g>
     </g>
     <g id="text_6">
      <!-- 0.25 -->
      <defs>
       <path d="M 10.796875 72.90625 
L 49.515625 72.90625 
L 49.515625 64.59375 
L 19.828125 64.59375 
L 19.828125 46.734375 
Q 21.96875 47.46875 24.109375 47.828125 
Q 26.265625 48.1875 28.421875 48.1875 
Q 40.625 48.1875 47.75 41.5 
Q 54.890625 34.8125 54.890625 23.390625 
Q 54.890625 11.625 47.5625 5.09375 
Q 40.234375 -1.421875 26.90625 -1.421875 
Q 22.3125 -1.421875 17.546875 -0.640625 
Q 12.796875 0.140625 7.71875 1.703125 
L 7.71875 11.625 
Q 12.109375 9.234375 16.796875 8.0625 
Q 21.484375 6.890625 26.703125 6.890625 
Q 35.15625 6.890625 40.078125 11.328125 
Q 45.015625 15.765625 45.015625 23.390625 
Q 45.015625 31 40.078125 35.4375 
Q 35.15625 39.890625 26.703125 39.890625 
Q 22.75 39.890625 18.8125 39.015625 
Q 14.890625 38.140625 10.796875 36.28125 
z
" id="DejaVuSans-35"/>
      </defs>
      <g transform="translate(28.334375 129.523338)scale(0.1 -0.1)">
       <use xlink:href="#DejaVuSans-30"/>
       <use x="63.623047" xlink:href="#DejaVuSans-2e"/>
       <use x="95.410156" xlink:href="#DejaVuSans-32"/>
       <use x="159.033203" xlink:href="#DejaVuSans-35"/>
      </g>
     </g>
    </g>
    <g id="ytick_3">
     <g id="line2d_13">
      <path clip-path="url(#p48ecf51c39)" d="M 57.6 96.27499 
L 216.32 96.27499 
" style="fill:none;stroke:#b0b0b0;stroke-linecap:square;stroke-width:0.8;"/>
     </g>
     <g id="line2d_14">
      <g>
       <use style="stroke:#000000;stroke-width:0.8;" x="57.6" xlink:href="#mf93a7c1197" y="96.27499"/>
      </g>
     </g>
     <g id="text_7">
      <!-- 0.50 -->
      <g transform="translate(28.334375 100.074208)scale(0.1 -0.1)">
       <use xlink:href="#DejaVuSans-30"/>
       <use x="63.623047" xlink:href="#DejaVuSans-2e"/>
       <use x="95.410156" xlink:href="#DejaVuSans-35"/>
       <use x="159.033203" xlink:href="#DejaVuSans-30"/>
      </g>
     </g>
    </g>
    <g id="ytick_4">
     <g id="line2d_15">
      <path clip-path="url(#p48ecf51c39)" d="M 57.6 66.82586 
L 216.32 66.82586 
" style="fill:none;stroke:#b0b0b0;stroke-linecap:square;stroke-width:0.8;"/>
     </g>
     <g id="line2d_16">
      <g>
       <use style="stroke:#000000;stroke-width:0.8;" x="57.6" xlink:href="#mf93a7c1197" y="66.82586"/>
      </g>
     </g>
     <g id="text_8">
      <!-- 0.75 -->
      <defs>
       <path d="M 8.203125 72.90625 
L 55.078125 72.90625 
L 55.078125 68.703125 
L 28.609375 0 
L 18.3125 0 
L 43.21875 64.59375 
L 8.203125 64.59375 
z
" id="DejaVuSans-37"/>
      </defs>
      <g transform="translate(28.334375 70.625078)scale(0.1 -0.1)">
       <use xlink:href="#DejaVuSans-30"/>
       <use x="63.623047" xlink:href="#DejaVuSans-2e"/>
       <use x="95.410156" xlink:href="#DejaVuSans-37"/>
       <use x="159.033203" xlink:href="#DejaVuSans-35"/>
      </g>
     </g>
    </g>
   </g>
   <g id="line2d_17">
    <path clip-path="url(#p48ecf51c39)" d="M 64.814545 154.368 
L 65.297124 153.792822 
L 65.779702 153.447715 
L 66.26228 152.757501 
L 66.744859 151.72218 
L 67.227437 150.188371 
L 67.710015 147.580896 
L 68.192593 147.734277 
L 69.15775 145.050111 
L 69.640328 144.129826 
L 70.122907 141.752422 
L 70.605485 141.215589 
L 71.088063 138.953221 
L 72.05322 136.115674 
L 72.535798 135.118698 
L 73.018376 133.163092 
L 73.500955 129.865403 
L 73.983533 130.325546 
L 74.466111 128.254904 
L 75.913846 123.576787 
L 76.396424 123.270025 
L 77.361581 120.010681 
L 77.844159 119.05205 
L 78.809316 115.984433 
L 79.774472 113.338612 
L 80.257051 112.725089 
L 80.739629 111.037899 
L 81.222207 109.964233 
L 81.704786 109.619126 
L 82.669942 105.247771 
L 83.152521 106.628199 
L 84.117677 101.374903 
L 84.600255 101.873391 
L 85.082834 101.64332 
L 85.565412 100.914761 
L 86.04799 98.9975 
L 86.530569 97.617071 
L 87.013147 96.620096 
L 87.495725 95.278013 
L 87.978303 95.546429 
L 88.460882 94.357727 
L 88.94346 93.629168 
L 89.426038 93.514133 
L 89.908617 90.676586 
L 90.391195 90.906658 
L 90.873773 89.027742 
L 91.356351 89.794646 
L 91.83893 88.260837 
L 92.321508 88.87436 
L 92.804086 87.03379 
L 93.286665 88.069111 
L 93.769243 86.611992 
L 94.251821 85.576672 
L 94.7344 86.22854 
L 95.216978 84.349624 
L 95.699556 84.272934 
L 96.182134 81.665459 
L 96.664713 83.314303 
L 97.147291 82.509054 
L 97.629869 80.515102 
L 98.112448 80.591792 
L 98.595026 79.824888 
L 99.077604 80.016614 
L 100.042761 78.176044 
L 100.525339 78.942948 
L 101.007917 78.751222 
L 101.490496 76.527199 
L 101.973074 77.294104 
L 102.455652 76.795616 
L 102.93823 75.606914 
L 103.420809 74.724974 
L 103.903387 74.188141 
L 104.385965 75.223461 
L 104.868544 73.574617 
L 105.8337 72.999439 
L 106.316279 72.42426 
L 106.798857 73.689652 
L 107.281435 72.309225 
L 107.764013 71.312249 
L 108.246592 72.615987 
L 108.72917 70.890452 
L 109.211748 72.34757 
L 109.694327 69.663405 
L 110.176905 71.388939 
L 110.659483 70.353618 
L 111.142061 70.391964 
L 111.62464 68.666429 
L 112.107218 68.666429 
L 112.589796 68.551393 
L 113.072375 68.973191 
L 113.554953 69.011536 
L 114.037531 68.436357 
L 115.002688 66.749168 
L 115.485266 67.401036 
L 115.967844 67.554418 
L 116.450423 66.404061 
L 116.933001 66.442406 
L 117.415579 66.135644 
L 117.898157 65.330395 
L 118.380736 66.25068 
L 118.863314 66.097299 
L 119.345892 64.103348 
L 119.828471 66.097299 
L 120.311049 64.946943 
L 120.793627 64.525145 
L 121.276206 64.371764 
L 121.758784 63.336443 
L 122.72394 63.221408 
L 123.206519 61.956016 
L 123.689097 63.60486 
L 124.171675 62.492849 
L 124.654254 62.876301 
L 126.101988 61.495873 
L 126.584567 62.377813 
L 127.067145 61.84098 
L 127.549723 61.495873 
L 128.032302 61.91767 
L 128.51488 60.882349 
L 128.997458 61.265802 
L 129.480036 61.150766 
L 129.962615 60.805659 
L 130.445193 60.805659 
L 130.927771 60.613933 
L 131.41035 61.035731 
L 131.892928 60.0771 
L 132.375506 59.770338 
L 132.858085 60.192135 
L 133.340663 59.885374 
L 133.823241 59.003434 
L 134.305819 59.847029 
L 134.788398 60.115445 
L 135.270976 59.693648 
L 135.753554 59.578612 
L 136.718711 58.31322 
L 137.201289 58.38991 
L 137.683867 58.581636 
L 138.649024 57.968113 
L 139.131602 58.121494 
L 139.614181 57.354589 
L 140.096759 57.968113 
L 140.579337 57.891422 
L 141.061915 58.159839 
L 141.544494 57.738042 
L 142.027072 58.198184 
L 142.50965 56.626031 
L 142.992229 56.127542 
L 143.474807 56.54934 
L 143.957385 56.702721 
L 144.439964 56.242578 
L 144.922542 56.165888 
L 145.40512 55.360638 
L 145.887698 56.779411 
L 146.370277 55.782435 
L 146.852855 56.434304 
L 147.335433 55.398983 
L 147.818012 55.053877 
L 148.30059 55.322293 
L 148.783168 55.207257 
L 149.265746 55.74409 
L 149.748325 54.70877 
L 150.230903 54.70877 
L 150.713481 54.056901 
L 151.19606 55.897471 
L 151.678638 54.555388 
L 152.161216 54.63208 
L 152.643794 53.90352 
L 153.126373 54.363663 
L 153.608951 54.363663 
L 154.091529 53.865174 
L 154.574108 53.865175 
L 155.056686 53.558413 
L 155.539264 53.865175 
L 156.021843 53.90352 
L 156.504421 53.213306 
L 156.986999 54.670424 
L 157.469577 53.443377 
L 157.952156 53.558413 
L 158.434734 52.638128 
L 158.917312 53.865175 
L 159.399891 53.213306 
L 159.882469 52.177986 
L 160.365047 53.02158 
L 160.847625 51.986259 
L 161.812782 53.596758 
L 162.29536 52.523092 
L 162.777939 52.331366 
L 163.260517 52.638128 
L 163.743095 51.947914 
L 164.225673 52.446402 
L 164.708252 52.369711 
L 165.19083 52.408056 
L 165.673408 51.871223 
L 166.155987 52.561437 
L 166.638565 51.487771 
L 167.121143 51.986259 
L 167.603721 52.13964 
L 168.0863 51.717842 
L 168.568878 51.794533 
L 169.051456 52.254676 
L 169.534035 50.912593 
L 170.016613 52.331366 
L 170.499191 51.564462 
L 170.98177 51.794533 
L 171.464348 50.068998 
L 171.946926 51.986259 
L 172.429504 50.490796 
L 172.912083 51.564462 
L 173.394661 51.411081 
L 173.877239 50.797558 
L 174.359818 51.065974 
L 174.842396 51.602807 
L 175.324974 50.030653 
L 175.807552 50.337415 
L 176.290131 51.219355 
L 177.255287 50.260724 
L 177.737866 50.107344 
L 178.220444 50.145689 
L 178.703022 50.45245 
L 179.1856 49.915618 
L 179.668179 50.835903 
L 180.150757 50.759212 
L 181.115914 49.762237 
L 181.598492 49.953963 
L 182.08107 49.877272 
L 182.563649 50.337415 
L 183.046227 49.685546 
L 183.528805 49.647201 
L 184.493962 49.800582 
L 184.97654 49.263749 
L 185.459118 49.263749 
L 185.941697 49.608856 
L 186.906853 48.956987 
L 187.87201 48.61188 
L 188.354588 49.723891 
L 188.837166 49.378785 
L 189.319745 48.343464 
L 189.802323 48.918642 
L 190.284901 48.420154 
L 190.767479 49.225403 
L 191.250058 48.496844 
L 191.732636 48.420154 
L 192.215214 48.61188 
L 192.697793 49.187059 
L 193.180371 48.803606 
L 193.662949 48.190083 
L 194.145528 47.998357 
L 194.628106 48.841951 
L 195.110684 48.420154 
L 195.593262 48.228428 
L 196.075841 47.691595 
L 196.558419 48.841952 
L 197.040997 47.72994 
L 197.523576 48.190083 
L 198.006154 47.72994 
L 198.488732 48.113392 
L 198.97131 47.768285 
L 199.453889 47.998357 
L 199.936467 48.765261 
L 200.419045 48.151737 
L 200.901624 48.726916 
L 201.384202 47.691595 
L 201.86678 47.960012 
L 202.349358 47.768286 
L 202.831937 47.193107 
L 203.314515 47.308143 
L 203.797093 48.151738 
L 204.279672 47.346488 
L 204.76225 47.806631 
L 205.244828 46.848 
L 205.727407 48.228428 
L 206.209985 47.346488 
L 206.692563 47.001381 
L 207.65772 47.538214 
L 208.140298 46.963036 
L 208.622876 47.078072 
L 209.105455 47.653249 
L 209.105455 47.653249 
" style="fill:none;stroke:#1f77b4;stroke-linecap:square;stroke-width:1.5;"/>
   </g>
   <g id="patch_3">
    <path d="M 57.6 159.744 
L 57.6 41.472 
" style="fill:none;stroke:#000000;stroke-linecap:square;stroke-linejoin:miter;stroke-width:0.8;"/>
   </g>
   <g id="patch_4">
    <path d="M 216.32 159.744 
L 216.32 41.472 
" style="fill:none;stroke:#000000;stroke-linecap:square;stroke-linejoin:miter;stroke-width:0.8;"/>
   </g>
   <g id="patch_5">
    <path d="M 57.6 159.744 
L 216.32 159.744 
" style="fill:none;stroke:#000000;stroke-linecap:square;stroke-linejoin:miter;stroke-width:0.8;"/>
   </g>
   <g id="patch_6">
    <path d="M 57.6 41.472 
L 216.32 41.472 
" style="fill:none;stroke:#000000;stroke-linecap:square;stroke-linejoin:miter;stroke-width:0.8;"/>
   </g>
   <g id="text_9">
    <!-- acc -->
    <defs>
     <path d="M 34.28125 27.484375 
Q 23.390625 27.484375 19.1875 25 
Q 14.984375 22.515625 14.984375 16.5 
Q 14.984375 11.71875 18.140625 8.90625 
Q 21.296875 6.109375 26.703125 6.109375 
Q 34.1875 6.109375 38.703125 11.40625 
Q 43.21875 16.703125 43.21875 25.484375 
L 43.21875 27.484375 
z
M 52.203125 31.203125 
L 52.203125 0 
L 43.21875 0 
L 43.21875 8.296875 
Q 40.140625 3.328125 35.546875 0.953125 
Q 30.953125 -1.421875 24.3125 -1.421875 
Q 15.921875 -1.421875 10.953125 3.296875 
Q 6 8.015625 6 15.921875 
Q 6 25.140625 12.171875 29.828125 
Q 18.359375 34.515625 30.609375 34.515625 
L 43.21875 34.515625 
L 43.21875 35.40625 
Q 43.21875 41.609375 39.140625 45 
Q 35.0625 48.390625 27.6875 48.390625 
Q 23 48.390625 18.546875 47.265625 
Q 14.109375 46.140625 10.015625 43.890625 
L 10.015625 52.203125 
Q 14.9375 54.109375 19.578125 55.046875 
Q 24.21875 56 28.609375 56 
Q 40.484375 56 46.34375 49.84375 
Q 52.203125 43.703125 52.203125 31.203125 
z
" id="DejaVuSans-61"/>
     <path d="M 48.78125 52.59375 
L 48.78125 44.1875 
Q 44.96875 46.296875 41.140625 47.34375 
Q 37.3125 48.390625 33.40625 48.390625 
Q 24.65625 48.390625 19.8125 42.84375 
Q 14.984375 37.3125 14.984375 27.296875 
Q 14.984375 17.28125 19.8125 11.734375 
Q 24.65625 6.203125 33.40625 6.203125 
Q 37.3125 6.203125 41.140625 7.25 
Q 44.96875 8.296875 48.78125 10.40625 
L 48.78125 2.09375 
Q 45.015625 0.34375 40.984375 -0.53125 
Q 36.96875 -1.421875 32.421875 -1.421875 
Q 20.0625 -1.421875 12.78125 6.34375 
Q 5.515625 14.109375 5.515625 27.296875 
Q 5.515625 40.671875 12.859375 48.328125 
Q 20.21875 56 33.015625 56 
Q 37.15625 56 41.109375 55.140625 
Q 45.0625 54.296875 48.78125 52.59375 
z
" id="DejaVuSans-63"/>
    </defs>
    <g transform="translate(126.685 35.472)scale(0.12 -0.12)">
     <use xlink:href="#DejaVuSans-61"/>
     <use x="61.279297" xlink:href="#DejaVuSans-63"/>
     <use x="116.259766" xlink:href="#DejaVuSans-63"/>
    </g>
   </g>
  </g>
  <g id="axes_2">
   <g id="patch_7">
    <path d="M 256 159.744 
L 414.72 159.744 
L 414.72 41.472 
L 256 41.472 
z
" style="fill:#ffffff;"/>
   </g>
   <g id="matplotlib.axis_3">
    <g id="xtick_5">
     <g id="line2d_18">
      <path clip-path="url(#pbb5052179b)" d="M 263.214545 159.744 
L 263.214545 41.472 
" style="fill:none;stroke:#b0b0b0;stroke-linecap:square;stroke-width:0.8;"/>
     </g>
     <g id="line2d_19">
      <g>
       <use style="stroke:#000000;stroke-width:0.8;" x="263.214545" xlink:href="#m896d23b769" y="159.744"/>
      </g>
     </g>
     <g id="text_10">
      <!-- 0 -->
      <g transform="translate(260.033295 174.342437)scale(0.1 -0.1)">
       <use xlink:href="#DejaVuSans-30"/>
      </g>
     </g>
    </g>
    <g id="xtick_6">
     <g id="line2d_20">
      <path clip-path="url(#pbb5052179b)" d="M 311.472375 159.744 
L 311.472375 41.472 
" style="fill:none;stroke:#b0b0b0;stroke-linecap:square;stroke-width:0.8;"/>
     </g>
     <g id="line2d_21">
      <g>
       <use style="stroke:#000000;stroke-width:0.8;" x="311.472375" xlink:href="#m896d23b769" y="159.744"/>
      </g>
     </g>
     <g id="text_11">
      <!-- 100 -->
      <g transform="translate(301.928625 174.342437)scale(0.1 -0.1)">
       <use xlink:href="#DejaVuSans-31"/>
       <use x="63.623047" xlink:href="#DejaVuSans-30"/>
       <use x="127.246094" xlink:href="#DejaVuSans-30"/>
      </g>
     </g>
    </g>
    <g id="xtick_7">
     <g id="line2d_22">
      <path clip-path="url(#pbb5052179b)" d="M 359.730204 159.744 
L 359.730204 41.472 
" style="fill:none;stroke:#b0b0b0;stroke-linecap:square;stroke-width:0.8;"/>
     </g>
     <g id="line2d_23">
      <g>
       <use style="stroke:#000000;stroke-width:0.8;" x="359.730204" xlink:href="#m896d23b769" y="159.744"/>
      </g>
     </g>
     <g id="text_12">
      <!-- 200 -->
      <g transform="translate(350.186454 174.342437)scale(0.1 -0.1)">
       <use xlink:href="#DejaVuSans-32"/>
       <use x="63.623047" xlink:href="#DejaVuSans-30"/>
       <use x="127.246094" xlink:href="#DejaVuSans-30"/>
      </g>
     </g>
    </g>
    <g id="xtick_8">
     <g id="line2d_24">
      <path clip-path="url(#pbb5052179b)" d="M 407.988033 159.744 
L 407.988033 41.472 
" style="fill:none;stroke:#b0b0b0;stroke-linecap:square;stroke-width:0.8;"/>
     </g>
     <g id="line2d_25">
      <g>
       <use style="stroke:#000000;stroke-width:0.8;" x="407.988033" xlink:href="#m896d23b769" y="159.744"/>
      </g>
     </g>
     <g id="text_13">
      <!-- 300 -->
      <g transform="translate(398.444283 174.342437)scale(0.1 -0.1)">
       <use xlink:href="#DejaVuSans-33"/>
       <use x="63.623047" xlink:href="#DejaVuSans-30"/>
       <use x="127.246094" xlink:href="#DejaVuSans-30"/>
      </g>
     </g>
    </g>
   </g>
   <g id="matplotlib.axis_4">
    <g id="ytick_5">
     <g id="line2d_26">
      <path clip-path="url(#pbb5052179b)" d="M 256 159.563612 
L 414.72 159.563612 
" style="fill:none;stroke:#b0b0b0;stroke-linecap:square;stroke-width:0.8;"/>
     </g>
     <g id="line2d_27">
      <g>
       <use style="stroke:#000000;stroke-width:0.8;" x="256" xlink:href="#mf93a7c1197" y="159.563612"/>
      </g>
     </g>
     <g id="text_14">
      <!-- 0 -->
      <g transform="translate(242.6375 163.362831)scale(0.1 -0.1)">
       <use xlink:href="#DejaVuSans-30"/>
      </g>
     </g>
    </g>
    <g id="ytick_6">
     <g id="line2d_28">
      <path clip-path="url(#pbb5052179b)" d="M 256 118.822743 
L 414.72 118.822743 
" style="fill:none;stroke:#b0b0b0;stroke-linecap:square;stroke-width:0.8;"/>
     </g>
     <g id="line2d_29">
      <g>
       <use style="stroke:#000000;stroke-width:0.8;" x="256" xlink:href="#mf93a7c1197" y="118.822743"/>
      </g>
     </g>
     <g id="text_15">
      <!-- 2 -->
      <g transform="translate(242.6375 122.621962)scale(0.1 -0.1)">
       <use xlink:href="#DejaVuSans-32"/>
      </g>
     </g>
    </g>
    <g id="ytick_7">
     <g id="line2d_30">
      <path clip-path="url(#pbb5052179b)" d="M 256 78.081874 
L 414.72 78.081874 
" style="fill:none;stroke:#b0b0b0;stroke-linecap:square;stroke-width:0.8;"/>
     </g>
     <g id="line2d_31">
      <g>
       <use style="stroke:#000000;stroke-width:0.8;" x="256" xlink:href="#mf93a7c1197" y="78.081874"/>
      </g>
     </g>
     <g id="text_16">
      <!-- 4 -->
      <defs>
       <path d="M 37.796875 64.3125 
L 12.890625 25.390625 
L 37.796875 25.390625 
z
M 35.203125 72.90625 
L 47.609375 72.90625 
L 47.609375 25.390625 
L 58.015625 25.390625 
L 58.015625 17.1875 
L 47.609375 17.1875 
L 47.609375 0 
L 37.796875 0 
L 37.796875 17.1875 
L 4.890625 17.1875 
L 4.890625 26.703125 
z
" id="DejaVuSans-34"/>
      </defs>
      <g transform="translate(242.6375 81.881093)scale(0.1 -0.1)">
       <use xlink:href="#DejaVuSans-34"/>
      </g>
     </g>
    </g>
   </g>
   <g id="line2d_32">
    <path clip-path="url(#pbb5052179b)" d="M 263.214545 46.848 
L 263.697124 52.31597 
L 264.179702 60.23287 
L 264.66228 65.749714 
L 265.627437 72.049241 
L 266.110015 74.781556 
L 267.075172 78.877378 
L 270.935798 95.050694 
L 271.418376 96.69516 
L 271.900955 98.892092 
L 273.831268 104.755709 
L 276.726738 111.670712 
L 277.209316 112.768552 
L 277.691894 113.569489 
L 278.657051 115.690507 
L 280.587364 119.159908 
L 281.069942 119.683981 
L 281.552521 120.591828 
L 282.035099 121.141737 
L 282.517677 122.187743 
L 283.000255 122.709125 
L 283.482834 123.519853 
L 283.965412 123.977991 
L 284.44799 124.901927 
L 284.930569 125.223316 
L 285.413147 126.119698 
L 285.895725 126.446029 
L 286.378303 127.079328 
L 286.860882 127.514301 
L 287.34346 128.16729 
L 287.826038 128.425757 
L 288.308617 129.372698 
L 289.273773 130.098293 
L 290.23893 131.148686 
L 291.204086 131.847602 
L 291.686665 132.124344 
L 292.169243 132.86543 
L 292.651821 133.198532 
L 293.1344 133.104816 
L 293.616978 133.808792 
L 295.064713 134.890587 
L 296.512448 135.941624 
L 296.995026 136.161603 
L 297.477604 136.203765 
L 299.890496 137.773225 
L 300.855652 138.15316 
L 301.820809 138.65925 
L 302.303387 138.741512 
L 302.785965 139.209688 
L 304.716279 140.127236 
L 305.198857 140.039024 
L 305.681435 140.417401 
L 306.164013 140.634683 
L 306.646592 141.144954 
L 307.611748 141.220059 
L 308.094327 141.624649 
L 308.576905 141.324721 
L 309.059483 141.789932 
L 309.542061 141.693258 
L 310.02464 142.225094 
L 310.507218 142.099119 
L 310.989796 142.390013 
L 311.954953 142.758366 
L 312.920109 143.185709 
L 313.402688 143.245371 
L 313.885266 143.441001 
L 314.367844 143.443233 
L 315.815579 144.07688 
L 316.298157 144.023408 
L 316.780736 144.361158 
L 317.263314 144.345587 
L 317.745892 144.797204 
L 318.228471 144.467101 
L 318.711049 144.762272 
L 319.676206 145.058742 
L 320.158784 145.009597 
L 321.606519 145.580609 
L 322.089097 145.475018 
L 322.571675 145.718512 
L 323.054254 145.630078 
L 324.01941 146.048313 
L 324.501988 145.918448 
L 324.984567 146.22807 
L 325.467145 146.097227 
L 325.949723 146.486458 
L 326.432302 146.155904 
L 326.91488 146.786804 
L 327.397458 146.593052 
L 327.880036 146.748214 
L 328.845193 146.72337 
L 329.327771 147.020623 
L 329.81035 146.792312 
L 330.292928 147.216407 
L 330.775506 147.251288 
L 331.258085 147.415503 
L 331.740663 147.417332 
L 332.223241 147.552497 
L 332.705819 147.811085 
L 333.188398 147.234932 
L 333.670976 147.560955 
L 335.601289 148.177888 
L 336.566446 148.035293 
L 337.049024 148.158128 
L 337.531602 148.624361 
L 338.979337 148.417821 
L 339.944494 148.959306 
L 340.427072 148.896018 
L 341.392229 149.288984 
L 341.874807 148.971703 
L 342.357385 149.062481 
L 342.839964 149.289372 
L 343.322542 149.286977 
L 343.80512 149.658023 
L 344.287698 149.267257 
L 344.770277 149.46995 
L 345.252855 149.306987 
L 345.735433 149.991546 
L 346.218012 149.60794 
L 346.70059 149.858121 
L 348.148325 149.841725 
L 348.630903 150.280358 
L 349.113481 150.031234 
L 349.59606 150.085568 
L 350.078638 150.420852 
L 350.561216 150.137078 
L 351.043794 150.27371 
L 351.526373 150.579684 
L 352.491529 150.430633 
L 352.974108 150.61439 
L 353.939264 150.635701 
L 354.421843 150.312021 
L 354.904421 150.74745 
L 355.869577 150.857801 
L 356.352156 150.676397 
L 356.834734 151.074997 
L 357.799891 150.893804 
L 358.282469 151.107992 
L 359.247625 151.17373 
L 359.730204 151.089559 
L 360.69536 151.290011 
L 361.177939 151.457499 
L 361.660517 151.206007 
L 362.143095 151.63903 
L 362.625673 151.531178 
L 364.555987 151.652222 
L 365.038565 151.848584 
L 366.003721 151.749845 
L 366.968878 151.705242 
L 367.451456 151.797514 
L 367.934035 152.047886 
L 368.416613 151.776906 
L 368.899191 151.956839 
L 369.38177 152.005961 
L 369.864348 152.350572 
L 370.346926 151.787184 
L 370.829504 152.328932 
L 371.312083 152.09558 
L 371.794661 152.346902 
L 373.242396 152.11867 
L 373.724974 152.638363 
L 374.690131 152.373667 
L 375.655287 152.481516 
L 376.137866 152.454211 
L 376.620444 152.596992 
L 377.5856 152.715896 
L 378.068179 152.484358 
L 378.550757 152.689502 
L 379.033335 152.534326 
L 379.515914 152.842231 
L 380.963649 152.859546 
L 381.446227 152.568666 
L 381.928805 152.92163 
L 382.893962 153.175578 
L 385.306853 153.021871 
L 386.27201 153.168759 
L 386.754588 152.980097 
L 387.237166 153.038705 
L 387.719745 153.467406 
L 389.167479 153.168188 
L 389.650058 153.408734 
L 390.615214 153.328531 
L 392.062949 153.667623 
L 392.545528 153.589496 
L 393.510684 153.706669 
L 393.993262 153.49178 
L 395.440997 153.596618 
L 395.923576 153.875446 
L 396.406154 153.721519 
L 397.37131 153.729784 
L 397.853889 153.937201 
L 398.336467 153.705028 
L 399.301624 153.843634 
L 399.784202 153.848233 
L 400.26678 154.205791 
L 403.16225 153.935588 
L 403.644828 154.306848 
L 404.127407 154.101219 
L 404.609985 154.038154 
L 405.092563 154.348517 
L 405.575141 154.301344 
L 406.05772 154.06876 
L 407.022876 154.368 
L 407.505455 154.262265 
L 407.505455 154.262265 
" style="fill:none;stroke:#1f77b4;stroke-linecap:square;stroke-width:1.5;"/>
   </g>
   <g id="patch_8">
    <path d="M 256 159.744 
L 256 41.472 
" style="fill:none;stroke:#000000;stroke-linecap:square;stroke-linejoin:miter;stroke-width:0.8;"/>
   </g>
   <g id="patch_9">
    <path d="M 414.72 159.744 
L 414.72 41.472 
" style="fill:none;stroke:#000000;stroke-linecap:square;stroke-linejoin:miter;stroke-width:0.8;"/>
   </g>
   <g id="patch_10">
    <path d="M 256 159.744 
L 414.72 159.744 
" style="fill:none;stroke:#000000;stroke-linecap:square;stroke-linejoin:miter;stroke-width:0.8;"/>
   </g>
   <g id="patch_11">
    <path d="M 256 41.472 
L 414.72 41.472 
" style="fill:none;stroke:#000000;stroke-linecap:square;stroke-linejoin:miter;stroke-width:0.8;"/>
   </g>
   <g id="text_17">
    <!-- loss -->
    <defs>
     <path d="M 9.421875 75.984375 
L 18.40625 75.984375 
L 18.40625 0 
L 9.421875 0 
z
" id="DejaVuSans-6c"/>
     <path d="M 30.609375 48.390625 
Q 23.390625 48.390625 19.1875 42.75 
Q 14.984375 37.109375 14.984375 27.296875 
Q 14.984375 17.484375 19.15625 11.84375 
Q 23.34375 6.203125 30.609375 6.203125 
Q 37.796875 6.203125 41.984375 11.859375 
Q 46.1875 17.53125 46.1875 27.296875 
Q 46.1875 37.015625 41.984375 42.703125 
Q 37.796875 48.390625 30.609375 48.390625 
z
M 30.609375 56 
Q 42.328125 56 49.015625 48.375 
Q 55.71875 40.765625 55.71875 27.296875 
Q 55.71875 13.875 49.015625 6.21875 
Q 42.328125 -1.421875 30.609375 -1.421875 
Q 18.84375 -1.421875 12.171875 6.21875 
Q 5.515625 13.875 5.515625 27.296875 
Q 5.515625 40.765625 12.171875 48.375 
Q 18.84375 56 30.609375 56 
z
" id="DejaVuSans-6f"/>
     <path d="M 44.28125 53.078125 
L 44.28125 44.578125 
Q 40.484375 46.53125 36.375 47.5 
Q 32.28125 48.484375 27.875 48.484375 
Q 21.1875 48.484375 17.84375 46.4375 
Q 14.5 44.390625 14.5 40.28125 
Q 14.5 37.15625 16.890625 35.375 
Q 19.28125 33.59375 26.515625 31.984375 
L 29.59375 31.296875 
Q 39.15625 29.25 43.1875 25.515625 
Q 47.21875 21.78125 47.21875 15.09375 
Q 47.21875 7.46875 41.1875 3.015625 
Q 35.15625 -1.421875 24.609375 -1.421875 
Q 20.21875 -1.421875 15.453125 -0.5625 
Q 10.6875 0.296875 5.421875 2 
L 5.421875 11.28125 
Q 10.40625 8.6875 15.234375 7.390625 
Q 20.0625 6.109375 24.8125 6.109375 
Q 31.15625 6.109375 34.5625 8.28125 
Q 37.984375 10.453125 37.984375 14.40625 
Q 37.984375 18.0625 35.515625 20.015625 
Q 33.0625 21.96875 24.703125 23.78125 
L 21.578125 24.515625 
Q 13.234375 26.265625 9.515625 29.90625 
Q 5.8125 33.546875 5.8125 39.890625 
Q 5.8125 47.609375 11.28125 51.796875 
Q 16.75 56 26.8125 56 
Q 31.78125 56 36.171875 55.265625 
Q 40.578125 54.546875 44.28125 53.078125 
z
" id="DejaVuSans-73"/>
    </defs>
    <g transform="translate(323.770625 35.472)scale(0.12 -0.12)">
     <use xlink:href="#DejaVuSans-6c"/>
     <use x="27.783203" xlink:href="#DejaVuSans-6f"/>
     <use x="88.964844" xlink:href="#DejaVuSans-73"/>
     <use x="141.064453" xlink:href="#DejaVuSans-73"/>
    </g>
   </g>
  </g>
  <g id="axes_3">
   <g id="patch_12">
    <path d="M 57.6 307.584 
L 216.32 307.584 
L 216.32 189.312 
L 57.6 189.312 
z
" style="fill:#ffffff;"/>
   </g>
   <g id="matplotlib.axis_5">
    <g id="xtick_9">
     <g id="line2d_33">
      <path clip-path="url(#p9a105c3691)" d="M 64.814545 307.584 
L 64.814545 189.312 
" style="fill:none;stroke:#b0b0b0;stroke-linecap:square;stroke-width:0.8;"/>
     </g>
     <g id="line2d_34">
      <g>
       <use style="stroke:#000000;stroke-width:0.8;" x="64.814545" xlink:href="#m896d23b769" y="307.584"/>
      </g>
     </g>
     <g id="text_18">
      <!-- 0 -->
      <g transform="translate(61.633295 322.182437)scale(0.1 -0.1)">
       <use xlink:href="#DejaVuSans-30"/>
      </g>
     </g>
    </g>
    <g id="xtick_10">
     <g id="line2d_35">
      <path clip-path="url(#p9a105c3691)" d="M 113.072375 307.584 
L 113.072375 189.312 
" style="fill:none;stroke:#b0b0b0;stroke-linecap:square;stroke-width:0.8;"/>
     </g>
     <g id="line2d_36">
      <g>
       <use style="stroke:#000000;stroke-width:0.8;" x="113.072375" xlink:href="#m896d23b769" y="307.584"/>
      </g>
     </g>
     <g id="text_19">
      <!-- 100 -->
      <g transform="translate(103.528625 322.182437)scale(0.1 -0.1)">
       <use xlink:href="#DejaVuSans-31"/>
       <use x="63.623047" xlink:href="#DejaVuSans-30"/>
       <use x="127.246094" xlink:href="#DejaVuSans-30"/>
      </g>
     </g>
    </g>
    <g id="xtick_11">
     <g id="line2d_37">
      <path clip-path="url(#p9a105c3691)" d="M 161.330204 307.584 
L 161.330204 189.312 
" style="fill:none;stroke:#b0b0b0;stroke-linecap:square;stroke-width:0.8;"/>
     </g>
     <g id="line2d_38">
      <g>
       <use style="stroke:#000000;stroke-width:0.8;" x="161.330204" xlink:href="#m896d23b769" y="307.584"/>
      </g>
     </g>
     <g id="text_20">
      <!-- 200 -->
      <g transform="translate(151.786454 322.182437)scale(0.1 -0.1)">
       <use xlink:href="#DejaVuSans-32"/>
       <use x="63.623047" xlink:href="#DejaVuSans-30"/>
       <use x="127.246094" xlink:href="#DejaVuSans-30"/>
      </g>
     </g>
    </g>
    <g id="xtick_12">
     <g id="line2d_39">
      <path clip-path="url(#p9a105c3691)" d="M 209.588033 307.584 
L 209.588033 189.312 
" style="fill:none;stroke:#b0b0b0;stroke-linecap:square;stroke-width:0.8;"/>
     </g>
     <g id="line2d_40">
      <g>
       <use style="stroke:#000000;stroke-width:0.8;" x="209.588033" xlink:href="#m896d23b769" y="307.584"/>
      </g>
     </g>
     <g id="text_21">
      <!-- 300 -->
      <g transform="translate(200.044283 322.182437)scale(0.1 -0.1)">
       <use xlink:href="#DejaVuSans-33"/>
       <use x="63.623047" xlink:href="#DejaVuSans-30"/>
       <use x="127.246094" xlink:href="#DejaVuSans-30"/>
      </g>
     </g>
    </g>
   </g>
   <g id="matplotlib.axis_6">
    <g id="ytick_8">
     <g id="line2d_41">
      <path clip-path="url(#p9a105c3691)" d="M 57.6 303.635257 
L 216.32 303.635257 
" style="fill:none;stroke:#b0b0b0;stroke-linecap:square;stroke-width:0.8;"/>
     </g>
     <g id="line2d_42">
      <g>
       <use style="stroke:#000000;stroke-width:0.8;" x="57.6" xlink:href="#mf93a7c1197" y="303.635257"/>
      </g>
     </g>
     <g id="text_22">
      <!-- 0.0 -->
      <g transform="translate(34.696875 307.434475)scale(0.1 -0.1)">
       <use xlink:href="#DejaVuSans-30"/>
       <use x="63.623047" xlink:href="#DejaVuSans-2e"/>
       <use x="95.410156" xlink:href="#DejaVuSans-30"/>
      </g>
     </g>
    </g>
    <g id="ytick_9">
     <g id="line2d_43">
      <path clip-path="url(#p9a105c3691)" d="M 57.6 279.276744 
L 216.32 279.276744 
" style="fill:none;stroke:#b0b0b0;stroke-linecap:square;stroke-width:0.8;"/>
     </g>
     <g id="line2d_44">
      <g>
       <use style="stroke:#000000;stroke-width:0.8;" x="57.6" xlink:href="#mf93a7c1197" y="279.276744"/>
      </g>
     </g>
     <g id="text_23">
      <!-- 0.2 -->
      <g transform="translate(34.696875 283.075962)scale(0.1 -0.1)">
       <use xlink:href="#DejaVuSans-30"/>
       <use x="63.623047" xlink:href="#DejaVuSans-2e"/>
       <use x="95.410156" xlink:href="#DejaVuSans-32"/>
      </g>
     </g>
    </g>
    <g id="ytick_10">
     <g id="line2d_45">
      <path clip-path="url(#p9a105c3691)" d="M 57.6 254.918231 
L 216.32 254.918231 
" style="fill:none;stroke:#b0b0b0;stroke-linecap:square;stroke-width:0.8;"/>
     </g>
     <g id="line2d_46">
      <g>
       <use style="stroke:#000000;stroke-width:0.8;" x="57.6" xlink:href="#mf93a7c1197" y="254.918231"/>
      </g>
     </g>
     <g id="text_24">
      <!-- 0.4 -->
      <g transform="translate(34.696875 258.717449)scale(0.1 -0.1)">
       <use xlink:href="#DejaVuSans-30"/>
       <use x="63.623047" xlink:href="#DejaVuSans-2e"/>
       <use x="95.410156" xlink:href="#DejaVuSans-34"/>
      </g>
     </g>
    </g>
    <g id="ytick_11">
     <g id="line2d_47">
      <path clip-path="url(#p9a105c3691)" d="M 57.6 230.559718 
L 216.32 230.559718 
" style="fill:none;stroke:#b0b0b0;stroke-linecap:square;stroke-width:0.8;"/>
     </g>
     <g id="line2d_48">
      <g>
       <use style="stroke:#000000;stroke-width:0.8;" x="57.6" xlink:href="#mf93a7c1197" y="230.559718"/>
      </g>
     </g>
     <g id="text_25">
      <!-- 0.6 -->
      <defs>
       <path d="M 33.015625 40.375 
Q 26.375 40.375 22.484375 35.828125 
Q 18.609375 31.296875 18.609375 23.390625 
Q 18.609375 15.53125 22.484375 10.953125 
Q 26.375 6.390625 33.015625 6.390625 
Q 39.65625 6.390625 43.53125 10.953125 
Q 47.40625 15.53125 47.40625 23.390625 
Q 47.40625 31.296875 43.53125 35.828125 
Q 39.65625 40.375 33.015625 40.375 
z
M 52.59375 71.296875 
L 52.59375 62.3125 
Q 48.875 64.0625 45.09375 64.984375 
Q 41.3125 65.921875 37.59375 65.921875 
Q 27.828125 65.921875 22.671875 59.328125 
Q 17.53125 52.734375 16.796875 39.40625 
Q 19.671875 43.65625 24.015625 45.921875 
Q 28.375 48.1875 33.59375 48.1875 
Q 44.578125 48.1875 50.953125 41.515625 
Q 57.328125 34.859375 57.328125 23.390625 
Q 57.328125 12.15625 50.6875 5.359375 
Q 44.046875 -1.421875 33.015625 -1.421875 
Q 20.359375 -1.421875 13.671875 8.265625 
Q 6.984375 17.96875 6.984375 36.375 
Q 6.984375 53.65625 15.1875 63.9375 
Q 23.390625 74.21875 37.203125 74.21875 
Q 40.921875 74.21875 44.703125 73.484375 
Q 48.484375 72.75 52.59375 71.296875 
z
" id="DejaVuSans-36"/>
      </defs>
      <g transform="translate(34.696875 234.358936)scale(0.1 -0.1)">
       <use xlink:href="#DejaVuSans-30"/>
       <use x="63.623047" xlink:href="#DejaVuSans-2e"/>
       <use x="95.410156" xlink:href="#DejaVuSans-36"/>
      </g>
     </g>
    </g>
    <g id="ytick_12">
     <g id="line2d_49">
      <path clip-path="url(#p9a105c3691)" d="M 57.6 206.201204 
L 216.32 206.201204 
" style="fill:none;stroke:#b0b0b0;stroke-linecap:square;stroke-width:0.8;"/>
     </g>
     <g id="line2d_50">
      <g>
       <use style="stroke:#000000;stroke-width:0.8;" x="57.6" xlink:href="#mf93a7c1197" y="206.201204"/>
      </g>
     </g>
     <g id="text_26">
      <!-- 0.8 -->
      <defs>
       <path d="M 31.78125 34.625 
Q 24.75 34.625 20.71875 30.859375 
Q 16.703125 27.09375 16.703125 20.515625 
Q 16.703125 13.921875 20.71875 10.15625 
Q 24.75 6.390625 31.78125 6.390625 
Q 38.8125 6.390625 42.859375 10.171875 
Q 46.921875 13.96875 46.921875 20.515625 
Q 46.921875 27.09375 42.890625 30.859375 
Q 38.875 34.625 31.78125 34.625 
z
M 21.921875 38.8125 
Q 15.578125 40.375 12.03125 44.71875 
Q 8.5 49.078125 8.5 55.328125 
Q 8.5 64.0625 14.71875 69.140625 
Q 20.953125 74.21875 31.78125 74.21875 
Q 42.671875 74.21875 48.875 69.140625 
Q 55.078125 64.0625 55.078125 55.328125 
Q 55.078125 49.078125 51.53125 44.71875 
Q 48 40.375 41.703125 38.8125 
Q 48.828125 37.15625 52.796875 32.3125 
Q 56.78125 27.484375 56.78125 20.515625 
Q 56.78125 9.90625 50.3125 4.234375 
Q 43.84375 -1.421875 31.78125 -1.421875 
Q 19.734375 -1.421875 13.25 4.234375 
Q 6.78125 9.90625 6.78125 20.515625 
Q 6.78125 27.484375 10.78125 32.3125 
Q 14.796875 37.15625 21.921875 38.8125 
z
M 18.3125 54.390625 
Q 18.3125 48.734375 21.84375 45.5625 
Q 25.390625 42.390625 31.78125 42.390625 
Q 38.140625 42.390625 41.71875 45.5625 
Q 45.3125 48.734375 45.3125 54.390625 
Q 45.3125 60.0625 41.71875 63.234375 
Q 38.140625 66.40625 31.78125 66.40625 
Q 25.390625 66.40625 21.84375 63.234375 
Q 18.3125 60.0625 18.3125 54.390625 
z
" id="DejaVuSans-38"/>
      </defs>
      <g transform="translate(34.696875 210.000423)scale(0.1 -0.1)">
       <use xlink:href="#DejaVuSans-30"/>
       <use x="63.623047" xlink:href="#DejaVuSans-2e"/>
       <use x="95.410156" xlink:href="#DejaVuSans-38"/>
      </g>
     </g>
    </g>
   </g>
   <g id="line2d_51">
    <path clip-path="url(#p9a105c3691)" d="M 64.814545 302.208 
L 65.297124 301.732248 
L 65.779702 299.829239 
L 66.26228 298.401982 
L 66.744859 297.450478 
L 67.227437 294.595965 
L 67.710015 296.023221 
L 68.675172 291.741451 
L 69.15775 290.789947 
L 70.122907 286.983929 
L 71.570642 279.371894 
L 72.05322 283.177911 
L 72.535798 281.750655 
L 73.018376 277.468884 
L 73.500955 276.041628 
L 73.983533 277.944637 
L 74.466111 275.090123 
L 74.94869 276.51738 
L 75.431268 268.905345 
L 75.913846 269.856849 
L 76.396424 267.002336 
L 76.879003 266.526584 
L 77.361581 267.478088 
L 77.844159 262.720566 
L 78.326738 264.623575 
L 78.809316 260.817557 
L 79.291894 264.623575 
L 79.774472 262.720566 
L 80.257051 254.632778 
L 80.739629 261.769062 
L 81.222207 259.3903 
L 81.704786 254.157026 
L 82.187364 257.487291 
L 82.669942 257.487292 
L 83.152521 252.72977 
L 83.635099 261.29331 
L 84.117677 248.923752 
L 84.600255 247.972248 
L 85.565412 251.778265 
L 86.04799 246.544991 
L 86.530569 247.972248 
L 87.013147 247.496494 
L 87.495725 240.360212 
L 87.978303 244.16623 
L 88.460882 247.020743 
L 88.94346 248.923752 
L 89.426038 241.787469 
L 89.908617 239.88446 
L 90.391195 242.738973 
L 90.873773 236.078442 
L 91.356351 240.835964 
L 91.83893 236.554194 
L 92.321508 240.835965 
L 92.804086 240.360212 
L 93.286665 237.5057 
L 93.769243 240.835964 
L 94.7344 237.98145 
L 95.216978 232.748176 
L 95.699556 228.942159 
L 96.182134 233.223928 
L 96.664713 229.893663 
L 97.147291 238.457204 
L 97.629869 234.651184 
L 98.112448 240.835965 
L 98.595026 233.699679 
L 99.077604 231.796672 
L 99.560182 226.563397 
L 100.525339 231.796672 
L 101.007917 226.563398 
L 101.490496 227.514902 
L 101.973074 226.563397 
L 102.455652 226.087644 
L 102.93823 225.13614 
L 103.420809 226.563397 
L 103.903387 225.136141 
L 104.385965 224.184636 
L 104.868544 229.41791 
L 105.351122 228.942157 
L 105.8337 224.660388 
L 106.316279 227.514901 
L 106.798857 220.378619 
L 107.281435 222.281628 
L 107.764013 220.854371 
L 108.246592 224.660389 
L 108.72917 220.854371 
L 109.211748 222.281627 
L 109.694327 218.475611 
L 110.176905 223.233131 
L 110.659483 229.417911 
L 111.142061 217.048352 
L 111.62464 219.902867 
L 112.107218 226.563397 
L 112.589796 220.85437 
L 113.072375 219.427114 
L 114.037531 221.330121 
L 115.002688 215.145344 
L 115.485266 217.048354 
L 115.967844 217.524107 
L 116.450423 217.048353 
L 116.933001 220.378618 
L 117.415579 216.09685 
L 118.380736 221.805876 
L 118.863314 215.621095 
L 119.828471 216.572601 
L 120.793627 214.669592 
L 121.276206 215.145345 
L 121.758784 212.290831 
L 122.241362 217.524105 
L 122.72394 212.766584 
L 123.206519 213.718088 
L 123.689097 213.242336 
L 124.171675 217.048353 
L 124.654254 216.096848 
L 125.136832 213.242334 
L 125.61941 211.815081 
L 126.101988 218.951361 
L 127.067145 210.863575 
L 127.549723 220.378619 
L 128.032302 214.193841 
L 128.51488 212.766584 
L 128.997458 212.290832 
L 129.480036 213.242336 
L 130.445193 214.193841 
L 130.927771 209.91207 
L 131.41035 215.621097 
L 131.892928 211.815079 
L 132.375506 212.290831 
L 132.858085 210.387823 
L 133.340663 206.106054 
L 133.823241 213.242334 
L 134.305819 211.339326 
L 134.788398 213.718088 
L 135.270976 205.630302 
L 135.753554 214.669592 
L 136.236133 208.009062 
L 136.718711 209.91207 
L 137.201289 208.960566 
L 137.683867 212.766583 
L 138.166446 212.290831 
L 138.649024 209.436318 
L 139.131602 209.91207 
L 140.096759 204.678797 
L 140.579337 205.154548 
L 141.061915 211.815079 
L 141.544494 209.436318 
L 142.027072 209.436318 
L 142.50965 208.960567 
L 142.992229 204.678797 
L 143.474807 210.387823 
L 143.957385 206.581805 
L 144.922542 204.678796 
L 145.887698 206.581805 
L 146.370277 211.815079 
L 146.852855 205.154549 
L 147.335433 209.436319 
L 147.818012 208.960567 
L 148.30059 207.057557 
L 148.783168 205.630302 
L 149.265746 206.106054 
L 149.748325 205.630301 
L 150.230903 203.727292 
L 150.713481 206.581804 
L 151.19606 206.581805 
L 151.678638 212.290831 
L 152.161216 209.91207 
L 152.643794 204.203045 
L 153.126373 204.678796 
L 153.608951 207.057557 
L 154.091529 208.484814 
L 154.574108 210.863575 
L 155.539264 205.630301 
L 156.021843 208.960566 
L 156.504421 203.25154 
L 157.469577 206.106053 
L 157.952156 208.484814 
L 158.434734 205.154549 
L 158.917312 206.106053 
L 159.399891 211.339327 
L 159.882469 203.251541 
L 160.365047 208.009061 
L 160.847625 204.678797 
L 161.812782 205.6303 
L 162.29536 205.6303 
L 162.777939 204.678796 
L 163.260517 215.621096 
L 163.743095 206.581805 
L 164.225673 203.727292 
L 165.19083 200.872779 
L 165.673408 201.824285 
L 166.155987 200.397029 
L 166.638565 202.300036 
L 167.121143 201.824282 
L 167.603721 204.678797 
L 168.0863 201.348531 
L 168.568878 199.445524 
L 169.051456 204.203044 
L 169.534035 203.25154 
L 170.016613 203.25154 
L 170.499191 210.387823 
L 170.98177 201.824284 
L 171.464348 207.533311 
L 171.946926 199.921274 
L 172.429504 208.009062 
L 172.912083 202.300037 
L 173.394661 203.251541 
L 173.877239 198.494018 
L 174.359818 208.960565 
L 174.842396 202.300036 
L 175.807552 199.445523 
L 176.290131 199.921274 
L 176.772709 202.775788 
L 177.255287 198.018267 
L 177.737866 202.775788 
L 178.220444 202.300036 
L 178.703022 208.960567 
L 179.1856 201.348531 
L 179.668179 203.727291 
L 180.150757 199.921275 
L 180.633335 199.445523 
L 181.115914 198.018266 
L 181.598492 202.300036 
L 182.08107 197.542515 
L 182.563649 202.300036 
L 183.046227 197.542514 
L 183.528805 199.921274 
L 184.011383 200.872779 
L 184.493962 203.251541 
L 184.97654 204.678797 
L 185.459118 200.397027 
L 185.941697 204.203044 
L 186.424275 198.96977 
L 186.906853 200.397027 
L 187.389431 204.678796 
L 188.354588 197.066762 
L 188.837166 196.59101 
L 189.319745 202.300036 
L 189.802323 197.542514 
L 190.284901 197.066761 
L 190.767479 197.066763 
L 191.250058 202.300037 
L 191.732636 198.494018 
L 192.215214 205.154549 
L 193.180371 198.96977 
L 193.662949 201.348532 
L 194.145528 199.921276 
L 194.628106 198.96977 
L 195.593262 198.018265 
L 196.075841 198.494019 
L 196.558419 198.494019 
L 197.040997 198.969771 
L 197.523576 202.300037 
L 198.006154 198.969771 
L 198.488732 200.397028 
L 198.97131 196.59101 
L 199.453889 201.348531 
L 199.936467 199.921276 
L 200.419045 200.87278 
L 200.901624 203.251539 
L 201.384202 194.688001 
L 201.86678 202.300035 
L 202.349358 194.688001 
L 202.831937 204.203045 
L 203.314515 201.348532 
L 203.797093 196.115258 
L 204.279672 194.688 
L 205.244828 204.203044 
L 205.727407 196.115258 
L 206.209985 196.59101 
L 206.692563 196.115258 
L 207.175141 198.96977 
L 207.65772 200.872779 
L 208.140298 197.066763 
L 208.622876 196.115258 
L 209.105455 199.445523 
L 209.105455 199.445523 
" style="fill:none;stroke:#1f77b4;stroke-linecap:square;stroke-width:1.5;"/>
   </g>
   <g id="patch_13">
    <path d="M 57.6 307.584 
L 57.6 189.312 
" style="fill:none;stroke:#000000;stroke-linecap:square;stroke-linejoin:miter;stroke-width:0.8;"/>
   </g>
   <g id="patch_14">
    <path d="M 216.32 307.584 
L 216.32 189.312 
" style="fill:none;stroke:#000000;stroke-linecap:square;stroke-linejoin:miter;stroke-width:0.8;"/>
   </g>
   <g id="patch_15">
    <path d="M 57.6 307.584 
L 216.32 307.584 
" style="fill:none;stroke:#000000;stroke-linecap:square;stroke-linejoin:miter;stroke-width:0.8;"/>
   </g>
   <g id="patch_16">
    <path d="M 57.6 189.312 
L 216.32 189.312 
" style="fill:none;stroke:#000000;stroke-linecap:square;stroke-linejoin:miter;stroke-width:0.8;"/>
   </g>
   <g id="text_27">
    <!-- val_acc -->
    <defs>
     <path d="M 2.984375 54.6875 
L 12.5 54.6875 
L 29.59375 8.796875 
L 46.6875 54.6875 
L 56.203125 54.6875 
L 35.6875 0 
L 23.484375 0 
z
" id="DejaVuSans-76"/>
     <path d="M 50.984375 -16.609375 
L 50.984375 -23.578125 
L -0.984375 -23.578125 
L -0.984375 -16.609375 
z
" id="DejaVuSans-5f"/>
    </defs>
    <g transform="translate(114.79 183.312)scale(0.12 -0.12)">
     <use xlink:href="#DejaVuSans-76"/>
     <use x="59.179688" xlink:href="#DejaVuSans-61"/>
     <use x="120.458984" xlink:href="#DejaVuSans-6c"/>
     <use x="148.242188" xlink:href="#DejaVuSans-5f"/>
     <use x="198.242188" xlink:href="#DejaVuSans-61"/>
     <use x="259.521484" xlink:href="#DejaVuSans-63"/>
     <use x="314.501953" xlink:href="#DejaVuSans-63"/>
    </g>
   </g>
  </g>
  <g id="axes_4">
   <g id="patch_17">
    <path d="M 256 307.584 
L 414.72 307.584 
L 414.72 189.312 
L 256 189.312 
z
" style="fill:#ffffff;"/>
   </g>
   <g id="matplotlib.axis_7">
    <g id="xtick_13">
     <g id="line2d_52">
      <path clip-path="url(#pbd55aee274)" d="M 263.214545 307.584 
L 263.214545 189.312 
" style="fill:none;stroke:#b0b0b0;stroke-linecap:square;stroke-width:0.8;"/>
     </g>
     <g id="line2d_53">
      <g>
       <use style="stroke:#000000;stroke-width:0.8;" x="263.214545" xlink:href="#m896d23b769" y="307.584"/>
      </g>
     </g>
     <g id="text_28">
      <!-- 0 -->
      <g transform="translate(260.033295 322.182437)scale(0.1 -0.1)">
       <use xlink:href="#DejaVuSans-30"/>
      </g>
     </g>
    </g>
    <g id="xtick_14">
     <g id="line2d_54">
      <path clip-path="url(#pbd55aee274)" d="M 311.472375 307.584 
L 311.472375 189.312 
" style="fill:none;stroke:#b0b0b0;stroke-linecap:square;stroke-width:0.8;"/>
     </g>
     <g id="line2d_55">
      <g>
       <use style="stroke:#000000;stroke-width:0.8;" x="311.472375" xlink:href="#m896d23b769" y="307.584"/>
      </g>
     </g>
     <g id="text_29">
      <!-- 100 -->
      <g transform="translate(301.928625 322.182437)scale(0.1 -0.1)">
       <use xlink:href="#DejaVuSans-31"/>
       <use x="63.623047" xlink:href="#DejaVuSans-30"/>
       <use x="127.246094" xlink:href="#DejaVuSans-30"/>
      </g>
     </g>
    </g>
    <g id="xtick_15">
     <g id="line2d_56">
      <path clip-path="url(#pbd55aee274)" d="M 359.730204 307.584 
L 359.730204 189.312 
" style="fill:none;stroke:#b0b0b0;stroke-linecap:square;stroke-width:0.8;"/>
     </g>
     <g id="line2d_57">
      <g>
       <use style="stroke:#000000;stroke-width:0.8;" x="359.730204" xlink:href="#m896d23b769" y="307.584"/>
      </g>
     </g>
     <g id="text_30">
      <!-- 200 -->
      <g transform="translate(350.186454 322.182437)scale(0.1 -0.1)">
       <use xlink:href="#DejaVuSans-32"/>
       <use x="63.623047" xlink:href="#DejaVuSans-30"/>
       <use x="127.246094" xlink:href="#DejaVuSans-30"/>
      </g>
     </g>
    </g>
    <g id="xtick_16">
     <g id="line2d_58">
      <path clip-path="url(#pbd55aee274)" d="M 407.988033 307.584 
L 407.988033 189.312 
" style="fill:none;stroke:#b0b0b0;stroke-linecap:square;stroke-width:0.8;"/>
     </g>
     <g id="line2d_59">
      <g>
       <use style="stroke:#000000;stroke-width:0.8;" x="407.988033" xlink:href="#m896d23b769" y="307.584"/>
      </g>
     </g>
     <g id="text_31">
      <!-- 300 -->
      <g transform="translate(398.444283 322.182437)scale(0.1 -0.1)">
       <use xlink:href="#DejaVuSans-33"/>
       <use x="63.623047" xlink:href="#DejaVuSans-30"/>
       <use x="127.246094" xlink:href="#DejaVuSans-30"/>
      </g>
     </g>
    </g>
   </g>
   <g id="matplotlib.axis_8">
    <g id="ytick_13">
     <g id="line2d_60">
      <path clip-path="url(#pbd55aee274)" d="M 256 268.693351 
L 414.72 268.693351 
" style="fill:none;stroke:#b0b0b0;stroke-linecap:square;stroke-width:0.8;"/>
     </g>
     <g id="line2d_61">
      <g>
       <use style="stroke:#000000;stroke-width:0.8;" x="256" xlink:href="#mf93a7c1197" y="268.693351"/>
      </g>
     </g>
     <g id="text_32">
      <!-- 2 -->
      <g transform="translate(242.6375 272.49257)scale(0.1 -0.1)">
       <use xlink:href="#DejaVuSans-32"/>
      </g>
     </g>
    </g>
    <g id="ytick_14">
     <g id="line2d_62">
      <path clip-path="url(#pbd55aee274)" d="M 256 226.099275 
L 414.72 226.099275 
" style="fill:none;stroke:#b0b0b0;stroke-linecap:square;stroke-width:0.8;"/>
     </g>
     <g id="line2d_63">
      <g>
       <use style="stroke:#000000;stroke-width:0.8;" x="256" xlink:href="#mf93a7c1197" y="226.099275"/>
      </g>
     </g>
     <g id="text_33">
      <!-- 4 -->
      <g transform="translate(242.6375 229.898493)scale(0.1 -0.1)">
       <use xlink:href="#DejaVuSans-34"/>
      </g>
     </g>
    </g>
   </g>
   <g id="line2d_64">
    <path clip-path="url(#pbd55aee274)" d="M 263.214545 194.688 
L 263.697124 202.756367 
L 264.179702 209.732286 
L 264.66228 214.00744 
L 265.627437 219.818364 
L 267.55775 228.13387 
L 269.488063 236.105178 
L 270.935798 240.830873 
L 271.418376 242.966092 
L 273.831268 250.005506 
L 274.313846 251.111146 
L 274.796424 252.723924 
L 275.279003 253.552178 
L 275.761581 254.719188 
L 276.244159 255.271196 
L 276.726738 256.732005 
L 277.209316 257.253479 
L 277.691894 258.468578 
L 278.174472 259.010608 
L 278.657051 260.431633 
L 279.139629 259.469994 
L 279.622207 261.717413 
L 280.104786 262.996841 
L 280.587364 263.151123 
L 281.552521 264.851376 
L 282.035099 263.224709 
L 282.517677 267.222206 
L 283.000255 266.541044 
L 283.482834 267.29436 
L 283.965412 268.355975 
L 284.44799 268.984985 
L 284.930569 270.107603 
L 285.413147 269.693815 
L 286.378303 272.012271 
L 286.860882 271.220334 
L 287.34346 271.017369 
L 287.826038 273.474618 
L 288.791195 273.735429 
L 289.756351 274.893712 
L 290.23893 275.026972 
L 290.721508 276.167589 
L 291.204086 275.299732 
L 291.686665 276.137258 
L 292.169243 275.783675 
L 292.651821 276.179512 
L 293.1344 276.828436 
L 293.616978 278.894762 
L 294.099556 279.595041 
L 294.582134 279.01073 
L 295.064713 280.149001 
L 295.547291 278.475656 
L 296.029869 280.215598 
L 296.512448 279.003177 
L 296.995026 279.867262 
L 297.477604 280.173506 
L 297.960182 281.861491 
L 298.925339 280.887387 
L 299.407917 282.441968 
L 300.373074 282.489002 
L 300.855652 283.086406 
L 301.33823 283.039225 
L 302.303387 283.969308 
L 302.785965 284.442786 
L 303.268544 283.765681 
L 303.751122 283.448801 
L 304.2337 285.050933 
L 304.716279 284.246581 
L 305.198857 286.056422 
L 305.681435 284.735209 
L 306.164013 285.131356 
L 306.646592 286.02733 
L 307.12917 286.582788 
L 307.611748 286.097933 
L 308.094327 286.646113 
L 308.576905 285.81943 
L 309.059483 282.098402 
L 309.542061 287.62235 
L 310.02464 286.972639 
L 310.507218 285.716061 
L 310.989796 287.988285 
L 311.472375 287.989751 
L 311.954953 288.381922 
L 312.437531 287.569293 
L 312.920109 288.172897 
L 314.367844 288.997026 
L 315.333001 288.562841 
L 315.815579 289.280406 
L 316.298157 287.688729 
L 316.780736 288.950791 
L 318.711049 290.647057 
L 319.193627 290.835248 
L 319.676206 290.098564 
L 320.158784 291.1326 
L 320.641362 289.339382 
L 321.12394 291.279283 
L 321.606519 291.31748 
L 322.571675 290.370214 
L 323.054254 290.968191 
L 323.536832 292.30242 
L 324.01941 291.950165 
L 324.501988 289.832928 
L 324.984567 291.58425 
L 325.467145 291.780895 
L 325.949723 289.36338 
L 326.432302 291.657217 
L 326.91488 292.211492 
L 327.397458 292.367108 
L 327.880036 292.163414 
L 328.362615 292.285631 
L 328.845193 292.595566 
L 329.327771 293.292502 
L 329.81035 291.757929 
L 330.775506 292.918397 
L 331.258085 293.351374 
L 331.740663 293.952405 
L 332.223241 292.459137 
L 332.705819 293.834317 
L 333.188398 291.809022 
L 333.670976 293.618043 
L 334.153554 292.188475 
L 334.636133 294.706258 
L 335.118711 293.600201 
L 335.601289 293.758398 
L 336.083867 293.235629 
L 336.566446 293.24018 
L 337.049024 294.81065 
L 337.531602 293.854269 
L 338.496759 294.395413 
L 338.979337 295.45716 
L 339.461915 292.650021 
L 339.944494 293.787828 
L 340.427072 293.644386 
L 340.90965 295.452915 
L 341.392229 295.912697 
L 341.874807 295.381992 
L 342.357385 295.259539 
L 342.839964 296.345829 
L 343.322542 295.970509 
L 343.80512 296.052616 
L 344.287698 295.881604 
L 344.770277 294.100131 
L 345.252855 296.149204 
L 345.735433 294.826405 
L 346.70059 295.544274 
L 347.183168 297.058097 
L 347.665746 295.912215 
L 348.630903 296.878374 
L 349.113481 296.130529 
L 349.59606 296.856158 
L 350.078638 294.387042 
L 350.561216 294.353344 
L 351.043794 297.122831 
L 351.526373 296.937112 
L 352.008951 296.931843 
L 352.491529 295.931004 
L 352.974108 295.38463 
L 353.939264 296.757314 
L 354.421843 296.826142 
L 355.386999 297.963856 
L 355.869577 297.36577 
L 356.352156 295.427458 
L 356.834734 297.124844 
L 357.317312 296.701512 
L 357.799891 295.098327 
L 358.282469 297.501694 
L 358.765047 295.567547 
L 359.247625 297.616207 
L 360.212782 296.920538 
L 360.69536 297.194781 
L 361.177939 297.652186 
L 361.660517 292.959117 
L 362.143095 298.433343 
L 362.625673 297.849199 
L 363.59083 298.252849 
L 364.073408 298.667809 
L 364.555987 299.25372 
L 365.038565 298.271122 
L 366.003721 298.145683 
L 366.968878 298.996116 
L 367.451456 297.607834 
L 367.934035 298.368128 
L 368.416613 297.587644 
L 368.899191 294.977843 
L 369.38177 298.235891 
L 369.864348 297.078631 
L 370.346926 299.21252 
L 370.829504 296.884141 
L 371.312083 298.424514 
L 371.794661 297.647912 
L 372.277239 299.801537 
L 372.759818 296.825797 
L 373.242396 298.032681 
L 373.724974 298.926708 
L 374.207552 299.250812 
L 374.690131 299.077567 
L 375.172709 298.092064 
L 375.655287 299.75312 
L 376.137866 298.898776 
L 376.620444 299.32444 
L 377.103022 297.076818 
L 377.5856 297.983769 
L 378.068179 299.223396 
L 378.550757 300.122902 
L 379.033335 299.95565 
L 379.515914 300.338386 
L 379.998492 298.779947 
L 380.48107 300.888221 
L 380.963649 298.556286 
L 381.446227 300.712513 
L 381.928805 300.203804 
L 382.411383 300.030603 
L 382.893962 298.537007 
L 383.37654 298.86763 
L 383.859118 299.718843 
L 384.341697 299.112924 
L 384.824275 299.726455 
L 385.306853 299.817912 
L 385.789431 299.264128 
L 386.27201 300.346275 
L 386.754588 300.517606 
L 387.237166 300.956538 
L 387.719745 298.900914 
L 388.202323 301.072745 
L 388.684901 300.885438 
L 389.167479 299.528076 
L 389.650058 299.925861 
L 390.132636 300.725929 
L 390.615214 298.296723 
L 391.097793 299.557767 
L 391.580371 300.113507 
L 392.062949 300.055851 
L 392.545528 298.228357 
L 393.028106 301.365192 
L 393.993262 300.131707 
L 394.475841 301.092831 
L 395.440997 301.109611 
L 395.923576 299.627229 
L 396.406154 300.289657 
L 396.888732 299.585829 
L 397.37131 301.354862 
L 397.853889 299.873521 
L 398.336467 301.425065 
L 398.819045 299.255419 
L 399.301624 298.645069 
L 399.784202 302.058064 
L 400.26678 300.098348 
L 400.749358 301.453479 
L 401.231937 298.594479 
L 402.197093 301.855799 
L 403.16225 302.006707 
L 403.644828 299.387609 
L 404.127407 301.346693 
L 404.609985 301.670784 
L 405.092563 301.222895 
L 405.575141 301.426538 
L 406.05772 301.350708 
L 406.540298 300.792587 
L 407.022876 302.208 
L 407.505455 300.190079 
L 407.505455 300.190079 
" style="fill:none;stroke:#1f77b4;stroke-linecap:square;stroke-width:1.5;"/>
   </g>
   <g id="patch_18">
    <path d="M 256 307.584 
L 256 189.312 
" style="fill:none;stroke:#000000;stroke-linecap:square;stroke-linejoin:miter;stroke-width:0.8;"/>
   </g>
   <g id="patch_19">
    <path d="M 414.72 307.584 
L 414.72 189.312 
" style="fill:none;stroke:#000000;stroke-linecap:square;stroke-linejoin:miter;stroke-width:0.8;"/>
   </g>
   <g id="patch_20">
    <path d="M 256 307.584 
L 414.72 307.584 
" style="fill:none;stroke:#000000;stroke-linecap:square;stroke-linejoin:miter;stroke-width:0.8;"/>
   </g>
   <g id="patch_21">
    <path d="M 256 189.312 
L 414.72 189.312 
" style="fill:none;stroke:#000000;stroke-linecap:square;stroke-linejoin:miter;stroke-width:0.8;"/>
   </g>
   <g id="text_34">
    <!-- val_loss -->
    <g transform="translate(311.875625 183.312)scale(0.12 -0.12)">
     <use xlink:href="#DejaVuSans-76"/>
     <use x="59.179688" xlink:href="#DejaVuSans-61"/>
     <use x="120.458984" xlink:href="#DejaVuSans-6c"/>
     <use x="148.242188" xlink:href="#DejaVuSans-5f"/>
     <use x="198.242188" xlink:href="#DejaVuSans-6c"/>
     <use x="226.025391" xlink:href="#DejaVuSans-6f"/>
     <use x="287.207031" xlink:href="#DejaVuSans-73"/>
     <use x="339.306641" xlink:href="#DejaVuSans-73"/>
    </g>
   </g>
  </g>
  <g id="text_35">
   <!-- solution 20171021_143916 -->
   <defs>
    <path d="M 8.5 21.578125 
L 8.5 54.6875 
L 17.484375 54.6875 
L 17.484375 21.921875 
Q 17.484375 14.15625 20.5 10.265625 
Q 23.53125 6.390625 29.59375 6.390625 
Q 36.859375 6.390625 41.078125 11.03125 
Q 45.3125 15.671875 45.3125 23.6875 
L 45.3125 54.6875 
L 54.296875 54.6875 
L 54.296875 0 
L 45.3125 0 
L 45.3125 8.40625 
Q 42.046875 3.421875 37.71875 1 
Q 33.40625 -1.421875 27.6875 -1.421875 
Q 18.265625 -1.421875 13.375 4.4375 
Q 8.5 10.296875 8.5 21.578125 
z
M 31.109375 56 
z
" id="DejaVuSans-75"/>
    <path d="M 18.3125 70.21875 
L 18.3125 54.6875 
L 36.8125 54.6875 
L 36.8125 47.703125 
L 18.3125 47.703125 
L 18.3125 18.015625 
Q 18.3125 11.328125 20.140625 9.421875 
Q 21.96875 7.515625 27.59375 7.515625 
L 36.8125 7.515625 
L 36.8125 0 
L 27.59375 0 
Q 17.1875 0 13.234375 3.875 
Q 9.28125 7.765625 9.28125 18.015625 
L 9.28125 47.703125 
L 2.6875 47.703125 
L 2.6875 54.6875 
L 9.28125 54.6875 
L 9.28125 70.21875 
z
" id="DejaVuSans-74"/>
    <path d="M 9.421875 54.6875 
L 18.40625 54.6875 
L 18.40625 0 
L 9.421875 0 
z
M 9.421875 75.984375 
L 18.40625 75.984375 
L 18.40625 64.59375 
L 9.421875 64.59375 
z
" id="DejaVuSans-69"/>
    <path d="M 54.890625 33.015625 
L 54.890625 0 
L 45.90625 0 
L 45.90625 32.71875 
Q 45.90625 40.484375 42.875 44.328125 
Q 39.84375 48.1875 33.796875 48.1875 
Q 26.515625 48.1875 22.3125 43.546875 
Q 18.109375 38.921875 18.109375 30.90625 
L 18.109375 0 
L 9.078125 0 
L 9.078125 54.6875 
L 18.109375 54.6875 
L 18.109375 46.1875 
Q 21.34375 51.125 25.703125 53.5625 
Q 30.078125 56 35.796875 56 
Q 45.21875 56 50.046875 50.171875 
Q 54.890625 44.34375 54.890625 33.015625 
z
" id="DejaVuSans-6e"/>
    <path id="DejaVuSans-20"/>
    <path d="M 10.984375 1.515625 
L 10.984375 10.5 
Q 14.703125 8.734375 18.5 7.8125 
Q 22.3125 6.890625 25.984375 6.890625 
Q 35.75 6.890625 40.890625 13.453125 
Q 46.046875 20.015625 46.78125 33.40625 
Q 43.953125 29.203125 39.59375 26.953125 
Q 35.25 24.703125 29.984375 24.703125 
Q 19.046875 24.703125 12.671875 31.3125 
Q 6.296875 37.9375 6.296875 49.421875 
Q 6.296875 60.640625 12.9375 67.421875 
Q 19.578125 74.21875 30.609375 74.21875 
Q 43.265625 74.21875 49.921875 64.515625 
Q 56.59375 54.828125 56.59375 36.375 
Q 56.59375 19.140625 48.40625 8.859375 
Q 40.234375 -1.421875 26.421875 -1.421875 
Q 22.703125 -1.421875 18.890625 -0.6875 
Q 15.09375 0.046875 10.984375 1.515625 
z
M 30.609375 32.421875 
Q 37.25 32.421875 41.125 36.953125 
Q 45.015625 41.5 45.015625 49.421875 
Q 45.015625 57.28125 41.125 61.84375 
Q 37.25 66.40625 30.609375 66.40625 
Q 23.96875 66.40625 20.09375 61.84375 
Q 16.21875 57.28125 16.21875 49.421875 
Q 16.21875 41.5 20.09375 36.953125 
Q 23.96875 32.421875 30.609375 32.421875 
z
" id="DejaVuSans-39"/>
   </defs>
   <g transform="translate(148.289062 16.030125)scale(0.12 -0.12)">
    <use xlink:href="#DejaVuSans-73"/>
    <use x="52.099609" xlink:href="#DejaVuSans-6f"/>
    <use x="113.28125" xlink:href="#DejaVuSans-6c"/>
    <use x="141.064453" xlink:href="#DejaVuSans-75"/>
    <use x="204.443359" xlink:href="#DejaVuSans-74"/>
    <use x="243.652344" xlink:href="#DejaVuSans-69"/>
    <use x="271.435547" xlink:href="#DejaVuSans-6f"/>
    <use x="332.617188" xlink:href="#DejaVuSans-6e"/>
    <use x="395.996094" xlink:href="#DejaVuSans-20"/>
    <use x="427.783203" xlink:href="#DejaVuSans-32"/>
    <use x="491.40625" xlink:href="#DejaVuSans-30"/>
    <use x="555.029297" xlink:href="#DejaVuSans-31"/>
    <use x="618.652344" xlink:href="#DejaVuSans-37"/>
    <use x="682.275391" xlink:href="#DejaVuSans-31"/>
    <use x="745.898438" xlink:href="#DejaVuSans-30"/>
    <use x="809.521484" xlink:href="#DejaVuSans-32"/>
    <use x="873.144531" xlink:href="#DejaVuSans-31"/>
    <use x="936.767578" xlink:href="#DejaVuSans-5f"/>
    <use x="986.767578" xlink:href="#DejaVuSans-31"/>
    <use x="1050.390625" xlink:href="#DejaVuSans-34"/>
    <use x="1114.013672" xlink:href="#DejaVuSans-33"/>
    <use x="1177.636719" xlink:href="#DejaVuSans-39"/>
    <use x="1241.259766" xlink:href="#DejaVuSans-31"/>
    <use x="1304.882812" xlink:href="#DejaVuSans-36"/>
   </g>
  </g>
 </g>
 <defs>
  <clipPath id="p48ecf51c39">
   <rect height="118.272" width="158.72" x="57.6" y="41.472"/>
  </clipPath>
  <clipPath id="pbb5052179b">
   <rect height="118.272" width="158.72" x="256" y="41.472"/>
  </clipPath>
  <clipPath id="p9a105c3691">
   <rect height="118.272" width="158.72" x="57.6" y="189.312"/>
  </clipPath>
  <clipPath id="pbd55aee274">
   <rect height="118.272" width="158.72" x="256" y="189.312"/>
  </clipPath>
 </defs>
</svg>
