<?xml version="1.0" encoding="utf-8" standalone="no"?>
<!DOCTYPE svg PUBLIC "-//W3C//DTD SVG 1.1//EN"
  "http://www.w3.org/Graphics/SVG/1.1/DTD/svg11.dtd">
<!-- Created with matplotlib (http://matplotlib.org/) -->
<svg height="345pt" version="1.1" viewBox="0 0 460 345" width="460pt" xmlns="http://www.w3.org/2000/svg" xmlns:xlink="http://www.w3.org/1999/xlink">
 <defs>
  <style type="text/css">
*{stroke-linecap:butt;stroke-linejoin:round;}
  </style>
 </defs>
 <g id="figure_1">
  <g id="patch_1">
   <path d="M 0 345.6 
L 460.8 345.6 
L 460.8 0 
L 0 0 
z
" style="fill:#ffffff;"/>
  </g>
  <g id="axes_1">
   <g id="patch_2">
    <path d="M 57.6 159.744 
L 216.32 159.744 
L 216.32 41.472 
L 57.6 41.472 
z
" style="fill:#ffffff;"/>
   </g>
   <g id="matplotlib.axis_1">
    <g id="xtick_1">
     <g id="line2d_1">
      <path clip-path="url(#p0b3192fbd3)" d="M 64.814545 159.744 
L 64.814545 41.472 
" style="fill:none;stroke:#b0b0b0;stroke-linecap:square;stroke-width:0.8;"/>
     </g>
     <g id="line2d_2">
      <defs>
       <path d="M 0 0 
L 0 3.5 
" id="m616da1d86f" style="stroke:#000000;stroke-width:0.8;"/>
      </defs>
      <g>
       <use style="stroke:#000000;stroke-width:0.8;" x="64.814545" xlink:href="#m616da1d86f" y="159.744"/>
      </g>
     </g>
     <g id="text_1">
      <!-- 0 -->
      <defs>
       <path d="M 31.78125 66.40625 
Q 24.171875 66.40625 20.328125 58.90625 
Q 16.5 51.421875 16.5 36.375 
Q 16.5 21.390625 20.328125 13.890625 
Q 24.171875 6.390625 31.78125 6.390625 
Q 39.453125 6.390625 43.28125 13.890625 
Q 47.125 21.390625 47.125 36.375 
Q 47.125 51.421875 43.28125 58.90625 
Q 39.453125 66.40625 31.78125 66.40625 
z
M 31.78125 74.21875 
Q 44.046875 74.21875 50.515625 64.515625 
Q 56.984375 54.828125 56.984375 36.375 
Q 56.984375 17.96875 50.515625 8.265625 
Q 44.046875 -1.421875 31.78125 -1.421875 
Q 19.53125 -1.421875 13.0625 8.265625 
Q 6.59375 17.96875 6.59375 36.375 
Q 6.59375 54.828125 13.0625 64.515625 
Q 19.53125 74.21875 31.78125 74.21875 
z
" id="DejaVuSans-30"/>
      </defs>
      <g transform="translate(61.633295 174.342437)scale(0.1 -0.1)">
       <use xlink:href="#DejaVuSans-30"/>
      </g>
     </g>
    </g>
    <g id="xtick_2">
     <g id="line2d_3">
      <path clip-path="url(#p0b3192fbd3)" d="M 113.072375 159.744 
L 113.072375 41.472 
" style="fill:none;stroke:#b0b0b0;stroke-linecap:square;stroke-width:0.8;"/>
     </g>
     <g id="line2d_4">
      <g>
       <use style="stroke:#000000;stroke-width:0.8;" x="113.072375" xlink:href="#m616da1d86f" y="159.744"/>
      </g>
     </g>
     <g id="text_2">
      <!-- 100 -->
      <defs>
       <path d="M 12.40625 8.296875 
L 28.515625 8.296875 
L 28.515625 63.921875 
L 10.984375 60.40625 
L 10.984375 69.390625 
L 28.421875 72.90625 
L 38.28125 72.90625 
L 38.28125 8.296875 
L 54.390625 8.296875 
L 54.390625 0 
L 12.40625 0 
z
" id="DejaVuSans-31"/>
      </defs>
      <g transform="translate(103.528625 174.342437)scale(0.1 -0.1)">
       <use xlink:href="#DejaVuSans-31"/>
       <use x="63.623047" xlink:href="#DejaVuSans-30"/>
       <use x="127.246094" xlink:href="#DejaVuSans-30"/>
      </g>
     </g>
    </g>
    <g id="xtick_3">
     <g id="line2d_5">
      <path clip-path="url(#p0b3192fbd3)" d="M 161.330204 159.744 
L 161.330204 41.472 
" style="fill:none;stroke:#b0b0b0;stroke-linecap:square;stroke-width:0.8;"/>
     </g>
     <g id="line2d_6">
      <g>
       <use style="stroke:#000000;stroke-width:0.8;" x="161.330204" xlink:href="#m616da1d86f" y="159.744"/>
      </g>
     </g>
     <g id="text_3">
      <!-- 200 -->
      <defs>
       <path d="M 19.1875 8.296875 
L 53.609375 8.296875 
L 53.609375 0 
L 7.328125 0 
L 7.328125 8.296875 
Q 12.9375 14.109375 22.625 23.890625 
Q 32.328125 33.6875 34.8125 36.53125 
Q 39.546875 41.84375 41.421875 45.53125 
Q 43.3125 49.21875 43.3125 52.78125 
Q 43.3125 58.59375 39.234375 62.25 
Q 35.15625 65.921875 28.609375 65.921875 
Q 23.96875 65.921875 18.8125 64.3125 
Q 13.671875 62.703125 7.8125 59.421875 
L 7.8125 69.390625 
Q 13.765625 71.78125 18.9375 73 
Q 24.125 74.21875 28.421875 74.21875 
Q 39.75 74.21875 46.484375 68.546875 
Q 53.21875 62.890625 53.21875 53.421875 
Q 53.21875 48.921875 51.53125 44.890625 
Q 49.859375 40.875 45.40625 35.40625 
Q 44.1875 33.984375 37.640625 27.21875 
Q 31.109375 20.453125 19.1875 8.296875 
z
" id="DejaVuSans-32"/>
      </defs>
      <g transform="translate(151.786454 174.342437)scale(0.1 -0.1)">
       <use xlink:href="#DejaVuSans-32"/>
       <use x="63.623047" xlink:href="#DejaVuSans-30"/>
       <use x="127.246094" xlink:href="#DejaVuSans-30"/>
      </g>
     </g>
    </g>
    <g id="xtick_4">
     <g id="line2d_7">
      <path clip-path="url(#p0b3192fbd3)" d="M 209.588033 159.744 
L 209.588033 41.472 
" style="fill:none;stroke:#b0b0b0;stroke-linecap:square;stroke-width:0.8;"/>
     </g>
     <g id="line2d_8">
      <g>
       <use style="stroke:#000000;stroke-width:0.8;" x="209.588033" xlink:href="#m616da1d86f" y="159.744"/>
      </g>
     </g>
     <g id="text_4">
      <!-- 300 -->
      <defs>
       <path d="M 40.578125 39.3125 
Q 47.65625 37.796875 51.625 33 
Q 55.609375 28.21875 55.609375 21.1875 
Q 55.609375 10.40625 48.1875 4.484375 
Q 40.765625 -1.421875 27.09375 -1.421875 
Q 22.515625 -1.421875 17.65625 -0.515625 
Q 12.796875 0.390625 7.625 2.203125 
L 7.625 11.71875 
Q 11.71875 9.328125 16.59375 8.109375 
Q 21.484375 6.890625 26.8125 6.890625 
Q 36.078125 6.890625 40.9375 10.546875 
Q 45.796875 14.203125 45.796875 21.1875 
Q 45.796875 27.640625 41.28125 31.265625 
Q 36.765625 34.90625 28.71875 34.90625 
L 20.21875 34.90625 
L 20.21875 43.015625 
L 29.109375 43.015625 
Q 36.375 43.015625 40.234375 45.921875 
Q 44.09375 48.828125 44.09375 54.296875 
Q 44.09375 59.90625 40.109375 62.90625 
Q 36.140625 65.921875 28.71875 65.921875 
Q 24.65625 65.921875 20.015625 65.03125 
Q 15.375 64.15625 9.8125 62.3125 
L 9.8125 71.09375 
Q 15.4375 72.65625 20.34375 73.4375 
Q 25.25 74.21875 29.59375 74.21875 
Q 40.828125 74.21875 47.359375 69.109375 
Q 53.90625 64.015625 53.90625 55.328125 
Q 53.90625 49.265625 50.4375 45.09375 
Q 46.96875 40.921875 40.578125 39.3125 
z
" id="DejaVuSans-33"/>
      </defs>
      <g transform="translate(200.044283 174.342437)scale(0.1 -0.1)">
       <use xlink:href="#DejaVuSans-33"/>
       <use x="63.623047" xlink:href="#DejaVuSans-30"/>
       <use x="127.246094" xlink:href="#DejaVuSans-30"/>
      </g>
     </g>
    </g>
   </g>
   <g id="matplotlib.axis_2">
    <g id="ytick_1">
     <g id="line2d_9">
      <path clip-path="url(#p0b3192fbd3)" d="M 57.6 154.686525 
L 216.32 154.686525 
" style="fill:none;stroke:#b0b0b0;stroke-linecap:square;stroke-width:0.8;"/>
     </g>
     <g id="line2d_10">
      <defs>
       <path d="M 0 0 
L -3.5 0 
" id="m456c5b2a87" style="stroke:#000000;stroke-width:0.8;"/>
      </defs>
      <g>
       <use style="stroke:#000000;stroke-width:0.8;" x="57.6" xlink:href="#m456c5b2a87" y="154.686525"/>
      </g>
     </g>
     <g id="text_5">
      <!-- 0.00 -->
      <defs>
       <path d="M 10.6875 12.40625 
L 21 12.40625 
L 21 0 
L 10.6875 0 
z
" id="DejaVuSans-2e"/>
      </defs>
      <g transform="translate(28.334375 158.485744)scale(0.1 -0.1)">
       <use xlink:href="#DejaVuSans-30"/>
       <use x="63.623047" xlink:href="#DejaVuSans-2e"/>
       <use x="95.410156" xlink:href="#DejaVuSans-30"/>
       <use x="159.033203" xlink:href="#DejaVuSans-30"/>
      </g>
     </g>
    </g>
    <g id="ytick_2">
     <g id="line2d_11">
      <path clip-path="url(#p0b3192fbd3)" d="M 57.6 127.505696 
L 216.32 127.505696 
" style="fill:none;stroke:#b0b0b0;stroke-linecap:square;stroke-width:0.8;"/>
     </g>
     <g id="line2d_12">
      <g>
       <use style="stroke:#000000;stroke-width:0.8;" x="57.6" xlink:href="#m456c5b2a87" y="127.505696"/>
      </g>
     </g>
     <g id="text_6">
      <!-- 0.25 -->
      <defs>
       <path d="M 10.796875 72.90625 
L 49.515625 72.90625 
L 49.515625 64.59375 
L 19.828125 64.59375 
L 19.828125 46.734375 
Q 21.96875 47.46875 24.109375 47.828125 
Q 26.265625 48.1875 28.421875 48.1875 
Q 40.625 48.1875 47.75 41.5 
Q 54.890625 34.8125 54.890625 23.390625 
Q 54.890625 11.625 47.5625 5.09375 
Q 40.234375 -1.421875 26.90625 -1.421875 
Q 22.3125 -1.421875 17.546875 -0.640625 
Q 12.796875 0.140625 7.71875 1.703125 
L 7.71875 11.625 
Q 12.109375 9.234375 16.796875 8.0625 
Q 21.484375 6.890625 26.703125 6.890625 
Q 35.15625 6.890625 40.078125 11.328125 
Q 45.015625 15.765625 45.015625 23.390625 
Q 45.015625 31 40.078125 35.4375 
Q 35.15625 39.890625 26.703125 39.890625 
Q 22.75 39.890625 18.8125 39.015625 
Q 14.890625 38.140625 10.796875 36.28125 
z
" id="DejaVuSans-35"/>
      </defs>
      <g transform="translate(28.334375 131.304915)scale(0.1 -0.1)">
       <use xlink:href="#DejaVuSans-30"/>
       <use x="63.623047" xlink:href="#DejaVuSans-2e"/>
       <use x="95.410156" xlink:href="#DejaVuSans-32"/>
       <use x="159.033203" xlink:href="#DejaVuSans-35"/>
      </g>
     </g>
    </g>
    <g id="ytick_3">
     <g id="line2d_13">
      <path clip-path="url(#p0b3192fbd3)" d="M 57.6 100.324866 
L 216.32 100.324866 
" style="fill:none;stroke:#b0b0b0;stroke-linecap:square;stroke-width:0.8;"/>
     </g>
     <g id="line2d_14">
      <g>
       <use style="stroke:#000000;stroke-width:0.8;" x="57.6" xlink:href="#m456c5b2a87" y="100.324866"/>
      </g>
     </g>
     <g id="text_7">
      <!-- 0.50 -->
      <g transform="translate(28.334375 104.124085)scale(0.1 -0.1)">
       <use xlink:href="#DejaVuSans-30"/>
       <use x="63.623047" xlink:href="#DejaVuSans-2e"/>
       <use x="95.410156" xlink:href="#DejaVuSans-35"/>
       <use x="159.033203" xlink:href="#DejaVuSans-30"/>
      </g>
     </g>
    </g>
    <g id="ytick_4">
     <g id="line2d_15">
      <path clip-path="url(#p0b3192fbd3)" d="M 57.6 73.144037 
L 216.32 73.144037 
" style="fill:none;stroke:#b0b0b0;stroke-linecap:square;stroke-width:0.8;"/>
     </g>
     <g id="line2d_16">
      <g>
       <use style="stroke:#000000;stroke-width:0.8;" x="57.6" xlink:href="#m456c5b2a87" y="73.144037"/>
      </g>
     </g>
     <g id="text_8">
      <!-- 0.75 -->
      <defs>
       <path d="M 8.203125 72.90625 
L 55.078125 72.90625 
L 55.078125 68.703125 
L 28.609375 0 
L 18.3125 0 
L 43.21875 64.59375 
L 8.203125 64.59375 
z
" id="DejaVuSans-37"/>
      </defs>
      <g transform="translate(28.334375 76.943255)scale(0.1 -0.1)">
       <use xlink:href="#DejaVuSans-30"/>
       <use x="63.623047" xlink:href="#DejaVuSans-2e"/>
       <use x="95.410156" xlink:href="#DejaVuSans-37"/>
       <use x="159.033203" xlink:href="#DejaVuSans-35"/>
      </g>
     </g>
    </g>
    <g id="ytick_5">
     <g id="line2d_17">
      <path clip-path="url(#p0b3192fbd3)" d="M 57.6 45.963207 
L 216.32 45.963207 
" style="fill:none;stroke:#b0b0b0;stroke-linecap:square;stroke-width:0.8;"/>
     </g>
     <g id="line2d_18">
      <g>
       <use style="stroke:#000000;stroke-width:0.8;" x="57.6" xlink:href="#m456c5b2a87" y="45.963207"/>
      </g>
     </g>
     <g id="text_9">
      <!-- 1.00 -->
      <g transform="translate(28.334375 49.762426)scale(0.1 -0.1)">
       <use xlink:href="#DejaVuSans-31"/>
       <use x="63.623047" xlink:href="#DejaVuSans-2e"/>
       <use x="95.410156" xlink:href="#DejaVuSans-30"/>
       <use x="159.033203" xlink:href="#DejaVuSans-30"/>
      </g>
     </g>
    </g>
   </g>
   <g id="line2d_19">
    <path clip-path="url(#p0b3192fbd3)" d="M 64.814545 154.368 
L 65.297124 153.660166 
L 66.26228 149.023852 
L 66.744859 144.989198 
L 67.227437 142.440995 
L 68.192593 134.053161 
L 68.675172 129.133714 
L 69.15775 123.010949 
L 69.640328 119.754912 
L 70.605485 109.1374 
L 73.018376 90.769104 
L 73.983533 85.531132 
L 75.913846 76.15233 
L 76.396424 75.72763 
L 77.844159 68.86164 
L 78.326738 69.250948 
L 78.809316 66.490396 
L 79.291894 66.808921 
L 79.774472 64.791594 
L 80.739629 62.738875 
L 81.222207 62.951225 
L 82.187364 59.695189 
L 82.669942 60.226064 
L 83.152521 58.067171 
L 83.635099 58.314913 
L 84.600255 57.43012 
L 85.082834 56.439152 
L 86.04799 55.342009 
L 87.013147 55.518968 
L 87.495725 54.244867 
L 87.978303 53.607816 
L 88.460882 53.572424 
L 88.94346 53.041549 
L 89.426038 53.112333 
L 89.908617 52.970765 
L 90.391195 52.546065 
L 90.873773 52.970765 
L 91.356351 52.262931 
L 91.83893 52.156756 
L 92.321508 51.378139 
L 92.804086 51.590489 
L 93.286665 50.98883 
L 93.769243 51.625881 
L 94.251821 50.634913 
L 94.7344 50.174821 
L 95.216978 50.98883 
L 95.699556 50.634913 
L 96.182134 51.095005 
L 96.664713 50.139429 
L 97.147291 50.316388 
L 97.629869 50.316387 
L 98.112448 49.714728 
L 98.595026 50.457954 
L 99.077604 49.75012 
L 99.560182 50.210212 
L 100.042761 49.785512 
L 100.525339 50.245604 
L 101.007917 49.466987 
L 101.490496 49.96247 
L 101.973074 49.254637 
L 102.455652 49.608553 
L 102.93823 48.829936 
L 103.420809 49.396203 
L 103.903387 49.396203 
L 104.385965 48.546802 
L 104.868544 49.042286 
L 105.351122 49.042286 
L 105.8337 48.546802 
L 107.281435 49.75012 
L 107.764013 48.652977 
L 108.246592 48.936111 
L 108.72917 49.502378 
L 109.211748 48.405235 
L 110.176905 48.794544 
L 110.659483 48.794544 
L 111.142061 48.936111 
L 111.62464 48.759152 
L 112.107218 48.723761 
L 112.589796 48.51141 
L 113.072375 48.51141 
L 113.554953 47.662009 
L 114.037531 48.405235 
L 114.520109 48.794544 
L 115.485266 48.192885 
L 116.450423 48.192885 
L 116.933001 48.51141 
L 117.415579 48.263669 
L 117.898157 48.829936 
L 118.380736 48.617586 
L 118.863314 47.87436 
L 119.828471 48.051318 
L 120.311049 47.768185 
L 120.793627 48.51141 
L 121.758784 47.838968 
L 122.241362 48.192885 
L 123.206519 47.803576 
L 123.689097 47.945143 
L 124.171675 48.263668 
L 124.654254 48.263668 
L 125.136832 47.201917 
L 125.61941 48.263668 
L 126.101988 47.980535 
L 126.584567 48.228277 
L 127.067145 47.768185 
L 127.549723 47.87436 
L 128.997458 47.662009 
L 129.480036 47.591226 
L 129.962615 47.697401 
L 130.445193 48.08671 
L 130.927771 48.08671 
L 131.41035 47.838968 
L 131.892928 47.838968 
L 132.375506 48.51141 
L 132.858085 47.768185 
L 133.340663 47.732793 
L 133.823241 47.945143 
L 134.305819 47.662009 
L 134.788398 47.838968 
L 135.270976 47.626618 
L 135.753554 48.08671 
L 136.236133 48.051318 
L 136.718711 47.732793 
L 137.201289 47.732793 
L 137.683867 47.485051 
L 138.166446 47.945143 
L 138.649024 47.909751 
L 139.131602 48.015927 
L 139.614181 47.555834 
L 140.579337 47.626618 
L 141.061915 47.909751 
L 142.50965 47.414267 
L 142.992229 47.768185 
L 143.474807 47.732793 
L 143.957385 47.945143 
L 144.922542 47.662009 
L 145.40512 47.237309 
L 145.887698 47.626618 
L 146.370277 47.343484 
L 146.852855 47.768184 
L 148.783168 47.378876 
L 149.265746 47.024959 
L 149.748325 47.662009 
L 150.230903 47.803576 
L 150.713481 47.272701 
L 151.19606 47.485051 
L 151.678638 47.308092 
L 152.161216 47.909751 
L 152.643794 47.838968 
L 153.608951 47.201917 
L 154.091529 47.308092 
L 154.574108 47.626618 
L 155.056686 47.768184 
L 155.539264 47.732793 
L 156.021843 47.485051 
L 156.504421 47.095742 
L 156.986999 47.378876 
L 157.469577 47.520443 
L 157.952156 47.414267 
L 158.434734 47.449659 
L 158.917312 47.697401 
L 159.399891 47.485051 
L 159.882469 47.449659 
L 160.365047 47.732793 
L 160.847625 47.555834 
L 161.330204 47.520442 
L 161.812782 47.166525 
L 162.777939 47.449659 
L 163.260517 47.555834 
L 163.743095 47.378876 
L 164.225673 47.06035 
L 164.708252 47.591226 
L 165.19083 47.378876 
L 165.673408 47.732793 
L 167.121143 47.024959 
L 167.603721 47.662009 
L 168.0863 47.555834 
L 168.568878 47.237309 
L 169.051456 47.591226 
L 170.016613 47.378876 
L 170.499191 47.485051 
L 170.98177 47.414267 
L 171.464348 46.954175 
L 171.946926 47.485051 
L 172.429504 47.131134 
L 172.912083 47.662009 
L 173.394661 47.343484 
L 173.877239 47.237309 
L 175.324974 47.662009 
L 175.807552 47.308092 
L 176.290131 47.732793 
L 176.772709 47.343484 
L 178.703022 47.520443 
L 179.668179 47.626618 
L 180.633335 47.87436 
L 181.115914 47.414267 
L 182.563649 47.555834 
L 183.046227 47.024959 
L 183.528805 47.414267 
L 184.493962 47.272701 
L 184.97654 47.449659 
L 185.459118 47.768184 
L 185.941697 47.237309 
L 186.424275 47.449659 
L 186.906853 47.485051 
L 187.389431 48.051318 
L 187.87201 47.237309 
L 188.837166 47.343484 
L 189.319745 47.662009 
L 190.767479 47.2727 
L 191.250058 47.378876 
L 191.732636 47.237309 
L 192.215214 47.626618 
L 192.697793 47.662009 
L 193.180371 47.06035 
L 193.662949 47.449659 
L 194.628106 47.555834 
L 195.110684 47.343484 
L 195.593262 47.308092 
L 196.075841 47.803576 
L 196.558419 47.768185 
L 197.040997 47.237309 
L 197.523576 47.555834 
L 198.006154 47.697401 
L 198.488732 47.520443 
L 199.453889 47.662009 
L 199.936467 47.378876 
L 200.419045 47.378876 
L 200.901624 47.237309 
L 201.384202 47.237309 
L 201.86678 47.87436 
L 202.349358 47.06035 
L 202.831937 47.803576 
L 203.314515 47.201917 
L 203.797093 47.87436 
L 204.279672 46.848 
L 204.76225 47.343484 
L 205.244828 48.08671 
L 205.727407 47.449659 
L 206.209985 47.343484 
L 206.692563 47.662009 
L 207.175141 47.520443 
L 207.65772 47.555834 
L 208.140298 47.87436 
L 208.622876 47.662009 
L 209.105455 47.838968 
L 209.105455 47.838968 
" style="fill:none;stroke:#1f77b4;stroke-linecap:square;stroke-width:1.5;"/>
   </g>
   <g id="patch_3">
    <path d="M 57.6 159.744 
L 57.6 41.472 
" style="fill:none;stroke:#000000;stroke-linecap:square;stroke-linejoin:miter;stroke-width:0.8;"/>
   </g>
   <g id="patch_4">
    <path d="M 216.32 159.744 
L 216.32 41.472 
" style="fill:none;stroke:#000000;stroke-linecap:square;stroke-linejoin:miter;stroke-width:0.8;"/>
   </g>
   <g id="patch_5">
    <path d="M 57.6 159.744 
L 216.32 159.744 
" style="fill:none;stroke:#000000;stroke-linecap:square;stroke-linejoin:miter;stroke-width:0.8;"/>
   </g>
   <g id="patch_6">
    <path d="M 57.6 41.472 
L 216.32 41.472 
" style="fill:none;stroke:#000000;stroke-linecap:square;stroke-linejoin:miter;stroke-width:0.8;"/>
   </g>
   <g id="text_10">
    <!-- acc -->
    <defs>
     <path d="M 34.28125 27.484375 
Q 23.390625 27.484375 19.1875 25 
Q 14.984375 22.515625 14.984375 16.5 
Q 14.984375 11.71875 18.140625 8.90625 
Q 21.296875 6.109375 26.703125 6.109375 
Q 34.1875 6.109375 38.703125 11.40625 
Q 43.21875 16.703125 43.21875 25.484375 
L 43.21875 27.484375 
z
M 52.203125 31.203125 
L 52.203125 0 
L 43.21875 0 
L 43.21875 8.296875 
Q 40.140625 3.328125 35.546875 0.953125 
Q 30.953125 -1.421875 24.3125 -1.421875 
Q 15.921875 -1.421875 10.953125 3.296875 
Q 6 8.015625 6 15.921875 
Q 6 25.140625 12.171875 29.828125 
Q 18.359375 34.515625 30.609375 34.515625 
L 43.21875 34.515625 
L 43.21875 35.40625 
Q 43.21875 41.609375 39.140625 45 
Q 35.0625 48.390625 27.6875 48.390625 
Q 23 48.390625 18.546875 47.265625 
Q 14.109375 46.140625 10.015625 43.890625 
L 10.015625 52.203125 
Q 14.9375 54.109375 19.578125 55.046875 
Q 24.21875 56 28.609375 56 
Q 40.484375 56 46.34375 49.84375 
Q 52.203125 43.703125 52.203125 31.203125 
z
" id="DejaVuSans-61"/>
     <path d="M 48.78125 52.59375 
L 48.78125 44.1875 
Q 44.96875 46.296875 41.140625 47.34375 
Q 37.3125 48.390625 33.40625 48.390625 
Q 24.65625 48.390625 19.8125 42.84375 
Q 14.984375 37.3125 14.984375 27.296875 
Q 14.984375 17.28125 19.8125 11.734375 
Q 24.65625 6.203125 33.40625 6.203125 
Q 37.3125 6.203125 41.140625 7.25 
Q 44.96875 8.296875 48.78125 10.40625 
L 48.78125 2.09375 
Q 45.015625 0.34375 40.984375 -0.53125 
Q 36.96875 -1.421875 32.421875 -1.421875 
Q 20.0625 -1.421875 12.78125 6.34375 
Q 5.515625 14.109375 5.515625 27.296875 
Q 5.515625 40.671875 12.859375 48.328125 
Q 20.21875 56 33.015625 56 
Q 37.15625 56 41.109375 55.140625 
Q 45.0625 54.296875 48.78125 52.59375 
z
" id="DejaVuSans-63"/>
    </defs>
    <g transform="translate(126.685 35.472)scale(0.12 -0.12)">
     <use xlink:href="#DejaVuSans-61"/>
     <use x="61.279297" xlink:href="#DejaVuSans-63"/>
     <use x="116.259766" xlink:href="#DejaVuSans-63"/>
    </g>
   </g>
  </g>
  <g id="axes_2">
   <g id="patch_7">
    <path d="M 256 159.744 
L 414.72 159.744 
L 414.72 41.472 
L 256 41.472 
z
" style="fill:#ffffff;"/>
   </g>
   <g id="matplotlib.axis_3">
    <g id="xtick_5">
     <g id="line2d_20">
      <path clip-path="url(#p0c68418960)" d="M 263.214545 159.744 
L 263.214545 41.472 
" style="fill:none;stroke:#b0b0b0;stroke-linecap:square;stroke-width:0.8;"/>
     </g>
     <g id="line2d_21">
      <g>
       <use style="stroke:#000000;stroke-width:0.8;" x="263.214545" xlink:href="#m616da1d86f" y="159.744"/>
      </g>
     </g>
     <g id="text_11">
      <!-- 0 -->
      <g transform="translate(260.033295 174.342437)scale(0.1 -0.1)">
       <use xlink:href="#DejaVuSans-30"/>
      </g>
     </g>
    </g>
    <g id="xtick_6">
     <g id="line2d_22">
      <path clip-path="url(#p0c68418960)" d="M 311.472375 159.744 
L 311.472375 41.472 
" style="fill:none;stroke:#b0b0b0;stroke-linecap:square;stroke-width:0.8;"/>
     </g>
     <g id="line2d_23">
      <g>
       <use style="stroke:#000000;stroke-width:0.8;" x="311.472375" xlink:href="#m616da1d86f" y="159.744"/>
      </g>
     </g>
     <g id="text_12">
      <!-- 100 -->
      <g transform="translate(301.928625 174.342437)scale(0.1 -0.1)">
       <use xlink:href="#DejaVuSans-31"/>
       <use x="63.623047" xlink:href="#DejaVuSans-30"/>
       <use x="127.246094" xlink:href="#DejaVuSans-30"/>
      </g>
     </g>
    </g>
    <g id="xtick_7">
     <g id="line2d_24">
      <path clip-path="url(#p0c68418960)" d="M 359.730204 159.744 
L 359.730204 41.472 
" style="fill:none;stroke:#b0b0b0;stroke-linecap:square;stroke-width:0.8;"/>
     </g>
     <g id="line2d_25">
      <g>
       <use style="stroke:#000000;stroke-width:0.8;" x="359.730204" xlink:href="#m616da1d86f" y="159.744"/>
      </g>
     </g>
     <g id="text_13">
      <!-- 200 -->
      <g transform="translate(350.186454 174.342437)scale(0.1 -0.1)">
       <use xlink:href="#DejaVuSans-32"/>
       <use x="63.623047" xlink:href="#DejaVuSans-30"/>
       <use x="127.246094" xlink:href="#DejaVuSans-30"/>
      </g>
     </g>
    </g>
    <g id="xtick_8">
     <g id="line2d_26">
      <path clip-path="url(#p0c68418960)" d="M 407.988033 159.744 
L 407.988033 41.472 
" style="fill:none;stroke:#b0b0b0;stroke-linecap:square;stroke-width:0.8;"/>
     </g>
     <g id="line2d_27">
      <g>
       <use style="stroke:#000000;stroke-width:0.8;" x="407.988033" xlink:href="#m616da1d86f" y="159.744"/>
      </g>
     </g>
     <g id="text_14">
      <!-- 300 -->
      <g transform="translate(398.444283 174.342437)scale(0.1 -0.1)">
       <use xlink:href="#DejaVuSans-33"/>
       <use x="63.623047" xlink:href="#DejaVuSans-30"/>
       <use x="127.246094" xlink:href="#DejaVuSans-30"/>
      </g>
     </g>
    </g>
   </g>
   <g id="matplotlib.axis_4">
    <g id="ytick_6">
     <g id="line2d_28">
      <path clip-path="url(#p0c68418960)" d="M 256 155.205638 
L 414.72 155.205638 
" style="fill:none;stroke:#b0b0b0;stroke-linecap:square;stroke-width:0.8;"/>
     </g>
     <g id="line2d_29">
      <g>
       <use style="stroke:#000000;stroke-width:0.8;" x="256" xlink:href="#m456c5b2a87" y="155.205638"/>
      </g>
     </g>
     <g id="text_15">
      <!-- 0 -->
      <g transform="translate(242.6375 159.004857)scale(0.1 -0.1)">
       <use xlink:href="#DejaVuSans-30"/>
      </g>
     </g>
    </g>
    <g id="ytick_7">
     <g id="line2d_30">
      <path clip-path="url(#p0c68418960)" d="M 256 116.143349 
L 414.72 116.143349 
" style="fill:none;stroke:#b0b0b0;stroke-linecap:square;stroke-width:0.8;"/>
     </g>
     <g id="line2d_31">
      <g>
       <use style="stroke:#000000;stroke-width:0.8;" x="256" xlink:href="#m456c5b2a87" y="116.143349"/>
      </g>
     </g>
     <g id="text_16">
      <!-- 2 -->
      <g transform="translate(242.6375 119.942568)scale(0.1 -0.1)">
       <use xlink:href="#DejaVuSans-32"/>
      </g>
     </g>
    </g>
    <g id="ytick_8">
     <g id="line2d_32">
      <path clip-path="url(#p0c68418960)" d="M 256 77.081061 
L 414.72 77.081061 
" style="fill:none;stroke:#b0b0b0;stroke-linecap:square;stroke-width:0.8;"/>
     </g>
     <g id="line2d_33">
      <g>
       <use style="stroke:#000000;stroke-width:0.8;" x="256" xlink:href="#m456c5b2a87" y="77.081061"/>
      </g>
     </g>
     <g id="text_17">
      <!-- 4 -->
      <defs>
       <path d="M 37.796875 64.3125 
L 12.890625 25.390625 
L 37.796875 25.390625 
z
M 35.203125 72.90625 
L 47.609375 72.90625 
L 47.609375 25.390625 
L 58.015625 25.390625 
L 58.015625 17.1875 
L 47.609375 17.1875 
L 47.609375 0 
L 37.796875 0 
L 37.796875 17.1875 
L 4.890625 17.1875 
L 4.890625 26.703125 
z
" id="DejaVuSans-34"/>
      </defs>
      <g transform="translate(242.6375 80.880279)scale(0.1 -0.1)">
       <use xlink:href="#DejaVuSans-34"/>
      </g>
     </g>
    </g>
   </g>
   <g id="line2d_34">
    <path clip-path="url(#p0c68418960)" d="M 263.214545 46.848 
L 263.697124 50.379486 
L 264.179702 57.676979 
L 265.144859 76.358163 
L 265.627437 83.266384 
L 268.040328 107.493345 
L 270.45322 123.034821 
L 271.418376 127.455493 
L 272.383533 130.717823 
L 272.866111 132.870429 
L 274.313846 137.515055 
L 274.796424 138.077983 
L 275.279003 139.324017 
L 275.761581 140.231233 
L 276.244159 141.584703 
L 276.726738 141.727029 
L 277.209316 142.903244 
L 277.691894 143.388328 
L 278.657051 145.089653 
L 279.139629 145.551701 
L 279.622207 145.709236 
L 280.587364 147.258382 
L 281.069942 147.302815 
L 281.552521 148.377631 
L 282.035099 148.501076 
L 282.517677 148.748644 
L 283.000255 148.655388 
L 283.482834 149.548474 
L 283.965412 149.755339 
L 284.44799 150.129162 
L 284.930569 150.213385 
L 285.413147 150.012314 
L 285.895725 150.946787 
L 286.378303 150.969929 
L 287.34346 151.483015 
L 287.826038 151.00624 
L 288.791195 151.80863 
L 289.273773 151.620757 
L 289.756351 151.940341 
L 290.23893 151.948455 
L 290.721508 152.415355 
L 291.204086 151.942746 
L 291.686665 152.438176 
L 292.169243 152.243301 
L 292.651821 152.743845 
L 293.1344 152.737939 
L 293.616978 152.080982 
L 294.099556 152.792169 
L 294.582134 152.36192 
L 295.064713 152.909604 
L 295.547291 152.750713 
L 296.029869 152.820683 
L 296.512448 153.086655 
L 296.995026 152.697556 
L 297.477604 153.096376 
L 297.960182 153.025038 
L 299.890496 153.220363 
L 300.373074 153.492364 
L 300.855652 153.250341 
L 301.33823 153.450201 
L 301.820809 153.315788 
L 302.303387 153.36337 
L 302.785965 153.718948 
L 303.751122 153.279364 
L 304.2337 153.827091 
L 304.716279 153.364511 
L 305.198857 153.413175 
L 305.681435 153.242656 
L 306.164013 153.522907 
L 306.646592 153.582358 
L 307.12917 153.149222 
L 307.611748 153.783367 
L 308.094327 153.460857 
L 308.576905 153.468372 
L 309.059483 153.808807 
L 309.542061 153.296725 
L 310.02464 153.523881 
L 310.989796 153.659278 
L 311.954953 154.174488 
L 312.920109 153.394253 
L 313.402688 153.731948 
L 313.885266 153.855212 
L 314.367844 153.722186 
L 314.850423 153.938452 
L 315.333001 153.762876 
L 315.815579 153.734391 
L 316.298157 153.449617 
L 318.228471 154.057043 
L 319.193627 153.770726 
L 319.676206 153.773626 
L 320.158784 153.941459 
L 320.641362 153.670457 
L 321.12394 154.031167 
L 323.054254 153.834268 
L 323.536832 154.209522 
L 324.01941 153.80857 
L 324.984567 153.861938 
L 325.467145 154.052723 
L 325.949723 153.925402 
L 326.91488 154.292535 
L 327.397458 154.151759 
L 327.880036 154.145145 
L 328.362615 153.767541 
L 328.845193 153.888885 
L 329.81035 153.73668 
L 330.292928 153.983445 
L 330.775506 153.511253 
L 331.258085 154.080777 
L 331.740663 153.580114 
L 332.705819 153.998572 
L 333.188398 153.718181 
L 333.670976 154.015947 
L 334.153554 153.606739 
L 335.118711 154.078602 
L 335.601289 153.990501 
L 336.083867 154.247085 
L 336.566446 153.821909 
L 337.049024 153.834316 
L 337.531602 154.074418 
L 338.496759 154.146252 
L 338.979337 154.030259 
L 339.461915 153.798942 
L 339.944494 153.810728 
L 340.427072 154.135602 
L 340.90965 154.134675 
L 341.392229 153.687107 
L 341.874807 153.979054 
L 342.357385 153.898058 
L 342.839964 154.037525 
L 343.322542 153.992406 
L 343.80512 154.208939 
L 344.287698 153.859505 
L 344.770277 154.235908 
L 345.735433 153.812758 
L 346.70059 154.236632 
L 347.665746 154.249557 
L 348.630903 153.272939 
L 349.113481 154.290817 
L 349.59606 153.420816 
L 350.078638 154.10143 
L 350.561216 153.416702 
L 351.043794 153.460991 
L 352.008951 154.171567 
L 352.491529 154.308319 
L 352.974108 153.888097 
L 353.456686 153.952768 
L 353.939264 153.752723 
L 354.421843 154.067667 
L 354.904421 154.192209 
L 355.386999 154.144144 
L 355.869577 153.81862 
L 356.834734 153.897973 
L 357.317312 153.472725 
L 357.799891 154.011622 
L 358.282469 154.015785 
L 358.765047 153.665525 
L 359.247625 153.6668 
L 359.730204 153.967625 
L 360.212782 154.083243 
L 360.69536 153.953182 
L 361.177939 153.58542 
L 361.660517 153.991982 
L 362.143095 153.815322 
L 362.625673 154.368 
L 363.108252 153.874085 
L 363.59083 154.008091 
L 364.073408 153.912543 
L 364.555987 153.55363 
L 365.038565 153.874609 
L 365.521143 153.998094 
L 366.003721 153.790052 
L 366.968878 153.977498 
L 367.451456 153.694212 
L 367.934035 153.982915 
L 368.416613 153.795946 
L 369.38177 153.864812 
L 369.864348 154.305049 
L 370.346926 153.503132 
L 370.829504 153.95171 
L 371.312083 153.547469 
L 371.794661 154.13289 
L 372.277239 153.613211 
L 372.759818 153.814397 
L 373.724974 153.579437 
L 374.207552 154.091015 
L 374.690131 153.54881 
L 375.172709 153.929578 
L 376.137866 153.189519 
L 376.620444 153.423122 
L 377.103022 153.798672 
L 377.5856 153.542003 
L 378.068179 153.607171 
L 378.550757 152.878953 
L 379.033335 153.356274 
L 379.515914 153.524717 
L 379.998492 153.457 
L 380.963649 153.561647 
L 381.446227 154.224744 
L 381.928805 153.662912 
L 382.411383 153.370482 
L 382.893962 153.485363 
L 383.859118 153.403449 
L 384.341697 153.535552 
L 384.824275 153.352064 
L 385.306853 153.652343 
L 385.789431 153.219346 
L 386.27201 154.117334 
L 386.754588 153.85742 
L 387.237166 153.978463 
L 388.202323 153.468902 
L 390.132636 153.751171 
L 390.615214 153.013855 
L 391.097793 153.243931 
L 391.580371 154.070635 
L 392.062949 153.477822 
L 392.545528 153.388216 
L 393.028106 152.732775 
L 393.993262 153.744984 
L 394.475841 152.721866 
L 394.958419 153.07167 
L 395.440997 153.856958 
L 395.923576 153.66644 
L 396.406154 153.188888 
L 396.888732 153.0393 
L 397.37131 153.172503 
L 397.853889 152.932746 
L 398.819045 153.378003 
L 399.301624 153.119469 
L 399.784202 153.538527 
L 400.26678 153.07212 
L 400.749358 153.718214 
L 401.231937 153.031232 
L 401.714515 153.731701 
L 402.197093 152.856699 
L 402.679672 154.324022 
L 403.16225 153.578626 
L 403.644828 151.956582 
L 404.127407 153.232492 
L 404.609985 153.257628 
L 405.092563 152.483381 
L 406.05772 153.172299 
L 406.540298 152.411617 
L 407.022876 152.722582 
L 407.505455 152.394846 
L 407.505455 152.394846 
" style="fill:none;stroke:#1f77b4;stroke-linecap:square;stroke-width:1.5;"/>
   </g>
   <g id="patch_8">
    <path d="M 256 159.744 
L 256 41.472 
" style="fill:none;stroke:#000000;stroke-linecap:square;stroke-linejoin:miter;stroke-width:0.8;"/>
   </g>
   <g id="patch_9">
    <path d="M 414.72 159.744 
L 414.72 41.472 
" style="fill:none;stroke:#000000;stroke-linecap:square;stroke-linejoin:miter;stroke-width:0.8;"/>
   </g>
   <g id="patch_10">
    <path d="M 256 159.744 
L 414.72 159.744 
" style="fill:none;stroke:#000000;stroke-linecap:square;stroke-linejoin:miter;stroke-width:0.8;"/>
   </g>
   <g id="patch_11">
    <path d="M 256 41.472 
L 414.72 41.472 
" style="fill:none;stroke:#000000;stroke-linecap:square;stroke-linejoin:miter;stroke-width:0.8;"/>
   </g>
   <g id="text_18">
    <!-- loss -->
    <defs>
     <path d="M 9.421875 75.984375 
L 18.40625 75.984375 
L 18.40625 0 
L 9.421875 0 
z
" id="DejaVuSans-6c"/>
     <path d="M 30.609375 48.390625 
Q 23.390625 48.390625 19.1875 42.75 
Q 14.984375 37.109375 14.984375 27.296875 
Q 14.984375 17.484375 19.15625 11.84375 
Q 23.34375 6.203125 30.609375 6.203125 
Q 37.796875 6.203125 41.984375 11.859375 
Q 46.1875 17.53125 46.1875 27.296875 
Q 46.1875 37.015625 41.984375 42.703125 
Q 37.796875 48.390625 30.609375 48.390625 
z
M 30.609375 56 
Q 42.328125 56 49.015625 48.375 
Q 55.71875 40.765625 55.71875 27.296875 
Q 55.71875 13.875 49.015625 6.21875 
Q 42.328125 -1.421875 30.609375 -1.421875 
Q 18.84375 -1.421875 12.171875 6.21875 
Q 5.515625 13.875 5.515625 27.296875 
Q 5.515625 40.765625 12.171875 48.375 
Q 18.84375 56 30.609375 56 
z
" id="DejaVuSans-6f"/>
     <path d="M 44.28125 53.078125 
L 44.28125 44.578125 
Q 40.484375 46.53125 36.375 47.5 
Q 32.28125 48.484375 27.875 48.484375 
Q 21.1875 48.484375 17.84375 46.4375 
Q 14.5 44.390625 14.5 40.28125 
Q 14.5 37.15625 16.890625 35.375 
Q 19.28125 33.59375 26.515625 31.984375 
L 29.59375 31.296875 
Q 39.15625 29.25 43.1875 25.515625 
Q 47.21875 21.78125 47.21875 15.09375 
Q 47.21875 7.46875 41.1875 3.015625 
Q 35.15625 -1.421875 24.609375 -1.421875 
Q 20.21875 -1.421875 15.453125 -0.5625 
Q 10.6875 0.296875 5.421875 2 
L 5.421875 11.28125 
Q 10.40625 8.6875 15.234375 7.390625 
Q 20.0625 6.109375 24.8125 6.109375 
Q 31.15625 6.109375 34.5625 8.28125 
Q 37.984375 10.453125 37.984375 14.40625 
Q 37.984375 18.0625 35.515625 20.015625 
Q 33.0625 21.96875 24.703125 23.78125 
L 21.578125 24.515625 
Q 13.234375 26.265625 9.515625 29.90625 
Q 5.8125 33.546875 5.8125 39.890625 
Q 5.8125 47.609375 11.28125 51.796875 
Q 16.75 56 26.8125 56 
Q 31.78125 56 36.171875 55.265625 
Q 40.578125 54.546875 44.28125 53.078125 
z
" id="DejaVuSans-73"/>
    </defs>
    <g transform="translate(323.770625 35.472)scale(0.12 -0.12)">
     <use xlink:href="#DejaVuSans-6c"/>
     <use x="27.783203" xlink:href="#DejaVuSans-6f"/>
     <use x="88.964844" xlink:href="#DejaVuSans-73"/>
     <use x="141.064453" xlink:href="#DejaVuSans-73"/>
    </g>
   </g>
  </g>
  <g id="axes_3">
   <g id="patch_12">
    <path d="M 57.6 307.584 
L 216.32 307.584 
L 216.32 189.312 
L 57.6 189.312 
z
" style="fill:#ffffff;"/>
   </g>
   <g id="matplotlib.axis_5">
    <g id="xtick_9">
     <g id="line2d_35">
      <path clip-path="url(#pb3de63e88a)" d="M 64.814545 307.584 
L 64.814545 189.312 
" style="fill:none;stroke:#b0b0b0;stroke-linecap:square;stroke-width:0.8;"/>
     </g>
     <g id="line2d_36">
      <g>
       <use style="stroke:#000000;stroke-width:0.8;" x="64.814545" xlink:href="#m616da1d86f" y="307.584"/>
      </g>
     </g>
     <g id="text_19">
      <!-- 0 -->
      <g transform="translate(61.633295 322.182437)scale(0.1 -0.1)">
       <use xlink:href="#DejaVuSans-30"/>
      </g>
     </g>
    </g>
    <g id="xtick_10">
     <g id="line2d_37">
      <path clip-path="url(#pb3de63e88a)" d="M 113.072375 307.584 
L 113.072375 189.312 
" style="fill:none;stroke:#b0b0b0;stroke-linecap:square;stroke-width:0.8;"/>
     </g>
     <g id="line2d_38">
      <g>
       <use style="stroke:#000000;stroke-width:0.8;" x="113.072375" xlink:href="#m616da1d86f" y="307.584"/>
      </g>
     </g>
     <g id="text_20">
      <!-- 100 -->
      <g transform="translate(103.528625 322.182437)scale(0.1 -0.1)">
       <use xlink:href="#DejaVuSans-31"/>
       <use x="63.623047" xlink:href="#DejaVuSans-30"/>
       <use x="127.246094" xlink:href="#DejaVuSans-30"/>
      </g>
     </g>
    </g>
    <g id="xtick_11">
     <g id="line2d_39">
      <path clip-path="url(#pb3de63e88a)" d="M 161.330204 307.584 
L 161.330204 189.312 
" style="fill:none;stroke:#b0b0b0;stroke-linecap:square;stroke-width:0.8;"/>
     </g>
     <g id="line2d_40">
      <g>
       <use style="stroke:#000000;stroke-width:0.8;" x="161.330204" xlink:href="#m616da1d86f" y="307.584"/>
      </g>
     </g>
     <g id="text_21">
      <!-- 200 -->
      <g transform="translate(151.786454 322.182437)scale(0.1 -0.1)">
       <use xlink:href="#DejaVuSans-32"/>
       <use x="63.623047" xlink:href="#DejaVuSans-30"/>
       <use x="127.246094" xlink:href="#DejaVuSans-30"/>
      </g>
     </g>
    </g>
    <g id="xtick_12">
     <g id="line2d_41">
      <path clip-path="url(#pb3de63e88a)" d="M 209.588033 307.584 
L 209.588033 189.312 
" style="fill:none;stroke:#b0b0b0;stroke-linecap:square;stroke-width:0.8;"/>
     </g>
     <g id="line2d_42">
      <g>
       <use style="stroke:#000000;stroke-width:0.8;" x="209.588033" xlink:href="#m616da1d86f" y="307.584"/>
      </g>
     </g>
     <g id="text_22">
      <!-- 300 -->
      <g transform="translate(200.044283 322.182437)scale(0.1 -0.1)">
       <use xlink:href="#DejaVuSans-33"/>
       <use x="63.623047" xlink:href="#DejaVuSans-30"/>
       <use x="127.246094" xlink:href="#DejaVuSans-30"/>
      </g>
     </g>
    </g>
   </g>
   <g id="matplotlib.axis_6">
    <g id="ytick_9">
     <g id="line2d_43">
      <path clip-path="url(#pb3de63e88a)" d="M 57.6 303.546423 
L 216.32 303.546423 
" style="fill:none;stroke:#b0b0b0;stroke-linecap:square;stroke-width:0.8;"/>
     </g>
     <g id="line2d_44">
      <g>
       <use style="stroke:#000000;stroke-width:0.8;" x="57.6" xlink:href="#m456c5b2a87" y="303.546423"/>
      </g>
     </g>
     <g id="text_23">
      <!-- 0.00 -->
      <g transform="translate(28.334375 307.345642)scale(0.1 -0.1)">
       <use xlink:href="#DejaVuSans-30"/>
       <use x="63.623047" xlink:href="#DejaVuSans-2e"/>
       <use x="95.410156" xlink:href="#DejaVuSans-30"/>
       <use x="159.033203" xlink:href="#DejaVuSans-30"/>
      </g>
     </g>
    </g>
    <g id="ytick_10">
     <g id="line2d_45">
      <path clip-path="url(#pb3de63e88a)" d="M 57.6 274.993394 
L 216.32 274.993394 
" style="fill:none;stroke:#b0b0b0;stroke-linecap:square;stroke-width:0.8;"/>
     </g>
     <g id="line2d_46">
      <g>
       <use style="stroke:#000000;stroke-width:0.8;" x="57.6" xlink:href="#m456c5b2a87" y="274.993394"/>
      </g>
     </g>
     <g id="text_24">
      <!-- 0.25 -->
      <g transform="translate(28.334375 278.792613)scale(0.1 -0.1)">
       <use xlink:href="#DejaVuSans-30"/>
       <use x="63.623047" xlink:href="#DejaVuSans-2e"/>
       <use x="95.410156" xlink:href="#DejaVuSans-32"/>
       <use x="159.033203" xlink:href="#DejaVuSans-35"/>
      </g>
     </g>
    </g>
    <g id="ytick_11">
     <g id="line2d_47">
      <path clip-path="url(#pb3de63e88a)" d="M 57.6 246.440365 
L 216.32 246.440365 
" style="fill:none;stroke:#b0b0b0;stroke-linecap:square;stroke-width:0.8;"/>
     </g>
     <g id="line2d_48">
      <g>
       <use style="stroke:#000000;stroke-width:0.8;" x="57.6" xlink:href="#m456c5b2a87" y="246.440365"/>
      </g>
     </g>
     <g id="text_25">
      <!-- 0.50 -->
      <g transform="translate(28.334375 250.239584)scale(0.1 -0.1)">
       <use xlink:href="#DejaVuSans-30"/>
       <use x="63.623047" xlink:href="#DejaVuSans-2e"/>
       <use x="95.410156" xlink:href="#DejaVuSans-35"/>
       <use x="159.033203" xlink:href="#DejaVuSans-30"/>
      </g>
     </g>
    </g>
    <g id="ytick_12">
     <g id="line2d_49">
      <path clip-path="url(#pb3de63e88a)" d="M 57.6 217.887336 
L 216.32 217.887336 
" style="fill:none;stroke:#b0b0b0;stroke-linecap:square;stroke-width:0.8;"/>
     </g>
     <g id="line2d_50">
      <g>
       <use style="stroke:#000000;stroke-width:0.8;" x="57.6" xlink:href="#m456c5b2a87" y="217.887336"/>
      </g>
     </g>
     <g id="text_26">
      <!-- 0.75 -->
      <g transform="translate(28.334375 221.686555)scale(0.1 -0.1)">
       <use xlink:href="#DejaVuSans-30"/>
       <use x="63.623047" xlink:href="#DejaVuSans-2e"/>
       <use x="95.410156" xlink:href="#DejaVuSans-37"/>
       <use x="159.033203" xlink:href="#DejaVuSans-35"/>
      </g>
     </g>
    </g>
    <g id="ytick_13">
     <g id="line2d_51">
      <path clip-path="url(#pb3de63e88a)" d="M 57.6 189.334307 
L 216.32 189.334307 
" style="fill:none;stroke:#b0b0b0;stroke-linecap:square;stroke-width:0.8;"/>
     </g>
     <g id="line2d_52">
      <g>
       <use style="stroke:#000000;stroke-width:0.8;" x="57.6" xlink:href="#m456c5b2a87" y="189.334307"/>
      </g>
     </g>
     <g id="text_27">
      <!-- 1.00 -->
      <g transform="translate(28.334375 193.133526)scale(0.1 -0.1)">
       <use xlink:href="#DejaVuSans-31"/>
       <use x="63.623047" xlink:href="#DejaVuSans-2e"/>
       <use x="95.410156" xlink:href="#DejaVuSans-30"/>
       <use x="159.033203" xlink:href="#DejaVuSans-30"/>
      </g>
     </g>
    </g>
   </g>
   <g id="line2d_53">
    <path clip-path="url(#pb3de63e88a)" d="M 64.814545 302.208 
L 65.297124 301.761859 
L 66.26228 292.839037 
L 66.744859 290.608332 
L 67.227437 298.638871 
L 67.710015 287.485344 
L 68.192593 286.593062 
L 68.675172 279.008664 
L 69.15775 274.547252 
L 69.640328 278.116381 
L 70.122907 264.286008 
L 70.605485 262.501443 
L 71.088063 253.132481 
L 71.570642 252.686339 
L 72.05322 246.440364 
L 72.535798 249.11721 
L 73.018376 261.60916 
L 73.500955 241.532812 
L 73.983533 242.871235 
L 74.94869 234.840695 
L 75.431268 232.16385 
L 75.913846 254.470904 
L 76.396424 231.271567 
L 76.879003 229.933143 
L 77.361581 237.963684 
L 77.844159 225.025591 
L 78.326738 225.025593 
L 78.809316 220.564181 
L 79.291894 225.025591 
L 79.774472 214.764347 
L 80.257051 230.825426 
L 80.739629 215.656629 
L 81.222207 246.440364 
L 81.704786 224.13331 
L 82.187364 212.979784 
L 82.669942 216.548912 
L 83.635099 209.856796 
L 84.600255 217.887335 
L 85.082834 231.271566 
L 85.565412 211.641359 
L 86.04799 224.133309 
L 86.530569 212.533642 
L 87.013147 208.964514 
L 87.495725 219.671899 
L 87.978303 209.410656 
L 88.460882 205.841526 
L 88.94346 217.441194 
L 89.426038 208.964513 
L 89.908617 209.410654 
L 90.391195 209.410655 
L 90.873773 216.995054 
L 91.356351 220.118041 
L 91.83893 205.841526 
L 92.321508 209.856797 
L 92.804086 206.733809 
L 93.286665 217.441194 
L 94.251821 207.179951 
L 94.7344 206.733808 
L 95.216978 204.056963 
L 95.699556 207.179949 
L 96.182134 205.841528 
L 96.664713 208.072232 
L 97.147291 201.826257 
L 97.629869 203.164679 
L 98.112448 207.17995 
L 98.595026 203.16468 
L 99.077604 204.949244 
L 99.560182 206.287667 
L 100.042761 205.841526 
L 100.525339 200.041694 
L 101.007917 203.610822 
L 101.490496 208.518373 
L 101.973074 207.626092 
L 102.455652 200.041693 
L 102.93823 204.949245 
L 103.420809 202.272398 
L 103.903387 204.056963 
L 104.385965 201.826257 
L 104.868544 210.302938 
L 105.351122 198.703271 
L 105.8337 199.149412 
L 106.316279 213.872065 
L 106.798857 206.733809 
L 107.281435 201.826258 
L 107.764013 202.272398 
L 108.246592 201.380116 
L 108.72917 201.826257 
L 109.211748 200.487833 
L 109.694327 202.272399 
L 110.176905 200.041694 
L 110.659483 200.041693 
L 111.142061 206.733808 
L 111.62464 201.826257 
L 112.107218 202.718539 
L 112.589796 207.17995 
L 113.072375 201.826258 
L 113.554953 204.949244 
L 114.037531 202.272399 
L 114.520109 200.933977 
L 115.002688 201.380116 
L 115.485266 200.933976 
L 115.967844 198.70327 
L 116.450423 204.949245 
L 116.933001 204.503104 
L 117.415579 205.395386 
L 117.898157 200.487835 
L 118.863314 199.595552 
L 119.828471 206.733808 
L 120.311049 199.595552 
L 120.793627 199.149412 
L 121.276206 200.487833 
L 121.758784 209.410655 
L 122.241362 203.610822 
L 122.72394 201.826258 
L 123.206519 203.16468 
L 123.689097 206.287669 
L 124.171675 212.0875 
L 124.654254 202.272399 
L 125.136832 199.595552 
L 125.61941 201.826257 
L 126.101988 197.810988 
L 126.584567 201.826257 
L 127.549723 201.826258 
L 128.032302 199.595552 
L 128.51488 200.487834 
L 129.480036 200.487834 
L 129.962615 199.595552 
L 130.445193 201.380117 
L 130.927771 199.595553 
L 131.41035 200.041693 
L 131.892928 201.826258 
L 132.375506 197.810988 
L 132.858085 196.472565 
L 133.340663 196.918706 
L 133.823241 198.25713 
L 134.305819 206.733809 
L 134.788398 198.257129 
L 135.270976 202.272397 
L 135.753554 200.487835 
L 136.236133 200.041693 
L 136.718711 201.380117 
L 137.201289 201.826257 
L 137.683867 200.041694 
L 138.166446 202.272398 
L 138.649024 201.826258 
L 139.131602 203.610822 
L 139.614181 197.810987 
L 140.096759 199.595553 
L 140.579337 202.71854 
L 141.061915 198.703271 
L 141.544494 200.041693 
L 142.027072 203.610821 
L 142.50965 200.487834 
L 142.992229 206.733809 
L 143.474807 201.826258 
L 143.957385 204.503103 
L 144.439964 196.918706 
L 144.922542 199.595552 
L 145.40512 196.472565 
L 145.887698 195.580282 
L 146.370277 198.257129 
L 146.852855 197.364848 
L 147.335433 197.364847 
L 148.30059 207.626091 
L 148.783168 195.134142 
L 149.265746 196.472565 
L 149.748325 197.364847 
L 150.713481 198.257129 
L 151.19606 202.272398 
L 151.678638 203.610821 
L 152.161216 200.487834 
L 152.643794 200.041693 
L 153.126373 200.041693 
L 153.608951 200.933976 
L 154.091529 202.272398 
L 154.574108 198.703271 
L 155.056686 197.364848 
L 155.539264 198.70327 
L 156.021843 196.472565 
L 156.986999 199.149411 
L 157.469577 200.041694 
L 157.952156 200.041693 
L 158.434734 198.25713 
L 158.917312 201.826258 
L 159.399891 201.380117 
L 159.882469 198.25713 
L 160.365047 198.70327 
L 160.847625 202.272399 
L 161.330204 198.703271 
L 161.812782 197.364847 
L 162.29536 195.580282 
L 162.777939 200.933975 
L 163.260517 200.487836 
L 163.743095 196.026425 
L 164.225673 208.964513 
L 164.708252 199.595553 
L 165.19083 198.703271 
L 165.673408 200.041694 
L 166.155987 199.149412 
L 166.638565 199.595553 
L 167.121143 219.671899 
L 167.603721 198.70327 
L 168.0863 203.164681 
L 168.568878 195.580282 
L 169.051456 200.933976 
L 169.534035 197.364847 
L 170.016613 199.595553 
L 170.499191 204.056962 
L 170.98177 197.364847 
L 171.464348 197.810988 
L 171.946926 203.610822 
L 172.429504 197.810988 
L 172.912083 204.949244 
L 173.394661 204.503104 
L 173.877239 200.487834 
L 174.359818 201.826257 
L 174.842396 200.487834 
L 175.324974 197.810988 
L 175.807552 205.841527 
L 176.290131 199.595553 
L 176.772709 200.487835 
L 177.255287 196.918706 
L 177.737866 201.826257 
L 178.220444 200.933976 
L 179.1856 198.257129 
L 179.668179 198.70327 
L 180.150757 196.026423 
L 180.633335 199.595552 
L 181.115914 196.026423 
L 181.598492 198.257128 
L 182.08107 202.272397 
L 182.563649 200.933975 
L 183.046227 201.826257 
L 183.528805 196.918706 
L 184.011383 200.487834 
L 184.493962 196.026424 
L 184.97654 202.71854 
L 185.941697 196.026424 
L 186.424275 201.380116 
L 186.906853 208.072232 
L 187.389431 198.70327 
L 187.87201 197.810988 
L 188.354588 204.056962 
L 188.837166 196.026424 
L 189.802323 205.841527 
L 190.284901 203.164681 
L 190.767479 197.810988 
L 191.250058 199.149411 
L 192.215214 198.257128 
L 192.697793 207.626089 
L 193.180371 200.487834 
L 193.662949 195.580282 
L 194.145528 198.25713 
L 194.628106 196.472565 
L 195.593262 200.041694 
L 196.075841 197.364847 
L 196.558419 200.933975 
L 197.040997 200.933976 
L 197.523576 196.472564 
L 198.006154 202.272399 
L 198.488732 200.933975 
L 198.97131 204.949245 
L 199.453889 204.949246 
L 199.936467 202.71854 
L 200.419045 203.16468 
L 200.901624 199.595553 
L 201.384202 200.041693 
L 202.349358 195.134142 
L 202.831937 198.70327 
L 203.314515 196.918706 
L 203.797093 196.918705 
L 204.279672 200.933975 
L 204.76225 201.380116 
L 205.244828 200.487835 
L 205.727407 198.703271 
L 206.209985 194.688 
L 206.692563 199.595553 
L 207.175141 196.472565 
L 207.65772 197.364847 
L 208.140298 196.026424 
L 208.622876 202.272397 
L 209.105455 216.548911 
L 209.105455 216.548911 
" style="fill:none;stroke:#1f77b4;stroke-linecap:square;stroke-width:1.5;"/>
   </g>
   <g id="patch_13">
    <path d="M 57.6 307.584 
L 57.6 189.312 
" style="fill:none;stroke:#000000;stroke-linecap:square;stroke-linejoin:miter;stroke-width:0.8;"/>
   </g>
   <g id="patch_14">
    <path d="M 216.32 307.584 
L 216.32 189.312 
" style="fill:none;stroke:#000000;stroke-linecap:square;stroke-linejoin:miter;stroke-width:0.8;"/>
   </g>
   <g id="patch_15">
    <path d="M 57.6 307.584 
L 216.32 307.584 
" style="fill:none;stroke:#000000;stroke-linecap:square;stroke-linejoin:miter;stroke-width:0.8;"/>
   </g>
   <g id="patch_16">
    <path d="M 57.6 189.312 
L 216.32 189.312 
" style="fill:none;stroke:#000000;stroke-linecap:square;stroke-linejoin:miter;stroke-width:0.8;"/>
   </g>
   <g id="text_28">
    <!-- val_acc -->
    <defs>
     <path d="M 2.984375 54.6875 
L 12.5 54.6875 
L 29.59375 8.796875 
L 46.6875 54.6875 
L 56.203125 54.6875 
L 35.6875 0 
L 23.484375 0 
z
" id="DejaVuSans-76"/>
     <path d="M 50.984375 -16.609375 
L 50.984375 -23.578125 
L -0.984375 -23.578125 
L -0.984375 -16.609375 
z
" id="DejaVuSans-5f"/>
    </defs>
    <g transform="translate(114.79 183.312)scale(0.12 -0.12)">
     <use xlink:href="#DejaVuSans-76"/>
     <use x="59.179688" xlink:href="#DejaVuSans-61"/>
     <use x="120.458984" xlink:href="#DejaVuSans-6c"/>
     <use x="148.242188" xlink:href="#DejaVuSans-5f"/>
     <use x="198.242188" xlink:href="#DejaVuSans-61"/>
     <use x="259.521484" xlink:href="#DejaVuSans-63"/>
     <use x="314.501953" xlink:href="#DejaVuSans-63"/>
    </g>
   </g>
  </g>
  <g id="axes_4">
   <g id="patch_17">
    <path d="M 256 307.584 
L 414.72 307.584 
L 414.72 189.312 
L 256 189.312 
z
" style="fill:#ffffff;"/>
   </g>
   <g id="matplotlib.axis_7">
    <g id="xtick_13">
     <g id="line2d_54">
      <path clip-path="url(#pbb8dc0f45b)" d="M 263.214545 307.584 
L 263.214545 189.312 
" style="fill:none;stroke:#b0b0b0;stroke-linecap:square;stroke-width:0.8;"/>
     </g>
     <g id="line2d_55">
      <g>
       <use style="stroke:#000000;stroke-width:0.8;" x="263.214545" xlink:href="#m616da1d86f" y="307.584"/>
      </g>
     </g>
     <g id="text_29">
      <!-- 0 -->
      <g transform="translate(260.033295 322.182437)scale(0.1 -0.1)">
       <use xlink:href="#DejaVuSans-30"/>
      </g>
     </g>
    </g>
    <g id="xtick_14">
     <g id="line2d_56">
      <path clip-path="url(#pbb8dc0f45b)" d="M 311.472375 307.584 
L 311.472375 189.312 
" style="fill:none;stroke:#b0b0b0;stroke-linecap:square;stroke-width:0.8;"/>
     </g>
     <g id="line2d_57">
      <g>
       <use style="stroke:#000000;stroke-width:0.8;" x="311.472375" xlink:href="#m616da1d86f" y="307.584"/>
      </g>
     </g>
     <g id="text_30">
      <!-- 100 -->
      <g transform="translate(301.928625 322.182437)scale(0.1 -0.1)">
       <use xlink:href="#DejaVuSans-31"/>
       <use x="63.623047" xlink:href="#DejaVuSans-30"/>
       <use x="127.246094" xlink:href="#DejaVuSans-30"/>
      </g>
     </g>
    </g>
    <g id="xtick_15">
     <g id="line2d_58">
      <path clip-path="url(#pbb8dc0f45b)" d="M 359.730204 307.584 
L 359.730204 189.312 
" style="fill:none;stroke:#b0b0b0;stroke-linecap:square;stroke-width:0.8;"/>
     </g>
     <g id="line2d_59">
      <g>
       <use style="stroke:#000000;stroke-width:0.8;" x="359.730204" xlink:href="#m616da1d86f" y="307.584"/>
      </g>
     </g>
     <g id="text_31">
      <!-- 200 -->
      <g transform="translate(350.186454 322.182437)scale(0.1 -0.1)">
       <use xlink:href="#DejaVuSans-32"/>
       <use x="63.623047" xlink:href="#DejaVuSans-30"/>
       <use x="127.246094" xlink:href="#DejaVuSans-30"/>
      </g>
     </g>
    </g>
    <g id="xtick_16">
     <g id="line2d_60">
      <path clip-path="url(#pbb8dc0f45b)" d="M 407.988033 307.584 
L 407.988033 189.312 
" style="fill:none;stroke:#b0b0b0;stroke-linecap:square;stroke-width:0.8;"/>
     </g>
     <g id="line2d_61">
      <g>
       <use style="stroke:#000000;stroke-width:0.8;" x="407.988033" xlink:href="#m616da1d86f" y="307.584"/>
      </g>
     </g>
     <g id="text_32">
      <!-- 300 -->
      <g transform="translate(398.444283 322.182437)scale(0.1 -0.1)">
       <use xlink:href="#DejaVuSans-33"/>
       <use x="63.623047" xlink:href="#DejaVuSans-30"/>
       <use x="127.246094" xlink:href="#DejaVuSans-30"/>
      </g>
     </g>
    </g>
   </g>
   <g id="matplotlib.axis_8">
    <g id="ytick_14">
     <g id="line2d_62">
      <path clip-path="url(#pbb8dc0f45b)" d="M 256 306.820861 
L 414.72 306.820861 
" style="fill:none;stroke:#b0b0b0;stroke-linecap:square;stroke-width:0.8;"/>
     </g>
     <g id="line2d_63">
      <g>
       <use style="stroke:#000000;stroke-width:0.8;" x="256" xlink:href="#m456c5b2a87" y="306.820861"/>
      </g>
     </g>
     <g id="text_33">
      <!-- 0 -->
      <g transform="translate(242.6375 310.62008)scale(0.1 -0.1)">
       <use xlink:href="#DejaVuSans-30"/>
      </g>
     </g>
    </g>
    <g id="ytick_15">
     <g id="line2d_64">
      <path clip-path="url(#pbb8dc0f45b)" d="M 256 266.144546 
L 414.72 266.144546 
" style="fill:none;stroke:#b0b0b0;stroke-linecap:square;stroke-width:0.8;"/>
     </g>
     <g id="line2d_65">
      <g>
       <use style="stroke:#000000;stroke-width:0.8;" x="256" xlink:href="#m456c5b2a87" y="266.144546"/>
      </g>
     </g>
     <g id="text_34">
      <!-- 2 -->
      <g transform="translate(242.6375 269.943764)scale(0.1 -0.1)">
       <use xlink:href="#DejaVuSans-32"/>
      </g>
     </g>
    </g>
    <g id="ytick_16">
     <g id="line2d_66">
      <path clip-path="url(#pbb8dc0f45b)" d="M 256 225.46823 
L 414.72 225.46823 
" style="fill:none;stroke:#b0b0b0;stroke-linecap:square;stroke-width:0.8;"/>
     </g>
     <g id="line2d_67">
      <g>
       <use style="stroke:#000000;stroke-width:0.8;" x="256" xlink:href="#m456c5b2a87" y="225.46823"/>
      </g>
     </g>
     <g id="text_35">
      <!-- 4 -->
      <g transform="translate(242.6375 229.267449)scale(0.1 -0.1)">
       <use xlink:href="#DejaVuSans-34"/>
      </g>
     </g>
    </g>
   </g>
   <g id="line2d_68">
    <path clip-path="url(#pbb8dc0f45b)" d="M 263.214545 194.688 
L 263.697124 201.197199 
L 264.179702 205.60108 
L 264.66228 216.230498 
L 265.144859 222.736367 
L 265.627437 213.246479 
L 266.110015 230.02551 
L 267.075172 238.713256 
L 267.55775 243.303947 
L 268.040328 242.042729 
L 268.522907 251.28038 
L 269.005485 251.109922 
L 269.488063 255.841514 
L 269.970642 258.052563 
L 270.935798 264.628044 
L 271.418376 256.821076 
L 271.900955 268.097576 
L 272.383533 266.685956 
L 273.34869 273.369482 
L 273.831268 275.118548 
L 274.313846 265.592238 
L 274.796424 277.876071 
L 275.279003 276.02885 
L 275.761581 273.09973 
L 276.244159 280.163009 
L 276.726738 280.688198 
L 277.209316 284.045127 
L 277.691894 281.541304 
L 278.174472 287.291542 
L 278.657051 279.472098 
L 279.139629 286.780554 
L 279.622207 268.104819 
L 280.104786 283.7694 
L 280.587364 290.305899 
L 281.069942 288.212291 
L 281.552521 291.336037 
L 282.035099 291.071942 
L 283.000255 289.156939 
L 283.482834 280.031431 
L 283.965412 291.862259 
L 284.44799 284.025397 
L 284.930569 295.599776 
L 285.413147 295.159402 
L 285.895725 289.690893 
L 286.378303 294.181179 
L 286.860882 295.349717 
L 287.34346 289.06719 
L 287.826038 294.743401 
L 288.308617 294.639384 
L 288.791195 294.686009 
L 289.756351 286.864862 
L 290.23893 295.85832 
L 290.721508 295.05185 
L 291.204086 296.586573 
L 291.686665 290.079686 
L 292.169243 291.738437 
L 292.651821 296.750203 
L 293.1344 295.652654 
L 293.616978 297.830477 
L 294.099556 296.158993 
L 294.582134 297.578609 
L 295.064713 296.1445 
L 295.547291 299.102466 
L 296.029869 298.885137 
L 296.512448 296.355092 
L 296.995026 298.516322 
L 297.477604 296.040167 
L 297.960182 297.238608 
L 298.442761 296.589735 
L 298.925339 299.750085 
L 299.407917 299.122392 
L 299.890496 294.566672 
L 300.373074 296.756746 
L 300.855652 299.591874 
L 301.33823 297.286616 
L 301.820809 298.041905 
L 302.303387 298.046821 
L 302.785965 299.907621 
L 303.268544 292.318598 
L 303.751122 301.022042 
L 304.2337 300.738128 
L 304.716279 287.925997 
L 305.198857 294.561779 
L 305.681435 299.516825 
L 306.164013 297.910841 
L 306.646592 300.342682 
L 307.12917 299.701151 
L 307.611748 299.927262 
L 308.094327 298.795867 
L 308.576905 299.501398 
L 309.059483 299.251774 
L 309.542061 297.306315 
L 310.02464 299.395628 
L 310.507218 299.35002 
L 310.989796 295.887252 
L 311.472375 298.99139 
L 311.954953 297.092069 
L 312.437531 298.752258 
L 312.920109 298.596432 
L 313.885266 298.928714 
L 314.367844 300.812784 
L 314.850423 297.024315 
L 315.815579 294.593647 
L 316.298157 301.62207 
L 316.780736 300.932493 
L 317.263314 299.91903 
L 318.228471 295.807167 
L 318.711049 298.235815 
L 319.193627 299.185361 
L 319.676206 298.339911 
L 320.158784 294.41011 
L 320.641362 297.541138 
L 321.12394 298.302316 
L 321.606519 296.000499 
L 322.089097 296.675784 
L 322.571675 289.705762 
L 323.054254 296.928915 
L 323.536832 300.904964 
L 324.01941 297.418706 
L 324.501988 301.163972 
L 324.984567 299.168389 
L 325.467145 295.97357 
L 325.949723 298.047206 
L 326.432302 299.263013 
L 326.91488 299.019921 
L 327.397458 299.644608 
L 327.880036 300.065876 
L 328.362615 298.646872 
L 328.845193 301.087629 
L 329.81035 298.33311 
L 330.292928 297.910588 
L 330.775506 300.777948 
L 331.258085 301.230197 
L 331.740663 301.06598 
L 332.223241 299.76255 
L 332.705819 288.584353 
L 333.188398 300.39051 
L 333.670976 297.876091 
L 334.153554 297.979201 
L 334.636133 297.460768 
L 335.118711 296.363515 
L 336.083867 298.514033 
L 336.566446 297.045729 
L 338.014181 300.596177 
L 338.496759 298.531646 
L 338.979337 297.666946 
L 339.461915 300.685952 
L 339.944494 298.620235 
L 340.427072 297.89016 
L 340.90965 298.360657 
L 341.392229 293.1815 
L 341.874807 298.032989 
L 342.357385 294.385776 
L 342.839964 301.692566 
L 343.322542 299.079458 
L 343.80512 300.960152 
L 344.287698 300.075195 
L 344.770277 300.217392 
L 345.252855 299.642004 
L 345.735433 297.746403 
L 346.218012 293.059214 
L 346.70059 289.574172 
L 347.183168 302.208 
L 347.665746 301.844655 
L 348.148325 299.771051 
L 348.630903 299.585098 
L 349.113481 299.553259 
L 349.59606 294.286671 
L 350.078638 293.953699 
L 350.561216 298.122898 
L 351.043794 296.491778 
L 351.526373 295.854728 
L 352.008951 297.16578 
L 352.491529 295.288554 
L 353.456686 300.37371 
L 353.939264 297.266732 
L 354.421843 299.79712 
L 354.904421 298.6886 
L 355.386999 296.251615 
L 355.869577 299.221597 
L 356.352156 297.962424 
L 356.834734 298.034614 
L 357.317312 299.035128 
L 357.799891 294.769741 
L 358.282469 297.599915 
L 358.765047 299.313738 
L 359.247625 292.81505 
L 359.730204 300.112281 
L 360.212782 300.682951 
L 360.69536 300.15108 
L 361.177939 295.276926 
L 362.143095 300.978258 
L 362.625673 288.033966 
L 363.108252 301.53649 
L 363.59083 299.274123 
L 364.073408 298.900239 
L 364.555987 297.871921 
L 365.038565 295.889649 
L 365.521143 271.424619 
L 366.003721 299.663345 
L 366.4863 293.732642 
L 366.968878 301.571467 
L 367.451456 297.242597 
L 367.934035 300.442694 
L 368.416613 297.712278 
L 368.899191 289.300713 
L 369.38177 299.453794 
L 369.864348 299.809627 
L 370.346926 292.074857 
L 370.829504 297.756367 
L 371.312083 287.456917 
L 371.794661 291.255338 
L 372.277239 296.515086 
L 372.759818 293.890117 
L 373.242396 294.317873 
L 373.724974 298.0898 
L 374.207552 292.530273 
L 374.690131 297.233331 
L 375.172709 295.551365 
L 375.655287 298.743673 
L 376.137866 290.056105 
L 376.620444 295.63425 
L 377.103022 295.971014 
L 377.5856 298.08182 
L 378.068179 294.255984 
L 378.550757 298.489426 
L 379.033335 297.056314 
L 379.515914 298.913445 
L 380.48107 293.072813 
L 380.963649 294.357433 
L 381.446227 291.35641 
L 381.928805 299.786769 
L 382.411383 295.111346 
L 382.893962 300.08914 
L 383.37654 290.300049 
L 383.859118 296.172342 
L 384.341697 297.687065 
L 384.824275 294.298129 
L 385.306853 285.347809 
L 385.789431 296.642961 
L 386.27201 298.401385 
L 386.754588 291.447588 
L 387.237166 296.286614 
L 388.202323 286.68956 
L 388.684901 293.700328 
L 389.167479 296.23938 
L 389.650058 295.394034 
L 390.132636 294.046721 
L 390.615214 297.599812 
L 391.097793 276.598241 
L 391.580371 295.341927 
L 392.062949 299.54946 
L 392.545528 293.702618 
L 393.028106 296.704387 
L 393.510684 295.970639 
L 393.993262 289.946447 
L 394.475841 297.061159 
L 394.958419 290.00948 
L 395.440997 297.586619 
L 395.923576 299.246993 
L 396.406154 288.712935 
L 396.888732 289.131009 
L 397.37131 289.896586 
L 398.336467 284.845417 
L 399.301624 295.042333 
L 399.784202 293.380497 
L 400.26678 295.374043 
L 400.749358 299.291214 
L 401.231937 295.444386 
L 401.714515 296.715454 
L 402.197093 299.411491 
L 402.679672 292.044233 
L 403.16225 294.944154 
L 403.644828 294.156725 
L 404.609985 298.486178 
L 405.092563 295.02014 
L 405.575141 297.087317 
L 406.05772 294.713374 
L 406.540298 297.859562 
L 407.022876 287.454886 
L 407.505455 249.270543 
L 407.505455 249.270543 
" style="fill:none;stroke:#1f77b4;stroke-linecap:square;stroke-width:1.5;"/>
   </g>
   <g id="patch_18">
    <path d="M 256 307.584 
L 256 189.312 
" style="fill:none;stroke:#000000;stroke-linecap:square;stroke-linejoin:miter;stroke-width:0.8;"/>
   </g>
   <g id="patch_19">
    <path d="M 414.72 307.584 
L 414.72 189.312 
" style="fill:none;stroke:#000000;stroke-linecap:square;stroke-linejoin:miter;stroke-width:0.8;"/>
   </g>
   <g id="patch_20">
    <path d="M 256 307.584 
L 414.72 307.584 
" style="fill:none;stroke:#000000;stroke-linecap:square;stroke-linejoin:miter;stroke-width:0.8;"/>
   </g>
   <g id="patch_21">
    <path d="M 256 189.312 
L 414.72 189.312 
" style="fill:none;stroke:#000000;stroke-linecap:square;stroke-linejoin:miter;stroke-width:0.8;"/>
   </g>
   <g id="text_36">
    <!-- val_loss -->
    <g transform="translate(311.875625 183.312)scale(0.12 -0.12)">
     <use xlink:href="#DejaVuSans-76"/>
     <use x="59.179688" xlink:href="#DejaVuSans-61"/>
     <use x="120.458984" xlink:href="#DejaVuSans-6c"/>
     <use x="148.242188" xlink:href="#DejaVuSans-5f"/>
     <use x="198.242188" xlink:href="#DejaVuSans-6c"/>
     <use x="226.025391" xlink:href="#DejaVuSans-6f"/>
     <use x="287.207031" xlink:href="#DejaVuSans-73"/>
     <use x="339.306641" xlink:href="#DejaVuSans-73"/>
    </g>
   </g>
  </g>
  <g id="text_37">
   <!-- model4 20171023_155408 -->
   <defs>
    <path d="M 52 44.1875 
Q 55.375 50.25 60.0625 53.125 
Q 64.75 56 71.09375 56 
Q 79.640625 56 84.28125 50.015625 
Q 88.921875 44.046875 88.921875 33.015625 
L 88.921875 0 
L 79.890625 0 
L 79.890625 32.71875 
Q 79.890625 40.578125 77.09375 44.375 
Q 74.3125 48.1875 68.609375 48.1875 
Q 61.625 48.1875 57.5625 43.546875 
Q 53.515625 38.921875 53.515625 30.90625 
L 53.515625 0 
L 44.484375 0 
L 44.484375 32.71875 
Q 44.484375 40.625 41.703125 44.40625 
Q 38.921875 48.1875 33.109375 48.1875 
Q 26.21875 48.1875 22.15625 43.53125 
Q 18.109375 38.875 18.109375 30.90625 
L 18.109375 0 
L 9.078125 0 
L 9.078125 54.6875 
L 18.109375 54.6875 
L 18.109375 46.1875 
Q 21.1875 51.21875 25.484375 53.609375 
Q 29.78125 56 35.6875 56 
Q 41.65625 56 45.828125 52.96875 
Q 50 49.953125 52 44.1875 
z
" id="DejaVuSans-6d"/>
    <path d="M 45.40625 46.390625 
L 45.40625 75.984375 
L 54.390625 75.984375 
L 54.390625 0 
L 45.40625 0 
L 45.40625 8.203125 
Q 42.578125 3.328125 38.25 0.953125 
Q 33.9375 -1.421875 27.875 -1.421875 
Q 17.96875 -1.421875 11.734375 6.484375 
Q 5.515625 14.40625 5.515625 27.296875 
Q 5.515625 40.1875 11.734375 48.09375 
Q 17.96875 56 27.875 56 
Q 33.9375 56 38.25 53.625 
Q 42.578125 51.265625 45.40625 46.390625 
z
M 14.796875 27.296875 
Q 14.796875 17.390625 18.875 11.75 
Q 22.953125 6.109375 30.078125 6.109375 
Q 37.203125 6.109375 41.296875 11.75 
Q 45.40625 17.390625 45.40625 27.296875 
Q 45.40625 37.203125 41.296875 42.84375 
Q 37.203125 48.484375 30.078125 48.484375 
Q 22.953125 48.484375 18.875 42.84375 
Q 14.796875 37.203125 14.796875 27.296875 
z
" id="DejaVuSans-64"/>
    <path d="M 56.203125 29.59375 
L 56.203125 25.203125 
L 14.890625 25.203125 
Q 15.484375 15.921875 20.484375 11.0625 
Q 25.484375 6.203125 34.421875 6.203125 
Q 39.59375 6.203125 44.453125 7.46875 
Q 49.3125 8.734375 54.109375 11.28125 
L 54.109375 2.78125 
Q 49.265625 0.734375 44.1875 -0.34375 
Q 39.109375 -1.421875 33.890625 -1.421875 
Q 20.796875 -1.421875 13.15625 6.1875 
Q 5.515625 13.8125 5.515625 26.8125 
Q 5.515625 40.234375 12.765625 48.109375 
Q 20.015625 56 32.328125 56 
Q 43.359375 56 49.78125 48.890625 
Q 56.203125 41.796875 56.203125 29.59375 
z
M 47.21875 32.234375 
Q 47.125 39.59375 43.09375 43.984375 
Q 39.0625 48.390625 32.421875 48.390625 
Q 24.90625 48.390625 20.390625 44.140625 
Q 15.875 39.890625 15.1875 32.171875 
z
" id="DejaVuSans-65"/>
    <path id="DejaVuSans-20"/>
    <path d="M 31.78125 34.625 
Q 24.75 34.625 20.71875 30.859375 
Q 16.703125 27.09375 16.703125 20.515625 
Q 16.703125 13.921875 20.71875 10.15625 
Q 24.75 6.390625 31.78125 6.390625 
Q 38.8125 6.390625 42.859375 10.171875 
Q 46.921875 13.96875 46.921875 20.515625 
Q 46.921875 27.09375 42.890625 30.859375 
Q 38.875 34.625 31.78125 34.625 
z
M 21.921875 38.8125 
Q 15.578125 40.375 12.03125 44.71875 
Q 8.5 49.078125 8.5 55.328125 
Q 8.5 64.0625 14.71875 69.140625 
Q 20.953125 74.21875 31.78125 74.21875 
Q 42.671875 74.21875 48.875 69.140625 
Q 55.078125 64.0625 55.078125 55.328125 
Q 55.078125 49.078125 51.53125 44.71875 
Q 48 40.375 41.703125 38.8125 
Q 48.828125 37.15625 52.796875 32.3125 
Q 56.78125 27.484375 56.78125 20.515625 
Q 56.78125 9.90625 50.3125 4.234375 
Q 43.84375 -1.421875 31.78125 -1.421875 
Q 19.734375 -1.421875 13.25 4.234375 
Q 6.78125 9.90625 6.78125 20.515625 
Q 6.78125 27.484375 10.78125 32.3125 
Q 14.796875 37.15625 21.921875 38.8125 
z
M 18.3125 54.390625 
Q 18.3125 48.734375 21.84375 45.5625 
Q 25.390625 42.390625 31.78125 42.390625 
Q 38.140625 42.390625 41.71875 45.5625 
Q 45.3125 48.734375 45.3125 54.390625 
Q 45.3125 60.0625 41.71875 63.234375 
Q 38.140625 66.40625 31.78125 66.40625 
Q 25.390625 66.40625 21.84375 63.234375 
Q 18.3125 60.0625 18.3125 54.390625 
z
" id="DejaVuSans-38"/>
   </defs>
   <g transform="translate(149.547188 16.030125)scale(0.12 -0.12)">
    <use xlink:href="#DejaVuSans-6d"/>
    <use x="97.412109" xlink:href="#DejaVuSans-6f"/>
    <use x="158.59375" xlink:href="#DejaVuSans-64"/>
    <use x="222.070312" xlink:href="#DejaVuSans-65"/>
    <use x="283.59375" xlink:href="#DejaVuSans-6c"/>
    <use x="311.376953" xlink:href="#DejaVuSans-34"/>
    <use x="375" xlink:href="#DejaVuSans-20"/>
    <use x="406.787109" xlink:href="#DejaVuSans-32"/>
    <use x="470.410156" xlink:href="#DejaVuSans-30"/>
    <use x="534.033203" xlink:href="#DejaVuSans-31"/>
    <use x="597.65625" xlink:href="#DejaVuSans-37"/>
    <use x="661.279297" xlink:href="#DejaVuSans-31"/>
    <use x="724.902344" xlink:href="#DejaVuSans-30"/>
    <use x="788.525391" xlink:href="#DejaVuSans-32"/>
    <use x="852.148438" xlink:href="#DejaVuSans-33"/>
    <use x="915.771484" xlink:href="#DejaVuSans-5f"/>
    <use x="965.771484" xlink:href="#DejaVuSans-31"/>
    <use x="1029.394531" xlink:href="#DejaVuSans-35"/>
    <use x="1093.017578" xlink:href="#DejaVuSans-35"/>
    <use x="1156.640625" xlink:href="#DejaVuSans-34"/>
    <use x="1220.263672" xlink:href="#DejaVuSans-30"/>
    <use x="1283.886719" xlink:href="#DejaVuSans-38"/>
   </g>
  </g>
 </g>
 <defs>
  <clipPath id="p0b3192fbd3">
   <rect height="118.272" width="158.72" x="57.6" y="41.472"/>
  </clipPath>
  <clipPath id="p0c68418960">
   <rect height="118.272" width="158.72" x="256" y="41.472"/>
  </clipPath>
  <clipPath id="pb3de63e88a">
   <rect height="118.272" width="158.72" x="57.6" y="189.312"/>
  </clipPath>
  <clipPath id="pbb8dc0f45b">
   <rect height="118.272" width="158.72" x="256" y="189.312"/>
  </clipPath>
 </defs>
</svg>
