<?xml version="1.0" encoding="utf-8" standalone="no"?>
<!DOCTYPE svg PUBLIC "-//W3C//DTD SVG 1.1//EN"
  "http://www.w3.org/Graphics/SVG/1.1/DTD/svg11.dtd">
<!-- Created with matplotlib (http://matplotlib.org/) -->
<svg height="345pt" version="1.1" viewBox="0 0 460 345" width="460pt" xmlns="http://www.w3.org/2000/svg" xmlns:xlink="http://www.w3.org/1999/xlink">
 <defs>
  <style type="text/css">
*{stroke-linecap:butt;stroke-linejoin:round;}
  </style>
 </defs>
 <g id="figure_1">
  <g id="patch_1">
   <path d="M 0 345.6 
L 460.8 345.6 
L 460.8 0 
L 0 0 
z
" style="fill:#ffffff;"/>
  </g>
  <g id="axes_1">
   <g id="patch_2">
    <path d="M 57.6 159.744 
L 216.32 159.744 
L 216.32 41.472 
L 57.6 41.472 
z
" style="fill:#ffffff;"/>
   </g>
   <g id="matplotlib.axis_1">
    <g id="xtick_1">
     <g id="line2d_1">
      <path clip-path="url(#p0a16c536ad)" d="M 64.814545 159.744 
L 64.814545 41.472 
" style="fill:none;stroke:#b0b0b0;stroke-linecap:square;stroke-width:0.8;"/>
     </g>
     <g id="line2d_2">
      <defs>
       <path d="M 0 0 
L 0 3.5 
" id="m00c28aa78d" style="stroke:#000000;stroke-width:0.8;"/>
      </defs>
      <g>
       <use style="stroke:#000000;stroke-width:0.8;" x="64.814545" xlink:href="#m00c28aa78d" y="159.744"/>
      </g>
     </g>
     <g id="text_1">
      <!-- 0 -->
      <defs>
       <path d="M 31.78125 66.40625 
Q 24.171875 66.40625 20.328125 58.90625 
Q 16.5 51.421875 16.5 36.375 
Q 16.5 21.390625 20.328125 13.890625 
Q 24.171875 6.390625 31.78125 6.390625 
Q 39.453125 6.390625 43.28125 13.890625 
Q 47.125 21.390625 47.125 36.375 
Q 47.125 51.421875 43.28125 58.90625 
Q 39.453125 66.40625 31.78125 66.40625 
z
M 31.78125 74.21875 
Q 44.046875 74.21875 50.515625 64.515625 
Q 56.984375 54.828125 56.984375 36.375 
Q 56.984375 17.96875 50.515625 8.265625 
Q 44.046875 -1.421875 31.78125 -1.421875 
Q 19.53125 -1.421875 13.0625 8.265625 
Q 6.59375 17.96875 6.59375 36.375 
Q 6.59375 54.828125 13.0625 64.515625 
Q 19.53125 74.21875 31.78125 74.21875 
z
" id="DejaVuSans-30"/>
      </defs>
      <g transform="translate(61.633295 174.342437)scale(0.1 -0.1)">
       <use xlink:href="#DejaVuSans-30"/>
      </g>
     </g>
    </g>
    <g id="xtick_2">
     <g id="line2d_3">
      <path clip-path="url(#p0a16c536ad)" d="M 113.072375 159.744 
L 113.072375 41.472 
" style="fill:none;stroke:#b0b0b0;stroke-linecap:square;stroke-width:0.8;"/>
     </g>
     <g id="line2d_4">
      <g>
       <use style="stroke:#000000;stroke-width:0.8;" x="113.072375" xlink:href="#m00c28aa78d" y="159.744"/>
      </g>
     </g>
     <g id="text_2">
      <!-- 100 -->
      <defs>
       <path d="M 12.40625 8.296875 
L 28.515625 8.296875 
L 28.515625 63.921875 
L 10.984375 60.40625 
L 10.984375 69.390625 
L 28.421875 72.90625 
L 38.28125 72.90625 
L 38.28125 8.296875 
L 54.390625 8.296875 
L 54.390625 0 
L 12.40625 0 
z
" id="DejaVuSans-31"/>
      </defs>
      <g transform="translate(103.528625 174.342437)scale(0.1 -0.1)">
       <use xlink:href="#DejaVuSans-31"/>
       <use x="63.623047" xlink:href="#DejaVuSans-30"/>
       <use x="127.246094" xlink:href="#DejaVuSans-30"/>
      </g>
     </g>
    </g>
    <g id="xtick_3">
     <g id="line2d_5">
      <path clip-path="url(#p0a16c536ad)" d="M 161.330204 159.744 
L 161.330204 41.472 
" style="fill:none;stroke:#b0b0b0;stroke-linecap:square;stroke-width:0.8;"/>
     </g>
     <g id="line2d_6">
      <g>
       <use style="stroke:#000000;stroke-width:0.8;" x="161.330204" xlink:href="#m00c28aa78d" y="159.744"/>
      </g>
     </g>
     <g id="text_3">
      <!-- 200 -->
      <defs>
       <path d="M 19.1875 8.296875 
L 53.609375 8.296875 
L 53.609375 0 
L 7.328125 0 
L 7.328125 8.296875 
Q 12.9375 14.109375 22.625 23.890625 
Q 32.328125 33.6875 34.8125 36.53125 
Q 39.546875 41.84375 41.421875 45.53125 
Q 43.3125 49.21875 43.3125 52.78125 
Q 43.3125 58.59375 39.234375 62.25 
Q 35.15625 65.921875 28.609375 65.921875 
Q 23.96875 65.921875 18.8125 64.3125 
Q 13.671875 62.703125 7.8125 59.421875 
L 7.8125 69.390625 
Q 13.765625 71.78125 18.9375 73 
Q 24.125 74.21875 28.421875 74.21875 
Q 39.75 74.21875 46.484375 68.546875 
Q 53.21875 62.890625 53.21875 53.421875 
Q 53.21875 48.921875 51.53125 44.890625 
Q 49.859375 40.875 45.40625 35.40625 
Q 44.1875 33.984375 37.640625 27.21875 
Q 31.109375 20.453125 19.1875 8.296875 
z
" id="DejaVuSans-32"/>
      </defs>
      <g transform="translate(151.786454 174.342437)scale(0.1 -0.1)">
       <use xlink:href="#DejaVuSans-32"/>
       <use x="63.623047" xlink:href="#DejaVuSans-30"/>
       <use x="127.246094" xlink:href="#DejaVuSans-30"/>
      </g>
     </g>
    </g>
    <g id="xtick_4">
     <g id="line2d_7">
      <path clip-path="url(#p0a16c536ad)" d="M 209.588033 159.744 
L 209.588033 41.472 
" style="fill:none;stroke:#b0b0b0;stroke-linecap:square;stroke-width:0.8;"/>
     </g>
     <g id="line2d_8">
      <g>
       <use style="stroke:#000000;stroke-width:0.8;" x="209.588033" xlink:href="#m00c28aa78d" y="159.744"/>
      </g>
     </g>
     <g id="text_4">
      <!-- 300 -->
      <defs>
       <path d="M 40.578125 39.3125 
Q 47.65625 37.796875 51.625 33 
Q 55.609375 28.21875 55.609375 21.1875 
Q 55.609375 10.40625 48.1875 4.484375 
Q 40.765625 -1.421875 27.09375 -1.421875 
Q 22.515625 -1.421875 17.65625 -0.515625 
Q 12.796875 0.390625 7.625 2.203125 
L 7.625 11.71875 
Q 11.71875 9.328125 16.59375 8.109375 
Q 21.484375 6.890625 26.8125 6.890625 
Q 36.078125 6.890625 40.9375 10.546875 
Q 45.796875 14.203125 45.796875 21.1875 
Q 45.796875 27.640625 41.28125 31.265625 
Q 36.765625 34.90625 28.71875 34.90625 
L 20.21875 34.90625 
L 20.21875 43.015625 
L 29.109375 43.015625 
Q 36.375 43.015625 40.234375 45.921875 
Q 44.09375 48.828125 44.09375 54.296875 
Q 44.09375 59.90625 40.109375 62.90625 
Q 36.140625 65.921875 28.71875 65.921875 
Q 24.65625 65.921875 20.015625 65.03125 
Q 15.375 64.15625 9.8125 62.3125 
L 9.8125 71.09375 
Q 15.4375 72.65625 20.34375 73.4375 
Q 25.25 74.21875 29.59375 74.21875 
Q 40.828125 74.21875 47.359375 69.109375 
Q 53.90625 64.015625 53.90625 55.328125 
Q 53.90625 49.265625 50.4375 45.09375 
Q 46.96875 40.921875 40.578125 39.3125 
z
" id="DejaVuSans-33"/>
      </defs>
      <g transform="translate(200.044283 174.342437)scale(0.1 -0.1)">
       <use xlink:href="#DejaVuSans-33"/>
       <use x="63.623047" xlink:href="#DejaVuSans-30"/>
       <use x="127.246094" xlink:href="#DejaVuSans-30"/>
      </g>
     </g>
    </g>
   </g>
   <g id="matplotlib.axis_2">
    <g id="ytick_1">
     <g id="line2d_9">
      <path clip-path="url(#p0a16c536ad)" d="M 57.6 156.01436 
L 216.32 156.01436 
" style="fill:none;stroke:#b0b0b0;stroke-linecap:square;stroke-width:0.8;"/>
     </g>
     <g id="line2d_10">
      <defs>
       <path d="M 0 0 
L -3.5 0 
" id="m278fb984d6" style="stroke:#000000;stroke-width:0.8;"/>
      </defs>
      <g>
       <use style="stroke:#000000;stroke-width:0.8;" x="57.6" xlink:href="#m278fb984d6" y="156.01436"/>
      </g>
     </g>
     <g id="text_5">
      <!-- 0.0 -->
      <defs>
       <path d="M 10.6875 12.40625 
L 21 12.40625 
L 21 0 
L 10.6875 0 
z
" id="DejaVuSans-2e"/>
      </defs>
      <g transform="translate(34.696875 159.813579)scale(0.1 -0.1)">
       <use xlink:href="#DejaVuSans-30"/>
       <use x="63.623047" xlink:href="#DejaVuSans-2e"/>
       <use x="95.410156" xlink:href="#DejaVuSans-30"/>
      </g>
     </g>
    </g>
    <g id="ytick_2">
     <g id="line2d_11">
      <path clip-path="url(#p0a16c536ad)" d="M 57.6 117.109598 
L 216.32 117.109598 
" style="fill:none;stroke:#b0b0b0;stroke-linecap:square;stroke-width:0.8;"/>
     </g>
     <g id="line2d_12">
      <g>
       <use style="stroke:#000000;stroke-width:0.8;" x="57.6" xlink:href="#m278fb984d6" y="117.109598"/>
      </g>
     </g>
     <g id="text_6">
      <!-- 0.1 -->
      <g transform="translate(34.696875 120.908817)scale(0.1 -0.1)">
       <use xlink:href="#DejaVuSans-30"/>
       <use x="63.623047" xlink:href="#DejaVuSans-2e"/>
       <use x="95.410156" xlink:href="#DejaVuSans-31"/>
      </g>
     </g>
    </g>
    <g id="ytick_3">
     <g id="line2d_13">
      <path clip-path="url(#p0a16c536ad)" d="M 57.6 78.204835 
L 216.32 78.204835 
" style="fill:none;stroke:#b0b0b0;stroke-linecap:square;stroke-width:0.8;"/>
     </g>
     <g id="line2d_14">
      <g>
       <use style="stroke:#000000;stroke-width:0.8;" x="57.6" xlink:href="#m278fb984d6" y="78.204835"/>
      </g>
     </g>
     <g id="text_7">
      <!-- 0.2 -->
      <g transform="translate(34.696875 82.004054)scale(0.1 -0.1)">
       <use xlink:href="#DejaVuSans-30"/>
       <use x="63.623047" xlink:href="#DejaVuSans-2e"/>
       <use x="95.410156" xlink:href="#DejaVuSans-32"/>
      </g>
     </g>
    </g>
   </g>
   <g id="line2d_15">
    <path clip-path="url(#p0a16c536ad)" d="M 64.814545 154.368 
L 65.297124 154.114714 
L 65.779702 153.101569 
L 66.26228 153.228212 
L 66.744859 151.961781 
L 67.227437 151.581852 
L 67.710015 149.808848 
L 68.192593 151.201922 
L 69.640328 149.682205 
L 70.122907 150.188777 
L 70.605485 149.555562 
L 71.088063 149.302276 
L 71.570642 148.795703 
L 72.05322 147.402629 
L 72.535798 148.162488 
L 73.018376 147.655915 
L 73.500955 148.035845 
L 73.983533 147.402629 
L 74.94869 145.629625 
L 75.431268 144.99641 
L 75.913846 146.009555 
L 76.396424 143.476693 
L 76.879003 145.249696 
L 77.361581 146.136198 
L 77.844159 144.616481 
L 78.326738 143.856622 
L 79.291894 142.97012 
L 79.774472 141.703689 
L 80.257051 141.070474 
L 80.739629 139.550756 
L 81.222207 141.070473 
L 81.704786 141.450403 
L 82.187364 139.677399 
L 82.669942 139.550756 
L 83.635099 140.437258 
L 84.117677 139.550756 
L 84.600255 139.804042 
L 85.082834 137.397823 
L 85.565412 138.031039 
L 86.530569 135.24489 
L 87.013147 137.017894 
L 87.495725 136.004749 
L 87.978303 138.917541 
L 88.460882 134.738318 
L 88.94346 134.231746 
L 89.426038 135.118247 
L 89.908617 133.091958 
L 90.391195 135.371534 
L 90.873773 133.725173 
L 91.356351 133.59853 
L 91.83893 133.978459 
L 92.321508 132.712028 
L 92.804086 133.345244 
L 93.286665 133.345244 
L 93.769243 131.698883 
L 94.7344 132.332099 
L 95.699556 130.559095 
L 96.182134 129.292664 
L 96.664713 130.179166 
L 97.147291 127.89959 
L 98.112448 130.432452 
L 98.595026 128.279519 
L 99.077604 127.139731 
L 99.560182 127.772947 
L 100.042761 128.659449 
L 100.525339 126.379873 
L 101.007917 128.532806 
L 101.490496 126.633159 
L 101.973074 125.240085 
L 102.455652 125.113442 
L 102.93823 128.152876 
L 103.903387 121.187505 
L 104.385965 125.620014 
L 104.868544 122.453936 
L 105.351122 123.213795 
L 106.316279 119.794431 
L 106.798857 120.55429 
L 107.281435 119.161215 
L 107.764013 120.934219 
L 108.246592 121.820721 
L 108.72917 122.327293 
L 109.211748 119.921074 
L 109.694327 120.17436 
L 110.176905 119.794431 
L 110.659483 114.602064 
L 111.142061 119.541145 
L 111.62464 115.741852 
L 112.107218 114.981993 
L 112.589796 115.235279 
L 113.072375 117.641498 
L 113.554953 115.361922 
L 114.037531 117.134926 
L 114.520109 115.235279 
L 115.002688 116.248424 
L 115.485266 113.082346 
L 115.967844 112.82906 
L 116.450423 113.335633 
L 116.933001 114.85535 
L 117.415579 113.082346 
L 117.898157 112.195844 
L 118.380736 110.80277 
L 118.863314 110.676127 
L 119.345892 110.296198 
L 119.828471 113.462276 
L 120.311049 107.256763 
L 120.793627 109.662982 
L 121.276206 108.143265 
L 121.758784 108.903124 
L 122.241362 110.422841 
L 122.72394 107.003477 
L 123.206519 110.042912 
L 124.171675 106.876834 
L 124.654254 107.383406 
L 125.136832 108.523194 
L 125.61941 107.510049 
L 126.101988 108.649837 
L 126.584567 102.064396 
L 127.067145 102.950897 
L 127.549723 106.876834 
L 128.032302 103.204184 
L 128.51488 103.45747 
L 128.997458 104.217328 
L 129.480036 104.470615 
L 129.962615 102.570968 
L 130.927771 101.81111 
L 131.41035 102.064396 
L 131.892928 99.024961 
L 132.375506 100.544678 
L 132.858085 101.051251 
L 133.340663 99.78482 
L 133.823241 99.024961 
L 134.305819 99.151604 
L 134.788398 99.024961 
L 135.270976 99.40489 
L 135.753554 97.885173 
L 136.236133 93.452664 
L 136.718711 95.858883 
L 137.201289 99.151604 
L 137.683867 95.478954 
L 138.166446 94.212523 
L 138.649024 97.885173 
L 139.131602 94.339166 
L 139.614181 93.199378 
L 140.096759 93.832593 
L 140.579337 93.705951 
L 141.061915 92.566162 
L 141.544494 92.05959 
L 142.027072 93.832594 
L 142.50965 91.299731 
L 142.992229 91.299731 
L 143.474807 92.439519 
L 143.957385 90.159943 
L 144.439964 90.666516 
L 144.922542 89.526728 
L 145.40512 91.67966 
L 146.370277 90.286586 
L 146.852855 88.640226 
L 147.335433 91.173088 
L 147.818012 89.273442 
L 148.30059 86.867223 
L 148.783168 89.653371 
L 149.748325 84.461003 
L 150.230903 84.714289 
L 150.713481 88.260296 
L 151.19606 84.967576 
L 151.678638 87.120509 
L 152.161216 82.181427 
L 152.643794 84.081074 
L 153.126373 82.561356 
L 153.608951 84.71429 
L 154.091529 88.893512 
L 154.574108 80.788353 
L 155.056686 81.674855 
L 155.539264 79.268636 
L 156.021843 81.168282 
L 156.504421 81.421569 
L 156.986999 81.294926 
L 157.469577 80.155138 
L 157.952156 81.674855 
L 158.434734 76.355844 
L 158.917312 81.041639 
L 159.399891 80.914996 
L 159.882469 79.141993 
L 160.365047 82.941286 
L 160.847625 80.028494 
L 161.330204 78.255491 
L 161.812782 79.901851 
L 162.29536 75.469343 
L 162.777939 76.98906 
L 163.260517 79.01535 
L 163.743095 78.635421 
L 164.225673 76.609131 
L 164.708252 75.216056 
L 165.19083 74.96277 
L 165.673408 75.469342 
L 166.155987 73.949625 
L 166.638565 76.609131 
L 167.121143 76.229201 
L 167.603721 75.595986 
L 168.0863 74.329554 
L 168.568878 70.910191 
L 169.051456 75.342699 
L 169.534035 72.049979 
L 170.016613 73.31641 
L 170.499191 75.089413 
L 170.98177 68.757258 
L 171.464348 70.403618 
L 171.946926 68.883901 
L 172.912083 72.176622 
L 173.394661 68.503971 
L 173.877239 70.783547 
L 174.842396 69.643759 
L 175.324974 66.730968 
L 175.807552 69.26383 
L 176.290131 71.036834 
L 176.772709 66.477682 
L 177.255287 70.530261 
L 177.737866 65.971109 
L 178.220444 67.997399 
L 178.703022 68.503971 
L 179.668179 66.857611 
L 180.150757 68.630615 
L 180.633335 67.364183 
L 181.115914 67.61747 
L 181.598492 61.91853 
L 182.08107 62.678389 
L 182.563649 62.678389 
L 183.046227 66.477682 
L 183.528805 64.831322 
L 184.011383 62.551745 
L 184.493962 67.997399 
L 184.97654 66.097752 
L 185.459118 63.438247 
L 186.424275 62.045173 
L 186.906853 62.045173 
L 187.389431 58.24588 
L 188.354588 59.259025 
L 188.837166 58.372523 
L 189.319745 60.905385 
L 189.802323 57.359378 
L 190.284901 60.905385 
L 190.767479 61.158671 
L 191.250058 59.638954 
L 191.732636 60.018883 
L 192.215214 56.092947 
L 192.697793 61.5386 
L 193.180371 58.372523 
L 193.662949 58.24588 
L 194.145528 59.005739 
L 194.628106 53.053512 
L 195.110684 56.346233 
L 195.593262 54.319943 
L 196.075841 60.27217 
L 196.558419 57.992593 
L 197.040997 54.066657 
L 197.523576 55.966304 
L 198.006154 56.726162 
L 198.488732 52.293654 
L 198.97131 54.319943 
L 199.453889 55.83966 
L 199.936467 52.167011 
L 200.419045 52.926869 
L 201.384202 52.673583 
L 201.86678 53.306798 
L 202.349358 52.926869 
L 202.831937 56.219589 
L 203.314515 51.153866 
L 203.797093 54.446587 
L 204.279672 46.848 
L 204.76225 52.293654 
L 205.244828 52.040367 
L 205.727407 53.053513 
L 206.209985 54.953159 
L 206.692563 48.367717 
L 207.175141 47.861145 
L 207.65772 51.407152 
L 208.140298 50.52065 
L 208.622876 48.114431 
L 209.105455 48.49436 
L 209.105455 48.49436 
" style="fill:none;stroke:#1f77b4;stroke-linecap:square;stroke-width:1.5;"/>
   </g>
   <g id="patch_3">
    <path d="M 57.6 159.744 
L 57.6 41.472 
" style="fill:none;stroke:#000000;stroke-linecap:square;stroke-linejoin:miter;stroke-width:0.8;"/>
   </g>
   <g id="patch_4">
    <path d="M 216.32 159.744 
L 216.32 41.472 
" style="fill:none;stroke:#000000;stroke-linecap:square;stroke-linejoin:miter;stroke-width:0.8;"/>
   </g>
   <g id="patch_5">
    <path d="M 57.6 159.744 
L 216.32 159.744 
" style="fill:none;stroke:#000000;stroke-linecap:square;stroke-linejoin:miter;stroke-width:0.8;"/>
   </g>
   <g id="patch_6">
    <path d="M 57.6 41.472 
L 216.32 41.472 
" style="fill:none;stroke:#000000;stroke-linecap:square;stroke-linejoin:miter;stroke-width:0.8;"/>
   </g>
   <g id="text_8">
    <!-- acc -->
    <defs>
     <path d="M 34.28125 27.484375 
Q 23.390625 27.484375 19.1875 25 
Q 14.984375 22.515625 14.984375 16.5 
Q 14.984375 11.71875 18.140625 8.90625 
Q 21.296875 6.109375 26.703125 6.109375 
Q 34.1875 6.109375 38.703125 11.40625 
Q 43.21875 16.703125 43.21875 25.484375 
L 43.21875 27.484375 
z
M 52.203125 31.203125 
L 52.203125 0 
L 43.21875 0 
L 43.21875 8.296875 
Q 40.140625 3.328125 35.546875 0.953125 
Q 30.953125 -1.421875 24.3125 -1.421875 
Q 15.921875 -1.421875 10.953125 3.296875 
Q 6 8.015625 6 15.921875 
Q 6 25.140625 12.171875 29.828125 
Q 18.359375 34.515625 30.609375 34.515625 
L 43.21875 34.515625 
L 43.21875 35.40625 
Q 43.21875 41.609375 39.140625 45 
Q 35.0625 48.390625 27.6875 48.390625 
Q 23 48.390625 18.546875 47.265625 
Q 14.109375 46.140625 10.015625 43.890625 
L 10.015625 52.203125 
Q 14.9375 54.109375 19.578125 55.046875 
Q 24.21875 56 28.609375 56 
Q 40.484375 56 46.34375 49.84375 
Q 52.203125 43.703125 52.203125 31.203125 
z
" id="DejaVuSans-61"/>
     <path d="M 48.78125 52.59375 
L 48.78125 44.1875 
Q 44.96875 46.296875 41.140625 47.34375 
Q 37.3125 48.390625 33.40625 48.390625 
Q 24.65625 48.390625 19.8125 42.84375 
Q 14.984375 37.3125 14.984375 27.296875 
Q 14.984375 17.28125 19.8125 11.734375 
Q 24.65625 6.203125 33.40625 6.203125 
Q 37.3125 6.203125 41.140625 7.25 
Q 44.96875 8.296875 48.78125 10.40625 
L 48.78125 2.09375 
Q 45.015625 0.34375 40.984375 -0.53125 
Q 36.96875 -1.421875 32.421875 -1.421875 
Q 20.0625 -1.421875 12.78125 6.34375 
Q 5.515625 14.109375 5.515625 27.296875 
Q 5.515625 40.671875 12.859375 48.328125 
Q 20.21875 56 33.015625 56 
Q 37.15625 56 41.109375 55.140625 
Q 45.0625 54.296875 48.78125 52.59375 
z
" id="DejaVuSans-63"/>
    </defs>
    <g transform="translate(126.685 35.472)scale(0.12 -0.12)">
     <use xlink:href="#DejaVuSans-61"/>
     <use x="61.279297" xlink:href="#DejaVuSans-63"/>
     <use x="116.259766" xlink:href="#DejaVuSans-63"/>
    </g>
   </g>
  </g>
  <g id="axes_2">
   <g id="patch_7">
    <path d="M 256 159.744 
L 414.72 159.744 
L 414.72 41.472 
L 256 41.472 
z
" style="fill:#ffffff;"/>
   </g>
   <g id="matplotlib.axis_3">
    <g id="xtick_5">
     <g id="line2d_16">
      <path clip-path="url(#p6d359b8eb5)" d="M 263.214545 159.744 
L 263.214545 41.472 
" style="fill:none;stroke:#b0b0b0;stroke-linecap:square;stroke-width:0.8;"/>
     </g>
     <g id="line2d_17">
      <g>
       <use style="stroke:#000000;stroke-width:0.8;" x="263.214545" xlink:href="#m00c28aa78d" y="159.744"/>
      </g>
     </g>
     <g id="text_9">
      <!-- 0 -->
      <g transform="translate(260.033295 174.342437)scale(0.1 -0.1)">
       <use xlink:href="#DejaVuSans-30"/>
      </g>
     </g>
    </g>
    <g id="xtick_6">
     <g id="line2d_18">
      <path clip-path="url(#p6d359b8eb5)" d="M 311.472375 159.744 
L 311.472375 41.472 
" style="fill:none;stroke:#b0b0b0;stroke-linecap:square;stroke-width:0.8;"/>
     </g>
     <g id="line2d_19">
      <g>
       <use style="stroke:#000000;stroke-width:0.8;" x="311.472375" xlink:href="#m00c28aa78d" y="159.744"/>
      </g>
     </g>
     <g id="text_10">
      <!-- 100 -->
      <g transform="translate(301.928625 174.342437)scale(0.1 -0.1)">
       <use xlink:href="#DejaVuSans-31"/>
       <use x="63.623047" xlink:href="#DejaVuSans-30"/>
       <use x="127.246094" xlink:href="#DejaVuSans-30"/>
      </g>
     </g>
    </g>
    <g id="xtick_7">
     <g id="line2d_20">
      <path clip-path="url(#p6d359b8eb5)" d="M 359.730204 159.744 
L 359.730204 41.472 
" style="fill:none;stroke:#b0b0b0;stroke-linecap:square;stroke-width:0.8;"/>
     </g>
     <g id="line2d_21">
      <g>
       <use style="stroke:#000000;stroke-width:0.8;" x="359.730204" xlink:href="#m00c28aa78d" y="159.744"/>
      </g>
     </g>
     <g id="text_11">
      <!-- 200 -->
      <g transform="translate(350.186454 174.342437)scale(0.1 -0.1)">
       <use xlink:href="#DejaVuSans-32"/>
       <use x="63.623047" xlink:href="#DejaVuSans-30"/>
       <use x="127.246094" xlink:href="#DejaVuSans-30"/>
      </g>
     </g>
    </g>
    <g id="xtick_8">
     <g id="line2d_22">
      <path clip-path="url(#p6d359b8eb5)" d="M 407.988033 159.744 
L 407.988033 41.472 
" style="fill:none;stroke:#b0b0b0;stroke-linecap:square;stroke-width:0.8;"/>
     </g>
     <g id="line2d_23">
      <g>
       <use style="stroke:#000000;stroke-width:0.8;" x="407.988033" xlink:href="#m00c28aa78d" y="159.744"/>
      </g>
     </g>
     <g id="text_12">
      <!-- 300 -->
      <g transform="translate(398.444283 174.342437)scale(0.1 -0.1)">
       <use xlink:href="#DejaVuSans-33"/>
       <use x="63.623047" xlink:href="#DejaVuSans-30"/>
       <use x="127.246094" xlink:href="#DejaVuSans-30"/>
      </g>
     </g>
    </g>
   </g>
   <g id="matplotlib.axis_4">
    <g id="ytick_4">
     <g id="line2d_24">
      <path clip-path="url(#p6d359b8eb5)" d="M 256 147.221963 
L 414.72 147.221963 
" style="fill:none;stroke:#b0b0b0;stroke-linecap:square;stroke-width:0.8;"/>
     </g>
     <g id="line2d_25">
      <g>
       <use style="stroke:#000000;stroke-width:0.8;" x="256" xlink:href="#m278fb984d6" y="147.221963"/>
      </g>
     </g>
     <g id="text_13">
      <!-- 3 -->
      <g transform="translate(242.6375 151.021182)scale(0.1 -0.1)">
       <use xlink:href="#DejaVuSans-33"/>
      </g>
     </g>
    </g>
    <g id="ytick_5">
     <g id="line2d_26">
      <path clip-path="url(#p6d359b8eb5)" d="M 256 107.782701 
L 414.72 107.782701 
" style="fill:none;stroke:#b0b0b0;stroke-linecap:square;stroke-width:0.8;"/>
     </g>
     <g id="line2d_27">
      <g>
       <use style="stroke:#000000;stroke-width:0.8;" x="256" xlink:href="#m278fb984d6" y="107.782701"/>
      </g>
     </g>
     <g id="text_14">
      <!-- 4 -->
      <defs>
       <path d="M 37.796875 64.3125 
L 12.890625 25.390625 
L 37.796875 25.390625 
z
M 35.203125 72.90625 
L 47.609375 72.90625 
L 47.609375 25.390625 
L 58.015625 25.390625 
L 58.015625 17.1875 
L 47.609375 17.1875 
L 47.609375 0 
L 37.796875 0 
L 37.796875 17.1875 
L 4.890625 17.1875 
L 4.890625 26.703125 
z
" id="DejaVuSans-34"/>
      </defs>
      <g transform="translate(242.6375 111.58192)scale(0.1 -0.1)">
       <use xlink:href="#DejaVuSans-34"/>
      </g>
     </g>
    </g>
    <g id="ytick_6">
     <g id="line2d_28">
      <path clip-path="url(#p6d359b8eb5)" d="M 256 68.343438 
L 414.72 68.343438 
" style="fill:none;stroke:#b0b0b0;stroke-linecap:square;stroke-width:0.8;"/>
     </g>
     <g id="line2d_29">
      <g>
       <use style="stroke:#000000;stroke-width:0.8;" x="256" xlink:href="#m278fb984d6" y="68.343438"/>
      </g>
     </g>
     <g id="text_15">
      <!-- 5 -->
      <defs>
       <path d="M 10.796875 72.90625 
L 49.515625 72.90625 
L 49.515625 64.59375 
L 19.828125 64.59375 
L 19.828125 46.734375 
Q 21.96875 47.46875 24.109375 47.828125 
Q 26.265625 48.1875 28.421875 48.1875 
Q 40.625 48.1875 47.75 41.5 
Q 54.890625 34.8125 54.890625 23.390625 
Q 54.890625 11.625 47.5625 5.09375 
Q 40.234375 -1.421875 26.90625 -1.421875 
Q 22.3125 -1.421875 17.546875 -0.640625 
Q 12.796875 0.140625 7.71875 1.703125 
L 7.71875 11.625 
Q 12.109375 9.234375 16.796875 8.0625 
Q 21.484375 6.890625 26.703125 6.890625 
Q 35.15625 6.890625 40.078125 11.328125 
Q 45.015625 15.765625 45.015625 23.390625 
Q 45.015625 31 40.078125 35.4375 
Q 35.15625 39.890625 26.703125 39.890625 
Q 22.75 39.890625 18.8125 39.015625 
Q 14.890625 38.140625 10.796875 36.28125 
z
" id="DejaVuSans-35"/>
      </defs>
      <g transform="translate(242.6375 72.142657)scale(0.1 -0.1)">
       <use xlink:href="#DejaVuSans-35"/>
      </g>
     </g>
    </g>
   </g>
   <g id="line2d_30">
    <path clip-path="url(#p6d359b8eb5)" d="M 263.214545 46.848 
L 263.697124 48.338352 
L 264.66228 54.160741 
L 266.592593 67.026049 
L 267.55775 72.197514 
L 268.522907 76.131758 
L 269.488063 79.189767 
L 270.45322 81.985905 
L 271.900955 85.102855 
L 272.866111 86.855456 
L 273.34869 87.571433 
L 273.831268 88.518684 
L 274.313846 89.076469 
L 274.796424 89.905529 
L 275.761581 90.83971 
L 276.726738 92.219312 
L 277.209316 92.483867 
L 278.174472 93.755857 
L 278.657051 93.959836 
L 279.139629 94.637252 
L 279.622207 94.836275 
L 280.587364 95.698826 
L 281.069942 95.921104 
L 281.552521 96.528624 
L 282.035099 96.792931 
L 283.000255 97.68041 
L 283.482834 97.984849 
L 283.965412 98.128798 
L 284.44799 98.84796 
L 284.930569 98.836449 
L 285.413147 99.493013 
L 285.895725 99.659928 
L 286.860882 100.34588 
L 287.34346 100.843152 
L 287.826038 100.9834 
L 288.791195 101.448249 
L 289.273773 101.588542 
L 292.169243 103.52533 
L 292.651821 103.658603 
L 294.582134 104.971128 
L 295.064713 104.945456 
L 295.547291 105.512342 
L 296.029869 105.60737 
L 296.995026 106.425764 
L 297.477604 106.596298 
L 297.960182 106.486435 
L 298.925339 107.255679 
L 299.407917 107.354281 
L 299.890496 107.850762 
L 300.373074 107.863512 
L 300.855652 108.418186 
L 301.33823 108.235949 
L 301.820809 108.862535 
L 302.303387 109.180502 
L 302.785965 109.261907 
L 303.268544 109.461539 
L 303.751122 109.83566 
L 305.198857 110.347881 
L 306.164013 111.386109 
L 306.646592 111.285199 
L 307.12917 111.785664 
L 307.611748 111.938618 
L 308.094327 112.26644 
L 308.576905 112.140189 
L 309.059483 113.143191 
L 309.542061 112.768496 
L 310.02464 113.411441 
L 310.989796 113.95393 
L 311.472375 114.22869 
L 311.954953 114.167826 
L 312.437531 114.644257 
L 313.402688 115.328159 
L 313.885266 115.357358 
L 314.850423 115.809484 
L 315.333001 115.952548 
L 315.815579 116.246977 
L 316.780736 117.15481 
L 317.263314 117.317913 
L 317.745892 117.254274 
L 318.711049 117.990343 
L 319.676206 118.433867 
L 320.158784 118.912214 
L 320.641362 119.007339 
L 321.12394 119.316579 
L 321.606519 119.338417 
L 322.571675 120.173677 
L 323.054254 120.082732 
L 324.01941 120.779273 
L 324.984567 121.067027 
L 325.467145 121.750651 
L 325.949723 121.387853 
L 326.432302 122.15347 
L 326.91488 122.073567 
L 327.880036 122.641721 
L 328.362615 123.152624 
L 328.845193 123.230742 
L 329.327771 123.437931 
L 330.775506 124.533754 
L 331.258085 124.313921 
L 331.740663 125.115622 
L 332.223241 124.928938 
L 332.705819 125.430581 
L 333.670976 125.542027 
L 334.153554 126.090583 
L 334.636133 126.282441 
L 335.118711 126.788211 
L 335.601289 126.72454 
L 336.083867 126.921289 
L 336.566446 127.330798 
L 337.049024 127.477546 
L 337.531602 127.984234 
L 338.014181 128.093708 
L 338.496759 128.369183 
L 338.979337 128.423484 
L 339.461915 129.164516 
L 339.944494 128.972647 
L 340.427072 129.474672 
L 340.90965 129.484234 
L 342.357385 130.461733 
L 342.839964 130.444861 
L 343.80512 130.924963 
L 344.287698 130.799049 
L 344.770277 131.676802 
L 345.252855 131.490466 
L 345.735433 131.759632 
L 346.70059 132.597766 
L 347.183168 132.610593 
L 347.665746 132.965118 
L 348.148325 132.739033 
L 348.630903 133.108602 
L 349.113481 133.129368 
L 349.59606 133.603681 
L 350.078638 133.901253 
L 351.043794 134.137928 
L 351.526373 134.574308 
L 352.491529 134.579079 
L 352.974108 135.267666 
L 353.456686 135.736524 
L 353.939264 135.2894 
L 354.421843 135.811958 
L 354.904421 135.963879 
L 355.386999 136.311345 
L 355.869577 136.364227 
L 356.834734 136.974453 
L 357.317312 136.876042 
L 357.799891 137.244307 
L 358.765047 137.57733 
L 359.247625 137.949447 
L 360.212782 138.104563 
L 360.69536 138.017847 
L 361.177939 138.549194 
L 361.660517 138.756585 
L 362.143095 139.168608 
L 362.625673 139.085682 
L 363.108252 139.260848 
L 363.59083 139.646523 
L 364.073408 139.540362 
L 364.555987 139.558221 
L 365.038565 140.097213 
L 365.521143 140.23294 
L 366.003721 140.60925 
L 366.4863 140.664794 
L 366.968878 140.842322 
L 367.451456 140.828782 
L 367.934035 141.332821 
L 368.899191 141.306627 
L 369.864348 142.111897 
L 370.829504 142.081408 
L 371.312083 142.68434 
L 371.794661 142.638322 
L 372.277239 142.918122 
L 372.759818 143.003144 
L 373.242396 143.514774 
L 373.724974 143.275796 
L 374.207552 143.57614 
L 374.690131 143.443801 
L 375.172709 143.925308 
L 375.655287 143.949702 
L 376.137866 144.348599 
L 376.620444 144.542777 
L 377.103022 144.589612 
L 377.5856 144.779676 
L 378.068179 144.84206 
L 378.550757 144.773036 
L 379.515914 145.399825 
L 379.998492 145.80223 
L 380.48107 145.449291 
L 380.963649 145.863526 
L 381.446227 146.021869 
L 381.928805 146.326541 
L 383.37654 146.731011 
L 383.859118 147.139695 
L 384.341697 146.95524 
L 384.824275 147.053074 
L 385.306853 147.537788 
L 385.789431 147.54624 
L 386.27201 147.84949 
L 386.754588 147.73868 
L 387.237166 148.314557 
L 387.719745 148.096853 
L 388.684901 148.648073 
L 389.167479 148.344486 
L 389.650058 148.712727 
L 390.615214 149.11316 
L 391.097793 149.085765 
L 391.580371 149.469462 
L 392.062949 149.685903 
L 392.545528 149.601917 
L 393.028106 150.128314 
L 393.510684 150.019251 
L 393.993262 150.096335 
L 394.475841 150.30904 
L 395.923576 150.612856 
L 396.406154 150.943949 
L 396.888732 150.898803 
L 397.37131 151.410969 
L 397.853889 151.080626 
L 398.336467 151.594878 
L 398.819045 151.450045 
L 400.26678 151.963328 
L 401.714515 152.515671 
L 402.197093 152.742781 
L 402.679672 152.626738 
L 403.16225 152.688215 
L 403.644828 153.276363 
L 405.092563 153.244097 
L 405.575141 154.002172 
L 406.05772 153.931175 
L 406.540298 154.101215 
L 407.022876 153.923635 
L 407.505455 154.368 
L 407.505455 154.368 
" style="fill:none;stroke:#1f77b4;stroke-linecap:square;stroke-width:1.5;"/>
   </g>
   <g id="patch_8">
    <path d="M 256 159.744 
L 256 41.472 
" style="fill:none;stroke:#000000;stroke-linecap:square;stroke-linejoin:miter;stroke-width:0.8;"/>
   </g>
   <g id="patch_9">
    <path d="M 414.72 159.744 
L 414.72 41.472 
" style="fill:none;stroke:#000000;stroke-linecap:square;stroke-linejoin:miter;stroke-width:0.8;"/>
   </g>
   <g id="patch_10">
    <path d="M 256 159.744 
L 414.72 159.744 
" style="fill:none;stroke:#000000;stroke-linecap:square;stroke-linejoin:miter;stroke-width:0.8;"/>
   </g>
   <g id="patch_11">
    <path d="M 256 41.472 
L 414.72 41.472 
" style="fill:none;stroke:#000000;stroke-linecap:square;stroke-linejoin:miter;stroke-width:0.8;"/>
   </g>
   <g id="text_16">
    <!-- loss -->
    <defs>
     <path d="M 9.421875 75.984375 
L 18.40625 75.984375 
L 18.40625 0 
L 9.421875 0 
z
" id="DejaVuSans-6c"/>
     <path d="M 30.609375 48.390625 
Q 23.390625 48.390625 19.1875 42.75 
Q 14.984375 37.109375 14.984375 27.296875 
Q 14.984375 17.484375 19.15625 11.84375 
Q 23.34375 6.203125 30.609375 6.203125 
Q 37.796875 6.203125 41.984375 11.859375 
Q 46.1875 17.53125 46.1875 27.296875 
Q 46.1875 37.015625 41.984375 42.703125 
Q 37.796875 48.390625 30.609375 48.390625 
z
M 30.609375 56 
Q 42.328125 56 49.015625 48.375 
Q 55.71875 40.765625 55.71875 27.296875 
Q 55.71875 13.875 49.015625 6.21875 
Q 42.328125 -1.421875 30.609375 -1.421875 
Q 18.84375 -1.421875 12.171875 6.21875 
Q 5.515625 13.875 5.515625 27.296875 
Q 5.515625 40.765625 12.171875 48.375 
Q 18.84375 56 30.609375 56 
z
" id="DejaVuSans-6f"/>
     <path d="M 44.28125 53.078125 
L 44.28125 44.578125 
Q 40.484375 46.53125 36.375 47.5 
Q 32.28125 48.484375 27.875 48.484375 
Q 21.1875 48.484375 17.84375 46.4375 
Q 14.5 44.390625 14.5 40.28125 
Q 14.5 37.15625 16.890625 35.375 
Q 19.28125 33.59375 26.515625 31.984375 
L 29.59375 31.296875 
Q 39.15625 29.25 43.1875 25.515625 
Q 47.21875 21.78125 47.21875 15.09375 
Q 47.21875 7.46875 41.1875 3.015625 
Q 35.15625 -1.421875 24.609375 -1.421875 
Q 20.21875 -1.421875 15.453125 -0.5625 
Q 10.6875 0.296875 5.421875 2 
L 5.421875 11.28125 
Q 10.40625 8.6875 15.234375 7.390625 
Q 20.0625 6.109375 24.8125 6.109375 
Q 31.15625 6.109375 34.5625 8.28125 
Q 37.984375 10.453125 37.984375 14.40625 
Q 37.984375 18.0625 35.515625 20.015625 
Q 33.0625 21.96875 24.703125 23.78125 
L 21.578125 24.515625 
Q 13.234375 26.265625 9.515625 29.90625 
Q 5.8125 33.546875 5.8125 39.890625 
Q 5.8125 47.609375 11.28125 51.796875 
Q 16.75 56 26.8125 56 
Q 31.78125 56 36.171875 55.265625 
Q 40.578125 54.546875 44.28125 53.078125 
z
" id="DejaVuSans-73"/>
    </defs>
    <g transform="translate(323.770625 35.472)scale(0.12 -0.12)">
     <use xlink:href="#DejaVuSans-6c"/>
     <use x="27.783203" xlink:href="#DejaVuSans-6f"/>
     <use x="88.964844" xlink:href="#DejaVuSans-73"/>
     <use x="141.064453" xlink:href="#DejaVuSans-73"/>
    </g>
   </g>
  </g>
  <g id="axes_3">
   <g id="patch_12">
    <path d="M 57.6 307.584 
L 216.32 307.584 
L 216.32 189.312 
L 57.6 189.312 
z
" style="fill:#ffffff;"/>
   </g>
   <g id="matplotlib.axis_5">
    <g id="xtick_9">
     <g id="line2d_31">
      <path clip-path="url(#pb051b183ac)" d="M 64.814545 307.584 
L 64.814545 189.312 
" style="fill:none;stroke:#b0b0b0;stroke-linecap:square;stroke-width:0.8;"/>
     </g>
     <g id="line2d_32">
      <g>
       <use style="stroke:#000000;stroke-width:0.8;" x="64.814545" xlink:href="#m00c28aa78d" y="307.584"/>
      </g>
     </g>
     <g id="text_17">
      <!-- 0 -->
      <g transform="translate(61.633295 322.182437)scale(0.1 -0.1)">
       <use xlink:href="#DejaVuSans-30"/>
      </g>
     </g>
    </g>
    <g id="xtick_10">
     <g id="line2d_33">
      <path clip-path="url(#pb051b183ac)" d="M 113.072375 307.584 
L 113.072375 189.312 
" style="fill:none;stroke:#b0b0b0;stroke-linecap:square;stroke-width:0.8;"/>
     </g>
     <g id="line2d_34">
      <g>
       <use style="stroke:#000000;stroke-width:0.8;" x="113.072375" xlink:href="#m00c28aa78d" y="307.584"/>
      </g>
     </g>
     <g id="text_18">
      <!-- 100 -->
      <g transform="translate(103.528625 322.182437)scale(0.1 -0.1)">
       <use xlink:href="#DejaVuSans-31"/>
       <use x="63.623047" xlink:href="#DejaVuSans-30"/>
       <use x="127.246094" xlink:href="#DejaVuSans-30"/>
      </g>
     </g>
    </g>
    <g id="xtick_11">
     <g id="line2d_35">
      <path clip-path="url(#pb051b183ac)" d="M 161.330204 307.584 
L 161.330204 189.312 
" style="fill:none;stroke:#b0b0b0;stroke-linecap:square;stroke-width:0.8;"/>
     </g>
     <g id="line2d_36">
      <g>
       <use style="stroke:#000000;stroke-width:0.8;" x="161.330204" xlink:href="#m00c28aa78d" y="307.584"/>
      </g>
     </g>
     <g id="text_19">
      <!-- 200 -->
      <g transform="translate(151.786454 322.182437)scale(0.1 -0.1)">
       <use xlink:href="#DejaVuSans-32"/>
       <use x="63.623047" xlink:href="#DejaVuSans-30"/>
       <use x="127.246094" xlink:href="#DejaVuSans-30"/>
      </g>
     </g>
    </g>
    <g id="xtick_12">
     <g id="line2d_37">
      <path clip-path="url(#pb051b183ac)" d="M 209.588033 307.584 
L 209.588033 189.312 
" style="fill:none;stroke:#b0b0b0;stroke-linecap:square;stroke-width:0.8;"/>
     </g>
     <g id="line2d_38">
      <g>
       <use style="stroke:#000000;stroke-width:0.8;" x="209.588033" xlink:href="#m00c28aa78d" y="307.584"/>
      </g>
     </g>
     <g id="text_20">
      <!-- 300 -->
      <g transform="translate(200.044283 322.182437)scale(0.1 -0.1)">
       <use xlink:href="#DejaVuSans-33"/>
       <use x="63.623047" xlink:href="#DejaVuSans-30"/>
       <use x="127.246094" xlink:href="#DejaVuSans-30"/>
      </g>
     </g>
    </g>
   </g>
   <g id="matplotlib.axis_6">
    <g id="ytick_7">
     <g id="line2d_39">
      <path clip-path="url(#pb051b183ac)" d="M 57.6 303.503422 
L 216.32 303.503422 
" style="fill:none;stroke:#b0b0b0;stroke-linecap:square;stroke-width:0.8;"/>
     </g>
     <g id="line2d_40">
      <g>
       <use style="stroke:#000000;stroke-width:0.8;" x="57.6" xlink:href="#m278fb984d6" y="303.503422"/>
      </g>
     </g>
     <g id="text_21">
      <!-- 0.0 -->
      <g transform="translate(34.696875 307.30264)scale(0.1 -0.1)">
       <use xlink:href="#DejaVuSans-30"/>
       <use x="63.623047" xlink:href="#DejaVuSans-2e"/>
       <use x="95.410156" xlink:href="#DejaVuSans-30"/>
      </g>
     </g>
    </g>
    <g id="ytick_8">
     <g id="line2d_41">
      <path clip-path="url(#pb051b183ac)" d="M 57.6 270.340627 
L 216.32 270.340627 
" style="fill:none;stroke:#b0b0b0;stroke-linecap:square;stroke-width:0.8;"/>
     </g>
     <g id="line2d_42">
      <g>
       <use style="stroke:#000000;stroke-width:0.8;" x="57.6" xlink:href="#m278fb984d6" y="270.340627"/>
      </g>
     </g>
     <g id="text_22">
      <!-- 0.1 -->
      <g transform="translate(34.696875 274.139846)scale(0.1 -0.1)">
       <use xlink:href="#DejaVuSans-30"/>
       <use x="63.623047" xlink:href="#DejaVuSans-2e"/>
       <use x="95.410156" xlink:href="#DejaVuSans-31"/>
      </g>
     </g>
    </g>
    <g id="ytick_9">
     <g id="line2d_43">
      <path clip-path="url(#pb051b183ac)" d="M 57.6 237.177832 
L 216.32 237.177832 
" style="fill:none;stroke:#b0b0b0;stroke-linecap:square;stroke-width:0.8;"/>
     </g>
     <g id="line2d_44">
      <g>
       <use style="stroke:#000000;stroke-width:0.8;" x="57.6" xlink:href="#m278fb984d6" y="237.177832"/>
      </g>
     </g>
     <g id="text_23">
      <!-- 0.2 -->
      <g transform="translate(34.696875 240.977051)scale(0.1 -0.1)">
       <use xlink:href="#DejaVuSans-30"/>
       <use x="63.623047" xlink:href="#DejaVuSans-2e"/>
       <use x="95.410156" xlink:href="#DejaVuSans-32"/>
      </g>
     </g>
    </g>
    <g id="ytick_10">
     <g id="line2d_45">
      <path clip-path="url(#pb051b183ac)" d="M 57.6 204.015038 
L 216.32 204.015038 
" style="fill:none;stroke:#b0b0b0;stroke-linecap:square;stroke-width:0.8;"/>
     </g>
     <g id="line2d_46">
      <g>
       <use style="stroke:#000000;stroke-width:0.8;" x="57.6" xlink:href="#m278fb984d6" y="204.015038"/>
      </g>
     </g>
     <g id="text_24">
      <!-- 0.3 -->
      <g transform="translate(34.696875 207.814257)scale(0.1 -0.1)">
       <use xlink:href="#DejaVuSans-30"/>
       <use x="63.623047" xlink:href="#DejaVuSans-2e"/>
       <use x="95.410156" xlink:href="#DejaVuSans-33"/>
      </g>
     </g>
    </g>
   </g>
   <g id="line2d_47">
    <path clip-path="url(#pb051b183ac)" d="M 64.814545 302.208 
L 65.297124 302.208 
L 65.779702 299.617157 
L 66.26228 298.321735 
L 66.744859 298.321735 
L 67.227437 294.43547 
L 68.192593 299.617157 
L 69.640328 295.730892 
L 70.122907 297.026313 
L 70.605485 294.43547 
L 71.088063 295.730892 
L 71.570642 293.140048 
L 72.05322 295.730892 
L 72.535798 295.730891 
L 73.018376 297.026313 
L 73.500955 297.026313 
L 73.983533 289.253783 
L 74.466111 294.43547 
L 74.94869 293.140048 
L 75.431268 293.140048 
L 75.913846 289.253783 
L 76.396424 289.253783 
L 76.879003 290.549205 
L 77.361581 294.43547 
L 77.844159 289.253783 
L 78.326738 286.66294 
L 78.809316 291.844626 
L 79.291894 287.958361 
L 79.774472 286.66294 
L 80.257051 287.958361 
L 80.739629 281.481253 
L 81.222207 285.367518 
L 81.704786 285.367518 
L 82.187364 284.072096 
L 83.152521 289.253783 
L 83.635099 277.594988 
L 84.117677 276.299566 
L 84.600255 286.66294 
L 85.082834 280.185831 
L 85.565412 281.481253 
L 86.04799 284.072096 
L 86.530569 284.072096 
L 87.495725 278.89041 
L 87.978303 284.072096 
L 88.94346 268.527036 
L 89.426038 281.481253 
L 89.908617 278.89041 
L 90.391195 271.11788 
L 90.873773 271.11788 
L 91.356351 277.594988 
L 91.83893 276.299566 
L 92.321508 278.89041 
L 92.804086 276.299566 
L 93.286665 272.413301 
L 93.769243 272.413301 
L 94.251821 269.822458 
L 94.7344 273.708723 
L 95.216978 269.822458 
L 95.699556 267.231614 
L 96.182134 277.594988 
L 96.664713 268.527036 
L 97.147291 275.004145 
L 97.629869 272.413301 
L 98.112448 264.640771 
L 98.595026 276.299566 
L 99.077604 272.413301 
L 99.560182 273.708723 
L 100.042761 268.527036 
L 100.525339 264.640771 
L 101.007917 273.708723 
L 101.490496 269.822458 
L 101.973074 278.89041 
L 102.455652 263.34535 
L 102.93823 267.231614 
L 103.420809 265.936193 
L 104.385965 265.936193 
L 104.868544 263.345349 
L 105.8337 265.936193 
L 106.316279 264.640771 
L 106.798857 262.049928 
L 107.281435 265.936193 
L 107.764013 263.345349 
L 108.246592 267.231615 
L 108.72917 258.163663 
L 109.211748 265.936193 
L 109.694327 260.754506 
L 110.176905 267.231614 
L 110.659483 258.163662 
L 111.142061 264.640771 
L 111.62464 262.049928 
L 112.107218 263.345349 
L 112.589796 265.936193 
L 113.072375 254.277398 
L 113.554953 264.640771 
L 114.037531 258.163662 
L 114.520109 255.572819 
L 115.002688 251.686554 
L 115.485266 255.572819 
L 115.967844 249.095711 
L 116.450423 263.345349 
L 116.933001 260.754506 
L 117.415579 263.345349 
L 117.898157 263.345349 
L 118.380736 267.231615 
L 118.863314 258.163662 
L 119.345892 254.277398 
L 119.828471 247.800289 
L 120.311049 255.572819 
L 120.793627 255.57282 
L 121.276206 263.345349 
L 121.758784 256.868241 
L 122.241362 254.277397 
L 123.206519 256.868241 
L 123.689097 254.277398 
L 124.171675 250.391133 
L 124.654254 259.459084 
L 125.136832 258.163663 
L 125.61941 254.277397 
L 126.101988 251.686554 
L 126.584567 258.163662 
L 127.067145 252.981976 
L 127.549723 250.391132 
L 128.51488 255.572819 
L 128.997458 256.868241 
L 129.480036 241.32318 
L 129.962615 246.504867 
L 130.445193 252.981976 
L 130.927771 250.391132 
L 131.41035 245.209446 
L 131.892928 249.09571 
L 132.375506 251.686554 
L 132.858085 246.504867 
L 133.340663 246.504868 
L 133.823241 254.277397 
L 134.305819 241.32318 
L 134.788398 252.981976 
L 135.270976 240.027759 
L 135.753554 236.141493 
L 136.236133 242.618601 
L 136.718711 251.686554 
L 137.201289 246.504868 
L 137.683867 237.436915 
L 138.166446 236.141494 
L 138.649024 245.209446 
L 139.131602 245.209446 
L 139.614181 246.504867 
L 140.096759 242.618603 
L 140.579337 240.027759 
L 141.061915 241.323181 
L 141.544494 245.209446 
L 142.027072 240.027758 
L 142.992229 240.027759 
L 143.474807 252.981975 
L 143.957385 241.32318 
L 144.439964 249.095711 
L 144.922542 238.732337 
L 145.40512 237.436916 
L 145.887698 237.436916 
L 146.370277 245.209445 
L 146.852855 240.027758 
L 147.335433 233.55065 
L 147.818012 238.732337 
L 148.30059 249.095711 
L 148.783168 228.368963 
L 149.265746 238.732337 
L 149.748325 245.209446 
L 150.230903 236.141494 
L 150.713481 234.846071 
L 151.19606 241.32318 
L 151.678638 241.32318 
L 152.161216 234.846072 
L 153.126373 232.255229 
L 153.608951 229.664386 
L 154.091529 229.664385 
L 154.574108 241.32318 
L 155.539264 228.368964 
L 156.021843 240.027759 
L 156.504421 241.323181 
L 156.986999 236.141494 
L 157.469577 233.550651 
L 157.952156 232.255229 
L 158.434734 236.141494 
L 158.917312 236.141494 
L 159.399891 230.959807 
L 159.882469 227.073542 
L 160.365047 240.02776 
L 161.330204 225.778121 
L 161.812782 240.027759 
L 162.29536 227.073543 
L 162.777939 221.891854 
L 163.260517 225.77812 
L 163.743095 240.027759 
L 164.225673 221.891855 
L 165.19083 241.32318 
L 165.673408 232.255228 
L 166.155987 233.550652 
L 166.638565 223.187277 
L 167.121143 243.914023 
L 167.603721 216.710168 
L 168.0863 219.301011 
L 168.568878 220.596435 
L 169.051456 230.959807 
L 169.534035 236.141494 
L 170.016613 230.959807 
L 170.499191 223.187277 
L 170.98177 228.368963 
L 171.464348 232.255229 
L 171.946926 233.55065 
L 172.429504 223.187277 
L 172.912083 225.778121 
L 173.394661 220.596433 
L 173.877239 223.187277 
L 174.359818 227.073542 
L 174.842396 225.77812 
L 175.324974 220.596434 
L 175.807552 236.141494 
L 176.290131 227.073541 
L 176.772709 221.891855 
L 177.255287 208.937639 
L 177.737866 224.482699 
L 178.220444 225.77812 
L 178.703022 218.00559 
L 179.668179 220.596432 
L 180.150757 225.778121 
L 180.633335 225.778121 
L 181.115914 227.073543 
L 181.598492 221.891855 
L 182.08107 218.00559 
L 182.563649 228.368963 
L 183.046227 218.005591 
L 183.528805 218.005589 
L 184.011383 211.528483 
L 184.493962 216.710168 
L 184.97654 210.233059 
L 185.459118 214.119325 
L 185.941697 212.823903 
L 186.424275 225.77812 
L 186.906853 214.119325 
L 187.389431 223.187277 
L 187.87201 219.301012 
L 188.354588 219.301012 
L 188.837166 232.255229 
L 189.319745 206.346796 
L 189.802323 218.005589 
L 190.284901 221.891855 
L 190.767479 207.642217 
L 191.250058 215.414745 
L 191.732636 218.00559 
L 192.215214 219.301011 
L 192.697793 216.710169 
L 193.180371 219.301013 
L 193.662949 223.187277 
L 194.145528 216.710168 
L 194.628106 215.414747 
L 195.110684 218.00559 
L 195.593262 207.642216 
L 196.075841 214.119326 
L 196.558419 227.073541 
L 197.040997 214.119326 
L 197.523576 207.642217 
L 198.006154 205.051372 
L 198.488732 211.528483 
L 198.97131 221.891854 
L 199.453889 216.710169 
L 199.936467 219.301011 
L 200.419045 225.77812 
L 200.901624 206.346794 
L 201.384202 206.346796 
L 201.86678 215.414746 
L 202.349358 208.937639 
L 202.831937 207.642215 
L 203.314515 210.23306 
L 203.797093 208.937638 
L 204.279672 205.051374 
L 205.244828 207.642217 
L 205.727407 203.75595 
L 206.209985 198.574266 
L 207.175141 216.71017 
L 207.65772 208.937639 
L 208.140298 207.642216 
L 208.622876 210.233059 
L 209.105455 194.688 
L 209.105455 194.688 
" style="fill:none;stroke:#1f77b4;stroke-linecap:square;stroke-width:1.5;"/>
   </g>
   <g id="patch_13">
    <path d="M 57.6 307.584 
L 57.6 189.312 
" style="fill:none;stroke:#000000;stroke-linecap:square;stroke-linejoin:miter;stroke-width:0.8;"/>
   </g>
   <g id="patch_14">
    <path d="M 216.32 307.584 
L 216.32 189.312 
" style="fill:none;stroke:#000000;stroke-linecap:square;stroke-linejoin:miter;stroke-width:0.8;"/>
   </g>
   <g id="patch_15">
    <path d="M 57.6 307.584 
L 216.32 307.584 
" style="fill:none;stroke:#000000;stroke-linecap:square;stroke-linejoin:miter;stroke-width:0.8;"/>
   </g>
   <g id="patch_16">
    <path d="M 57.6 189.312 
L 216.32 189.312 
" style="fill:none;stroke:#000000;stroke-linecap:square;stroke-linejoin:miter;stroke-width:0.8;"/>
   </g>
   <g id="text_25">
    <!-- val_acc -->
    <defs>
     <path d="M 2.984375 54.6875 
L 12.5 54.6875 
L 29.59375 8.796875 
L 46.6875 54.6875 
L 56.203125 54.6875 
L 35.6875 0 
L 23.484375 0 
z
" id="DejaVuSans-76"/>
     <path d="M 50.984375 -16.609375 
L 50.984375 -23.578125 
L -0.984375 -23.578125 
L -0.984375 -16.609375 
z
" id="DejaVuSans-5f"/>
    </defs>
    <g transform="translate(114.79 183.312)scale(0.12 -0.12)">
     <use xlink:href="#DejaVuSans-76"/>
     <use x="59.179688" xlink:href="#DejaVuSans-61"/>
     <use x="120.458984" xlink:href="#DejaVuSans-6c"/>
     <use x="148.242188" xlink:href="#DejaVuSans-5f"/>
     <use x="198.242188" xlink:href="#DejaVuSans-61"/>
     <use x="259.521484" xlink:href="#DejaVuSans-63"/>
     <use x="314.501953" xlink:href="#DejaVuSans-63"/>
    </g>
   </g>
  </g>
  <g id="axes_4">
   <g id="patch_17">
    <path d="M 256 307.584 
L 414.72 307.584 
L 414.72 189.312 
L 256 189.312 
z
" style="fill:#ffffff;"/>
   </g>
   <g id="matplotlib.axis_7">
    <g id="xtick_13">
     <g id="line2d_48">
      <path clip-path="url(#p56174d043c)" d="M 263.214545 307.584 
L 263.214545 189.312 
" style="fill:none;stroke:#b0b0b0;stroke-linecap:square;stroke-width:0.8;"/>
     </g>
     <g id="line2d_49">
      <g>
       <use style="stroke:#000000;stroke-width:0.8;" x="263.214545" xlink:href="#m00c28aa78d" y="307.584"/>
      </g>
     </g>
     <g id="text_26">
      <!-- 0 -->
      <g transform="translate(260.033295 322.182437)scale(0.1 -0.1)">
       <use xlink:href="#DejaVuSans-30"/>
      </g>
     </g>
    </g>
    <g id="xtick_14">
     <g id="line2d_50">
      <path clip-path="url(#p56174d043c)" d="M 311.472375 307.584 
L 311.472375 189.312 
" style="fill:none;stroke:#b0b0b0;stroke-linecap:square;stroke-width:0.8;"/>
     </g>
     <g id="line2d_51">
      <g>
       <use style="stroke:#000000;stroke-width:0.8;" x="311.472375" xlink:href="#m00c28aa78d" y="307.584"/>
      </g>
     </g>
     <g id="text_27">
      <!-- 100 -->
      <g transform="translate(301.928625 322.182437)scale(0.1 -0.1)">
       <use xlink:href="#DejaVuSans-31"/>
       <use x="63.623047" xlink:href="#DejaVuSans-30"/>
       <use x="127.246094" xlink:href="#DejaVuSans-30"/>
      </g>
     </g>
    </g>
    <g id="xtick_15">
     <g id="line2d_52">
      <path clip-path="url(#p56174d043c)" d="M 359.730204 307.584 
L 359.730204 189.312 
" style="fill:none;stroke:#b0b0b0;stroke-linecap:square;stroke-width:0.8;"/>
     </g>
     <g id="line2d_53">
      <g>
       <use style="stroke:#000000;stroke-width:0.8;" x="359.730204" xlink:href="#m00c28aa78d" y="307.584"/>
      </g>
     </g>
     <g id="text_28">
      <!-- 200 -->
      <g transform="translate(350.186454 322.182437)scale(0.1 -0.1)">
       <use xlink:href="#DejaVuSans-32"/>
       <use x="63.623047" xlink:href="#DejaVuSans-30"/>
       <use x="127.246094" xlink:href="#DejaVuSans-30"/>
      </g>
     </g>
    </g>
    <g id="xtick_16">
     <g id="line2d_54">
      <path clip-path="url(#p56174d043c)" d="M 407.988033 307.584 
L 407.988033 189.312 
" style="fill:none;stroke:#b0b0b0;stroke-linecap:square;stroke-width:0.8;"/>
     </g>
     <g id="line2d_55">
      <g>
       <use style="stroke:#000000;stroke-width:0.8;" x="407.988033" xlink:href="#m00c28aa78d" y="307.584"/>
      </g>
     </g>
     <g id="text_29">
      <!-- 300 -->
      <g transform="translate(398.444283 322.182437)scale(0.1 -0.1)">
       <use xlink:href="#DejaVuSans-33"/>
       <use x="63.623047" xlink:href="#DejaVuSans-30"/>
       <use x="127.246094" xlink:href="#DejaVuSans-30"/>
      </g>
     </g>
    </g>
   </g>
   <g id="matplotlib.axis_8">
    <g id="ytick_11">
     <g id="line2d_56">
      <path clip-path="url(#p56174d043c)" d="M 256 295.08241 
L 414.72 295.08241 
" style="fill:none;stroke:#b0b0b0;stroke-linecap:square;stroke-width:0.8;"/>
     </g>
     <g id="line2d_57">
      <g>
       <use style="stroke:#000000;stroke-width:0.8;" x="256" xlink:href="#m278fb984d6" y="295.08241"/>
      </g>
     </g>
     <g id="text_30">
      <!-- 3 -->
      <g transform="translate(242.6375 298.881629)scale(0.1 -0.1)">
       <use xlink:href="#DejaVuSans-33"/>
      </g>
     </g>
    </g>
    <g id="ytick_12">
     <g id="line2d_58">
      <path clip-path="url(#p56174d043c)" d="M 256 255.34678 
L 414.72 255.34678 
" style="fill:none;stroke:#b0b0b0;stroke-linecap:square;stroke-width:0.8;"/>
     </g>
     <g id="line2d_59">
      <g>
       <use style="stroke:#000000;stroke-width:0.8;" x="256" xlink:href="#m278fb984d6" y="255.34678"/>
      </g>
     </g>
     <g id="text_31">
      <!-- 4 -->
      <g transform="translate(242.6375 259.145999)scale(0.1 -0.1)">
       <use xlink:href="#DejaVuSans-34"/>
      </g>
     </g>
    </g>
    <g id="ytick_13">
     <g id="line2d_60">
      <path clip-path="url(#p56174d043c)" d="M 256 215.611151 
L 414.72 215.611151 
" style="fill:none;stroke:#b0b0b0;stroke-linecap:square;stroke-width:0.8;"/>
     </g>
     <g id="line2d_61">
      <g>
       <use style="stroke:#000000;stroke-width:0.8;" x="256" xlink:href="#m278fb984d6" y="215.611151"/>
      </g>
     </g>
     <g id="text_32">
      <!-- 5 -->
      <g transform="translate(242.6375 219.41037)scale(0.1 -0.1)">
       <use xlink:href="#DejaVuSans-35"/>
      </g>
     </g>
    </g>
   </g>
   <g id="line2d_62">
    <path clip-path="url(#p56174d043c)" d="M 263.214545 194.688 
L 263.697124 197.15606 
L 265.144859 207.115394 
L 266.592593 216.827204 
L 267.55775 221.845687 
L 268.522907 225.832642 
L 269.970642 230.451254 
L 271.900955 234.852215 
L 274.313846 238.937241 
L 277.691894 242.976475 
L 278.174472 243.302476 
L 278.657051 243.88833 
L 280.104786 245.117321 
L 280.587364 245.605695 
L 281.069942 245.862987 
L 282.035099 246.769132 
L 282.517677 247.053079 
L 283.000255 247.593239 
L 283.482834 247.537762 
L 284.44799 248.509367 
L 285.413147 249.157703 
L 286.378303 249.967104 
L 287.34346 250.379278 
L 287.826038 250.609788 
L 288.308617 251.043185 
L 289.273773 251.522223 
L 289.756351 252.081546 
L 290.23893 252.367366 
L 290.721508 252.444424 
L 291.204086 252.828794 
L 291.686665 252.968895 
L 292.651821 253.595684 
L 293.1344 253.570262 
L 293.616978 254.278561 
L 294.099556 254.353957 
L 294.582134 254.316786 
L 295.064713 255.093714 
L 295.547291 255.018764 
L 296.512448 256.008924 
L 296.995026 255.815895 
L 297.477604 255.796793 
L 297.960182 256.457493 
L 298.442761 256.689968 
L 298.925339 256.775936 
L 299.407917 257.392709 
L 299.890496 257.607203 
L 300.373074 257.610638 
L 300.855652 258.068793 
L 301.820809 258.552049 
L 302.785965 258.971461 
L 303.268544 259.398234 
L 303.751122 259.354306 
L 304.2337 259.900499 
L 304.716279 260.081662 
L 305.198857 260.75091 
L 305.681435 260.981633 
L 306.164013 260.95787 
L 306.646592 261.24058 
L 307.12917 261.674052 
L 307.611748 261.84074 
L 308.094327 261.818159 
L 308.576905 262.371826 
L 309.059483 262.152816 
L 309.542061 262.964568 
L 310.02464 262.902246 
L 310.507218 263.444892 
L 310.989796 263.309002 
L 311.472375 263.666337 
L 311.954953 264.437753 
L 312.437531 264.376735 
L 313.402688 264.747642 
L 313.885266 265.341066 
L 314.367844 265.435251 
L 314.850423 265.808027 
L 315.333001 265.611982 
L 315.815579 266.222653 
L 316.780736 266.73474 
L 317.263314 266.614413 
L 317.745892 267.233169 
L 318.228471 267.593115 
L 318.711049 267.731135 
L 319.193627 268.027805 
L 319.676206 268.17915 
L 320.158784 268.641594 
L 320.641362 268.699234 
L 321.12394 268.878815 
L 321.606519 269.320814 
L 322.089097 269.535491 
L 322.571675 269.206322 
L 323.054254 269.677867 
L 324.01941 270.024318 
L 324.501988 270.337747 
L 324.984567 270.999774 
L 325.467145 270.597922 
L 326.432302 271.748376 
L 326.91488 271.949608 
L 327.397458 272.462561 
L 327.880036 272.662188 
L 328.362615 272.394402 
L 328.845193 273.040116 
L 329.327771 273.205152 
L 329.81035 273.582815 
L 330.292928 273.244632 
L 330.775506 273.509175 
L 331.258085 274.427688 
L 331.740663 274.336384 
L 332.223241 274.818757 
L 332.705819 274.668602 
L 333.188398 275.105182 
L 333.670976 275.918671 
L 334.153554 275.658772 
L 334.636133 275.718258 
L 335.118711 275.610867 
L 335.601289 276.69196 
L 336.083867 276.773455 
L 336.566446 276.680861 
L 337.049024 276.924888 
L 338.496759 277.983723 
L 338.979337 277.940603 
L 339.944494 278.228828 
L 340.427072 278.457212 
L 340.90965 279.255139 
L 341.392229 279.228142 
L 341.874807 279.515611 
L 342.357385 279.353803 
L 342.839964 279.502759 
L 343.322542 279.782936 
L 343.80512 280.46043 
L 344.287698 280.603247 
L 344.770277 280.600781 
L 345.252855 281.021957 
L 346.218012 281.45879 
L 346.70059 281.754446 
L 347.183168 282.197625 
L 347.665746 281.890774 
L 348.630903 282.377288 
L 349.113481 283.046721 
L 349.59606 283.38634 
L 350.078638 282.954805 
L 350.561216 283.052505 
L 351.043794 283.426893 
L 351.526373 283.214076 
L 352.008951 283.946062 
L 352.491529 284.380168 
L 352.974108 284.329439 
L 353.456686 283.685552 
L 353.939264 284.642144 
L 354.421843 284.882754 
L 354.904421 284.925442 
L 355.869577 285.190473 
L 356.352156 285.039252 
L 357.317312 286.038184 
L 357.799891 286.112981 
L 358.282469 286.349777 
L 358.765047 286.946543 
L 359.247625 287.066438 
L 360.212782 286.905239 
L 361.177939 287.681926 
L 361.660517 288.224653 
L 362.625673 288.073227 
L 363.108252 288.482037 
L 363.59083 288.235111 
L 364.555987 289.117088 
L 365.038565 289.202146 
L 365.521143 289.413994 
L 366.003721 289.362068 
L 366.4863 289.814375 
L 366.968878 289.453958 
L 367.451456 289.653834 
L 367.934035 290.177362 
L 368.416613 289.989504 
L 368.899191 290.697973 
L 369.864348 290.907199 
L 370.346926 290.787138 
L 370.829504 290.929779 
L 371.312083 290.48968 
L 371.794661 291.396553 
L 372.759818 291.924603 
L 373.242396 291.331557 
L 373.724974 291.788308 
L 374.207552 291.924876 
L 374.690131 292.63297 
L 375.172709 292.286209 
L 375.655287 292.888219 
L 376.137866 292.337274 
L 376.620444 292.653576 
L 377.103022 293.201081 
L 377.5856 293.167097 
L 378.550757 293.418487 
L 379.033335 294.144106 
L 379.515914 293.861632 
L 379.998492 292.693735 
L 380.48107 294.099048 
L 380.963649 294.287212 
L 381.928805 295.05495 
L 382.411383 295.203349 
L 382.893962 295.142467 
L 383.37654 295.363064 
L 383.859118 294.979678 
L 384.341697 295.411584 
L 385.789431 295.934427 
L 386.27201 295.595094 
L 386.754588 296.809085 
L 387.237166 296.284425 
L 387.719745 296.811646 
L 388.202323 296.344145 
L 388.684901 296.801648 
L 389.167479 297.454318 
L 389.650058 297.485475 
L 390.132636 297.039777 
L 391.097793 297.746839 
L 391.580371 297.574046 
L 392.062949 297.138344 
L 392.545528 298.702617 
L 393.028106 297.825045 
L 393.993262 298.149322 
L 394.475841 298.599578 
L 394.958419 298.536154 
L 395.440997 299.034246 
L 395.923576 299.325806 
L 396.406154 298.713011 
L 396.888732 299.011141 
L 397.37131 298.732355 
L 397.853889 299.39541 
L 398.336467 298.652465 
L 398.819045 299.587858 
L 399.301624 300.249052 
L 399.784202 299.693737 
L 400.26678 300.436161 
L 400.749358 300.134738 
L 401.231937 300.332642 
L 401.714515 300.799354 
L 402.679672 300.741368 
L 403.16225 301.152385 
L 403.644828 300.667329 
L 404.127407 300.843794 
L 404.609985 301.613093 
L 405.092563 301.880851 
L 405.575141 301.481823 
L 406.05772 301.291321 
L 406.540298 301.752181 
L 407.505455 302.208 
L 407.505455 302.208 
" style="fill:none;stroke:#1f77b4;stroke-linecap:square;stroke-width:1.5;"/>
   </g>
   <g id="patch_18">
    <path d="M 256 307.584 
L 256 189.312 
" style="fill:none;stroke:#000000;stroke-linecap:square;stroke-linejoin:miter;stroke-width:0.8;"/>
   </g>
   <g id="patch_19">
    <path d="M 414.72 307.584 
L 414.72 189.312 
" style="fill:none;stroke:#000000;stroke-linecap:square;stroke-linejoin:miter;stroke-width:0.8;"/>
   </g>
   <g id="patch_20">
    <path d="M 256 307.584 
L 414.72 307.584 
" style="fill:none;stroke:#000000;stroke-linecap:square;stroke-linejoin:miter;stroke-width:0.8;"/>
   </g>
   <g id="patch_21">
    <path d="M 256 189.312 
L 414.72 189.312 
" style="fill:none;stroke:#000000;stroke-linecap:square;stroke-linejoin:miter;stroke-width:0.8;"/>
   </g>
   <g id="text_33">
    <!-- val_loss -->
    <g transform="translate(311.875625 183.312)scale(0.12 -0.12)">
     <use xlink:href="#DejaVuSans-76"/>
     <use x="59.179688" xlink:href="#DejaVuSans-61"/>
     <use x="120.458984" xlink:href="#DejaVuSans-6c"/>
     <use x="148.242188" xlink:href="#DejaVuSans-5f"/>
     <use x="198.242188" xlink:href="#DejaVuSans-6c"/>
     <use x="226.025391" xlink:href="#DejaVuSans-6f"/>
     <use x="287.207031" xlink:href="#DejaVuSans-73"/>
     <use x="339.306641" xlink:href="#DejaVuSans-73"/>
    </g>
   </g>
  </g>
  <g id="text_34">
   <!-- benchmark 20171021_141717 -->
   <defs>
    <path d="M 48.6875 27.296875 
Q 48.6875 37.203125 44.609375 42.84375 
Q 40.53125 48.484375 33.40625 48.484375 
Q 26.265625 48.484375 22.1875 42.84375 
Q 18.109375 37.203125 18.109375 27.296875 
Q 18.109375 17.390625 22.1875 11.75 
Q 26.265625 6.109375 33.40625 6.109375 
Q 40.53125 6.109375 44.609375 11.75 
Q 48.6875 17.390625 48.6875 27.296875 
z
M 18.109375 46.390625 
Q 20.953125 51.265625 25.265625 53.625 
Q 29.59375 56 35.59375 56 
Q 45.5625 56 51.78125 48.09375 
Q 58.015625 40.1875 58.015625 27.296875 
Q 58.015625 14.40625 51.78125 6.484375 
Q 45.5625 -1.421875 35.59375 -1.421875 
Q 29.59375 -1.421875 25.265625 0.953125 
Q 20.953125 3.328125 18.109375 8.203125 
L 18.109375 0 
L 9.078125 0 
L 9.078125 75.984375 
L 18.109375 75.984375 
z
" id="DejaVuSans-62"/>
    <path d="M 56.203125 29.59375 
L 56.203125 25.203125 
L 14.890625 25.203125 
Q 15.484375 15.921875 20.484375 11.0625 
Q 25.484375 6.203125 34.421875 6.203125 
Q 39.59375 6.203125 44.453125 7.46875 
Q 49.3125 8.734375 54.109375 11.28125 
L 54.109375 2.78125 
Q 49.265625 0.734375 44.1875 -0.34375 
Q 39.109375 -1.421875 33.890625 -1.421875 
Q 20.796875 -1.421875 13.15625 6.1875 
Q 5.515625 13.8125 5.515625 26.8125 
Q 5.515625 40.234375 12.765625 48.109375 
Q 20.015625 56 32.328125 56 
Q 43.359375 56 49.78125 48.890625 
Q 56.203125 41.796875 56.203125 29.59375 
z
M 47.21875 32.234375 
Q 47.125 39.59375 43.09375 43.984375 
Q 39.0625 48.390625 32.421875 48.390625 
Q 24.90625 48.390625 20.390625 44.140625 
Q 15.875 39.890625 15.1875 32.171875 
z
" id="DejaVuSans-65"/>
    <path d="M 54.890625 33.015625 
L 54.890625 0 
L 45.90625 0 
L 45.90625 32.71875 
Q 45.90625 40.484375 42.875 44.328125 
Q 39.84375 48.1875 33.796875 48.1875 
Q 26.515625 48.1875 22.3125 43.546875 
Q 18.109375 38.921875 18.109375 30.90625 
L 18.109375 0 
L 9.078125 0 
L 9.078125 54.6875 
L 18.109375 54.6875 
L 18.109375 46.1875 
Q 21.34375 51.125 25.703125 53.5625 
Q 30.078125 56 35.796875 56 
Q 45.21875 56 50.046875 50.171875 
Q 54.890625 44.34375 54.890625 33.015625 
z
" id="DejaVuSans-6e"/>
    <path d="M 54.890625 33.015625 
L 54.890625 0 
L 45.90625 0 
L 45.90625 32.71875 
Q 45.90625 40.484375 42.875 44.328125 
Q 39.84375 48.1875 33.796875 48.1875 
Q 26.515625 48.1875 22.3125 43.546875 
Q 18.109375 38.921875 18.109375 30.90625 
L 18.109375 0 
L 9.078125 0 
L 9.078125 75.984375 
L 18.109375 75.984375 
L 18.109375 46.1875 
Q 21.34375 51.125 25.703125 53.5625 
Q 30.078125 56 35.796875 56 
Q 45.21875 56 50.046875 50.171875 
Q 54.890625 44.34375 54.890625 33.015625 
z
" id="DejaVuSans-68"/>
    <path d="M 52 44.1875 
Q 55.375 50.25 60.0625 53.125 
Q 64.75 56 71.09375 56 
Q 79.640625 56 84.28125 50.015625 
Q 88.921875 44.046875 88.921875 33.015625 
L 88.921875 0 
L 79.890625 0 
L 79.890625 32.71875 
Q 79.890625 40.578125 77.09375 44.375 
Q 74.3125 48.1875 68.609375 48.1875 
Q 61.625 48.1875 57.5625 43.546875 
Q 53.515625 38.921875 53.515625 30.90625 
L 53.515625 0 
L 44.484375 0 
L 44.484375 32.71875 
Q 44.484375 40.625 41.703125 44.40625 
Q 38.921875 48.1875 33.109375 48.1875 
Q 26.21875 48.1875 22.15625 43.53125 
Q 18.109375 38.875 18.109375 30.90625 
L 18.109375 0 
L 9.078125 0 
L 9.078125 54.6875 
L 18.109375 54.6875 
L 18.109375 46.1875 
Q 21.1875 51.21875 25.484375 53.609375 
Q 29.78125 56 35.6875 56 
Q 41.65625 56 45.828125 52.96875 
Q 50 49.953125 52 44.1875 
z
" id="DejaVuSans-6d"/>
    <path d="M 41.109375 46.296875 
Q 39.59375 47.171875 37.8125 47.578125 
Q 36.03125 48 33.890625 48 
Q 26.265625 48 22.1875 43.046875 
Q 18.109375 38.09375 18.109375 28.8125 
L 18.109375 0 
L 9.078125 0 
L 9.078125 54.6875 
L 18.109375 54.6875 
L 18.109375 46.1875 
Q 20.953125 51.171875 25.484375 53.578125 
Q 30.03125 56 36.53125 56 
Q 37.453125 56 38.578125 55.875 
Q 39.703125 55.765625 41.0625 55.515625 
z
" id="DejaVuSans-72"/>
    <path d="M 9.078125 75.984375 
L 18.109375 75.984375 
L 18.109375 31.109375 
L 44.921875 54.6875 
L 56.390625 54.6875 
L 27.390625 29.109375 
L 57.625 0 
L 45.90625 0 
L 18.109375 26.703125 
L 18.109375 0 
L 9.078125 0 
z
" id="DejaVuSans-6b"/>
    <path id="DejaVuSans-20"/>
    <path d="M 8.203125 72.90625 
L 55.078125 72.90625 
L 55.078125 68.703125 
L 28.609375 0 
L 18.3125 0 
L 43.21875 64.59375 
L 8.203125 64.59375 
z
" id="DejaVuSans-37"/>
   </defs>
   <g transform="translate(138.180938 16.030125)scale(0.12 -0.12)">
    <use xlink:href="#DejaVuSans-62"/>
    <use x="63.476562" xlink:href="#DejaVuSans-65"/>
    <use x="125" xlink:href="#DejaVuSans-6e"/>
    <use x="188.378906" xlink:href="#DejaVuSans-63"/>
    <use x="243.359375" xlink:href="#DejaVuSans-68"/>
    <use x="306.738281" xlink:href="#DejaVuSans-6d"/>
    <use x="404.150391" xlink:href="#DejaVuSans-61"/>
    <use x="465.429688" xlink:href="#DejaVuSans-72"/>
    <use x="506.542969" xlink:href="#DejaVuSans-6b"/>
    <use x="564.453125" xlink:href="#DejaVuSans-20"/>
    <use x="596.240234" xlink:href="#DejaVuSans-32"/>
    <use x="659.863281" xlink:href="#DejaVuSans-30"/>
    <use x="723.486328" xlink:href="#DejaVuSans-31"/>
    <use x="787.109375" xlink:href="#DejaVuSans-37"/>
    <use x="850.732422" xlink:href="#DejaVuSans-31"/>
    <use x="914.355469" xlink:href="#DejaVuSans-30"/>
    <use x="977.978516" xlink:href="#DejaVuSans-32"/>
    <use x="1041.601562" xlink:href="#DejaVuSans-31"/>
    <use x="1105.224609" xlink:href="#DejaVuSans-5f"/>
    <use x="1155.224609" xlink:href="#DejaVuSans-31"/>
    <use x="1218.847656" xlink:href="#DejaVuSans-34"/>
    <use x="1282.470703" xlink:href="#DejaVuSans-31"/>
    <use x="1346.09375" xlink:href="#DejaVuSans-37"/>
    <use x="1409.716797" xlink:href="#DejaVuSans-31"/>
    <use x="1473.339844" xlink:href="#DejaVuSans-37"/>
   </g>
  </g>
 </g>
 <defs>
  <clipPath id="p0a16c536ad">
   <rect height="118.272" width="158.72" x="57.6" y="41.472"/>
  </clipPath>
  <clipPath id="p6d359b8eb5">
   <rect height="118.272" width="158.72" x="256" y="41.472"/>
  </clipPath>
  <clipPath id="pb051b183ac">
   <rect height="118.272" width="158.72" x="57.6" y="189.312"/>
  </clipPath>
  <clipPath id="p56174d043c">
   <rect height="118.272" width="158.72" x="256" y="189.312"/>
  </clipPath>
 </defs>
</svg>
