<?xml version="1.0" encoding="utf-8" standalone="no"?>
<!DOCTYPE svg PUBLIC "-//W3C//DTD SVG 1.1//EN"
  "http://www.w3.org/Graphics/SVG/1.1/DTD/svg11.dtd">
<!-- Created with matplotlib (http://matplotlib.org/) -->
<svg height="345pt" version="1.1" viewBox="0 0 460 345" width="460pt" xmlns="http://www.w3.org/2000/svg" xmlns:xlink="http://www.w3.org/1999/xlink">
 <defs>
  <style type="text/css">
*{stroke-linecap:butt;stroke-linejoin:round;}
  </style>
 </defs>
 <g id="figure_1">
  <g id="patch_1">
   <path d="M 0 345.6 
L 460.8 345.6 
L 460.8 0 
L 0 0 
z
" style="fill:#ffffff;"/>
  </g>
  <g id="axes_1">
   <g id="patch_2">
    <path d="M 57.6 159.744 
L 216.32 159.744 
L 216.32 41.472 
L 57.6 41.472 
z
" style="fill:#ffffff;"/>
   </g>
   <g id="matplotlib.axis_1">
    <g id="xtick_1">
     <g id="line2d_1">
      <path clip-path="url(#pbf272df325)" d="M 64.814545 159.744 
L 64.814545 41.472 
" style="fill:none;stroke:#b0b0b0;stroke-linecap:square;stroke-width:0.8;"/>
     </g>
     <g id="line2d_2">
      <defs>
       <path d="M 0 0 
L 0 3.5 
" id="mec8a3b82d5" style="stroke:#000000;stroke-width:0.8;"/>
      </defs>
      <g>
       <use style="stroke:#000000;stroke-width:0.8;" x="64.814545" xlink:href="#mec8a3b82d5" y="159.744"/>
      </g>
     </g>
     <g id="text_1">
      <!-- 0 -->
      <defs>
       <path d="M 31.78125 66.40625 
Q 24.171875 66.40625 20.328125 58.90625 
Q 16.5 51.421875 16.5 36.375 
Q 16.5 21.390625 20.328125 13.890625 
Q 24.171875 6.390625 31.78125 6.390625 
Q 39.453125 6.390625 43.28125 13.890625 
Q 47.125 21.390625 47.125 36.375 
Q 47.125 51.421875 43.28125 58.90625 
Q 39.453125 66.40625 31.78125 66.40625 
z
M 31.78125 74.21875 
Q 44.046875 74.21875 50.515625 64.515625 
Q 56.984375 54.828125 56.984375 36.375 
Q 56.984375 17.96875 50.515625 8.265625 
Q 44.046875 -1.421875 31.78125 -1.421875 
Q 19.53125 -1.421875 13.0625 8.265625 
Q 6.59375 17.96875 6.59375 36.375 
Q 6.59375 54.828125 13.0625 64.515625 
Q 19.53125 74.21875 31.78125 74.21875 
z
" id="DejaVuSans-30"/>
      </defs>
      <g transform="translate(61.633295 174.342437)scale(0.1 -0.1)">
       <use xlink:href="#DejaVuSans-30"/>
      </g>
     </g>
    </g>
    <g id="xtick_2">
     <g id="line2d_3">
      <path clip-path="url(#pbf272df325)" d="M 113.072375 159.744 
L 113.072375 41.472 
" style="fill:none;stroke:#b0b0b0;stroke-linecap:square;stroke-width:0.8;"/>
     </g>
     <g id="line2d_4">
      <g>
       <use style="stroke:#000000;stroke-width:0.8;" x="113.072375" xlink:href="#mec8a3b82d5" y="159.744"/>
      </g>
     </g>
     <g id="text_2">
      <!-- 100 -->
      <defs>
       <path d="M 12.40625 8.296875 
L 28.515625 8.296875 
L 28.515625 63.921875 
L 10.984375 60.40625 
L 10.984375 69.390625 
L 28.421875 72.90625 
L 38.28125 72.90625 
L 38.28125 8.296875 
L 54.390625 8.296875 
L 54.390625 0 
L 12.40625 0 
z
" id="DejaVuSans-31"/>
      </defs>
      <g transform="translate(103.528625 174.342437)scale(0.1 -0.1)">
       <use xlink:href="#DejaVuSans-31"/>
       <use x="63.623047" xlink:href="#DejaVuSans-30"/>
       <use x="127.246094" xlink:href="#DejaVuSans-30"/>
      </g>
     </g>
    </g>
    <g id="xtick_3">
     <g id="line2d_5">
      <path clip-path="url(#pbf272df325)" d="M 161.330204 159.744 
L 161.330204 41.472 
" style="fill:none;stroke:#b0b0b0;stroke-linecap:square;stroke-width:0.8;"/>
     </g>
     <g id="line2d_6">
      <g>
       <use style="stroke:#000000;stroke-width:0.8;" x="161.330204" xlink:href="#mec8a3b82d5" y="159.744"/>
      </g>
     </g>
     <g id="text_3">
      <!-- 200 -->
      <defs>
       <path d="M 19.1875 8.296875 
L 53.609375 8.296875 
L 53.609375 0 
L 7.328125 0 
L 7.328125 8.296875 
Q 12.9375 14.109375 22.625 23.890625 
Q 32.328125 33.6875 34.8125 36.53125 
Q 39.546875 41.84375 41.421875 45.53125 
Q 43.3125 49.21875 43.3125 52.78125 
Q 43.3125 58.59375 39.234375 62.25 
Q 35.15625 65.921875 28.609375 65.921875 
Q 23.96875 65.921875 18.8125 64.3125 
Q 13.671875 62.703125 7.8125 59.421875 
L 7.8125 69.390625 
Q 13.765625 71.78125 18.9375 73 
Q 24.125 74.21875 28.421875 74.21875 
Q 39.75 74.21875 46.484375 68.546875 
Q 53.21875 62.890625 53.21875 53.421875 
Q 53.21875 48.921875 51.53125 44.890625 
Q 49.859375 40.875 45.40625 35.40625 
Q 44.1875 33.984375 37.640625 27.21875 
Q 31.109375 20.453125 19.1875 8.296875 
z
" id="DejaVuSans-32"/>
      </defs>
      <g transform="translate(151.786454 174.342437)scale(0.1 -0.1)">
       <use xlink:href="#DejaVuSans-32"/>
       <use x="63.623047" xlink:href="#DejaVuSans-30"/>
       <use x="127.246094" xlink:href="#DejaVuSans-30"/>
      </g>
     </g>
    </g>
    <g id="xtick_4">
     <g id="line2d_7">
      <path clip-path="url(#pbf272df325)" d="M 209.588033 159.744 
L 209.588033 41.472 
" style="fill:none;stroke:#b0b0b0;stroke-linecap:square;stroke-width:0.8;"/>
     </g>
     <g id="line2d_8">
      <g>
       <use style="stroke:#000000;stroke-width:0.8;" x="209.588033" xlink:href="#mec8a3b82d5" y="159.744"/>
      </g>
     </g>
     <g id="text_4">
      <!-- 300 -->
      <defs>
       <path d="M 40.578125 39.3125 
Q 47.65625 37.796875 51.625 33 
Q 55.609375 28.21875 55.609375 21.1875 
Q 55.609375 10.40625 48.1875 4.484375 
Q 40.765625 -1.421875 27.09375 -1.421875 
Q 22.515625 -1.421875 17.65625 -0.515625 
Q 12.796875 0.390625 7.625 2.203125 
L 7.625 11.71875 
Q 11.71875 9.328125 16.59375 8.109375 
Q 21.484375 6.890625 26.8125 6.890625 
Q 36.078125 6.890625 40.9375 10.546875 
Q 45.796875 14.203125 45.796875 21.1875 
Q 45.796875 27.640625 41.28125 31.265625 
Q 36.765625 34.90625 28.71875 34.90625 
L 20.21875 34.90625 
L 20.21875 43.015625 
L 29.109375 43.015625 
Q 36.375 43.015625 40.234375 45.921875 
Q 44.09375 48.828125 44.09375 54.296875 
Q 44.09375 59.90625 40.109375 62.90625 
Q 36.140625 65.921875 28.71875 65.921875 
Q 24.65625 65.921875 20.015625 65.03125 
Q 15.375 64.15625 9.8125 62.3125 
L 9.8125 71.09375 
Q 15.4375 72.65625 20.34375 73.4375 
Q 25.25 74.21875 29.59375 74.21875 
Q 40.828125 74.21875 47.359375 69.109375 
Q 53.90625 64.015625 53.90625 55.328125 
Q 53.90625 49.265625 50.4375 45.09375 
Q 46.96875 40.921875 40.578125 39.3125 
z
" id="DejaVuSans-33"/>
      </defs>
      <g transform="translate(200.044283 174.342437)scale(0.1 -0.1)">
       <use xlink:href="#DejaVuSans-33"/>
       <use x="63.623047" xlink:href="#DejaVuSans-30"/>
       <use x="127.246094" xlink:href="#DejaVuSans-30"/>
      </g>
     </g>
    </g>
   </g>
   <g id="matplotlib.axis_2">
    <g id="ytick_1">
     <g id="line2d_9">
      <path clip-path="url(#pbf272df325)" d="M 57.6 154.755904 
L 216.32 154.755904 
" style="fill:none;stroke:#b0b0b0;stroke-linecap:square;stroke-width:0.8;"/>
     </g>
     <g id="line2d_10">
      <defs>
       <path d="M 0 0 
L -3.5 0 
" id="mb09fc6f166" style="stroke:#000000;stroke-width:0.8;"/>
      </defs>
      <g>
       <use style="stroke:#000000;stroke-width:0.8;" x="57.6" xlink:href="#mb09fc6f166" y="154.755904"/>
      </g>
     </g>
     <g id="text_5">
      <!-- 0.00 -->
      <defs>
       <path d="M 10.6875 12.40625 
L 21 12.40625 
L 21 0 
L 10.6875 0 
z
" id="DejaVuSans-2e"/>
      </defs>
      <g transform="translate(28.334375 158.555123)scale(0.1 -0.1)">
       <use xlink:href="#DejaVuSans-30"/>
       <use x="63.623047" xlink:href="#DejaVuSans-2e"/>
       <use x="95.410156" xlink:href="#DejaVuSans-30"/>
       <use x="159.033203" xlink:href="#DejaVuSans-30"/>
      </g>
     </g>
    </g>
    <g id="ytick_2">
     <g id="line2d_11">
      <path clip-path="url(#pbf272df325)" d="M 57.6 127.673136 
L 216.32 127.673136 
" style="fill:none;stroke:#b0b0b0;stroke-linecap:square;stroke-width:0.8;"/>
     </g>
     <g id="line2d_12">
      <g>
       <use style="stroke:#000000;stroke-width:0.8;" x="57.6" xlink:href="#mb09fc6f166" y="127.673136"/>
      </g>
     </g>
     <g id="text_6">
      <!-- 0.25 -->
      <defs>
       <path d="M 10.796875 72.90625 
L 49.515625 72.90625 
L 49.515625 64.59375 
L 19.828125 64.59375 
L 19.828125 46.734375 
Q 21.96875 47.46875 24.109375 47.828125 
Q 26.265625 48.1875 28.421875 48.1875 
Q 40.625 48.1875 47.75 41.5 
Q 54.890625 34.8125 54.890625 23.390625 
Q 54.890625 11.625 47.5625 5.09375 
Q 40.234375 -1.421875 26.90625 -1.421875 
Q 22.3125 -1.421875 17.546875 -0.640625 
Q 12.796875 0.140625 7.71875 1.703125 
L 7.71875 11.625 
Q 12.109375 9.234375 16.796875 8.0625 
Q 21.484375 6.890625 26.703125 6.890625 
Q 35.15625 6.890625 40.078125 11.328125 
Q 45.015625 15.765625 45.015625 23.390625 
Q 45.015625 31 40.078125 35.4375 
Q 35.15625 39.890625 26.703125 39.890625 
Q 22.75 39.890625 18.8125 39.015625 
Q 14.890625 38.140625 10.796875 36.28125 
z
" id="DejaVuSans-35"/>
      </defs>
      <g transform="translate(28.334375 131.472355)scale(0.1 -0.1)">
       <use xlink:href="#DejaVuSans-30"/>
       <use x="63.623047" xlink:href="#DejaVuSans-2e"/>
       <use x="95.410156" xlink:href="#DejaVuSans-32"/>
       <use x="159.033203" xlink:href="#DejaVuSans-35"/>
      </g>
     </g>
    </g>
    <g id="ytick_3">
     <g id="line2d_13">
      <path clip-path="url(#pbf272df325)" d="M 57.6 100.590368 
L 216.32 100.590368 
" style="fill:none;stroke:#b0b0b0;stroke-linecap:square;stroke-width:0.8;"/>
     </g>
     <g id="line2d_14">
      <g>
       <use style="stroke:#000000;stroke-width:0.8;" x="57.6" xlink:href="#mb09fc6f166" y="100.590368"/>
      </g>
     </g>
     <g id="text_7">
      <!-- 0.50 -->
      <g transform="translate(28.334375 104.389587)scale(0.1 -0.1)">
       <use xlink:href="#DejaVuSans-30"/>
       <use x="63.623047" xlink:href="#DejaVuSans-2e"/>
       <use x="95.410156" xlink:href="#DejaVuSans-35"/>
       <use x="159.033203" xlink:href="#DejaVuSans-30"/>
      </g>
     </g>
    </g>
    <g id="ytick_4">
     <g id="line2d_15">
      <path clip-path="url(#pbf272df325)" d="M 57.6 73.5076 
L 216.32 73.5076 
" style="fill:none;stroke:#b0b0b0;stroke-linecap:square;stroke-width:0.8;"/>
     </g>
     <g id="line2d_16">
      <g>
       <use style="stroke:#000000;stroke-width:0.8;" x="57.6" xlink:href="#mb09fc6f166" y="73.5076"/>
      </g>
     </g>
     <g id="text_8">
      <!-- 0.75 -->
      <defs>
       <path d="M 8.203125 72.90625 
L 55.078125 72.90625 
L 55.078125 68.703125 
L 28.609375 0 
L 18.3125 0 
L 43.21875 64.59375 
L 8.203125 64.59375 
z
" id="DejaVuSans-37"/>
      </defs>
      <g transform="translate(28.334375 77.306819)scale(0.1 -0.1)">
       <use xlink:href="#DejaVuSans-30"/>
       <use x="63.623047" xlink:href="#DejaVuSans-2e"/>
       <use x="95.410156" xlink:href="#DejaVuSans-37"/>
       <use x="159.033203" xlink:href="#DejaVuSans-35"/>
      </g>
     </g>
    </g>
    <g id="ytick_5">
     <g id="line2d_17">
      <path clip-path="url(#pbf272df325)" d="M 57.6 46.424832 
L 216.32 46.424832 
" style="fill:none;stroke:#b0b0b0;stroke-linecap:square;stroke-width:0.8;"/>
     </g>
     <g id="line2d_18">
      <g>
       <use style="stroke:#000000;stroke-width:0.8;" x="57.6" xlink:href="#mb09fc6f166" y="46.424832"/>
      </g>
     </g>
     <g id="text_9">
      <!-- 1.00 -->
      <g transform="translate(28.334375 50.22405)scale(0.1 -0.1)">
       <use xlink:href="#DejaVuSans-31"/>
       <use x="63.623047" xlink:href="#DejaVuSans-2e"/>
       <use x="95.410156" xlink:href="#DejaVuSans-30"/>
       <use x="159.033203" xlink:href="#DejaVuSans-30"/>
      </g>
     </g>
    </g>
   </g>
   <g id="line2d_19">
    <path clip-path="url(#pbf272df325)" d="M 64.814545 154.368 
L 65.297124 153.980096 
L 65.779702 151.511614 
L 66.744859 143.894586 
L 69.15775 119.632938 
L 70.605485 109.159525 
L 71.088063 104.504673 
L 71.570642 102.247776 
L 72.05322 98.827166 
L 72.535798 96.217628 
L 73.018376 92.72649 
L 73.500955 90.18748 
L 73.983533 88.247959 
L 74.466111 85.462101 
L 74.94869 84.016276 
L 75.431268 80.630931 
L 75.913846 80.384082 
L 76.396424 78.444561 
L 76.879003 75.693968 
L 77.361581 74.988688 
L 77.844159 72.978638 
L 78.326738 72.414414 
L 78.809316 70.192781 
L 79.291894 68.78222 
L 79.774472 69.769613 
L 80.257051 67.054283 
L 80.739629 66.560587 
L 81.704786 64.83265 
L 82.187364 64.48001 
L 84.600255 60.70676 
L 85.082834 60.318856 
L 87.013147 57.779847 
L 87.978303 57.074567 
L 88.94346 57.286151 
L 89.426038 56.122438 
L 89.908617 56.334022 
L 90.391195 55.417158 
L 90.873773 55.805062 
L 91.356351 55.734534 
L 91.83893 55.170309 
L 92.321508 54.782405 
L 92.804086 53.865541 
L 93.286665 54.218181 
L 93.769243 53.371845 
L 94.251821 53.653957 
L 94.7344 53.124996 
L 95.216978 53.301316 
L 95.699556 53.054468 
L 96.182134 53.230788 
L 96.664713 52.384452 
L 97.147291 52.6313 
L 98.595026 52.172868 
L 99.077604 51.538115 
L 99.560182 51.538116 
L 100.042761 51.749699 
L 100.525339 51.643907 
L 101.490496 50.832835 
L 101.973074 51.256003 
L 102.455652 51.467587 
L 102.93823 51.114947 
L 103.420809 50.303874 
L 103.903387 50.374403 
L 104.868544 51.220739 
L 105.351122 50.515459 
L 105.8337 50.585987 
L 106.316279 50.515459 
L 107.281435 49.598594 
L 107.764013 50.26861 
L 108.246592 49.669122 
L 108.72917 50.374402 
L 109.211748 49.669122 
L 109.694327 50.162818 
L 110.176905 50.409667 
L 110.659483 49.669122 
L 112.107218 49.774914 
L 113.072375 48.999106 
L 114.037531 49.38701 
L 114.520109 48.999106 
L 115.002688 48.999106 
L 115.485266 49.281218 
L 115.967844 49.774914 
L 116.450423 49.633858 
L 116.933001 49.351746 
L 117.415579 48.822785 
L 118.380736 49.38701 
L 118.863314 49.140162 
L 119.828471 49.104898 
L 120.311049 48.716993 
L 120.793627 48.999106 
L 121.276206 48.893314 
L 121.758784 49.38701 
L 122.241362 48.540673 
L 123.689097 49.104898 
L 124.171675 48.575937 
L 124.654254 48.646465 
L 125.136832 48.258561 
L 125.61941 48.223297 
L 126.101988 48.364353 
L 126.584567 48.188033 
L 127.067145 48.611201 
L 127.549723 48.152769 
L 128.032302 48.505409 
L 128.51488 48.575937 
L 128.997458 48.152769 
L 129.480036 48.575937 
L 129.962615 48.258561 
L 130.927771 48.293825 
L 131.41035 48.011713 
L 131.892928 48.505409 
L 132.375506 47.870657 
L 132.858085 48.329089 
L 133.340663 48.082241 
L 133.823241 48.117505 
L 134.305819 48.011713 
L 135.270976 48.258561 
L 135.753554 48.293825 
L 136.236133 48.117505 
L 136.718711 48.258561 
L 137.683867 47.941185 
L 138.166446 48.117505 
L 138.649024 47.976449 
L 139.131602 48.082241 
L 139.614181 48.399617 
L 140.096759 47.694337 
L 140.579337 48.223297 
L 141.061915 47.659073 
L 141.544494 47.976449 
L 142.992229 47.905921 
L 143.474807 47.764865 
L 143.957385 48.046977 
L 146.370277 47.800129 
L 146.852855 47.764865 
L 147.818012 47.976449 
L 148.783168 47.764865 
L 149.748325 47.905921 
L 150.230903 47.623809 
L 150.713481 47.764865 
L 151.19606 47.341696 
L 151.678638 48.188033 
L 152.161216 47.659073 
L 154.091529 47.729601 
L 154.574108 47.870657 
L 155.056686 47.447489 
L 155.539264 47.20064 
L 156.021843 47.694337 
L 156.504421 47.870657 
L 156.986999 47.271168 
L 157.952156 47.623809 
L 158.434734 47.553281 
L 159.399891 47.165376 
L 160.365047 47.941185 
L 160.847625 47.306432 
L 161.812782 47.271168 
L 162.29536 47.729601 
L 162.777939 47.482752 
L 163.260517 47.447488 
L 163.743095 47.659073 
L 164.225673 47.37696 
L 164.708252 47.729601 
L 165.19083 47.341696 
L 165.673408 47.165376 
L 166.155987 47.482753 
L 166.638565 47.37696 
L 167.121143 47.764865 
L 167.603721 47.165376 
L 168.0863 47.518017 
L 169.534035 47.553281 
L 170.016613 47.341696 
L 170.499191 47.518017 
L 170.98177 47.447489 
L 171.464348 47.165376 
L 172.429504 47.870657 
L 173.394661 47.271168 
L 173.877239 47.094848 
L 174.359818 47.553281 
L 175.324974 47.553281 
L 175.807552 47.341696 
L 176.290131 47.482753 
L 176.772709 47.094848 
L 177.255287 47.20064 
L 177.737866 47.447489 
L 178.703022 47.271168 
L 179.1856 47.094848 
L 179.668179 47.306432 
L 180.633335 47.482752 
L 181.115914 47.271168 
L 181.598492 47.659073 
L 182.08107 47.835393 
L 182.563649 47.235904 
L 183.046227 47.130112 
L 183.528805 47.306432 
L 184.011383 47.165376 
L 184.493962 47.518017 
L 184.97654 47.306432 
L 185.941697 47.37696 
L 186.424275 47.55328 
L 186.906853 46.989056 
L 187.389431 47.271168 
L 187.87201 47.306432 
L 188.354588 47.553281 
L 189.319745 47.341696 
L 190.284901 47.518017 
L 190.767479 47.20064 
L 191.250058 47.165376 
L 191.732636 47.271168 
L 192.215214 47.130112 
L 193.180371 47.764865 
L 194.145528 46.989056 
L 195.110684 47.588545 
L 195.593262 47.235904 
L 196.075841 47.447488 
L 196.558419 47.165376 
L 197.040997 47.482752 
L 197.523576 47.059584 
L 198.006154 47.02432 
L 198.488732 47.130112 
L 198.97131 47.518017 
L 199.453889 47.165376 
L 199.936467 47.341696 
L 200.419045 46.848 
L 200.901624 47.235904 
L 201.384202 47.20064 
L 201.86678 47.482752 
L 202.349358 47.37696 
L 202.831937 47.447488 
L 203.797093 47.37696 
L 204.279672 46.989056 
L 204.76225 47.20064 
L 205.244828 47.02432 
L 205.727407 47.271168 
L 206.209985 47.20064 
L 207.65772 47.623809 
L 208.140298 47.447489 
L 208.622876 47.130112 
L 209.105455 47.059584 
L 209.105455 47.059584 
" style="fill:none;stroke:#1f77b4;stroke-linecap:square;stroke-width:1.5;"/>
   </g>
   <g id="patch_3">
    <path d="M 57.6 159.744 
L 57.6 41.472 
" style="fill:none;stroke:#000000;stroke-linecap:square;stroke-linejoin:miter;stroke-width:0.8;"/>
   </g>
   <g id="patch_4">
    <path d="M 216.32 159.744 
L 216.32 41.472 
" style="fill:none;stroke:#000000;stroke-linecap:square;stroke-linejoin:miter;stroke-width:0.8;"/>
   </g>
   <g id="patch_5">
    <path d="M 57.6 159.744 
L 216.32 159.744 
" style="fill:none;stroke:#000000;stroke-linecap:square;stroke-linejoin:miter;stroke-width:0.8;"/>
   </g>
   <g id="patch_6">
    <path d="M 57.6 41.472 
L 216.32 41.472 
" style="fill:none;stroke:#000000;stroke-linecap:square;stroke-linejoin:miter;stroke-width:0.8;"/>
   </g>
   <g id="text_10">
    <!-- acc -->
    <defs>
     <path d="M 34.28125 27.484375 
Q 23.390625 27.484375 19.1875 25 
Q 14.984375 22.515625 14.984375 16.5 
Q 14.984375 11.71875 18.140625 8.90625 
Q 21.296875 6.109375 26.703125 6.109375 
Q 34.1875 6.109375 38.703125 11.40625 
Q 43.21875 16.703125 43.21875 25.484375 
L 43.21875 27.484375 
z
M 52.203125 31.203125 
L 52.203125 0 
L 43.21875 0 
L 43.21875 8.296875 
Q 40.140625 3.328125 35.546875 0.953125 
Q 30.953125 -1.421875 24.3125 -1.421875 
Q 15.921875 -1.421875 10.953125 3.296875 
Q 6 8.015625 6 15.921875 
Q 6 25.140625 12.171875 29.828125 
Q 18.359375 34.515625 30.609375 34.515625 
L 43.21875 34.515625 
L 43.21875 35.40625 
Q 43.21875 41.609375 39.140625 45 
Q 35.0625 48.390625 27.6875 48.390625 
Q 23 48.390625 18.546875 47.265625 
Q 14.109375 46.140625 10.015625 43.890625 
L 10.015625 52.203125 
Q 14.9375 54.109375 19.578125 55.046875 
Q 24.21875 56 28.609375 56 
Q 40.484375 56 46.34375 49.84375 
Q 52.203125 43.703125 52.203125 31.203125 
z
" id="DejaVuSans-61"/>
     <path d="M 48.78125 52.59375 
L 48.78125 44.1875 
Q 44.96875 46.296875 41.140625 47.34375 
Q 37.3125 48.390625 33.40625 48.390625 
Q 24.65625 48.390625 19.8125 42.84375 
Q 14.984375 37.3125 14.984375 27.296875 
Q 14.984375 17.28125 19.8125 11.734375 
Q 24.65625 6.203125 33.40625 6.203125 
Q 37.3125 6.203125 41.140625 7.25 
Q 44.96875 8.296875 48.78125 10.40625 
L 48.78125 2.09375 
Q 45.015625 0.34375 40.984375 -0.53125 
Q 36.96875 -1.421875 32.421875 -1.421875 
Q 20.0625 -1.421875 12.78125 6.34375 
Q 5.515625 14.109375 5.515625 27.296875 
Q 5.515625 40.671875 12.859375 48.328125 
Q 20.21875 56 33.015625 56 
Q 37.15625 56 41.109375 55.140625 
Q 45.0625 54.296875 48.78125 52.59375 
z
" id="DejaVuSans-63"/>
    </defs>
    <g transform="translate(126.685 35.472)scale(0.12 -0.12)">
     <use xlink:href="#DejaVuSans-61"/>
     <use x="61.279297" xlink:href="#DejaVuSans-63"/>
     <use x="116.259766" xlink:href="#DejaVuSans-63"/>
    </g>
   </g>
  </g>
  <g id="axes_2">
   <g id="patch_7">
    <path d="M 256 159.744 
L 414.72 159.744 
L 414.72 41.472 
L 256 41.472 
z
" style="fill:#ffffff;"/>
   </g>
   <g id="matplotlib.axis_3">
    <g id="xtick_5">
     <g id="line2d_20">
      <path clip-path="url(#p10fb3f7be7)" d="M 263.214545 159.744 
L 263.214545 41.472 
" style="fill:none;stroke:#b0b0b0;stroke-linecap:square;stroke-width:0.8;"/>
     </g>
     <g id="line2d_21">
      <g>
       <use style="stroke:#000000;stroke-width:0.8;" x="263.214545" xlink:href="#mec8a3b82d5" y="159.744"/>
      </g>
     </g>
     <g id="text_11">
      <!-- 0 -->
      <g transform="translate(260.033295 174.342437)scale(0.1 -0.1)">
       <use xlink:href="#DejaVuSans-30"/>
      </g>
     </g>
    </g>
    <g id="xtick_6">
     <g id="line2d_22">
      <path clip-path="url(#p10fb3f7be7)" d="M 311.472375 159.744 
L 311.472375 41.472 
" style="fill:none;stroke:#b0b0b0;stroke-linecap:square;stroke-width:0.8;"/>
     </g>
     <g id="line2d_23">
      <g>
       <use style="stroke:#000000;stroke-width:0.8;" x="311.472375" xlink:href="#mec8a3b82d5" y="159.744"/>
      </g>
     </g>
     <g id="text_12">
      <!-- 100 -->
      <g transform="translate(301.928625 174.342437)scale(0.1 -0.1)">
       <use xlink:href="#DejaVuSans-31"/>
       <use x="63.623047" xlink:href="#DejaVuSans-30"/>
       <use x="127.246094" xlink:href="#DejaVuSans-30"/>
      </g>
     </g>
    </g>
    <g id="xtick_7">
     <g id="line2d_24">
      <path clip-path="url(#p10fb3f7be7)" d="M 359.730204 159.744 
L 359.730204 41.472 
" style="fill:none;stroke:#b0b0b0;stroke-linecap:square;stroke-width:0.8;"/>
     </g>
     <g id="line2d_25">
      <g>
       <use style="stroke:#000000;stroke-width:0.8;" x="359.730204" xlink:href="#mec8a3b82d5" y="159.744"/>
      </g>
     </g>
     <g id="text_13">
      <!-- 200 -->
      <g transform="translate(350.186454 174.342437)scale(0.1 -0.1)">
       <use xlink:href="#DejaVuSans-32"/>
       <use x="63.623047" xlink:href="#DejaVuSans-30"/>
       <use x="127.246094" xlink:href="#DejaVuSans-30"/>
      </g>
     </g>
    </g>
    <g id="xtick_8">
     <g id="line2d_26">
      <path clip-path="url(#p10fb3f7be7)" d="M 407.988033 159.744 
L 407.988033 41.472 
" style="fill:none;stroke:#b0b0b0;stroke-linecap:square;stroke-width:0.8;"/>
     </g>
     <g id="line2d_27">
      <g>
       <use style="stroke:#000000;stroke-width:0.8;" x="407.988033" xlink:href="#mec8a3b82d5" y="159.744"/>
      </g>
     </g>
     <g id="text_14">
      <!-- 300 -->
      <g transform="translate(398.444283 174.342437)scale(0.1 -0.1)">
       <use xlink:href="#DejaVuSans-33"/>
       <use x="63.623047" xlink:href="#DejaVuSans-30"/>
       <use x="127.246094" xlink:href="#DejaVuSans-30"/>
      </g>
     </g>
    </g>
   </g>
   <g id="matplotlib.axis_4">
    <g id="ytick_6">
     <g id="line2d_28">
      <path clip-path="url(#p10fb3f7be7)" d="M 256 154.768849 
L 414.72 154.768849 
" style="fill:none;stroke:#b0b0b0;stroke-linecap:square;stroke-width:0.8;"/>
     </g>
     <g id="line2d_29">
      <g>
       <use style="stroke:#000000;stroke-width:0.8;" x="256" xlink:href="#mb09fc6f166" y="154.768849"/>
      </g>
     </g>
     <g id="text_15">
      <!-- 0 -->
      <g transform="translate(242.6375 158.568068)scale(0.1 -0.1)">
       <use xlink:href="#DejaVuSans-30"/>
      </g>
     </g>
    </g>
    <g id="ytick_7">
     <g id="line2d_30">
      <path clip-path="url(#p10fb3f7be7)" d="M 256 115.394174 
L 414.72 115.394174 
" style="fill:none;stroke:#b0b0b0;stroke-linecap:square;stroke-width:0.8;"/>
     </g>
     <g id="line2d_31">
      <g>
       <use style="stroke:#000000;stroke-width:0.8;" x="256" xlink:href="#mb09fc6f166" y="115.394174"/>
      </g>
     </g>
     <g id="text_16">
      <!-- 2 -->
      <g transform="translate(242.6375 119.193393)scale(0.1 -0.1)">
       <use xlink:href="#DejaVuSans-32"/>
      </g>
     </g>
    </g>
    <g id="ytick_8">
     <g id="line2d_32">
      <path clip-path="url(#p10fb3f7be7)" d="M 256 76.019499 
L 414.72 76.019499 
" style="fill:none;stroke:#b0b0b0;stroke-linecap:square;stroke-width:0.8;"/>
     </g>
     <g id="line2d_33">
      <g>
       <use style="stroke:#000000;stroke-width:0.8;" x="256" xlink:href="#mb09fc6f166" y="76.019499"/>
      </g>
     </g>
     <g id="text_17">
      <!-- 4 -->
      <defs>
       <path d="M 37.796875 64.3125 
L 12.890625 25.390625 
L 37.796875 25.390625 
z
M 35.203125 72.90625 
L 47.609375 72.90625 
L 47.609375 25.390625 
L 58.015625 25.390625 
L 58.015625 17.1875 
L 47.609375 17.1875 
L 47.609375 0 
L 37.796875 0 
L 37.796875 17.1875 
L 4.890625 17.1875 
L 4.890625 26.703125 
z
" id="DejaVuSans-34"/>
      </defs>
      <g transform="translate(242.6375 79.818718)scale(0.1 -0.1)">
       <use xlink:href="#DejaVuSans-34"/>
      </g>
     </g>
    </g>
   </g>
   <g id="line2d_34">
    <path clip-path="url(#p10fb3f7be7)" d="M 263.214545 46.848 
L 264.179702 64.565173 
L 265.144859 83.399868 
L 266.110015 95.403652 
L 266.592593 100.675902 
L 267.55775 108.313342 
L 268.522907 114.202933 
L 269.488063 119.569903 
L 269.970642 121.826877 
L 270.935798 125.39931 
L 271.418376 127.612628 
L 272.383533 130.463015 
L 273.34869 132.922406 
L 273.831268 134.568627 
L 275.761581 138.597273 
L 276.244159 139.33508 
L 276.726738 140.453489 
L 277.209316 140.957757 
L 277.691894 141.979211 
L 278.174472 141.932575 
L 279.139629 143.915166 
L 279.622207 143.667767 
L 280.104786 144.28132 
L 280.587364 145.229878 
L 281.069942 145.081012 
L 281.552521 145.635833 
L 282.035099 145.854202 
L 282.517677 146.698875 
L 283.000255 146.734678 
L 283.482834 147.05025 
L 283.965412 147.556634 
L 284.44799 147.683239 
L 285.413147 148.443347 
L 285.895725 148.651904 
L 286.378303 148.429669 
L 286.860882 148.910554 
L 287.826038 149.496922 
L 288.308617 149.14616 
L 288.791195 149.707021 
L 290.721508 150.165388 
L 291.204086 150.784185 
L 291.686665 150.296273 
L 292.169243 150.985993 
L 292.651821 150.738516 
L 293.1344 150.949721 
L 293.616978 150.84584 
L 294.099556 151.112928 
L 294.582134 151.244057 
L 295.547291 151.310999 
L 296.029869 151.53075 
L 296.512448 151.443682 
L 296.995026 151.553168 
L 297.477604 151.966015 
L 297.960182 151.996602 
L 298.925339 151.66254 
L 299.407917 151.783227 
L 299.890496 152.295037 
L 300.855652 151.735721 
L 301.33823 152.429556 
L 302.303387 152.641576 
L 303.268544 152.267518 
L 303.751122 152.593089 
L 304.2337 152.450441 
L 305.198857 152.799418 
L 305.681435 152.876159 
L 306.164013 152.767579 
L 306.646592 152.789453 
L 307.12917 152.672434 
L 307.611748 153.039045 
L 308.094327 152.665062 
L 308.576905 152.662632 
L 309.059483 153.029994 
L 309.542061 152.99929 
L 310.02464 152.85384 
L 310.507218 152.86847 
L 310.989796 153.221939 
L 311.954953 153.055355 
L 312.920109 153.222969 
L 313.885266 153.218603 
L 314.367844 152.833431 
L 314.850423 153.097525 
L 315.333001 153.167981 
L 315.815579 153.411235 
L 316.298157 153.385116 
L 316.780736 153.205608 
L 317.745892 153.30263 
L 318.228471 153.402658 
L 319.193627 153.294632 
L 319.676206 153.518813 
L 320.158784 153.059483 
L 320.641362 153.596374 
L 321.12394 153.226568 
L 321.606519 153.507984 
L 322.089097 153.275742 
L 322.571675 153.477112 
L 324.01941 153.584828 
L 324.501988 153.520521 
L 324.984567 153.655116 
L 325.467145 153.577831 
L 325.949723 153.615494 
L 326.432302 153.525491 
L 329.81035 153.784691 
L 330.292928 153.338428 
L 330.775506 153.681707 
L 331.258085 153.512228 
L 331.740663 153.678567 
L 332.223241 153.644601 
L 332.705819 153.961502 
L 333.670976 153.719476 
L 334.153554 153.745066 
L 334.636133 153.570088 
L 335.118711 153.865312 
L 335.601289 153.561839 
L 336.083867 153.888722 
L 337.049024 153.834129 
L 337.531602 153.62562 
L 338.496759 154.001636 
L 338.979337 153.478152 
L 339.461915 154.114868 
L 339.944494 153.851575 
L 340.90965 154.005763 
L 341.392229 153.682487 
L 341.874807 153.983186 
L 342.357385 153.614078 
L 343.322542 153.980754 
L 344.770277 153.975921 
L 345.735433 154.096348 
L 346.70059 153.94594 
L 347.665746 153.962535 
L 348.148325 153.716461 
L 348.630903 154.120311 
L 349.113481 153.982636 
L 349.59606 154.274248 
L 350.078638 153.526925 
L 350.561216 153.892972 
L 351.043794 154.03621 
L 352.008951 153.718224 
L 352.491529 153.993709 
L 352.974108 153.897478 
L 353.939264 154.255833 
L 354.904421 153.857446 
L 355.386999 154.216537 
L 355.869577 154.139937 
L 356.352156 153.773884 
L 356.834734 154.00375 
L 357.317312 153.924513 
L 357.799891 154.191249 
L 358.282469 154.112634 
L 358.765047 153.720462 
L 359.247625 154.20134 
L 359.730204 154.35303 
L 360.212782 154.193177 
L 360.69536 153.779835 
L 361.177939 154.242901 
L 361.660517 154.000738 
L 362.143095 154.029567 
L 362.625673 154.202514 
L 363.108252 153.714704 
L 363.59083 154.152606 
L 364.555987 153.997915 
L 365.038565 154.184356 
L 365.521143 153.658001 
L 366.003721 154.218008 
L 366.4863 153.918597 
L 366.968878 153.844017 
L 367.451456 153.491954 
L 367.934035 154.094822 
L 369.38177 154.005549 
L 370.346926 154.118327 
L 370.829504 153.600336 
L 371.312083 154.069051 
L 371.794661 153.938823 
L 372.277239 154.248679 
L 372.759818 153.887222 
L 373.242396 153.8896 
L 373.724974 154.066914 
L 374.690131 153.757785 
L 375.172709 154.169155 
L 376.137866 154.000883 
L 376.620444 154.130264 
L 378.068179 154.103316 
L 379.033335 153.992536 
L 379.515914 154.230689 
L 379.998492 154.060336 
L 380.48107 153.297765 
L 380.963649 154.296874 
L 381.446227 154.305175 
L 381.928805 154.02506 
L 382.411383 154.241348 
L 383.859118 153.943351 
L 384.341697 154.18215 
L 384.824275 153.903435 
L 385.306853 154.332972 
L 385.789431 154.260145 
L 386.27201 153.958563 
L 386.754588 154.032756 
L 387.237166 153.830574 
L 387.719745 154.120906 
L 388.202323 153.860489 
L 388.684901 153.8669 
L 389.167479 154.230115 
L 389.650058 154.222649 
L 390.132636 153.998386 
L 390.615214 154.147291 
L 391.097793 153.770905 
L 391.580371 153.582192 
L 392.062949 153.742886 
L 392.545528 154.175583 
L 393.510684 153.648505 
L 393.993262 153.875945 
L 394.475841 153.711591 
L 394.958419 154.219666 
L 395.440997 153.659888 
L 395.923576 154.278554 
L 396.406154 154.366963 
L 396.888732 154.289303 
L 397.37131 153.724901 
L 397.853889 154.117835 
L 398.336467 153.96353 
L 398.819045 154.141106 
L 399.784202 154.064104 
L 400.749358 153.686161 
L 402.197093 153.917428 
L 402.679672 154.368 
L 403.16225 154.130885 
L 403.644828 154.238854 
L 405.575141 153.959966 
L 406.05772 153.750292 
L 406.540298 153.929248 
L 407.022876 154.292644 
L 407.505455 154.192496 
L 407.505455 154.192496 
" style="fill:none;stroke:#1f77b4;stroke-linecap:square;stroke-width:1.5;"/>
   </g>
   <g id="patch_8">
    <path d="M 256 159.744 
L 256 41.472 
" style="fill:none;stroke:#000000;stroke-linecap:square;stroke-linejoin:miter;stroke-width:0.8;"/>
   </g>
   <g id="patch_9">
    <path d="M 414.72 159.744 
L 414.72 41.472 
" style="fill:none;stroke:#000000;stroke-linecap:square;stroke-linejoin:miter;stroke-width:0.8;"/>
   </g>
   <g id="patch_10">
    <path d="M 256 159.744 
L 414.72 159.744 
" style="fill:none;stroke:#000000;stroke-linecap:square;stroke-linejoin:miter;stroke-width:0.8;"/>
   </g>
   <g id="patch_11">
    <path d="M 256 41.472 
L 414.72 41.472 
" style="fill:none;stroke:#000000;stroke-linecap:square;stroke-linejoin:miter;stroke-width:0.8;"/>
   </g>
   <g id="text_18">
    <!-- loss -->
    <defs>
     <path d="M 9.421875 75.984375 
L 18.40625 75.984375 
L 18.40625 0 
L 9.421875 0 
z
" id="DejaVuSans-6c"/>
     <path d="M 30.609375 48.390625 
Q 23.390625 48.390625 19.1875 42.75 
Q 14.984375 37.109375 14.984375 27.296875 
Q 14.984375 17.484375 19.15625 11.84375 
Q 23.34375 6.203125 30.609375 6.203125 
Q 37.796875 6.203125 41.984375 11.859375 
Q 46.1875 17.53125 46.1875 27.296875 
Q 46.1875 37.015625 41.984375 42.703125 
Q 37.796875 48.390625 30.609375 48.390625 
z
M 30.609375 56 
Q 42.328125 56 49.015625 48.375 
Q 55.71875 40.765625 55.71875 27.296875 
Q 55.71875 13.875 49.015625 6.21875 
Q 42.328125 -1.421875 30.609375 -1.421875 
Q 18.84375 -1.421875 12.171875 6.21875 
Q 5.515625 13.875 5.515625 27.296875 
Q 5.515625 40.765625 12.171875 48.375 
Q 18.84375 56 30.609375 56 
z
" id="DejaVuSans-6f"/>
     <path d="M 44.28125 53.078125 
L 44.28125 44.578125 
Q 40.484375 46.53125 36.375 47.5 
Q 32.28125 48.484375 27.875 48.484375 
Q 21.1875 48.484375 17.84375 46.4375 
Q 14.5 44.390625 14.5 40.28125 
Q 14.5 37.15625 16.890625 35.375 
Q 19.28125 33.59375 26.515625 31.984375 
L 29.59375 31.296875 
Q 39.15625 29.25 43.1875 25.515625 
Q 47.21875 21.78125 47.21875 15.09375 
Q 47.21875 7.46875 41.1875 3.015625 
Q 35.15625 -1.421875 24.609375 -1.421875 
Q 20.21875 -1.421875 15.453125 -0.5625 
Q 10.6875 0.296875 5.421875 2 
L 5.421875 11.28125 
Q 10.40625 8.6875 15.234375 7.390625 
Q 20.0625 6.109375 24.8125 6.109375 
Q 31.15625 6.109375 34.5625 8.28125 
Q 37.984375 10.453125 37.984375 14.40625 
Q 37.984375 18.0625 35.515625 20.015625 
Q 33.0625 21.96875 24.703125 23.78125 
L 21.578125 24.515625 
Q 13.234375 26.265625 9.515625 29.90625 
Q 5.8125 33.546875 5.8125 39.890625 
Q 5.8125 47.609375 11.28125 51.796875 
Q 16.75 56 26.8125 56 
Q 31.78125 56 36.171875 55.265625 
Q 40.578125 54.546875 44.28125 53.078125 
z
" id="DejaVuSans-73"/>
    </defs>
    <g transform="translate(323.770625 35.472)scale(0.12 -0.12)">
     <use xlink:href="#DejaVuSans-6c"/>
     <use x="27.783203" xlink:href="#DejaVuSans-6f"/>
     <use x="88.964844" xlink:href="#DejaVuSans-73"/>
     <use x="141.064453" xlink:href="#DejaVuSans-73"/>
    </g>
   </g>
  </g>
  <g id="axes_3">
   <g id="patch_12">
    <path d="M 57.6 307.584 
L 216.32 307.584 
L 216.32 189.312 
L 57.6 189.312 
z
" style="fill:#ffffff;"/>
   </g>
   <g id="matplotlib.axis_5">
    <g id="xtick_9">
     <g id="line2d_35">
      <path clip-path="url(#p0fd5eb5677)" d="M 64.814545 307.584 
L 64.814545 189.312 
" style="fill:none;stroke:#b0b0b0;stroke-linecap:square;stroke-width:0.8;"/>
     </g>
     <g id="line2d_36">
      <g>
       <use style="stroke:#000000;stroke-width:0.8;" x="64.814545" xlink:href="#mec8a3b82d5" y="307.584"/>
      </g>
     </g>
     <g id="text_19">
      <!-- 0 -->
      <g transform="translate(61.633295 322.182437)scale(0.1 -0.1)">
       <use xlink:href="#DejaVuSans-30"/>
      </g>
     </g>
    </g>
    <g id="xtick_10">
     <g id="line2d_37">
      <path clip-path="url(#p0fd5eb5677)" d="M 113.072375 307.584 
L 113.072375 189.312 
" style="fill:none;stroke:#b0b0b0;stroke-linecap:square;stroke-width:0.8;"/>
     </g>
     <g id="line2d_38">
      <g>
       <use style="stroke:#000000;stroke-width:0.8;" x="113.072375" xlink:href="#mec8a3b82d5" y="307.584"/>
      </g>
     </g>
     <g id="text_20">
      <!-- 100 -->
      <g transform="translate(103.528625 322.182437)scale(0.1 -0.1)">
       <use xlink:href="#DejaVuSans-31"/>
       <use x="63.623047" xlink:href="#DejaVuSans-30"/>
       <use x="127.246094" xlink:href="#DejaVuSans-30"/>
      </g>
     </g>
    </g>
    <g id="xtick_11">
     <g id="line2d_39">
      <path clip-path="url(#p0fd5eb5677)" d="M 161.330204 307.584 
L 161.330204 189.312 
" style="fill:none;stroke:#b0b0b0;stroke-linecap:square;stroke-width:0.8;"/>
     </g>
     <g id="line2d_40">
      <g>
       <use style="stroke:#000000;stroke-width:0.8;" x="161.330204" xlink:href="#mec8a3b82d5" y="307.584"/>
      </g>
     </g>
     <g id="text_21">
      <!-- 200 -->
      <g transform="translate(151.786454 322.182437)scale(0.1 -0.1)">
       <use xlink:href="#DejaVuSans-32"/>
       <use x="63.623047" xlink:href="#DejaVuSans-30"/>
       <use x="127.246094" xlink:href="#DejaVuSans-30"/>
      </g>
     </g>
    </g>
    <g id="xtick_12">
     <g id="line2d_41">
      <path clip-path="url(#p0fd5eb5677)" d="M 209.588033 307.584 
L 209.588033 189.312 
" style="fill:none;stroke:#b0b0b0;stroke-linecap:square;stroke-width:0.8;"/>
     </g>
     <g id="line2d_42">
      <g>
       <use style="stroke:#000000;stroke-width:0.8;" x="209.588033" xlink:href="#mec8a3b82d5" y="307.584"/>
      </g>
     </g>
     <g id="text_22">
      <!-- 300 -->
      <g transform="translate(200.044283 322.182437)scale(0.1 -0.1)">
       <use xlink:href="#DejaVuSans-33"/>
       <use x="63.623047" xlink:href="#DejaVuSans-30"/>
       <use x="127.246094" xlink:href="#DejaVuSans-30"/>
      </g>
     </g>
    </g>
   </g>
   <g id="matplotlib.axis_6">
    <g id="ytick_9">
     <g id="line2d_43">
      <path clip-path="url(#p0fd5eb5677)" d="M 57.6 302.634667 
L 216.32 302.634667 
" style="fill:none;stroke:#b0b0b0;stroke-linecap:square;stroke-width:0.8;"/>
     </g>
     <g id="line2d_44">
      <g>
       <use style="stroke:#000000;stroke-width:0.8;" x="57.6" xlink:href="#mb09fc6f166" y="302.634667"/>
      </g>
     </g>
     <g id="text_23">
      <!-- 0.00 -->
      <g transform="translate(28.334375 306.433885)scale(0.1 -0.1)">
       <use xlink:href="#DejaVuSans-30"/>
       <use x="63.623047" xlink:href="#DejaVuSans-2e"/>
       <use x="95.410156" xlink:href="#DejaVuSans-30"/>
       <use x="159.033203" xlink:href="#DejaVuSans-30"/>
      </g>
     </g>
    </g>
    <g id="ytick_10">
     <g id="line2d_45">
      <path clip-path="url(#p0fd5eb5677)" d="M 57.6 275.328 
L 216.32 275.328 
" style="fill:none;stroke:#b0b0b0;stroke-linecap:square;stroke-width:0.8;"/>
     </g>
     <g id="line2d_46">
      <g>
       <use style="stroke:#000000;stroke-width:0.8;" x="57.6" xlink:href="#mb09fc6f166" y="275.328"/>
      </g>
     </g>
     <g id="text_24">
      <!-- 0.25 -->
      <g transform="translate(28.334375 279.127219)scale(0.1 -0.1)">
       <use xlink:href="#DejaVuSans-30"/>
       <use x="63.623047" xlink:href="#DejaVuSans-2e"/>
       <use x="95.410156" xlink:href="#DejaVuSans-32"/>
       <use x="159.033203" xlink:href="#DejaVuSans-35"/>
      </g>
     </g>
    </g>
    <g id="ytick_11">
     <g id="line2d_47">
      <path clip-path="url(#p0fd5eb5677)" d="M 57.6 248.021333 
L 216.32 248.021333 
" style="fill:none;stroke:#b0b0b0;stroke-linecap:square;stroke-width:0.8;"/>
     </g>
     <g id="line2d_48">
      <g>
       <use style="stroke:#000000;stroke-width:0.8;" x="57.6" xlink:href="#mb09fc6f166" y="248.021333"/>
      </g>
     </g>
     <g id="text_25">
      <!-- 0.50 -->
      <g transform="translate(28.334375 251.820552)scale(0.1 -0.1)">
       <use xlink:href="#DejaVuSans-30"/>
       <use x="63.623047" xlink:href="#DejaVuSans-2e"/>
       <use x="95.410156" xlink:href="#DejaVuSans-35"/>
       <use x="159.033203" xlink:href="#DejaVuSans-30"/>
      </g>
     </g>
    </g>
    <g id="ytick_12">
     <g id="line2d_49">
      <path clip-path="url(#p0fd5eb5677)" d="M 57.6 220.714666 
L 216.32 220.714666 
" style="fill:none;stroke:#b0b0b0;stroke-linecap:square;stroke-width:0.8;"/>
     </g>
     <g id="line2d_50">
      <g>
       <use style="stroke:#000000;stroke-width:0.8;" x="57.6" xlink:href="#mb09fc6f166" y="220.714666"/>
      </g>
     </g>
     <g id="text_26">
      <!-- 0.75 -->
      <g transform="translate(28.334375 224.513885)scale(0.1 -0.1)">
       <use xlink:href="#DejaVuSans-30"/>
       <use x="63.623047" xlink:href="#DejaVuSans-2e"/>
       <use x="95.410156" xlink:href="#DejaVuSans-37"/>
       <use x="159.033203" xlink:href="#DejaVuSans-35"/>
      </g>
     </g>
    </g>
    <g id="ytick_13">
     <g id="line2d_51">
      <path clip-path="url(#p0fd5eb5677)" d="M 57.6 193.408 
L 216.32 193.408 
" style="fill:none;stroke:#b0b0b0;stroke-linecap:square;stroke-width:0.8;"/>
     </g>
     <g id="line2d_52">
      <g>
       <use style="stroke:#000000;stroke-width:0.8;" x="57.6" xlink:href="#mb09fc6f166" y="193.408"/>
      </g>
     </g>
     <g id="text_27">
      <!-- 1.00 -->
      <g transform="translate(28.334375 197.207218)scale(0.1 -0.1)">
       <use xlink:href="#DejaVuSans-31"/>
       <use x="63.623047" xlink:href="#DejaVuSans-2e"/>
       <use x="95.410156" xlink:href="#DejaVuSans-30"/>
       <use x="159.033203" xlink:href="#DejaVuSans-30"/>
      </g>
     </g>
    </g>
   </g>
   <g id="line2d_53">
    <path clip-path="url(#p0fd5eb5677)" d="M 64.814545 302.208 
L 65.779702 296.234667 
L 66.26228 291.114666 
L 66.744859 287.701333 
L 67.227437 283.434666 
L 67.710015 276.181333 
L 68.192593 275.754666 
L 68.675172 274.901333 
L 69.640328 258.261333 
L 70.122907 262.101333 
L 70.605485 262.954666 
L 71.570642 248.447999 
L 72.05322 247.594665 
L 72.535798 259.967999 
L 73.018376 244.181332 
L 73.500955 235.221332 
L 73.983533 240.767999 
L 74.466111 236.501332 
L 74.94869 234.367998 
L 75.431268 235.647999 
L 75.913846 234.794666 
L 76.396424 235.647998 
L 77.361581 224.981332 
L 77.844159 223.274665 
L 78.326738 251.434666 
L 78.809316 230.101331 
L 79.291894 224.127998 
L 79.774472 219.861332 
L 80.257051 219.007999 
L 80.739629 218.581332 
L 81.222207 214.314666 
L 81.704786 212.607999 
L 82.187364 216.021332 
L 82.669942 211.754666 
L 83.152521 218.154664 
L 83.635099 212.607999 
L 84.117677 210.047999 
L 84.600255 210.474667 
L 85.082834 208.341333 
L 85.565412 212.181332 
L 86.04799 213.461332 
L 86.530569 213.461332 
L 87.013147 221.567998 
L 87.495725 205.781333 
L 87.978303 204.501332 
L 88.460882 207.914666 
L 88.94346 206.634666 
L 89.426038 208.341333 
L 89.908617 206.208 
L 90.391195 203.221334 
L 90.873773 210.474666 
L 91.83893 202.368 
L 92.321508 208.767999 
L 92.804086 202.368 
L 93.286665 203.648001 
L 93.769243 203.221334 
L 94.251821 201.941334 
L 94.7344 214.314666 
L 95.216978 206.634665 
L 95.699556 202.794667 
L 96.664713 210.047999 
L 97.147291 201.941333 
L 97.629869 208.341332 
L 98.112448 200.234667 
L 98.595026 204.074667 
L 99.077604 203.648001 
L 99.560182 199.808 
L 100.042761 206.208001 
L 100.525339 201.514668 
L 101.007917 200.234667 
L 101.490496 203.221333 
L 101.973074 201.514667 
L 102.455652 199.381334 
L 102.93823 201.514668 
L 103.903387 198.101334 
L 104.868544 200.661335 
L 105.351122 199.808001 
L 105.8337 197.674667 
L 106.316279 204.074666 
L 107.281435 199.381334 
L 107.764013 204.928 
L 108.246592 202.368001 
L 108.72917 198.528001 
L 109.211748 200.234667 
L 109.694327 221.567997 
L 110.176905 202.794667 
L 110.659483 199.381333 
L 111.142061 199.808001 
L 111.62464 198.528 
L 112.107218 209.621331 
L 112.589796 200.234667 
L 113.072375 222.421331 
L 113.554953 206.208001 
L 114.037531 199.381334 
L 114.520109 200.234667 
L 115.002688 199.381334 
L 115.485266 201.088 
L 115.967844 197.674667 
L 116.450423 201.514668 
L 116.933001 200.661334 
L 117.415579 201.088 
L 117.898157 201.088001 
L 118.380736 198.101334 
L 118.863314 202.368001 
L 119.345892 199.381334 
L 119.828471 201.088001 
L 120.793627 196.394667 
L 121.276206 199.381333 
L 121.758784 199.381334 
L 122.241362 198.101334 
L 122.72394 200.661334 
L 123.206519 199.808001 
L 123.689097 199.808001 
L 124.171675 198.101334 
L 124.654254 199.808001 
L 125.136832 196.821333 
L 125.61941 202.368001 
L 126.101988 202.794667 
L 126.584567 197.674667 
L 127.067145 198.101333 
L 127.549723 198.954667 
L 128.032302 196.394667 
L 128.51488 199.808001 
L 128.997458 199.808 
L 129.480036 195.968 
L 129.962615 197.248001 
L 130.445193 198.101334 
L 130.927771 197.674667 
L 131.41035 198.528 
L 131.892928 203.221333 
L 132.375506 198.528001 
L 132.858085 197.248 
L 133.340663 195.541333 
L 133.823241 195.114667 
L 134.305819 196.394667 
L 134.788398 197.248 
L 135.270976 197.674667 
L 135.753554 196.821334 
L 136.236133 196.821333 
L 136.718711 197.674667 
L 137.201289 199.808001 
L 137.683867 197.248001 
L 138.166446 197.674667 
L 138.649024 197.248 
L 139.131602 198.528 
L 139.614181 197.248 
L 140.096759 196.394667 
L 140.579337 196.821334 
L 141.061915 201.514668 
L 141.544494 198.954667 
L 142.027072 209.194667 
L 142.50965 198.954667 
L 142.992229 196.821334 
L 143.474807 201.514667 
L 143.957385 197.248 
L 144.439964 198.101334 
L 144.922542 195.968 
L 145.40512 198.528001 
L 145.887698 202.794668 
L 146.370277 198.528 
L 146.852855 195.968 
L 147.335433 197.248 
L 147.818012 198.101334 
L 148.30059 200.234667 
L 148.783168 197.248001 
L 149.265746 197.248001 
L 149.748325 196.821334 
L 150.230903 195.541333 
L 150.713481 196.394667 
L 151.19606 198.954667 
L 151.678638 196.394667 
L 152.161216 195.541334 
L 152.643794 197.674667 
L 153.126373 197.674667 
L 153.608951 199.381334 
L 154.091529 195.968 
L 154.574108 197.674667 
L 155.056686 198.528 
L 155.539264 196.394667 
L 156.021843 198.101334 
L 156.504421 202.368 
L 156.986999 195.968 
L 157.469577 197.674667 
L 157.952156 195.541333 
L 158.434734 196.821334 
L 158.917312 195.541333 
L 159.399891 198.101334 
L 160.365047 196.394667 
L 160.847625 195.968 
L 161.330204 197.248001 
L 161.812782 197.248 
L 162.29536 199.808 
L 162.777939 195.968 
L 163.260517 195.114667 
L 163.743095 197.248001 
L 164.225673 197.248001 
L 164.708252 195.968 
L 165.19083 196.394667 
L 165.673408 195.541333 
L 166.155987 198.954668 
L 166.638565 197.248001 
L 167.121143 197.674667 
L 167.603721 203.221334 
L 168.0863 196.821334 
L 168.568878 200.661334 
L 169.051456 196.394667 
L 169.534035 197.248001 
L 170.016613 199.381333 
L 170.499191 197.674667 
L 170.98177 198.101334 
L 171.946926 197.248 
L 172.429504 197.248 
L 172.912083 195.114667 
L 173.394661 197.248001 
L 173.877239 196.394667 
L 174.359818 195.114667 
L 174.842396 196.821334 
L 175.324974 198.101334 
L 175.807552 198.954667 
L 176.290131 196.821334 
L 177.255287 198.528001 
L 177.737866 197.674667 
L 178.220444 198.528 
L 178.703022 198.101334 
L 179.1856 195.114667 
L 179.668179 196.821333 
L 180.633335 195.114667 
L 181.115914 198.954667 
L 181.598492 195.968 
L 182.08107 197.674667 
L 182.563649 196.394666 
L 183.528805 197.248001 
L 184.011383 198.101334 
L 184.97654 196.394667 
L 185.459118 197.674667 
L 185.941697 200.234667 
L 186.424275 197.674667 
L 186.906853 200.234667 
L 187.389431 198.101333 
L 187.87201 201.941334 
L 188.354588 197.674667 
L 188.837166 196.821334 
L 189.319745 197.248001 
L 190.284901 197.248001 
L 190.767479 213.461333 
L 191.250058 195.968 
L 192.215214 201.941334 
L 192.697793 194.688 
L 193.662949 200.661334 
L 194.145528 196.821334 
L 194.628106 199.808001 
L 195.110684 198.101334 
L 195.593262 198.101334 
L 196.075841 198.954667 
L 196.558419 198.101334 
L 197.040997 198.954667 
L 197.523576 196.821334 
L 198.006154 200.661334 
L 198.488732 195.541334 
L 198.97131 198.101334 
L 199.453889 196.394667 
L 199.936467 197.674667 
L 200.419045 198.528 
L 200.901624 196.394667 
L 201.384202 198.528001 
L 201.86678 198.101334 
L 202.349358 203.648 
L 202.831937 197.674667 
L 203.314515 195.541334 
L 204.279672 197.248001 
L 204.76225 195.968 
L 205.244828 196.821334 
L 205.727407 198.528 
L 206.209985 197.674667 
L 206.692563 199.381334 
L 207.175141 196.821334 
L 207.65772 198.101334 
L 208.140298 197.674667 
L 208.622876 196.394667 
L 209.105455 199.381334 
L 209.105455 199.381334 
" style="fill:none;stroke:#1f77b4;stroke-linecap:square;stroke-width:1.5;"/>
   </g>
   <g id="patch_13">
    <path d="M 57.6 307.584 
L 57.6 189.312 
" style="fill:none;stroke:#000000;stroke-linecap:square;stroke-linejoin:miter;stroke-width:0.8;"/>
   </g>
   <g id="patch_14">
    <path d="M 216.32 307.584 
L 216.32 189.312 
" style="fill:none;stroke:#000000;stroke-linecap:square;stroke-linejoin:miter;stroke-width:0.8;"/>
   </g>
   <g id="patch_15">
    <path d="M 57.6 307.584 
L 216.32 307.584 
" style="fill:none;stroke:#000000;stroke-linecap:square;stroke-linejoin:miter;stroke-width:0.8;"/>
   </g>
   <g id="patch_16">
    <path d="M 57.6 189.312 
L 216.32 189.312 
" style="fill:none;stroke:#000000;stroke-linecap:square;stroke-linejoin:miter;stroke-width:0.8;"/>
   </g>
   <g id="text_28">
    <!-- val_acc -->
    <defs>
     <path d="M 2.984375 54.6875 
L 12.5 54.6875 
L 29.59375 8.796875 
L 46.6875 54.6875 
L 56.203125 54.6875 
L 35.6875 0 
L 23.484375 0 
z
" id="DejaVuSans-76"/>
     <path d="M 50.984375 -16.609375 
L 50.984375 -23.578125 
L -0.984375 -23.578125 
L -0.984375 -16.609375 
z
" id="DejaVuSans-5f"/>
    </defs>
    <g transform="translate(114.79 183.312)scale(0.12 -0.12)">
     <use xlink:href="#DejaVuSans-76"/>
     <use x="59.179688" xlink:href="#DejaVuSans-61"/>
     <use x="120.458984" xlink:href="#DejaVuSans-6c"/>
     <use x="148.242188" xlink:href="#DejaVuSans-5f"/>
     <use x="198.242188" xlink:href="#DejaVuSans-61"/>
     <use x="259.521484" xlink:href="#DejaVuSans-63"/>
     <use x="314.501953" xlink:href="#DejaVuSans-63"/>
    </g>
   </g>
  </g>
  <g id="axes_4">
   <g id="patch_17">
    <path d="M 256 307.584 
L 414.72 307.584 
L 414.72 189.312 
L 256 189.312 
z
" style="fill:#ffffff;"/>
   </g>
   <g id="matplotlib.axis_7">
    <g id="xtick_13">
     <g id="line2d_54">
      <path clip-path="url(#pc098ec7866)" d="M 263.214545 307.584 
L 263.214545 189.312 
" style="fill:none;stroke:#b0b0b0;stroke-linecap:square;stroke-width:0.8;"/>
     </g>
     <g id="line2d_55">
      <g>
       <use style="stroke:#000000;stroke-width:0.8;" x="263.214545" xlink:href="#mec8a3b82d5" y="307.584"/>
      </g>
     </g>
     <g id="text_29">
      <!-- 0 -->
      <g transform="translate(260.033295 322.182437)scale(0.1 -0.1)">
       <use xlink:href="#DejaVuSans-30"/>
      </g>
     </g>
    </g>
    <g id="xtick_14">
     <g id="line2d_56">
      <path clip-path="url(#pc098ec7866)" d="M 311.472375 307.584 
L 311.472375 189.312 
" style="fill:none;stroke:#b0b0b0;stroke-linecap:square;stroke-width:0.8;"/>
     </g>
     <g id="line2d_57">
      <g>
       <use style="stroke:#000000;stroke-width:0.8;" x="311.472375" xlink:href="#mec8a3b82d5" y="307.584"/>
      </g>
     </g>
     <g id="text_30">
      <!-- 100 -->
      <g transform="translate(301.928625 322.182437)scale(0.1 -0.1)">
       <use xlink:href="#DejaVuSans-31"/>
       <use x="63.623047" xlink:href="#DejaVuSans-30"/>
       <use x="127.246094" xlink:href="#DejaVuSans-30"/>
      </g>
     </g>
    </g>
    <g id="xtick_15">
     <g id="line2d_58">
      <path clip-path="url(#pc098ec7866)" d="M 359.730204 307.584 
L 359.730204 189.312 
" style="fill:none;stroke:#b0b0b0;stroke-linecap:square;stroke-width:0.8;"/>
     </g>
     <g id="line2d_59">
      <g>
       <use style="stroke:#000000;stroke-width:0.8;" x="359.730204" xlink:href="#mec8a3b82d5" y="307.584"/>
      </g>
     </g>
     <g id="text_31">
      <!-- 200 -->
      <g transform="translate(350.186454 322.182437)scale(0.1 -0.1)">
       <use xlink:href="#DejaVuSans-32"/>
       <use x="63.623047" xlink:href="#DejaVuSans-30"/>
       <use x="127.246094" xlink:href="#DejaVuSans-30"/>
      </g>
     </g>
    </g>
    <g id="xtick_16">
     <g id="line2d_60">
      <path clip-path="url(#pc098ec7866)" d="M 407.988033 307.584 
L 407.988033 189.312 
" style="fill:none;stroke:#b0b0b0;stroke-linecap:square;stroke-width:0.8;"/>
     </g>
     <g id="line2d_61">
      <g>
       <use style="stroke:#000000;stroke-width:0.8;" x="407.988033" xlink:href="#mec8a3b82d5" y="307.584"/>
      </g>
     </g>
     <g id="text_32">
      <!-- 300 -->
      <g transform="translate(398.444283 322.182437)scale(0.1 -0.1)">
       <use xlink:href="#DejaVuSans-33"/>
       <use x="63.623047" xlink:href="#DejaVuSans-30"/>
       <use x="127.246094" xlink:href="#DejaVuSans-30"/>
      </g>
     </g>
    </g>
   </g>
   <g id="matplotlib.axis_8">
    <g id="ytick_14">
     <g id="line2d_62">
      <path clip-path="url(#pc098ec7866)" d="M 256 302.958513 
L 414.72 302.958513 
" style="fill:none;stroke:#b0b0b0;stroke-linecap:square;stroke-width:0.8;"/>
     </g>
     <g id="line2d_63">
      <g>
       <use style="stroke:#000000;stroke-width:0.8;" x="256" xlink:href="#mb09fc6f166" y="302.958513"/>
      </g>
     </g>
     <g id="text_33">
      <!-- 0 -->
      <g transform="translate(242.6375 306.757731)scale(0.1 -0.1)">
       <use xlink:href="#DejaVuSans-30"/>
      </g>
     </g>
    </g>
    <g id="ytick_15">
     <g id="line2d_64">
      <path clip-path="url(#pc098ec7866)" d="M 256 262.268084 
L 414.72 262.268084 
" style="fill:none;stroke:#b0b0b0;stroke-linecap:square;stroke-width:0.8;"/>
     </g>
     <g id="line2d_65">
      <g>
       <use style="stroke:#000000;stroke-width:0.8;" x="256" xlink:href="#mb09fc6f166" y="262.268084"/>
      </g>
     </g>
     <g id="text_34">
      <!-- 2 -->
      <g transform="translate(242.6375 266.067303)scale(0.1 -0.1)">
       <use xlink:href="#DejaVuSans-32"/>
      </g>
     </g>
    </g>
    <g id="ytick_16">
     <g id="line2d_66">
      <path clip-path="url(#pc098ec7866)" d="M 256 221.577655 
L 414.72 221.577655 
" style="fill:none;stroke:#b0b0b0;stroke-linecap:square;stroke-width:0.8;"/>
     </g>
     <g id="line2d_67">
      <g>
       <use style="stroke:#000000;stroke-width:0.8;" x="256" xlink:href="#mb09fc6f166" y="221.577655"/>
      </g>
     </g>
     <g id="text_35">
      <!-- 4 -->
      <g transform="translate(242.6375 225.376874)scale(0.1 -0.1)">
       <use xlink:href="#DejaVuSans-34"/>
      </g>
     </g>
    </g>
   </g>
   <g id="line2d_68">
    <path clip-path="url(#pc098ec7866)" d="M 263.214545 194.688 
L 263.697124 202.864425 
L 264.66228 222.786607 
L 265.627437 235.116417 
L 266.592593 244.035062 
L 267.075172 244.894485 
L 267.55775 251.117483 
L 268.040328 253.406038 
L 268.522907 255.074432 
L 269.005485 257.232008 
L 269.488063 256.900349 
L 269.970642 263.389099 
L 270.45322 265.206891 
L 270.935798 260.625215 
L 271.418376 268.087101 
L 271.900955 270.45871 
L 272.383533 270.713489 
L 272.866111 273.598726 
L 273.34869 274.856669 
L 273.831268 274.442605 
L 274.313846 275.648849 
L 274.796424 274.731511 
L 275.761581 280.782107 
L 276.244159 281.848221 
L 276.726738 268.034954 
L 277.209316 280.346579 
L 277.691894 283.28451 
L 278.174472 283.637822 
L 280.104786 288.795594 
L 280.587364 288.600789 
L 281.069942 289.56559 
L 281.552521 287.177541 
L 282.517677 291.125142 
L 283.000255 290.053297 
L 283.482834 291.882429 
L 283.965412 290.835838 
L 284.44799 290.403301 
L 284.930569 291.050679 
L 285.413147 286.015666 
L 285.895725 293.253171 
L 286.378303 294.248222 
L 286.860882 293.471963 
L 287.34346 293.985594 
L 287.826038 293.485622 
L 288.308617 294.006803 
L 288.791195 295.880853 
L 289.273773 293.751393 
L 289.756351 294.396918 
L 290.23893 296.574711 
L 290.721508 294.14469 
L 291.204086 296.823427 
L 291.686665 296.058658 
L 292.169243 296.120819 
L 292.651821 296.770306 
L 293.1344 290.614585 
L 293.616978 295.097906 
L 294.099556 296.360764 
L 294.582134 295.08625 
L 295.064713 292.487736 
L 295.547291 297.895024 
L 296.029869 293.548163 
L 296.512448 298.096368 
L 296.995026 296.417316 
L 297.477604 296.312881 
L 297.960182 297.931087 
L 298.442761 294.565396 
L 298.925339 298.53593 
L 299.407917 298.401029 
L 299.890496 297.4446 
L 300.373074 297.283165 
L 300.855652 298.889736 
L 301.33823 298.367964 
L 301.820809 299.404762 
L 302.303387 299.221441 
L 302.785965 299.600415 
L 303.268544 298.415792 
L 303.751122 299.703473 
L 304.2337 299.33771 
L 304.716279 297.613803 
L 305.681435 299.335116 
L 306.164013 297.103 
L 306.646592 296.678668 
L 307.12917 299.594515 
L 307.611748 299.100756 
L 308.094327 285.62245 
L 308.576905 297.351247 
L 309.059483 299.819879 
L 309.542061 299.278472 
L 310.02464 299.711347 
L 310.507218 294.236401 
L 310.989796 298.962326 
L 311.472375 283.574498 
L 311.954953 296.011446 
L 312.437531 299.59874 
L 312.920109 299.231 
L 313.402688 299.128793 
L 313.885266 299.434639 
L 314.367844 300.394655 
L 314.850423 299.278111 
L 315.333001 299.114292 
L 315.815579 299.993407 
L 316.298157 299.659592 
L 316.780736 300.167264 
L 317.263314 298.742357 
L 317.745892 300.124878 
L 318.228471 298.719582 
L 318.711049 300.517113 
L 319.193627 301.04548 
L 319.676206 298.735907 
L 320.158784 300.305355 
L 320.641362 300.387512 
L 321.606519 299.118143 
L 322.089097 299.69964 
L 322.571675 300.469625 
L 323.054254 300.639006 
L 323.536832 300.638179 
L 324.01941 297.529983 
L 324.501988 298.234656 
L 324.984567 300.716879 
L 325.467145 300.719076 
L 325.949723 299.825741 
L 326.432302 301.236923 
L 326.91488 300.423566 
L 327.397458 299.964787 
L 327.880036 300.653978 
L 328.362615 300.949444 
L 328.845193 300.141664 
L 329.81035 300.966597 
L 330.292928 298.60262 
L 330.775506 300.197567 
L 331.258085 300.713269 
L 331.740663 301.024483 
L 332.223241 301.755216 
L 332.705819 301.299395 
L 333.188398 301.185947 
L 333.670976 300.558868 
L 334.153554 301.464888 
L 334.636133 301.006317 
L 335.118711 300.964495 
L 335.601289 299.810201 
L 336.083867 300.630451 
L 336.566446 300.039238 
L 337.049024 301.203028 
L 337.531602 300.678548 
L 338.496759 301.446302 
L 338.979337 300.141937 
L 339.461915 299.71263 
L 339.944494 300.579416 
L 340.427072 296.274471 
L 340.90965 300.454173 
L 341.392229 301.428416 
L 341.874807 296.025339 
L 342.357385 300.539915 
L 343.322542 300.992958 
L 343.80512 300.760794 
L 344.287698 297.583014 
L 344.770277 300.770776 
L 345.252855 301.12849 
L 345.735433 301.232915 
L 346.218012 300.754498 
L 346.70059 299.512105 
L 347.183168 301.361619 
L 347.665746 300.928442 
L 348.148325 300.729942 
L 348.630903 301.911091 
L 349.113481 301.084768 
L 349.59606 299.402092 
L 350.078638 301.633052 
L 350.561216 301.521008 
L 351.043794 300.923773 
L 351.526373 301.360359 
L 352.008951 299.371411 
L 352.491529 301.2848 
L 353.456686 299.651743 
L 353.939264 301.119948 
L 354.421843 300.084338 
L 354.904421 295.960386 
L 355.386999 301.175555 
L 355.869577 300.422625 
L 356.352156 301.819777 
L 356.834734 301.335929 
L 357.317312 301.220089 
L 357.799891 300.87713 
L 358.282469 300.671228 
L 358.765047 300.588389 
L 359.247625 301.148375 
L 359.730204 300.734756 
L 360.212782 299.27758 
L 360.69536 298.782809 
L 361.177939 301.272124 
L 361.660517 302.091316 
L 362.143095 301.407745 
L 362.625673 299.259238 
L 363.108252 301.394826 
L 363.59083 301.815849 
L 364.073408 301.63228 
L 364.555987 299.289191 
L 365.038565 301.427268 
L 365.521143 300.193657 
L 366.003721 295.259246 
L 366.4863 301.613709 
L 366.968878 298.684176 
L 367.451456 300.754039 
L 367.934035 300.472741 
L 368.416613 299.09502 
L 368.899191 298.631072 
L 369.38177 300.436063 
L 369.864348 299.927688 
L 370.346926 301.372799 
L 370.829504 300.152332 
L 371.312083 302.208 
L 371.794661 300.465146 
L 372.759818 301.719067 
L 373.242396 301.583105 
L 374.207552 298.00587 
L 374.690131 301.215767 
L 375.172709 300.533634 
L 375.655287 300.300493 
L 376.137866 299.32933 
L 376.620444 300.51958 
L 377.103022 299.803867 
L 377.5856 301.240328 
L 378.068179 300.446827 
L 378.550757 301.572675 
L 379.033335 302.044726 
L 379.515914 300.802627 
L 379.998492 301.648633 
L 380.48107 300.060773 
L 380.963649 301.446376 
L 381.446227 300.623657 
L 381.928805 300.178311 
L 382.411383 299.951519 
L 382.893962 301.361299 
L 383.37654 301.09189 
L 383.859118 301.014347 
L 384.341697 299.408408 
L 384.824275 300.403623 
L 385.306853 298.674353 
L 385.789431 300.233888 
L 386.27201 295.572033 
L 386.754588 300.714265 
L 387.237166 300.772613 
L 387.719745 301.361907 
L 388.202323 300.970331 
L 388.684901 299.863518 
L 389.167479 285.165791 
L 389.650058 301.546038 
L 390.132636 299.556261 
L 390.615214 295.667015 
L 391.097793 301.415805 
L 391.580371 299.747477 
L 392.062949 297.431139 
L 392.545528 301.274427 
L 393.028106 298.357938 
L 393.510684 300.401047 
L 393.993262 300.164087 
L 394.475841 300.277716 
L 394.958419 300.942645 
L 395.440997 300.068738 
L 395.923576 301.074321 
L 396.406154 298.624219 
L 396.888732 301.719342 
L 397.37131 299.641438 
L 397.853889 299.928825 
L 398.336467 300.918962 
L 398.819045 299.120174 
L 399.301624 301.229241 
L 399.784202 300.4142 
L 400.26678 298.981868 
L 400.749358 295.517386 
L 401.231937 300.482319 
L 401.714515 301.009396 
L 402.197093 300.075926 
L 402.679672 300.25591 
L 403.16225 301.843104 
L 404.127407 297.787223 
L 404.609985 299.577575 
L 405.092563 297.824322 
L 405.575141 300.804731 
L 406.05772 298.857585 
L 406.540298 299.211249 
L 407.022876 300.898989 
L 407.505455 298.537131 
L 407.505455 298.537131 
" style="fill:none;stroke:#1f77b4;stroke-linecap:square;stroke-width:1.5;"/>
   </g>
   <g id="patch_18">
    <path d="M 256 307.584 
L 256 189.312 
" style="fill:none;stroke:#000000;stroke-linecap:square;stroke-linejoin:miter;stroke-width:0.8;"/>
   </g>
   <g id="patch_19">
    <path d="M 414.72 307.584 
L 414.72 189.312 
" style="fill:none;stroke:#000000;stroke-linecap:square;stroke-linejoin:miter;stroke-width:0.8;"/>
   </g>
   <g id="patch_20">
    <path d="M 256 307.584 
L 414.72 307.584 
" style="fill:none;stroke:#000000;stroke-linecap:square;stroke-linejoin:miter;stroke-width:0.8;"/>
   </g>
   <g id="patch_21">
    <path d="M 256 189.312 
L 414.72 189.312 
" style="fill:none;stroke:#000000;stroke-linecap:square;stroke-linejoin:miter;stroke-width:0.8;"/>
   </g>
   <g id="text_36">
    <!-- val_loss -->
    <g transform="translate(311.875625 183.312)scale(0.12 -0.12)">
     <use xlink:href="#DejaVuSans-76"/>
     <use x="59.179688" xlink:href="#DejaVuSans-61"/>
     <use x="120.458984" xlink:href="#DejaVuSans-6c"/>
     <use x="148.242188" xlink:href="#DejaVuSans-5f"/>
     <use x="198.242188" xlink:href="#DejaVuSans-6c"/>
     <use x="226.025391" xlink:href="#DejaVuSans-6f"/>
     <use x="287.207031" xlink:href="#DejaVuSans-73"/>
     <use x="339.306641" xlink:href="#DejaVuSans-73"/>
    </g>
   </g>
  </g>
  <g id="text_37">
   <!-- benchmark 20171023_090246 -->
   <defs>
    <path d="M 48.6875 27.296875 
Q 48.6875 37.203125 44.609375 42.84375 
Q 40.53125 48.484375 33.40625 48.484375 
Q 26.265625 48.484375 22.1875 42.84375 
Q 18.109375 37.203125 18.109375 27.296875 
Q 18.109375 17.390625 22.1875 11.75 
Q 26.265625 6.109375 33.40625 6.109375 
Q 40.53125 6.109375 44.609375 11.75 
Q 48.6875 17.390625 48.6875 27.296875 
z
M 18.109375 46.390625 
Q 20.953125 51.265625 25.265625 53.625 
Q 29.59375 56 35.59375 56 
Q 45.5625 56 51.78125 48.09375 
Q 58.015625 40.1875 58.015625 27.296875 
Q 58.015625 14.40625 51.78125 6.484375 
Q 45.5625 -1.421875 35.59375 -1.421875 
Q 29.59375 -1.421875 25.265625 0.953125 
Q 20.953125 3.328125 18.109375 8.203125 
L 18.109375 0 
L 9.078125 0 
L 9.078125 75.984375 
L 18.109375 75.984375 
z
" id="DejaVuSans-62"/>
    <path d="M 56.203125 29.59375 
L 56.203125 25.203125 
L 14.890625 25.203125 
Q 15.484375 15.921875 20.484375 11.0625 
Q 25.484375 6.203125 34.421875 6.203125 
Q 39.59375 6.203125 44.453125 7.46875 
Q 49.3125 8.734375 54.109375 11.28125 
L 54.109375 2.78125 
Q 49.265625 0.734375 44.1875 -0.34375 
Q 39.109375 -1.421875 33.890625 -1.421875 
Q 20.796875 -1.421875 13.15625 6.1875 
Q 5.515625 13.8125 5.515625 26.8125 
Q 5.515625 40.234375 12.765625 48.109375 
Q 20.015625 56 32.328125 56 
Q 43.359375 56 49.78125 48.890625 
Q 56.203125 41.796875 56.203125 29.59375 
z
M 47.21875 32.234375 
Q 47.125 39.59375 43.09375 43.984375 
Q 39.0625 48.390625 32.421875 48.390625 
Q 24.90625 48.390625 20.390625 44.140625 
Q 15.875 39.890625 15.1875 32.171875 
z
" id="DejaVuSans-65"/>
    <path d="M 54.890625 33.015625 
L 54.890625 0 
L 45.90625 0 
L 45.90625 32.71875 
Q 45.90625 40.484375 42.875 44.328125 
Q 39.84375 48.1875 33.796875 48.1875 
Q 26.515625 48.1875 22.3125 43.546875 
Q 18.109375 38.921875 18.109375 30.90625 
L 18.109375 0 
L 9.078125 0 
L 9.078125 54.6875 
L 18.109375 54.6875 
L 18.109375 46.1875 
Q 21.34375 51.125 25.703125 53.5625 
Q 30.078125 56 35.796875 56 
Q 45.21875 56 50.046875 50.171875 
Q 54.890625 44.34375 54.890625 33.015625 
z
" id="DejaVuSans-6e"/>
    <path d="M 54.890625 33.015625 
L 54.890625 0 
L 45.90625 0 
L 45.90625 32.71875 
Q 45.90625 40.484375 42.875 44.328125 
Q 39.84375 48.1875 33.796875 48.1875 
Q 26.515625 48.1875 22.3125 43.546875 
Q 18.109375 38.921875 18.109375 30.90625 
L 18.109375 0 
L 9.078125 0 
L 9.078125 75.984375 
L 18.109375 75.984375 
L 18.109375 46.1875 
Q 21.34375 51.125 25.703125 53.5625 
Q 30.078125 56 35.796875 56 
Q 45.21875 56 50.046875 50.171875 
Q 54.890625 44.34375 54.890625 33.015625 
z
" id="DejaVuSans-68"/>
    <path d="M 52 44.1875 
Q 55.375 50.25 60.0625 53.125 
Q 64.75 56 71.09375 56 
Q 79.640625 56 84.28125 50.015625 
Q 88.921875 44.046875 88.921875 33.015625 
L 88.921875 0 
L 79.890625 0 
L 79.890625 32.71875 
Q 79.890625 40.578125 77.09375 44.375 
Q 74.3125 48.1875 68.609375 48.1875 
Q 61.625 48.1875 57.5625 43.546875 
Q 53.515625 38.921875 53.515625 30.90625 
L 53.515625 0 
L 44.484375 0 
L 44.484375 32.71875 
Q 44.484375 40.625 41.703125 44.40625 
Q 38.921875 48.1875 33.109375 48.1875 
Q 26.21875 48.1875 22.15625 43.53125 
Q 18.109375 38.875 18.109375 30.90625 
L 18.109375 0 
L 9.078125 0 
L 9.078125 54.6875 
L 18.109375 54.6875 
L 18.109375 46.1875 
Q 21.1875 51.21875 25.484375 53.609375 
Q 29.78125 56 35.6875 56 
Q 41.65625 56 45.828125 52.96875 
Q 50 49.953125 52 44.1875 
z
" id="DejaVuSans-6d"/>
    <path d="M 41.109375 46.296875 
Q 39.59375 47.171875 37.8125 47.578125 
Q 36.03125 48 33.890625 48 
Q 26.265625 48 22.1875 43.046875 
Q 18.109375 38.09375 18.109375 28.8125 
L 18.109375 0 
L 9.078125 0 
L 9.078125 54.6875 
L 18.109375 54.6875 
L 18.109375 46.1875 
Q 20.953125 51.171875 25.484375 53.578125 
Q 30.03125 56 36.53125 56 
Q 37.453125 56 38.578125 55.875 
Q 39.703125 55.765625 41.0625 55.515625 
z
" id="DejaVuSans-72"/>
    <path d="M 9.078125 75.984375 
L 18.109375 75.984375 
L 18.109375 31.109375 
L 44.921875 54.6875 
L 56.390625 54.6875 
L 27.390625 29.109375 
L 57.625 0 
L 45.90625 0 
L 18.109375 26.703125 
L 18.109375 0 
L 9.078125 0 
z
" id="DejaVuSans-6b"/>
    <path id="DejaVuSans-20"/>
    <path d="M 10.984375 1.515625 
L 10.984375 10.5 
Q 14.703125 8.734375 18.5 7.8125 
Q 22.3125 6.890625 25.984375 6.890625 
Q 35.75 6.890625 40.890625 13.453125 
Q 46.046875 20.015625 46.78125 33.40625 
Q 43.953125 29.203125 39.59375 26.953125 
Q 35.25 24.703125 29.984375 24.703125 
Q 19.046875 24.703125 12.671875 31.3125 
Q 6.296875 37.9375 6.296875 49.421875 
Q 6.296875 60.640625 12.9375 67.421875 
Q 19.578125 74.21875 30.609375 74.21875 
Q 43.265625 74.21875 49.921875 64.515625 
Q 56.59375 54.828125 56.59375 36.375 
Q 56.59375 19.140625 48.40625 8.859375 
Q 40.234375 -1.421875 26.421875 -1.421875 
Q 22.703125 -1.421875 18.890625 -0.6875 
Q 15.09375 0.046875 10.984375 1.515625 
z
M 30.609375 32.421875 
Q 37.25 32.421875 41.125 36.953125 
Q 45.015625 41.5 45.015625 49.421875 
Q 45.015625 57.28125 41.125 61.84375 
Q 37.25 66.40625 30.609375 66.40625 
Q 23.96875 66.40625 20.09375 61.84375 
Q 16.21875 57.28125 16.21875 49.421875 
Q 16.21875 41.5 20.09375 36.953125 
Q 23.96875 32.421875 30.609375 32.421875 
z
" id="DejaVuSans-39"/>
    <path d="M 33.015625 40.375 
Q 26.375 40.375 22.484375 35.828125 
Q 18.609375 31.296875 18.609375 23.390625 
Q 18.609375 15.53125 22.484375 10.953125 
Q 26.375 6.390625 33.015625 6.390625 
Q 39.65625 6.390625 43.53125 10.953125 
Q 47.40625 15.53125 47.40625 23.390625 
Q 47.40625 31.296875 43.53125 35.828125 
Q 39.65625 40.375 33.015625 40.375 
z
M 52.59375 71.296875 
L 52.59375 62.3125 
Q 48.875 64.0625 45.09375 64.984375 
Q 41.3125 65.921875 37.59375 65.921875 
Q 27.828125 65.921875 22.671875 59.328125 
Q 17.53125 52.734375 16.796875 39.40625 
Q 19.671875 43.65625 24.015625 45.921875 
Q 28.375 48.1875 33.59375 48.1875 
Q 44.578125 48.1875 50.953125 41.515625 
Q 57.328125 34.859375 57.328125 23.390625 
Q 57.328125 12.15625 50.6875 5.359375 
Q 44.046875 -1.421875 33.015625 -1.421875 
Q 20.359375 -1.421875 13.671875 8.265625 
Q 6.984375 17.96875 6.984375 36.375 
Q 6.984375 53.65625 15.1875 63.9375 
Q 23.390625 74.21875 37.203125 74.21875 
Q 40.921875 74.21875 44.703125 73.484375 
Q 48.484375 72.75 52.59375 71.296875 
z
" id="DejaVuSans-36"/>
   </defs>
   <g transform="translate(138.180938 16.030125)scale(0.12 -0.12)">
    <use xlink:href="#DejaVuSans-62"/>
    <use x="63.476562" xlink:href="#DejaVuSans-65"/>
    <use x="125" xlink:href="#DejaVuSans-6e"/>
    <use x="188.378906" xlink:href="#DejaVuSans-63"/>
    <use x="243.359375" xlink:href="#DejaVuSans-68"/>
    <use x="306.738281" xlink:href="#DejaVuSans-6d"/>
    <use x="404.150391" xlink:href="#DejaVuSans-61"/>
    <use x="465.429688" xlink:href="#DejaVuSans-72"/>
    <use x="506.542969" xlink:href="#DejaVuSans-6b"/>
    <use x="564.453125" xlink:href="#DejaVuSans-20"/>
    <use x="596.240234" xlink:href="#DejaVuSans-32"/>
    <use x="659.863281" xlink:href="#DejaVuSans-30"/>
    <use x="723.486328" xlink:href="#DejaVuSans-31"/>
    <use x="787.109375" xlink:href="#DejaVuSans-37"/>
    <use x="850.732422" xlink:href="#DejaVuSans-31"/>
    <use x="914.355469" xlink:href="#DejaVuSans-30"/>
    <use x="977.978516" xlink:href="#DejaVuSans-32"/>
    <use x="1041.601562" xlink:href="#DejaVuSans-33"/>
    <use x="1105.224609" xlink:href="#DejaVuSans-5f"/>
    <use x="1155.224609" xlink:href="#DejaVuSans-30"/>
    <use x="1218.847656" xlink:href="#DejaVuSans-39"/>
    <use x="1282.470703" xlink:href="#DejaVuSans-30"/>
    <use x="1346.09375" xlink:href="#DejaVuSans-32"/>
    <use x="1409.716797" xlink:href="#DejaVuSans-34"/>
    <use x="1473.339844" xlink:href="#DejaVuSans-36"/>
   </g>
  </g>
 </g>
 <defs>
  <clipPath id="pbf272df325">
   <rect height="118.272" width="158.72" x="57.6" y="41.472"/>
  </clipPath>
  <clipPath id="p10fb3f7be7">
   <rect height="118.272" width="158.72" x="256" y="41.472"/>
  </clipPath>
  <clipPath id="p0fd5eb5677">
   <rect height="118.272" width="158.72" x="57.6" y="189.312"/>
  </clipPath>
  <clipPath id="pc098ec7866">
   <rect height="118.272" width="158.72" x="256" y="189.312"/>
  </clipPath>
 </defs>
</svg>
