<?xml version="1.0" encoding="utf-8" standalone="no"?>
<!DOCTYPE svg PUBLIC "-//W3C//DTD SVG 1.1//EN"
  "http://www.w3.org/Graphics/SVG/1.1/DTD/svg11.dtd">
<!-- Created with matplotlib (http://matplotlib.org/) -->
<svg height="345pt" version="1.1" viewBox="0 0 460 345" width="460pt" xmlns="http://www.w3.org/2000/svg" xmlns:xlink="http://www.w3.org/1999/xlink">
 <defs>
  <style type="text/css">
*{stroke-linecap:butt;stroke-linejoin:round;}
  </style>
 </defs>
 <g id="figure_1">
  <g id="patch_1">
   <path d="M 0 345.6 
L 460.8 345.6 
L 460.8 0 
L 0 0 
z
" style="fill:#ffffff;"/>
  </g>
  <g id="axes_1">
   <g id="patch_2">
    <path d="M 57.6 159.744 
L 216.32 159.744 
L 216.32 41.472 
L 57.6 41.472 
z
" style="fill:#ffffff;"/>
   </g>
   <g id="matplotlib.axis_1">
    <g id="xtick_1">
     <g id="line2d_1">
      <path clip-path="url(#p4be67a0090)" d="M 64.814545 159.744 
L 64.814545 41.472 
" style="fill:none;stroke:#b0b0b0;stroke-linecap:square;stroke-width:0.8;"/>
     </g>
     <g id="line2d_2">
      <defs>
       <path d="M 0 0 
L 0 3.5 
" id="me2cdb51938" style="stroke:#000000;stroke-width:0.8;"/>
      </defs>
      <g>
       <use style="stroke:#000000;stroke-width:0.8;" x="64.814545" xlink:href="#me2cdb51938" y="159.744"/>
      </g>
     </g>
     <g id="text_1">
      <!-- 0 -->
      <defs>
       <path d="M 31.78125 66.40625 
Q 24.171875 66.40625 20.328125 58.90625 
Q 16.5 51.421875 16.5 36.375 
Q 16.5 21.390625 20.328125 13.890625 
Q 24.171875 6.390625 31.78125 6.390625 
Q 39.453125 6.390625 43.28125 13.890625 
Q 47.125 21.390625 47.125 36.375 
Q 47.125 51.421875 43.28125 58.90625 
Q 39.453125 66.40625 31.78125 66.40625 
z
M 31.78125 74.21875 
Q 44.046875 74.21875 50.515625 64.515625 
Q 56.984375 54.828125 56.984375 36.375 
Q 56.984375 17.96875 50.515625 8.265625 
Q 44.046875 -1.421875 31.78125 -1.421875 
Q 19.53125 -1.421875 13.0625 8.265625 
Q 6.59375 17.96875 6.59375 36.375 
Q 6.59375 54.828125 13.0625 64.515625 
Q 19.53125 74.21875 31.78125 74.21875 
z
" id="DejaVuSans-30"/>
      </defs>
      <g transform="translate(61.633295 174.342437)scale(0.1 -0.1)">
       <use xlink:href="#DejaVuSans-30"/>
      </g>
     </g>
    </g>
    <g id="xtick_2">
     <g id="line2d_3">
      <path clip-path="url(#p4be67a0090)" d="M 113.072375 159.744 
L 113.072375 41.472 
" style="fill:none;stroke:#b0b0b0;stroke-linecap:square;stroke-width:0.8;"/>
     </g>
     <g id="line2d_4">
      <g>
       <use style="stroke:#000000;stroke-width:0.8;" x="113.072375" xlink:href="#me2cdb51938" y="159.744"/>
      </g>
     </g>
     <g id="text_2">
      <!-- 100 -->
      <defs>
       <path d="M 12.40625 8.296875 
L 28.515625 8.296875 
L 28.515625 63.921875 
L 10.984375 60.40625 
L 10.984375 69.390625 
L 28.421875 72.90625 
L 38.28125 72.90625 
L 38.28125 8.296875 
L 54.390625 8.296875 
L 54.390625 0 
L 12.40625 0 
z
" id="DejaVuSans-31"/>
      </defs>
      <g transform="translate(103.528625 174.342437)scale(0.1 -0.1)">
       <use xlink:href="#DejaVuSans-31"/>
       <use x="63.623047" xlink:href="#DejaVuSans-30"/>
       <use x="127.246094" xlink:href="#DejaVuSans-30"/>
      </g>
     </g>
    </g>
    <g id="xtick_3">
     <g id="line2d_5">
      <path clip-path="url(#p4be67a0090)" d="M 161.330204 159.744 
L 161.330204 41.472 
" style="fill:none;stroke:#b0b0b0;stroke-linecap:square;stroke-width:0.8;"/>
     </g>
     <g id="line2d_6">
      <g>
       <use style="stroke:#000000;stroke-width:0.8;" x="161.330204" xlink:href="#me2cdb51938" y="159.744"/>
      </g>
     </g>
     <g id="text_3">
      <!-- 200 -->
      <defs>
       <path d="M 19.1875 8.296875 
L 53.609375 8.296875 
L 53.609375 0 
L 7.328125 0 
L 7.328125 8.296875 
Q 12.9375 14.109375 22.625 23.890625 
Q 32.328125 33.6875 34.8125 36.53125 
Q 39.546875 41.84375 41.421875 45.53125 
Q 43.3125 49.21875 43.3125 52.78125 
Q 43.3125 58.59375 39.234375 62.25 
Q 35.15625 65.921875 28.609375 65.921875 
Q 23.96875 65.921875 18.8125 64.3125 
Q 13.671875 62.703125 7.8125 59.421875 
L 7.8125 69.390625 
Q 13.765625 71.78125 18.9375 73 
Q 24.125 74.21875 28.421875 74.21875 
Q 39.75 74.21875 46.484375 68.546875 
Q 53.21875 62.890625 53.21875 53.421875 
Q 53.21875 48.921875 51.53125 44.890625 
Q 49.859375 40.875 45.40625 35.40625 
Q 44.1875 33.984375 37.640625 27.21875 
Q 31.109375 20.453125 19.1875 8.296875 
z
" id="DejaVuSans-32"/>
      </defs>
      <g transform="translate(151.786454 174.342437)scale(0.1 -0.1)">
       <use xlink:href="#DejaVuSans-32"/>
       <use x="63.623047" xlink:href="#DejaVuSans-30"/>
       <use x="127.246094" xlink:href="#DejaVuSans-30"/>
      </g>
     </g>
    </g>
    <g id="xtick_4">
     <g id="line2d_7">
      <path clip-path="url(#p4be67a0090)" d="M 209.588033 159.744 
L 209.588033 41.472 
" style="fill:none;stroke:#b0b0b0;stroke-linecap:square;stroke-width:0.8;"/>
     </g>
     <g id="line2d_8">
      <g>
       <use style="stroke:#000000;stroke-width:0.8;" x="209.588033" xlink:href="#me2cdb51938" y="159.744"/>
      </g>
     </g>
     <g id="text_4">
      <!-- 300 -->
      <defs>
       <path d="M 40.578125 39.3125 
Q 47.65625 37.796875 51.625 33 
Q 55.609375 28.21875 55.609375 21.1875 
Q 55.609375 10.40625 48.1875 4.484375 
Q 40.765625 -1.421875 27.09375 -1.421875 
Q 22.515625 -1.421875 17.65625 -0.515625 
Q 12.796875 0.390625 7.625 2.203125 
L 7.625 11.71875 
Q 11.71875 9.328125 16.59375 8.109375 
Q 21.484375 6.890625 26.8125 6.890625 
Q 36.078125 6.890625 40.9375 10.546875 
Q 45.796875 14.203125 45.796875 21.1875 
Q 45.796875 27.640625 41.28125 31.265625 
Q 36.765625 34.90625 28.71875 34.90625 
L 20.21875 34.90625 
L 20.21875 43.015625 
L 29.109375 43.015625 
Q 36.375 43.015625 40.234375 45.921875 
Q 44.09375 48.828125 44.09375 54.296875 
Q 44.09375 59.90625 40.109375 62.90625 
Q 36.140625 65.921875 28.71875 65.921875 
Q 24.65625 65.921875 20.015625 65.03125 
Q 15.375 64.15625 9.8125 62.3125 
L 9.8125 71.09375 
Q 15.4375 72.65625 20.34375 73.4375 
Q 25.25 74.21875 29.59375 74.21875 
Q 40.828125 74.21875 47.359375 69.109375 
Q 53.90625 64.015625 53.90625 55.328125 
Q 53.90625 49.265625 50.4375 45.09375 
Q 46.96875 40.921875 40.578125 39.3125 
z
" id="DejaVuSans-33"/>
      </defs>
      <g transform="translate(200.044283 174.342437)scale(0.1 -0.1)">
       <use xlink:href="#DejaVuSans-33"/>
       <use x="63.623047" xlink:href="#DejaVuSans-30"/>
       <use x="127.246094" xlink:href="#DejaVuSans-30"/>
      </g>
     </g>
    </g>
   </g>
   <g id="matplotlib.axis_2">
    <g id="ytick_1">
     <g id="line2d_9">
      <path clip-path="url(#p4be67a0090)" d="M 57.6 154.800281 
L 216.32 154.800281 
" style="fill:none;stroke:#b0b0b0;stroke-linecap:square;stroke-width:0.8;"/>
     </g>
     <g id="line2d_10">
      <defs>
       <path d="M 0 0 
L -3.5 0 
" id="m0d0c9c3d62" style="stroke:#000000;stroke-width:0.8;"/>
      </defs>
      <g>
       <use style="stroke:#000000;stroke-width:0.8;" x="57.6" xlink:href="#m0d0c9c3d62" y="154.800281"/>
      </g>
     </g>
     <g id="text_5">
      <!-- 0.0 -->
      <defs>
       <path d="M 10.6875 12.40625 
L 21 12.40625 
L 21 0 
L 10.6875 0 
z
" id="DejaVuSans-2e"/>
      </defs>
      <g transform="translate(34.696875 158.599499)scale(0.1 -0.1)">
       <use xlink:href="#DejaVuSans-30"/>
       <use x="63.623047" xlink:href="#DejaVuSans-2e"/>
       <use x="95.410156" xlink:href="#DejaVuSans-30"/>
      </g>
     </g>
    </g>
    <g id="ytick_2">
     <g id="line2d_11">
      <path clip-path="url(#p4be67a0090)" d="M 57.6 130.655439 
L 216.32 130.655439 
" style="fill:none;stroke:#b0b0b0;stroke-linecap:square;stroke-width:0.8;"/>
     </g>
     <g id="line2d_12">
      <g>
       <use style="stroke:#000000;stroke-width:0.8;" x="57.6" xlink:href="#m0d0c9c3d62" y="130.655439"/>
      </g>
     </g>
     <g id="text_6">
      <!-- 0.2 -->
      <g transform="translate(34.696875 134.454657)scale(0.1 -0.1)">
       <use xlink:href="#DejaVuSans-30"/>
       <use x="63.623047" xlink:href="#DejaVuSans-2e"/>
       <use x="95.410156" xlink:href="#DejaVuSans-32"/>
      </g>
     </g>
    </g>
    <g id="ytick_3">
     <g id="line2d_13">
      <path clip-path="url(#p4be67a0090)" d="M 57.6 106.510596 
L 216.32 106.510596 
" style="fill:none;stroke:#b0b0b0;stroke-linecap:square;stroke-width:0.8;"/>
     </g>
     <g id="line2d_14">
      <g>
       <use style="stroke:#000000;stroke-width:0.8;" x="57.6" xlink:href="#m0d0c9c3d62" y="106.510596"/>
      </g>
     </g>
     <g id="text_7">
      <!-- 0.4 -->
      <defs>
       <path d="M 37.796875 64.3125 
L 12.890625 25.390625 
L 37.796875 25.390625 
z
M 35.203125 72.90625 
L 47.609375 72.90625 
L 47.609375 25.390625 
L 58.015625 25.390625 
L 58.015625 17.1875 
L 47.609375 17.1875 
L 47.609375 0 
L 37.796875 0 
L 37.796875 17.1875 
L 4.890625 17.1875 
L 4.890625 26.703125 
z
" id="DejaVuSans-34"/>
      </defs>
      <g transform="translate(34.696875 110.309815)scale(0.1 -0.1)">
       <use xlink:href="#DejaVuSans-30"/>
       <use x="63.623047" xlink:href="#DejaVuSans-2e"/>
       <use x="95.410156" xlink:href="#DejaVuSans-34"/>
      </g>
     </g>
    </g>
    <g id="ytick_4">
     <g id="line2d_15">
      <path clip-path="url(#p4be67a0090)" d="M 57.6 82.365754 
L 216.32 82.365754 
" style="fill:none;stroke:#b0b0b0;stroke-linecap:square;stroke-width:0.8;"/>
     </g>
     <g id="line2d_16">
      <g>
       <use style="stroke:#000000;stroke-width:0.8;" x="57.6" xlink:href="#m0d0c9c3d62" y="82.365754"/>
      </g>
     </g>
     <g id="text_8">
      <!-- 0.6 -->
      <defs>
       <path d="M 33.015625 40.375 
Q 26.375 40.375 22.484375 35.828125 
Q 18.609375 31.296875 18.609375 23.390625 
Q 18.609375 15.53125 22.484375 10.953125 
Q 26.375 6.390625 33.015625 6.390625 
Q 39.65625 6.390625 43.53125 10.953125 
Q 47.40625 15.53125 47.40625 23.390625 
Q 47.40625 31.296875 43.53125 35.828125 
Q 39.65625 40.375 33.015625 40.375 
z
M 52.59375 71.296875 
L 52.59375 62.3125 
Q 48.875 64.0625 45.09375 64.984375 
Q 41.3125 65.921875 37.59375 65.921875 
Q 27.828125 65.921875 22.671875 59.328125 
Q 17.53125 52.734375 16.796875 39.40625 
Q 19.671875 43.65625 24.015625 45.921875 
Q 28.375 48.1875 33.59375 48.1875 
Q 44.578125 48.1875 50.953125 41.515625 
Q 57.328125 34.859375 57.328125 23.390625 
Q 57.328125 12.15625 50.6875 5.359375 
Q 44.046875 -1.421875 33.015625 -1.421875 
Q 20.359375 -1.421875 13.671875 8.265625 
Q 6.984375 17.96875 6.984375 36.375 
Q 6.984375 53.65625 15.1875 63.9375 
Q 23.390625 74.21875 37.203125 74.21875 
Q 40.921875 74.21875 44.703125 73.484375 
Q 48.484375 72.75 52.59375 71.296875 
z
" id="DejaVuSans-36"/>
      </defs>
      <g transform="translate(34.696875 86.164973)scale(0.1 -0.1)">
       <use xlink:href="#DejaVuSans-30"/>
       <use x="63.623047" xlink:href="#DejaVuSans-2e"/>
       <use x="95.410156" xlink:href="#DejaVuSans-36"/>
      </g>
     </g>
    </g>
    <g id="ytick_5">
     <g id="line2d_17">
      <path clip-path="url(#p4be67a0090)" d="M 57.6 58.220912 
L 216.32 58.220912 
" style="fill:none;stroke:#b0b0b0;stroke-linecap:square;stroke-width:0.8;"/>
     </g>
     <g id="line2d_18">
      <g>
       <use style="stroke:#000000;stroke-width:0.8;" x="57.6" xlink:href="#m0d0c9c3d62" y="58.220912"/>
      </g>
     </g>
     <g id="text_9">
      <!-- 0.8 -->
      <defs>
       <path d="M 31.78125 34.625 
Q 24.75 34.625 20.71875 30.859375 
Q 16.703125 27.09375 16.703125 20.515625 
Q 16.703125 13.921875 20.71875 10.15625 
Q 24.75 6.390625 31.78125 6.390625 
Q 38.8125 6.390625 42.859375 10.171875 
Q 46.921875 13.96875 46.921875 20.515625 
Q 46.921875 27.09375 42.890625 30.859375 
Q 38.875 34.625 31.78125 34.625 
z
M 21.921875 38.8125 
Q 15.578125 40.375 12.03125 44.71875 
Q 8.5 49.078125 8.5 55.328125 
Q 8.5 64.0625 14.71875 69.140625 
Q 20.953125 74.21875 31.78125 74.21875 
Q 42.671875 74.21875 48.875 69.140625 
Q 55.078125 64.0625 55.078125 55.328125 
Q 55.078125 49.078125 51.53125 44.71875 
Q 48 40.375 41.703125 38.8125 
Q 48.828125 37.15625 52.796875 32.3125 
Q 56.78125 27.484375 56.78125 20.515625 
Q 56.78125 9.90625 50.3125 4.234375 
Q 43.84375 -1.421875 31.78125 -1.421875 
Q 19.734375 -1.421875 13.25 4.234375 
Q 6.78125 9.90625 6.78125 20.515625 
Q 6.78125 27.484375 10.78125 32.3125 
Q 14.796875 37.15625 21.921875 38.8125 
z
M 18.3125 54.390625 
Q 18.3125 48.734375 21.84375 45.5625 
Q 25.390625 42.390625 31.78125 42.390625 
Q 38.140625 42.390625 41.71875 45.5625 
Q 45.3125 48.734375 45.3125 54.390625 
Q 45.3125 60.0625 41.71875 63.234375 
Q 38.140625 66.40625 31.78125 66.40625 
Q 25.390625 66.40625 21.84375 63.234375 
Q 18.3125 60.0625 18.3125 54.390625 
z
" id="DejaVuSans-38"/>
      </defs>
      <g transform="translate(34.696875 62.020131)scale(0.1 -0.1)">
       <use xlink:href="#DejaVuSans-30"/>
       <use x="63.623047" xlink:href="#DejaVuSans-2e"/>
       <use x="95.410156" xlink:href="#DejaVuSans-38"/>
      </g>
     </g>
    </g>
   </g>
   <g id="line2d_19">
    <path clip-path="url(#p4be67a0090)" d="M 64.814545 154.368 
L 65.297124 154.250105 
L 66.744859 152.874667 
L 67.710015 149.65221 
L 68.192593 149.141333 
L 68.675172 147.962386 
L 69.15775 146.390456 
L 69.640328 145.918877 
L 71.088063 140.181333 
L 72.05322 137.469754 
L 72.535798 136.526596 
L 73.018376 134.011508 
L 73.500955 132.950456 
L 74.466111 129.25642 
L 74.94869 128.352561 
L 75.431268 127.01642 
L 75.913846 126.426947 
L 77.361581 122.379227 
L 77.844159 121.121683 
L 78.326738 119.078175 
L 79.291894 118.685192 
L 79.774472 116.248701 
L 80.257051 116.602385 
L 80.739629 112.593964 
L 81.222207 113.14414 
L 81.704786 112.043789 
L 82.187364 111.886596 
L 82.669942 110.157473 
L 83.152521 109.882385 
L 83.635099 107.367297 
L 84.600255 107.170806 
L 85.082834 105.52028 
L 86.04799 103.319578 
L 86.530569 101.747648 
L 87.013147 103.005192 
L 87.495725 102.494315 
L 87.978303 101.70835 
L 88.460882 99.782736 
L 88.94346 100.175718 
L 89.426038 97.503438 
L 89.908617 95.970806 
L 90.391195 96.638876 
L 90.873773 97.503438 
L 91.356351 96.010104 
L 91.83893 93.298525 
L 92.321508 93.966596 
L 92.804086 92.551858 
L 93.286665 91.765893 
L 93.769243 91.412209 
L 94.251821 90.901332 
L 94.7344 91.962384 
L 95.216978 88.936419 
L 95.699556 90.036771 
L 96.182134 87.1287 
L 96.664713 87.482385 
L 97.147291 85.871157 
L 97.629869 85.438876 
L 98.112448 86.382034 
L 98.595026 85.006595 
L 99.077604 84.927999 
L 99.560182 84.102735 
L 100.042761 83.827648 
L 100.525339 82.963086 
L 101.007917 81.548349 
L 101.490496 82.412911 
L 101.973074 81.273261 
L 102.455652 81.784139 
L 102.93823 79.465543 
L 103.420809 81.74484 
L 103.903387 78.640279 
L 104.385965 78.404489 
L 104.868544 79.072559 
L 105.351122 77.50063 
L 105.8337 77.854314 
L 106.316279 76.59677 
L 106.798857 77.225542 
L 107.281435 74.513963 
L 107.764013 76.243086 
L 108.246592 75.496419 
L 108.72917 75.575016 
L 109.211748 72.942034 
L 109.694327 74.671156 
L 110.176905 73.845893 
L 110.659483 73.845893 
L 111.142061 73.413612 
L 111.62464 72.352559 
L 112.107218 72.391858 
L 113.072375 70.584139 
L 113.554953 70.937822 
L 114.037531 70.898524 
L 114.520109 72.077472 
L 115.002688 71.409401 
L 115.485266 69.680279 
L 115.967844 69.090805 
L 116.450423 69.798173 
L 116.933001 69.090805 
L 117.415579 68.029753 
L 118.380736 69.326595 
L 118.863314 68.933613 
L 119.345892 67.597472 
L 119.828471 67.086595 
L 120.311049 66.339928 
L 120.793627 66.772209 
L 121.276206 66.418525 
L 121.758784 66.261332 
L 122.241362 66.222034 
L 122.72394 66.339929 
L 123.206519 64.96449 
L 123.689097 64.7287 
L 124.171675 64.650104 
L 125.136832 65.239577 
L 125.61941 63.628349 
L 126.101988 63.510454 
L 126.584567 63.864139 
L 127.067145 63.667647 
L 127.549723 63.62835 
L 128.032302 63.038876 
L 128.51488 62.881683 
L 128.997458 61.977823 
L 129.480036 63.785542 
L 129.962615 63.510455 
L 130.445193 61.977823 
L 130.927771 61.15256 
L 131.41035 61.58484 
L 131.892928 61.742034 
L 132.375506 61.506244 
L 132.858085 60.759578 
L 133.340663 61.938525 
L 133.823241 60.405894 
L 134.305819 60.720279 
L 134.788398 59.934315 
L 135.270976 60.327297 
L 136.236133 60.445191 
L 136.718711 59.344841 
L 137.201289 59.58063 
L 137.683867 59.659227 
L 138.166446 60.995367 
L 138.649024 58.912561 
L 139.131602 58.755367 
L 140.096759 59.698526 
L 140.579337 59.187648 
L 141.061915 57.694315 
L 141.544494 58.24449 
L 142.027072 57.537122 
L 142.50965 58.087297 
L 142.992229 57.379929 
L 143.474807 57.497824 
L 144.439964 56.90835 
L 144.922542 57.655017 
L 145.40512 57.262034 
L 145.887698 57.065543 
L 146.370277 57.340631 
L 146.852855 56.593964 
L 147.335433 57.537122 
L 147.818012 56.90835 
L 148.30059 56.829754 
L 149.265746 55.532911 
L 149.748325 56.043789 
L 150.713481 55.218526 
L 151.19606 56.083087 
L 151.678638 55.415017 
L 153.126373 55.611508 
L 153.608951 55.297122 
L 154.091529 56.279578 
L 154.574108 54.157473 
L 155.056686 54.432561 
L 155.539264 54.157473 
L 156.021843 54.550456 
L 156.504421 54.786245 
L 156.986999 54.432561 
L 157.469577 53.450105 
L 157.952156 54.118175 
L 158.434734 54.157473 
L 158.917312 53.33221 
L 159.399891 53.371508 
L 159.882469 53.528701 
L 160.365047 54.511157 
L 160.847625 53.371508 
L 161.330204 54.353964 
L 161.812782 52.939228 
L 162.29536 52.703438 
L 162.777939 53.410806 
L 163.260517 53.646596 
L 163.743095 52.782035 
L 164.225673 52.506947 
L 164.708252 53.803789 
L 165.19083 51.642386 
L 165.673408 52.192561 
L 166.155987 52.310456 
L 166.638565 52.192561 
L 167.121143 52.271158 
L 167.603721 51.485193 
L 168.0863 52.074666 
L 168.568878 51.838877 
L 169.051456 52.153263 
L 169.534035 51.996069 
L 170.499191 51.367298 
L 170.98177 51.445894 
L 171.464348 51.210104 
L 171.946926 51.917473 
L 172.429504 51.720982 
L 172.912083 51.288702 
L 173.394661 51.878175 
L 173.877239 51.563789 
L 174.359818 51.799578 
L 174.842396 51.642386 
L 175.324974 50.620631 
L 175.807552 50.699228 
L 176.290131 50.895719 
L 176.772709 50.109754 
L 177.255287 49.716772 
L 178.220444 50.384842 
L 178.703022 50.620631 
L 179.1856 49.834667 
L 179.668179 49.363087 
L 180.150757 50.306245 
L 180.633335 49.520281 
L 181.115914 50.227649 
L 181.598492 50.227649 
L 182.08107 50.699228 
L 182.563649 49.795368 
L 183.046227 49.638175 
L 183.528805 49.795368 
L 184.011383 50.542035 
L 184.493962 49.677474 
L 184.97654 49.245193 
L 185.459118 49.009404 
L 185.941697 49.284491 
L 186.424275 49.32379 
L 186.906853 49.598877 
L 187.87201 49.009404 
L 188.354588 49.363088 
L 188.837166 49.559579 
L 189.319745 48.734316 
L 189.802323 49.127298 
L 190.284901 48.852211 
L 190.767479 48.812913 
L 191.250058 49.363088 
L 191.732636 49.559579 
L 192.215214 49.52028 
L 192.697793 49.638175 
L 193.180371 50.109755 
L 193.662949 48.262737 
L 194.145528 48.380632 
L 194.628106 48.734316 
L 195.110684 48.891509 
L 195.593262 47.280281 
L 196.558419 48.616421 
L 197.040997 48.105544 
L 198.006154 48.223439 
L 198.488732 47.830456 
L 198.97131 48.066246 
L 199.936467 47.75186 
L 200.419045 48.302035 
L 200.901624 47.201684 
L 201.384202 47.08379 
L 201.86678 48.537825 
L 202.349358 47.319579 
L 202.831937 47.319579 
L 203.314515 48.105544 
L 204.279672 46.848 
L 204.76225 47.51607 
L 205.244828 47.201684 
L 205.727407 47.830456 
L 206.209985 47.476772 
L 206.692563 46.848001 
L 207.175141 47.594666 
L 207.65772 47.633965 
L 208.140298 47.476772 
L 208.622876 47.08379 
L 209.105455 46.926597 
L 209.105455 46.926597 
" style="fill:none;stroke:#1f77b4;stroke-linecap:square;stroke-width:1.5;"/>
   </g>
   <g id="patch_3">
    <path d="M 57.6 159.744 
L 57.6 41.472 
" style="fill:none;stroke:#000000;stroke-linecap:square;stroke-linejoin:miter;stroke-width:0.8;"/>
   </g>
   <g id="patch_4">
    <path d="M 216.32 159.744 
L 216.32 41.472 
" style="fill:none;stroke:#000000;stroke-linecap:square;stroke-linejoin:miter;stroke-width:0.8;"/>
   </g>
   <g id="patch_5">
    <path d="M 57.6 159.744 
L 216.32 159.744 
" style="fill:none;stroke:#000000;stroke-linecap:square;stroke-linejoin:miter;stroke-width:0.8;"/>
   </g>
   <g id="patch_6">
    <path d="M 57.6 41.472 
L 216.32 41.472 
" style="fill:none;stroke:#000000;stroke-linecap:square;stroke-linejoin:miter;stroke-width:0.8;"/>
   </g>
   <g id="text_10">
    <!-- acc -->
    <defs>
     <path d="M 34.28125 27.484375 
Q 23.390625 27.484375 19.1875 25 
Q 14.984375 22.515625 14.984375 16.5 
Q 14.984375 11.71875 18.140625 8.90625 
Q 21.296875 6.109375 26.703125 6.109375 
Q 34.1875 6.109375 38.703125 11.40625 
Q 43.21875 16.703125 43.21875 25.484375 
L 43.21875 27.484375 
z
M 52.203125 31.203125 
L 52.203125 0 
L 43.21875 0 
L 43.21875 8.296875 
Q 40.140625 3.328125 35.546875 0.953125 
Q 30.953125 -1.421875 24.3125 -1.421875 
Q 15.921875 -1.421875 10.953125 3.296875 
Q 6 8.015625 6 15.921875 
Q 6 25.140625 12.171875 29.828125 
Q 18.359375 34.515625 30.609375 34.515625 
L 43.21875 34.515625 
L 43.21875 35.40625 
Q 43.21875 41.609375 39.140625 45 
Q 35.0625 48.390625 27.6875 48.390625 
Q 23 48.390625 18.546875 47.265625 
Q 14.109375 46.140625 10.015625 43.890625 
L 10.015625 52.203125 
Q 14.9375 54.109375 19.578125 55.046875 
Q 24.21875 56 28.609375 56 
Q 40.484375 56 46.34375 49.84375 
Q 52.203125 43.703125 52.203125 31.203125 
z
" id="DejaVuSans-61"/>
     <path d="M 48.78125 52.59375 
L 48.78125 44.1875 
Q 44.96875 46.296875 41.140625 47.34375 
Q 37.3125 48.390625 33.40625 48.390625 
Q 24.65625 48.390625 19.8125 42.84375 
Q 14.984375 37.3125 14.984375 27.296875 
Q 14.984375 17.28125 19.8125 11.734375 
Q 24.65625 6.203125 33.40625 6.203125 
Q 37.3125 6.203125 41.140625 7.25 
Q 44.96875 8.296875 48.78125 10.40625 
L 48.78125 2.09375 
Q 45.015625 0.34375 40.984375 -0.53125 
Q 36.96875 -1.421875 32.421875 -1.421875 
Q 20.0625 -1.421875 12.78125 6.34375 
Q 5.515625 14.109375 5.515625 27.296875 
Q 5.515625 40.671875 12.859375 48.328125 
Q 20.21875 56 33.015625 56 
Q 37.15625 56 41.109375 55.140625 
Q 45.0625 54.296875 48.78125 52.59375 
z
" id="DejaVuSans-63"/>
    </defs>
    <g transform="translate(126.685 35.472)scale(0.12 -0.12)">
     <use xlink:href="#DejaVuSans-61"/>
     <use x="61.279297" xlink:href="#DejaVuSans-63"/>
     <use x="116.259766" xlink:href="#DejaVuSans-63"/>
    </g>
   </g>
  </g>
  <g id="axes_2">
   <g id="patch_7">
    <path d="M 256 159.744 
L 414.72 159.744 
L 414.72 41.472 
L 256 41.472 
z
" style="fill:#ffffff;"/>
   </g>
   <g id="matplotlib.axis_3">
    <g id="xtick_5">
     <g id="line2d_20">
      <path clip-path="url(#pfd8af25823)" d="M 263.214545 159.744 
L 263.214545 41.472 
" style="fill:none;stroke:#b0b0b0;stroke-linecap:square;stroke-width:0.8;"/>
     </g>
     <g id="line2d_21">
      <g>
       <use style="stroke:#000000;stroke-width:0.8;" x="263.214545" xlink:href="#me2cdb51938" y="159.744"/>
      </g>
     </g>
     <g id="text_11">
      <!-- 0 -->
      <g transform="translate(260.033295 174.342437)scale(0.1 -0.1)">
       <use xlink:href="#DejaVuSans-30"/>
      </g>
     </g>
    </g>
    <g id="xtick_6">
     <g id="line2d_22">
      <path clip-path="url(#pfd8af25823)" d="M 311.472375 159.744 
L 311.472375 41.472 
" style="fill:none;stroke:#b0b0b0;stroke-linecap:square;stroke-width:0.8;"/>
     </g>
     <g id="line2d_23">
      <g>
       <use style="stroke:#000000;stroke-width:0.8;" x="311.472375" xlink:href="#me2cdb51938" y="159.744"/>
      </g>
     </g>
     <g id="text_12">
      <!-- 100 -->
      <g transform="translate(301.928625 174.342437)scale(0.1 -0.1)">
       <use xlink:href="#DejaVuSans-31"/>
       <use x="63.623047" xlink:href="#DejaVuSans-30"/>
       <use x="127.246094" xlink:href="#DejaVuSans-30"/>
      </g>
     </g>
    </g>
    <g id="xtick_7">
     <g id="line2d_24">
      <path clip-path="url(#pfd8af25823)" d="M 359.730204 159.744 
L 359.730204 41.472 
" style="fill:none;stroke:#b0b0b0;stroke-linecap:square;stroke-width:0.8;"/>
     </g>
     <g id="line2d_25">
      <g>
       <use style="stroke:#000000;stroke-width:0.8;" x="359.730204" xlink:href="#me2cdb51938" y="159.744"/>
      </g>
     </g>
     <g id="text_13">
      <!-- 200 -->
      <g transform="translate(350.186454 174.342437)scale(0.1 -0.1)">
       <use xlink:href="#DejaVuSans-32"/>
       <use x="63.623047" xlink:href="#DejaVuSans-30"/>
       <use x="127.246094" xlink:href="#DejaVuSans-30"/>
      </g>
     </g>
    </g>
    <g id="xtick_8">
     <g id="line2d_26">
      <path clip-path="url(#pfd8af25823)" d="M 407.988033 159.744 
L 407.988033 41.472 
" style="fill:none;stroke:#b0b0b0;stroke-linecap:square;stroke-width:0.8;"/>
     </g>
     <g id="line2d_27">
      <g>
       <use style="stroke:#000000;stroke-width:0.8;" x="407.988033" xlink:href="#me2cdb51938" y="159.744"/>
      </g>
     </g>
     <g id="text_14">
      <!-- 300 -->
      <g transform="translate(398.444283 174.342437)scale(0.1 -0.1)">
       <use xlink:href="#DejaVuSans-33"/>
       <use x="63.623047" xlink:href="#DejaVuSans-30"/>
       <use x="127.246094" xlink:href="#DejaVuSans-30"/>
      </g>
     </g>
    </g>
   </g>
   <g id="matplotlib.axis_4">
    <g id="ytick_6">
     <g id="line2d_28">
      <path clip-path="url(#pfd8af25823)" d="M 256 119.838241 
L 414.72 119.838241 
" style="fill:none;stroke:#b0b0b0;stroke-linecap:square;stroke-width:0.8;"/>
     </g>
     <g id="line2d_29">
      <g>
       <use style="stroke:#000000;stroke-width:0.8;" x="256" xlink:href="#m0d0c9c3d62" y="119.838241"/>
      </g>
     </g>
     <g id="text_15">
      <!-- 2 -->
      <g transform="translate(242.6375 123.63746)scale(0.1 -0.1)">
       <use xlink:href="#DejaVuSans-32"/>
      </g>
     </g>
    </g>
    <g id="ytick_7">
     <g id="line2d_30">
      <path clip-path="url(#pfd8af25823)" d="M 256 78.71262 
L 414.72 78.71262 
" style="fill:none;stroke:#b0b0b0;stroke-linecap:square;stroke-width:0.8;"/>
     </g>
     <g id="line2d_31">
      <g>
       <use style="stroke:#000000;stroke-width:0.8;" x="256" xlink:href="#m0d0c9c3d62" y="78.71262"/>
      </g>
     </g>
     <g id="text_16">
      <!-- 4 -->
      <g transform="translate(242.6375 82.511839)scale(0.1 -0.1)">
       <use xlink:href="#DejaVuSans-34"/>
      </g>
     </g>
    </g>
   </g>
   <g id="line2d_32">
    <path clip-path="url(#pfd8af25823)" d="M 263.214545 46.848 
L 263.697124 47.154044 
L 264.179702 50.228356 
L 265.144859 62.1182 
L 266.110015 69.003889 
L 267.075172 73.996894 
L 267.55775 76.867361 
L 268.040328 79.030486 
L 269.005485 84.090376 
L 270.45322 90.461853 
L 271.900955 95.633833 
L 274.796424 103.66091 
L 275.761581 105.433846 
L 276.726738 107.779629 
L 277.691894 109.165085 
L 278.174472 110.242552 
L 278.657051 110.969665 
L 279.139629 112.243887 
L 280.104786 113.380554 
L 280.587364 114.346546 
L 281.069942 115.608121 
L 281.552521 115.956866 
L 282.035099 116.687148 
L 282.517677 117.183458 
L 283.000255 117.506492 
L 284.44799 119.582322 
L 284.930569 120.819153 
L 285.413147 120.798065 
L 287.34346 123.047266 
L 287.826038 123.771422 
L 288.791195 124.660076 
L 289.273773 124.965299 
L 289.756351 125.852116 
L 290.23893 126.011934 
L 290.721508 126.737356 
L 291.204086 126.921058 
L 291.686665 127.337769 
L 292.169243 128.221089 
L 292.651821 127.989182 
L 293.616978 129.648563 
L 294.099556 129.29196 
L 294.582134 130.182454 
L 295.064713 130.518678 
L 295.547291 131.184973 
L 296.029869 131.468777 
L 296.512448 131.215841 
L 296.995026 132.191709 
L 297.477604 132.489123 
L 297.960182 132.508444 
L 298.442761 132.715839 
L 299.407917 133.939611 
L 299.890496 133.816147 
L 300.373074 134.576427 
L 300.855652 134.322631 
L 301.33823 134.880811 
L 301.820809 135.045249 
L 302.785965 135.705686 
L 303.268544 136.096588 
L 303.751122 136.340299 
L 304.716279 137.20596 
L 305.198857 137.26918 
L 305.681435 137.675613 
L 306.164013 137.582735 
L 306.646592 138.001848 
L 307.12917 137.742272 
L 307.611748 138.531185 
L 308.094327 138.696369 
L 308.576905 138.643516 
L 309.059483 139.164746 
L 310.507218 139.588859 
L 310.989796 140.034633 
L 311.472375 140.30486 
L 311.954953 140.258598 
L 312.437531 140.53288 
L 312.920109 140.29507 
L 313.402688 141.019678 
L 313.885266 141.126692 
L 314.367844 141.491776 
L 314.850423 141.28005 
L 315.815579 142.276711 
L 316.298157 141.820501 
L 316.780736 142.072205 
L 317.263314 142.183377 
L 317.745892 142.493398 
L 318.228471 142.523021 
L 318.711049 143.211327 
L 319.193627 142.929921 
L 319.676206 142.950579 
L 320.158784 143.426282 
L 321.12394 143.437261 
L 322.089097 144.041621 
L 322.571675 144.026376 
L 323.054254 144.127078 
L 323.536832 144.379546 
L 324.984567 144.72361 
L 325.467145 144.893329 
L 325.949723 144.773058 
L 326.432302 145.114121 
L 326.91488 145.063064 
L 327.397458 145.317461 
L 327.880036 145.227689 
L 329.327771 146.052779 
L 330.292928 145.988773 
L 330.775506 146.14551 
L 331.258085 145.930992 
L 331.740663 145.857148 
L 332.705819 146.613173 
L 333.670976 146.497541 
L 334.153554 146.73653 
L 334.636133 146.401591 
L 335.118711 147.058932 
L 335.601289 146.850389 
L 336.083867 147.084696 
L 336.566446 146.864983 
L 337.049024 147.088895 
L 337.531602 147.145254 
L 338.014181 147.497893 
L 338.496759 147.256156 
L 339.944494 147.766998 
L 340.427072 148.020658 
L 340.90965 147.889392 
L 341.392229 148.303867 
L 342.357385 148.104372 
L 342.839964 148.101034 
L 343.80512 148.721486 
L 344.287698 148.626119 
L 344.770277 148.864031 
L 345.252855 148.41211 
L 346.218012 148.881875 
L 347.183168 148.914681 
L 347.665746 149.295263 
L 348.148325 149.118435 
L 349.59606 149.531393 
L 350.078638 149.473687 
L 350.561216 149.673451 
L 351.043794 149.287503 
L 351.526373 149.727168 
L 352.008951 149.712912 
L 352.491529 149.460147 
L 352.974108 150.18711 
L 353.456686 149.97113 
L 353.939264 149.938458 
L 354.421843 150.112155 
L 354.904421 149.891009 
L 355.386999 150.165821 
L 356.834734 150.498226 
L 357.317312 150.190961 
L 357.799891 150.547104 
L 358.282469 150.354567 
L 359.247625 150.472838 
L 359.730204 150.320301 
L 360.69536 150.885513 
L 361.660517 150.742646 
L 362.143095 150.615257 
L 363.108252 151.161676 
L 364.555987 151.219017 
L 365.038565 151.374609 
L 365.521143 151.180507 
L 366.003721 151.430985 
L 366.4863 151.379321 
L 366.968878 151.557135 
L 367.451456 151.327924 
L 368.416613 151.539459 
L 368.899191 151.425026 
L 369.38177 151.508829 
L 369.864348 151.899709 
L 370.346926 151.580754 
L 371.312083 151.711873 
L 371.794661 151.561945 
L 372.277239 151.851934 
L 373.242396 151.918641 
L 374.207552 152.166745 
L 374.690131 152.116928 
L 375.172709 152.394919 
L 375.655287 152.042003 
L 376.137866 152.497256 
L 376.620444 152.08689 
L 378.068179 152.729345 
L 378.550757 152.330164 
L 379.033335 152.780629 
L 379.515914 152.286797 
L 379.998492 152.938699 
L 380.48107 152.438784 
L 381.446227 152.329692 
L 381.928805 152.719662 
L 382.411383 152.581282 
L 382.893962 152.586418 
L 383.37654 152.813739 
L 384.341697 152.954628 
L 384.824275 152.880829 
L 385.306853 152.55537 
L 386.27201 152.705012 
L 386.754588 153.091362 
L 387.237166 153.099225 
L 387.719745 153.283639 
L 388.202323 152.682516 
L 388.684901 153.104335 
L 389.650058 152.805912 
L 390.132636 153.052341 
L 390.615214 152.979776 
L 391.097793 153.15035 
L 391.580371 152.815993 
L 392.062949 153.420147 
L 392.545528 153.521408 
L 393.028106 153.364674 
L 393.510684 153.054772 
L 393.993262 153.725487 
L 394.475841 153.72069 
L 394.958419 153.195297 
L 395.440997 153.697347 
L 395.923576 153.451917 
L 397.37131 153.652945 
L 397.853889 153.523802 
L 398.336467 153.68 
L 398.819045 153.557344 
L 399.784202 153.790483 
L 400.26678 153.630465 
L 400.749358 153.728413 
L 401.231937 153.622408 
L 401.714515 153.933122 
L 402.197093 154.087268 
L 402.679672 154.016435 
L 403.16225 154.176753 
L 403.644828 154.201112 
L 404.127407 153.699871 
L 404.609985 153.895786 
L 405.092563 153.915409 
L 405.575141 153.769425 
L 406.05772 153.831957 
L 406.540298 154.122523 
L 407.505455 154.368 
L 407.505455 154.368 
" style="fill:none;stroke:#1f77b4;stroke-linecap:square;stroke-width:1.5;"/>
   </g>
   <g id="patch_8">
    <path d="M 256 159.744 
L 256 41.472 
" style="fill:none;stroke:#000000;stroke-linecap:square;stroke-linejoin:miter;stroke-width:0.8;"/>
   </g>
   <g id="patch_9">
    <path d="M 414.72 159.744 
L 414.72 41.472 
" style="fill:none;stroke:#000000;stroke-linecap:square;stroke-linejoin:miter;stroke-width:0.8;"/>
   </g>
   <g id="patch_10">
    <path d="M 256 159.744 
L 414.72 159.744 
" style="fill:none;stroke:#000000;stroke-linecap:square;stroke-linejoin:miter;stroke-width:0.8;"/>
   </g>
   <g id="patch_11">
    <path d="M 256 41.472 
L 414.72 41.472 
" style="fill:none;stroke:#000000;stroke-linecap:square;stroke-linejoin:miter;stroke-width:0.8;"/>
   </g>
   <g id="text_17">
    <!-- loss -->
    <defs>
     <path d="M 9.421875 75.984375 
L 18.40625 75.984375 
L 18.40625 0 
L 9.421875 0 
z
" id="DejaVuSans-6c"/>
     <path d="M 30.609375 48.390625 
Q 23.390625 48.390625 19.1875 42.75 
Q 14.984375 37.109375 14.984375 27.296875 
Q 14.984375 17.484375 19.15625 11.84375 
Q 23.34375 6.203125 30.609375 6.203125 
Q 37.796875 6.203125 41.984375 11.859375 
Q 46.1875 17.53125 46.1875 27.296875 
Q 46.1875 37.015625 41.984375 42.703125 
Q 37.796875 48.390625 30.609375 48.390625 
z
M 30.609375 56 
Q 42.328125 56 49.015625 48.375 
Q 55.71875 40.765625 55.71875 27.296875 
Q 55.71875 13.875 49.015625 6.21875 
Q 42.328125 -1.421875 30.609375 -1.421875 
Q 18.84375 -1.421875 12.171875 6.21875 
Q 5.515625 13.875 5.515625 27.296875 
Q 5.515625 40.765625 12.171875 48.375 
Q 18.84375 56 30.609375 56 
z
" id="DejaVuSans-6f"/>
     <path d="M 44.28125 53.078125 
L 44.28125 44.578125 
Q 40.484375 46.53125 36.375 47.5 
Q 32.28125 48.484375 27.875 48.484375 
Q 21.1875 48.484375 17.84375 46.4375 
Q 14.5 44.390625 14.5 40.28125 
Q 14.5 37.15625 16.890625 35.375 
Q 19.28125 33.59375 26.515625 31.984375 
L 29.59375 31.296875 
Q 39.15625 29.25 43.1875 25.515625 
Q 47.21875 21.78125 47.21875 15.09375 
Q 47.21875 7.46875 41.1875 3.015625 
Q 35.15625 -1.421875 24.609375 -1.421875 
Q 20.21875 -1.421875 15.453125 -0.5625 
Q 10.6875 0.296875 5.421875 2 
L 5.421875 11.28125 
Q 10.40625 8.6875 15.234375 7.390625 
Q 20.0625 6.109375 24.8125 6.109375 
Q 31.15625 6.109375 34.5625 8.28125 
Q 37.984375 10.453125 37.984375 14.40625 
Q 37.984375 18.0625 35.515625 20.015625 
Q 33.0625 21.96875 24.703125 23.78125 
L 21.578125 24.515625 
Q 13.234375 26.265625 9.515625 29.90625 
Q 5.8125 33.546875 5.8125 39.890625 
Q 5.8125 47.609375 11.28125 51.796875 
Q 16.75 56 26.8125 56 
Q 31.78125 56 36.171875 55.265625 
Q 40.578125 54.546875 44.28125 53.078125 
z
" id="DejaVuSans-73"/>
    </defs>
    <g transform="translate(323.770625 35.472)scale(0.12 -0.12)">
     <use xlink:href="#DejaVuSans-6c"/>
     <use x="27.783203" xlink:href="#DejaVuSans-6f"/>
     <use x="88.964844" xlink:href="#DejaVuSans-73"/>
     <use x="141.064453" xlink:href="#DejaVuSans-73"/>
    </g>
   </g>
  </g>
  <g id="axes_3">
   <g id="patch_12">
    <path d="M 57.6 307.584 
L 216.32 307.584 
L 216.32 189.312 
L 57.6 189.312 
z
" style="fill:#ffffff;"/>
   </g>
   <g id="matplotlib.axis_5">
    <g id="xtick_9">
     <g id="line2d_33">
      <path clip-path="url(#p590a37d856)" d="M 64.814545 307.584 
L 64.814545 189.312 
" style="fill:none;stroke:#b0b0b0;stroke-linecap:square;stroke-width:0.8;"/>
     </g>
     <g id="line2d_34">
      <g>
       <use style="stroke:#000000;stroke-width:0.8;" x="64.814545" xlink:href="#me2cdb51938" y="307.584"/>
      </g>
     </g>
     <g id="text_18">
      <!-- 0 -->
      <g transform="translate(61.633295 322.182437)scale(0.1 -0.1)">
       <use xlink:href="#DejaVuSans-30"/>
      </g>
     </g>
    </g>
    <g id="xtick_10">
     <g id="line2d_35">
      <path clip-path="url(#p590a37d856)" d="M 113.072375 307.584 
L 113.072375 189.312 
" style="fill:none;stroke:#b0b0b0;stroke-linecap:square;stroke-width:0.8;"/>
     </g>
     <g id="line2d_36">
      <g>
       <use style="stroke:#000000;stroke-width:0.8;" x="113.072375" xlink:href="#me2cdb51938" y="307.584"/>
      </g>
     </g>
     <g id="text_19">
      <!-- 100 -->
      <g transform="translate(103.528625 322.182437)scale(0.1 -0.1)">
       <use xlink:href="#DejaVuSans-31"/>
       <use x="63.623047" xlink:href="#DejaVuSans-30"/>
       <use x="127.246094" xlink:href="#DejaVuSans-30"/>
      </g>
     </g>
    </g>
    <g id="xtick_11">
     <g id="line2d_37">
      <path clip-path="url(#p590a37d856)" d="M 161.330204 307.584 
L 161.330204 189.312 
" style="fill:none;stroke:#b0b0b0;stroke-linecap:square;stroke-width:0.8;"/>
     </g>
     <g id="line2d_38">
      <g>
       <use style="stroke:#000000;stroke-width:0.8;" x="161.330204" xlink:href="#me2cdb51938" y="307.584"/>
      </g>
     </g>
     <g id="text_20">
      <!-- 200 -->
      <g transform="translate(151.786454 322.182437)scale(0.1 -0.1)">
       <use xlink:href="#DejaVuSans-32"/>
       <use x="63.623047" xlink:href="#DejaVuSans-30"/>
       <use x="127.246094" xlink:href="#DejaVuSans-30"/>
      </g>
     </g>
    </g>
    <g id="xtick_12">
     <g id="line2d_39">
      <path clip-path="url(#p590a37d856)" d="M 209.588033 307.584 
L 209.588033 189.312 
" style="fill:none;stroke:#b0b0b0;stroke-linecap:square;stroke-width:0.8;"/>
     </g>
     <g id="line2d_40">
      <g>
       <use style="stroke:#000000;stroke-width:0.8;" x="209.588033" xlink:href="#me2cdb51938" y="307.584"/>
      </g>
     </g>
     <g id="text_21">
      <!-- 300 -->
      <g transform="translate(200.044283 322.182437)scale(0.1 -0.1)">
       <use xlink:href="#DejaVuSans-33"/>
       <use x="63.623047" xlink:href="#DejaVuSans-30"/>
       <use x="127.246094" xlink:href="#DejaVuSans-30"/>
      </g>
     </g>
    </g>
   </g>
   <g id="matplotlib.axis_6">
    <g id="ytick_8">
     <g id="line2d_41">
      <path clip-path="url(#p590a37d856)" d="M 57.6 302.692324 
L 216.32 302.692324 
" style="fill:none;stroke:#b0b0b0;stroke-linecap:square;stroke-width:0.8;"/>
     </g>
     <g id="line2d_42">
      <g>
       <use style="stroke:#000000;stroke-width:0.8;" x="57.6" xlink:href="#m0d0c9c3d62" y="302.692324"/>
      </g>
     </g>
     <g id="text_22">
      <!-- 0.0 -->
      <g transform="translate(34.696875 306.491543)scale(0.1 -0.1)">
       <use xlink:href="#DejaVuSans-30"/>
       <use x="63.623047" xlink:href="#DejaVuSans-2e"/>
       <use x="95.410156" xlink:href="#DejaVuSans-30"/>
      </g>
     </g>
    </g>
    <g id="ytick_9">
     <g id="line2d_43">
      <path clip-path="url(#p590a37d856)" d="M 57.6 277.894919 
L 216.32 277.894919 
" style="fill:none;stroke:#b0b0b0;stroke-linecap:square;stroke-width:0.8;"/>
     </g>
     <g id="line2d_44">
      <g>
       <use style="stroke:#000000;stroke-width:0.8;" x="57.6" xlink:href="#m0d0c9c3d62" y="277.894919"/>
      </g>
     </g>
     <g id="text_23">
      <!-- 0.2 -->
      <g transform="translate(34.696875 281.694138)scale(0.1 -0.1)">
       <use xlink:href="#DejaVuSans-30"/>
       <use x="63.623047" xlink:href="#DejaVuSans-2e"/>
       <use x="95.410156" xlink:href="#DejaVuSans-32"/>
      </g>
     </g>
    </g>
    <g id="ytick_10">
     <g id="line2d_45">
      <path clip-path="url(#p590a37d856)" d="M 57.6 253.097514 
L 216.32 253.097514 
" style="fill:none;stroke:#b0b0b0;stroke-linecap:square;stroke-width:0.8;"/>
     </g>
     <g id="line2d_46">
      <g>
       <use style="stroke:#000000;stroke-width:0.8;" x="57.6" xlink:href="#m0d0c9c3d62" y="253.097514"/>
      </g>
     </g>
     <g id="text_24">
      <!-- 0.4 -->
      <g transform="translate(34.696875 256.896733)scale(0.1 -0.1)">
       <use xlink:href="#DejaVuSans-30"/>
       <use x="63.623047" xlink:href="#DejaVuSans-2e"/>
       <use x="95.410156" xlink:href="#DejaVuSans-34"/>
      </g>
     </g>
    </g>
    <g id="ytick_11">
     <g id="line2d_47">
      <path clip-path="url(#p590a37d856)" d="M 57.6 228.300109 
L 216.32 228.300109 
" style="fill:none;stroke:#b0b0b0;stroke-linecap:square;stroke-width:0.8;"/>
     </g>
     <g id="line2d_48">
      <g>
       <use style="stroke:#000000;stroke-width:0.8;" x="57.6" xlink:href="#m0d0c9c3d62" y="228.300109"/>
      </g>
     </g>
     <g id="text_25">
      <!-- 0.6 -->
      <g transform="translate(34.696875 232.099327)scale(0.1 -0.1)">
       <use xlink:href="#DejaVuSans-30"/>
       <use x="63.623047" xlink:href="#DejaVuSans-2e"/>
       <use x="95.410156" xlink:href="#DejaVuSans-36"/>
      </g>
     </g>
    </g>
    <g id="ytick_12">
     <g id="line2d_49">
      <path clip-path="url(#p590a37d856)" d="M 57.6 203.502704 
L 216.32 203.502704 
" style="fill:none;stroke:#b0b0b0;stroke-linecap:square;stroke-width:0.8;"/>
     </g>
     <g id="line2d_50">
      <g>
       <use style="stroke:#000000;stroke-width:0.8;" x="57.6" xlink:href="#m0d0c9c3d62" y="203.502704"/>
      </g>
     </g>
     <g id="text_26">
      <!-- 0.8 -->
      <g transform="translate(34.696875 207.301922)scale(0.1 -0.1)">
       <use xlink:href="#DejaVuSans-30"/>
       <use x="63.623047" xlink:href="#DejaVuSans-2e"/>
       <use x="95.410156" xlink:href="#DejaVuSans-38"/>
      </g>
     </g>
    </g>
   </g>
   <g id="line2d_51">
    <path clip-path="url(#p590a37d856)" d="M 64.814545 302.208 
L 65.297124 301.723676 
L 65.779702 300.755027 
L 66.26228 300.270703 
L 66.744859 300.755027 
L 67.227437 297.364757 
L 67.710015 299.302054 
L 68.192593 296.880432 
L 68.675172 293.490162 
L 69.15775 293.005838 
L 69.640328 291.552865 
L 70.122907 291.552865 
L 70.605485 294.943135 
L 71.088063 281.866378 
L 71.570642 287.193946 
L 72.05322 290.099892 
L 73.018376 280.89773 
L 73.500955 284.772324 
L 73.983533 282.350703 
L 74.466111 275.085838 
L 74.94869 274.117189 
L 75.431268 273.632865 
L 75.913846 285.256648 
L 76.396424 273.14854 
L 76.879003 268.305297 
L 77.361581 270.242594 
L 77.844159 270.242594 
L 78.326738 268.305297 
L 78.809316 272.179892 
L 79.291894 277.507459 
L 79.774472 266.367999 
L 80.257051 261.524756 
L 80.739629 263.946378 
L 81.222207 263.946378 
L 81.704786 262.009081 
L 82.187364 266.368 
L 82.669942 260.071783 
L 83.152521 260.556107 
L 83.635099 263.462054 
L 84.117677 257.165837 
L 84.600255 263.462053 
L 85.082834 255.712865 
L 85.565412 256.197188 
L 86.04799 246.026378 
L 86.530569 252.322594 
L 87.013147 248.447999 
L 87.495725 265.883676 
L 87.978303 251.838271 
L 88.460882 249.900973 
L 88.94346 246.026379 
L 89.426038 247.479351 
L 89.908617 252.322594 
L 90.391195 246.510702 
L 90.873773 245.542054 
L 91.356351 245.542054 
L 91.83893 253.775567 
L 92.321508 246.510702 
L 92.804086 242.636108 
L 93.286665 244.08908 
L 93.769243 248.448 
L 94.251821 235.855567 
L 94.7344 247.479351 
L 95.699556 239.730162 
L 96.182134 234.886918 
L 96.664713 247.963675 
L 97.147291 236.824215 
L 97.629869 235.855567 
L 98.112448 236.824216 
L 98.595026 234.886918 
L 99.077604 231.496647 
L 99.560182 234.886919 
L 100.042761 230.043676 
L 100.525339 234.402594 
L 101.007917 233.918269 
L 101.973074 239.245837 
L 102.455652 234.402593 
L 102.93823 241.183135 
L 103.420809 236.339892 
L 103.903387 233.433945 
L 104.385965 248.932324 
L 104.868544 228.590702 
L 105.351122 234.402594 
L 105.8337 226.653404 
L 106.316279 227.622053 
L 106.798857 227.622052 
L 107.764013 238.761513 
L 108.72917 226.653404 
L 109.694327 230.527999 
L 110.176905 233.918269 
L 110.659483 218.904215 
L 111.142061 228.106376 
L 111.62464 221.81016 
L 112.107218 221.325835 
L 112.589796 226.169079 
L 113.072375 220.841512 
L 113.554953 226.16908 
L 114.037531 227.137728 
L 114.520109 232.465295 
L 115.002688 232.949621 
L 115.485266 218.41989 
L 115.967844 220.357188 
L 116.450423 231.496647 
L 116.933001 223.263133 
L 117.415579 226.16908 
L 117.898157 216.482593 
L 118.380736 219.872864 
L 118.863314 220.841513 
L 119.345892 231.012324 
L 119.828471 219.38854 
L 120.793627 224.716107 
L 121.276206 221.325836 
L 121.758784 221.325836 
L 122.241362 217.451244 
L 122.72394 217.935568 
L 123.206519 221.810162 
L 124.171675 211.63935 
L 124.654254 220.357187 
L 125.136832 209.217729 
L 125.61941 219.872864 
L 126.101988 223.747458 
L 126.584567 231.012324 
L 127.067145 216.482593 
L 127.549723 217.451241 
L 128.032302 221.325837 
L 128.51488 217.935567 
L 128.997458 219.872864 
L 129.480036 211.155027 
L 129.962615 220.357187 
L 130.445193 220.357186 
L 130.927771 215.513946 
L 131.41035 224.231782 
L 131.892928 221.325836 
L 132.375506 235.855567 
L 132.858085 209.217729 
L 133.340663 212.607998 
L 133.823241 220.841513 
L 134.305819 214.545296 
L 134.788398 214.060972 
L 135.270976 214.060971 
L 135.753554 218.904215 
L 136.236133 210.670703 
L 136.718711 212.123675 
L 137.201289 214.545296 
L 137.683867 226.653404 
L 138.166446 208.733406 
L 138.649024 208.733405 
L 139.131602 215.029621 
L 139.614181 213.576647 
L 140.096759 206.796108 
L 140.579337 208.249082 
L 141.061915 208.24908 
L 141.544494 210.186378 
L 142.027072 219.38854 
L 142.50965 215.029621 
L 142.992229 217.451242 
L 143.474807 210.670701 
L 143.957385 207.280431 
L 144.439964 233.433945 
L 144.922542 206.796107 
L 145.40512 219.388539 
L 146.370277 205.343135 
L 146.852855 209.702053 
L 147.335433 215.998269 
L 147.818012 209.21773 
L 148.30059 206.311783 
L 148.783168 207.764756 
L 149.265746 210.186377 
L 149.748325 211.63935 
L 150.230903 207.764757 
L 150.713481 206.311783 
L 151.19606 206.311783 
L 151.678638 205.343135 
L 152.161216 211.639351 
L 152.643794 212.608 
L 153.126373 205.343134 
L 153.608951 215.513944 
L 154.091529 207.280432 
L 154.574108 224.231783 
L 155.056686 206.796107 
L 155.539264 203.405837 
L 156.021843 203.890162 
L 156.504421 207.280432 
L 156.986999 207.764756 
L 157.469577 208.733405 
L 157.952156 215.029622 
L 158.434734 203.890162 
L 158.917312 204.85881 
L 159.399891 210.670702 
L 159.882469 212.607998 
L 160.365047 213.576649 
L 160.847625 205.343135 
L 161.330204 204.85881 
L 161.812782 204.858811 
L 162.29536 205.343134 
L 162.777939 219.38854 
L 163.260517 222.294485 
L 163.743095 205.343134 
L 164.225673 213.576648 
L 164.708252 206.311783 
L 165.19083 222.77881 
L 165.673408 201.952864 
L 166.155987 209.217729 
L 166.638565 202.437188 
L 167.603721 209.702052 
L 168.0863 201.952865 
L 168.568878 208.24908 
L 169.051456 204.85881 
L 169.534035 202.921514 
L 170.016613 209.702056 
L 170.499191 202.921512 
L 170.98177 201.46854 
L 171.464348 221.325837 
L 171.946926 207.280431 
L 172.429504 201.952865 
L 172.912083 204.374486 
L 173.394661 211.63935 
L 173.877239 203.405839 
L 174.359818 207.764756 
L 174.842396 200.015568 
L 175.324974 201.952865 
L 175.807552 212.123674 
L 176.290131 200.499892 
L 176.772709 201.468541 
L 177.255287 200.984216 
L 177.737866 207.280432 
L 178.220444 200.984216 
L 178.703022 224.231782 
L 179.1856 206.311783 
L 179.668179 207.280432 
L 180.150757 200.984216 
L 180.633335 198.562595 
L 181.115914 201.46854 
L 181.598492 201.468539 
L 182.08107 201.952865 
L 182.563649 212.607999 
L 183.046227 230.527999 
L 183.528805 207.764757 
L 184.011383 198.078271 
L 184.493962 206.311784 
L 184.97654 203.405836 
L 185.459118 197.593947 
L 185.941697 200.984216 
L 186.424275 195.656649 
L 186.906853 209.217729 
L 187.389431 199.046919 
L 187.87201 201.468541 
L 188.354588 199.531243 
L 188.837166 199.04692 
L 189.319745 199.046919 
L 189.802323 200.984216 
L 190.284901 199.531243 
L 190.767479 200.015567 
L 191.732636 226.653405 
L 192.215214 204.374486 
L 192.697793 217.935566 
L 193.180371 202.437189 
L 193.662949 198.078272 
L 194.145528 199.531243 
L 194.628106 199.04692 
L 195.110684 199.531243 
L 195.593262 198.07827 
L 196.075841 200.499891 
L 196.558419 213.092324 
L 197.040997 200.984216 
L 197.523576 204.374487 
L 198.006154 200.499891 
L 198.488732 214.545296 
L 198.97131 202.921513 
L 199.453889 199.046919 
L 199.936467 197.109622 
L 200.419045 204.858812 
L 200.901624 194.688001 
L 201.384202 200.015568 
L 201.86678 203.405837 
L 202.349358 205.343135 
L 202.831937 215.513944 
L 203.314515 202.43719 
L 203.797093 198.07827 
L 204.279672 201.952864 
L 204.76225 194.688 
L 205.727407 195.65665 
L 206.209985 200.984217 
L 206.692563 198.078271 
L 207.175141 209.702055 
L 207.65772 199.046919 
L 208.140298 198.07827 
L 208.622876 202.437189 
L 209.105455 197.593946 
L 209.105455 197.593946 
" style="fill:none;stroke:#1f77b4;stroke-linecap:square;stroke-width:1.5;"/>
   </g>
   <g id="patch_13">
    <path d="M 57.6 307.584 
L 57.6 189.312 
" style="fill:none;stroke:#000000;stroke-linecap:square;stroke-linejoin:miter;stroke-width:0.8;"/>
   </g>
   <g id="patch_14">
    <path d="M 216.32 307.584 
L 216.32 189.312 
" style="fill:none;stroke:#000000;stroke-linecap:square;stroke-linejoin:miter;stroke-width:0.8;"/>
   </g>
   <g id="patch_15">
    <path d="M 57.6 307.584 
L 216.32 307.584 
" style="fill:none;stroke:#000000;stroke-linecap:square;stroke-linejoin:miter;stroke-width:0.8;"/>
   </g>
   <g id="patch_16">
    <path d="M 57.6 189.312 
L 216.32 189.312 
" style="fill:none;stroke:#000000;stroke-linecap:square;stroke-linejoin:miter;stroke-width:0.8;"/>
   </g>
   <g id="text_27">
    <!-- val_acc -->
    <defs>
     <path d="M 2.984375 54.6875 
L 12.5 54.6875 
L 29.59375 8.796875 
L 46.6875 54.6875 
L 56.203125 54.6875 
L 35.6875 0 
L 23.484375 0 
z
" id="DejaVuSans-76"/>
     <path d="M 50.984375 -16.609375 
L 50.984375 -23.578125 
L -0.984375 -23.578125 
L -0.984375 -16.609375 
z
" id="DejaVuSans-5f"/>
    </defs>
    <g transform="translate(114.79 183.312)scale(0.12 -0.12)">
     <use xlink:href="#DejaVuSans-76"/>
     <use x="59.179688" xlink:href="#DejaVuSans-61"/>
     <use x="120.458984" xlink:href="#DejaVuSans-6c"/>
     <use x="148.242188" xlink:href="#DejaVuSans-5f"/>
     <use x="198.242188" xlink:href="#DejaVuSans-61"/>
     <use x="259.521484" xlink:href="#DejaVuSans-63"/>
     <use x="314.501953" xlink:href="#DejaVuSans-63"/>
    </g>
   </g>
  </g>
  <g id="axes_4">
   <g id="patch_17">
    <path d="M 256 307.584 
L 414.72 307.584 
L 414.72 189.312 
L 256 189.312 
z
" style="fill:#ffffff;"/>
   </g>
   <g id="matplotlib.axis_7">
    <g id="xtick_13">
     <g id="line2d_52">
      <path clip-path="url(#pa3110ff163)" d="M 263.214545 307.584 
L 263.214545 189.312 
" style="fill:none;stroke:#b0b0b0;stroke-linecap:square;stroke-width:0.8;"/>
     </g>
     <g id="line2d_53">
      <g>
       <use style="stroke:#000000;stroke-width:0.8;" x="263.214545" xlink:href="#me2cdb51938" y="307.584"/>
      </g>
     </g>
     <g id="text_28">
      <!-- 0 -->
      <g transform="translate(260.033295 322.182437)scale(0.1 -0.1)">
       <use xlink:href="#DejaVuSans-30"/>
      </g>
     </g>
    </g>
    <g id="xtick_14">
     <g id="line2d_54">
      <path clip-path="url(#pa3110ff163)" d="M 311.472375 307.584 
L 311.472375 189.312 
" style="fill:none;stroke:#b0b0b0;stroke-linecap:square;stroke-width:0.8;"/>
     </g>
     <g id="line2d_55">
      <g>
       <use style="stroke:#000000;stroke-width:0.8;" x="311.472375" xlink:href="#me2cdb51938" y="307.584"/>
      </g>
     </g>
     <g id="text_29">
      <!-- 100 -->
      <g transform="translate(301.928625 322.182437)scale(0.1 -0.1)">
       <use xlink:href="#DejaVuSans-31"/>
       <use x="63.623047" xlink:href="#DejaVuSans-30"/>
       <use x="127.246094" xlink:href="#DejaVuSans-30"/>
      </g>
     </g>
    </g>
    <g id="xtick_15">
     <g id="line2d_56">
      <path clip-path="url(#pa3110ff163)" d="M 359.730204 307.584 
L 359.730204 189.312 
" style="fill:none;stroke:#b0b0b0;stroke-linecap:square;stroke-width:0.8;"/>
     </g>
     <g id="line2d_57">
      <g>
       <use style="stroke:#000000;stroke-width:0.8;" x="359.730204" xlink:href="#me2cdb51938" y="307.584"/>
      </g>
     </g>
     <g id="text_30">
      <!-- 200 -->
      <g transform="translate(350.186454 322.182437)scale(0.1 -0.1)">
       <use xlink:href="#DejaVuSans-32"/>
       <use x="63.623047" xlink:href="#DejaVuSans-30"/>
       <use x="127.246094" xlink:href="#DejaVuSans-30"/>
      </g>
     </g>
    </g>
    <g id="xtick_16">
     <g id="line2d_58">
      <path clip-path="url(#pa3110ff163)" d="M 407.988033 307.584 
L 407.988033 189.312 
" style="fill:none;stroke:#b0b0b0;stroke-linecap:square;stroke-width:0.8;"/>
     </g>
     <g id="line2d_59">
      <g>
       <use style="stroke:#000000;stroke-width:0.8;" x="407.988033" xlink:href="#me2cdb51938" y="307.584"/>
      </g>
     </g>
     <g id="text_31">
      <!-- 300 -->
      <g transform="translate(398.444283 322.182437)scale(0.1 -0.1)">
       <use xlink:href="#DejaVuSans-33"/>
       <use x="63.623047" xlink:href="#DejaVuSans-30"/>
       <use x="127.246094" xlink:href="#DejaVuSans-30"/>
      </g>
     </g>
    </g>
   </g>
   <g id="matplotlib.axis_8">
    <g id="ytick_13">
     <g id="line2d_60">
      <path clip-path="url(#pa3110ff163)" d="M 256 270.793815 
L 414.72 270.793815 
" style="fill:none;stroke:#b0b0b0;stroke-linecap:square;stroke-width:0.8;"/>
     </g>
     <g id="line2d_61">
      <g>
       <use style="stroke:#000000;stroke-width:0.8;" x="256" xlink:href="#m0d0c9c3d62" y="270.793815"/>
      </g>
     </g>
     <g id="text_32">
      <!-- 2 -->
      <g transform="translate(242.6375 274.593034)scale(0.1 -0.1)">
       <use xlink:href="#DejaVuSans-32"/>
      </g>
     </g>
    </g>
    <g id="ytick_14">
     <g id="line2d_62">
      <path clip-path="url(#pa3110ff163)" d="M 256 227.851421 
L 414.72 227.851421 
" style="fill:none;stroke:#b0b0b0;stroke-linecap:square;stroke-width:0.8;"/>
     </g>
     <g id="line2d_63">
      <g>
       <use style="stroke:#000000;stroke-width:0.8;" x="256" xlink:href="#m0d0c9c3d62" y="227.851421"/>
      </g>
     </g>
     <g id="text_33">
      <!-- 4 -->
      <g transform="translate(242.6375 231.650639)scale(0.1 -0.1)">
       <use xlink:href="#DejaVuSans-34"/>
      </g>
     </g>
    </g>
   </g>
   <g id="line2d_64">
    <path clip-path="url(#pa3110ff163)" d="M 263.214545 194.688 
L 263.697124 195.565496 
L 264.179702 199.966291 
L 264.66228 205.913029 
L 265.144859 208.900902 
L 265.627437 213.661351 
L 266.110015 214.291378 
L 266.592593 218.749927 
L 268.040328 225.589041 
L 268.522907 227.10195 
L 269.005485 226.441201 
L 269.488063 231.594039 
L 269.970642 233.317123 
L 270.45322 230.347689 
L 271.418376 238.159822 
L 271.900955 237.95446 
L 273.34869 244.130997 
L 273.831268 244.259017 
L 274.313846 238.802912 
L 274.796424 246.705283 
L 275.279003 247.325163 
L 276.244159 250.306252 
L 276.726738 250.849265 
L 277.209316 249.012453 
L 277.691894 248.778764 
L 278.174472 253.312053 
L 278.657051 253.196996 
L 279.139629 254.656144 
L 280.104786 256.712206 
L 280.587364 253.538842 
L 281.069942 256.267055 
L 281.552521 257.308318 
L 282.035099 255.858126 
L 282.517677 259.747901 
L 283.000255 259.740906 
L 283.482834 261.230585 
L 283.965412 259.368373 
L 284.44799 262.874471 
L 284.930569 263.674943 
L 285.413147 263.071852 
L 285.895725 258.792972 
L 286.378303 264.221027 
L 286.860882 265.775868 
L 287.34346 266.078282 
L 287.826038 265.810394 
L 288.308617 264.953398 
L 288.791195 266.59559 
L 289.273773 267.646195 
L 289.756351 268.308795 
L 290.23893 264.855284 
L 290.721508 268.412435 
L 291.686665 269.587111 
L 292.169243 265.919681 
L 292.651821 272.223546 
L 293.1344 270.117057 
L 293.616978 270.478425 
L 294.099556 272.148591 
L 294.582134 273.117142 
L 295.064713 269.098533 
L 295.547291 272.48154 
L 296.029869 274.165056 
L 296.512448 274.012245 
L 296.995026 275.061724 
L 297.477604 275.501605 
L 297.960182 273.575618 
L 298.442761 275.319117 
L 298.925339 275.89289 
L 299.407917 275.901397 
L 299.890496 275.601006 
L 300.373074 274.25433 
L 300.855652 275.804645 
L 301.33823 275.653383 
L 301.820809 277.41259 
L 302.303387 278.230944 
L 302.785965 271.320281 
L 303.268544 277.73266 
L 303.751122 277.952096 
L 304.2337 279.815031 
L 304.716279 280.642121 
L 305.198857 279.855016 
L 305.681435 278.527369 
L 306.164013 278.113892 
L 306.646592 279.081819 
L 307.12917 280.599585 
L 307.611748 280.382638 
L 308.094327 279.989371 
L 308.576905 279.251886 
L 309.059483 282.632941 
L 309.542061 281.407556 
L 310.507218 284.045642 
L 310.989796 281.367004 
L 311.472375 282.798618 
L 312.920109 280.686314 
L 313.402688 280.77973 
L 313.885266 285.344249 
L 314.367844 285.882686 
L 314.850423 278.348912 
L 315.333001 283.505056 
L 315.815579 282.734673 
L 316.298157 284.60756 
L 316.780736 285.252974 
L 317.263314 286.378541 
L 317.745892 281.184234 
L 318.228471 285.46904 
L 318.711049 286.12412 
L 319.193627 284.818999 
L 319.676206 286.342378 
L 320.158784 285.937115 
L 320.641362 286.273352 
L 321.12394 285.138523 
L 321.606519 285.583433 
L 322.089097 288.334285 
L 322.571675 287.198635 
L 323.054254 286.646821 
L 323.536832 288.958331 
L 324.01941 286.628188 
L 324.501988 286.873203 
L 324.984567 282.379255 
L 325.467145 289.25184 
L 325.949723 288.36354 
L 326.432302 286.634077 
L 326.91488 288.414359 
L 327.397458 287.65157 
L 327.880036 289.37185 
L 328.362615 288.064555 
L 328.845193 289.497981 
L 329.327771 289.41866 
L 329.81035 287.355854 
L 330.292928 286.321206 
L 330.775506 281.576493 
L 331.258085 291.655764 
L 331.740663 288.660587 
L 332.223241 288.930254 
L 332.705819 291.753644 
L 333.188398 290.979007 
L 333.670976 290.814788 
L 334.153554 287.771953 
L 334.636133 291.567913 
L 335.118711 291.533098 
L 335.601289 290.974319 
L 336.083867 284.959537 
L 336.566446 292.370182 
L 337.049024 292.857612 
L 337.531602 291.495276 
L 338.014181 290.834134 
L 338.496759 291.186262 
L 338.979337 291.999925 
L 339.461915 293.416361 
L 339.944494 293.089287 
L 340.427072 290.501409 
L 341.392229 290.200254 
L 341.874807 293.467842 
L 342.357385 293.749041 
L 342.839964 280.459213 
L 343.322542 293.068129 
L 343.80512 289.727838 
L 344.287698 292.894655 
L 344.770277 293.792361 
L 345.252855 292.088611 
L 345.735433 289.807568 
L 346.218012 293.233209 
L 346.70059 294.746388 
L 347.183168 295.04619 
L 347.665746 293.389028 
L 348.148325 293.95317 
L 348.630903 293.507366 
L 349.113481 294.378882 
L 349.59606 294.335335 
L 350.078638 294.962692 
L 350.561216 292.88996 
L 351.043794 292.105831 
L 351.526373 294.835333 
L 352.008951 290.702815 
L 352.491529 294.899102 
L 352.974108 287.6937 
L 353.456686 295.01075 
L 353.939264 296.157737 
L 354.421843 295.899142 
L 355.386999 294.86056 
L 355.869577 295.593511 
L 356.352156 292.903187 
L 356.834734 295.632898 
L 357.317312 295.798896 
L 357.799891 295.41452 
L 358.282469 293.755755 
L 358.765047 294.228237 
L 359.247625 296.064759 
L 359.730204 296.668854 
L 360.212782 296.933649 
L 360.69536 295.455056 
L 361.177939 290.547303 
L 361.660517 288.616383 
L 362.143095 295.648254 
L 362.625673 291.602437 
L 363.108252 297.108074 
L 363.59083 288.8465 
L 364.073408 297.706626 
L 364.555987 294.849004 
L 365.038565 296.941684 
L 365.521143 296.58729 
L 366.003721 294.107717 
L 366.4863 297.842709 
L 366.968878 294.874026 
L 367.934035 298.243905 
L 368.416613 295.414622 
L 368.899191 297.474038 
L 369.38177 297.448575 
L 369.864348 290.905117 
L 370.346926 295.537481 
L 370.829504 298.35115 
L 371.312083 297.357211 
L 371.794661 294.254054 
L 372.277239 297.321973 
L 372.759818 295.90846 
L 373.242396 298.951838 
L 373.724974 298.094959 
L 374.207552 292.386986 
L 374.690131 299.010246 
L 375.172709 299.223048 
L 375.655287 299.080955 
L 376.137866 296.882129 
L 376.620444 298.028341 
L 377.103022 287.497521 
L 377.5856 296.66138 
L 378.068179 297.571477 
L 378.550757 299.357696 
L 379.033335 299.647944 
L 379.515914 298.369184 
L 379.998492 298.393763 
L 380.48107 298.620137 
L 380.963649 293.968378 
L 381.446227 285.520864 
L 381.928805 296.071954 
L 382.411383 300.413658 
L 382.893962 296.723114 
L 383.37654 297.4857 
L 383.859118 299.36014 
L 384.341697 298.255829 
L 384.824275 300.334268 
L 385.306853 293.914125 
L 385.789431 299.584974 
L 386.27201 298.885526 
L 386.754588 300.04088 
L 387.237166 299.603699 
L 387.719745 299.35586 
L 388.202323 298.005582 
L 388.684901 300.713617 
L 389.167479 299.343318 
L 390.132636 289.674427 
L 390.615214 298.997679 
L 391.097793 291.852917 
L 391.580371 298.590781 
L 392.062949 300.18775 
L 392.545528 300.492859 
L 393.028106 301.069372 
L 393.510684 300.142902 
L 393.993262 300.589654 
L 394.475841 300.246669 
L 394.958419 293.592725 
L 395.440997 300.214025 
L 395.923576 299.256668 
L 396.406154 299.317564 
L 396.888732 294.301611 
L 397.37131 299.534092 
L 397.853889 300.240421 
L 398.336467 300.745849 
L 398.819045 296.929978 
L 399.301624 301.136417 
L 399.784202 299.775238 
L 400.26678 299.273884 
L 400.749358 298.083359 
L 401.231937 291.241817 
L 401.714515 299.315373 
L 402.197093 300.456781 
L 402.679672 299.037009 
L 403.16225 301.471046 
L 403.644828 301.471806 
L 404.127407 302.208 
L 404.609985 299.588423 
L 405.092563 300.796142 
L 405.575141 295.260396 
L 406.05772 300.588807 
L 406.540298 301.24743 
L 407.022876 299.843313 
L 407.505455 301.386123 
L 407.505455 301.386123 
" style="fill:none;stroke:#1f77b4;stroke-linecap:square;stroke-width:1.5;"/>
   </g>
   <g id="patch_18">
    <path d="M 256 307.584 
L 256 189.312 
" style="fill:none;stroke:#000000;stroke-linecap:square;stroke-linejoin:miter;stroke-width:0.8;"/>
   </g>
   <g id="patch_19">
    <path d="M 414.72 307.584 
L 414.72 189.312 
" style="fill:none;stroke:#000000;stroke-linecap:square;stroke-linejoin:miter;stroke-width:0.8;"/>
   </g>
   <g id="patch_20">
    <path d="M 256 307.584 
L 414.72 307.584 
" style="fill:none;stroke:#000000;stroke-linecap:square;stroke-linejoin:miter;stroke-width:0.8;"/>
   </g>
   <g id="patch_21">
    <path d="M 256 189.312 
L 414.72 189.312 
" style="fill:none;stroke:#000000;stroke-linecap:square;stroke-linejoin:miter;stroke-width:0.8;"/>
   </g>
   <g id="text_34">
    <!-- val_loss -->
    <g transform="translate(311.875625 183.312)scale(0.12 -0.12)">
     <use xlink:href="#DejaVuSans-76"/>
     <use x="59.179688" xlink:href="#DejaVuSans-61"/>
     <use x="120.458984" xlink:href="#DejaVuSans-6c"/>
     <use x="148.242188" xlink:href="#DejaVuSans-5f"/>
     <use x="198.242188" xlink:href="#DejaVuSans-6c"/>
     <use x="226.025391" xlink:href="#DejaVuSans-6f"/>
     <use x="287.207031" xlink:href="#DejaVuSans-73"/>
     <use x="339.306641" xlink:href="#DejaVuSans-73"/>
    </g>
   </g>
  </g>
  <g id="text_35">
   <!-- model2 20171023_153056 -->
   <defs>
    <path d="M 52 44.1875 
Q 55.375 50.25 60.0625 53.125 
Q 64.75 56 71.09375 56 
Q 79.640625 56 84.28125 50.015625 
Q 88.921875 44.046875 88.921875 33.015625 
L 88.921875 0 
L 79.890625 0 
L 79.890625 32.71875 
Q 79.890625 40.578125 77.09375 44.375 
Q 74.3125 48.1875 68.609375 48.1875 
Q 61.625 48.1875 57.5625 43.546875 
Q 53.515625 38.921875 53.515625 30.90625 
L 53.515625 0 
L 44.484375 0 
L 44.484375 32.71875 
Q 44.484375 40.625 41.703125 44.40625 
Q 38.921875 48.1875 33.109375 48.1875 
Q 26.21875 48.1875 22.15625 43.53125 
Q 18.109375 38.875 18.109375 30.90625 
L 18.109375 0 
L 9.078125 0 
L 9.078125 54.6875 
L 18.109375 54.6875 
L 18.109375 46.1875 
Q 21.1875 51.21875 25.484375 53.609375 
Q 29.78125 56 35.6875 56 
Q 41.65625 56 45.828125 52.96875 
Q 50 49.953125 52 44.1875 
z
" id="DejaVuSans-6d"/>
    <path d="M 45.40625 46.390625 
L 45.40625 75.984375 
L 54.390625 75.984375 
L 54.390625 0 
L 45.40625 0 
L 45.40625 8.203125 
Q 42.578125 3.328125 38.25 0.953125 
Q 33.9375 -1.421875 27.875 -1.421875 
Q 17.96875 -1.421875 11.734375 6.484375 
Q 5.515625 14.40625 5.515625 27.296875 
Q 5.515625 40.1875 11.734375 48.09375 
Q 17.96875 56 27.875 56 
Q 33.9375 56 38.25 53.625 
Q 42.578125 51.265625 45.40625 46.390625 
z
M 14.796875 27.296875 
Q 14.796875 17.390625 18.875 11.75 
Q 22.953125 6.109375 30.078125 6.109375 
Q 37.203125 6.109375 41.296875 11.75 
Q 45.40625 17.390625 45.40625 27.296875 
Q 45.40625 37.203125 41.296875 42.84375 
Q 37.203125 48.484375 30.078125 48.484375 
Q 22.953125 48.484375 18.875 42.84375 
Q 14.796875 37.203125 14.796875 27.296875 
z
" id="DejaVuSans-64"/>
    <path d="M 56.203125 29.59375 
L 56.203125 25.203125 
L 14.890625 25.203125 
Q 15.484375 15.921875 20.484375 11.0625 
Q 25.484375 6.203125 34.421875 6.203125 
Q 39.59375 6.203125 44.453125 7.46875 
Q 49.3125 8.734375 54.109375 11.28125 
L 54.109375 2.78125 
Q 49.265625 0.734375 44.1875 -0.34375 
Q 39.109375 -1.421875 33.890625 -1.421875 
Q 20.796875 -1.421875 13.15625 6.1875 
Q 5.515625 13.8125 5.515625 26.8125 
Q 5.515625 40.234375 12.765625 48.109375 
Q 20.015625 56 32.328125 56 
Q 43.359375 56 49.78125 48.890625 
Q 56.203125 41.796875 56.203125 29.59375 
z
M 47.21875 32.234375 
Q 47.125 39.59375 43.09375 43.984375 
Q 39.0625 48.390625 32.421875 48.390625 
Q 24.90625 48.390625 20.390625 44.140625 
Q 15.875 39.890625 15.1875 32.171875 
z
" id="DejaVuSans-65"/>
    <path id="DejaVuSans-20"/>
    <path d="M 8.203125 72.90625 
L 55.078125 72.90625 
L 55.078125 68.703125 
L 28.609375 0 
L 18.3125 0 
L 43.21875 64.59375 
L 8.203125 64.59375 
z
" id="DejaVuSans-37"/>
    <path d="M 10.796875 72.90625 
L 49.515625 72.90625 
L 49.515625 64.59375 
L 19.828125 64.59375 
L 19.828125 46.734375 
Q 21.96875 47.46875 24.109375 47.828125 
Q 26.265625 48.1875 28.421875 48.1875 
Q 40.625 48.1875 47.75 41.5 
Q 54.890625 34.8125 54.890625 23.390625 
Q 54.890625 11.625 47.5625 5.09375 
Q 40.234375 -1.421875 26.90625 -1.421875 
Q 22.3125 -1.421875 17.546875 -0.640625 
Q 12.796875 0.140625 7.71875 1.703125 
L 7.71875 11.625 
Q 12.109375 9.234375 16.796875 8.0625 
Q 21.484375 6.890625 26.703125 6.890625 
Q 35.15625 6.890625 40.078125 11.328125 
Q 45.015625 15.765625 45.015625 23.390625 
Q 45.015625 31 40.078125 35.4375 
Q 35.15625 39.890625 26.703125 39.890625 
Q 22.75 39.890625 18.8125 39.015625 
Q 14.890625 38.140625 10.796875 36.28125 
z
" id="DejaVuSans-35"/>
   </defs>
   <g transform="translate(149.547188 16.030125)scale(0.12 -0.12)">
    <use xlink:href="#DejaVuSans-6d"/>
    <use x="97.412109" xlink:href="#DejaVuSans-6f"/>
    <use x="158.59375" xlink:href="#DejaVuSans-64"/>
    <use x="222.070312" xlink:href="#DejaVuSans-65"/>
    <use x="283.59375" xlink:href="#DejaVuSans-6c"/>
    <use x="311.376953" xlink:href="#DejaVuSans-32"/>
    <use x="375" xlink:href="#DejaVuSans-20"/>
    <use x="406.787109" xlink:href="#DejaVuSans-32"/>
    <use x="470.410156" xlink:href="#DejaVuSans-30"/>
    <use x="534.033203" xlink:href="#DejaVuSans-31"/>
    <use x="597.65625" xlink:href="#DejaVuSans-37"/>
    <use x="661.279297" xlink:href="#DejaVuSans-31"/>
    <use x="724.902344" xlink:href="#DejaVuSans-30"/>
    <use x="788.525391" xlink:href="#DejaVuSans-32"/>
    <use x="852.148438" xlink:href="#DejaVuSans-33"/>
    <use x="915.771484" xlink:href="#DejaVuSans-5f"/>
    <use x="965.771484" xlink:href="#DejaVuSans-31"/>
    <use x="1029.394531" xlink:href="#DejaVuSans-35"/>
    <use x="1093.017578" xlink:href="#DejaVuSans-33"/>
    <use x="1156.640625" xlink:href="#DejaVuSans-30"/>
    <use x="1220.263672" xlink:href="#DejaVuSans-35"/>
    <use x="1283.886719" xlink:href="#DejaVuSans-36"/>
   </g>
  </g>
 </g>
 <defs>
  <clipPath id="p4be67a0090">
   <rect height="118.272" width="158.72" x="57.6" y="41.472"/>
  </clipPath>
  <clipPath id="pfd8af25823">
   <rect height="118.272" width="158.72" x="256" y="41.472"/>
  </clipPath>
  <clipPath id="p590a37d856">
   <rect height="118.272" width="158.72" x="57.6" y="189.312"/>
  </clipPath>
  <clipPath id="pa3110ff163">
   <rect height="118.272" width="158.72" x="256" y="189.312"/>
  </clipPath>
 </defs>
</svg>
