<?xml version="1.0" encoding="utf-8" standalone="no"?>
<!DOCTYPE svg PUBLIC "-//W3C//DTD SVG 1.1//EN"
  "http://www.w3.org/Graphics/SVG/1.1/DTD/svg11.dtd">
<!-- Created with matplotlib (http://matplotlib.org/) -->
<svg height="345pt" version="1.1" viewBox="0 0 460 345" width="460pt" xmlns="http://www.w3.org/2000/svg" xmlns:xlink="http://www.w3.org/1999/xlink">
 <defs>
  <style type="text/css">
*{stroke-linecap:butt;stroke-linejoin:round;}
  </style>
 </defs>
 <g id="figure_1">
  <g id="patch_1">
   <path d="M 0 345.6 
L 460.8 345.6 
L 460.8 0 
L 0 0 
z
" style="fill:#ffffff;"/>
  </g>
  <g id="axes_1">
   <g id="patch_2">
    <path d="M 57.6 159.744 
L 216.32 159.744 
L 216.32 41.472 
L 57.6 41.472 
z
" style="fill:#ffffff;"/>
   </g>
   <g id="matplotlib.axis_1">
    <g id="xtick_1">
     <g id="line2d_1">
      <path clip-path="url(#p1fb46a0e58)" d="M 64.814545 159.744 
L 64.814545 41.472 
" style="fill:none;stroke:#b0b0b0;stroke-linecap:square;stroke-width:0.8;"/>
     </g>
     <g id="line2d_2">
      <defs>
       <path d="M 0 0 
L 0 3.5 
" id="meb24d9c5e9" style="stroke:#000000;stroke-width:0.8;"/>
      </defs>
      <g>
       <use style="stroke:#000000;stroke-width:0.8;" x="64.814545" xlink:href="#meb24d9c5e9" y="159.744"/>
      </g>
     </g>
     <g id="text_1">
      <!-- 0 -->
      <defs>
       <path d="M 31.78125 66.40625 
Q 24.171875 66.40625 20.328125 58.90625 
Q 16.5 51.421875 16.5 36.375 
Q 16.5 21.390625 20.328125 13.890625 
Q 24.171875 6.390625 31.78125 6.390625 
Q 39.453125 6.390625 43.28125 13.890625 
Q 47.125 21.390625 47.125 36.375 
Q 47.125 51.421875 43.28125 58.90625 
Q 39.453125 66.40625 31.78125 66.40625 
z
M 31.78125 74.21875 
Q 44.046875 74.21875 50.515625 64.515625 
Q 56.984375 54.828125 56.984375 36.375 
Q 56.984375 17.96875 50.515625 8.265625 
Q 44.046875 -1.421875 31.78125 -1.421875 
Q 19.53125 -1.421875 13.0625 8.265625 
Q 6.59375 17.96875 6.59375 36.375 
Q 6.59375 54.828125 13.0625 64.515625 
Q 19.53125 74.21875 31.78125 74.21875 
z
" id="DejaVuSans-30"/>
      </defs>
      <g transform="translate(61.633295 174.342437)scale(0.1 -0.1)">
       <use xlink:href="#DejaVuSans-30"/>
      </g>
     </g>
    </g>
    <g id="xtick_2">
     <g id="line2d_3">
      <path clip-path="url(#p1fb46a0e58)" d="M 113.072375 159.744 
L 113.072375 41.472 
" style="fill:none;stroke:#b0b0b0;stroke-linecap:square;stroke-width:0.8;"/>
     </g>
     <g id="line2d_4">
      <g>
       <use style="stroke:#000000;stroke-width:0.8;" x="113.072375" xlink:href="#meb24d9c5e9" y="159.744"/>
      </g>
     </g>
     <g id="text_2">
      <!-- 100 -->
      <defs>
       <path d="M 12.40625 8.296875 
L 28.515625 8.296875 
L 28.515625 63.921875 
L 10.984375 60.40625 
L 10.984375 69.390625 
L 28.421875 72.90625 
L 38.28125 72.90625 
L 38.28125 8.296875 
L 54.390625 8.296875 
L 54.390625 0 
L 12.40625 0 
z
" id="DejaVuSans-31"/>
      </defs>
      <g transform="translate(103.528625 174.342437)scale(0.1 -0.1)">
       <use xlink:href="#DejaVuSans-31"/>
       <use x="63.623047" xlink:href="#DejaVuSans-30"/>
       <use x="127.246094" xlink:href="#DejaVuSans-30"/>
      </g>
     </g>
    </g>
    <g id="xtick_3">
     <g id="line2d_5">
      <path clip-path="url(#p1fb46a0e58)" d="M 161.330204 159.744 
L 161.330204 41.472 
" style="fill:none;stroke:#b0b0b0;stroke-linecap:square;stroke-width:0.8;"/>
     </g>
     <g id="line2d_6">
      <g>
       <use style="stroke:#000000;stroke-width:0.8;" x="161.330204" xlink:href="#meb24d9c5e9" y="159.744"/>
      </g>
     </g>
     <g id="text_3">
      <!-- 200 -->
      <defs>
       <path d="M 19.1875 8.296875 
L 53.609375 8.296875 
L 53.609375 0 
L 7.328125 0 
L 7.328125 8.296875 
Q 12.9375 14.109375 22.625 23.890625 
Q 32.328125 33.6875 34.8125 36.53125 
Q 39.546875 41.84375 41.421875 45.53125 
Q 43.3125 49.21875 43.3125 52.78125 
Q 43.3125 58.59375 39.234375 62.25 
Q 35.15625 65.921875 28.609375 65.921875 
Q 23.96875 65.921875 18.8125 64.3125 
Q 13.671875 62.703125 7.8125 59.421875 
L 7.8125 69.390625 
Q 13.765625 71.78125 18.9375 73 
Q 24.125 74.21875 28.421875 74.21875 
Q 39.75 74.21875 46.484375 68.546875 
Q 53.21875 62.890625 53.21875 53.421875 
Q 53.21875 48.921875 51.53125 44.890625 
Q 49.859375 40.875 45.40625 35.40625 
Q 44.1875 33.984375 37.640625 27.21875 
Q 31.109375 20.453125 19.1875 8.296875 
z
" id="DejaVuSans-32"/>
      </defs>
      <g transform="translate(151.786454 174.342437)scale(0.1 -0.1)">
       <use xlink:href="#DejaVuSans-32"/>
       <use x="63.623047" xlink:href="#DejaVuSans-30"/>
       <use x="127.246094" xlink:href="#DejaVuSans-30"/>
      </g>
     </g>
    </g>
    <g id="xtick_4">
     <g id="line2d_7">
      <path clip-path="url(#p1fb46a0e58)" d="M 209.588033 159.744 
L 209.588033 41.472 
" style="fill:none;stroke:#b0b0b0;stroke-linecap:square;stroke-width:0.8;"/>
     </g>
     <g id="line2d_8">
      <g>
       <use style="stroke:#000000;stroke-width:0.8;" x="209.588033" xlink:href="#meb24d9c5e9" y="159.744"/>
      </g>
     </g>
     <g id="text_4">
      <!-- 300 -->
      <defs>
       <path d="M 40.578125 39.3125 
Q 47.65625 37.796875 51.625 33 
Q 55.609375 28.21875 55.609375 21.1875 
Q 55.609375 10.40625 48.1875 4.484375 
Q 40.765625 -1.421875 27.09375 -1.421875 
Q 22.515625 -1.421875 17.65625 -0.515625 
Q 12.796875 0.390625 7.625 2.203125 
L 7.625 11.71875 
Q 11.71875 9.328125 16.59375 8.109375 
Q 21.484375 6.890625 26.8125 6.890625 
Q 36.078125 6.890625 40.9375 10.546875 
Q 45.796875 14.203125 45.796875 21.1875 
Q 45.796875 27.640625 41.28125 31.265625 
Q 36.765625 34.90625 28.71875 34.90625 
L 20.21875 34.90625 
L 20.21875 43.015625 
L 29.109375 43.015625 
Q 36.375 43.015625 40.234375 45.921875 
Q 44.09375 48.828125 44.09375 54.296875 
Q 44.09375 59.90625 40.109375 62.90625 
Q 36.140625 65.921875 28.71875 65.921875 
Q 24.65625 65.921875 20.015625 65.03125 
Q 15.375 64.15625 9.8125 62.3125 
L 9.8125 71.09375 
Q 15.4375 72.65625 20.34375 73.4375 
Q 25.25 74.21875 29.59375 74.21875 
Q 40.828125 74.21875 47.359375 69.109375 
Q 53.90625 64.015625 53.90625 55.328125 
Q 53.90625 49.265625 50.4375 45.09375 
Q 46.96875 40.921875 40.578125 39.3125 
z
" id="DejaVuSans-33"/>
      </defs>
      <g transform="translate(200.044283 174.342437)scale(0.1 -0.1)">
       <use xlink:href="#DejaVuSans-33"/>
       <use x="63.623047" xlink:href="#DejaVuSans-30"/>
       <use x="127.246094" xlink:href="#DejaVuSans-30"/>
      </g>
     </g>
    </g>
   </g>
   <g id="matplotlib.axis_2">
    <g id="ytick_1">
     <g id="line2d_9">
      <path clip-path="url(#p1fb46a0e58)" d="M 57.6 154.955113 
L 216.32 154.955113 
" style="fill:none;stroke:#b0b0b0;stroke-linecap:square;stroke-width:0.8;"/>
     </g>
     <g id="line2d_10">
      <defs>
       <path d="M 0 0 
L -3.5 0 
" id="md3a776efa3" style="stroke:#000000;stroke-width:0.8;"/>
      </defs>
      <g>
       <use style="stroke:#000000;stroke-width:0.8;" x="57.6" xlink:href="#md3a776efa3" y="154.955113"/>
      </g>
     </g>
     <g id="text_5">
      <!-- 0.0 -->
      <defs>
       <path d="M 10.6875 12.40625 
L 21 12.40625 
L 21 0 
L 10.6875 0 
z
" id="DejaVuSans-2e"/>
      </defs>
      <g transform="translate(34.696875 158.754332)scale(0.1 -0.1)">
       <use xlink:href="#DejaVuSans-30"/>
       <use x="63.623047" xlink:href="#DejaVuSans-2e"/>
       <use x="95.410156" xlink:href="#DejaVuSans-30"/>
      </g>
     </g>
    </g>
    <g id="ytick_2">
     <g id="line2d_11">
      <path clip-path="url(#p1fb46a0e58)" d="M 57.6 130.906956 
L 216.32 130.906956 
" style="fill:none;stroke:#b0b0b0;stroke-linecap:square;stroke-width:0.8;"/>
     </g>
     <g id="line2d_12">
      <g>
       <use style="stroke:#000000;stroke-width:0.8;" x="57.6" xlink:href="#md3a776efa3" y="130.906956"/>
      </g>
     </g>
     <g id="text_6">
      <!-- 0.2 -->
      <g transform="translate(34.696875 134.706175)scale(0.1 -0.1)">
       <use xlink:href="#DejaVuSans-30"/>
       <use x="63.623047" xlink:href="#DejaVuSans-2e"/>
       <use x="95.410156" xlink:href="#DejaVuSans-32"/>
      </g>
     </g>
    </g>
    <g id="ytick_3">
     <g id="line2d_13">
      <path clip-path="url(#p1fb46a0e58)" d="M 57.6 106.858798 
L 216.32 106.858798 
" style="fill:none;stroke:#b0b0b0;stroke-linecap:square;stroke-width:0.8;"/>
     </g>
     <g id="line2d_14">
      <g>
       <use style="stroke:#000000;stroke-width:0.8;" x="57.6" xlink:href="#md3a776efa3" y="106.858798"/>
      </g>
     </g>
     <g id="text_7">
      <!-- 0.4 -->
      <defs>
       <path d="M 37.796875 64.3125 
L 12.890625 25.390625 
L 37.796875 25.390625 
z
M 35.203125 72.90625 
L 47.609375 72.90625 
L 47.609375 25.390625 
L 58.015625 25.390625 
L 58.015625 17.1875 
L 47.609375 17.1875 
L 47.609375 0 
L 37.796875 0 
L 37.796875 17.1875 
L 4.890625 17.1875 
L 4.890625 26.703125 
z
" id="DejaVuSans-34"/>
      </defs>
      <g transform="translate(34.696875 110.658017)scale(0.1 -0.1)">
       <use xlink:href="#DejaVuSans-30"/>
       <use x="63.623047" xlink:href="#DejaVuSans-2e"/>
       <use x="95.410156" xlink:href="#DejaVuSans-34"/>
      </g>
     </g>
    </g>
    <g id="ytick_4">
     <g id="line2d_15">
      <path clip-path="url(#p1fb46a0e58)" d="M 57.6 82.810641 
L 216.32 82.810641 
" style="fill:none;stroke:#b0b0b0;stroke-linecap:square;stroke-width:0.8;"/>
     </g>
     <g id="line2d_16">
      <g>
       <use style="stroke:#000000;stroke-width:0.8;" x="57.6" xlink:href="#md3a776efa3" y="82.810641"/>
      </g>
     </g>
     <g id="text_8">
      <!-- 0.6 -->
      <defs>
       <path d="M 33.015625 40.375 
Q 26.375 40.375 22.484375 35.828125 
Q 18.609375 31.296875 18.609375 23.390625 
Q 18.609375 15.53125 22.484375 10.953125 
Q 26.375 6.390625 33.015625 6.390625 
Q 39.65625 6.390625 43.53125 10.953125 
Q 47.40625 15.53125 47.40625 23.390625 
Q 47.40625 31.296875 43.53125 35.828125 
Q 39.65625 40.375 33.015625 40.375 
z
M 52.59375 71.296875 
L 52.59375 62.3125 
Q 48.875 64.0625 45.09375 64.984375 
Q 41.3125 65.921875 37.59375 65.921875 
Q 27.828125 65.921875 22.671875 59.328125 
Q 17.53125 52.734375 16.796875 39.40625 
Q 19.671875 43.65625 24.015625 45.921875 
Q 28.375 48.1875 33.59375 48.1875 
Q 44.578125 48.1875 50.953125 41.515625 
Q 57.328125 34.859375 57.328125 23.390625 
Q 57.328125 12.15625 50.6875 5.359375 
Q 44.046875 -1.421875 33.015625 -1.421875 
Q 20.359375 -1.421875 13.671875 8.265625 
Q 6.984375 17.96875 6.984375 36.375 
Q 6.984375 53.65625 15.1875 63.9375 
Q 23.390625 74.21875 37.203125 74.21875 
Q 40.921875 74.21875 44.703125 73.484375 
Q 48.484375 72.75 52.59375 71.296875 
z
" id="DejaVuSans-36"/>
      </defs>
      <g transform="translate(34.696875 86.60986)scale(0.1 -0.1)">
       <use xlink:href="#DejaVuSans-30"/>
       <use x="63.623047" xlink:href="#DejaVuSans-2e"/>
       <use x="95.410156" xlink:href="#DejaVuSans-36"/>
      </g>
     </g>
    </g>
    <g id="ytick_5">
     <g id="line2d_17">
      <path clip-path="url(#p1fb46a0e58)" d="M 57.6 58.762484 
L 216.32 58.762484 
" style="fill:none;stroke:#b0b0b0;stroke-linecap:square;stroke-width:0.8;"/>
     </g>
     <g id="line2d_18">
      <g>
       <use style="stroke:#000000;stroke-width:0.8;" x="57.6" xlink:href="#md3a776efa3" y="58.762484"/>
      </g>
     </g>
     <g id="text_9">
      <!-- 0.8 -->
      <defs>
       <path d="M 31.78125 34.625 
Q 24.75 34.625 20.71875 30.859375 
Q 16.703125 27.09375 16.703125 20.515625 
Q 16.703125 13.921875 20.71875 10.15625 
Q 24.75 6.390625 31.78125 6.390625 
Q 38.8125 6.390625 42.859375 10.171875 
Q 46.921875 13.96875 46.921875 20.515625 
Q 46.921875 27.09375 42.890625 30.859375 
Q 38.875 34.625 31.78125 34.625 
z
M 21.921875 38.8125 
Q 15.578125 40.375 12.03125 44.71875 
Q 8.5 49.078125 8.5 55.328125 
Q 8.5 64.0625 14.71875 69.140625 
Q 20.953125 74.21875 31.78125 74.21875 
Q 42.671875 74.21875 48.875 69.140625 
Q 55.078125 64.0625 55.078125 55.328125 
Q 55.078125 49.078125 51.53125 44.71875 
Q 48 40.375 41.703125 38.8125 
Q 48.828125 37.15625 52.796875 32.3125 
Q 56.78125 27.484375 56.78125 20.515625 
Q 56.78125 9.90625 50.3125 4.234375 
Q 43.84375 -1.421875 31.78125 -1.421875 
Q 19.734375 -1.421875 13.25 4.234375 
Q 6.78125 9.90625 6.78125 20.515625 
Q 6.78125 27.484375 10.78125 32.3125 
Q 14.796875 37.15625 21.921875 38.8125 
z
M 18.3125 54.390625 
Q 18.3125 48.734375 21.84375 45.5625 
Q 25.390625 42.390625 31.78125 42.390625 
Q 38.140625 42.390625 41.71875 45.5625 
Q 45.3125 48.734375 45.3125 54.390625 
Q 45.3125 60.0625 41.71875 63.234375 
Q 38.140625 66.40625 31.78125 66.40625 
Q 25.390625 66.40625 21.84375 63.234375 
Q 18.3125 60.0625 18.3125 54.390625 
z
" id="DejaVuSans-38"/>
      </defs>
      <g transform="translate(34.696875 62.561702)scale(0.1 -0.1)">
       <use xlink:href="#DejaVuSans-30"/>
       <use x="63.623047" xlink:href="#DejaVuSans-2e"/>
       <use x="95.410156" xlink:href="#DejaVuSans-38"/>
      </g>
     </g>
    </g>
   </g>
   <g id="line2d_19">
    <path clip-path="url(#p1fb46a0e58)" d="M 64.814545 154.368 
L 65.297124 153.702605 
L 65.779702 153.350337 
L 66.744859 150.923602 
L 67.227437 148.809995 
L 67.710015 147.596627 
L 68.192593 146.030992 
L 68.675172 143.760821 
L 69.640328 140.942677 
L 70.122907 137.772266 
L 70.605485 137.49828 
L 71.088063 136.284912 
L 71.570642 134.210446 
L 72.05322 134.053882 
L 72.535798 132.292543 
L 73.018376 129.94409 
L 73.500955 128.378454 
L 73.983533 127.634778 
L 74.466111 127.947905 
L 74.94869 125.403747 
L 75.431268 125.912579 
L 75.913846 125.051479 
L 76.879003 122.389899 
L 77.361581 121.059109 
L 77.844159 121.646223 
L 78.326738 119.806601 
L 78.809316 119.180347 
L 79.291894 117.184162 
L 79.774472 117.184162 
L 80.257051 115.070555 
L 80.739629 113.896328 
L 81.222207 114.052892 
L 81.704786 111.821861 
L 82.187364 110.804198 
L 82.669942 112.017566 
L 83.152521 108.729732 
L 83.635099 109.042859 
L 84.117677 108.847154 
L 84.600255 107.398942 
L 85.082834 106.850969 
L 85.565412 108.181759 
L 86.04799 104.189389 
L 86.530569 103.641417 
L 87.013147 102.858599 
L 87.495725 103.210867 
L 87.978303 102.036641 
L 88.460882 102.154064 
L 88.94346 99.414202 
L 89.426038 98.787948 
L 89.908617 99.883892 
L 90.391195 98.00513 
L 90.873773 97.652862 
L 91.356351 97.926848 
L 91.83893 96.24379 
L 92.321508 95.500114 
L 92.804086 95.7741 
L 93.286665 94.404169 
L 93.769243 93.660492 
L 94.251821 94.365028 
L 94.7344 93.464788 
L 95.216978 90.842349 
L 95.699556 90.842349 
L 96.182134 91.35118 
L 96.664713 89.12015 
L 97.147291 90.764067 
L 97.629869 90.098672 
L 98.595026 88.102487 
L 99.077604 89.511559 
L 99.560182 88.102487 
L 100.042761 88.728741 
L 101.490496 84.736371 
L 101.973074 86.262865 
L 102.455652 85.59747 
L 102.93823 84.658089 
L 103.420809 85.166921 
L 103.903387 83.875271 
L 104.385965 82.93589 
L 104.868544 83.601285 
L 105.351122 83.327299 
L 105.8337 82.818468 
L 106.316279 81.526818 
L 106.798857 81.996509 
L 107.281435 81.213691 
L 107.764013 81.057128 
L 108.246592 81.565959 
L 108.72917 80.313451 
L 109.211748 80.861423 
L 109.694327 79.922042 
L 110.176905 78.512971 
L 110.659483 78.004139 
L 111.142061 77.925858 
L 111.62464 79.37407 
L 112.107218 77.495308 
L 112.589796 78.356407 
L 113.072375 76.986476 
L 113.554953 76.516786 
L 114.037531 76.947336 
L 115.002688 74.91201 
L 115.485266 75.185995 
L 115.967844 75.029432 
L 116.450423 76.28194 
L 116.933001 72.994106 
L 117.415579 75.420841 
L 117.898157 73.776924 
L 118.380736 73.816065 
L 118.863314 73.463797 
L 119.345892 72.172148 
L 119.828471 73.463797 
L 120.311049 73.933487 
L 120.793627 72.485275 
L 121.276206 72.524416 
L 121.758784 70.91964 
L 122.241362 72.093866 
L 122.72394 71.741598 
L 123.206519 70.802217 
L 123.689097 70.528231 
L 124.171675 70.567372 
L 124.654254 70.254245 
L 125.136832 70.449949 
L 126.101988 67.592665 
L 126.584567 69.197441 
L 128.51488 67.044693 
L 128.997458 67.005552 
L 129.480036 66.301016 
L 129.962615 66.45758 
L 130.445193 65.283353 
L 130.927771 63.717718 
L 131.41035 65.322494 
L 131.892928 65.126789 
L 132.375506 66.027029 
L 132.858085 64.26569 
L 133.340663 63.091464 
L 133.823241 63.952563 
L 134.788398 62.660914 
L 135.753554 63.952563 
L 136.236133 63.600295 
L 136.718711 61.878097 
L 137.201289 62.856619 
L 137.683867 61.721533 
L 138.166446 62.543491 
L 138.649024 60.860434 
L 139.131602 61.212702 
L 140.096759 60.743011 
L 140.579337 60.782152 
L 141.061915 60.351602 
L 141.544494 60.469025 
L 142.027072 59.373081 
L 142.50965 59.529644 
L 142.992229 60.038475 
L 143.474807 59.294799 
L 143.957385 59.842771 
L 144.439964 59.059953 
L 144.922542 58.864249 
L 145.40512 59.529644 
L 145.887698 58.590263 
L 146.370277 59.490503 
L 146.852855 58.159713 
L 147.335433 59.138235 
L 147.818012 58.316277 
L 148.30059 59.020813 
L 148.783168 57.611741 
L 149.265746 57.650882 
L 149.748325 58.159713 
L 150.230903 58.355417 
L 150.713481 57.690023 
L 151.19606 57.5726 
L 151.678638 57.220332 
L 152.161216 56.594078 
L 152.643794 57.181191 
L 153.126373 56.946346 
L 153.608951 55.811261 
L 154.091529 56.711501 
L 154.574108 56.476655 
L 155.056686 55.850402 
L 155.539264 56.24181 
L 156.021843 55.34157 
L 156.504421 56.163529 
L 156.986999 54.637034 
L 157.469577 55.967824 
L 158.434734 54.597893 
L 158.917312 55.145866 
L 159.399891 54.323907 
L 159.882469 55.028444 
L 160.365047 53.501949 
L 160.847625 54.206485 
L 161.330204 54.089062 
L 161.812782 54.128203 
L 162.29536 53.815076 
L 162.777939 55.028443 
L 163.743095 54.128203 
L 164.225673 54.01078 
L 164.708252 52.914836 
L 165.19083 52.953976 
L 165.673408 53.893358 
L 166.155987 52.953977 
L 166.638565 53.384526 
L 167.121143 54.167344 
L 167.603721 52.67999 
L 168.0863 53.384526 
L 168.568878 52.64085 
L 169.051456 52.67999 
L 169.534035 53.149681 
L 170.499191 52.132018 
L 170.98177 51.74061 
L 171.464348 51.544905 
L 171.946926 52.014596 
L 172.429504 51.505764 
L 172.912083 52.2103 
L 173.394661 51.662328 
L 173.877239 52.171159 
L 174.359818 51.505764 
L 174.842396 51.74061 
L 175.324974 51.114355 
L 175.807552 51.505764 
L 176.772709 50.84037 
L 177.255287 51.544905 
L 177.737866 51.114356 
L 178.220444 51.075214 
L 179.1856 50.527242 
L 179.668179 50.762087 
L 180.150757 50.018411 
L 180.633335 50.057552 
L 181.598492 49.705284 
L 182.08107 50.566383 
L 182.563649 49.822707 
L 183.046227 50.605524 
L 183.528805 50.135834 
L 184.011383 50.957792 
L 184.97654 49.744425 
L 185.459118 49.54872 
L 185.941697 49.97927 
L 186.424275 50.018411 
L 186.906853 50.40982 
L 187.87201 50.331538 
L 188.354588 50.488101 
L 188.837166 48.64848 
L 189.319745 49.627002 
L 189.802323 49.54872 
L 190.284901 48.922466 
L 190.767479 48.687621 
L 191.250058 49.940129 
L 191.732636 48.570198 
L 192.215214 49.196452 
L 193.180371 48.805044 
L 193.662949 49.744425 
L 194.145528 49.313875 
L 195.110684 47.865662 
L 195.593262 49.039889 
L 196.075841 48.178789 
L 196.558419 48.491917 
L 197.040997 48.217931 
L 197.523576 48.491917 
L 198.488732 49.627002 
L 198.97131 48.100508 
L 199.453889 48.570199 
L 199.936467 48.413635 
L 200.419045 47.943945 
L 200.901624 48.022226 
L 201.384202 49.235594 
L 202.349358 48.17879 
L 202.831937 47.865663 
L 203.314515 47.239409 
L 203.797093 47.787381 
L 204.279672 47.943944 
L 204.76225 47.591676 
L 205.244828 47.474254 
L 205.727407 47.709099 
L 206.209985 48.296213 
L 206.692563 47.513395 
L 207.175141 47.904804 
L 207.65772 47.709099 
L 208.140298 48.687621 
L 208.622876 46.848 
L 209.105455 47.395972 
L 209.105455 47.395972 
" style="fill:none;stroke:#1f77b4;stroke-linecap:square;stroke-width:1.5;"/>
   </g>
   <g id="patch_3">
    <path d="M 57.6 159.744 
L 57.6 41.472 
" style="fill:none;stroke:#000000;stroke-linecap:square;stroke-linejoin:miter;stroke-width:0.8;"/>
   </g>
   <g id="patch_4">
    <path d="M 216.32 159.744 
L 216.32 41.472 
" style="fill:none;stroke:#000000;stroke-linecap:square;stroke-linejoin:miter;stroke-width:0.8;"/>
   </g>
   <g id="patch_5">
    <path d="M 57.6 159.744 
L 216.32 159.744 
" style="fill:none;stroke:#000000;stroke-linecap:square;stroke-linejoin:miter;stroke-width:0.8;"/>
   </g>
   <g id="patch_6">
    <path d="M 57.6 41.472 
L 216.32 41.472 
" style="fill:none;stroke:#000000;stroke-linecap:square;stroke-linejoin:miter;stroke-width:0.8;"/>
   </g>
   <g id="text_10">
    <!-- acc -->
    <defs>
     <path d="M 34.28125 27.484375 
Q 23.390625 27.484375 19.1875 25 
Q 14.984375 22.515625 14.984375 16.5 
Q 14.984375 11.71875 18.140625 8.90625 
Q 21.296875 6.109375 26.703125 6.109375 
Q 34.1875 6.109375 38.703125 11.40625 
Q 43.21875 16.703125 43.21875 25.484375 
L 43.21875 27.484375 
z
M 52.203125 31.203125 
L 52.203125 0 
L 43.21875 0 
L 43.21875 8.296875 
Q 40.140625 3.328125 35.546875 0.953125 
Q 30.953125 -1.421875 24.3125 -1.421875 
Q 15.921875 -1.421875 10.953125 3.296875 
Q 6 8.015625 6 15.921875 
Q 6 25.140625 12.171875 29.828125 
Q 18.359375 34.515625 30.609375 34.515625 
L 43.21875 34.515625 
L 43.21875 35.40625 
Q 43.21875 41.609375 39.140625 45 
Q 35.0625 48.390625 27.6875 48.390625 
Q 23 48.390625 18.546875 47.265625 
Q 14.109375 46.140625 10.015625 43.890625 
L 10.015625 52.203125 
Q 14.9375 54.109375 19.578125 55.046875 
Q 24.21875 56 28.609375 56 
Q 40.484375 56 46.34375 49.84375 
Q 52.203125 43.703125 52.203125 31.203125 
z
" id="DejaVuSans-61"/>
     <path d="M 48.78125 52.59375 
L 48.78125 44.1875 
Q 44.96875 46.296875 41.140625 47.34375 
Q 37.3125 48.390625 33.40625 48.390625 
Q 24.65625 48.390625 19.8125 42.84375 
Q 14.984375 37.3125 14.984375 27.296875 
Q 14.984375 17.28125 19.8125 11.734375 
Q 24.65625 6.203125 33.40625 6.203125 
Q 37.3125 6.203125 41.140625 7.25 
Q 44.96875 8.296875 48.78125 10.40625 
L 48.78125 2.09375 
Q 45.015625 0.34375 40.984375 -0.53125 
Q 36.96875 -1.421875 32.421875 -1.421875 
Q 20.0625 -1.421875 12.78125 6.34375 
Q 5.515625 14.109375 5.515625 27.296875 
Q 5.515625 40.671875 12.859375 48.328125 
Q 20.21875 56 33.015625 56 
Q 37.15625 56 41.109375 55.140625 
Q 45.0625 54.296875 48.78125 52.59375 
z
" id="DejaVuSans-63"/>
    </defs>
    <g transform="translate(126.685 35.472)scale(0.12 -0.12)">
     <use xlink:href="#DejaVuSans-61"/>
     <use x="61.279297" xlink:href="#DejaVuSans-63"/>
     <use x="116.259766" xlink:href="#DejaVuSans-63"/>
    </g>
   </g>
  </g>
  <g id="axes_2">
   <g id="patch_7">
    <path d="M 256 159.744 
L 414.72 159.744 
L 414.72 41.472 
L 256 41.472 
z
" style="fill:#ffffff;"/>
   </g>
   <g id="matplotlib.axis_3">
    <g id="xtick_5">
     <g id="line2d_20">
      <path clip-path="url(#p652fce93bb)" d="M 263.214545 159.744 
L 263.214545 41.472 
" style="fill:none;stroke:#b0b0b0;stroke-linecap:square;stroke-width:0.8;"/>
     </g>
     <g id="line2d_21">
      <g>
       <use style="stroke:#000000;stroke-width:0.8;" x="263.214545" xlink:href="#meb24d9c5e9" y="159.744"/>
      </g>
     </g>
     <g id="text_11">
      <!-- 0 -->
      <g transform="translate(260.033295 174.342437)scale(0.1 -0.1)">
       <use xlink:href="#DejaVuSans-30"/>
      </g>
     </g>
    </g>
    <g id="xtick_6">
     <g id="line2d_22">
      <path clip-path="url(#p652fce93bb)" d="M 311.472375 159.744 
L 311.472375 41.472 
" style="fill:none;stroke:#b0b0b0;stroke-linecap:square;stroke-width:0.8;"/>
     </g>
     <g id="line2d_23">
      <g>
       <use style="stroke:#000000;stroke-width:0.8;" x="311.472375" xlink:href="#meb24d9c5e9" y="159.744"/>
      </g>
     </g>
     <g id="text_12">
      <!-- 100 -->
      <g transform="translate(301.928625 174.342437)scale(0.1 -0.1)">
       <use xlink:href="#DejaVuSans-31"/>
       <use x="63.623047" xlink:href="#DejaVuSans-30"/>
       <use x="127.246094" xlink:href="#DejaVuSans-30"/>
      </g>
     </g>
    </g>
    <g id="xtick_7">
     <g id="line2d_24">
      <path clip-path="url(#p652fce93bb)" d="M 359.730204 159.744 
L 359.730204 41.472 
" style="fill:none;stroke:#b0b0b0;stroke-linecap:square;stroke-width:0.8;"/>
     </g>
     <g id="line2d_25">
      <g>
       <use style="stroke:#000000;stroke-width:0.8;" x="359.730204" xlink:href="#meb24d9c5e9" y="159.744"/>
      </g>
     </g>
     <g id="text_13">
      <!-- 200 -->
      <g transform="translate(350.186454 174.342437)scale(0.1 -0.1)">
       <use xlink:href="#DejaVuSans-32"/>
       <use x="63.623047" xlink:href="#DejaVuSans-30"/>
       <use x="127.246094" xlink:href="#DejaVuSans-30"/>
      </g>
     </g>
    </g>
    <g id="xtick_8">
     <g id="line2d_26">
      <path clip-path="url(#p652fce93bb)" d="M 407.988033 159.744 
L 407.988033 41.472 
" style="fill:none;stroke:#b0b0b0;stroke-linecap:square;stroke-width:0.8;"/>
     </g>
     <g id="line2d_27">
      <g>
       <use style="stroke:#000000;stroke-width:0.8;" x="407.988033" xlink:href="#meb24d9c5e9" y="159.744"/>
      </g>
     </g>
     <g id="text_14">
      <!-- 300 -->
      <g transform="translate(398.444283 174.342437)scale(0.1 -0.1)">
       <use xlink:href="#DejaVuSans-33"/>
       <use x="63.623047" xlink:href="#DejaVuSans-30"/>
       <use x="127.246094" xlink:href="#DejaVuSans-30"/>
      </g>
     </g>
    </g>
   </g>
   <g id="matplotlib.axis_4">
    <g id="ytick_6">
     <g id="line2d_28">
      <path clip-path="url(#p652fce93bb)" d="M 256 119.833108 
L 414.72 119.833108 
" style="fill:none;stroke:#b0b0b0;stroke-linecap:square;stroke-width:0.8;"/>
     </g>
     <g id="line2d_29">
      <g>
       <use style="stroke:#000000;stroke-width:0.8;" x="256" xlink:href="#md3a776efa3" y="119.833108"/>
      </g>
     </g>
     <g id="text_15">
      <!-- 2 -->
      <g transform="translate(242.6375 123.632327)scale(0.1 -0.1)">
       <use xlink:href="#DejaVuSans-32"/>
      </g>
     </g>
    </g>
    <g id="ytick_7">
     <g id="line2d_30">
      <path clip-path="url(#p652fce93bb)" d="M 256 78.635015 
L 414.72 78.635015 
" style="fill:none;stroke:#b0b0b0;stroke-linecap:square;stroke-width:0.8;"/>
     </g>
     <g id="line2d_31">
      <g>
       <use style="stroke:#000000;stroke-width:0.8;" x="256" xlink:href="#md3a776efa3" y="78.635015"/>
      </g>
     </g>
     <g id="text_16">
      <!-- 4 -->
      <g transform="translate(242.6375 82.434234)scale(0.1 -0.1)">
       <use xlink:href="#DejaVuSans-34"/>
      </g>
     </g>
    </g>
   </g>
   <g id="line2d_32">
    <path clip-path="url(#p652fce93bb)" d="M 263.214545 46.848 
L 263.697124 51.121556 
L 264.66228 66.551446 
L 265.144859 71.148213 
L 266.592593 80.140194 
L 267.075172 83.136216 
L 269.488063 94.177013 
L 269.970642 96.045595 
L 271.900955 101.650229 
L 273.34869 104.563957 
L 275.279003 108.290372 
L 276.244159 109.816606 
L 276.726738 110.774513 
L 277.209316 111.15696 
L 277.691894 112.017565 
L 278.174472 112.532062 
L 278.657051 113.640551 
L 279.622207 114.841992 
L 280.104786 115.645696 
L 281.069942 116.654531 
L 281.552521 117.45941 
L 282.517677 118.508292 
L 283.482834 119.67431 
L 283.965412 119.996901 
L 284.44799 120.972664 
L 284.930569 121.423824 
L 285.413147 121.646152 
L 287.826038 124.162491 
L 288.308617 124.341945 
L 288.791195 125.064659 
L 289.756351 125.830494 
L 291.204086 127.028919 
L 291.686665 127.52567 
L 292.169243 127.776022 
L 292.651821 127.754092 
L 293.1344 128.269663 
L 293.616978 128.964804 
L 294.099556 129.092371 
L 294.582134 129.403211 
L 295.064713 130.047512 
L 296.029869 130.409984 
L 296.512448 130.666139 
L 296.995026 131.135057 
L 297.477604 131.215618 
L 298.442761 131.896722 
L 298.925339 132.083794 
L 299.407917 132.51917 
L 299.890496 132.746717 
L 300.373074 132.754261 
L 300.855652 133.204342 
L 301.33823 133.252927 
L 301.820809 133.505926 
L 302.303387 133.517934 
L 302.785965 134.191866 
L 303.268544 134.251642 
L 303.751122 134.69186 
L 304.2337 134.736353 
L 304.716279 135.112264 
L 305.198857 135.174891 
L 306.164013 135.776499 
L 306.646592 136.069487 
L 307.12917 136.128479 
L 307.611748 136.346288 
L 308.094327 136.388774 
L 308.576905 136.812575 
L 309.059483 136.788866 
L 309.542061 137.337204 
L 310.02464 137.271374 
L 310.507218 137.594682 
L 311.472375 137.959895 
L 311.954953 138.263565 
L 312.437531 138.407034 
L 312.920109 138.684951 
L 313.402688 138.803061 
L 313.885266 138.768222 
L 314.367844 139.235257 
L 314.850423 139.125842 
L 315.333001 139.862699 
L 315.815579 139.568491 
L 316.298157 139.889067 
L 317.263314 139.83287 
L 317.745892 140.353339 
L 318.711049 140.293989 
L 319.193627 140.701864 
L 319.676206 140.626221 
L 320.158784 141.117659 
L 320.641362 140.840032 
L 321.606519 141.439469 
L 322.089097 141.609141 
L 322.571675 141.929762 
L 323.054254 141.97887 
L 323.536832 141.815123 
L 324.01941 142.292862 
L 324.501988 142.939376 
L 324.984567 142.687632 
L 325.467145 142.991628 
L 331.258085 145.033338 
L 332.705819 145.214836 
L 333.188398 145.857232 
L 333.670976 145.598829 
L 334.153554 145.837216 
L 334.636133 145.79383 
L 335.118711 146.287524 
L 335.601289 146.056724 
L 336.083867 146.34946 
L 336.566446 146.317025 
L 337.049024 146.419653 
L 337.531602 146.793312 
L 338.014181 146.726511 
L 338.496759 147.010072 
L 338.979337 147.109018 
L 339.461915 147.054536 
L 339.944494 147.438103 
L 340.427072 147.373302 
L 340.90965 147.520259 
L 341.392229 147.380138 
L 341.874807 147.630826 
L 342.357385 147.548888 
L 342.839964 147.960238 
L 343.322542 148.052607 
L 343.80512 147.908275 
L 344.287698 148.282759 
L 344.770277 148.315202 
L 345.252855 148.035781 
L 345.735433 148.267143 
L 346.218012 148.35399 
L 346.70059 148.212667 
L 347.183168 148.535278 
L 347.665746 148.541244 
L 349.113481 149.092237 
L 349.59606 148.743972 
L 350.078638 149.14574 
L 350.561216 149.025704 
L 351.526373 149.484633 
L 352.008951 149.323052 
L 352.974108 149.51747 
L 353.456686 149.845329 
L 353.939264 149.635728 
L 354.421843 149.616422 
L 355.386999 150.069198 
L 356.352156 150.184128 
L 356.834734 150.327961 
L 357.317312 150.030739 
L 357.799891 150.513543 
L 358.282469 150.328948 
L 358.765047 150.61844 
L 359.247625 150.452924 
L 359.730204 150.691061 
L 360.212782 150.66386 
L 360.69536 150.865514 
L 361.177939 150.580419 
L 362.143095 150.822582 
L 363.108252 150.985331 
L 364.073408 151.044454 
L 364.555987 151.344469 
L 365.038565 150.956481 
L 366.003721 151.286363 
L 366.4863 151.378466 
L 366.968878 151.330642 
L 367.451456 151.561103 
L 367.934035 151.259346 
L 368.899191 151.695111 
L 369.38177 151.844803 
L 369.864348 151.512275 
L 370.346926 151.859374 
L 371.794661 151.998647 
L 372.277239 151.78861 
L 372.759818 151.765364 
L 373.242396 152.043659 
L 373.724974 152.103059 
L 374.207552 151.868966 
L 374.690131 152.268219 
L 375.172709 151.982266 
L 375.655287 152.426199 
L 376.137866 152.261934 
L 377.103022 152.508239 
L 377.5856 152.334024 
L 378.068179 152.591529 
L 378.550757 152.382431 
L 379.033335 152.607221 
L 379.515914 152.596579 
L 379.998492 152.834072 
L 380.48107 152.572919 
L 380.963649 153.029001 
L 381.446227 152.751948 
L 382.411383 152.852255 
L 382.893962 152.498356 
L 383.37654 153.069623 
L 383.859118 152.85687 
L 384.341697 152.842648 
L 384.824275 153.107639 
L 385.306853 152.708084 
L 386.27201 152.987603 
L 386.754588 152.945438 
L 387.237166 153.24313 
L 387.719745 152.975373 
L 388.202323 153.337643 
L 388.684901 153.289277 
L 389.167479 153.410686 
L 389.650058 153.229325 
L 390.132636 153.514522 
L 390.615214 153.068603 
L 391.097793 153.477192 
L 392.062949 153.285772 
L 393.028106 153.686659 
L 393.510684 153.773568 
L 393.993262 153.429138 
L 394.475841 153.709794 
L 394.958419 153.476743 
L 395.440997 153.886799 
L 395.923576 153.860802 
L 396.406154 153.555254 
L 396.888732 153.847322 
L 397.37131 153.809994 
L 397.853889 153.645519 
L 398.336467 153.73757 
L 399.301624 154.131689 
L 399.784202 153.744083 
L 400.26678 153.724641 
L 400.749358 154.004479 
L 403.16225 154.156904 
L 403.644828 154.368 
L 404.127407 154.178534 
L 404.609985 154.366604 
L 405.092563 154.162668 
L 405.575141 154.082052 
L 406.05772 154.184634 
L 406.540298 154.083366 
L 407.505455 154.347948 
L 407.505455 154.347948 
" style="fill:none;stroke:#1f77b4;stroke-linecap:square;stroke-width:1.5;"/>
   </g>
   <g id="patch_8">
    <path d="M 256 159.744 
L 256 41.472 
" style="fill:none;stroke:#000000;stroke-linecap:square;stroke-linejoin:miter;stroke-width:0.8;"/>
   </g>
   <g id="patch_9">
    <path d="M 414.72 159.744 
L 414.72 41.472 
" style="fill:none;stroke:#000000;stroke-linecap:square;stroke-linejoin:miter;stroke-width:0.8;"/>
   </g>
   <g id="patch_10">
    <path d="M 256 159.744 
L 414.72 159.744 
" style="fill:none;stroke:#000000;stroke-linecap:square;stroke-linejoin:miter;stroke-width:0.8;"/>
   </g>
   <g id="patch_11">
    <path d="M 256 41.472 
L 414.72 41.472 
" style="fill:none;stroke:#000000;stroke-linecap:square;stroke-linejoin:miter;stroke-width:0.8;"/>
   </g>
   <g id="text_17">
    <!-- loss -->
    <defs>
     <path d="M 9.421875 75.984375 
L 18.40625 75.984375 
L 18.40625 0 
L 9.421875 0 
z
" id="DejaVuSans-6c"/>
     <path d="M 30.609375 48.390625 
Q 23.390625 48.390625 19.1875 42.75 
Q 14.984375 37.109375 14.984375 27.296875 
Q 14.984375 17.484375 19.15625 11.84375 
Q 23.34375 6.203125 30.609375 6.203125 
Q 37.796875 6.203125 41.984375 11.859375 
Q 46.1875 17.53125 46.1875 27.296875 
Q 46.1875 37.015625 41.984375 42.703125 
Q 37.796875 48.390625 30.609375 48.390625 
z
M 30.609375 56 
Q 42.328125 56 49.015625 48.375 
Q 55.71875 40.765625 55.71875 27.296875 
Q 55.71875 13.875 49.015625 6.21875 
Q 42.328125 -1.421875 30.609375 -1.421875 
Q 18.84375 -1.421875 12.171875 6.21875 
Q 5.515625 13.875 5.515625 27.296875 
Q 5.515625 40.765625 12.171875 48.375 
Q 18.84375 56 30.609375 56 
z
" id="DejaVuSans-6f"/>
     <path d="M 44.28125 53.078125 
L 44.28125 44.578125 
Q 40.484375 46.53125 36.375 47.5 
Q 32.28125 48.484375 27.875 48.484375 
Q 21.1875 48.484375 17.84375 46.4375 
Q 14.5 44.390625 14.5 40.28125 
Q 14.5 37.15625 16.890625 35.375 
Q 19.28125 33.59375 26.515625 31.984375 
L 29.59375 31.296875 
Q 39.15625 29.25 43.1875 25.515625 
Q 47.21875 21.78125 47.21875 15.09375 
Q 47.21875 7.46875 41.1875 3.015625 
Q 35.15625 -1.421875 24.609375 -1.421875 
Q 20.21875 -1.421875 15.453125 -0.5625 
Q 10.6875 0.296875 5.421875 2 
L 5.421875 11.28125 
Q 10.40625 8.6875 15.234375 7.390625 
Q 20.0625 6.109375 24.8125 6.109375 
Q 31.15625 6.109375 34.5625 8.28125 
Q 37.984375 10.453125 37.984375 14.40625 
Q 37.984375 18.0625 35.515625 20.015625 
Q 33.0625 21.96875 24.703125 23.78125 
L 21.578125 24.515625 
Q 13.234375 26.265625 9.515625 29.90625 
Q 5.8125 33.546875 5.8125 39.890625 
Q 5.8125 47.609375 11.28125 51.796875 
Q 16.75 56 26.8125 56 
Q 31.78125 56 36.171875 55.265625 
Q 40.578125 54.546875 44.28125 53.078125 
z
" id="DejaVuSans-73"/>
    </defs>
    <g transform="translate(323.770625 35.472)scale(0.12 -0.12)">
     <use xlink:href="#DejaVuSans-6c"/>
     <use x="27.783203" xlink:href="#DejaVuSans-6f"/>
     <use x="88.964844" xlink:href="#DejaVuSans-73"/>
     <use x="141.064453" xlink:href="#DejaVuSans-73"/>
    </g>
   </g>
  </g>
  <g id="axes_3">
   <g id="patch_12">
    <path d="M 57.6 307.584 
L 216.32 307.584 
L 216.32 189.312 
L 57.6 189.312 
z
" style="fill:#ffffff;"/>
   </g>
   <g id="matplotlib.axis_5">
    <g id="xtick_9">
     <g id="line2d_33">
      <path clip-path="url(#p6947e80f99)" d="M 64.814545 307.584 
L 64.814545 189.312 
" style="fill:none;stroke:#b0b0b0;stroke-linecap:square;stroke-width:0.8;"/>
     </g>
     <g id="line2d_34">
      <g>
       <use style="stroke:#000000;stroke-width:0.8;" x="64.814545" xlink:href="#meb24d9c5e9" y="307.584"/>
      </g>
     </g>
     <g id="text_18">
      <!-- 0 -->
      <g transform="translate(61.633295 322.182437)scale(0.1 -0.1)">
       <use xlink:href="#DejaVuSans-30"/>
      </g>
     </g>
    </g>
    <g id="xtick_10">
     <g id="line2d_35">
      <path clip-path="url(#p6947e80f99)" d="M 113.072375 307.584 
L 113.072375 189.312 
" style="fill:none;stroke:#b0b0b0;stroke-linecap:square;stroke-width:0.8;"/>
     </g>
     <g id="line2d_36">
      <g>
       <use style="stroke:#000000;stroke-width:0.8;" x="113.072375" xlink:href="#meb24d9c5e9" y="307.584"/>
      </g>
     </g>
     <g id="text_19">
      <!-- 100 -->
      <g transform="translate(103.528625 322.182437)scale(0.1 -0.1)">
       <use xlink:href="#DejaVuSans-31"/>
       <use x="63.623047" xlink:href="#DejaVuSans-30"/>
       <use x="127.246094" xlink:href="#DejaVuSans-30"/>
      </g>
     </g>
    </g>
    <g id="xtick_11">
     <g id="line2d_37">
      <path clip-path="url(#p6947e80f99)" d="M 161.330204 307.584 
L 161.330204 189.312 
" style="fill:none;stroke:#b0b0b0;stroke-linecap:square;stroke-width:0.8;"/>
     </g>
     <g id="line2d_38">
      <g>
       <use style="stroke:#000000;stroke-width:0.8;" x="161.330204" xlink:href="#meb24d9c5e9" y="307.584"/>
      </g>
     </g>
     <g id="text_20">
      <!-- 200 -->
      <g transform="translate(151.786454 322.182437)scale(0.1 -0.1)">
       <use xlink:href="#DejaVuSans-32"/>
       <use x="63.623047" xlink:href="#DejaVuSans-30"/>
       <use x="127.246094" xlink:href="#DejaVuSans-30"/>
      </g>
     </g>
    </g>
    <g id="xtick_12">
     <g id="line2d_39">
      <path clip-path="url(#p6947e80f99)" d="M 209.588033 307.584 
L 209.588033 189.312 
" style="fill:none;stroke:#b0b0b0;stroke-linecap:square;stroke-width:0.8;"/>
     </g>
     <g id="line2d_40">
      <g>
       <use style="stroke:#000000;stroke-width:0.8;" x="209.588033" xlink:href="#meb24d9c5e9" y="307.584"/>
      </g>
     </g>
     <g id="text_21">
      <!-- 300 -->
      <g transform="translate(200.044283 322.182437)scale(0.1 -0.1)">
       <use xlink:href="#DejaVuSans-33"/>
       <use x="63.623047" xlink:href="#DejaVuSans-30"/>
       <use x="127.246094" xlink:href="#DejaVuSans-30"/>
      </g>
     </g>
    </g>
   </g>
   <g id="matplotlib.axis_6">
    <g id="ytick_8">
     <g id="line2d_41">
      <path clip-path="url(#p6947e80f99)" d="M 57.6 303.208186 
L 216.32 303.208186 
" style="fill:none;stroke:#b0b0b0;stroke-linecap:square;stroke-width:0.8;"/>
     </g>
     <g id="line2d_42">
      <g>
       <use style="stroke:#000000;stroke-width:0.8;" x="57.6" xlink:href="#md3a776efa3" y="303.208186"/>
      </g>
     </g>
     <g id="text_22">
      <!-- 0.0 -->
      <g transform="translate(34.696875 307.007405)scale(0.1 -0.1)">
       <use xlink:href="#DejaVuSans-30"/>
       <use x="63.623047" xlink:href="#DejaVuSans-2e"/>
       <use x="95.410156" xlink:href="#DejaVuSans-30"/>
      </g>
     </g>
    </g>
    <g id="ytick_9">
     <g id="line2d_43">
      <path clip-path="url(#p6947e80f99)" d="M 57.6 277.603423 
L 216.32 277.603423 
" style="fill:none;stroke:#b0b0b0;stroke-linecap:square;stroke-width:0.8;"/>
     </g>
     <g id="line2d_44">
      <g>
       <use style="stroke:#000000;stroke-width:0.8;" x="57.6" xlink:href="#md3a776efa3" y="277.603423"/>
      </g>
     </g>
     <g id="text_23">
      <!-- 0.2 -->
      <g transform="translate(34.696875 281.402642)scale(0.1 -0.1)">
       <use xlink:href="#DejaVuSans-30"/>
       <use x="63.623047" xlink:href="#DejaVuSans-2e"/>
       <use x="95.410156" xlink:href="#DejaVuSans-32"/>
      </g>
     </g>
    </g>
    <g id="ytick_10">
     <g id="line2d_45">
      <path clip-path="url(#p6947e80f99)" d="M 57.6 251.99866 
L 216.32 251.99866 
" style="fill:none;stroke:#b0b0b0;stroke-linecap:square;stroke-width:0.8;"/>
     </g>
     <g id="line2d_46">
      <g>
       <use style="stroke:#000000;stroke-width:0.8;" x="57.6" xlink:href="#md3a776efa3" y="251.99866"/>
      </g>
     </g>
     <g id="text_24">
      <!-- 0.4 -->
      <g transform="translate(34.696875 255.797879)scale(0.1 -0.1)">
       <use xlink:href="#DejaVuSans-30"/>
       <use x="63.623047" xlink:href="#DejaVuSans-2e"/>
       <use x="95.410156" xlink:href="#DejaVuSans-34"/>
      </g>
     </g>
    </g>
    <g id="ytick_11">
     <g id="line2d_47">
      <path clip-path="url(#p6947e80f99)" d="M 57.6 226.393898 
L 216.32 226.393898 
" style="fill:none;stroke:#b0b0b0;stroke-linecap:square;stroke-width:0.8;"/>
     </g>
     <g id="line2d_48">
      <g>
       <use style="stroke:#000000;stroke-width:0.8;" x="57.6" xlink:href="#md3a776efa3" y="226.393898"/>
      </g>
     </g>
     <g id="text_25">
      <!-- 0.6 -->
      <g transform="translate(34.696875 230.193116)scale(0.1 -0.1)">
       <use xlink:href="#DejaVuSans-30"/>
       <use x="63.623047" xlink:href="#DejaVuSans-2e"/>
       <use x="95.410156" xlink:href="#DejaVuSans-36"/>
      </g>
     </g>
    </g>
    <g id="ytick_12">
     <g id="line2d_49">
      <path clip-path="url(#p6947e80f99)" d="M 57.6 200.789135 
L 216.32 200.789135 
" style="fill:none;stroke:#b0b0b0;stroke-linecap:square;stroke-width:0.8;"/>
     </g>
     <g id="line2d_50">
      <g>
       <use style="stroke:#000000;stroke-width:0.8;" x="57.6" xlink:href="#md3a776efa3" y="200.789135"/>
      </g>
     </g>
     <g id="text_26">
      <!-- 0.8 -->
      <g transform="translate(34.696875 204.588354)scale(0.1 -0.1)">
       <use xlink:href="#DejaVuSans-30"/>
       <use x="63.623047" xlink:href="#DejaVuSans-2e"/>
       <use x="95.410156" xlink:href="#DejaVuSans-38"/>
      </g>
     </g>
    </g>
   </g>
   <g id="line2d_51">
    <path clip-path="url(#p6947e80f99)" d="M 64.814545 302.208 
L 65.297124 301.207814 
L 65.779702 298.207256 
L 66.26228 298.707349 
L 66.744859 297.20707 
L 67.227437 293.206325 
L 67.710015 291.205953 
L 68.192593 288.205395 
L 68.675172 291.205953 
L 69.640328 283.704558 
L 70.122907 285.204837 
L 70.605485 282.204279 
L 71.088063 281.704186 
L 71.570642 280.703999 
L 72.05322 280.703999 
L 72.535798 275.703069 
L 73.500955 278.703627 
L 73.983533 273.202604 
L 74.466111 272.202418 
L 74.94869 274.702883 
L 75.913846 267.70158 
L 76.396424 270.702139 
L 76.879003 269.701953 
L 77.361581 270.702139 
L 77.844159 262.70065 
L 78.326738 261.200372 
L 78.809316 263.200743 
L 79.291894 266.201301 
L 80.257051 258.199814 
L 80.739629 261.200371 
L 81.222207 261.200371 
L 81.704786 253.698976 
L 82.187364 261.700464 
L 82.669942 257.69972 
L 83.152521 257.699721 
L 83.635099 259.700092 
L 84.117677 257.199627 
L 84.600255 247.197766 
L 85.082834 258.199813 
L 85.565412 251.698605 
L 86.04799 248.698046 
L 86.530569 251.698604 
L 87.013147 251.19851 
L 87.495725 248.698046 
L 87.978303 255.199254 
L 88.460882 253.198882 
L 88.94346 247.197767 
L 89.426038 245.697487 
L 89.908617 242.696929 
L 90.391195 246.197581 
L 90.873773 244.697301 
L 91.356351 241.696744 
L 91.83893 244.697301 
L 92.804086 238.696185 
L 93.286665 243.697115 
L 93.769243 239.696371 
L 94.7344 240.696557 
L 95.216978 237.696 
L 95.699556 241.19665 
L 96.182134 238.196092 
L 96.664713 244.197209 
L 97.147291 239.196278 
L 97.629869 243.197022 
L 98.112448 241.19665 
L 98.595026 239.696371 
L 99.077604 241.19665 
L 99.560182 243.697115 
L 100.042761 239.196278 
L 100.525339 236.19572 
L 101.007917 235.195533 
L 101.490496 232.194975 
L 101.973074 233.695254 
L 102.455652 232.695069 
L 102.93823 237.695998 
L 103.420809 235.695627 
L 103.903387 235.195534 
L 104.385965 229.694511 
L 104.868544 230.194604 
L 105.351122 234.195348 
L 105.8337 230.694696 
L 106.316279 231.694882 
L 106.798857 230.194603 
L 107.281435 226.193858 
L 107.764013 226.693952 
L 108.246592 230.694695 
L 108.72917 228.694325 
L 109.211748 225.193673 
L 109.694327 227.194045 
L 110.176905 230.694696 
L 110.659483 229.194417 
L 111.142061 223.193302 
L 111.62464 225.693766 
L 112.107218 226.693953 
L 112.589796 226.693952 
L 113.072375 234.195348 
L 113.554953 224.193487 
L 114.037531 221.192929 
L 114.520109 224.69358 
L 115.002688 231.194789 
L 115.485266 222.193115 
L 115.967844 223.193301 
L 116.450423 221.693021 
L 116.933001 228.694324 
L 117.415579 217.692276 
L 117.898157 226.19386 
L 118.380736 218.692464 
L 118.863314 224.193486 
L 119.345892 217.192184 
L 120.311049 223.693394 
L 120.793627 225.193672 
L 121.276206 222.193115 
L 121.758784 228.694324 
L 122.72394 212.691345 
L 123.206519 217.192185 
L 123.689097 223.1933 
L 124.171675 227.194044 
L 124.654254 217.692277 
L 125.136832 213.691534 
L 125.61941 222.693207 
L 126.101988 225.193673 
L 126.584567 224.193486 
L 127.067145 217.692276 
L 127.549723 214.191625 
L 128.032302 221.192928 
L 128.51488 216.191998 
L 128.997458 218.19237 
L 129.480036 216.191998 
L 129.962615 212.691347 
L 130.445193 215.691905 
L 130.927771 214.191626 
L 131.41035 217.692279 
L 131.892928 214.191626 
L 132.375506 213.19144 
L 132.858085 217.692277 
L 133.340663 215.691905 
L 133.823241 214.191626 
L 134.305819 211.691161 
L 134.788398 211.191069 
L 135.753554 220.192741 
L 136.236133 210.190881 
L 136.718711 208.190509 
L 137.201289 211.691162 
L 137.683867 211.191069 
L 138.166446 210.190883 
L 138.649024 205.690044 
L 139.131602 207.190325 
L 139.614181 207.690416 
L 140.096759 204.689859 
L 140.579337 213.691533 
L 141.061915 211.691161 
L 141.544494 214.191627 
L 142.027072 213.691533 
L 142.992229 206.190137 
L 143.474807 209.690788 
L 143.957385 208.19051 
L 144.439964 209.69079 
L 144.922542 209.190696 
L 145.40512 207.190324 
L 146.370277 211.191068 
L 146.852855 208.690603 
L 147.335433 210.690975 
L 147.818012 208.190509 
L 148.30059 216.191999 
L 148.783168 214.691719 
L 149.265746 207.190326 
L 149.748325 205.690045 
L 150.230903 205.189952 
L 150.713481 205.189953 
L 151.19606 205.690044 
L 151.678638 211.691161 
L 152.161216 207.690418 
L 152.643794 208.190509 
L 153.126373 210.690976 
L 153.608951 208.690604 
L 154.091529 209.690788 
L 154.574108 208.690602 
L 155.056686 212.191253 
L 155.539264 206.690231 
L 156.021843 205.690044 
L 156.504421 203.689673 
L 156.986999 207.690418 
L 157.469577 206.190137 
L 157.952156 203.189581 
L 158.434734 206.190139 
L 158.917312 207.690417 
L 159.399891 205.189951 
L 159.882469 201.689301 
L 160.365047 211.191067 
L 160.847625 204.189765 
L 161.330204 201.689301 
L 161.812782 205.690046 
L 162.29536 206.690231 
L 162.777939 205.690045 
L 163.260517 209.190696 
L 163.743095 201.689301 
L 164.225673 217.692277 
L 164.708252 206.190138 
L 165.19083 204.189766 
L 165.673408 201.689302 
L 166.155987 203.689674 
L 166.638565 209.190696 
L 167.121143 204.68986 
L 167.603721 207.190325 
L 168.0863 207.190324 
L 168.568878 202.189394 
L 169.051456 202.189394 
L 169.534035 204.689858 
L 170.016613 204.689859 
L 170.499191 203.189581 
L 170.98177 202.689487 
L 171.464348 202.689489 
L 171.946926 199.188836 
L 172.429504 200.689115 
L 172.912083 197.188465 
L 173.394661 198.18865 
L 173.877239 206.190138 
L 174.359818 207.190323 
L 174.842396 204.68986 
L 175.324974 201.189208 
L 176.290131 200.189022 
L 176.772709 203.689672 
L 177.255287 198.688744 
L 177.737866 213.191441 
L 178.220444 206.190138 
L 179.1856 203.189581 
L 179.668179 198.688744 
L 180.150757 203.189581 
L 180.633335 200.189023 
L 181.115914 200.189023 
L 181.598492 206.190139 
L 182.08107 206.190138 
L 182.563649 197.188465 
L 183.046227 202.189395 
L 183.528805 203.189581 
L 184.493962 198.18865 
L 184.97654 203.18958 
L 185.459118 202.189394 
L 185.941697 198.688742 
L 186.424275 202.689486 
L 186.906853 201.189209 
L 187.389431 203.689672 
L 187.87201 196.68837 
L 188.354588 198.688745 
L 188.837166 198.688743 
L 189.802323 199.688931 
L 190.284901 199.688928 
L 190.767479 200.689115 
L 191.250058 196.188279 
L 191.732636 199.188837 
L 192.215214 198.188651 
L 192.697793 202.689488 
L 193.180371 195.188093 
L 193.662949 199.688928 
L 194.145528 198.188652 
L 194.628106 196.188278 
L 195.110684 195.188093 
L 195.593262 196.688371 
L 196.075841 199.688929 
L 196.558419 195.688185 
L 197.040997 200.189022 
L 197.523576 207.190322 
L 198.006154 201.189207 
L 198.488732 199.688929 
L 198.97131 201.689301 
L 199.453889 195.688185 
L 199.936467 198.688743 
L 200.419045 203.689672 
L 200.901624 194.688 
L 201.384202 197.188465 
L 201.86678 198.688743 
L 202.349358 197.688558 
L 202.831937 204.689858 
L 203.314515 198.688744 
L 203.797093 199.688929 
L 204.279672 202.189393 
L 204.76225 199.688929 
L 205.244828 201.189208 
L 205.727407 197.188464 
L 206.209985 197.688558 
L 206.692563 195.688187 
L 207.175141 197.688558 
L 207.65772 196.188279 
L 208.140298 198.18865 
L 208.622876 199.188837 
L 209.105455 198.18865 
L 209.105455 198.18865 
" style="fill:none;stroke:#1f77b4;stroke-linecap:square;stroke-width:1.5;"/>
   </g>
   <g id="patch_13">
    <path d="M 57.6 307.584 
L 57.6 189.312 
" style="fill:none;stroke:#000000;stroke-linecap:square;stroke-linejoin:miter;stroke-width:0.8;"/>
   </g>
   <g id="patch_14">
    <path d="M 216.32 307.584 
L 216.32 189.312 
" style="fill:none;stroke:#000000;stroke-linecap:square;stroke-linejoin:miter;stroke-width:0.8;"/>
   </g>
   <g id="patch_15">
    <path d="M 57.6 307.584 
L 216.32 307.584 
" style="fill:none;stroke:#000000;stroke-linecap:square;stroke-linejoin:miter;stroke-width:0.8;"/>
   </g>
   <g id="patch_16">
    <path d="M 57.6 189.312 
L 216.32 189.312 
" style="fill:none;stroke:#000000;stroke-linecap:square;stroke-linejoin:miter;stroke-width:0.8;"/>
   </g>
   <g id="text_27">
    <!-- val_acc -->
    <defs>
     <path d="M 2.984375 54.6875 
L 12.5 54.6875 
L 29.59375 8.796875 
L 46.6875 54.6875 
L 56.203125 54.6875 
L 35.6875 0 
L 23.484375 0 
z
" id="DejaVuSans-76"/>
     <path d="M 50.984375 -16.609375 
L 50.984375 -23.578125 
L -0.984375 -23.578125 
L -0.984375 -16.609375 
z
" id="DejaVuSans-5f"/>
    </defs>
    <g transform="translate(114.79 183.312)scale(0.12 -0.12)">
     <use xlink:href="#DejaVuSans-76"/>
     <use x="59.179688" xlink:href="#DejaVuSans-61"/>
     <use x="120.458984" xlink:href="#DejaVuSans-6c"/>
     <use x="148.242188" xlink:href="#DejaVuSans-5f"/>
     <use x="198.242188" xlink:href="#DejaVuSans-61"/>
     <use x="259.521484" xlink:href="#DejaVuSans-63"/>
     <use x="314.501953" xlink:href="#DejaVuSans-63"/>
    </g>
   </g>
  </g>
  <g id="axes_4">
   <g id="patch_17">
    <path d="M 256 307.584 
L 414.72 307.584 
L 414.72 189.312 
L 256 189.312 
z
" style="fill:#ffffff;"/>
   </g>
   <g id="matplotlib.axis_7">
    <g id="xtick_13">
     <g id="line2d_52">
      <path clip-path="url(#p57df5c23b8)" d="M 263.214545 307.584 
L 263.214545 189.312 
" style="fill:none;stroke:#b0b0b0;stroke-linecap:square;stroke-width:0.8;"/>
     </g>
     <g id="line2d_53">
      <g>
       <use style="stroke:#000000;stroke-width:0.8;" x="263.214545" xlink:href="#meb24d9c5e9" y="307.584"/>
      </g>
     </g>
     <g id="text_28">
      <!-- 0 -->
      <g transform="translate(260.033295 322.182437)scale(0.1 -0.1)">
       <use xlink:href="#DejaVuSans-30"/>
      </g>
     </g>
    </g>
    <g id="xtick_14">
     <g id="line2d_54">
      <path clip-path="url(#p57df5c23b8)" d="M 311.472375 307.584 
L 311.472375 189.312 
" style="fill:none;stroke:#b0b0b0;stroke-linecap:square;stroke-width:0.8;"/>
     </g>
     <g id="line2d_55">
      <g>
       <use style="stroke:#000000;stroke-width:0.8;" x="311.472375" xlink:href="#meb24d9c5e9" y="307.584"/>
      </g>
     </g>
     <g id="text_29">
      <!-- 100 -->
      <g transform="translate(301.928625 322.182437)scale(0.1 -0.1)">
       <use xlink:href="#DejaVuSans-31"/>
       <use x="63.623047" xlink:href="#DejaVuSans-30"/>
       <use x="127.246094" xlink:href="#DejaVuSans-30"/>
      </g>
     </g>
    </g>
    <g id="xtick_15">
     <g id="line2d_56">
      <path clip-path="url(#p57df5c23b8)" d="M 359.730204 307.584 
L 359.730204 189.312 
" style="fill:none;stroke:#b0b0b0;stroke-linecap:square;stroke-width:0.8;"/>
     </g>
     <g id="line2d_57">
      <g>
       <use style="stroke:#000000;stroke-width:0.8;" x="359.730204" xlink:href="#meb24d9c5e9" y="307.584"/>
      </g>
     </g>
     <g id="text_30">
      <!-- 200 -->
      <g transform="translate(350.186454 322.182437)scale(0.1 -0.1)">
       <use xlink:href="#DejaVuSans-32"/>
       <use x="63.623047" xlink:href="#DejaVuSans-30"/>
       <use x="127.246094" xlink:href="#DejaVuSans-30"/>
      </g>
     </g>
    </g>
    <g id="xtick_16">
     <g id="line2d_58">
      <path clip-path="url(#p57df5c23b8)" d="M 407.988033 307.584 
L 407.988033 189.312 
" style="fill:none;stroke:#b0b0b0;stroke-linecap:square;stroke-width:0.8;"/>
     </g>
     <g id="line2d_59">
      <g>
       <use style="stroke:#000000;stroke-width:0.8;" x="407.988033" xlink:href="#meb24d9c5e9" y="307.584"/>
      </g>
     </g>
     <g id="text_31">
      <!-- 300 -->
      <g transform="translate(398.444283 322.182437)scale(0.1 -0.1)">
       <use xlink:href="#DejaVuSans-33"/>
       <use x="63.623047" xlink:href="#DejaVuSans-30"/>
       <use x="127.246094" xlink:href="#DejaVuSans-30"/>
      </g>
     </g>
    </g>
   </g>
   <g id="matplotlib.axis_8">
    <g id="ytick_13">
     <g id="line2d_60">
      <path clip-path="url(#p57df5c23b8)" d="M 256 270.38887 
L 414.72 270.38887 
" style="fill:none;stroke:#b0b0b0;stroke-linecap:square;stroke-width:0.8;"/>
     </g>
     <g id="line2d_61">
      <g>
       <use style="stroke:#000000;stroke-width:0.8;" x="256" xlink:href="#md3a776efa3" y="270.38887"/>
      </g>
     </g>
     <g id="text_32">
      <!-- 2 -->
      <g transform="translate(242.6375 274.188089)scale(0.1 -0.1)">
       <use xlink:href="#DejaVuSans-32"/>
      </g>
     </g>
    </g>
    <g id="ytick_14">
     <g id="line2d_62">
      <path clip-path="url(#p57df5c23b8)" d="M 256 227.289212 
L 414.72 227.289212 
" style="fill:none;stroke:#b0b0b0;stroke-linecap:square;stroke-width:0.8;"/>
     </g>
     <g id="line2d_63">
      <g>
       <use style="stroke:#000000;stroke-width:0.8;" x="256" xlink:href="#md3a776efa3" y="227.289212"/>
      </g>
     </g>
     <g id="text_33">
      <!-- 4 -->
      <g transform="translate(242.6375 231.088431)scale(0.1 -0.1)">
       <use xlink:href="#DejaVuSans-34"/>
      </g>
     </g>
    </g>
   </g>
   <g id="line2d_64">
    <path clip-path="url(#p57df5c23b8)" d="M 263.214545 194.688 
L 264.66228 215.841448 
L 265.144859 219.596392 
L 267.075172 230.368629 
L 269.005485 239.396615 
L 269.488063 240.658389 
L 270.45322 243.770842 
L 271.418376 246.062305 
L 271.900955 247.800302 
L 273.34869 250.467671 
L 273.831268 250.839198 
L 274.313846 252.367497 
L 275.279003 253.77876 
L 275.761581 254.791671 
L 276.244159 255.368126 
L 276.726738 255.516569 
L 277.209316 257.185317 
L 277.691894 256.745933 
L 278.174472 258.071506 
L 280.104786 260.678879 
L 280.587364 260.69109 
L 281.552521 262.051178 
L 282.035099 261.696092 
L 282.517677 262.394897 
L 283.000255 264.737407 
L 283.482834 264.161316 
L 283.965412 264.640872 
L 284.44799 266.006856 
L 284.930569 265.167504 
L 285.413147 265.266368 
L 285.895725 266.460277 
L 286.378303 263.832389 
L 286.860882 267.305373 
L 287.34346 267.860003 
L 287.826038 268.651273 
L 288.308617 269.217143 
L 288.791195 269.290458 
L 289.273773 268.84038 
L 289.756351 269.898064 
L 290.721508 271.046238 
L 291.204086 271.437515 
L 291.686665 270.913457 
L 292.169243 271.344072 
L 292.651821 272.261356 
L 293.1344 272.618367 
L 293.616978 273.215856 
L 294.099556 273.464905 
L 294.582134 273.911833 
L 295.064713 273.506127 
L 295.547291 274.085457 
L 296.029869 273.473851 
L 296.512448 274.212768 
L 296.995026 273.652708 
L 297.477604 275.426967 
L 297.960182 274.596343 
L 298.442761 275.208384 
L 298.925339 276.024655 
L 299.407917 277.5579 
L 300.373074 277.114917 
L 300.855652 277.51407 
L 301.33823 276.472965 
L 301.820809 276.293295 
L 302.303387 277.191451 
L 302.785965 278.56015 
L 303.268544 279.259608 
L 303.751122 278.593286 
L 304.2337 279.321692 
L 304.716279 279.035744 
L 305.198857 278.534858 
L 305.681435 280.780366 
L 306.164013 279.800326 
L 306.646592 280.514079 
L 307.12917 280.659565 
L 307.611748 279.945411 
L 308.094327 281.556718 
L 308.576905 281.084082 
L 309.059483 281.249433 
L 309.542061 281.861752 
L 310.02464 281.218338 
L 310.507218 282.650396 
L 310.989796 281.908349 
L 311.472375 277.652486 
L 311.954953 283.459648 
L 312.437531 283.439137 
L 312.920109 283.133381 
L 313.402688 281.202266 
L 313.885266 283.978666 
L 314.367844 281.673781 
L 314.850423 284.654685 
L 315.333001 283.77982 
L 315.815579 285.354933 
L 316.298157 284.900404 
L 316.780736 285.778723 
L 317.263314 284.545781 
L 317.745892 285.989484 
L 318.228471 286.024504 
L 318.711049 283.397199 
L 319.193627 283.256367 
L 319.676206 285.261561 
L 320.158784 282.76582 
L 320.641362 286.235242 
L 321.12394 287.975507 
L 321.606519 286.87042 
L 322.571675 285.397013 
L 323.054254 287.914638 
L 323.536832 287.998495 
L 324.01941 287.248166 
L 324.501988 285.797387 
L 324.984567 286.989394 
L 325.467145 288.733014 
L 325.949723 288.987204 
L 326.432302 285.541827 
L 326.91488 289.497612 
L 327.397458 289.188807 
L 327.880036 289.753559 
L 328.362615 289.34023 
L 328.845193 289.385734 
L 329.327771 289.080003 
L 329.81035 289.46952 
L 330.292928 289.708066 
L 330.775506 290.077616 
L 331.258085 289.873079 
L 331.740663 290.121085 
L 332.223241 290.633514 
L 332.705819 291.654012 
L 333.188398 291.927325 
L 333.670976 290.872913 
L 334.153554 288.748204 
L 334.636133 292.743478 
L 335.118711 292.407912 
L 335.601289 292.385531 
L 336.083867 292.248187 
L 336.566446 291.87341 
L 337.049024 293.649182 
L 337.531602 292.919797 
L 338.014181 291.723628 
L 338.496759 293.205753 
L 338.979337 292.511098 
L 339.461915 292.652128 
L 339.944494 290.685175 
L 341.392229 294.143788 
L 341.874807 293.103695 
L 342.357385 292.668636 
L 342.839964 293.306061 
L 343.322542 294.393503 
L 343.80512 294.237384 
L 344.770277 293.62433 
L 345.735433 294.948488 
L 346.218012 294.709804 
L 346.70059 292.398658 
L 347.665746 294.368844 
L 348.148325 295.675257 
L 348.630903 294.24616 
L 349.113481 294.536023 
L 349.59606 295.1056 
L 350.078638 293.488739 
L 350.561216 294.419802 
L 351.043794 294.140232 
L 351.526373 292.975055 
L 352.008951 294.077853 
L 352.491529 292.772449 
L 352.974108 294.569152 
L 353.456686 291.54579 
L 353.939264 296.270298 
L 354.421843 295.955804 
L 354.904421 296.641462 
L 355.386999 294.406596 
L 355.869577 296.62821 
L 356.352156 296.040598 
L 356.834734 295.875742 
L 357.317312 295.086096 
L 357.799891 296.516489 
L 358.282469 295.394188 
L 358.765047 293.71182 
L 359.247625 297.329675 
L 359.730204 298.166512 
L 360.212782 297.385662 
L 360.69536 296.890057 
L 361.177939 296.877279 
L 361.660517 295.362625 
L 362.143095 298.060096 
L 362.625673 289.479019 
L 363.108252 297.617275 
L 363.59083 295.746849 
L 364.073408 296.884935 
L 364.555987 296.865391 
L 365.038565 295.205083 
L 365.521143 297.727771 
L 366.003721 296.529062 
L 366.4863 296.274984 
L 366.968878 298.028783 
L 367.451456 297.893098 
L 367.934035 296.591625 
L 368.416613 297.241402 
L 368.899191 298.094988 
L 369.38177 298.257039 
L 369.864348 297.681341 
L 370.346926 299.292974 
L 370.829504 297.90824 
L 371.312083 299.60066 
L 372.759818 295.185187 
L 373.242396 297.446371 
L 373.724974 298.963777 
L 374.207552 299.159042 
L 374.690131 298.501026 
L 375.172709 298.508929 
L 375.655287 299.011532 
L 376.137866 295.032542 
L 376.620444 297.609693 
L 378.068179 299.544914 
L 378.550757 299.073839 
L 379.033335 299.168005 
L 379.515914 300.059992 
L 379.998492 296.832185 
L 380.48107 296.289105 
L 380.963649 300.210143 
L 381.446227 298.074812 
L 381.928805 297.270046 
L 382.411383 299.234899 
L 382.893962 299.780141 
L 383.37654 296.813814 
L 383.859118 298.019684 
L 384.341697 300.014702 
L 384.824275 299.427695 
L 385.306853 298.410202 
L 385.789431 298.493622 
L 386.27201 300.841641 
L 386.754588 299.132344 
L 387.237166 299.926762 
L 387.719745 299.477834 
L 388.202323 299.648062 
L 388.684901 299.359208 
L 389.167479 299.99821 
L 389.650058 301.119707 
L 390.132636 300.900941 
L 390.615214 300.981178 
L 391.097793 298.843525 
L 391.580371 300.966899 
L 392.062949 299.761679 
L 392.545528 300.084744 
L 393.028106 301.034044 
L 393.510684 301.433418 
L 393.993262 300.662358 
L 394.475841 300.284096 
L 394.958419 301.176964 
L 395.440997 300.06557 
L 395.923576 295.791301 
L 396.406154 298.446971 
L 397.37131 299.602333 
L 397.853889 301.561159 
L 398.336467 301.443243 
L 398.819045 297.859045 
L 399.301624 301.607014 
L 399.784202 300.535702 
L 400.26678 301.282214 
L 400.749358 300.257806 
L 401.231937 297.169089 
L 401.714515 301.057848 
L 402.197093 299.843499 
L 402.679672 299.610161 
L 403.16225 300.592285 
L 403.644828 298.831482 
L 404.127407 301.003537 
L 404.609985 300.773993 
L 405.092563 302.208 
L 405.575141 300.975256 
L 406.05772 301.53585 
L 406.540298 300.524066 
L 407.022876 300.821251 
L 407.505455 301.490392 
L 407.505455 301.490392 
" style="fill:none;stroke:#1f77b4;stroke-linecap:square;stroke-width:1.5;"/>
   </g>
   <g id="patch_18">
    <path d="M 256 307.584 
L 256 189.312 
" style="fill:none;stroke:#000000;stroke-linecap:square;stroke-linejoin:miter;stroke-width:0.8;"/>
   </g>
   <g id="patch_19">
    <path d="M 414.72 307.584 
L 414.72 189.312 
" style="fill:none;stroke:#000000;stroke-linecap:square;stroke-linejoin:miter;stroke-width:0.8;"/>
   </g>
   <g id="patch_20">
    <path d="M 256 307.584 
L 414.72 307.584 
" style="fill:none;stroke:#000000;stroke-linecap:square;stroke-linejoin:miter;stroke-width:0.8;"/>
   </g>
   <g id="patch_21">
    <path d="M 256 189.312 
L 414.72 189.312 
" style="fill:none;stroke:#000000;stroke-linecap:square;stroke-linejoin:miter;stroke-width:0.8;"/>
   </g>
   <g id="text_34">
    <!-- val_loss -->
    <g transform="translate(311.875625 183.312)scale(0.12 -0.12)">
     <use xlink:href="#DejaVuSans-76"/>
     <use x="59.179688" xlink:href="#DejaVuSans-61"/>
     <use x="120.458984" xlink:href="#DejaVuSans-6c"/>
     <use x="148.242188" xlink:href="#DejaVuSans-5f"/>
     <use x="198.242188" xlink:href="#DejaVuSans-6c"/>
     <use x="226.025391" xlink:href="#DejaVuSans-6f"/>
     <use x="287.207031" xlink:href="#DejaVuSans-73"/>
     <use x="339.306641" xlink:href="#DejaVuSans-73"/>
    </g>
   </g>
  </g>
  <g id="text_35">
   <!-- model1 20171023_142930 -->
   <defs>
    <path d="M 52 44.1875 
Q 55.375 50.25 60.0625 53.125 
Q 64.75 56 71.09375 56 
Q 79.640625 56 84.28125 50.015625 
Q 88.921875 44.046875 88.921875 33.015625 
L 88.921875 0 
L 79.890625 0 
L 79.890625 32.71875 
Q 79.890625 40.578125 77.09375 44.375 
Q 74.3125 48.1875 68.609375 48.1875 
Q 61.625 48.1875 57.5625 43.546875 
Q 53.515625 38.921875 53.515625 30.90625 
L 53.515625 0 
L 44.484375 0 
L 44.484375 32.71875 
Q 44.484375 40.625 41.703125 44.40625 
Q 38.921875 48.1875 33.109375 48.1875 
Q 26.21875 48.1875 22.15625 43.53125 
Q 18.109375 38.875 18.109375 30.90625 
L 18.109375 0 
L 9.078125 0 
L 9.078125 54.6875 
L 18.109375 54.6875 
L 18.109375 46.1875 
Q 21.1875 51.21875 25.484375 53.609375 
Q 29.78125 56 35.6875 56 
Q 41.65625 56 45.828125 52.96875 
Q 50 49.953125 52 44.1875 
z
" id="DejaVuSans-6d"/>
    <path d="M 45.40625 46.390625 
L 45.40625 75.984375 
L 54.390625 75.984375 
L 54.390625 0 
L 45.40625 0 
L 45.40625 8.203125 
Q 42.578125 3.328125 38.25 0.953125 
Q 33.9375 -1.421875 27.875 -1.421875 
Q 17.96875 -1.421875 11.734375 6.484375 
Q 5.515625 14.40625 5.515625 27.296875 
Q 5.515625 40.1875 11.734375 48.09375 
Q 17.96875 56 27.875 56 
Q 33.9375 56 38.25 53.625 
Q 42.578125 51.265625 45.40625 46.390625 
z
M 14.796875 27.296875 
Q 14.796875 17.390625 18.875 11.75 
Q 22.953125 6.109375 30.078125 6.109375 
Q 37.203125 6.109375 41.296875 11.75 
Q 45.40625 17.390625 45.40625 27.296875 
Q 45.40625 37.203125 41.296875 42.84375 
Q 37.203125 48.484375 30.078125 48.484375 
Q 22.953125 48.484375 18.875 42.84375 
Q 14.796875 37.203125 14.796875 27.296875 
z
" id="DejaVuSans-64"/>
    <path d="M 56.203125 29.59375 
L 56.203125 25.203125 
L 14.890625 25.203125 
Q 15.484375 15.921875 20.484375 11.0625 
Q 25.484375 6.203125 34.421875 6.203125 
Q 39.59375 6.203125 44.453125 7.46875 
Q 49.3125 8.734375 54.109375 11.28125 
L 54.109375 2.78125 
Q 49.265625 0.734375 44.1875 -0.34375 
Q 39.109375 -1.421875 33.890625 -1.421875 
Q 20.796875 -1.421875 13.15625 6.1875 
Q 5.515625 13.8125 5.515625 26.8125 
Q 5.515625 40.234375 12.765625 48.109375 
Q 20.015625 56 32.328125 56 
Q 43.359375 56 49.78125 48.890625 
Q 56.203125 41.796875 56.203125 29.59375 
z
M 47.21875 32.234375 
Q 47.125 39.59375 43.09375 43.984375 
Q 39.0625 48.390625 32.421875 48.390625 
Q 24.90625 48.390625 20.390625 44.140625 
Q 15.875 39.890625 15.1875 32.171875 
z
" id="DejaVuSans-65"/>
    <path id="DejaVuSans-20"/>
    <path d="M 8.203125 72.90625 
L 55.078125 72.90625 
L 55.078125 68.703125 
L 28.609375 0 
L 18.3125 0 
L 43.21875 64.59375 
L 8.203125 64.59375 
z
" id="DejaVuSans-37"/>
    <path d="M 10.984375 1.515625 
L 10.984375 10.5 
Q 14.703125 8.734375 18.5 7.8125 
Q 22.3125 6.890625 25.984375 6.890625 
Q 35.75 6.890625 40.890625 13.453125 
Q 46.046875 20.015625 46.78125 33.40625 
Q 43.953125 29.203125 39.59375 26.953125 
Q 35.25 24.703125 29.984375 24.703125 
Q 19.046875 24.703125 12.671875 31.3125 
Q 6.296875 37.9375 6.296875 49.421875 
Q 6.296875 60.640625 12.9375 67.421875 
Q 19.578125 74.21875 30.609375 74.21875 
Q 43.265625 74.21875 49.921875 64.515625 
Q 56.59375 54.828125 56.59375 36.375 
Q 56.59375 19.140625 48.40625 8.859375 
Q 40.234375 -1.421875 26.421875 -1.421875 
Q 22.703125 -1.421875 18.890625 -0.6875 
Q 15.09375 0.046875 10.984375 1.515625 
z
M 30.609375 32.421875 
Q 37.25 32.421875 41.125 36.953125 
Q 45.015625 41.5 45.015625 49.421875 
Q 45.015625 57.28125 41.125 61.84375 
Q 37.25 66.40625 30.609375 66.40625 
Q 23.96875 66.40625 20.09375 61.84375 
Q 16.21875 57.28125 16.21875 49.421875 
Q 16.21875 41.5 20.09375 36.953125 
Q 23.96875 32.421875 30.609375 32.421875 
z
" id="DejaVuSans-39"/>
   </defs>
   <g transform="translate(149.547188 16.030125)scale(0.12 -0.12)">
    <use xlink:href="#DejaVuSans-6d"/>
    <use x="97.412109" xlink:href="#DejaVuSans-6f"/>
    <use x="158.59375" xlink:href="#DejaVuSans-64"/>
    <use x="222.070312" xlink:href="#DejaVuSans-65"/>
    <use x="283.59375" xlink:href="#DejaVuSans-6c"/>
    <use x="311.376953" xlink:href="#DejaVuSans-31"/>
    <use x="375" xlink:href="#DejaVuSans-20"/>
    <use x="406.787109" xlink:href="#DejaVuSans-32"/>
    <use x="470.410156" xlink:href="#DejaVuSans-30"/>
    <use x="534.033203" xlink:href="#DejaVuSans-31"/>
    <use x="597.65625" xlink:href="#DejaVuSans-37"/>
    <use x="661.279297" xlink:href="#DejaVuSans-31"/>
    <use x="724.902344" xlink:href="#DejaVuSans-30"/>
    <use x="788.525391" xlink:href="#DejaVuSans-32"/>
    <use x="852.148438" xlink:href="#DejaVuSans-33"/>
    <use x="915.771484" xlink:href="#DejaVuSans-5f"/>
    <use x="965.771484" xlink:href="#DejaVuSans-31"/>
    <use x="1029.394531" xlink:href="#DejaVuSans-34"/>
    <use x="1093.017578" xlink:href="#DejaVuSans-32"/>
    <use x="1156.640625" xlink:href="#DejaVuSans-39"/>
    <use x="1220.263672" xlink:href="#DejaVuSans-33"/>
    <use x="1283.886719" xlink:href="#DejaVuSans-30"/>
   </g>
  </g>
 </g>
 <defs>
  <clipPath id="p1fb46a0e58">
   <rect height="118.272" width="158.72" x="57.6" y="41.472"/>
  </clipPath>
  <clipPath id="p652fce93bb">
   <rect height="118.272" width="158.72" x="256" y="41.472"/>
  </clipPath>
  <clipPath id="p6947e80f99">
   <rect height="118.272" width="158.72" x="57.6" y="189.312"/>
  </clipPath>
  <clipPath id="p57df5c23b8">
   <rect height="118.272" width="158.72" x="256" y="189.312"/>
  </clipPath>
 </defs>
</svg>
