<?xml version="1.0" encoding="utf-8" standalone="no"?>
<!DOCTYPE svg PUBLIC "-//W3C//DTD SVG 1.1//EN"
  "http://www.w3.org/Graphics/SVG/1.1/DTD/svg11.dtd">
<!-- Created with matplotlib (http://matplotlib.org/) -->
<svg height="345pt" version="1.1" viewBox="0 0 460 345" width="460pt" xmlns="http://www.w3.org/2000/svg" xmlns:xlink="http://www.w3.org/1999/xlink">
 <defs>
  <style type="text/css">
*{stroke-linecap:butt;stroke-linejoin:round;}
  </style>
 </defs>
 <g id="figure_1">
  <g id="patch_1">
   <path d="M 0 345.6 
L 460.8 345.6 
L 460.8 0 
L 0 0 
z
" style="fill:#ffffff;"/>
  </g>
  <g id="axes_1">
   <g id="patch_2">
    <path d="M 57.6 159.744 
L 216.32 159.744 
L 216.32 41.472 
L 57.6 41.472 
z
" style="fill:#ffffff;"/>
   </g>
   <g id="matplotlib.axis_1">
    <g id="xtick_1">
     <g id="line2d_1">
      <path clip-path="url(#pbea73af1b2)" d="M 64.814545 159.744 
L 64.814545 41.472 
" style="fill:none;stroke:#b0b0b0;stroke-linecap:square;stroke-width:0.8;"/>
     </g>
     <g id="line2d_2">
      <defs>
       <path d="M 0 0 
L 0 3.5 
" id="m1ad79f5758" style="stroke:#000000;stroke-width:0.8;"/>
      </defs>
      <g>
       <use style="stroke:#000000;stroke-width:0.8;" x="64.814545" xlink:href="#m1ad79f5758" y="159.744"/>
      </g>
     </g>
     <g id="text_1">
      <!-- 0 -->
      <defs>
       <path d="M 31.78125 66.40625 
Q 24.171875 66.40625 20.328125 58.90625 
Q 16.5 51.421875 16.5 36.375 
Q 16.5 21.390625 20.328125 13.890625 
Q 24.171875 6.390625 31.78125 6.390625 
Q 39.453125 6.390625 43.28125 13.890625 
Q 47.125 21.390625 47.125 36.375 
Q 47.125 51.421875 43.28125 58.90625 
Q 39.453125 66.40625 31.78125 66.40625 
z
M 31.78125 74.21875 
Q 44.046875 74.21875 50.515625 64.515625 
Q 56.984375 54.828125 56.984375 36.375 
Q 56.984375 17.96875 50.515625 8.265625 
Q 44.046875 -1.421875 31.78125 -1.421875 
Q 19.53125 -1.421875 13.0625 8.265625 
Q 6.59375 17.96875 6.59375 36.375 
Q 6.59375 54.828125 13.0625 64.515625 
Q 19.53125 74.21875 31.78125 74.21875 
z
" id="DejaVuSans-30"/>
      </defs>
      <g transform="translate(61.633295 174.342437)scale(0.1 -0.1)">
       <use xlink:href="#DejaVuSans-30"/>
      </g>
     </g>
    </g>
    <g id="xtick_2">
     <g id="line2d_3">
      <path clip-path="url(#pbea73af1b2)" d="M 113.072375 159.744 
L 113.072375 41.472 
" style="fill:none;stroke:#b0b0b0;stroke-linecap:square;stroke-width:0.8;"/>
     </g>
     <g id="line2d_4">
      <g>
       <use style="stroke:#000000;stroke-width:0.8;" x="113.072375" xlink:href="#m1ad79f5758" y="159.744"/>
      </g>
     </g>
     <g id="text_2">
      <!-- 100 -->
      <defs>
       <path d="M 12.40625 8.296875 
L 28.515625 8.296875 
L 28.515625 63.921875 
L 10.984375 60.40625 
L 10.984375 69.390625 
L 28.421875 72.90625 
L 38.28125 72.90625 
L 38.28125 8.296875 
L 54.390625 8.296875 
L 54.390625 0 
L 12.40625 0 
z
" id="DejaVuSans-31"/>
      </defs>
      <g transform="translate(103.528625 174.342437)scale(0.1 -0.1)">
       <use xlink:href="#DejaVuSans-31"/>
       <use x="63.623047" xlink:href="#DejaVuSans-30"/>
       <use x="127.246094" xlink:href="#DejaVuSans-30"/>
      </g>
     </g>
    </g>
    <g id="xtick_3">
     <g id="line2d_5">
      <path clip-path="url(#pbea73af1b2)" d="M 161.330204 159.744 
L 161.330204 41.472 
" style="fill:none;stroke:#b0b0b0;stroke-linecap:square;stroke-width:0.8;"/>
     </g>
     <g id="line2d_6">
      <g>
       <use style="stroke:#000000;stroke-width:0.8;" x="161.330204" xlink:href="#m1ad79f5758" y="159.744"/>
      </g>
     </g>
     <g id="text_3">
      <!-- 200 -->
      <defs>
       <path d="M 19.1875 8.296875 
L 53.609375 8.296875 
L 53.609375 0 
L 7.328125 0 
L 7.328125 8.296875 
Q 12.9375 14.109375 22.625 23.890625 
Q 32.328125 33.6875 34.8125 36.53125 
Q 39.546875 41.84375 41.421875 45.53125 
Q 43.3125 49.21875 43.3125 52.78125 
Q 43.3125 58.59375 39.234375 62.25 
Q 35.15625 65.921875 28.609375 65.921875 
Q 23.96875 65.921875 18.8125 64.3125 
Q 13.671875 62.703125 7.8125 59.421875 
L 7.8125 69.390625 
Q 13.765625 71.78125 18.9375 73 
Q 24.125 74.21875 28.421875 74.21875 
Q 39.75 74.21875 46.484375 68.546875 
Q 53.21875 62.890625 53.21875 53.421875 
Q 53.21875 48.921875 51.53125 44.890625 
Q 49.859375 40.875 45.40625 35.40625 
Q 44.1875 33.984375 37.640625 27.21875 
Q 31.109375 20.453125 19.1875 8.296875 
z
" id="DejaVuSans-32"/>
      </defs>
      <g transform="translate(151.786454 174.342437)scale(0.1 -0.1)">
       <use xlink:href="#DejaVuSans-32"/>
       <use x="63.623047" xlink:href="#DejaVuSans-30"/>
       <use x="127.246094" xlink:href="#DejaVuSans-30"/>
      </g>
     </g>
    </g>
    <g id="xtick_4">
     <g id="line2d_7">
      <path clip-path="url(#pbea73af1b2)" d="M 209.588033 159.744 
L 209.588033 41.472 
" style="fill:none;stroke:#b0b0b0;stroke-linecap:square;stroke-width:0.8;"/>
     </g>
     <g id="line2d_8">
      <g>
       <use style="stroke:#000000;stroke-width:0.8;" x="209.588033" xlink:href="#m1ad79f5758" y="159.744"/>
      </g>
     </g>
     <g id="text_4">
      <!-- 300 -->
      <defs>
       <path d="M 40.578125 39.3125 
Q 47.65625 37.796875 51.625 33 
Q 55.609375 28.21875 55.609375 21.1875 
Q 55.609375 10.40625 48.1875 4.484375 
Q 40.765625 -1.421875 27.09375 -1.421875 
Q 22.515625 -1.421875 17.65625 -0.515625 
Q 12.796875 0.390625 7.625 2.203125 
L 7.625 11.71875 
Q 11.71875 9.328125 16.59375 8.109375 
Q 21.484375 6.890625 26.8125 6.890625 
Q 36.078125 6.890625 40.9375 10.546875 
Q 45.796875 14.203125 45.796875 21.1875 
Q 45.796875 27.640625 41.28125 31.265625 
Q 36.765625 34.90625 28.71875 34.90625 
L 20.21875 34.90625 
L 20.21875 43.015625 
L 29.109375 43.015625 
Q 36.375 43.015625 40.234375 45.921875 
Q 44.09375 48.828125 44.09375 54.296875 
Q 44.09375 59.90625 40.109375 62.90625 
Q 36.140625 65.921875 28.71875 65.921875 
Q 24.65625 65.921875 20.015625 65.03125 
Q 15.375 64.15625 9.8125 62.3125 
L 9.8125 71.09375 
Q 15.4375 72.65625 20.34375 73.4375 
Q 25.25 74.21875 29.59375 74.21875 
Q 40.828125 74.21875 47.359375 69.109375 
Q 53.90625 64.015625 53.90625 55.328125 
Q 53.90625 49.265625 50.4375 45.09375 
Q 46.96875 40.921875 40.578125 39.3125 
z
" id="DejaVuSans-33"/>
      </defs>
      <g transform="translate(200.044283 174.342437)scale(0.1 -0.1)">
       <use xlink:href="#DejaVuSans-33"/>
       <use x="63.623047" xlink:href="#DejaVuSans-30"/>
       <use x="127.246094" xlink:href="#DejaVuSans-30"/>
      </g>
     </g>
    </g>
   </g>
   <g id="matplotlib.axis_2">
    <g id="ytick_1">
     <g id="line2d_9">
      <path clip-path="url(#pbea73af1b2)" d="M 57.6 154.686224 
L 216.32 154.686224 
" style="fill:none;stroke:#b0b0b0;stroke-linecap:square;stroke-width:0.8;"/>
     </g>
     <g id="line2d_10">
      <defs>
       <path d="M 0 0 
L -3.5 0 
" id="mb655721c4b" style="stroke:#000000;stroke-width:0.8;"/>
      </defs>
      <g>
       <use style="stroke:#000000;stroke-width:0.8;" x="57.6" xlink:href="#mb655721c4b" y="154.686224"/>
      </g>
     </g>
     <g id="text_5">
      <!-- 0.0 -->
      <defs>
       <path d="M 10.6875 12.40625 
L 21 12.40625 
L 21 0 
L 10.6875 0 
z
" id="DejaVuSans-2e"/>
      </defs>
      <g transform="translate(34.696875 158.485443)scale(0.1 -0.1)">
       <use xlink:href="#DejaVuSans-30"/>
       <use x="63.623047" xlink:href="#DejaVuSans-2e"/>
       <use x="95.410156" xlink:href="#DejaVuSans-30"/>
      </g>
     </g>
    </g>
    <g id="ytick_2">
     <g id="line2d_11">
      <path clip-path="url(#pbea73af1b2)" d="M 57.6 130.246606 
L 216.32 130.246606 
" style="fill:none;stroke:#b0b0b0;stroke-linecap:square;stroke-width:0.8;"/>
     </g>
     <g id="line2d_12">
      <g>
       <use style="stroke:#000000;stroke-width:0.8;" x="57.6" xlink:href="#mb655721c4b" y="130.246606"/>
      </g>
     </g>
     <g id="text_6">
      <!-- 0.2 -->
      <g transform="translate(34.696875 134.045825)scale(0.1 -0.1)">
       <use xlink:href="#DejaVuSans-30"/>
       <use x="63.623047" xlink:href="#DejaVuSans-2e"/>
       <use x="95.410156" xlink:href="#DejaVuSans-32"/>
      </g>
     </g>
    </g>
    <g id="ytick_3">
     <g id="line2d_13">
      <path clip-path="url(#pbea73af1b2)" d="M 57.6 105.806988 
L 216.32 105.806988 
" style="fill:none;stroke:#b0b0b0;stroke-linecap:square;stroke-width:0.8;"/>
     </g>
     <g id="line2d_14">
      <g>
       <use style="stroke:#000000;stroke-width:0.8;" x="57.6" xlink:href="#mb655721c4b" y="105.806988"/>
      </g>
     </g>
     <g id="text_7">
      <!-- 0.4 -->
      <defs>
       <path d="M 37.796875 64.3125 
L 12.890625 25.390625 
L 37.796875 25.390625 
z
M 35.203125 72.90625 
L 47.609375 72.90625 
L 47.609375 25.390625 
L 58.015625 25.390625 
L 58.015625 17.1875 
L 47.609375 17.1875 
L 47.609375 0 
L 37.796875 0 
L 37.796875 17.1875 
L 4.890625 17.1875 
L 4.890625 26.703125 
z
" id="DejaVuSans-34"/>
      </defs>
      <g transform="translate(34.696875 109.606206)scale(0.1 -0.1)">
       <use xlink:href="#DejaVuSans-30"/>
       <use x="63.623047" xlink:href="#DejaVuSans-2e"/>
       <use x="95.410156" xlink:href="#DejaVuSans-34"/>
      </g>
     </g>
    </g>
    <g id="ytick_4">
     <g id="line2d_15">
      <path clip-path="url(#pbea73af1b2)" d="M 57.6 81.367369 
L 216.32 81.367369 
" style="fill:none;stroke:#b0b0b0;stroke-linecap:square;stroke-width:0.8;"/>
     </g>
     <g id="line2d_16">
      <g>
       <use style="stroke:#000000;stroke-width:0.8;" x="57.6" xlink:href="#mb655721c4b" y="81.367369"/>
      </g>
     </g>
     <g id="text_8">
      <!-- 0.6 -->
      <defs>
       <path d="M 33.015625 40.375 
Q 26.375 40.375 22.484375 35.828125 
Q 18.609375 31.296875 18.609375 23.390625 
Q 18.609375 15.53125 22.484375 10.953125 
Q 26.375 6.390625 33.015625 6.390625 
Q 39.65625 6.390625 43.53125 10.953125 
Q 47.40625 15.53125 47.40625 23.390625 
Q 47.40625 31.296875 43.53125 35.828125 
Q 39.65625 40.375 33.015625 40.375 
z
M 52.59375 71.296875 
L 52.59375 62.3125 
Q 48.875 64.0625 45.09375 64.984375 
Q 41.3125 65.921875 37.59375 65.921875 
Q 27.828125 65.921875 22.671875 59.328125 
Q 17.53125 52.734375 16.796875 39.40625 
Q 19.671875 43.65625 24.015625 45.921875 
Q 28.375 48.1875 33.59375 48.1875 
Q 44.578125 48.1875 50.953125 41.515625 
Q 57.328125 34.859375 57.328125 23.390625 
Q 57.328125 12.15625 50.6875 5.359375 
Q 44.046875 -1.421875 33.015625 -1.421875 
Q 20.359375 -1.421875 13.671875 8.265625 
Q 6.984375 17.96875 6.984375 36.375 
Q 6.984375 53.65625 15.1875 63.9375 
Q 23.390625 74.21875 37.203125 74.21875 
Q 40.921875 74.21875 44.703125 73.484375 
Q 48.484375 72.75 52.59375 71.296875 
z
" id="DejaVuSans-36"/>
      </defs>
      <g transform="translate(34.696875 85.166588)scale(0.1 -0.1)">
       <use xlink:href="#DejaVuSans-30"/>
       <use x="63.623047" xlink:href="#DejaVuSans-2e"/>
       <use x="95.410156" xlink:href="#DejaVuSans-36"/>
      </g>
     </g>
    </g>
    <g id="ytick_5">
     <g id="line2d_17">
      <path clip-path="url(#pbea73af1b2)" d="M 57.6 56.927751 
L 216.32 56.927751 
" style="fill:none;stroke:#b0b0b0;stroke-linecap:square;stroke-width:0.8;"/>
     </g>
     <g id="line2d_18">
      <g>
       <use style="stroke:#000000;stroke-width:0.8;" x="57.6" xlink:href="#mb655721c4b" y="56.927751"/>
      </g>
     </g>
     <g id="text_9">
      <!-- 0.8 -->
      <defs>
       <path d="M 31.78125 34.625 
Q 24.75 34.625 20.71875 30.859375 
Q 16.703125 27.09375 16.703125 20.515625 
Q 16.703125 13.921875 20.71875 10.15625 
Q 24.75 6.390625 31.78125 6.390625 
Q 38.8125 6.390625 42.859375 10.171875 
Q 46.921875 13.96875 46.921875 20.515625 
Q 46.921875 27.09375 42.890625 30.859375 
Q 38.875 34.625 31.78125 34.625 
z
M 21.921875 38.8125 
Q 15.578125 40.375 12.03125 44.71875 
Q 8.5 49.078125 8.5 55.328125 
Q 8.5 64.0625 14.71875 69.140625 
Q 20.953125 74.21875 31.78125 74.21875 
Q 42.671875 74.21875 48.875 69.140625 
Q 55.078125 64.0625 55.078125 55.328125 
Q 55.078125 49.078125 51.53125 44.71875 
Q 48 40.375 41.703125 38.8125 
Q 48.828125 37.15625 52.796875 32.3125 
Q 56.78125 27.484375 56.78125 20.515625 
Q 56.78125 9.90625 50.3125 4.234375 
Q 43.84375 -1.421875 31.78125 -1.421875 
Q 19.734375 -1.421875 13.25 4.234375 
Q 6.78125 9.90625 6.78125 20.515625 
Q 6.78125 27.484375 10.78125 32.3125 
Q 14.796875 37.15625 21.921875 38.8125 
z
M 18.3125 54.390625 
Q 18.3125 48.734375 21.84375 45.5625 
Q 25.390625 42.390625 31.78125 42.390625 
Q 38.140625 42.390625 41.71875 45.5625 
Q 45.3125 48.734375 45.3125 54.390625 
Q 45.3125 60.0625 41.71875 63.234375 
Q 38.140625 66.40625 31.78125 66.40625 
Q 25.390625 66.40625 21.84375 63.234375 
Q 18.3125 60.0625 18.3125 54.390625 
z
" id="DejaVuSans-38"/>
      </defs>
      <g transform="translate(34.696875 60.72697)scale(0.1 -0.1)">
       <use xlink:href="#DejaVuSans-30"/>
       <use x="63.623047" xlink:href="#DejaVuSans-2e"/>
       <use x="95.410156" xlink:href="#DejaVuSans-38"/>
      </g>
     </g>
    </g>
   </g>
   <g id="line2d_19">
    <path clip-path="url(#pbea73af1b2)" d="M 64.814545 154.368 
L 65.297124 153.214437 
L 66.26228 152.856435 
L 66.744859 150.986868 
L 67.227437 150.071973 
L 67.710015 147.685292 
L 68.192593 147.52618 
L 68.675172 146.651063 
L 69.15775 145.020164 
L 70.122907 142.792595 
L 70.605485 141.042362 
L 71.088063 141.28103 
L 72.05322 138.05901 
L 72.535798 137.382783 
L 73.018376 135.075658 
L 73.500955 134.041429 
L 73.983533 133.404981 
L 74.466111 130.819409 
L 75.431268 129.18851 
L 75.913846 126.125602 
L 76.396424 125.688044 
L 76.879003 124.335591 
L 77.361581 122.267133 
L 77.844159 122.147799 
L 78.326738 121.073793 
L 78.809316 118.846223 
L 79.291894 117.891551 
L 79.774472 118.169997 
L 80.257051 115.067311 
L 81.222207 112.640851 
L 81.704786 110.691728 
L 82.187364 110.45306 
L 82.669942 109.85639 
L 83.152521 108.145935 
L 83.635099 107.469708 
L 84.117677 106.037699 
L 84.600255 105.361473 
L 85.082834 103.452128 
L 85.565412 102.417899 
L 86.04799 101.065446 
L 87.013147 99.235657 
L 87.495725 99.156101 
L 87.978303 98.55943 
L 88.460882 97.1672 
L 88.94346 95.13852 
L 89.426038 95.536301 
L 89.908617 95.13852 
L 90.391195 93.308732 
L 90.873773 93.308731 
L 91.356351 91.280052 
L 91.83893 92.035835 
L 92.321508 90.762937 
L 92.804086 90.524269 
L 93.769243 88.614924 
L 94.251821 88.535368 
L 94.7344 88.018254 
L 95.216978 87.023803 
L 95.699556 85.114458 
L 96.182134 86.546467 
L 97.147291 83.841561 
L 97.629869 84.239341 
L 98.112448 85.154236 
L 98.595026 82.727776 
L 99.560182 82.25044 
L 100.042761 81.176433 
L 100.525339 80.858209 
L 101.007917 82.091328 
L 101.490496 79.62509 
L 101.973074 79.784202 
L 102.455652 80.341095 
L 102.93823 77.835079 
L 103.903387 79.465978 
L 104.385965 77.317964 
L 104.868544 77.675967 
L 105.351122 77.437299 
L 105.8337 76.601961 
L 106.316279 76.084846 
L 106.798857 77.556633 
L 107.281435 76.323514 
L 107.764013 77.079297 
L 108.72917 74.255057 
L 109.211748 74.414169 
L 109.694327 75.209729 
L 110.176905 74.732393 
L 110.659483 73.18105 
L 111.62464 73.459496 
L 112.107218 72.58438 
L 112.589796 72.942382 
L 113.072375 73.936833 
L 113.554953 73.340162 
L 114.037531 71.550151 
L 114.520109 72.107044 
L 115.002688 72.226378 
L 115.485266 70.834147 
L 115.967844 70.635257 
L 116.450423 70.953481 
L 116.933001 70.5557 
L 117.415579 70.714813 
L 117.898157 70.197698 
L 118.380736 69.044136 
L 118.863314 69.601028 
L 119.345892 69.004358 
L 119.828471 68.049685 
L 120.311049 69.36236 
L 120.793627 68.686133 
L 121.276206 67.811017 
L 121.758784 67.293903 
L 122.241362 68.009907 
L 122.72394 67.572349 
L 123.206519 68.487243 
L 123.689097 68.845245 
L 124.171675 67.293902 
L 124.654254 67.134791 
L 125.136832 66.617676 
L 125.61941 67.095012 
L 126.101988 66.060784 
L 126.584567 65.901672 
L 127.067145 66.657454 
L 127.549723 65.74256 
L 128.51488 65.663003 
L 128.997458 64.191217 
L 129.962615 64.867443 
L 130.445193 63.992327 
L 131.892928 63.793437 
L 132.375506 64.787887 
L 132.858085 63.196767 
L 133.340663 64.469663 
L 134.305819 63.156988 
L 134.788398 62.997876 
L 135.270976 63.037654 
L 135.753554 62.52054 
L 136.236133 63.196766 
L 136.718711 62.082982 
L 137.201289 62.759208 
L 137.683867 62.71943 
L 138.166446 62.162537 
L 138.649024 61.088531 
L 139.131602 61.844313 
L 139.614181 60.730529 
L 140.096759 62.122759 
L 140.579337 61.247644 
L 141.061915 61.008975 
L 141.544494 61.168087 
L 142.027072 60.571417 
L 142.50965 61.287421 
L 142.992229 59.934969 
L 143.474807 60.412304 
L 143.957385 59.934969 
L 144.439964 60.650973 
L 144.922542 58.542738 
L 145.40512 59.855412 
L 145.887698 59.855413 
L 146.370277 60.133859 
L 146.852855 59.020074 
L 147.335433 58.50296 
L 147.818012 58.542738 
L 148.30059 58.70185 
L 148.783168 57.866511 
L 149.265746 59.378076 
L 149.748325 58.383626 
L 150.230903 57.946067 
L 150.713481 58.821184 
L 151.19606 57.747177 
L 151.678638 57.150507 
L 152.161216 57.707399 
L 152.643794 57.707399 
L 153.126373 57.389175 
L 153.608951 56.712949 
L 154.574108 56.911838 
L 155.056686 57.627844 
L 155.539264 56.67317 
L 156.021843 57.031173 
L 156.504421 56.354947 
L 157.952156 56.036722 
L 158.434734 54.843382 
L 158.917312 56.156057 
L 159.399891 54.127378 
L 159.882469 55.400274 
L 160.847625 55.87761 
L 161.812782 54.206933 
L 162.29536 54.88316 
L 162.777939 54.326267 
L 163.260517 54.922938 
L 163.743095 54.206934 
L 164.225673 54.564936 
L 164.708252 53.928487 
L 165.19083 54.445601 
L 165.673408 54.206933 
L 166.155987 54.445601 
L 166.638565 53.809153 
L 167.121143 52.496479 
L 167.603721 53.729597 
L 168.0863 53.411373 
L 169.051456 53.331817 
L 169.534035 52.655591 
L 170.016613 53.093149 
L 170.499191 53.212483 
L 170.98177 52.377145 
L 171.464348 52.655591 
L 171.946926 51.939587 
L 172.429504 52.05892 
L 172.912083 52.774925 
L 173.394661 52.297588 
L 173.877239 52.297588 
L 174.359818 51.66114 
L 174.842396 51.979365 
L 175.324974 51.899808 
L 175.807552 50.984914 
L 176.290131 52.058921 
L 176.772709 50.945136 
L 177.255287 51.621362 
L 177.737866 51.780474 
L 178.220444 52.615813 
L 178.703022 51.422473 
L 179.1856 50.786024 
L 179.668179 51.621362 
L 180.633335 50.945136 
L 181.115914 51.66114 
L 181.598492 50.945136 
L 182.563649 50.945136 
L 183.046227 50.030242 
L 183.528805 50.07002 
L 184.011383 51.303138 
L 184.493962 49.712017 
L 184.97654 50.626912 
L 185.459118 50.86558 
L 185.941697 49.393793 
L 186.424275 49.910907 
L 186.906853 50.030242 
L 187.389431 49.950685 
L 187.87201 50.428022 
L 188.354588 49.194903 
L 188.837166 49.393793 
L 189.319745 50.149575 
L 189.802323 49.990463 
L 190.284901 49.354016 
L 190.767479 49.513127 
L 191.250058 50.26891 
L 191.732636 49.274459 
L 192.215214 49.314237 
L 192.697793 48.836901 
L 193.180371 49.433571 
L 193.662949 48.677789 
L 194.145528 49.831351 
L 194.628106 48.399343 
L 195.110684 49.354015 
L 195.593262 49.433571 
L 196.075841 47.603782 
L 196.558419 48.757345 
L 197.040997 48.598233 
L 197.523576 48.996013 
L 198.006154 48.120897 
L 198.488732 48.677789 
L 198.97131 48.757345 
L 199.453889 47.961784 
L 199.936467 48.399343 
L 200.419045 47.206002 
L 201.384202 48.359565 
L 201.86678 48.717567 
L 202.349358 47.564004 
L 202.831937 48.638011 
L 203.314515 47.922007 
L 204.279672 47.603782 
L 204.76225 47.723117 
L 205.244828 47.64356 
L 205.727407 48.836901 
L 206.209985 46.927556 
L 206.692563 46.887778 
L 207.175141 47.84245 
L 207.65772 47.603782 
L 208.140298 47.84245 
L 208.622876 46.848 
L 209.105455 47.762894 
L 209.105455 47.762894 
" style="fill:none;stroke:#1f77b4;stroke-linecap:square;stroke-width:1.5;"/>
   </g>
   <g id="patch_3">
    <path d="M 57.6 159.744 
L 57.6 41.472 
" style="fill:none;stroke:#000000;stroke-linecap:square;stroke-linejoin:miter;stroke-width:0.8;"/>
   </g>
   <g id="patch_4">
    <path d="M 216.32 159.744 
L 216.32 41.472 
" style="fill:none;stroke:#000000;stroke-linecap:square;stroke-linejoin:miter;stroke-width:0.8;"/>
   </g>
   <g id="patch_5">
    <path d="M 57.6 159.744 
L 216.32 159.744 
" style="fill:none;stroke:#000000;stroke-linecap:square;stroke-linejoin:miter;stroke-width:0.8;"/>
   </g>
   <g id="patch_6">
    <path d="M 57.6 41.472 
L 216.32 41.472 
" style="fill:none;stroke:#000000;stroke-linecap:square;stroke-linejoin:miter;stroke-width:0.8;"/>
   </g>
   <g id="text_10">
    <!-- acc -->
    <defs>
     <path d="M 34.28125 27.484375 
Q 23.390625 27.484375 19.1875 25 
Q 14.984375 22.515625 14.984375 16.5 
Q 14.984375 11.71875 18.140625 8.90625 
Q 21.296875 6.109375 26.703125 6.109375 
Q 34.1875 6.109375 38.703125 11.40625 
Q 43.21875 16.703125 43.21875 25.484375 
L 43.21875 27.484375 
z
M 52.203125 31.203125 
L 52.203125 0 
L 43.21875 0 
L 43.21875 8.296875 
Q 40.140625 3.328125 35.546875 0.953125 
Q 30.953125 -1.421875 24.3125 -1.421875 
Q 15.921875 -1.421875 10.953125 3.296875 
Q 6 8.015625 6 15.921875 
Q 6 25.140625 12.171875 29.828125 
Q 18.359375 34.515625 30.609375 34.515625 
L 43.21875 34.515625 
L 43.21875 35.40625 
Q 43.21875 41.609375 39.140625 45 
Q 35.0625 48.390625 27.6875 48.390625 
Q 23 48.390625 18.546875 47.265625 
Q 14.109375 46.140625 10.015625 43.890625 
L 10.015625 52.203125 
Q 14.9375 54.109375 19.578125 55.046875 
Q 24.21875 56 28.609375 56 
Q 40.484375 56 46.34375 49.84375 
Q 52.203125 43.703125 52.203125 31.203125 
z
" id="DejaVuSans-61"/>
     <path d="M 48.78125 52.59375 
L 48.78125 44.1875 
Q 44.96875 46.296875 41.140625 47.34375 
Q 37.3125 48.390625 33.40625 48.390625 
Q 24.65625 48.390625 19.8125 42.84375 
Q 14.984375 37.3125 14.984375 27.296875 
Q 14.984375 17.28125 19.8125 11.734375 
Q 24.65625 6.203125 33.40625 6.203125 
Q 37.3125 6.203125 41.140625 7.25 
Q 44.96875 8.296875 48.78125 10.40625 
L 48.78125 2.09375 
Q 45.015625 0.34375 40.984375 -0.53125 
Q 36.96875 -1.421875 32.421875 -1.421875 
Q 20.0625 -1.421875 12.78125 6.34375 
Q 5.515625 14.109375 5.515625 27.296875 
Q 5.515625 40.671875 12.859375 48.328125 
Q 20.21875 56 33.015625 56 
Q 37.15625 56 41.109375 55.140625 
Q 45.0625 54.296875 48.78125 52.59375 
z
" id="DejaVuSans-63"/>
    </defs>
    <g transform="translate(126.685 35.472)scale(0.12 -0.12)">
     <use xlink:href="#DejaVuSans-61"/>
     <use x="61.279297" xlink:href="#DejaVuSans-63"/>
     <use x="116.259766" xlink:href="#DejaVuSans-63"/>
    </g>
   </g>
  </g>
  <g id="axes_2">
   <g id="patch_7">
    <path d="M 256 159.744 
L 414.72 159.744 
L 414.72 41.472 
L 256 41.472 
z
" style="fill:#ffffff;"/>
   </g>
   <g id="matplotlib.axis_3">
    <g id="xtick_5">
     <g id="line2d_20">
      <path clip-path="url(#p12ad0790c7)" d="M 263.214545 159.744 
L 263.214545 41.472 
" style="fill:none;stroke:#b0b0b0;stroke-linecap:square;stroke-width:0.8;"/>
     </g>
     <g id="line2d_21">
      <g>
       <use style="stroke:#000000;stroke-width:0.8;" x="263.214545" xlink:href="#m1ad79f5758" y="159.744"/>
      </g>
     </g>
     <g id="text_11">
      <!-- 0 -->
      <g transform="translate(260.033295 174.342437)scale(0.1 -0.1)">
       <use xlink:href="#DejaVuSans-30"/>
      </g>
     </g>
    </g>
    <g id="xtick_6">
     <g id="line2d_22">
      <path clip-path="url(#p12ad0790c7)" d="M 311.472375 159.744 
L 311.472375 41.472 
" style="fill:none;stroke:#b0b0b0;stroke-linecap:square;stroke-width:0.8;"/>
     </g>
     <g id="line2d_23">
      <g>
       <use style="stroke:#000000;stroke-width:0.8;" x="311.472375" xlink:href="#m1ad79f5758" y="159.744"/>
      </g>
     </g>
     <g id="text_12">
      <!-- 100 -->
      <g transform="translate(301.928625 174.342437)scale(0.1 -0.1)">
       <use xlink:href="#DejaVuSans-31"/>
       <use x="63.623047" xlink:href="#DejaVuSans-30"/>
       <use x="127.246094" xlink:href="#DejaVuSans-30"/>
      </g>
     </g>
    </g>
    <g id="xtick_7">
     <g id="line2d_24">
      <path clip-path="url(#p12ad0790c7)" d="M 359.730204 159.744 
L 359.730204 41.472 
" style="fill:none;stroke:#b0b0b0;stroke-linecap:square;stroke-width:0.8;"/>
     </g>
     <g id="line2d_25">
      <g>
       <use style="stroke:#000000;stroke-width:0.8;" x="359.730204" xlink:href="#m1ad79f5758" y="159.744"/>
      </g>
     </g>
     <g id="text_13">
      <!-- 200 -->
      <g transform="translate(350.186454 174.342437)scale(0.1 -0.1)">
       <use xlink:href="#DejaVuSans-32"/>
       <use x="63.623047" xlink:href="#DejaVuSans-30"/>
       <use x="127.246094" xlink:href="#DejaVuSans-30"/>
      </g>
     </g>
    </g>
    <g id="xtick_8">
     <g id="line2d_26">
      <path clip-path="url(#p12ad0790c7)" d="M 407.988033 159.744 
L 407.988033 41.472 
" style="fill:none;stroke:#b0b0b0;stroke-linecap:square;stroke-width:0.8;"/>
     </g>
     <g id="line2d_27">
      <g>
       <use style="stroke:#000000;stroke-width:0.8;" x="407.988033" xlink:href="#m1ad79f5758" y="159.744"/>
      </g>
     </g>
     <g id="text_14">
      <!-- 300 -->
      <g transform="translate(398.444283 174.342437)scale(0.1 -0.1)">
       <use xlink:href="#DejaVuSans-33"/>
       <use x="63.623047" xlink:href="#DejaVuSans-30"/>
       <use x="127.246094" xlink:href="#DejaVuSans-30"/>
      </g>
     </g>
    </g>
   </g>
   <g id="matplotlib.axis_4">
    <g id="ytick_6">
     <g id="line2d_28">
      <path clip-path="url(#p12ad0790c7)" d="M 256 120.458394 
L 414.72 120.458394 
" style="fill:none;stroke:#b0b0b0;stroke-linecap:square;stroke-width:0.8;"/>
     </g>
     <g id="line2d_29">
      <g>
       <use style="stroke:#000000;stroke-width:0.8;" x="256" xlink:href="#mb655721c4b" y="120.458394"/>
      </g>
     </g>
     <g id="text_15">
      <!-- 2 -->
      <g transform="translate(242.6375 124.257613)scale(0.1 -0.1)">
       <use xlink:href="#DejaVuSans-32"/>
      </g>
     </g>
    </g>
    <g id="ytick_7">
     <g id="line2d_30">
      <path clip-path="url(#p12ad0790c7)" d="M 256 78.795781 
L 414.72 78.795781 
" style="fill:none;stroke:#b0b0b0;stroke-linecap:square;stroke-width:0.8;"/>
     </g>
     <g id="line2d_31">
      <g>
       <use style="stroke:#000000;stroke-width:0.8;" x="256" xlink:href="#mb655721c4b" y="78.795781"/>
      </g>
     </g>
     <g id="text_16">
      <!-- 4 -->
      <g transform="translate(242.6375 82.595)scale(0.1 -0.1)">
       <use xlink:href="#DejaVuSans-34"/>
      </g>
     </g>
    </g>
   </g>
   <g id="line2d_32">
    <path clip-path="url(#p12ad0790c7)" d="M 263.214545 46.848 
L 263.697124 51.691166 
L 264.179702 59.471723 
L 264.66228 65.209501 
L 265.144859 68.997078 
L 266.592593 76.900853 
L 267.55775 81.011715 
L 269.005485 85.98706 
L 270.45322 90.950123 
L 270.935798 92.152588 
L 271.418376 93.972997 
L 272.383533 96.666919 
L 272.866111 98.232927 
L 273.34869 99.244833 
L 274.313846 102.037321 
L 277.209316 109.167511 
L 277.691894 110.037601 
L 278.657051 112.464396 
L 279.622207 114.144719 
L 280.104786 115.301148 
L 280.587364 115.992156 
L 281.552521 118.05572 
L 282.035099 118.623465 
L 283.000255 120.28462 
L 284.44799 122.422458 
L 284.930569 122.910902 
L 285.895725 124.146118 
L 288.791195 127.802124 
L 289.273773 128.073754 
L 289.756351 129.05824 
L 290.23893 128.70918 
L 290.721508 129.605509 
L 291.204086 129.708534 
L 291.686665 130.17974 
L 292.169243 130.832149 
L 292.651821 130.984138 
L 293.1344 131.545172 
L 294.582134 132.266053 
L 295.547291 133.325853 
L 296.512448 133.515256 
L 297.960182 134.794456 
L 298.442761 134.940818 
L 298.925339 134.831742 
L 299.407917 135.086166 
L 299.890496 135.516245 
L 300.373074 136.145524 
L 300.855652 135.842844 
L 301.33823 136.387059 
L 302.303387 136.633357 
L 302.785965 137.042047 
L 304.2337 137.62719 
L 304.716279 137.992061 
L 305.198857 137.832259 
L 305.681435 138.149152 
L 306.164013 138.270967 
L 306.646592 138.646285 
L 307.12917 138.65454 
L 307.611748 138.89592 
L 308.094327 138.921489 
L 308.576905 139.074158 
L 309.059483 139.346138 
L 309.542061 139.407391 
L 311.472375 140.078415 
L 311.954953 140.15434 
L 312.920109 140.630884 
L 313.885266 141.350866 
L 314.367844 141.157888 
L 314.850423 141.127562 
L 315.333001 141.437193 
L 315.815579 141.18955 
L 316.298157 141.537542 
L 318.228471 142.3726 
L 318.711049 142.156924 
L 319.193627 142.571603 
L 319.676206 142.458814 
L 320.641362 142.975479 
L 321.12394 142.93281 
L 321.606519 143.120571 
L 322.089097 143.003001 
L 322.571675 143.442199 
L 323.054254 143.16404 
L 323.536832 143.690149 
L 324.01941 143.385872 
L 324.501988 143.683205 
L 324.984567 143.726941 
L 325.467145 143.915222 
L 325.949723 143.812376 
L 326.432302 144.223791 
L 327.397458 144.337842 
L 328.362615 144.616208 
L 328.845193 144.503435 
L 329.327771 144.961352 
L 329.81035 145.066119 
L 330.292928 144.974209 
L 330.775506 145.141248 
L 331.258085 145.065598 
L 331.740663 145.11165 
L 332.223241 145.457104 
L 333.188398 145.410947 
L 333.670976 145.752842 
L 334.153554 145.936875 
L 334.636133 145.834439 
L 335.118711 145.919733 
L 335.601289 146.388987 
L 336.083867 146.081475 
L 336.566446 146.02584 
L 337.049024 146.49249 
L 337.531602 146.509324 
L 338.014181 146.876677 
L 338.496759 146.85099 
L 338.979337 146.476585 
L 339.461915 146.781905 
L 339.944494 146.646947 
L 340.427072 147.00695 
L 340.90965 146.897018 
L 341.392229 147.327843 
L 341.874807 146.852607 
L 342.357385 147.437856 
L 342.839964 147.26842 
L 343.322542 147.727198 
L 343.80512 147.820656 
L 344.287698 147.533109 
L 344.770277 147.591753 
L 345.252855 148.030874 
L 345.735433 147.776936 
L 346.70059 148.267987 
L 347.183168 148.299585 
L 347.665746 148.068124 
L 348.148325 147.970622 
L 348.630903 148.466078 
L 349.113481 148.193428 
L 349.59606 148.714572 
L 350.561216 148.623369 
L 351.526373 148.823287 
L 352.008951 148.766277 
L 352.491529 148.97745 
L 352.974108 148.934478 
L 353.456686 149.225137 
L 354.421843 149.05897 
L 354.904421 149.390908 
L 355.869577 149.437659 
L 356.834734 149.826536 
L 357.317312 149.648689 
L 357.799891 149.971105 
L 358.282469 149.837221 
L 358.765047 150.21 
L 360.69536 150.098111 
L 361.177939 150.346543 
L 361.660517 150.206442 
L 362.143095 150.407283 
L 362.625673 150.220396 
L 363.108252 150.545387 
L 363.59083 150.421306 
L 364.555987 150.753432 
L 365.521143 150.895042 
L 366.003721 150.647232 
L 366.968878 151.022312 
L 367.451456 150.906076 
L 367.934035 151.146184 
L 368.416613 151.257234 
L 368.899191 151.082687 
L 369.38177 151.393229 
L 369.864348 151.309345 
L 370.346926 151.538509 
L 370.829504 151.462676 
L 372.277239 151.606477 
L 372.759818 151.301175 
L 373.724974 152.019319 
L 374.207552 151.833563 
L 374.690131 151.816153 
L 375.655287 152.298005 
L 376.137866 151.828426 
L 376.620444 151.615125 
L 377.103022 151.77796 
L 377.5856 152.224193 
L 378.068179 152.002387 
L 378.550757 152.197531 
L 379.033335 152.175435 
L 379.515914 152.310459 
L 379.998492 152.063067 
L 380.48107 152.355808 
L 380.963649 152.165431 
L 381.446227 152.555001 
L 381.928805 152.516411 
L 382.411383 152.315928 
L 383.37654 152.471083 
L 383.859118 152.262427 
L 384.341697 152.710204 
L 384.824275 152.865509 
L 385.306853 152.822153 
L 385.789431 152.909564 
L 387.237166 152.780195 
L 388.202323 153.087905 
L 389.167479 152.921392 
L 389.650058 152.85149 
L 390.132636 153.165528 
L 390.615214 153.288237 
L 391.097793 153.292526 
L 391.580371 153.184649 
L 392.062949 153.432493 
L 392.545528 153.082177 
L 393.028106 153.361111 
L 393.993262 153.38127 
L 394.475841 153.56029 
L 394.958419 153.488515 
L 395.440997 153.655972 
L 395.923576 153.428578 
L 396.406154 153.39941 
L 396.888732 153.714141 
L 397.37131 153.386236 
L 397.853889 153.696812 
L 398.336467 153.614174 
L 398.819045 153.930605 
L 399.301624 153.640075 
L 399.784202 153.855008 
L 400.26678 153.462233 
L 400.749358 153.908059 
L 401.231937 153.777239 
L 401.714515 153.869934 
L 402.197093 154.077005 
L 404.127407 153.894364 
L 405.092563 154.169335 
L 405.575141 153.914248 
L 406.05772 153.951241 
L 406.540298 154.226481 
L 407.022876 154.368 
L 407.505455 154.238483 
L 407.505455 154.238483 
" style="fill:none;stroke:#1f77b4;stroke-linecap:square;stroke-width:1.5;"/>
   </g>
   <g id="patch_8">
    <path d="M 256 159.744 
L 256 41.472 
" style="fill:none;stroke:#000000;stroke-linecap:square;stroke-linejoin:miter;stroke-width:0.8;"/>
   </g>
   <g id="patch_9">
    <path d="M 414.72 159.744 
L 414.72 41.472 
" style="fill:none;stroke:#000000;stroke-linecap:square;stroke-linejoin:miter;stroke-width:0.8;"/>
   </g>
   <g id="patch_10">
    <path d="M 256 159.744 
L 414.72 159.744 
" style="fill:none;stroke:#000000;stroke-linecap:square;stroke-linejoin:miter;stroke-width:0.8;"/>
   </g>
   <g id="patch_11">
    <path d="M 256 41.472 
L 414.72 41.472 
" style="fill:none;stroke:#000000;stroke-linecap:square;stroke-linejoin:miter;stroke-width:0.8;"/>
   </g>
   <g id="text_17">
    <!-- loss -->
    <defs>
     <path d="M 9.421875 75.984375 
L 18.40625 75.984375 
L 18.40625 0 
L 9.421875 0 
z
" id="DejaVuSans-6c"/>
     <path d="M 30.609375 48.390625 
Q 23.390625 48.390625 19.1875 42.75 
Q 14.984375 37.109375 14.984375 27.296875 
Q 14.984375 17.484375 19.15625 11.84375 
Q 23.34375 6.203125 30.609375 6.203125 
Q 37.796875 6.203125 41.984375 11.859375 
Q 46.1875 17.53125 46.1875 27.296875 
Q 46.1875 37.015625 41.984375 42.703125 
Q 37.796875 48.390625 30.609375 48.390625 
z
M 30.609375 56 
Q 42.328125 56 49.015625 48.375 
Q 55.71875 40.765625 55.71875 27.296875 
Q 55.71875 13.875 49.015625 6.21875 
Q 42.328125 -1.421875 30.609375 -1.421875 
Q 18.84375 -1.421875 12.171875 6.21875 
Q 5.515625 13.875 5.515625 27.296875 
Q 5.515625 40.765625 12.171875 48.375 
Q 18.84375 56 30.609375 56 
z
" id="DejaVuSans-6f"/>
     <path d="M 44.28125 53.078125 
L 44.28125 44.578125 
Q 40.484375 46.53125 36.375 47.5 
Q 32.28125 48.484375 27.875 48.484375 
Q 21.1875 48.484375 17.84375 46.4375 
Q 14.5 44.390625 14.5 40.28125 
Q 14.5 37.15625 16.890625 35.375 
Q 19.28125 33.59375 26.515625 31.984375 
L 29.59375 31.296875 
Q 39.15625 29.25 43.1875 25.515625 
Q 47.21875 21.78125 47.21875 15.09375 
Q 47.21875 7.46875 41.1875 3.015625 
Q 35.15625 -1.421875 24.609375 -1.421875 
Q 20.21875 -1.421875 15.453125 -0.5625 
Q 10.6875 0.296875 5.421875 2 
L 5.421875 11.28125 
Q 10.40625 8.6875 15.234375 7.390625 
Q 20.0625 6.109375 24.8125 6.109375 
Q 31.15625 6.109375 34.5625 8.28125 
Q 37.984375 10.453125 37.984375 14.40625 
Q 37.984375 18.0625 35.515625 20.015625 
Q 33.0625 21.96875 24.703125 23.78125 
L 21.578125 24.515625 
Q 13.234375 26.265625 9.515625 29.90625 
Q 5.8125 33.546875 5.8125 39.890625 
Q 5.8125 47.609375 11.28125 51.796875 
Q 16.75 56 26.8125 56 
Q 31.78125 56 36.171875 55.265625 
Q 40.578125 54.546875 44.28125 53.078125 
z
" id="DejaVuSans-73"/>
    </defs>
    <g transform="translate(323.770625 35.472)scale(0.12 -0.12)">
     <use xlink:href="#DejaVuSans-6c"/>
     <use x="27.783203" xlink:href="#DejaVuSans-6f"/>
     <use x="88.964844" xlink:href="#DejaVuSans-73"/>
     <use x="141.064453" xlink:href="#DejaVuSans-73"/>
    </g>
   </g>
  </g>
  <g id="axes_3">
   <g id="patch_12">
    <path d="M 57.6 307.584 
L 216.32 307.584 
L 216.32 189.312 
L 57.6 189.312 
z
" style="fill:#ffffff;"/>
   </g>
   <g id="matplotlib.axis_5">
    <g id="xtick_9">
     <g id="line2d_33">
      <path clip-path="url(#p22ba0d4849)" d="M 64.814545 307.584 
L 64.814545 189.312 
" style="fill:none;stroke:#b0b0b0;stroke-linecap:square;stroke-width:0.8;"/>
     </g>
     <g id="line2d_34">
      <g>
       <use style="stroke:#000000;stroke-width:0.8;" x="64.814545" xlink:href="#m1ad79f5758" y="307.584"/>
      </g>
     </g>
     <g id="text_18">
      <!-- 0 -->
      <g transform="translate(61.633295 322.182437)scale(0.1 -0.1)">
       <use xlink:href="#DejaVuSans-30"/>
      </g>
     </g>
    </g>
    <g id="xtick_10">
     <g id="line2d_35">
      <path clip-path="url(#p22ba0d4849)" d="M 113.072375 307.584 
L 113.072375 189.312 
" style="fill:none;stroke:#b0b0b0;stroke-linecap:square;stroke-width:0.8;"/>
     </g>
     <g id="line2d_36">
      <g>
       <use style="stroke:#000000;stroke-width:0.8;" x="113.072375" xlink:href="#m1ad79f5758" y="307.584"/>
      </g>
     </g>
     <g id="text_19">
      <!-- 100 -->
      <g transform="translate(103.528625 322.182437)scale(0.1 -0.1)">
       <use xlink:href="#DejaVuSans-31"/>
       <use x="63.623047" xlink:href="#DejaVuSans-30"/>
       <use x="127.246094" xlink:href="#DejaVuSans-30"/>
      </g>
     </g>
    </g>
    <g id="xtick_11">
     <g id="line2d_37">
      <path clip-path="url(#p22ba0d4849)" d="M 161.330204 307.584 
L 161.330204 189.312 
" style="fill:none;stroke:#b0b0b0;stroke-linecap:square;stroke-width:0.8;"/>
     </g>
     <g id="line2d_38">
      <g>
       <use style="stroke:#000000;stroke-width:0.8;" x="161.330204" xlink:href="#m1ad79f5758" y="307.584"/>
      </g>
     </g>
     <g id="text_20">
      <!-- 200 -->
      <g transform="translate(151.786454 322.182437)scale(0.1 -0.1)">
       <use xlink:href="#DejaVuSans-32"/>
       <use x="63.623047" xlink:href="#DejaVuSans-30"/>
       <use x="127.246094" xlink:href="#DejaVuSans-30"/>
      </g>
     </g>
    </g>
    <g id="xtick_12">
     <g id="line2d_39">
      <path clip-path="url(#p22ba0d4849)" d="M 209.588033 307.584 
L 209.588033 189.312 
" style="fill:none;stroke:#b0b0b0;stroke-linecap:square;stroke-width:0.8;"/>
     </g>
     <g id="line2d_40">
      <g>
       <use style="stroke:#000000;stroke-width:0.8;" x="209.588033" xlink:href="#m1ad79f5758" y="307.584"/>
      </g>
     </g>
     <g id="text_21">
      <!-- 300 -->
      <g transform="translate(200.044283 322.182437)scale(0.1 -0.1)">
       <use xlink:href="#DejaVuSans-33"/>
       <use x="63.623047" xlink:href="#DejaVuSans-30"/>
       <use x="127.246094" xlink:href="#DejaVuSans-30"/>
      </g>
     </g>
    </g>
   </g>
   <g id="matplotlib.axis_6">
    <g id="ytick_8">
     <g id="line2d_41">
      <path clip-path="url(#p22ba0d4849)" d="M 57.6 304.21772 
L 216.32 304.21772 
" style="fill:none;stroke:#b0b0b0;stroke-linecap:square;stroke-width:0.8;"/>
     </g>
     <g id="line2d_42">
      <g>
       <use style="stroke:#000000;stroke-width:0.8;" x="57.6" xlink:href="#mb655721c4b" y="304.21772"/>
      </g>
     </g>
     <g id="text_22">
      <!-- 0.0 -->
      <g transform="translate(34.696875 308.016938)scale(0.1 -0.1)">
       <use xlink:href="#DejaVuSans-30"/>
       <use x="63.623047" xlink:href="#DejaVuSans-2e"/>
       <use x="95.410156" xlink:href="#DejaVuSans-30"/>
      </g>
     </g>
    </g>
    <g id="ytick_9">
     <g id="line2d_43">
      <path clip-path="url(#p22ba0d4849)" d="M 57.6 278.493309 
L 216.32 278.493309 
" style="fill:none;stroke:#b0b0b0;stroke-linecap:square;stroke-width:0.8;"/>
     </g>
     <g id="line2d_44">
      <g>
       <use style="stroke:#000000;stroke-width:0.8;" x="57.6" xlink:href="#mb655721c4b" y="278.493309"/>
      </g>
     </g>
     <g id="text_23">
      <!-- 0.2 -->
      <g transform="translate(34.696875 282.292527)scale(0.1 -0.1)">
       <use xlink:href="#DejaVuSans-30"/>
       <use x="63.623047" xlink:href="#DejaVuSans-2e"/>
       <use x="95.410156" xlink:href="#DejaVuSans-32"/>
      </g>
     </g>
    </g>
    <g id="ytick_10">
     <g id="line2d_45">
      <path clip-path="url(#p22ba0d4849)" d="M 57.6 252.768898 
L 216.32 252.768898 
" style="fill:none;stroke:#b0b0b0;stroke-linecap:square;stroke-width:0.8;"/>
     </g>
     <g id="line2d_46">
      <g>
       <use style="stroke:#000000;stroke-width:0.8;" x="57.6" xlink:href="#mb655721c4b" y="252.768898"/>
      </g>
     </g>
     <g id="text_24">
      <!-- 0.4 -->
      <g transform="translate(34.696875 256.568116)scale(0.1 -0.1)">
       <use xlink:href="#DejaVuSans-30"/>
       <use x="63.623047" xlink:href="#DejaVuSans-2e"/>
       <use x="95.410156" xlink:href="#DejaVuSans-34"/>
      </g>
     </g>
    </g>
    <g id="ytick_11">
     <g id="line2d_47">
      <path clip-path="url(#p22ba0d4849)" d="M 57.6 227.044487 
L 216.32 227.044487 
" style="fill:none;stroke:#b0b0b0;stroke-linecap:square;stroke-width:0.8;"/>
     </g>
     <g id="line2d_48">
      <g>
       <use style="stroke:#000000;stroke-width:0.8;" x="57.6" xlink:href="#mb655721c4b" y="227.044487"/>
      </g>
     </g>
     <g id="text_25">
      <!-- 0.6 -->
      <g transform="translate(34.696875 230.843705)scale(0.1 -0.1)">
       <use xlink:href="#DejaVuSans-30"/>
       <use x="63.623047" xlink:href="#DejaVuSans-2e"/>
       <use x="95.410156" xlink:href="#DejaVuSans-36"/>
      </g>
     </g>
    </g>
    <g id="ytick_12">
     <g id="line2d_49">
      <path clip-path="url(#p22ba0d4849)" d="M 57.6 201.320076 
L 216.32 201.320076 
" style="fill:none;stroke:#b0b0b0;stroke-linecap:square;stroke-width:0.8;"/>
     </g>
     <g id="line2d_50">
      <g>
       <use style="stroke:#000000;stroke-width:0.8;" x="57.6" xlink:href="#mb655721c4b" y="201.320076"/>
      </g>
     </g>
     <g id="text_26">
      <!-- 0.8 -->
      <g transform="translate(34.696875 205.119294)scale(0.1 -0.1)">
       <use xlink:href="#DejaVuSans-30"/>
       <use x="63.623047" xlink:href="#DejaVuSans-2e"/>
       <use x="95.410156" xlink:href="#DejaVuSans-38"/>
      </g>
     </g>
    </g>
   </g>
   <g id="line2d_51">
    <path clip-path="url(#p22ba0d4849)" d="M 64.814545 302.208 
L 65.297124 301.70557 
L 65.779702 302.208 
L 66.26228 300.70071 
L 66.744859 298.690991 
L 67.227437 295.173981 
L 67.710015 296.178841 
L 68.192593 294.671551 
L 68.675172 294.169121 
L 69.15775 290.149682 
L 69.640328 290.652112 
L 70.122907 289.647252 
L 70.605485 286.130243 
L 71.088063 289.647252 
L 71.570642 288.139963 
L 72.05322 283.618093 
L 72.535798 285.125383 
L 73.018376 285.627813 
L 73.500955 283.618093 
L 73.983533 283.618093 
L 74.466111 285.125383 
L 74.94869 277.086504 
L 75.431268 273.067065 
L 75.913846 274.574354 
L 76.396424 272.564635 
L 76.879003 275.076785 
L 77.361581 270.554915 
L 77.844159 268.042766 
L 78.326738 268.545196 
L 78.809316 270.052486 
L 79.291894 264.525756 
L 79.774472 265.530616 
L 80.257051 267.037906 
L 80.739629 267.037906 
L 81.222207 258.999027 
L 81.704786 262.013607 
L 82.187364 258.496598 
L 82.669942 256.989308 
L 83.152521 258.999028 
L 83.635099 258.999027 
L 84.117677 254.979588 
L 84.600255 257.994167 
L 85.082834 256.486878 
L 85.565412 253.974728 
L 86.04799 245.433419 
L 86.530569 247.44314 
L 87.013147 252.969868 
L 87.495725 249.452859 
L 87.978303 246.94071 
L 88.460882 241.916411 
L 88.94346 247.44314 
L 89.426038 247.94557 
L 89.908617 246.438281 
L 90.391195 242.418841 
L 90.873773 245.93585 
L 91.356351 252.467439 
L 91.83893 241.91641 
L 92.321508 245.935851 
L 92.804086 245.43342 
L 93.286665 246.43828 
L 93.769243 240.409121 
L 94.251821 240.911552 
L 94.7344 237.89697 
L 95.216978 240.409122 
L 95.699556 233.877532 
L 96.182134 236.389681 
L 96.664713 240.409121 
L 97.147291 239.404261 
L 97.629869 241.413982 
L 98.112448 236.892111 
L 98.595026 239.404262 
L 99.077604 236.389683 
L 99.560182 228.350803 
L 100.042761 236.389681 
L 100.525339 234.882393 
L 101.007917 234.882391 
L 101.490496 235.384822 
L 101.973074 231.867813 
L 102.455652 233.877533 
L 102.93823 229.858092 
L 103.420809 229.355663 
L 103.903387 233.877532 
L 104.385965 231.365383 
L 104.868544 231.867814 
L 105.351122 232.872672 
L 105.8337 224.833793 
L 106.316279 228.853234 
L 106.798857 228.350803 
L 107.281435 226.341083 
L 107.764013 230.360523 
L 108.246592 224.833793 
L 108.72917 233.375103 
L 109.211748 228.853233 
L 109.694327 226.843514 
L 110.176905 227.848373 
L 110.659483 228.350802 
L 111.142061 224.833794 
L 112.107218 228.853232 
L 112.589796 226.843513 
L 113.072375 234.882392 
L 113.554953 226.843513 
L 114.037531 226.341083 
L 115.002688 228.350802 
L 116.450423 220.814355 
L 116.933001 227.848374 
L 117.415579 225.336223 
L 117.898157 226.341084 
L 119.345892 219.307065 
L 119.828471 218.804636 
L 120.311049 220.311925 
L 120.793627 224.331363 
L 121.276206 218.302205 
L 121.758784 221.316785 
L 122.241362 219.809495 
L 122.72394 224.331364 
L 123.206519 226.341084 
L 123.689097 221.819215 
L 124.171675 220.311925 
L 124.654254 214.785196 
L 125.136832 219.809495 
L 125.61941 220.311924 
L 126.584567 218.302205 
L 127.549723 220.311924 
L 128.51488 219.307066 
L 128.997458 221.316784 
L 129.480036 217.297345 
L 129.962615 218.804634 
L 130.445193 220.814354 
L 130.927771 220.311924 
L 131.41035 216.292487 
L 131.892928 219.307062 
L 132.375506 215.790054 
L 132.858085 213.277906 
L 133.340663 217.799775 
L 133.823241 213.277906 
L 134.305819 214.785196 
L 134.788398 215.287625 
L 135.270976 219.809494 
L 135.753554 214.282766 
L 136.236133 218.302205 
L 136.718711 216.794915 
L 137.201289 216.794917 
L 137.683867 211.268186 
L 138.166446 220.311925 
L 138.649024 225.336225 
L 139.131602 213.277908 
L 139.614181 220.311924 
L 140.096759 215.790056 
L 140.579337 216.794915 
L 141.061915 213.277907 
L 141.544494 213.277908 
L 142.027072 211.770616 
L 142.50965 216.794917 
L 142.992229 216.292485 
L 143.474807 211.268186 
L 143.957385 210.765756 
L 144.439964 209.258468 
L 144.922542 209.760898 
L 145.40512 218.302206 
L 145.887698 213.780335 
L 146.370277 214.785195 
L 146.852855 204.736597 
L 147.335433 216.794913 
L 147.818012 221.316783 
L 148.30059 206.746317 
L 148.783168 212.273045 
L 149.265746 212.775476 
L 149.748325 208.756037 
L 150.230903 208.253607 
L 150.713481 211.770614 
L 151.19606 207.248746 
L 151.678638 206.243888 
L 152.161216 215.287626 
L 152.643794 212.273046 
L 153.126373 215.287626 
L 154.091529 208.253607 
L 154.574108 213.277906 
L 155.056686 209.760897 
L 155.539264 211.268187 
L 156.021843 207.248748 
L 156.504421 209.760897 
L 156.986999 221.316784 
L 157.469577 209.258467 
L 157.952156 217.799776 
L 158.434734 212.273046 
L 158.917312 203.731738 
L 159.882469 212.775476 
L 160.365047 215.287625 
L 160.847625 206.746317 
L 161.812782 206.746317 
L 162.29536 207.751178 
L 162.777939 209.258465 
L 163.260517 207.248748 
L 163.743095 208.253606 
L 164.225673 206.746318 
L 164.708252 208.756036 
L 165.673408 202.224448 
L 166.155987 206.243886 
L 166.638565 204.736599 
L 167.121143 206.243888 
L 167.603721 206.746317 
L 168.0863 209.258466 
L 168.568878 206.243888 
L 169.051456 205.239027 
L 169.534035 207.248746 
L 170.016613 207.751175 
L 170.499191 209.258468 
L 170.98177 209.258466 
L 171.464348 201.722018 
L 171.946926 207.751176 
L 172.429504 201.722018 
L 172.912083 204.234167 
L 173.394661 201.722018 
L 173.877239 209.258467 
L 174.359818 206.243887 
L 174.842396 205.741457 
L 175.324974 206.243888 
L 175.807552 208.756035 
L 176.290131 202.224447 
L 176.772709 198.205009 
L 177.255287 204.736599 
L 177.737866 202.726878 
L 178.220444 201.21959 
L 178.703022 202.726878 
L 179.1856 203.731737 
L 179.668179 202.224448 
L 180.633335 206.746317 
L 181.115914 211.770616 
L 181.598492 207.248747 
L 182.08107 206.746317 
L 182.563649 202.726879 
L 183.046227 212.775477 
L 183.528805 202.224449 
L 184.011383 205.239028 
L 184.493962 204.736598 
L 184.97654 210.263327 
L 185.459118 207.248749 
L 185.941697 205.239027 
L 186.424275 199.712299 
L 186.906853 207.751177 
L 187.389431 204.234168 
L 187.87201 207.751177 
L 188.354588 205.239027 
L 188.837166 204.736597 
L 189.319745 208.253607 
L 189.802323 202.224448 
L 190.284901 202.224448 
L 190.767479 197.70258 
L 191.250058 206.746317 
L 191.732636 198.707438 
L 192.215214 197.702579 
L 192.697793 204.234166 
L 193.180371 199.712299 
L 193.662949 198.707438 
L 194.145528 202.224448 
L 194.628106 204.736599 
L 195.110684 204.736597 
L 195.593262 200.21473 
L 196.075841 198.70744 
L 196.558419 203.731739 
L 197.040997 200.21473 
L 197.523576 203.731739 
L 198.006154 201.722018 
L 198.488732 209.760894 
L 198.97131 194.688 
L 199.453889 204.234168 
L 199.936467 199.209868 
L 200.419045 208.253606 
L 200.901624 198.707439 
L 201.384202 204.736598 
L 201.86678 198.70744 
L 202.349358 200.717158 
L 202.831937 200.717158 
L 203.314515 196.697721 
L 203.797093 200.21473 
L 204.279672 202.726878 
L 204.76225 200.717159 
L 205.244828 204.234168 
L 205.727407 204.736598 
L 206.209985 202.726878 
L 206.692563 200.214729 
L 207.175141 199.20987 
L 207.65772 201.722019 
L 208.140298 199.712299 
L 208.622876 202.224449 
L 209.105455 199.209868 
L 209.105455 199.209868 
" style="fill:none;stroke:#1f77b4;stroke-linecap:square;stroke-width:1.5;"/>
   </g>
   <g id="patch_13">
    <path d="M 57.6 307.584 
L 57.6 189.312 
" style="fill:none;stroke:#000000;stroke-linecap:square;stroke-linejoin:miter;stroke-width:0.8;"/>
   </g>
   <g id="patch_14">
    <path d="M 216.32 307.584 
L 216.32 189.312 
" style="fill:none;stroke:#000000;stroke-linecap:square;stroke-linejoin:miter;stroke-width:0.8;"/>
   </g>
   <g id="patch_15">
    <path d="M 57.6 307.584 
L 216.32 307.584 
" style="fill:none;stroke:#000000;stroke-linecap:square;stroke-linejoin:miter;stroke-width:0.8;"/>
   </g>
   <g id="patch_16">
    <path d="M 57.6 189.312 
L 216.32 189.312 
" style="fill:none;stroke:#000000;stroke-linecap:square;stroke-linejoin:miter;stroke-width:0.8;"/>
   </g>
   <g id="text_27">
    <!-- val_acc -->
    <defs>
     <path d="M 2.984375 54.6875 
L 12.5 54.6875 
L 29.59375 8.796875 
L 46.6875 54.6875 
L 56.203125 54.6875 
L 35.6875 0 
L 23.484375 0 
z
" id="DejaVuSans-76"/>
     <path d="M 50.984375 -16.609375 
L 50.984375 -23.578125 
L -0.984375 -23.578125 
L -0.984375 -16.609375 
z
" id="DejaVuSans-5f"/>
    </defs>
    <g transform="translate(114.79 183.312)scale(0.12 -0.12)">
     <use xlink:href="#DejaVuSans-76"/>
     <use x="59.179688" xlink:href="#DejaVuSans-61"/>
     <use x="120.458984" xlink:href="#DejaVuSans-6c"/>
     <use x="148.242188" xlink:href="#DejaVuSans-5f"/>
     <use x="198.242188" xlink:href="#DejaVuSans-61"/>
     <use x="259.521484" xlink:href="#DejaVuSans-63"/>
     <use x="314.501953" xlink:href="#DejaVuSans-63"/>
    </g>
   </g>
  </g>
  <g id="axes_4">
   <g id="patch_17">
    <path d="M 256 307.584 
L 414.72 307.584 
L 414.72 189.312 
L 256 189.312 
z
" style="fill:#ffffff;"/>
   </g>
   <g id="matplotlib.axis_7">
    <g id="xtick_13">
     <g id="line2d_52">
      <path clip-path="url(#p5fb6695c6b)" d="M 263.214545 307.584 
L 263.214545 189.312 
" style="fill:none;stroke:#b0b0b0;stroke-linecap:square;stroke-width:0.8;"/>
     </g>
     <g id="line2d_53">
      <g>
       <use style="stroke:#000000;stroke-width:0.8;" x="263.214545" xlink:href="#m1ad79f5758" y="307.584"/>
      </g>
     </g>
     <g id="text_28">
      <!-- 0 -->
      <g transform="translate(260.033295 322.182437)scale(0.1 -0.1)">
       <use xlink:href="#DejaVuSans-30"/>
      </g>
     </g>
    </g>
    <g id="xtick_14">
     <g id="line2d_54">
      <path clip-path="url(#p5fb6695c6b)" d="M 311.472375 307.584 
L 311.472375 189.312 
" style="fill:none;stroke:#b0b0b0;stroke-linecap:square;stroke-width:0.8;"/>
     </g>
     <g id="line2d_55">
      <g>
       <use style="stroke:#000000;stroke-width:0.8;" x="311.472375" xlink:href="#m1ad79f5758" y="307.584"/>
      </g>
     </g>
     <g id="text_29">
      <!-- 100 -->
      <g transform="translate(301.928625 322.182437)scale(0.1 -0.1)">
       <use xlink:href="#DejaVuSans-31"/>
       <use x="63.623047" xlink:href="#DejaVuSans-30"/>
       <use x="127.246094" xlink:href="#DejaVuSans-30"/>
      </g>
     </g>
    </g>
    <g id="xtick_15">
     <g id="line2d_56">
      <path clip-path="url(#p5fb6695c6b)" d="M 359.730204 307.584 
L 359.730204 189.312 
" style="fill:none;stroke:#b0b0b0;stroke-linecap:square;stroke-width:0.8;"/>
     </g>
     <g id="line2d_57">
      <g>
       <use style="stroke:#000000;stroke-width:0.8;" x="359.730204" xlink:href="#m1ad79f5758" y="307.584"/>
      </g>
     </g>
     <g id="text_30">
      <!-- 200 -->
      <g transform="translate(350.186454 322.182437)scale(0.1 -0.1)">
       <use xlink:href="#DejaVuSans-32"/>
       <use x="63.623047" xlink:href="#DejaVuSans-30"/>
       <use x="127.246094" xlink:href="#DejaVuSans-30"/>
      </g>
     </g>
    </g>
    <g id="xtick_16">
     <g id="line2d_58">
      <path clip-path="url(#p5fb6695c6b)" d="M 407.988033 307.584 
L 407.988033 189.312 
" style="fill:none;stroke:#b0b0b0;stroke-linecap:square;stroke-width:0.8;"/>
     </g>
     <g id="line2d_59">
      <g>
       <use style="stroke:#000000;stroke-width:0.8;" x="407.988033" xlink:href="#m1ad79f5758" y="307.584"/>
      </g>
     </g>
     <g id="text_31">
      <!-- 300 -->
      <g transform="translate(398.444283 322.182437)scale(0.1 -0.1)">
       <use xlink:href="#DejaVuSans-33"/>
       <use x="63.623047" xlink:href="#DejaVuSans-30"/>
       <use x="127.246094" xlink:href="#DejaVuSans-30"/>
      </g>
     </g>
    </g>
   </g>
   <g id="matplotlib.axis_8">
    <g id="ytick_13">
     <g id="line2d_60">
      <path clip-path="url(#p5fb6695c6b)" d="M 256 271.695828 
L 414.72 271.695828 
" style="fill:none;stroke:#b0b0b0;stroke-linecap:square;stroke-width:0.8;"/>
     </g>
     <g id="line2d_61">
      <g>
       <use style="stroke:#000000;stroke-width:0.8;" x="256" xlink:href="#mb655721c4b" y="271.695828"/>
      </g>
     </g>
     <g id="text_32">
      <!-- 2 -->
      <g transform="translate(242.6375 275.495047)scale(0.1 -0.1)">
       <use xlink:href="#DejaVuSans-32"/>
      </g>
     </g>
    </g>
    <g id="ytick_14">
     <g id="line2d_62">
      <path clip-path="url(#p5fb6695c6b)" d="M 256 227.409349 
L 414.72 227.409349 
" style="fill:none;stroke:#b0b0b0;stroke-linecap:square;stroke-width:0.8;"/>
     </g>
     <g id="line2d_63">
      <g>
       <use style="stroke:#000000;stroke-width:0.8;" x="256" xlink:href="#mb655721c4b" y="227.409349"/>
      </g>
     </g>
     <g id="text_33">
      <!-- 4 -->
      <g transform="translate(242.6375 231.208568)scale(0.1 -0.1)">
       <use xlink:href="#DejaVuSans-34"/>
      </g>
     </g>
    </g>
   </g>
   <g id="line2d_64">
    <path clip-path="url(#p5fb6695c6b)" d="M 263.214545 194.688 
L 264.179702 209.1077 
L 264.66228 213.864447 
L 266.110015 222.753852 
L 267.55775 228.671028 
L 269.005485 233.732542 
L 270.45322 237.615622 
L 270.935798 239.616095 
L 271.418376 240.453007 
L 271.900955 241.623702 
L 272.383533 243.524897 
L 272.866111 243.336054 
L 273.34869 246.332745 
L 273.831268 247.133446 
L 274.313846 248.322259 
L 274.796424 249.993233 
L 275.279003 251.066361 
L 275.761581 251.435714 
L 276.244159 253.004175 
L 276.726738 253.821793 
L 277.691894 256.447368 
L 278.174472 256.502696 
L 278.657051 257.587423 
L 279.139629 258.088743 
L 279.622207 259.754933 
L 281.069942 262.438434 
L 281.552521 262.523643 
L 282.035099 263.788905 
L 282.517677 264.154115 
L 283.000255 265.430953 
L 283.482834 265.263642 
L 283.965412 267.034027 
L 284.44799 268.299489 
L 284.930569 268.0796 
L 285.413147 267.438046 
L 285.895725 268.440834 
L 286.860882 271.257915 
L 287.34346 270.626333 
L 287.826038 270.40847 
L 288.308617 271.58176 
L 289.273773 272.282928 
L 289.756351 271.997251 
L 290.23893 274.311364 
L 290.721508 273.167544 
L 291.204086 274.269103 
L 291.686665 273.268198 
L 293.1344 276.545807 
L 293.616978 276.490977 
L 294.582134 277.174776 
L 295.064713 276.42453 
L 295.547291 277.645249 
L 296.029869 277.784099 
L 296.512448 278.593687 
L 296.995026 276.806109 
L 297.477604 279.603332 
L 297.960182 280.096025 
L 298.442761 278.89365 
L 298.925339 280.043082 
L 299.890496 280.59747 
L 300.373074 281.383829 
L 300.855652 280.493664 
L 301.33823 281.420365 
L 301.820809 281.663739 
L 302.303387 281.409581 
L 302.785965 282.517717 
L 303.268544 281.577208 
L 303.751122 281.530647 
L 304.2337 283.056517 
L 304.716279 283.603683 
L 305.198857 282.042206 
L 305.681435 283.401923 
L 306.164013 283.599403 
L 306.646592 284.03795 
L 307.12917 282.458466 
L 307.611748 283.391494 
L 308.094327 283.804699 
L 308.576905 284.0472 
L 309.059483 284.58076 
L 309.542061 284.861617 
L 310.507218 283.837666 
L 310.989796 284.39279 
L 311.472375 284.305228 
L 311.954953 283.19141 
L 312.437531 285.799098 
L 312.920109 286.179738 
L 313.402688 286.794334 
L 313.885266 285.319097 
L 314.367844 286.686567 
L 314.850423 287.28464 
L 315.333001 283.071131 
L 315.815579 287.985698 
L 316.298157 285.282724 
L 316.780736 284.861868 
L 317.263314 287.508928 
L 317.745892 288.597531 
L 318.228471 287.689656 
L 318.711049 287.554561 
L 319.193627 287.707156 
L 319.676206 288.057029 
L 320.158784 286.981416 
L 320.641362 288.369057 
L 321.12394 287.67107 
L 321.606519 287.689443 
L 322.089097 288.377376 
L 322.571675 288.855335 
L 323.054254 289.626024 
L 323.536832 288.963293 
L 324.01941 289.386822 
L 324.501988 289.4628 
L 324.984567 290.39537 
L 325.949723 289.481722 
L 326.432302 289.429279 
L 326.91488 290.221165 
L 327.397458 288.88565 
L 327.880036 289.302454 
L 328.362615 290.093323 
L 328.845193 289.813827 
L 329.327771 290.039131 
L 329.81035 291.068103 
L 330.292928 290.656579 
L 330.775506 291.896527 
L 331.740663 291.510334 
L 332.223241 292.243282 
L 332.705819 291.868284 
L 333.188398 292.702059 
L 333.670976 287.870262 
L 334.153554 292.589947 
L 334.636133 290.863196 
L 335.118711 291.792213 
L 335.601289 291.296025 
L 336.083867 292.46759 
L 336.566446 291.097955 
L 337.049024 288.499807 
L 337.531602 291.95071 
L 338.014181 289.107179 
L 338.496759 292.372916 
L 338.979337 291.767102 
L 339.461915 292.799337 
L 339.944494 292.718833 
L 341.392229 293.199398 
L 341.874807 293.553357 
L 342.357385 293.525871 
L 342.839964 293.920246 
L 343.322542 293.655571 
L 343.80512 291.860694 
L 344.287698 293.336418 
L 344.770277 294.194679 
L 345.252855 295.347692 
L 345.735433 294.52201 
L 346.218012 290.797382 
L 346.70059 294.5415 
L 347.183168 293.285995 
L 347.665746 293.147201 
L 348.630903 295.432627 
L 349.113481 293.338725 
L 349.59606 295.410241 
L 350.078638 294.765689 
L 350.561216 293.065058 
L 351.043794 294.293789 
L 351.526373 291.216837 
L 352.008951 295.747335 
L 352.491529 294.923238 
L 352.974108 293.772817 
L 353.456686 295.883101 
L 353.939264 295.505977 
L 354.421843 296.687893 
L 354.904421 295.198022 
L 355.386999 290.567445 
L 355.869577 294.95347 
L 356.352156 290.396867 
L 356.834734 292.670786 
L 357.317312 297.20344 
L 357.799891 296.787622 
L 358.282469 295.25776 
L 358.765047 291.892721 
L 359.247625 295.842887 
L 359.730204 297.625912 
L 360.212782 296.152699 
L 360.69536 296.870001 
L 361.177939 295.914671 
L 361.660517 296.686173 
L 362.143095 295.702378 
L 362.625673 297.655395 
L 363.108252 295.478125 
L 363.59083 296.343031 
L 364.073408 298.298013 
L 364.555987 297.557277 
L 365.038565 296.422028 
L 365.521143 297.478644 
L 366.003721 297.569497 
L 366.4863 296.603348 
L 367.451456 298.934529 
L 367.934035 296.17578 
L 368.416613 298.14499 
L 368.899191 295.806533 
L 369.38177 297.547367 
L 369.864348 298.542674 
L 370.346926 295.744909 
L 370.829504 298.170271 
L 371.312083 298.585979 
L 371.794661 299.641739 
L 372.277239 295.887104 
L 372.759818 299.160799 
L 373.242396 297.192551 
L 373.724974 296.06863 
L 374.207552 296.574192 
L 374.690131 299.655458 
L 375.172709 300.197817 
L 375.655287 296.987548 
L 376.137866 300.15974 
L 376.620444 298.804851 
L 377.103022 298.856873 
L 377.5856 298.048004 
L 378.550757 299.269526 
L 379.515914 296.162281 
L 379.998492 295.939725 
L 380.48107 296.580399 
L 380.963649 298.090406 
L 381.446227 294.813143 
L 381.928805 299.893105 
L 382.411383 298.938049 
L 382.893962 299.858811 
L 383.37654 295.824556 
L 384.341697 299.840851 
L 384.824275 299.050534 
L 385.306853 297.494628 
L 385.789431 297.799306 
L 386.27201 297.943926 
L 386.754588 299.338359 
L 387.237166 299.296015 
L 387.719745 296.996624 
L 388.684901 300.912026 
L 389.167479 301.445136 
L 389.650058 298.751637 
L 390.132636 300.959336 
L 390.615214 301.159552 
L 391.097793 300.143758 
L 391.580371 301.012391 
L 392.062949 301.30687 
L 392.545528 298.552807 
L 393.028106 298.29129 
L 393.510684 299.244973 
L 393.993262 300.782695 
L 394.475841 300.880081 
L 394.958419 298.789617 
L 395.440997 301.363524 
L 395.923576 298.147743 
L 396.406154 299.31209 
L 396.888732 297.919187 
L 397.37131 302.153883 
L 397.853889 298.705192 
L 398.336467 302.150676 
L 398.819045 299.831903 
L 399.301624 301.580716 
L 399.784202 298.243344 
L 400.26678 301.32922 
L 400.749358 301.251931 
L 401.231937 300.655176 
L 401.714515 302.208 
L 402.197093 299.990788 
L 402.679672 300.878288 
L 403.16225 300.427803 
L 403.644828 299.125551 
L 404.127407 299.137718 
L 404.609985 300.225469 
L 405.092563 301.685235 
L 405.575141 300.643096 
L 406.05772 301.088241 
L 406.540298 302.072557 
L 407.022876 300.599231 
L 407.505455 301.675527 
L 407.505455 301.675527 
" style="fill:none;stroke:#1f77b4;stroke-linecap:square;stroke-width:1.5;"/>
   </g>
   <g id="patch_18">
    <path d="M 256 307.584 
L 256 189.312 
" style="fill:none;stroke:#000000;stroke-linecap:square;stroke-linejoin:miter;stroke-width:0.8;"/>
   </g>
   <g id="patch_19">
    <path d="M 414.72 307.584 
L 414.72 189.312 
" style="fill:none;stroke:#000000;stroke-linecap:square;stroke-linejoin:miter;stroke-width:0.8;"/>
   </g>
   <g id="patch_20">
    <path d="M 256 307.584 
L 414.72 307.584 
" style="fill:none;stroke:#000000;stroke-linecap:square;stroke-linejoin:miter;stroke-width:0.8;"/>
   </g>
   <g id="patch_21">
    <path d="M 256 189.312 
L 414.72 189.312 
" style="fill:none;stroke:#000000;stroke-linecap:square;stroke-linejoin:miter;stroke-width:0.8;"/>
   </g>
   <g id="text_34">
    <!-- val_loss -->
    <g transform="translate(311.875625 183.312)scale(0.12 -0.12)">
     <use xlink:href="#DejaVuSans-76"/>
     <use x="59.179688" xlink:href="#DejaVuSans-61"/>
     <use x="120.458984" xlink:href="#DejaVuSans-6c"/>
     <use x="148.242188" xlink:href="#DejaVuSans-5f"/>
     <use x="198.242188" xlink:href="#DejaVuSans-6c"/>
     <use x="226.025391" xlink:href="#DejaVuSans-6f"/>
     <use x="287.207031" xlink:href="#DejaVuSans-73"/>
     <use x="339.306641" xlink:href="#DejaVuSans-73"/>
    </g>
   </g>
  </g>
  <g id="text_35">
   <!-- benchmark 20171023_053951 -->
   <defs>
    <path d="M 48.6875 27.296875 
Q 48.6875 37.203125 44.609375 42.84375 
Q 40.53125 48.484375 33.40625 48.484375 
Q 26.265625 48.484375 22.1875 42.84375 
Q 18.109375 37.203125 18.109375 27.296875 
Q 18.109375 17.390625 22.1875 11.75 
Q 26.265625 6.109375 33.40625 6.109375 
Q 40.53125 6.109375 44.609375 11.75 
Q 48.6875 17.390625 48.6875 27.296875 
z
M 18.109375 46.390625 
Q 20.953125 51.265625 25.265625 53.625 
Q 29.59375 56 35.59375 56 
Q 45.5625 56 51.78125 48.09375 
Q 58.015625 40.1875 58.015625 27.296875 
Q 58.015625 14.40625 51.78125 6.484375 
Q 45.5625 -1.421875 35.59375 -1.421875 
Q 29.59375 -1.421875 25.265625 0.953125 
Q 20.953125 3.328125 18.109375 8.203125 
L 18.109375 0 
L 9.078125 0 
L 9.078125 75.984375 
L 18.109375 75.984375 
z
" id="DejaVuSans-62"/>
    <path d="M 56.203125 29.59375 
L 56.203125 25.203125 
L 14.890625 25.203125 
Q 15.484375 15.921875 20.484375 11.0625 
Q 25.484375 6.203125 34.421875 6.203125 
Q 39.59375 6.203125 44.453125 7.46875 
Q 49.3125 8.734375 54.109375 11.28125 
L 54.109375 2.78125 
Q 49.265625 0.734375 44.1875 -0.34375 
Q 39.109375 -1.421875 33.890625 -1.421875 
Q 20.796875 -1.421875 13.15625 6.1875 
Q 5.515625 13.8125 5.515625 26.8125 
Q 5.515625 40.234375 12.765625 48.109375 
Q 20.015625 56 32.328125 56 
Q 43.359375 56 49.78125 48.890625 
Q 56.203125 41.796875 56.203125 29.59375 
z
M 47.21875 32.234375 
Q 47.125 39.59375 43.09375 43.984375 
Q 39.0625 48.390625 32.421875 48.390625 
Q 24.90625 48.390625 20.390625 44.140625 
Q 15.875 39.890625 15.1875 32.171875 
z
" id="DejaVuSans-65"/>
    <path d="M 54.890625 33.015625 
L 54.890625 0 
L 45.90625 0 
L 45.90625 32.71875 
Q 45.90625 40.484375 42.875 44.328125 
Q 39.84375 48.1875 33.796875 48.1875 
Q 26.515625 48.1875 22.3125 43.546875 
Q 18.109375 38.921875 18.109375 30.90625 
L 18.109375 0 
L 9.078125 0 
L 9.078125 54.6875 
L 18.109375 54.6875 
L 18.109375 46.1875 
Q 21.34375 51.125 25.703125 53.5625 
Q 30.078125 56 35.796875 56 
Q 45.21875 56 50.046875 50.171875 
Q 54.890625 44.34375 54.890625 33.015625 
z
" id="DejaVuSans-6e"/>
    <path d="M 54.890625 33.015625 
L 54.890625 0 
L 45.90625 0 
L 45.90625 32.71875 
Q 45.90625 40.484375 42.875 44.328125 
Q 39.84375 48.1875 33.796875 48.1875 
Q 26.515625 48.1875 22.3125 43.546875 
Q 18.109375 38.921875 18.109375 30.90625 
L 18.109375 0 
L 9.078125 0 
L 9.078125 75.984375 
L 18.109375 75.984375 
L 18.109375 46.1875 
Q 21.34375 51.125 25.703125 53.5625 
Q 30.078125 56 35.796875 56 
Q 45.21875 56 50.046875 50.171875 
Q 54.890625 44.34375 54.890625 33.015625 
z
" id="DejaVuSans-68"/>
    <path d="M 52 44.1875 
Q 55.375 50.25 60.0625 53.125 
Q 64.75 56 71.09375 56 
Q 79.640625 56 84.28125 50.015625 
Q 88.921875 44.046875 88.921875 33.015625 
L 88.921875 0 
L 79.890625 0 
L 79.890625 32.71875 
Q 79.890625 40.578125 77.09375 44.375 
Q 74.3125 48.1875 68.609375 48.1875 
Q 61.625 48.1875 57.5625 43.546875 
Q 53.515625 38.921875 53.515625 30.90625 
L 53.515625 0 
L 44.484375 0 
L 44.484375 32.71875 
Q 44.484375 40.625 41.703125 44.40625 
Q 38.921875 48.1875 33.109375 48.1875 
Q 26.21875 48.1875 22.15625 43.53125 
Q 18.109375 38.875 18.109375 30.90625 
L 18.109375 0 
L 9.078125 0 
L 9.078125 54.6875 
L 18.109375 54.6875 
L 18.109375 46.1875 
Q 21.1875 51.21875 25.484375 53.609375 
Q 29.78125 56 35.6875 56 
Q 41.65625 56 45.828125 52.96875 
Q 50 49.953125 52 44.1875 
z
" id="DejaVuSans-6d"/>
    <path d="M 41.109375 46.296875 
Q 39.59375 47.171875 37.8125 47.578125 
Q 36.03125 48 33.890625 48 
Q 26.265625 48 22.1875 43.046875 
Q 18.109375 38.09375 18.109375 28.8125 
L 18.109375 0 
L 9.078125 0 
L 9.078125 54.6875 
L 18.109375 54.6875 
L 18.109375 46.1875 
Q 20.953125 51.171875 25.484375 53.578125 
Q 30.03125 56 36.53125 56 
Q 37.453125 56 38.578125 55.875 
Q 39.703125 55.765625 41.0625 55.515625 
z
" id="DejaVuSans-72"/>
    <path d="M 9.078125 75.984375 
L 18.109375 75.984375 
L 18.109375 31.109375 
L 44.921875 54.6875 
L 56.390625 54.6875 
L 27.390625 29.109375 
L 57.625 0 
L 45.90625 0 
L 18.109375 26.703125 
L 18.109375 0 
L 9.078125 0 
z
" id="DejaVuSans-6b"/>
    <path id="DejaVuSans-20"/>
    <path d="M 8.203125 72.90625 
L 55.078125 72.90625 
L 55.078125 68.703125 
L 28.609375 0 
L 18.3125 0 
L 43.21875 64.59375 
L 8.203125 64.59375 
z
" id="DejaVuSans-37"/>
    <path d="M 10.796875 72.90625 
L 49.515625 72.90625 
L 49.515625 64.59375 
L 19.828125 64.59375 
L 19.828125 46.734375 
Q 21.96875 47.46875 24.109375 47.828125 
Q 26.265625 48.1875 28.421875 48.1875 
Q 40.625 48.1875 47.75 41.5 
Q 54.890625 34.8125 54.890625 23.390625 
Q 54.890625 11.625 47.5625 5.09375 
Q 40.234375 -1.421875 26.90625 -1.421875 
Q 22.3125 -1.421875 17.546875 -0.640625 
Q 12.796875 0.140625 7.71875 1.703125 
L 7.71875 11.625 
Q 12.109375 9.234375 16.796875 8.0625 
Q 21.484375 6.890625 26.703125 6.890625 
Q 35.15625 6.890625 40.078125 11.328125 
Q 45.015625 15.765625 45.015625 23.390625 
Q 45.015625 31 40.078125 35.4375 
Q 35.15625 39.890625 26.703125 39.890625 
Q 22.75 39.890625 18.8125 39.015625 
Q 14.890625 38.140625 10.796875 36.28125 
z
" id="DejaVuSans-35"/>
    <path d="M 10.984375 1.515625 
L 10.984375 10.5 
Q 14.703125 8.734375 18.5 7.8125 
Q 22.3125 6.890625 25.984375 6.890625 
Q 35.75 6.890625 40.890625 13.453125 
Q 46.046875 20.015625 46.78125 33.40625 
Q 43.953125 29.203125 39.59375 26.953125 
Q 35.25 24.703125 29.984375 24.703125 
Q 19.046875 24.703125 12.671875 31.3125 
Q 6.296875 37.9375 6.296875 49.421875 
Q 6.296875 60.640625 12.9375 67.421875 
Q 19.578125 74.21875 30.609375 74.21875 
Q 43.265625 74.21875 49.921875 64.515625 
Q 56.59375 54.828125 56.59375 36.375 
Q 56.59375 19.140625 48.40625 8.859375 
Q 40.234375 -1.421875 26.421875 -1.421875 
Q 22.703125 -1.421875 18.890625 -0.6875 
Q 15.09375 0.046875 10.984375 1.515625 
z
M 30.609375 32.421875 
Q 37.25 32.421875 41.125 36.953125 
Q 45.015625 41.5 45.015625 49.421875 
Q 45.015625 57.28125 41.125 61.84375 
Q 37.25 66.40625 30.609375 66.40625 
Q 23.96875 66.40625 20.09375 61.84375 
Q 16.21875 57.28125 16.21875 49.421875 
Q 16.21875 41.5 20.09375 36.953125 
Q 23.96875 32.421875 30.609375 32.421875 
z
" id="DejaVuSans-39"/>
   </defs>
   <g transform="translate(138.180938 16.030125)scale(0.12 -0.12)">
    <use xlink:href="#DejaVuSans-62"/>
    <use x="63.476562" xlink:href="#DejaVuSans-65"/>
    <use x="125" xlink:href="#DejaVuSans-6e"/>
    <use x="188.378906" xlink:href="#DejaVuSans-63"/>
    <use x="243.359375" xlink:href="#DejaVuSans-68"/>
    <use x="306.738281" xlink:href="#DejaVuSans-6d"/>
    <use x="404.150391" xlink:href="#DejaVuSans-61"/>
    <use x="465.429688" xlink:href="#DejaVuSans-72"/>
    <use x="506.542969" xlink:href="#DejaVuSans-6b"/>
    <use x="564.453125" xlink:href="#DejaVuSans-20"/>
    <use x="596.240234" xlink:href="#DejaVuSans-32"/>
    <use x="659.863281" xlink:href="#DejaVuSans-30"/>
    <use x="723.486328" xlink:href="#DejaVuSans-31"/>
    <use x="787.109375" xlink:href="#DejaVuSans-37"/>
    <use x="850.732422" xlink:href="#DejaVuSans-31"/>
    <use x="914.355469" xlink:href="#DejaVuSans-30"/>
    <use x="977.978516" xlink:href="#DejaVuSans-32"/>
    <use x="1041.601562" xlink:href="#DejaVuSans-33"/>
    <use x="1105.224609" xlink:href="#DejaVuSans-5f"/>
    <use x="1155.224609" xlink:href="#DejaVuSans-30"/>
    <use x="1218.847656" xlink:href="#DejaVuSans-35"/>
    <use x="1282.470703" xlink:href="#DejaVuSans-33"/>
    <use x="1346.09375" xlink:href="#DejaVuSans-39"/>
    <use x="1409.716797" xlink:href="#DejaVuSans-35"/>
    <use x="1473.339844" xlink:href="#DejaVuSans-31"/>
   </g>
  </g>
 </g>
 <defs>
  <clipPath id="pbea73af1b2">
   <rect height="118.272" width="158.72" x="57.6" y="41.472"/>
  </clipPath>
  <clipPath id="p12ad0790c7">
   <rect height="118.272" width="158.72" x="256" y="41.472"/>
  </clipPath>
  <clipPath id="p22ba0d4849">
   <rect height="118.272" width="158.72" x="57.6" y="189.312"/>
  </clipPath>
  <clipPath id="p5fb6695c6b">
   <rect height="118.272" width="158.72" x="256" y="189.312"/>
  </clipPath>
 </defs>
</svg>
