<?xml version="1.0" encoding="utf-8" standalone="no"?>
<!DOCTYPE svg PUBLIC "-//W3C//DTD SVG 1.1//EN"
  "http://www.w3.org/Graphics/SVG/1.1/DTD/svg11.dtd">
<!-- Created with matplotlib (http://matplotlib.org/) -->
<svg height="345pt" version="1.1" viewBox="0 0 460 345" width="460pt" xmlns="http://www.w3.org/2000/svg" xmlns:xlink="http://www.w3.org/1999/xlink">
 <defs>
  <style type="text/css">
*{stroke-linecap:butt;stroke-linejoin:round;}
  </style>
 </defs>
 <g id="figure_1">
  <g id="patch_1">
   <path d="M 0 345.6 
L 460.8 345.6 
L 460.8 0 
L 0 0 
z
" style="fill:#ffffff;"/>
  </g>
  <g id="axes_1">
   <g id="patch_2">
    <path d="M 57.6 159.744 
L 216.32 159.744 
L 216.32 41.472 
L 57.6 41.472 
z
" style="fill:#ffffff;"/>
   </g>
   <g id="matplotlib.axis_1">
    <g id="xtick_1">
     <g id="line2d_1">
      <path clip-path="url(#pa9e9260e9a)" d="M 64.814545 159.744 
L 64.814545 41.472 
" style="fill:none;stroke:#b0b0b0;stroke-linecap:square;stroke-width:0.8;"/>
     </g>
     <g id="line2d_2">
      <defs>
       <path d="M 0 0 
L 0 3.5 
" id="m49da6e8bef" style="stroke:#000000;stroke-width:0.8;"/>
      </defs>
      <g>
       <use style="stroke:#000000;stroke-width:0.8;" x="64.814545" xlink:href="#m49da6e8bef" y="159.744"/>
      </g>
     </g>
     <g id="text_1">
      <!-- 0 -->
      <defs>
       <path d="M 31.78125 66.40625 
Q 24.171875 66.40625 20.328125 58.90625 
Q 16.5 51.421875 16.5 36.375 
Q 16.5 21.390625 20.328125 13.890625 
Q 24.171875 6.390625 31.78125 6.390625 
Q 39.453125 6.390625 43.28125 13.890625 
Q 47.125 21.390625 47.125 36.375 
Q 47.125 51.421875 43.28125 58.90625 
Q 39.453125 66.40625 31.78125 66.40625 
z
M 31.78125 74.21875 
Q 44.046875 74.21875 50.515625 64.515625 
Q 56.984375 54.828125 56.984375 36.375 
Q 56.984375 17.96875 50.515625 8.265625 
Q 44.046875 -1.421875 31.78125 -1.421875 
Q 19.53125 -1.421875 13.0625 8.265625 
Q 6.59375 17.96875 6.59375 36.375 
Q 6.59375 54.828125 13.0625 64.515625 
Q 19.53125 74.21875 31.78125 74.21875 
z
" id="DejaVuSans-30"/>
      </defs>
      <g transform="translate(61.633295 174.342437)scale(0.1 -0.1)">
       <use xlink:href="#DejaVuSans-30"/>
      </g>
     </g>
    </g>
    <g id="xtick_2">
     <g id="line2d_3">
      <path clip-path="url(#pa9e9260e9a)" d="M 113.072375 159.744 
L 113.072375 41.472 
" style="fill:none;stroke:#b0b0b0;stroke-linecap:square;stroke-width:0.8;"/>
     </g>
     <g id="line2d_4">
      <g>
       <use style="stroke:#000000;stroke-width:0.8;" x="113.072375" xlink:href="#m49da6e8bef" y="159.744"/>
      </g>
     </g>
     <g id="text_2">
      <!-- 100 -->
      <defs>
       <path d="M 12.40625 8.296875 
L 28.515625 8.296875 
L 28.515625 63.921875 
L 10.984375 60.40625 
L 10.984375 69.390625 
L 28.421875 72.90625 
L 38.28125 72.90625 
L 38.28125 8.296875 
L 54.390625 8.296875 
L 54.390625 0 
L 12.40625 0 
z
" id="DejaVuSans-31"/>
      </defs>
      <g transform="translate(103.528625 174.342437)scale(0.1 -0.1)">
       <use xlink:href="#DejaVuSans-31"/>
       <use x="63.623047" xlink:href="#DejaVuSans-30"/>
       <use x="127.246094" xlink:href="#DejaVuSans-30"/>
      </g>
     </g>
    </g>
    <g id="xtick_3">
     <g id="line2d_5">
      <path clip-path="url(#pa9e9260e9a)" d="M 161.330204 159.744 
L 161.330204 41.472 
" style="fill:none;stroke:#b0b0b0;stroke-linecap:square;stroke-width:0.8;"/>
     </g>
     <g id="line2d_6">
      <g>
       <use style="stroke:#000000;stroke-width:0.8;" x="161.330204" xlink:href="#m49da6e8bef" y="159.744"/>
      </g>
     </g>
     <g id="text_3">
      <!-- 200 -->
      <defs>
       <path d="M 19.1875 8.296875 
L 53.609375 8.296875 
L 53.609375 0 
L 7.328125 0 
L 7.328125 8.296875 
Q 12.9375 14.109375 22.625 23.890625 
Q 32.328125 33.6875 34.8125 36.53125 
Q 39.546875 41.84375 41.421875 45.53125 
Q 43.3125 49.21875 43.3125 52.78125 
Q 43.3125 58.59375 39.234375 62.25 
Q 35.15625 65.921875 28.609375 65.921875 
Q 23.96875 65.921875 18.8125 64.3125 
Q 13.671875 62.703125 7.8125 59.421875 
L 7.8125 69.390625 
Q 13.765625 71.78125 18.9375 73 
Q 24.125 74.21875 28.421875 74.21875 
Q 39.75 74.21875 46.484375 68.546875 
Q 53.21875 62.890625 53.21875 53.421875 
Q 53.21875 48.921875 51.53125 44.890625 
Q 49.859375 40.875 45.40625 35.40625 
Q 44.1875 33.984375 37.640625 27.21875 
Q 31.109375 20.453125 19.1875 8.296875 
z
" id="DejaVuSans-32"/>
      </defs>
      <g transform="translate(151.786454 174.342437)scale(0.1 -0.1)">
       <use xlink:href="#DejaVuSans-32"/>
       <use x="63.623047" xlink:href="#DejaVuSans-30"/>
       <use x="127.246094" xlink:href="#DejaVuSans-30"/>
      </g>
     </g>
    </g>
    <g id="xtick_4">
     <g id="line2d_7">
      <path clip-path="url(#pa9e9260e9a)" d="M 209.588033 159.744 
L 209.588033 41.472 
" style="fill:none;stroke:#b0b0b0;stroke-linecap:square;stroke-width:0.8;"/>
     </g>
     <g id="line2d_8">
      <g>
       <use style="stroke:#000000;stroke-width:0.8;" x="209.588033" xlink:href="#m49da6e8bef" y="159.744"/>
      </g>
     </g>
     <g id="text_4">
      <!-- 300 -->
      <defs>
       <path d="M 40.578125 39.3125 
Q 47.65625 37.796875 51.625 33 
Q 55.609375 28.21875 55.609375 21.1875 
Q 55.609375 10.40625 48.1875 4.484375 
Q 40.765625 -1.421875 27.09375 -1.421875 
Q 22.515625 -1.421875 17.65625 -0.515625 
Q 12.796875 0.390625 7.625 2.203125 
L 7.625 11.71875 
Q 11.71875 9.328125 16.59375 8.109375 
Q 21.484375 6.890625 26.8125 6.890625 
Q 36.078125 6.890625 40.9375 10.546875 
Q 45.796875 14.203125 45.796875 21.1875 
Q 45.796875 27.640625 41.28125 31.265625 
Q 36.765625 34.90625 28.71875 34.90625 
L 20.21875 34.90625 
L 20.21875 43.015625 
L 29.109375 43.015625 
Q 36.375 43.015625 40.234375 45.921875 
Q 44.09375 48.828125 44.09375 54.296875 
Q 44.09375 59.90625 40.109375 62.90625 
Q 36.140625 65.921875 28.71875 65.921875 
Q 24.65625 65.921875 20.015625 65.03125 
Q 15.375 64.15625 9.8125 62.3125 
L 9.8125 71.09375 
Q 15.4375 72.65625 20.34375 73.4375 
Q 25.25 74.21875 29.59375 74.21875 
Q 40.828125 74.21875 47.359375 69.109375 
Q 53.90625 64.015625 53.90625 55.328125 
Q 53.90625 49.265625 50.4375 45.09375 
Q 46.96875 40.921875 40.578125 39.3125 
z
" id="DejaVuSans-33"/>
      </defs>
      <g transform="translate(200.044283 174.342437)scale(0.1 -0.1)">
       <use xlink:href="#DejaVuSans-33"/>
       <use x="63.623047" xlink:href="#DejaVuSans-30"/>
       <use x="127.246094" xlink:href="#DejaVuSans-30"/>
      </g>
     </g>
    </g>
   </g>
   <g id="matplotlib.axis_2">
    <g id="ytick_1">
     <g id="line2d_9">
      <path clip-path="url(#pa9e9260e9a)" d="M 57.6 154.64965 
L 216.32 154.64965 
" style="fill:none;stroke:#b0b0b0;stroke-linecap:square;stroke-width:0.8;"/>
     </g>
     <g id="line2d_10">
      <defs>
       <path d="M 0 0 
L -3.5 0 
" id="maa3e08ab07" style="stroke:#000000;stroke-width:0.8;"/>
      </defs>
      <g>
       <use style="stroke:#000000;stroke-width:0.8;" x="57.6" xlink:href="#maa3e08ab07" y="154.64965"/>
      </g>
     </g>
     <g id="text_5">
      <!-- 0.00 -->
      <defs>
       <path d="M 10.6875 12.40625 
L 21 12.40625 
L 21 0 
L 10.6875 0 
z
" id="DejaVuSans-2e"/>
      </defs>
      <g transform="translate(28.334375 158.448869)scale(0.1 -0.1)">
       <use xlink:href="#DejaVuSans-30"/>
       <use x="63.623047" xlink:href="#DejaVuSans-2e"/>
       <use x="95.410156" xlink:href="#DejaVuSans-30"/>
       <use x="159.033203" xlink:href="#DejaVuSans-30"/>
      </g>
     </g>
    </g>
    <g id="ytick_2">
     <g id="line2d_11">
      <path clip-path="url(#pa9e9260e9a)" d="M 57.6 127.611222 
L 216.32 127.611222 
" style="fill:none;stroke:#b0b0b0;stroke-linecap:square;stroke-width:0.8;"/>
     </g>
     <g id="line2d_12">
      <g>
       <use style="stroke:#000000;stroke-width:0.8;" x="57.6" xlink:href="#maa3e08ab07" y="127.611222"/>
      </g>
     </g>
     <g id="text_6">
      <!-- 0.25 -->
      <defs>
       <path d="M 10.796875 72.90625 
L 49.515625 72.90625 
L 49.515625 64.59375 
L 19.828125 64.59375 
L 19.828125 46.734375 
Q 21.96875 47.46875 24.109375 47.828125 
Q 26.265625 48.1875 28.421875 48.1875 
Q 40.625 48.1875 47.75 41.5 
Q 54.890625 34.8125 54.890625 23.390625 
Q 54.890625 11.625 47.5625 5.09375 
Q 40.234375 -1.421875 26.90625 -1.421875 
Q 22.3125 -1.421875 17.546875 -0.640625 
Q 12.796875 0.140625 7.71875 1.703125 
L 7.71875 11.625 
Q 12.109375 9.234375 16.796875 8.0625 
Q 21.484375 6.890625 26.703125 6.890625 
Q 35.15625 6.890625 40.078125 11.328125 
Q 45.015625 15.765625 45.015625 23.390625 
Q 45.015625 31 40.078125 35.4375 
Q 35.15625 39.890625 26.703125 39.890625 
Q 22.75 39.890625 18.8125 39.015625 
Q 14.890625 38.140625 10.796875 36.28125 
z
" id="DejaVuSans-35"/>
      </defs>
      <g transform="translate(28.334375 131.410441)scale(0.1 -0.1)">
       <use xlink:href="#DejaVuSans-30"/>
       <use x="63.623047" xlink:href="#DejaVuSans-2e"/>
       <use x="95.410156" xlink:href="#DejaVuSans-32"/>
       <use x="159.033203" xlink:href="#DejaVuSans-35"/>
      </g>
     </g>
    </g>
    <g id="ytick_3">
     <g id="line2d_13">
      <path clip-path="url(#pa9e9260e9a)" d="M 57.6 100.572794 
L 216.32 100.572794 
" style="fill:none;stroke:#b0b0b0;stroke-linecap:square;stroke-width:0.8;"/>
     </g>
     <g id="line2d_14">
      <g>
       <use style="stroke:#000000;stroke-width:0.8;" x="57.6" xlink:href="#maa3e08ab07" y="100.572794"/>
      </g>
     </g>
     <g id="text_7">
      <!-- 0.50 -->
      <g transform="translate(28.334375 104.372012)scale(0.1 -0.1)">
       <use xlink:href="#DejaVuSans-30"/>
       <use x="63.623047" xlink:href="#DejaVuSans-2e"/>
       <use x="95.410156" xlink:href="#DejaVuSans-35"/>
       <use x="159.033203" xlink:href="#DejaVuSans-30"/>
      </g>
     </g>
    </g>
    <g id="ytick_4">
     <g id="line2d_15">
      <path clip-path="url(#pa9e9260e9a)" d="M 57.6 73.534365 
L 216.32 73.534365 
" style="fill:none;stroke:#b0b0b0;stroke-linecap:square;stroke-width:0.8;"/>
     </g>
     <g id="line2d_16">
      <g>
       <use style="stroke:#000000;stroke-width:0.8;" x="57.6" xlink:href="#maa3e08ab07" y="73.534365"/>
      </g>
     </g>
     <g id="text_8">
      <!-- 0.75 -->
      <defs>
       <path d="M 8.203125 72.90625 
L 55.078125 72.90625 
L 55.078125 68.703125 
L 28.609375 0 
L 18.3125 0 
L 43.21875 64.59375 
L 8.203125 64.59375 
z
" id="DejaVuSans-37"/>
      </defs>
      <g transform="translate(28.334375 77.333584)scale(0.1 -0.1)">
       <use xlink:href="#DejaVuSans-30"/>
       <use x="63.623047" xlink:href="#DejaVuSans-2e"/>
       <use x="95.410156" xlink:href="#DejaVuSans-37"/>
       <use x="159.033203" xlink:href="#DejaVuSans-35"/>
      </g>
     </g>
    </g>
    <g id="ytick_5">
     <g id="line2d_17">
      <path clip-path="url(#pa9e9260e9a)" d="M 57.6 46.495937 
L 216.32 46.495937 
" style="fill:none;stroke:#b0b0b0;stroke-linecap:square;stroke-width:0.8;"/>
     </g>
     <g id="line2d_18">
      <g>
       <use style="stroke:#000000;stroke-width:0.8;" x="57.6" xlink:href="#maa3e08ab07" y="46.495937"/>
      </g>
     </g>
     <g id="text_9">
      <!-- 1.00 -->
      <g transform="translate(28.334375 50.295156)scale(0.1 -0.1)">
       <use xlink:href="#DejaVuSans-31"/>
       <use x="63.623047" xlink:href="#DejaVuSans-2e"/>
       <use x="95.410156" xlink:href="#DejaVuSans-30"/>
       <use x="159.033203" xlink:href="#DejaVuSans-30"/>
      </g>
     </g>
    </g>
   </g>
   <g id="line2d_19">
    <path clip-path="url(#pa9e9260e9a)" d="M 64.814545 154.368 
L 65.779702 152.572479 
L 66.26228 150.072833 
L 68.192593 131.589532 
L 68.675172 125.2524 
L 69.15775 120.640376 
L 69.640328 117.507017 
L 70.122907 112.366899 
L 70.605485 110.008078 
L 71.570642 101.45295 
L 72.535798 97.122577 
L 73.018376 93.777979 
L 74.466111 86.736722 
L 74.94869 82.899236 
L 75.431268 83.251299 
L 75.913846 79.519433 
L 76.396424 79.16737 
L 77.844159 74.203284 
L 78.326738 71.879668 
L 78.809316 72.302144 
L 79.291894 69.732085 
L 80.257051 68.535072 
L 80.739629 66.669139 
L 81.222207 66.070632 
L 81.704786 66.035425 
L 82.187364 64.768 
L 82.669942 64.451143 
L 83.152521 63.394954 
L 83.635099 62.902067 
L 84.600255 61.493815 
L 85.082834 60.860102 
L 85.565412 59.170201 
L 86.04799 58.853344 
L 87.013147 59.311026 
L 87.495725 58.32525 
L 88.460882 56.987411 
L 89.426038 56.388904 
L 89.908617 56.424111 
L 90.873773 55.121478 
L 91.356351 55.086272 
L 91.83893 55.227097 
L 92.804086 53.713226 
L 93.286665 54.34694 
L 93.769243 52.797863 
L 94.251821 53.325958 
L 94.7344 53.220339 
L 95.216978 52.83307 
L 95.699556 52.762657 
L 96.182134 52.199356 
L 96.664713 52.128944 
L 97.629869 52.234563 
L 98.112448 52.269769 
L 98.595026 51.988119 
L 99.077604 51.389611 
L 99.560182 51.178374 
L 100.042761 51.319199 
L 100.525339 51.107961 
L 101.007917 51.283993 
L 101.490496 51.002342 
L 101.973074 50.579867 
L 102.93823 50.333423 
L 103.420809 50.227804 
L 104.385965 50.26301 
L 104.868544 49.734916 
L 105.351122 50.086979 
L 105.8337 49.875741 
L 106.316279 49.98136 
L 107.281435 49.629297 
L 107.764013 50.122185 
L 108.246592 49.734916 
L 108.72917 50.298217 
L 109.211748 49.98136 
L 109.694327 49.03079 
L 110.176905 49.382853 
L 110.659483 49.136409 
L 111.142061 49.875741 
L 111.62464 48.784346 
L 112.107218 49.31244 
L 112.589796 48.784346 
L 113.554953 48.678727 
L 114.037531 49.171615 
L 114.520109 48.221046 
L 115.002688 49.101203 
L 115.967844 48.573108 
L 117.898157 48.784346 
L 118.380736 48.643521 
L 119.345892 48.608315 
L 119.828471 48.326664 
L 120.311049 48.854759 
L 120.793627 48.643521 
L 121.276206 48.185839 
L 121.758784 48.467489 
L 122.241362 48.08022 
L 122.72394 48.432283 
L 123.206519 48.221045 
L 123.689097 48.537902 
L 124.654254 48.08022 
L 125.136832 48.432283 
L 125.61941 48.150633 
L 126.101988 48.397077 
L 127.067145 48.08022 
L 127.549723 48.045014 
L 128.032302 48.326664 
L 128.51488 48.150633 
L 129.480036 48.221045 
L 129.962615 47.728157 
L 130.445193 48.326664 
L 130.927771 47.868982 
L 131.41035 48.221045 
L 131.892928 47.657745 
L 132.375506 47.904189 
L 132.858085 47.868982 
L 133.823241 48.08022 
L 134.305819 47.974601 
L 134.788398 48.009808 
L 137.201289 47.552126 
L 137.683867 47.904189 
L 138.166446 47.446507 
L 138.649024 48.115426 
L 139.131602 47.376094 
L 139.614181 47.622538 
L 140.096759 47.657745 
L 140.579337 47.904189 
L 141.061915 47.692951 
L 141.544494 47.622538 
L 142.027072 47.340888 
L 142.50965 47.657745 
L 142.992229 47.657745 
L 143.474807 47.868982 
L 143.957385 47.587332 
L 144.439964 47.51692 
L 144.922542 47.763364 
L 145.887698 47.657745 
L 146.852855 47.79857 
L 147.335433 47.904189 
L 148.30059 47.446507 
L 150.230903 47.481713 
L 150.713481 47.763364 
L 151.678638 47.270476 
L 152.161216 47.692951 
L 153.126373 47.481713 
L 153.608951 47.657745 
L 154.091529 47.235269 
L 154.574108 47.51692 
L 156.021843 47.446507 
L 156.504421 47.552126 
L 157.469577 47.235269 
L 157.952156 47.587332 
L 158.434734 47.446507 
L 159.399891 47.411301 
L 159.882469 47.235269 
L 160.365047 47.235269 
L 160.847625 47.657745 
L 161.330204 47.235269 
L 161.812782 47.305682 
L 162.29536 47.552126 
L 162.777939 47.622538 
L 163.743095 47.305682 
L 164.708252 47.657745 
L 165.19083 47.376094 
L 165.673408 47.446507 
L 166.638565 47.411301 
L 167.121143 47.094444 
L 167.603721 47.692951 
L 168.0863 47.340888 
L 168.568878 47.446507 
L 169.534035 47.376094 
L 170.499191 47.270476 
L 170.98177 47.552126 
L 171.464348 47.164857 
L 171.946926 47.552126 
L 172.429504 47.024031 
L 172.912083 47.200063 
L 173.394661 47.235269 
L 173.877239 46.848 
L 174.842396 47.305682 
L 175.324974 47.094444 
L 175.807552 47.552126 
L 176.290131 47.79857 
L 176.772709 47.340888 
L 177.255287 47.12965 
L 177.737866 47.340888 
L 178.220444 47.059238 
L 178.703022 47.059238 
L 179.1856 47.481713 
L 179.668179 47.200063 
L 180.150757 47.446507 
L 180.633335 47.305682 
L 181.115914 47.446507 
L 181.598492 47.411301 
L 182.08107 47.059238 
L 182.563649 47.446507 
L 183.528805 47.411301 
L 184.011383 47.200063 
L 184.493962 47.481713 
L 184.97654 47.12965 
L 186.424275 47.12965 
L 186.906853 46.988825 
L 187.389431 47.587332 
L 187.87201 47.446507 
L 188.354588 47.024031 
L 188.837166 47.305682 
L 191.732636 47.376094 
L 192.215214 47.12965 
L 193.180371 47.376094 
L 193.662949 47.200063 
L 194.145528 47.481713 
L 195.110684 47.024031 
L 195.593262 47.059238 
L 196.075841 47.411301 
L 196.558419 46.988825 
L 197.040997 46.953619 
L 197.523576 47.164857 
L 198.006154 47.024031 
L 198.97131 47.411301 
L 200.419045 47.12965 
L 200.901624 47.200063 
L 201.384202 47.446507 
L 201.86678 46.848 
L 202.349358 47.059238 
L 203.314515 47.024031 
L 203.797093 47.200063 
L 204.279672 46.848 
L 204.76225 47.305682 
L 205.244828 47.235269 
L 205.727407 47.340888 
L 207.175141 47.12965 
L 207.65772 47.376094 
L 208.622876 46.953619 
L 209.105455 47.270476 
L 209.105455 47.270476 
" style="fill:none;stroke:#1f77b4;stroke-linecap:square;stroke-width:1.5;"/>
   </g>
   <g id="patch_3">
    <path d="M 57.6 159.744 
L 57.6 41.472 
" style="fill:none;stroke:#000000;stroke-linecap:square;stroke-linejoin:miter;stroke-width:0.8;"/>
   </g>
   <g id="patch_4">
    <path d="M 216.32 159.744 
L 216.32 41.472 
" style="fill:none;stroke:#000000;stroke-linecap:square;stroke-linejoin:miter;stroke-width:0.8;"/>
   </g>
   <g id="patch_5">
    <path d="M 57.6 159.744 
L 216.32 159.744 
" style="fill:none;stroke:#000000;stroke-linecap:square;stroke-linejoin:miter;stroke-width:0.8;"/>
   </g>
   <g id="patch_6">
    <path d="M 57.6 41.472 
L 216.32 41.472 
" style="fill:none;stroke:#000000;stroke-linecap:square;stroke-linejoin:miter;stroke-width:0.8;"/>
   </g>
   <g id="text_10">
    <!-- acc -->
    <defs>
     <path d="M 34.28125 27.484375 
Q 23.390625 27.484375 19.1875 25 
Q 14.984375 22.515625 14.984375 16.5 
Q 14.984375 11.71875 18.140625 8.90625 
Q 21.296875 6.109375 26.703125 6.109375 
Q 34.1875 6.109375 38.703125 11.40625 
Q 43.21875 16.703125 43.21875 25.484375 
L 43.21875 27.484375 
z
M 52.203125 31.203125 
L 52.203125 0 
L 43.21875 0 
L 43.21875 8.296875 
Q 40.140625 3.328125 35.546875 0.953125 
Q 30.953125 -1.421875 24.3125 -1.421875 
Q 15.921875 -1.421875 10.953125 3.296875 
Q 6 8.015625 6 15.921875 
Q 6 25.140625 12.171875 29.828125 
Q 18.359375 34.515625 30.609375 34.515625 
L 43.21875 34.515625 
L 43.21875 35.40625 
Q 43.21875 41.609375 39.140625 45 
Q 35.0625 48.390625 27.6875 48.390625 
Q 23 48.390625 18.546875 47.265625 
Q 14.109375 46.140625 10.015625 43.890625 
L 10.015625 52.203125 
Q 14.9375 54.109375 19.578125 55.046875 
Q 24.21875 56 28.609375 56 
Q 40.484375 56 46.34375 49.84375 
Q 52.203125 43.703125 52.203125 31.203125 
z
" id="DejaVuSans-61"/>
     <path d="M 48.78125 52.59375 
L 48.78125 44.1875 
Q 44.96875 46.296875 41.140625 47.34375 
Q 37.3125 48.390625 33.40625 48.390625 
Q 24.65625 48.390625 19.8125 42.84375 
Q 14.984375 37.3125 14.984375 27.296875 
Q 14.984375 17.28125 19.8125 11.734375 
Q 24.65625 6.203125 33.40625 6.203125 
Q 37.3125 6.203125 41.140625 7.25 
Q 44.96875 8.296875 48.78125 10.40625 
L 48.78125 2.09375 
Q 45.015625 0.34375 40.984375 -0.53125 
Q 36.96875 -1.421875 32.421875 -1.421875 
Q 20.0625 -1.421875 12.78125 6.34375 
Q 5.515625 14.109375 5.515625 27.296875 
Q 5.515625 40.671875 12.859375 48.328125 
Q 20.21875 56 33.015625 56 
Q 37.15625 56 41.109375 55.140625 
Q 45.0625 54.296875 48.78125 52.59375 
z
" id="DejaVuSans-63"/>
    </defs>
    <g transform="translate(126.685 35.472)scale(0.12 -0.12)">
     <use xlink:href="#DejaVuSans-61"/>
     <use x="61.279297" xlink:href="#DejaVuSans-63"/>
     <use x="116.259766" xlink:href="#DejaVuSans-63"/>
    </g>
   </g>
  </g>
  <g id="axes_2">
   <g id="patch_7">
    <path d="M 256 159.744 
L 414.72 159.744 
L 414.72 41.472 
L 256 41.472 
z
" style="fill:#ffffff;"/>
   </g>
   <g id="matplotlib.axis_3">
    <g id="xtick_5">
     <g id="line2d_20">
      <path clip-path="url(#p2be764eada)" d="M 263.214545 159.744 
L 263.214545 41.472 
" style="fill:none;stroke:#b0b0b0;stroke-linecap:square;stroke-width:0.8;"/>
     </g>
     <g id="line2d_21">
      <g>
       <use style="stroke:#000000;stroke-width:0.8;" x="263.214545" xlink:href="#m49da6e8bef" y="159.744"/>
      </g>
     </g>
     <g id="text_11">
      <!-- 0 -->
      <g transform="translate(260.033295 174.342437)scale(0.1 -0.1)">
       <use xlink:href="#DejaVuSans-30"/>
      </g>
     </g>
    </g>
    <g id="xtick_6">
     <g id="line2d_22">
      <path clip-path="url(#p2be764eada)" d="M 311.472375 159.744 
L 311.472375 41.472 
" style="fill:none;stroke:#b0b0b0;stroke-linecap:square;stroke-width:0.8;"/>
     </g>
     <g id="line2d_23">
      <g>
       <use style="stroke:#000000;stroke-width:0.8;" x="311.472375" xlink:href="#m49da6e8bef" y="159.744"/>
      </g>
     </g>
     <g id="text_12">
      <!-- 100 -->
      <g transform="translate(301.928625 174.342437)scale(0.1 -0.1)">
       <use xlink:href="#DejaVuSans-31"/>
       <use x="63.623047" xlink:href="#DejaVuSans-30"/>
       <use x="127.246094" xlink:href="#DejaVuSans-30"/>
      </g>
     </g>
    </g>
    <g id="xtick_7">
     <g id="line2d_24">
      <path clip-path="url(#p2be764eada)" d="M 359.730204 159.744 
L 359.730204 41.472 
" style="fill:none;stroke:#b0b0b0;stroke-linecap:square;stroke-width:0.8;"/>
     </g>
     <g id="line2d_25">
      <g>
       <use style="stroke:#000000;stroke-width:0.8;" x="359.730204" xlink:href="#m49da6e8bef" y="159.744"/>
      </g>
     </g>
     <g id="text_13">
      <!-- 200 -->
      <g transform="translate(350.186454 174.342437)scale(0.1 -0.1)">
       <use xlink:href="#DejaVuSans-32"/>
       <use x="63.623047" xlink:href="#DejaVuSans-30"/>
       <use x="127.246094" xlink:href="#DejaVuSans-30"/>
      </g>
     </g>
    </g>
    <g id="xtick_8">
     <g id="line2d_26">
      <path clip-path="url(#p2be764eada)" d="M 407.988033 159.744 
L 407.988033 41.472 
" style="fill:none;stroke:#b0b0b0;stroke-linecap:square;stroke-width:0.8;"/>
     </g>
     <g id="line2d_27">
      <g>
       <use style="stroke:#000000;stroke-width:0.8;" x="407.988033" xlink:href="#m49da6e8bef" y="159.744"/>
      </g>
     </g>
     <g id="text_14">
      <!-- 300 -->
      <g transform="translate(398.444283 174.342437)scale(0.1 -0.1)">
       <use xlink:href="#DejaVuSans-33"/>
       <use x="63.623047" xlink:href="#DejaVuSans-30"/>
       <use x="127.246094" xlink:href="#DejaVuSans-30"/>
      </g>
     </g>
    </g>
   </g>
   <g id="matplotlib.axis_4">
    <g id="ytick_6">
     <g id="line2d_28">
      <path clip-path="url(#p2be764eada)" d="M 256 154.64907 
L 414.72 154.64907 
" style="fill:none;stroke:#b0b0b0;stroke-linecap:square;stroke-width:0.8;"/>
     </g>
     <g id="line2d_29">
      <g>
       <use style="stroke:#000000;stroke-width:0.8;" x="256" xlink:href="#maa3e08ab07" y="154.64907"/>
      </g>
     </g>
     <g id="text_15">
      <!-- 0 -->
      <g transform="translate(242.6375 158.448289)scale(0.1 -0.1)">
       <use xlink:href="#DejaVuSans-30"/>
      </g>
     </g>
    </g>
    <g id="ytick_7">
     <g id="line2d_30">
      <path clip-path="url(#p2be764eada)" d="M 256 115.744953 
L 414.72 115.744953 
" style="fill:none;stroke:#b0b0b0;stroke-linecap:square;stroke-width:0.8;"/>
     </g>
     <g id="line2d_31">
      <g>
       <use style="stroke:#000000;stroke-width:0.8;" x="256" xlink:href="#maa3e08ab07" y="115.744953"/>
      </g>
     </g>
     <g id="text_16">
      <!-- 2 -->
      <g transform="translate(242.6375 119.544172)scale(0.1 -0.1)">
       <use xlink:href="#DejaVuSans-32"/>
      </g>
     </g>
    </g>
    <g id="ytick_8">
     <g id="line2d_32">
      <path clip-path="url(#p2be764eada)" d="M 256 76.840836 
L 414.72 76.840836 
" style="fill:none;stroke:#b0b0b0;stroke-linecap:square;stroke-width:0.8;"/>
     </g>
     <g id="line2d_33">
      <g>
       <use style="stroke:#000000;stroke-width:0.8;" x="256" xlink:href="#maa3e08ab07" y="76.840836"/>
      </g>
     </g>
     <g id="text_17">
      <!-- 4 -->
      <defs>
       <path d="M 37.796875 64.3125 
L 12.890625 25.390625 
L 37.796875 25.390625 
z
M 35.203125 72.90625 
L 47.609375 72.90625 
L 47.609375 25.390625 
L 58.015625 25.390625 
L 58.015625 17.1875 
L 47.609375 17.1875 
L 47.609375 0 
L 37.796875 0 
L 37.796875 17.1875 
L 4.890625 17.1875 
L 4.890625 26.703125 
z
" id="DejaVuSans-34"/>
      </defs>
      <g transform="translate(242.6375 80.640055)scale(0.1 -0.1)">
       <use xlink:href="#DejaVuSans-34"/>
      </g>
     </g>
    </g>
   </g>
   <g id="line2d_34">
    <path clip-path="url(#p2be764eada)" d="M 263.214545 46.848 
L 263.697124 53.026452 
L 265.627437 87.107404 
L 266.592593 99.501849 
L 267.075172 104.6067 
L 268.522907 113.96045 
L 269.005485 116.88341 
L 270.935798 124.729967 
L 272.866111 131.170649 
L 273.34869 132.491964 
L 273.831268 133.337377 
L 274.313846 134.938731 
L 276.726738 139.562113 
L 277.209316 140.012285 
L 277.691894 141.079939 
L 278.174472 141.348739 
L 278.657051 142.031077 
L 279.139629 142.906078 
L 279.622207 143.147128 
L 280.587364 144.426915 
L 281.069942 144.65889 
L 281.552521 145.369844 
L 282.035099 145.662623 
L 282.517677 146.090416 
L 283.000255 146.140831 
L 283.482834 146.695276 
L 283.965412 147.501609 
L 284.44799 147.446803 
L 285.895725 148.203224 
L 286.860882 148.878606 
L 287.34346 149.084857 
L 287.826038 149.133849 
L 289.756351 150.023001 
L 290.23893 150.090069 
L 291.204086 150.604632 
L 291.686665 150.509137 
L 292.169243 151.122421 
L 292.651821 150.715182 
L 293.1344 151.037434 
L 293.616978 151.196558 
L 294.099556 151.197384 
L 294.582134 151.328698 
L 295.064713 151.291327 
L 295.547291 151.647832 
L 296.512448 151.845866 
L 296.995026 151.75027 
L 297.477604 152.001242 
L 298.925339 152.1854 
L 299.407917 152.406641 
L 300.373074 152.310324 
L 300.855652 152.692072 
L 302.303387 152.535331 
L 303.268544 152.67671 
L 303.751122 152.507419 
L 304.2337 152.865587 
L 304.716279 152.604532 
L 305.681435 152.851457 
L 306.164013 152.752104 
L 306.646592 152.883138 
L 307.12917 152.694133 
L 307.611748 152.782581 
L 308.094327 153.245627 
L 308.576905 153.14418 
L 309.059483 153.247242 
L 309.542061 152.8701 
L 310.02464 153.411563 
L 310.507218 153.164809 
L 311.472375 153.418309 
L 311.954953 153.350987 
L 312.437531 153.124875 
L 312.920109 153.675846 
L 313.885266 153.135801 
L 314.850423 153.454054 
L 315.815579 153.484085 
L 316.298157 153.32695 
L 316.780736 153.315472 
L 317.263314 153.57284 
L 318.711049 153.426387 
L 319.193627 153.453174 
L 319.676206 153.629173 
L 320.158784 153.596336 
L 320.641362 153.778917 
L 321.12394 153.283903 
L 321.606519 153.838167 
L 322.089097 153.365215 
L 322.571675 153.712802 
L 323.054254 153.754121 
L 323.536832 153.601381 
L 324.01941 153.817398 
L 324.501988 153.510099 
L 325.467145 153.718944 
L 326.432302 153.75816 
L 326.91488 153.699954 
L 327.397458 153.932959 
L 327.880036 153.743529 
L 328.362615 153.792777 
L 328.845193 153.723106 
L 329.327771 153.887454 
L 329.81035 153.608468 
L 330.292928 153.977451 
L 330.775506 153.688099 
L 331.258085 153.856886 
L 332.223241 153.603238 
L 332.705819 153.876663 
L 333.188398 153.807388 
L 334.153554 153.921161 
L 334.636133 153.820036 
L 335.118711 154.067656 
L 335.601289 154.050648 
L 336.083867 153.855644 
L 336.566446 154.086836 
L 337.049024 153.740391 
L 338.496759 154.054767 
L 339.461915 153.74225 
L 339.944494 154.040978 
L 340.427072 154.196357 
L 341.392229 153.803251 
L 342.839964 154.050736 
L 343.322542 153.659478 
L 343.80512 153.696978 
L 344.770277 154.008884 
L 345.735433 153.90632 
L 347.665746 153.973779 
L 348.148325 154.043656 
L 348.630903 153.871149 
L 349.113481 153.840749 
L 349.59606 153.927226 
L 350.078638 154.245297 
L 350.561216 153.940124 
L 351.526373 153.760505 
L 352.491529 154.022167 
L 352.974108 154.034154 
L 353.456686 153.917057 
L 355.386999 154.095704 
L 355.869577 154.226494 
L 356.352156 153.989191 
L 356.834734 154.029588 
L 357.317312 153.931165 
L 358.282469 154.147086 
L 359.247625 153.881592 
L 359.730204 154.013386 
L 360.69536 153.795277 
L 361.177939 153.841497 
L 361.660517 154.031044 
L 362.625673 154.011539 
L 363.108252 153.811848 
L 363.59083 154.00886 
L 364.073408 153.914383 
L 364.555987 154.049446 
L 365.038565 153.928321 
L 365.521143 154.296898 
L 366.003721 153.623638 
L 366.4863 153.985325 
L 367.934035 154.039443 
L 368.416613 153.985547 
L 368.899191 154.070813 
L 369.38177 153.879896 
L 369.864348 154.118396 
L 370.346926 154.016799 
L 370.829504 154.287923 
L 371.312083 154.076222 
L 371.794661 154.079791 
L 372.277239 154.303131 
L 372.759818 154.06173 
L 373.242396 154.118349 
L 373.724974 154.040723 
L 374.207552 153.728956 
L 374.690131 153.731303 
L 375.172709 153.994005 
L 375.655287 153.993065 
L 376.137866 153.877218 
L 376.620444 154.210002 
L 377.103022 154.167295 
L 377.5856 153.915329 
L 378.550757 154.15545 
L 379.033335 154.147919 
L 379.515914 153.954577 
L 379.998492 154.017202 
L 380.48107 154.368 
L 380.963649 153.645342 
L 381.446227 154.079132 
L 381.928805 153.953032 
L 382.411383 153.998677 
L 382.893962 153.888972 
L 383.37654 154.272369 
L 383.859118 154.131004 
L 385.306853 154.260551 
L 385.789431 153.671668 
L 386.27201 153.997532 
L 386.754588 154.184343 
L 389.167479 154.038833 
L 391.097793 154.172291 
L 391.580371 154.060789 
L 392.062949 154.103748 
L 392.545528 153.838685 
L 393.028106 154.176822 
L 393.510684 154.273114 
L 393.993262 154.225573 
L 394.475841 153.819862 
L 394.958419 154.213788 
L 395.440997 154.359735 
L 395.923576 154.122406 
L 396.406154 154.030945 
L 396.888732 153.714136 
L 397.37131 153.854713 
L 398.336467 153.910085 
L 399.301624 154.166853 
L 399.784202 153.927634 
L 400.26678 154.339773 
L 400.749358 154.083082 
L 401.231937 154.166096 
L 401.714515 154.104702 
L 402.197093 153.902987 
L 402.679672 154.335256 
L 403.16225 153.844175 
L 403.644828 154.20497 
L 404.127407 154.003689 
L 404.609985 154.14878 
L 405.092563 153.771485 
L 405.575141 154.070091 
L 406.05772 153.702324 
L 406.540298 154.183527 
L 407.022876 154.110411 
L 407.505455 153.875618 
L 407.505455 153.875618 
" style="fill:none;stroke:#1f77b4;stroke-linecap:square;stroke-width:1.5;"/>
   </g>
   <g id="patch_8">
    <path d="M 256 159.744 
L 256 41.472 
" style="fill:none;stroke:#000000;stroke-linecap:square;stroke-linejoin:miter;stroke-width:0.8;"/>
   </g>
   <g id="patch_9">
    <path d="M 414.72 159.744 
L 414.72 41.472 
" style="fill:none;stroke:#000000;stroke-linecap:square;stroke-linejoin:miter;stroke-width:0.8;"/>
   </g>
   <g id="patch_10">
    <path d="M 256 159.744 
L 414.72 159.744 
" style="fill:none;stroke:#000000;stroke-linecap:square;stroke-linejoin:miter;stroke-width:0.8;"/>
   </g>
   <g id="patch_11">
    <path d="M 256 41.472 
L 414.72 41.472 
" style="fill:none;stroke:#000000;stroke-linecap:square;stroke-linejoin:miter;stroke-width:0.8;"/>
   </g>
   <g id="text_18">
    <!-- loss -->
    <defs>
     <path d="M 9.421875 75.984375 
L 18.40625 75.984375 
L 18.40625 0 
L 9.421875 0 
z
" id="DejaVuSans-6c"/>
     <path d="M 30.609375 48.390625 
Q 23.390625 48.390625 19.1875 42.75 
Q 14.984375 37.109375 14.984375 27.296875 
Q 14.984375 17.484375 19.15625 11.84375 
Q 23.34375 6.203125 30.609375 6.203125 
Q 37.796875 6.203125 41.984375 11.859375 
Q 46.1875 17.53125 46.1875 27.296875 
Q 46.1875 37.015625 41.984375 42.703125 
Q 37.796875 48.390625 30.609375 48.390625 
z
M 30.609375 56 
Q 42.328125 56 49.015625 48.375 
Q 55.71875 40.765625 55.71875 27.296875 
Q 55.71875 13.875 49.015625 6.21875 
Q 42.328125 -1.421875 30.609375 -1.421875 
Q 18.84375 -1.421875 12.171875 6.21875 
Q 5.515625 13.875 5.515625 27.296875 
Q 5.515625 40.765625 12.171875 48.375 
Q 18.84375 56 30.609375 56 
z
" id="DejaVuSans-6f"/>
     <path d="M 44.28125 53.078125 
L 44.28125 44.578125 
Q 40.484375 46.53125 36.375 47.5 
Q 32.28125 48.484375 27.875 48.484375 
Q 21.1875 48.484375 17.84375 46.4375 
Q 14.5 44.390625 14.5 40.28125 
Q 14.5 37.15625 16.890625 35.375 
Q 19.28125 33.59375 26.515625 31.984375 
L 29.59375 31.296875 
Q 39.15625 29.25 43.1875 25.515625 
Q 47.21875 21.78125 47.21875 15.09375 
Q 47.21875 7.46875 41.1875 3.015625 
Q 35.15625 -1.421875 24.609375 -1.421875 
Q 20.21875 -1.421875 15.453125 -0.5625 
Q 10.6875 0.296875 5.421875 2 
L 5.421875 11.28125 
Q 10.40625 8.6875 15.234375 7.390625 
Q 20.0625 6.109375 24.8125 6.109375 
Q 31.15625 6.109375 34.5625 8.28125 
Q 37.984375 10.453125 37.984375 14.40625 
Q 37.984375 18.0625 35.515625 20.015625 
Q 33.0625 21.96875 24.703125 23.78125 
L 21.578125 24.515625 
Q 13.234375 26.265625 9.515625 29.90625 
Q 5.8125 33.546875 5.8125 39.890625 
Q 5.8125 47.609375 11.28125 51.796875 
Q 16.75 56 26.8125 56 
Q 31.78125 56 36.171875 55.265625 
Q 40.578125 54.546875 44.28125 53.078125 
z
" id="DejaVuSans-73"/>
    </defs>
    <g transform="translate(323.770625 35.472)scale(0.12 -0.12)">
     <use xlink:href="#DejaVuSans-6c"/>
     <use x="27.783203" xlink:href="#DejaVuSans-6f"/>
     <use x="88.964844" xlink:href="#DejaVuSans-73"/>
     <use x="141.064453" xlink:href="#DejaVuSans-73"/>
    </g>
   </g>
  </g>
  <g id="axes_3">
   <g id="patch_12">
    <path d="M 57.6 307.584 
L 216.32 307.584 
L 216.32 189.312 
L 57.6 189.312 
z
" style="fill:#ffffff;"/>
   </g>
   <g id="matplotlib.axis_5">
    <g id="xtick_9">
     <g id="line2d_35">
      <path clip-path="url(#p6d296ce66b)" d="M 64.814545 307.584 
L 64.814545 189.312 
" style="fill:none;stroke:#b0b0b0;stroke-linecap:square;stroke-width:0.8;"/>
     </g>
     <g id="line2d_36">
      <g>
       <use style="stroke:#000000;stroke-width:0.8;" x="64.814545" xlink:href="#m49da6e8bef" y="307.584"/>
      </g>
     </g>
     <g id="text_19">
      <!-- 0 -->
      <g transform="translate(61.633295 322.182437)scale(0.1 -0.1)">
       <use xlink:href="#DejaVuSans-30"/>
      </g>
     </g>
    </g>
    <g id="xtick_10">
     <g id="line2d_37">
      <path clip-path="url(#p6d296ce66b)" d="M 113.072375 307.584 
L 113.072375 189.312 
" style="fill:none;stroke:#b0b0b0;stroke-linecap:square;stroke-width:0.8;"/>
     </g>
     <g id="line2d_38">
      <g>
       <use style="stroke:#000000;stroke-width:0.8;" x="113.072375" xlink:href="#m49da6e8bef" y="307.584"/>
      </g>
     </g>
     <g id="text_20">
      <!-- 100 -->
      <g transform="translate(103.528625 322.182437)scale(0.1 -0.1)">
       <use xlink:href="#DejaVuSans-31"/>
       <use x="63.623047" xlink:href="#DejaVuSans-30"/>
       <use x="127.246094" xlink:href="#DejaVuSans-30"/>
      </g>
     </g>
    </g>
    <g id="xtick_11">
     <g id="line2d_39">
      <path clip-path="url(#p6d296ce66b)" d="M 161.330204 307.584 
L 161.330204 189.312 
" style="fill:none;stroke:#b0b0b0;stroke-linecap:square;stroke-width:0.8;"/>
     </g>
     <g id="line2d_40">
      <g>
       <use style="stroke:#000000;stroke-width:0.8;" x="161.330204" xlink:href="#m49da6e8bef" y="307.584"/>
      </g>
     </g>
     <g id="text_21">
      <!-- 200 -->
      <g transform="translate(151.786454 322.182437)scale(0.1 -0.1)">
       <use xlink:href="#DejaVuSans-32"/>
       <use x="63.623047" xlink:href="#DejaVuSans-30"/>
       <use x="127.246094" xlink:href="#DejaVuSans-30"/>
      </g>
     </g>
    </g>
    <g id="xtick_12">
     <g id="line2d_41">
      <path clip-path="url(#p6d296ce66b)" d="M 209.588033 307.584 
L 209.588033 189.312 
" style="fill:none;stroke:#b0b0b0;stroke-linecap:square;stroke-width:0.8;"/>
     </g>
     <g id="line2d_42">
      <g>
       <use style="stroke:#000000;stroke-width:0.8;" x="209.588033" xlink:href="#m49da6e8bef" y="307.584"/>
      </g>
     </g>
     <g id="text_22">
      <!-- 300 -->
      <g transform="translate(200.044283 322.182437)scale(0.1 -0.1)">
       <use xlink:href="#DejaVuSans-33"/>
       <use x="63.623047" xlink:href="#DejaVuSans-30"/>
       <use x="127.246094" xlink:href="#DejaVuSans-30"/>
      </g>
     </g>
    </g>
   </g>
   <g id="matplotlib.axis_6">
    <g id="ytick_9">
     <g id="line2d_43">
      <path clip-path="url(#p6d296ce66b)" d="M 57.6 303.061333 
L 216.32 303.061333 
" style="fill:none;stroke:#b0b0b0;stroke-linecap:square;stroke-width:0.8;"/>
     </g>
     <g id="line2d_44">
      <g>
       <use style="stroke:#000000;stroke-width:0.8;" x="57.6" xlink:href="#maa3e08ab07" y="303.061333"/>
      </g>
     </g>
     <g id="text_23">
      <!-- 0.00 -->
      <g transform="translate(28.334375 306.860552)scale(0.1 -0.1)">
       <use xlink:href="#DejaVuSans-30"/>
       <use x="63.623047" xlink:href="#DejaVuSans-2e"/>
       <use x="95.410156" xlink:href="#DejaVuSans-30"/>
       <use x="159.033203" xlink:href="#DejaVuSans-30"/>
      </g>
     </g>
    </g>
    <g id="ytick_10">
     <g id="line2d_45">
      <path clip-path="url(#p6d296ce66b)" d="M 57.6 275.754667 
L 216.32 275.754667 
" style="fill:none;stroke:#b0b0b0;stroke-linecap:square;stroke-width:0.8;"/>
     </g>
     <g id="line2d_46">
      <g>
       <use style="stroke:#000000;stroke-width:0.8;" x="57.6" xlink:href="#maa3e08ab07" y="275.754667"/>
      </g>
     </g>
     <g id="text_24">
      <!-- 0.25 -->
      <g transform="translate(28.334375 279.553885)scale(0.1 -0.1)">
       <use xlink:href="#DejaVuSans-30"/>
       <use x="63.623047" xlink:href="#DejaVuSans-2e"/>
       <use x="95.410156" xlink:href="#DejaVuSans-32"/>
       <use x="159.033203" xlink:href="#DejaVuSans-35"/>
      </g>
     </g>
    </g>
    <g id="ytick_11">
     <g id="line2d_47">
      <path clip-path="url(#p6d296ce66b)" d="M 57.6 248.448 
L 216.32 248.448 
" style="fill:none;stroke:#b0b0b0;stroke-linecap:square;stroke-width:0.8;"/>
     </g>
     <g id="line2d_48">
      <g>
       <use style="stroke:#000000;stroke-width:0.8;" x="57.6" xlink:href="#maa3e08ab07" y="248.448"/>
      </g>
     </g>
     <g id="text_25">
      <!-- 0.50 -->
      <g transform="translate(28.334375 252.247219)scale(0.1 -0.1)">
       <use xlink:href="#DejaVuSans-30"/>
       <use x="63.623047" xlink:href="#DejaVuSans-2e"/>
       <use x="95.410156" xlink:href="#DejaVuSans-35"/>
       <use x="159.033203" xlink:href="#DejaVuSans-30"/>
      </g>
     </g>
    </g>
    <g id="ytick_12">
     <g id="line2d_49">
      <path clip-path="url(#p6d296ce66b)" d="M 57.6 221.141333 
L 216.32 221.141333 
" style="fill:none;stroke:#b0b0b0;stroke-linecap:square;stroke-width:0.8;"/>
     </g>
     <g id="line2d_50">
      <g>
       <use style="stroke:#000000;stroke-width:0.8;" x="57.6" xlink:href="#maa3e08ab07" y="221.141333"/>
      </g>
     </g>
     <g id="text_26">
      <!-- 0.75 -->
      <g transform="translate(28.334375 224.940552)scale(0.1 -0.1)">
       <use xlink:href="#DejaVuSans-30"/>
       <use x="63.623047" xlink:href="#DejaVuSans-2e"/>
       <use x="95.410156" xlink:href="#DejaVuSans-37"/>
       <use x="159.033203" xlink:href="#DejaVuSans-35"/>
      </g>
     </g>
    </g>
    <g id="ytick_13">
     <g id="line2d_51">
      <path clip-path="url(#p6d296ce66b)" d="M 57.6 193.834666 
L 216.32 193.834666 
" style="fill:none;stroke:#b0b0b0;stroke-linecap:square;stroke-width:0.8;"/>
     </g>
     <g id="line2d_52">
      <g>
       <use style="stroke:#000000;stroke-width:0.8;" x="57.6" xlink:href="#maa3e08ab07" y="193.834666"/>
      </g>
     </g>
     <g id="text_27">
      <!-- 1.00 -->
      <g transform="translate(28.334375 197.633885)scale(0.1 -0.1)">
       <use xlink:href="#DejaVuSans-31"/>
       <use x="63.623047" xlink:href="#DejaVuSans-2e"/>
       <use x="95.410156" xlink:href="#DejaVuSans-30"/>
       <use x="159.033203" xlink:href="#DejaVuSans-30"/>
      </g>
     </g>
    </g>
   </g>
   <g id="line2d_53">
    <path clip-path="url(#p6d296ce66b)" d="M 64.814545 302.208 
L 65.297124 301.354667 
L 65.779702 300.074667 
L 66.26228 295.808 
L 66.744859 293.248 
L 67.227437 285.141333 
L 67.710015 285.994666 
L 68.192593 275.328 
L 68.675172 267.648 
L 69.15775 279.168 
L 69.640328 262.527999 
L 70.122907 261.247999 
L 70.605485 263.381332 
L 71.088063 251.861333 
L 71.570642 255.701332 
L 72.05322 244.607998 
L 72.535798 244.181332 
L 73.018376 244.181332 
L 73.500955 262.527999 
L 73.983533 236.927998 
L 74.466111 248.447999 
L 74.94869 245.461333 
L 75.431268 231.381333 
L 75.913846 237.354665 
L 76.396424 229.674664 
L 76.879003 231.381332 
L 77.361581 227.114664 
L 77.844159 224.981332 
L 78.326738 225.407998 
L 78.809316 222.847999 
L 79.291894 223.274666 
L 79.774472 224.554666 
L 80.257051 222.847998 
L 80.739629 217.727998 
L 81.222207 219.434666 
L 81.704786 220.714665 
L 82.187364 216.874666 
L 82.669942 215.594666 
L 83.152521 211.327999 
L 83.635099 210.901334 
L 84.117677 215.594666 
L 84.600255 210.901333 
L 85.082834 212.608 
L 85.565412 206.208 
L 86.04799 218.154666 
L 86.530569 209.194667 
L 87.013147 203.648 
L 87.495725 210.474666 
L 87.978303 205.781333 
L 88.460882 208.341333 
L 88.94346 211.754665 
L 89.426038 205.354667 
L 89.908617 207.488 
L 90.391195 204.074667 
L 90.873773 207.061333 
L 91.356351 206.634667 
L 91.83893 220.287999 
L 92.321508 208.341333 
L 92.804086 203.648001 
L 93.286665 223.274665 
L 93.769243 209.621333 
L 94.251821 211.754666 
L 94.7344 199.381333 
L 95.216978 207.488 
L 95.699556 202.368001 
L 96.182134 201.514667 
L 96.664713 202.368 
L 97.147291 207.487999 
L 97.629869 198.954667 
L 98.112448 198.954668 
L 98.595026 202.794667 
L 99.077604 202.368001 
L 99.560182 203.221333 
L 100.042761 203.648001 
L 100.525339 201.088001 
L 101.007917 201.514668 
L 101.490496 198.528 
L 101.973074 199.808001 
L 102.93823 207.488 
L 103.420809 198.954667 
L 103.903387 201.088001 
L 104.385965 197.674667 
L 104.868544 200.661334 
L 105.8337 201.514667 
L 106.316279 200.234667 
L 106.798857 202.368 
L 107.281435 199.381333 
L 107.764013 198.101334 
L 108.246592 197.674667 
L 108.72917 201.088 
L 109.211748 200.661334 
L 110.176905 195.541334 
L 110.659483 198.528001 
L 111.142061 197.248001 
L 111.62464 199.381333 
L 112.107218 198.101334 
L 112.589796 199.381334 
L 113.072375 201.088001 
L 113.554953 196.821334 
L 114.037531 197.674667 
L 114.520109 209.194666 
L 115.002688 196.394667 
L 115.485266 196.821334 
L 115.967844 198.954667 
L 116.450423 197.248001 
L 116.933001 199.808001 
L 117.415579 199.381334 
L 117.898157 196.394667 
L 118.380736 196.394667 
L 118.863314 197.674667 
L 119.345892 198.528 
L 119.828471 198.954667 
L 120.311049 197.248001 
L 120.793627 196.394667 
L 121.276206 196.394667 
L 121.758784 196.821334 
L 122.241362 199.808001 
L 122.72394 199.381334 
L 123.206519 195.968 
L 123.689097 197.248 
L 124.171675 196.394667 
L 124.654254 207.488 
L 125.136832 196.821334 
L 125.61941 196.394667 
L 126.101988 198.528 
L 126.584567 195.968 
L 127.067145 198.101334 
L 127.549723 196.821333 
L 128.032302 195.968 
L 128.51488 196.394667 
L 128.997458 197.248001 
L 129.480036 195.541334 
L 129.962615 195.968 
L 130.445193 197.248 
L 130.927771 198.101334 
L 131.41035 195.968 
L 131.892928 197.674667 
L 132.375506 196.821334 
L 132.858085 199.381334 
L 133.340663 196.821334 
L 133.823241 204.074667 
L 134.305819 197.674667 
L 134.788398 201.088 
L 135.270976 197.248001 
L 135.753554 195.968 
L 136.236133 197.674667 
L 137.201289 195.114667 
L 137.683867 202.368001 
L 138.166446 198.101334 
L 138.649024 195.968 
L 139.131602 201.088 
L 139.614181 195.541334 
L 140.096759 197.248001 
L 141.061915 197.248001 
L 142.027072 198.954667 
L 142.992229 197.248001 
L 143.474807 198.954667 
L 143.957385 195.541334 
L 144.439964 196.821334 
L 144.922542 196.821334 
L 145.40512 196.394667 
L 145.887698 208.767999 
L 146.370277 195.968 
L 146.852855 197.674667 
L 147.335433 197.674667 
L 147.818012 196.394667 
L 148.30059 196.394667 
L 148.783168 197.674667 
L 149.265746 195.968 
L 149.748325 196.394667 
L 150.230903 195.968 
L 150.713481 196.821334 
L 151.19606 195.968 
L 151.678638 197.674667 
L 152.161216 195.968 
L 152.643794 196.821334 
L 153.126373 195.968 
L 153.608951 195.968 
L 154.091529 199.808 
L 154.574108 196.394667 
L 155.539264 197.248001 
L 156.021843 197.248001 
L 156.504421 196.821334 
L 156.986999 200.234667 
L 157.952156 194.688 
L 158.917312 198.528 
L 159.399891 195.968 
L 159.882469 196.394667 
L 160.365047 195.968 
L 161.330204 197.674667 
L 161.812782 197.674667 
L 162.29536 198.954667 
L 162.777939 198.528 
L 163.260517 200.234667 
L 163.743095 197.674667 
L 164.225673 199.808001 
L 164.708252 198.954667 
L 165.19083 195.968 
L 165.673408 196.394667 
L 166.155987 195.968 
L 166.638565 195.968 
L 167.121143 197.674667 
L 167.603721 195.968 
L 169.051456 195.968 
L 169.534035 195.541334 
L 170.016613 196.821334 
L 170.499191 196.821334 
L 171.464348 195.968 
L 171.946926 196.821334 
L 172.429504 198.528 
L 172.912083 195.114667 
L 173.394661 196.821334 
L 173.877239 196.821334 
L 174.359818 195.968 
L 174.842396 197.248001 
L 175.324974 196.394667 
L 175.807552 197.248001 
L 176.290131 195.968 
L 176.772709 195.541334 
L 177.255287 197.674667 
L 177.737866 195.968 
L 178.220444 199.381334 
L 178.703022 197.674667 
L 179.668179 195.968 
L 180.150757 200.234667 
L 180.633335 196.821333 
L 181.115914 196.394667 
L 181.598492 196.821334 
L 182.563649 195.968 
L 183.046227 197.674667 
L 183.528805 197.248 
L 184.011383 197.674667 
L 184.493962 196.394667 
L 184.97654 196.394667 
L 185.459118 197.674667 
L 185.941697 195.968 
L 186.424275 195.968 
L 186.906853 196.821334 
L 187.87201 195.114667 
L 188.354588 195.114667 
L 188.837166 201.941334 
L 189.319745 197.674667 
L 189.802323 195.968 
L 190.284901 197.248001 
L 190.767479 196.821334 
L 191.250058 198.528 
L 191.732636 197.248001 
L 192.215214 196.821334 
L 192.697793 195.541334 
L 193.180371 195.114667 
L 193.662949 196.821334 
L 194.628106 196.821334 
L 195.110684 195.968 
L 195.593262 197.674667 
L 196.075841 196.821334 
L 196.558419 196.394667 
L 197.040997 198.528 
L 197.523576 195.968 
L 198.006154 196.821334 
L 198.488732 196.821334 
L 198.97131 196.394667 
L 199.453889 195.541334 
L 199.936467 198.528001 
L 200.419045 195.541334 
L 200.901624 195.114667 
L 201.384202 196.394667 
L 201.86678 196.394667 
L 202.349358 197.248001 
L 202.831937 198.528001 
L 203.314515 197.674667 
L 203.797093 198.101334 
L 204.279672 195.968 
L 204.76225 198.954668 
L 205.244828 198.528001 
L 205.727407 196.394667 
L 206.209985 195.968 
L 206.692563 197.248 
L 207.175141 195.114667 
L 207.65772 197.674667 
L 208.140298 195.114667 
L 208.622876 195.541334 
L 209.105455 198.954667 
L 209.105455 198.954667 
" style="fill:none;stroke:#1f77b4;stroke-linecap:square;stroke-width:1.5;"/>
   </g>
   <g id="patch_13">
    <path d="M 57.6 307.584 
L 57.6 189.312 
" style="fill:none;stroke:#000000;stroke-linecap:square;stroke-linejoin:miter;stroke-width:0.8;"/>
   </g>
   <g id="patch_14">
    <path d="M 216.32 307.584 
L 216.32 189.312 
" style="fill:none;stroke:#000000;stroke-linecap:square;stroke-linejoin:miter;stroke-width:0.8;"/>
   </g>
   <g id="patch_15">
    <path d="M 57.6 307.584 
L 216.32 307.584 
" style="fill:none;stroke:#000000;stroke-linecap:square;stroke-linejoin:miter;stroke-width:0.8;"/>
   </g>
   <g id="patch_16">
    <path d="M 57.6 189.312 
L 216.32 189.312 
" style="fill:none;stroke:#000000;stroke-linecap:square;stroke-linejoin:miter;stroke-width:0.8;"/>
   </g>
   <g id="text_28">
    <!-- val_acc -->
    <defs>
     <path d="M 2.984375 54.6875 
L 12.5 54.6875 
L 29.59375 8.796875 
L 46.6875 54.6875 
L 56.203125 54.6875 
L 35.6875 0 
L 23.484375 0 
z
" id="DejaVuSans-76"/>
     <path d="M 50.984375 -16.609375 
L 50.984375 -23.578125 
L -0.984375 -23.578125 
L -0.984375 -16.609375 
z
" id="DejaVuSans-5f"/>
    </defs>
    <g transform="translate(114.79 183.312)scale(0.12 -0.12)">
     <use xlink:href="#DejaVuSans-76"/>
     <use x="59.179688" xlink:href="#DejaVuSans-61"/>
     <use x="120.458984" xlink:href="#DejaVuSans-6c"/>
     <use x="148.242188" xlink:href="#DejaVuSans-5f"/>
     <use x="198.242188" xlink:href="#DejaVuSans-61"/>
     <use x="259.521484" xlink:href="#DejaVuSans-63"/>
     <use x="314.501953" xlink:href="#DejaVuSans-63"/>
    </g>
   </g>
  </g>
  <g id="axes_4">
   <g id="patch_17">
    <path d="M 256 307.584 
L 414.72 307.584 
L 414.72 189.312 
L 256 189.312 
z
" style="fill:#ffffff;"/>
   </g>
   <g id="matplotlib.axis_7">
    <g id="xtick_13">
     <g id="line2d_54">
      <path clip-path="url(#pfc9226375a)" d="M 263.214545 307.584 
L 263.214545 189.312 
" style="fill:none;stroke:#b0b0b0;stroke-linecap:square;stroke-width:0.8;"/>
     </g>
     <g id="line2d_55">
      <g>
       <use style="stroke:#000000;stroke-width:0.8;" x="263.214545" xlink:href="#m49da6e8bef" y="307.584"/>
      </g>
     </g>
     <g id="text_29">
      <!-- 0 -->
      <g transform="translate(260.033295 322.182437)scale(0.1 -0.1)">
       <use xlink:href="#DejaVuSans-30"/>
      </g>
     </g>
    </g>
    <g id="xtick_14">
     <g id="line2d_56">
      <path clip-path="url(#pfc9226375a)" d="M 311.472375 307.584 
L 311.472375 189.312 
" style="fill:none;stroke:#b0b0b0;stroke-linecap:square;stroke-width:0.8;"/>
     </g>
     <g id="line2d_57">
      <g>
       <use style="stroke:#000000;stroke-width:0.8;" x="311.472375" xlink:href="#m49da6e8bef" y="307.584"/>
      </g>
     </g>
     <g id="text_30">
      <!-- 100 -->
      <g transform="translate(301.928625 322.182437)scale(0.1 -0.1)">
       <use xlink:href="#DejaVuSans-31"/>
       <use x="63.623047" xlink:href="#DejaVuSans-30"/>
       <use x="127.246094" xlink:href="#DejaVuSans-30"/>
      </g>
     </g>
    </g>
    <g id="xtick_15">
     <g id="line2d_58">
      <path clip-path="url(#pfc9226375a)" d="M 359.730204 307.584 
L 359.730204 189.312 
" style="fill:none;stroke:#b0b0b0;stroke-linecap:square;stroke-width:0.8;"/>
     </g>
     <g id="line2d_59">
      <g>
       <use style="stroke:#000000;stroke-width:0.8;" x="359.730204" xlink:href="#m49da6e8bef" y="307.584"/>
      </g>
     </g>
     <g id="text_31">
      <!-- 200 -->
      <g transform="translate(350.186454 322.182437)scale(0.1 -0.1)">
       <use xlink:href="#DejaVuSans-32"/>
       <use x="63.623047" xlink:href="#DejaVuSans-30"/>
       <use x="127.246094" xlink:href="#DejaVuSans-30"/>
      </g>
     </g>
    </g>
    <g id="xtick_16">
     <g id="line2d_60">
      <path clip-path="url(#pfc9226375a)" d="M 407.988033 307.584 
L 407.988033 189.312 
" style="fill:none;stroke:#b0b0b0;stroke-linecap:square;stroke-width:0.8;"/>
     </g>
     <g id="line2d_61">
      <g>
       <use style="stroke:#000000;stroke-width:0.8;" x="407.988033" xlink:href="#m49da6e8bef" y="307.584"/>
      </g>
     </g>
     <g id="text_32">
      <!-- 300 -->
      <g transform="translate(398.444283 322.182437)scale(0.1 -0.1)">
       <use xlink:href="#DejaVuSans-33"/>
       <use x="63.623047" xlink:href="#DejaVuSans-30"/>
       <use x="127.246094" xlink:href="#DejaVuSans-30"/>
      </g>
     </g>
    </g>
   </g>
   <g id="matplotlib.axis_8">
    <g id="ytick_14">
     <g id="line2d_62">
      <path clip-path="url(#pfc9226375a)" d="M 256 302.980256 
L 414.72 302.980256 
" style="fill:none;stroke:#b0b0b0;stroke-linecap:square;stroke-width:0.8;"/>
     </g>
     <g id="line2d_63">
      <g>
       <use style="stroke:#000000;stroke-width:0.8;" x="256" xlink:href="#maa3e08ab07" y="302.980256"/>
      </g>
     </g>
     <g id="text_33">
      <!-- 0 -->
      <g transform="translate(242.6375 306.779474)scale(0.1 -0.1)">
       <use xlink:href="#DejaVuSans-30"/>
      </g>
     </g>
    </g>
    <g id="ytick_15">
     <g id="line2d_64">
      <path clip-path="url(#pfc9226375a)" d="M 256 263.361231 
L 414.72 263.361231 
" style="fill:none;stroke:#b0b0b0;stroke-linecap:square;stroke-width:0.8;"/>
     </g>
     <g id="line2d_65">
      <g>
       <use style="stroke:#000000;stroke-width:0.8;" x="256" xlink:href="#maa3e08ab07" y="263.361231"/>
      </g>
     </g>
     <g id="text_34">
      <!-- 2 -->
      <g transform="translate(242.6375 267.16045)scale(0.1 -0.1)">
       <use xlink:href="#DejaVuSans-32"/>
      </g>
     </g>
    </g>
    <g id="ytick_16">
     <g id="line2d_66">
      <path clip-path="url(#pfc9226375a)" d="M 256 223.742207 
L 414.72 223.742207 
" style="fill:none;stroke:#b0b0b0;stroke-linecap:square;stroke-width:0.8;"/>
     </g>
     <g id="line2d_67">
      <g>
       <use style="stroke:#000000;stroke-width:0.8;" x="256" xlink:href="#maa3e08ab07" y="223.742207"/>
      </g>
     </g>
     <g id="text_35">
      <!-- 4 -->
      <g transform="translate(242.6375 227.541426)scale(0.1 -0.1)">
       <use xlink:href="#DejaVuSans-34"/>
      </g>
     </g>
    </g>
   </g>
   <g id="line2d_68">
    <path clip-path="url(#pfc9226375a)" d="M 263.214545 194.688 
L 263.697124 202.383888 
L 264.179702 212.076088 
L 265.627437 232.40363 
L 266.110015 235.331115 
L 267.075172 248.500139 
L 267.55775 247.309447 
L 268.040328 253.353146 
L 268.522907 256.609249 
L 269.005485 253.859763 
L 269.488063 260.982342 
L 269.970642 261.793144 
L 270.45322 264.727243 
L 270.935798 266.345319 
L 271.418376 268.958756 
L 271.900955 257.918428 
L 272.383533 271.022349 
L 272.866111 269.329469 
L 273.34869 266.974604 
L 273.831268 274.411897 
L 274.313846 272.515725 
L 274.796424 277.968611 
L 275.279003 277.088484 
L 275.761581 278.494056 
L 276.244159 280.976603 
L 277.209316 282.701072 
L 277.691894 281.19779 
L 278.657051 283.649347 
L 279.139629 285.823378 
L 280.104786 284.691727 
L 280.587364 286.999128 
L 281.069942 288.068768 
L 281.552521 289.643694 
L 282.035099 289.640249 
L 282.517677 288.560244 
L 283.000255 291.305983 
L 283.482834 290.614414 
L 283.965412 292.697979 
L 284.44799 288.239831 
L 284.930569 291.959317 
L 285.413147 293.602453 
L 286.378303 292.568135 
L 286.860882 293.108786 
L 287.34346 291.904669 
L 287.826038 294.829795 
L 288.308617 294.746601 
L 288.791195 295.104887 
L 289.273773 294.209624 
L 289.756351 294.970392 
L 290.23893 288.590911 
L 290.721508 292.906899 
L 291.204086 296.088773 
L 291.686665 287.146903 
L 292.169243 293.808412 
L 292.651821 293.357648 
L 293.1344 297.725984 
L 293.616978 294.558323 
L 294.099556 296.623865 
L 294.582134 297.707708 
L 295.064713 296.839275 
L 295.547291 293.667337 
L 296.029869 298.713963 
L 296.512448 298.809943 
L 296.995026 297.616776 
L 297.477604 297.800886 
L 297.960182 297.401137 
L 298.442761 297.463128 
L 298.925339 298.030499 
L 299.407917 298.336676 
L 299.890496 299.39898 
L 300.373074 298.736319 
L 300.855652 297.527692 
L 301.33823 295.398289 
L 301.820809 299.337785 
L 302.303387 298.532951 
L 302.785965 299.180891 
L 303.268544 297.658645 
L 303.751122 298.87323 
L 304.2337 297.352582 
L 304.716279 299.27095 
L 305.198857 297.929926 
L 305.681435 299.405536 
L 306.164013 300.080151 
L 306.646592 299.519835 
L 307.12917 297.103851 
L 307.611748 299.492728 
L 308.094327 299.925352 
L 308.576905 300.543577 
L 309.059483 299.885409 
L 309.542061 300.633981 
L 310.02464 299.233798 
L 310.507218 299.443557 
L 310.989796 300.087778 
L 311.472375 299.112469 
L 311.954953 300.972362 
L 312.437531 300.080322 
L 312.920109 294.182141 
L 313.402688 300.738305 
L 313.885266 300.519136 
L 314.367844 299.803518 
L 314.850423 300.642091 
L 315.333001 300.288989 
L 315.815579 299.291815 
L 316.298157 300.92744 
L 316.780736 301.087218 
L 317.263314 301.044719 
L 317.745892 300.191145 
L 318.228471 299.717896 
L 318.711049 301.13053 
L 319.193627 300.938657 
L 319.676206 301.284204 
L 320.158784 300.852004 
L 320.641362 299.557468 
L 321.12394 299.715102 
L 321.606519 300.925011 
L 322.089097 300.470745 
L 322.571675 301.396976 
L 323.054254 294.878047 
L 323.536832 300.993405 
L 324.01941 300.814235 
L 324.501988 300.816335 
L 324.984567 301.492082 
L 325.467145 300.337311 
L 326.432302 301.334335 
L 326.91488 301.505192 
L 327.397458 300.881662 
L 327.880036 301.174548 
L 328.362615 300.84011 
L 328.845193 301.15505 
L 329.327771 300.099051 
L 329.81035 301.725775 
L 330.292928 301.570744 
L 330.775506 300.933345 
L 331.258085 299.502511 
L 331.740663 301.203066 
L 332.223241 296.722457 
L 332.705819 300.539693 
L 333.188398 299.393739 
L 333.670976 301.020214 
L 334.153554 301.714816 
L 334.636133 300.428764 
L 335.118711 300.561488 
L 335.601289 301.784025 
L 336.083867 298.523521 
L 336.566446 301.154633 
L 337.049024 300.649083 
L 337.531602 296.067607 
L 338.014181 301.843954 
L 338.979337 301.108739 
L 339.461915 301.193596 
L 340.427072 299.141725 
L 340.90965 300.755444 
L 341.392229 300.881033 
L 341.874807 300.499894 
L 342.357385 302.208 
L 342.839964 300.898751 
L 343.322542 301.344704 
L 343.80512 301.321035 
L 344.287698 292.595308 
L 344.770277 301.383466 
L 345.252855 300.372994 
L 345.735433 301.284541 
L 346.218012 300.639677 
L 346.70059 300.561564 
L 347.665746 301.486601 
L 348.148325 301.391474 
L 348.630903 301.4989 
L 349.113481 301.044462 
L 349.59606 301.292575 
L 350.078638 301.082611 
L 350.561216 301.739153 
L 351.043794 301.235406 
L 351.526373 300.567589 
L 352.008951 301.36371 
L 352.491529 297.989787 
L 352.974108 301.180581 
L 353.456686 300.8847 
L 353.939264 301.065154 
L 354.421843 300.573351 
L 354.904421 301.103805 
L 355.386999 298.168393 
L 355.869577 300.575978 
L 356.352156 301.710941 
L 356.834734 301.083569 
L 357.317312 299.848819 
L 357.799891 300.359645 
L 358.282469 300.661543 
L 358.765047 301.392982 
L 359.247625 301.156677 
L 359.730204 300.230275 
L 360.212782 301.12566 
L 360.69536 299.835686 
L 361.177939 299.166839 
L 361.660517 298.773656 
L 362.143095 300.860894 
L 362.625673 297.961237 
L 363.108252 298.010656 
L 363.59083 301.308103 
L 364.073408 300.503063 
L 364.555987 301.284109 
L 365.038565 301.671006 
L 365.521143 299.711293 
L 366.003721 301.36714 
L 366.4863 301.339113 
L 366.968878 301.746348 
L 367.451456 300.960074 
L 367.934035 301.610094 
L 368.416613 301.201621 
L 368.899191 301.407625 
L 369.38177 301.052718 
L 369.864348 299.915523 
L 370.346926 301.659172 
L 370.829504 298.839859 
L 371.312083 302.032371 
L 371.794661 300.089254 
L 372.277239 300.814367 
L 372.759818 301.958571 
L 373.242396 301.167461 
L 373.724974 300.851394 
L 374.207552 301.267331 
L 374.690131 301.451424 
L 375.172709 302.078016 
L 375.655287 299.624837 
L 376.137866 301.473457 
L 376.620444 299.751953 
L 377.5856 300.320958 
L 378.068179 301.033339 
L 378.550757 299.667971 
L 379.033335 299.666035 
L 379.515914 300.870272 
L 379.998492 301.194991 
L 380.48107 299.997137 
L 380.963649 301.16245 
L 381.446227 300.559777 
L 381.928805 299.346547 
L 382.411383 299.714183 
L 382.893962 301.299438 
L 383.859118 297.549896 
L 384.341697 301.141012 
L 384.824275 301.466274 
L 385.306853 299.899529 
L 385.789431 301.005423 
L 386.27201 301.28817 
L 386.754588 301.326954 
L 387.237166 295.838537 
L 387.719745 300.665047 
L 388.202323 301.133957 
L 388.684901 300.29146 
L 389.167479 300.909932 
L 389.650058 300.593881 
L 390.132636 300.862172 
L 390.615214 300.897456 
L 391.097793 301.17707 
L 391.580371 301.674719 
L 392.062949 300.13307 
L 392.545528 301.109535 
L 393.028106 300.690256 
L 393.510684 301.59105 
L 393.993262 299.996936 
L 394.475841 299.966235 
L 394.958419 300.266449 
L 395.440997 298.381333 
L 395.923576 300.265058 
L 396.406154 299.429043 
L 396.888732 301.08868 
L 397.37131 301.663253 
L 397.853889 301.477571 
L 398.336467 298.012705 
L 398.819045 300.982003 
L 399.301624 301.573423 
L 399.784202 300.862742 
L 400.26678 299.839365 
L 400.749358 299.560267 
L 401.231937 299.863797 
L 401.714515 297.918938 
L 402.197093 299.344958 
L 402.679672 301.203263 
L 403.16225 298.342476 
L 403.644828 298.938963 
L 404.127407 300.303347 
L 404.609985 300.725466 
L 405.092563 300.174172 
L 405.575141 301.442798 
L 406.05772 298.919034 
L 406.540298 301.436114 
L 407.022876 301.4098 
L 407.505455 298.745256 
L 407.505455 298.745256 
" style="fill:none;stroke:#1f77b4;stroke-linecap:square;stroke-width:1.5;"/>
   </g>
   <g id="patch_18">
    <path d="M 256 307.584 
L 256 189.312 
" style="fill:none;stroke:#000000;stroke-linecap:square;stroke-linejoin:miter;stroke-width:0.8;"/>
   </g>
   <g id="patch_19">
    <path d="M 414.72 307.584 
L 414.72 189.312 
" style="fill:none;stroke:#000000;stroke-linecap:square;stroke-linejoin:miter;stroke-width:0.8;"/>
   </g>
   <g id="patch_20">
    <path d="M 256 307.584 
L 414.72 307.584 
" style="fill:none;stroke:#000000;stroke-linecap:square;stroke-linejoin:miter;stroke-width:0.8;"/>
   </g>
   <g id="patch_21">
    <path d="M 256 189.312 
L 414.72 189.312 
" style="fill:none;stroke:#000000;stroke-linecap:square;stroke-linejoin:miter;stroke-width:0.8;"/>
   </g>
   <g id="text_36">
    <!-- val_loss -->
    <g transform="translate(311.875625 183.312)scale(0.12 -0.12)">
     <use xlink:href="#DejaVuSans-76"/>
     <use x="59.179688" xlink:href="#DejaVuSans-61"/>
     <use x="120.458984" xlink:href="#DejaVuSans-6c"/>
     <use x="148.242188" xlink:href="#DejaVuSans-5f"/>
     <use x="198.242188" xlink:href="#DejaVuSans-6c"/>
     <use x="226.025391" xlink:href="#DejaVuSans-6f"/>
     <use x="287.207031" xlink:href="#DejaVuSans-73"/>
     <use x="339.306641" xlink:href="#DejaVuSans-73"/>
    </g>
   </g>
  </g>
  <g id="text_37">
   <!-- benchmark 20171023_084514 -->
   <defs>
    <path d="M 48.6875 27.296875 
Q 48.6875 37.203125 44.609375 42.84375 
Q 40.53125 48.484375 33.40625 48.484375 
Q 26.265625 48.484375 22.1875 42.84375 
Q 18.109375 37.203125 18.109375 27.296875 
Q 18.109375 17.390625 22.1875 11.75 
Q 26.265625 6.109375 33.40625 6.109375 
Q 40.53125 6.109375 44.609375 11.75 
Q 48.6875 17.390625 48.6875 27.296875 
z
M 18.109375 46.390625 
Q 20.953125 51.265625 25.265625 53.625 
Q 29.59375 56 35.59375 56 
Q 45.5625 56 51.78125 48.09375 
Q 58.015625 40.1875 58.015625 27.296875 
Q 58.015625 14.40625 51.78125 6.484375 
Q 45.5625 -1.421875 35.59375 -1.421875 
Q 29.59375 -1.421875 25.265625 0.953125 
Q 20.953125 3.328125 18.109375 8.203125 
L 18.109375 0 
L 9.078125 0 
L 9.078125 75.984375 
L 18.109375 75.984375 
z
" id="DejaVuSans-62"/>
    <path d="M 56.203125 29.59375 
L 56.203125 25.203125 
L 14.890625 25.203125 
Q 15.484375 15.921875 20.484375 11.0625 
Q 25.484375 6.203125 34.421875 6.203125 
Q 39.59375 6.203125 44.453125 7.46875 
Q 49.3125 8.734375 54.109375 11.28125 
L 54.109375 2.78125 
Q 49.265625 0.734375 44.1875 -0.34375 
Q 39.109375 -1.421875 33.890625 -1.421875 
Q 20.796875 -1.421875 13.15625 6.1875 
Q 5.515625 13.8125 5.515625 26.8125 
Q 5.515625 40.234375 12.765625 48.109375 
Q 20.015625 56 32.328125 56 
Q 43.359375 56 49.78125 48.890625 
Q 56.203125 41.796875 56.203125 29.59375 
z
M 47.21875 32.234375 
Q 47.125 39.59375 43.09375 43.984375 
Q 39.0625 48.390625 32.421875 48.390625 
Q 24.90625 48.390625 20.390625 44.140625 
Q 15.875 39.890625 15.1875 32.171875 
z
" id="DejaVuSans-65"/>
    <path d="M 54.890625 33.015625 
L 54.890625 0 
L 45.90625 0 
L 45.90625 32.71875 
Q 45.90625 40.484375 42.875 44.328125 
Q 39.84375 48.1875 33.796875 48.1875 
Q 26.515625 48.1875 22.3125 43.546875 
Q 18.109375 38.921875 18.109375 30.90625 
L 18.109375 0 
L 9.078125 0 
L 9.078125 54.6875 
L 18.109375 54.6875 
L 18.109375 46.1875 
Q 21.34375 51.125 25.703125 53.5625 
Q 30.078125 56 35.796875 56 
Q 45.21875 56 50.046875 50.171875 
Q 54.890625 44.34375 54.890625 33.015625 
z
" id="DejaVuSans-6e"/>
    <path d="M 54.890625 33.015625 
L 54.890625 0 
L 45.90625 0 
L 45.90625 32.71875 
Q 45.90625 40.484375 42.875 44.328125 
Q 39.84375 48.1875 33.796875 48.1875 
Q 26.515625 48.1875 22.3125 43.546875 
Q 18.109375 38.921875 18.109375 30.90625 
L 18.109375 0 
L 9.078125 0 
L 9.078125 75.984375 
L 18.109375 75.984375 
L 18.109375 46.1875 
Q 21.34375 51.125 25.703125 53.5625 
Q 30.078125 56 35.796875 56 
Q 45.21875 56 50.046875 50.171875 
Q 54.890625 44.34375 54.890625 33.015625 
z
" id="DejaVuSans-68"/>
    <path d="M 52 44.1875 
Q 55.375 50.25 60.0625 53.125 
Q 64.75 56 71.09375 56 
Q 79.640625 56 84.28125 50.015625 
Q 88.921875 44.046875 88.921875 33.015625 
L 88.921875 0 
L 79.890625 0 
L 79.890625 32.71875 
Q 79.890625 40.578125 77.09375 44.375 
Q 74.3125 48.1875 68.609375 48.1875 
Q 61.625 48.1875 57.5625 43.546875 
Q 53.515625 38.921875 53.515625 30.90625 
L 53.515625 0 
L 44.484375 0 
L 44.484375 32.71875 
Q 44.484375 40.625 41.703125 44.40625 
Q 38.921875 48.1875 33.109375 48.1875 
Q 26.21875 48.1875 22.15625 43.53125 
Q 18.109375 38.875 18.109375 30.90625 
L 18.109375 0 
L 9.078125 0 
L 9.078125 54.6875 
L 18.109375 54.6875 
L 18.109375 46.1875 
Q 21.1875 51.21875 25.484375 53.609375 
Q 29.78125 56 35.6875 56 
Q 41.65625 56 45.828125 52.96875 
Q 50 49.953125 52 44.1875 
z
" id="DejaVuSans-6d"/>
    <path d="M 41.109375 46.296875 
Q 39.59375 47.171875 37.8125 47.578125 
Q 36.03125 48 33.890625 48 
Q 26.265625 48 22.1875 43.046875 
Q 18.109375 38.09375 18.109375 28.8125 
L 18.109375 0 
L 9.078125 0 
L 9.078125 54.6875 
L 18.109375 54.6875 
L 18.109375 46.1875 
Q 20.953125 51.171875 25.484375 53.578125 
Q 30.03125 56 36.53125 56 
Q 37.453125 56 38.578125 55.875 
Q 39.703125 55.765625 41.0625 55.515625 
z
" id="DejaVuSans-72"/>
    <path d="M 9.078125 75.984375 
L 18.109375 75.984375 
L 18.109375 31.109375 
L 44.921875 54.6875 
L 56.390625 54.6875 
L 27.390625 29.109375 
L 57.625 0 
L 45.90625 0 
L 18.109375 26.703125 
L 18.109375 0 
L 9.078125 0 
z
" id="DejaVuSans-6b"/>
    <path id="DejaVuSans-20"/>
    <path d="M 31.78125 34.625 
Q 24.75 34.625 20.71875 30.859375 
Q 16.703125 27.09375 16.703125 20.515625 
Q 16.703125 13.921875 20.71875 10.15625 
Q 24.75 6.390625 31.78125 6.390625 
Q 38.8125 6.390625 42.859375 10.171875 
Q 46.921875 13.96875 46.921875 20.515625 
Q 46.921875 27.09375 42.890625 30.859375 
Q 38.875 34.625 31.78125 34.625 
z
M 21.921875 38.8125 
Q 15.578125 40.375 12.03125 44.71875 
Q 8.5 49.078125 8.5 55.328125 
Q 8.5 64.0625 14.71875 69.140625 
Q 20.953125 74.21875 31.78125 74.21875 
Q 42.671875 74.21875 48.875 69.140625 
Q 55.078125 64.0625 55.078125 55.328125 
Q 55.078125 49.078125 51.53125 44.71875 
Q 48 40.375 41.703125 38.8125 
Q 48.828125 37.15625 52.796875 32.3125 
Q 56.78125 27.484375 56.78125 20.515625 
Q 56.78125 9.90625 50.3125 4.234375 
Q 43.84375 -1.421875 31.78125 -1.421875 
Q 19.734375 -1.421875 13.25 4.234375 
Q 6.78125 9.90625 6.78125 20.515625 
Q 6.78125 27.484375 10.78125 32.3125 
Q 14.796875 37.15625 21.921875 38.8125 
z
M 18.3125 54.390625 
Q 18.3125 48.734375 21.84375 45.5625 
Q 25.390625 42.390625 31.78125 42.390625 
Q 38.140625 42.390625 41.71875 45.5625 
Q 45.3125 48.734375 45.3125 54.390625 
Q 45.3125 60.0625 41.71875 63.234375 
Q 38.140625 66.40625 31.78125 66.40625 
Q 25.390625 66.40625 21.84375 63.234375 
Q 18.3125 60.0625 18.3125 54.390625 
z
" id="DejaVuSans-38"/>
   </defs>
   <g transform="translate(138.180938 16.030125)scale(0.12 -0.12)">
    <use xlink:href="#DejaVuSans-62"/>
    <use x="63.476562" xlink:href="#DejaVuSans-65"/>
    <use x="125" xlink:href="#DejaVuSans-6e"/>
    <use x="188.378906" xlink:href="#DejaVuSans-63"/>
    <use x="243.359375" xlink:href="#DejaVuSans-68"/>
    <use x="306.738281" xlink:href="#DejaVuSans-6d"/>
    <use x="404.150391" xlink:href="#DejaVuSans-61"/>
    <use x="465.429688" xlink:href="#DejaVuSans-72"/>
    <use x="506.542969" xlink:href="#DejaVuSans-6b"/>
    <use x="564.453125" xlink:href="#DejaVuSans-20"/>
    <use x="596.240234" xlink:href="#DejaVuSans-32"/>
    <use x="659.863281" xlink:href="#DejaVuSans-30"/>
    <use x="723.486328" xlink:href="#DejaVuSans-31"/>
    <use x="787.109375" xlink:href="#DejaVuSans-37"/>
    <use x="850.732422" xlink:href="#DejaVuSans-31"/>
    <use x="914.355469" xlink:href="#DejaVuSans-30"/>
    <use x="977.978516" xlink:href="#DejaVuSans-32"/>
    <use x="1041.601562" xlink:href="#DejaVuSans-33"/>
    <use x="1105.224609" xlink:href="#DejaVuSans-5f"/>
    <use x="1155.224609" xlink:href="#DejaVuSans-30"/>
    <use x="1218.847656" xlink:href="#DejaVuSans-38"/>
    <use x="1282.470703" xlink:href="#DejaVuSans-34"/>
    <use x="1346.09375" xlink:href="#DejaVuSans-35"/>
    <use x="1409.716797" xlink:href="#DejaVuSans-31"/>
    <use x="1473.339844" xlink:href="#DejaVuSans-34"/>
   </g>
  </g>
 </g>
 <defs>
  <clipPath id="pa9e9260e9a">
   <rect height="118.272" width="158.72" x="57.6" y="41.472"/>
  </clipPath>
  <clipPath id="p2be764eada">
   <rect height="118.272" width="158.72" x="256" y="41.472"/>
  </clipPath>
  <clipPath id="p6d296ce66b">
   <rect height="118.272" width="158.72" x="57.6" y="189.312"/>
  </clipPath>
  <clipPath id="pfc9226375a">
   <rect height="118.272" width="158.72" x="256" y="189.312"/>
  </clipPath>
 </defs>
</svg>
