<?xml version="1.0" encoding="utf-8" standalone="no"?>
<!DOCTYPE svg PUBLIC "-//W3C//DTD SVG 1.1//EN"
  "http://www.w3.org/Graphics/SVG/1.1/DTD/svg11.dtd">
<!-- Created with matplotlib (http://matplotlib.org/) -->
<svg height="345pt" version="1.1" viewBox="0 0 460 345" width="460pt" xmlns="http://www.w3.org/2000/svg" xmlns:xlink="http://www.w3.org/1999/xlink">
 <defs>
  <style type="text/css">
*{stroke-linecap:butt;stroke-linejoin:round;}
  </style>
 </defs>
 <g id="figure_1">
  <g id="patch_1">
   <path d="M 0 345.6 
L 460.8 345.6 
L 460.8 0 
L 0 0 
z
" style="fill:#ffffff;"/>
  </g>
  <g id="axes_1">
   <g id="patch_2">
    <path d="M 57.6 159.744 
L 216.32 159.744 
L 216.32 41.472 
L 57.6 41.472 
z
" style="fill:#ffffff;"/>
   </g>
   <g id="matplotlib.axis_1">
    <g id="xtick_1">
     <g id="line2d_1">
      <path clip-path="url(#pde8914c6f3)" d="M 64.814545 159.744 
L 64.814545 41.472 
" style="fill:none;stroke:#b0b0b0;stroke-linecap:square;stroke-width:0.8;"/>
     </g>
     <g id="line2d_2">
      <defs>
       <path d="M 0 0 
L 0 3.5 
" id="md3709e4b6f" style="stroke:#000000;stroke-width:0.8;"/>
      </defs>
      <g>
       <use style="stroke:#000000;stroke-width:0.8;" x="64.814545" xlink:href="#md3709e4b6f" y="159.744"/>
      </g>
     </g>
     <g id="text_1">
      <!-- 0 -->
      <defs>
       <path d="M 31.78125 66.40625 
Q 24.171875 66.40625 20.328125 58.90625 
Q 16.5 51.421875 16.5 36.375 
Q 16.5 21.390625 20.328125 13.890625 
Q 24.171875 6.390625 31.78125 6.390625 
Q 39.453125 6.390625 43.28125 13.890625 
Q 47.125 21.390625 47.125 36.375 
Q 47.125 51.421875 43.28125 58.90625 
Q 39.453125 66.40625 31.78125 66.40625 
z
M 31.78125 74.21875 
Q 44.046875 74.21875 50.515625 64.515625 
Q 56.984375 54.828125 56.984375 36.375 
Q 56.984375 17.96875 50.515625 8.265625 
Q 44.046875 -1.421875 31.78125 -1.421875 
Q 19.53125 -1.421875 13.0625 8.265625 
Q 6.59375 17.96875 6.59375 36.375 
Q 6.59375 54.828125 13.0625 64.515625 
Q 19.53125 74.21875 31.78125 74.21875 
z
" id="DejaVuSans-30"/>
      </defs>
      <g transform="translate(61.633295 174.342437)scale(0.1 -0.1)">
       <use xlink:href="#DejaVuSans-30"/>
      </g>
     </g>
    </g>
    <g id="xtick_2">
     <g id="line2d_3">
      <path clip-path="url(#pde8914c6f3)" d="M 113.072375 159.744 
L 113.072375 41.472 
" style="fill:none;stroke:#b0b0b0;stroke-linecap:square;stroke-width:0.8;"/>
     </g>
     <g id="line2d_4">
      <g>
       <use style="stroke:#000000;stroke-width:0.8;" x="113.072375" xlink:href="#md3709e4b6f" y="159.744"/>
      </g>
     </g>
     <g id="text_2">
      <!-- 100 -->
      <defs>
       <path d="M 12.40625 8.296875 
L 28.515625 8.296875 
L 28.515625 63.921875 
L 10.984375 60.40625 
L 10.984375 69.390625 
L 28.421875 72.90625 
L 38.28125 72.90625 
L 38.28125 8.296875 
L 54.390625 8.296875 
L 54.390625 0 
L 12.40625 0 
z
" id="DejaVuSans-31"/>
      </defs>
      <g transform="translate(103.528625 174.342437)scale(0.1 -0.1)">
       <use xlink:href="#DejaVuSans-31"/>
       <use x="63.623047" xlink:href="#DejaVuSans-30"/>
       <use x="127.246094" xlink:href="#DejaVuSans-30"/>
      </g>
     </g>
    </g>
    <g id="xtick_3">
     <g id="line2d_5">
      <path clip-path="url(#pde8914c6f3)" d="M 161.330204 159.744 
L 161.330204 41.472 
" style="fill:none;stroke:#b0b0b0;stroke-linecap:square;stroke-width:0.8;"/>
     </g>
     <g id="line2d_6">
      <g>
       <use style="stroke:#000000;stroke-width:0.8;" x="161.330204" xlink:href="#md3709e4b6f" y="159.744"/>
      </g>
     </g>
     <g id="text_3">
      <!-- 200 -->
      <defs>
       <path d="M 19.1875 8.296875 
L 53.609375 8.296875 
L 53.609375 0 
L 7.328125 0 
L 7.328125 8.296875 
Q 12.9375 14.109375 22.625 23.890625 
Q 32.328125 33.6875 34.8125 36.53125 
Q 39.546875 41.84375 41.421875 45.53125 
Q 43.3125 49.21875 43.3125 52.78125 
Q 43.3125 58.59375 39.234375 62.25 
Q 35.15625 65.921875 28.609375 65.921875 
Q 23.96875 65.921875 18.8125 64.3125 
Q 13.671875 62.703125 7.8125 59.421875 
L 7.8125 69.390625 
Q 13.765625 71.78125 18.9375 73 
Q 24.125 74.21875 28.421875 74.21875 
Q 39.75 74.21875 46.484375 68.546875 
Q 53.21875 62.890625 53.21875 53.421875 
Q 53.21875 48.921875 51.53125 44.890625 
Q 49.859375 40.875 45.40625 35.40625 
Q 44.1875 33.984375 37.640625 27.21875 
Q 31.109375 20.453125 19.1875 8.296875 
z
" id="DejaVuSans-32"/>
      </defs>
      <g transform="translate(151.786454 174.342437)scale(0.1 -0.1)">
       <use xlink:href="#DejaVuSans-32"/>
       <use x="63.623047" xlink:href="#DejaVuSans-30"/>
       <use x="127.246094" xlink:href="#DejaVuSans-30"/>
      </g>
     </g>
    </g>
    <g id="xtick_4">
     <g id="line2d_7">
      <path clip-path="url(#pde8914c6f3)" d="M 209.588033 159.744 
L 209.588033 41.472 
" style="fill:none;stroke:#b0b0b0;stroke-linecap:square;stroke-width:0.8;"/>
     </g>
     <g id="line2d_8">
      <g>
       <use style="stroke:#000000;stroke-width:0.8;" x="209.588033" xlink:href="#md3709e4b6f" y="159.744"/>
      </g>
     </g>
     <g id="text_4">
      <!-- 300 -->
      <defs>
       <path d="M 40.578125 39.3125 
Q 47.65625 37.796875 51.625 33 
Q 55.609375 28.21875 55.609375 21.1875 
Q 55.609375 10.40625 48.1875 4.484375 
Q 40.765625 -1.421875 27.09375 -1.421875 
Q 22.515625 -1.421875 17.65625 -0.515625 
Q 12.796875 0.390625 7.625 2.203125 
L 7.625 11.71875 
Q 11.71875 9.328125 16.59375 8.109375 
Q 21.484375 6.890625 26.8125 6.890625 
Q 36.078125 6.890625 40.9375 10.546875 
Q 45.796875 14.203125 45.796875 21.1875 
Q 45.796875 27.640625 41.28125 31.265625 
Q 36.765625 34.90625 28.71875 34.90625 
L 20.21875 34.90625 
L 20.21875 43.015625 
L 29.109375 43.015625 
Q 36.375 43.015625 40.234375 45.921875 
Q 44.09375 48.828125 44.09375 54.296875 
Q 44.09375 59.90625 40.109375 62.90625 
Q 36.140625 65.921875 28.71875 65.921875 
Q 24.65625 65.921875 20.015625 65.03125 
Q 15.375 64.15625 9.8125 62.3125 
L 9.8125 71.09375 
Q 15.4375 72.65625 20.34375 73.4375 
Q 25.25 74.21875 29.59375 74.21875 
Q 40.828125 74.21875 47.359375 69.109375 
Q 53.90625 64.015625 53.90625 55.328125 
Q 53.90625 49.265625 50.4375 45.09375 
Q 46.96875 40.921875 40.578125 39.3125 
z
" id="DejaVuSans-33"/>
      </defs>
      <g transform="translate(200.044283 174.342437)scale(0.1 -0.1)">
       <use xlink:href="#DejaVuSans-33"/>
       <use x="63.623047" xlink:href="#DejaVuSans-30"/>
       <use x="127.246094" xlink:href="#DejaVuSans-30"/>
      </g>
     </g>
    </g>
   </g>
   <g id="matplotlib.axis_2">
    <g id="ytick_1">
     <g id="line2d_9">
      <path clip-path="url(#pde8914c6f3)" d="M 57.6 154.47442 
L 216.32 154.47442 
" style="fill:none;stroke:#b0b0b0;stroke-linecap:square;stroke-width:0.8;"/>
     </g>
     <g id="line2d_10">
      <defs>
       <path d="M 0 0 
L -3.5 0 
" id="mf09621b4fb" style="stroke:#000000;stroke-width:0.8;"/>
      </defs>
      <g>
       <use style="stroke:#000000;stroke-width:0.8;" x="57.6" xlink:href="#mf09621b4fb" y="154.47442"/>
      </g>
     </g>
     <g id="text_5">
      <!-- 0.00 -->
      <defs>
       <path d="M 10.6875 12.40625 
L 21 12.40625 
L 21 0 
L 10.6875 0 
z
" id="DejaVuSans-2e"/>
      </defs>
      <g transform="translate(28.334375 158.273639)scale(0.1 -0.1)">
       <use xlink:href="#DejaVuSans-30"/>
       <use x="63.623047" xlink:href="#DejaVuSans-2e"/>
       <use x="95.410156" xlink:href="#DejaVuSans-30"/>
       <use x="159.033203" xlink:href="#DejaVuSans-30"/>
      </g>
     </g>
    </g>
    <g id="ytick_2">
     <g id="line2d_11">
      <path clip-path="url(#pde8914c6f3)" d="M 57.6 127.230818 
L 216.32 127.230818 
" style="fill:none;stroke:#b0b0b0;stroke-linecap:square;stroke-width:0.8;"/>
     </g>
     <g id="line2d_12">
      <g>
       <use style="stroke:#000000;stroke-width:0.8;" x="57.6" xlink:href="#mf09621b4fb" y="127.230818"/>
      </g>
     </g>
     <g id="text_6">
      <!-- 0.25 -->
      <defs>
       <path d="M 10.796875 72.90625 
L 49.515625 72.90625 
L 49.515625 64.59375 
L 19.828125 64.59375 
L 19.828125 46.734375 
Q 21.96875 47.46875 24.109375 47.828125 
Q 26.265625 48.1875 28.421875 48.1875 
Q 40.625 48.1875 47.75 41.5 
Q 54.890625 34.8125 54.890625 23.390625 
Q 54.890625 11.625 47.5625 5.09375 
Q 40.234375 -1.421875 26.90625 -1.421875 
Q 22.3125 -1.421875 17.546875 -0.640625 
Q 12.796875 0.140625 7.71875 1.703125 
L 7.71875 11.625 
Q 12.109375 9.234375 16.796875 8.0625 
Q 21.484375 6.890625 26.703125 6.890625 
Q 35.15625 6.890625 40.078125 11.328125 
Q 45.015625 15.765625 45.015625 23.390625 
Q 45.015625 31 40.078125 35.4375 
Q 35.15625 39.890625 26.703125 39.890625 
Q 22.75 39.890625 18.8125 39.015625 
Q 14.890625 38.140625 10.796875 36.28125 
z
" id="DejaVuSans-35"/>
      </defs>
      <g transform="translate(28.334375 131.030036)scale(0.1 -0.1)">
       <use xlink:href="#DejaVuSans-30"/>
       <use x="63.623047" xlink:href="#DejaVuSans-2e"/>
       <use x="95.410156" xlink:href="#DejaVuSans-32"/>
       <use x="159.033203" xlink:href="#DejaVuSans-35"/>
      </g>
     </g>
    </g>
    <g id="ytick_3">
     <g id="line2d_13">
      <path clip-path="url(#pde8914c6f3)" d="M 57.6 99.987215 
L 216.32 99.987215 
" style="fill:none;stroke:#b0b0b0;stroke-linecap:square;stroke-width:0.8;"/>
     </g>
     <g id="line2d_14">
      <g>
       <use style="stroke:#000000;stroke-width:0.8;" x="57.6" xlink:href="#mf09621b4fb" y="99.987215"/>
      </g>
     </g>
     <g id="text_7">
      <!-- 0.50 -->
      <g transform="translate(28.334375 103.786433)scale(0.1 -0.1)">
       <use xlink:href="#DejaVuSans-30"/>
       <use x="63.623047" xlink:href="#DejaVuSans-2e"/>
       <use x="95.410156" xlink:href="#DejaVuSans-35"/>
       <use x="159.033203" xlink:href="#DejaVuSans-30"/>
      </g>
     </g>
    </g>
    <g id="ytick_4">
     <g id="line2d_15">
      <path clip-path="url(#pde8914c6f3)" d="M 57.6 72.743612 
L 216.32 72.743612 
" style="fill:none;stroke:#b0b0b0;stroke-linecap:square;stroke-width:0.8;"/>
     </g>
     <g id="line2d_16">
      <g>
       <use style="stroke:#000000;stroke-width:0.8;" x="57.6" xlink:href="#mf09621b4fb" y="72.743612"/>
      </g>
     </g>
     <g id="text_8">
      <!-- 0.75 -->
      <defs>
       <path d="M 8.203125 72.90625 
L 55.078125 72.90625 
L 55.078125 68.703125 
L 28.609375 0 
L 18.3125 0 
L 43.21875 64.59375 
L 8.203125 64.59375 
z
" id="DejaVuSans-37"/>
      </defs>
      <g transform="translate(28.334375 76.542831)scale(0.1 -0.1)">
       <use xlink:href="#DejaVuSans-30"/>
       <use x="63.623047" xlink:href="#DejaVuSans-2e"/>
       <use x="95.410156" xlink:href="#DejaVuSans-37"/>
       <use x="159.033203" xlink:href="#DejaVuSans-35"/>
      </g>
     </g>
    </g>
    <g id="ytick_5">
     <g id="line2d_17">
      <path clip-path="url(#pde8914c6f3)" d="M 57.6 45.500009 
L 216.32 45.500009 
" style="fill:none;stroke:#b0b0b0;stroke-linecap:square;stroke-width:0.8;"/>
     </g>
     <g id="line2d_18">
      <g>
       <use style="stroke:#000000;stroke-width:0.8;" x="57.6" xlink:href="#mf09621b4fb" y="45.500009"/>
      </g>
     </g>
     <g id="text_9">
      <!-- 1.00 -->
      <g transform="translate(28.334375 49.299228)scale(0.1 -0.1)">
       <use xlink:href="#DejaVuSans-31"/>
       <use x="63.623047" xlink:href="#DejaVuSans-2e"/>
       <use x="95.410156" xlink:href="#DejaVuSans-30"/>
       <use x="159.033203" xlink:href="#DejaVuSans-30"/>
      </g>
     </g>
    </g>
   </g>
   <g id="line2d_19">
    <path clip-path="url(#pde8914c6f3)" d="M 64.814545 154.368 
L 65.297124 154.119686 
L 66.26228 152.700748 
L 66.744859 151.601072 
L 67.227437 148.763196 
L 68.192593 146.138161 
L 68.675172 143.122919 
L 69.15775 141.065459 
L 69.640328 138.156637 
L 70.122907 136.524859 
L 71.088063 129.926799 
L 71.570642 126.627768 
L 72.05322 125.705459 
L 72.535798 121.661487 
L 73.018376 119.249293 
L 73.500955 117.830355 
L 73.983533 113.467122 
L 74.94869 108.323472 
L 75.431268 104.031186 
L 75.913846 101.477098 
L 76.396424 100.022687 
L 76.879003 97.610493 
L 77.361581 94.59525 
L 77.844159 93.672941 
L 79.291894 86.329938 
L 79.774472 84.875528 
L 80.257051 84.166058 
L 80.739629 80.618715 
L 81.704786 78.986936 
L 82.669942 75.404119 
L 83.152521 75.297698 
L 84.117677 71.821302 
L 84.600255 72.317929 
L 85.082834 70.898992 
L 85.565412 69.0189 
L 86.04799 68.273958 
L 86.530569 67.919223 
L 87.013147 66.890493 
L 87.495725 66.500286 
L 88.94346 64.442826 
L 89.426038 64.513773 
L 89.908617 62.562734 
L 90.391195 61.534004 
L 90.873773 61.604951 
L 91.356351 60.540748 
L 91.83893 60.15054 
L 92.321508 59.228231 
L 92.804086 59.441072 
L 93.286665 58.341395 
L 93.769243 58.199501 
L 94.251821 58.660656 
L 95.216978 57.277192 
L 95.699556 57.490033 
L 96.182134 57.277192 
L 96.664713 56.000148 
L 97.147291 56.957931 
L 97.629869 56.74509 
L 98.595026 55.042365 
L 99.077604 55.113312 
L 99.560182 54.545737 
L 100.042761 54.581211 
L 100.525339 54.084582 
L 101.007917 54.226476 
L 101.490496 53.765321 
L 101.973074 53.765321 
L 102.455652 53.978162 
L 103.420809 53.091326 
L 103.903387 53.23322 
L 104.385965 52.417331 
L 104.868544 52.523751 
L 105.351122 52.843012 
L 105.8337 52.275437 
L 106.316279 52.381857 
L 106.798857 51.778809 
L 107.764013 52.133543 
L 108.246592 51.246707 
L 108.72917 51.778809 
L 109.211748 51.530495 
L 109.694327 51.459548 
L 110.176905 50.821026 
L 110.659483 51.033866 
L 111.142061 50.998393 
L 111.62464 51.778809 
L 112.107218 50.111557 
L 112.589796 51.211234 
L 113.072375 50.608185 
L 113.554953 50.998393 
L 114.037531 50.111557 
L 114.520109 50.466291 
L 115.002688 49.437561 
L 115.485266 50.927446 
L 115.967844 50.076083 
L 116.450423 50.253451 
L 116.933001 49.650402 
L 117.415579 50.466291 
L 117.898157 49.969663 
L 118.380736 50.324398 
L 118.863314 49.473035 
L 119.345892 49.543982 
L 120.311049 49.402088 
L 120.793627 50.076083 
L 121.276206 49.898716 
L 121.758784 48.692619 
L 122.241362 50.182504 
L 122.72394 49.508508 
L 123.206519 49.898716 
L 123.689097 49.366615 
L 124.171675 49.1183 
L 124.654254 49.756822 
L 125.136832 49.082827 
L 125.61941 48.728093 
L 126.101988 49.685875 
L 126.584567 48.728093 
L 127.067145 49.260194 
L 127.549723 48.90546 
L 128.51488 49.118301 
L 128.997458 48.692619 
L 129.480036 48.550725 
L 129.962615 49.082827 
L 130.445193 48.515252 
L 130.927771 48.586199 
L 131.41035 48.79904 
L 131.892928 48.834513 
L 132.375506 48.515252 
L 132.858085 49.082827 
L 133.340663 48.515252 
L 133.823241 48.550725 
L 134.305819 48.231464 
L 135.270976 48.728093 
L 135.753554 48.586199 
L 136.236133 48.586199 
L 136.718711 47.98315 
L 137.201289 48.337885 
L 137.683867 48.550725 
L 138.166446 48.408831 
L 138.649024 48.125044 
L 139.131602 48.337885 
L 140.096759 48.266938 
L 140.579337 48.799039 
L 141.061915 48.621672 
L 141.544494 48.018624 
L 142.027072 47.699363 
L 142.50965 48.125044 
L 142.992229 47.98315 
L 143.474807 48.195991 
L 143.957385 48.266938 
L 144.922542 47.841257 
L 145.40512 47.912203 
L 145.887698 47.557469 
L 146.370277 48.515252 
L 146.852855 47.77031 
L 147.335433 48.231464 
L 147.818012 47.947677 
L 148.30059 48.231464 
L 148.783168 47.805783 
L 149.265746 47.592942 
L 149.748325 47.521996 
L 150.230903 48.160518 
L 150.713481 47.805783 
L 151.19606 47.592942 
L 151.678638 48.231464 
L 152.161216 47.87673 
L 152.643794 47.98315 
L 153.126373 47.77031 
L 153.608951 47.380102 
L 154.091529 47.912203 
L 154.574108 47.947677 
L 155.056686 47.096314 
L 155.539264 47.947677 
L 156.021843 47.628416 
L 156.986999 48.231464 
L 157.469577 47.380102 
L 157.952156 48.018624 
L 158.434734 47.841257 
L 158.917312 48.018624 
L 159.399891 47.415575 
L 159.882469 47.734836 
L 160.365047 47.557469 
L 160.847625 48.302411 
L 161.330204 48.054097 
L 162.29536 47.025367 
L 162.777939 47.734836 
L 164.225673 47.415575 
L 165.19083 47.734836 
L 165.673408 47.592942 
L 166.155987 47.167261 
L 166.638565 47.805783 
L 167.121143 47.096314 
L 167.603721 47.628416 
L 168.0863 47.309155 
L 169.051456 47.699363 
L 169.534035 47.734836 
L 170.016613 47.025367 
L 170.499191 47.628416 
L 171.464348 48.08957 
L 171.946926 47.557469 
L 172.429504 47.557469 
L 172.912083 47.98315 
L 173.877239 47.167261 
L 174.359818 47.663889 
L 174.842396 47.202734 
L 175.807552 47.451049 
L 176.290131 47.238208 
L 177.737866 47.557469 
L 178.220444 47.380102 
L 181.115914 47.557469 
L 181.598492 47.202734 
L 182.08107 47.947677 
L 182.563649 47.663889 
L 183.046227 47.521996 
L 183.528805 47.238208 
L 184.011383 47.663889 
L 184.97654 47.628416 
L 185.459118 47.380102 
L 186.906853 47.131788 
L 187.389431 47.167261 
L 187.87201 47.912203 
L 188.354588 47.344628 
L 188.837166 47.557469 
L 189.319745 47.238208 
L 189.802323 47.557469 
L 190.284901 47.734836 
L 190.767479 47.380102 
L 191.250058 46.848 
L 191.732636 47.344628 
L 192.215214 47.486522 
L 192.697793 47.415575 
L 193.180371 47.025367 
L 193.662949 47.380102 
L 194.145528 47.380102 
L 194.628106 47.98315 
L 195.110684 47.238208 
L 195.593262 46.883473 
L 196.075841 47.841257 
L 196.558419 47.628416 
L 197.040997 47.273681 
L 197.523576 47.663889 
L 198.006154 47.663889 
L 198.488732 47.521995 
L 198.97131 47.557469 
L 199.453889 47.238208 
L 199.936467 47.344628 
L 200.419045 47.309155 
L 200.901624 46.848 
L 201.384202 48.054097 
L 201.86678 46.848 
L 202.831937 47.77031 
L 203.314515 47.025367 
L 203.797093 47.202734 
L 204.279672 47.521995 
L 204.76225 47.486522 
L 205.244828 46.989894 
L 205.727407 47.451048 
L 206.209985 47.096314 
L 207.175141 46.989894 
L 207.65772 47.380102 
L 208.140298 47.096314 
L 209.105455 47.131788 
L 209.105455 47.131788 
" style="fill:none;stroke:#1f77b4;stroke-linecap:square;stroke-width:1.5;"/>
   </g>
   <g id="patch_3">
    <path d="M 57.6 159.744 
L 57.6 41.472 
" style="fill:none;stroke:#000000;stroke-linecap:square;stroke-linejoin:miter;stroke-width:0.8;"/>
   </g>
   <g id="patch_4">
    <path d="M 216.32 159.744 
L 216.32 41.472 
" style="fill:none;stroke:#000000;stroke-linecap:square;stroke-linejoin:miter;stroke-width:0.8;"/>
   </g>
   <g id="patch_5">
    <path d="M 57.6 159.744 
L 216.32 159.744 
" style="fill:none;stroke:#000000;stroke-linecap:square;stroke-linejoin:miter;stroke-width:0.8;"/>
   </g>
   <g id="patch_6">
    <path d="M 57.6 41.472 
L 216.32 41.472 
" style="fill:none;stroke:#000000;stroke-linecap:square;stroke-linejoin:miter;stroke-width:0.8;"/>
   </g>
   <g id="text_10">
    <!-- acc -->
    <defs>
     <path d="M 34.28125 27.484375 
Q 23.390625 27.484375 19.1875 25 
Q 14.984375 22.515625 14.984375 16.5 
Q 14.984375 11.71875 18.140625 8.90625 
Q 21.296875 6.109375 26.703125 6.109375 
Q 34.1875 6.109375 38.703125 11.40625 
Q 43.21875 16.703125 43.21875 25.484375 
L 43.21875 27.484375 
z
M 52.203125 31.203125 
L 52.203125 0 
L 43.21875 0 
L 43.21875 8.296875 
Q 40.140625 3.328125 35.546875 0.953125 
Q 30.953125 -1.421875 24.3125 -1.421875 
Q 15.921875 -1.421875 10.953125 3.296875 
Q 6 8.015625 6 15.921875 
Q 6 25.140625 12.171875 29.828125 
Q 18.359375 34.515625 30.609375 34.515625 
L 43.21875 34.515625 
L 43.21875 35.40625 
Q 43.21875 41.609375 39.140625 45 
Q 35.0625 48.390625 27.6875 48.390625 
Q 23 48.390625 18.546875 47.265625 
Q 14.109375 46.140625 10.015625 43.890625 
L 10.015625 52.203125 
Q 14.9375 54.109375 19.578125 55.046875 
Q 24.21875 56 28.609375 56 
Q 40.484375 56 46.34375 49.84375 
Q 52.203125 43.703125 52.203125 31.203125 
z
" id="DejaVuSans-61"/>
     <path d="M 48.78125 52.59375 
L 48.78125 44.1875 
Q 44.96875 46.296875 41.140625 47.34375 
Q 37.3125 48.390625 33.40625 48.390625 
Q 24.65625 48.390625 19.8125 42.84375 
Q 14.984375 37.3125 14.984375 27.296875 
Q 14.984375 17.28125 19.8125 11.734375 
Q 24.65625 6.203125 33.40625 6.203125 
Q 37.3125 6.203125 41.140625 7.25 
Q 44.96875 8.296875 48.78125 10.40625 
L 48.78125 2.09375 
Q 45.015625 0.34375 40.984375 -0.53125 
Q 36.96875 -1.421875 32.421875 -1.421875 
Q 20.0625 -1.421875 12.78125 6.34375 
Q 5.515625 14.109375 5.515625 27.296875 
Q 5.515625 40.671875 12.859375 48.328125 
Q 20.21875 56 33.015625 56 
Q 37.15625 56 41.109375 55.140625 
Q 45.0625 54.296875 48.78125 52.59375 
z
" id="DejaVuSans-63"/>
    </defs>
    <g transform="translate(126.685 35.472)scale(0.12 -0.12)">
     <use xlink:href="#DejaVuSans-61"/>
     <use x="61.279297" xlink:href="#DejaVuSans-63"/>
     <use x="116.259766" xlink:href="#DejaVuSans-63"/>
    </g>
   </g>
  </g>
  <g id="axes_2">
   <g id="patch_7">
    <path d="M 256 159.744 
L 414.72 159.744 
L 414.72 41.472 
L 256 41.472 
z
" style="fill:#ffffff;"/>
   </g>
   <g id="matplotlib.axis_3">
    <g id="xtick_5">
     <g id="line2d_20">
      <path clip-path="url(#p0e6ac95744)" d="M 263.214545 159.744 
L 263.214545 41.472 
" style="fill:none;stroke:#b0b0b0;stroke-linecap:square;stroke-width:0.8;"/>
     </g>
     <g id="line2d_21">
      <g>
       <use style="stroke:#000000;stroke-width:0.8;" x="263.214545" xlink:href="#md3709e4b6f" y="159.744"/>
      </g>
     </g>
     <g id="text_11">
      <!-- 0 -->
      <g transform="translate(260.033295 174.342437)scale(0.1 -0.1)">
       <use xlink:href="#DejaVuSans-30"/>
      </g>
     </g>
    </g>
    <g id="xtick_6">
     <g id="line2d_22">
      <path clip-path="url(#p0e6ac95744)" d="M 311.472375 159.744 
L 311.472375 41.472 
" style="fill:none;stroke:#b0b0b0;stroke-linecap:square;stroke-width:0.8;"/>
     </g>
     <g id="line2d_23">
      <g>
       <use style="stroke:#000000;stroke-width:0.8;" x="311.472375" xlink:href="#md3709e4b6f" y="159.744"/>
      </g>
     </g>
     <g id="text_12">
      <!-- 100 -->
      <g transform="translate(301.928625 174.342437)scale(0.1 -0.1)">
       <use xlink:href="#DejaVuSans-31"/>
       <use x="63.623047" xlink:href="#DejaVuSans-30"/>
       <use x="127.246094" xlink:href="#DejaVuSans-30"/>
      </g>
     </g>
    </g>
    <g id="xtick_7">
     <g id="line2d_24">
      <path clip-path="url(#p0e6ac95744)" d="M 359.730204 159.744 
L 359.730204 41.472 
" style="fill:none;stroke:#b0b0b0;stroke-linecap:square;stroke-width:0.8;"/>
     </g>
     <g id="line2d_25">
      <g>
       <use style="stroke:#000000;stroke-width:0.8;" x="359.730204" xlink:href="#md3709e4b6f" y="159.744"/>
      </g>
     </g>
     <g id="text_13">
      <!-- 200 -->
      <g transform="translate(350.186454 174.342437)scale(0.1 -0.1)">
       <use xlink:href="#DejaVuSans-32"/>
       <use x="63.623047" xlink:href="#DejaVuSans-30"/>
       <use x="127.246094" xlink:href="#DejaVuSans-30"/>
      </g>
     </g>
    </g>
    <g id="xtick_8">
     <g id="line2d_26">
      <path clip-path="url(#p0e6ac95744)" d="M 407.988033 159.744 
L 407.988033 41.472 
" style="fill:none;stroke:#b0b0b0;stroke-linecap:square;stroke-width:0.8;"/>
     </g>
     <g id="line2d_27">
      <g>
       <use style="stroke:#000000;stroke-width:0.8;" x="407.988033" xlink:href="#md3709e4b6f" y="159.744"/>
      </g>
     </g>
     <g id="text_14">
      <!-- 300 -->
      <g transform="translate(398.444283 174.342437)scale(0.1 -0.1)">
       <use xlink:href="#DejaVuSans-33"/>
       <use x="63.623047" xlink:href="#DejaVuSans-30"/>
       <use x="127.246094" xlink:href="#DejaVuSans-30"/>
      </g>
     </g>
    </g>
   </g>
   <g id="matplotlib.axis_4">
    <g id="ytick_6">
     <g id="line2d_28">
      <path clip-path="url(#p0e6ac95744)" d="M 256 155.463972 
L 414.72 155.463972 
" style="fill:none;stroke:#b0b0b0;stroke-linecap:square;stroke-width:0.8;"/>
     </g>
     <g id="line2d_29">
      <g>
       <use style="stroke:#000000;stroke-width:0.8;" x="256" xlink:href="#mf09621b4fb" y="155.463972"/>
      </g>
     </g>
     <g id="text_15">
      <!-- 0 -->
      <g transform="translate(242.6375 159.263191)scale(0.1 -0.1)">
       <use xlink:href="#DejaVuSans-30"/>
      </g>
     </g>
    </g>
    <g id="ytick_7">
     <g id="line2d_30">
      <path clip-path="url(#p0e6ac95744)" d="M 256 116.320497 
L 414.72 116.320497 
" style="fill:none;stroke:#b0b0b0;stroke-linecap:square;stroke-width:0.8;"/>
     </g>
     <g id="line2d_31">
      <g>
       <use style="stroke:#000000;stroke-width:0.8;" x="256" xlink:href="#mf09621b4fb" y="116.320497"/>
      </g>
     </g>
     <g id="text_16">
      <!-- 2 -->
      <g transform="translate(242.6375 120.119716)scale(0.1 -0.1)">
       <use xlink:href="#DejaVuSans-32"/>
      </g>
     </g>
    </g>
    <g id="ytick_8">
     <g id="line2d_32">
      <path clip-path="url(#p0e6ac95744)" d="M 256 77.177022 
L 414.72 77.177022 
" style="fill:none;stroke:#b0b0b0;stroke-linecap:square;stroke-width:0.8;"/>
     </g>
     <g id="line2d_33">
      <g>
       <use style="stroke:#000000;stroke-width:0.8;" x="256" xlink:href="#mf09621b4fb" y="77.177022"/>
      </g>
     </g>
     <g id="text_17">
      <!-- 4 -->
      <defs>
       <path d="M 37.796875 64.3125 
L 12.890625 25.390625 
L 37.796875 25.390625 
z
M 35.203125 72.90625 
L 47.609375 72.90625 
L 47.609375 25.390625 
L 58.015625 25.390625 
L 58.015625 17.1875 
L 47.609375 17.1875 
L 47.609375 0 
L 37.796875 0 
L 37.796875 17.1875 
L 4.890625 17.1875 
L 4.890625 26.703125 
z
" id="DejaVuSans-34"/>
      </defs>
      <g transform="translate(242.6375 80.976241)scale(0.1 -0.1)">
       <use xlink:href="#DejaVuSans-34"/>
      </g>
     </g>
    </g>
   </g>
   <g id="line2d_34">
    <path clip-path="url(#p0e6ac95744)" d="M 263.214545 46.848 
L 263.697124 47.033435 
L 264.179702 49.763845 
L 265.144859 63.437704 
L 265.627437 70.051758 
L 266.592593 79.420064 
L 268.040328 89.728631 
L 269.970642 100.845597 
L 270.935798 105.347864 
L 271.900955 109.997898 
L 274.313846 120.057402 
L 274.796424 121.284673 
L 275.761581 124.812336 
L 276.244159 126.001818 
L 276.726738 127.838168 
L 278.657051 131.999726 
L 279.139629 133.69569 
L 279.622207 134.160588 
L 281.069942 137.170482 
L 282.035099 138.522585 
L 282.517677 139.437101 
L 283.000255 139.476491 
L 283.482834 139.986738 
L 283.965412 141.221818 
L 285.895725 143.067246 
L 286.378303 143.323405 
L 286.860882 143.871209 
L 287.34346 144.718942 
L 287.826038 144.806926 
L 288.791195 145.992438 
L 289.273773 145.739832 
L 289.756351 146.650816 
L 290.23893 146.417652 
L 290.721508 147.293358 
L 291.204086 146.914832 
L 291.686665 147.664867 
L 292.169243 148.038427 
L 292.651821 147.978435 
L 294.099556 148.724014 
L 294.582134 148.917286 
L 295.064713 149.279077 
L 295.547291 149.076967 
L 296.029869 149.082001 
L 296.512448 149.741137 
L 297.477604 149.680776 
L 297.960182 150.044335 
L 298.442761 150.099139 
L 298.925339 150.364076 
L 300.373074 150.406327 
L 300.855652 150.654571 
L 301.33823 150.655843 
L 301.820809 150.404519 
L 302.303387 150.951617 
L 302.785965 151.160342 
L 303.268544 150.926406 
L 304.716279 151.670479 
L 305.198857 151.594651 
L 305.681435 151.713806 
L 306.164013 151.621866 
L 308.576905 151.987263 
L 309.059483 151.962622 
L 309.542061 152.269583 
L 310.02464 151.971605 
L 310.507218 152.303156 
L 310.989796 151.875596 
L 311.472375 152.23404 
L 311.954953 152.186384 
L 312.437531 152.756552 
L 312.920109 152.49027 
L 313.402688 152.87784 
L 313.885266 152.41555 
L 314.367844 152.941143 
L 314.850423 152.905863 
L 315.333001 152.341583 
L 316.298157 152.719772 
L 316.780736 152.65615 
L 317.263314 152.90873 
L 317.745892 153.034254 
L 318.711049 152.81764 
L 319.193627 152.844415 
L 319.676206 152.579921 
L 320.158784 153.373633 
L 320.641362 152.57337 
L 321.12394 153.327435 
L 321.606519 152.780977 
L 322.089097 152.792159 
L 322.571675 153.038144 
L 323.054254 153.019637 
L 323.536832 152.135216 
L 324.01941 153.48897 
L 324.501988 152.921701 
L 324.984567 153.504194 
L 325.949723 153.173578 
L 326.432302 153.321641 
L 326.91488 153.096339 
L 327.397458 153.54531 
L 327.880036 153.53273 
L 328.362615 153.169162 
L 328.845193 153.697224 
L 329.327771 153.281317 
L 329.81035 153.459585 
L 330.292928 153.81875 
L 330.775506 153.519398 
L 331.258085 152.44676 
L 331.740663 153.42267 
L 332.223241 153.359613 
L 332.705819 153.663591 
L 333.188398 153.4273 
L 333.670976 152.761654 
L 334.153554 153.418892 
L 334.636133 153.306176 
L 335.601289 153.651187 
L 336.083867 153.296598 
L 336.566446 153.443575 
L 337.049024 153.742701 
L 337.531602 153.563516 
L 338.014181 153.744996 
L 338.496759 153.261784 
L 338.979337 153.054178 
L 339.461915 153.482065 
L 339.944494 153.593051 
L 340.427072 154.003016 
L 340.90965 153.275969 
L 341.392229 153.74111 
L 342.357385 153.334238 
L 342.839964 153.360204 
L 343.322542 153.931358 
L 343.80512 153.76216 
L 344.287698 154.019098 
L 344.770277 153.609829 
L 345.252855 153.944994 
L 345.735433 153.023803 
L 346.218012 153.50303 
L 347.183168 153.822814 
L 347.665746 152.977196 
L 348.148325 153.639473 
L 348.630903 153.629637 
L 349.113481 153.320966 
L 349.59606 153.883369 
L 350.078638 153.452642 
L 350.561216 153.701167 
L 351.043794 153.669318 
L 351.526373 153.478415 
L 352.008951 153.485013 
L 352.491529 153.838879 
L 352.974108 154.035345 
L 353.456686 154.368 
L 353.939264 153.588585 
L 354.421843 153.917494 
L 355.386999 153.146027 
L 355.869577 153.954317 
L 356.352156 153.366755 
L 356.834734 154.026689 
L 357.317312 153.381016 
L 357.799891 153.790002 
L 358.282469 153.41649 
L 358.765047 153.971661 
L 359.247625 153.485389 
L 359.730204 153.599414 
L 360.69536 154.226073 
L 361.177939 153.704741 
L 361.660517 153.433366 
L 362.625673 153.801997 
L 363.108252 153.80035 
L 363.59083 153.401316 
L 364.073408 153.45589 
L 364.555987 154.029421 
L 365.038565 153.146215 
L 365.521143 153.742081 
L 366.003721 153.667513 
L 366.4863 153.92901 
L 366.968878 153.582724 
L 367.451456 153.985284 
L 367.934035 153.593832 
L 368.416613 154.077905 
L 368.899191 153.740411 
L 369.38177 153.93818 
L 369.864348 153.115591 
L 370.346926 153.659701 
L 370.829504 153.777853 
L 371.312083 153.532213 
L 371.794661 153.831382 
L 372.277239 153.983832 
L 372.759818 153.840294 
L 373.242396 154.173238 
L 373.724974 154.313567 
L 374.207552 153.685049 
L 375.172709 153.945775 
L 376.137866 153.943091 
L 376.620444 154.035341 
L 377.103022 153.720968 
L 378.068179 153.505034 
L 378.550757 153.78212 
L 379.033335 153.761822 
L 379.515914 153.501403 
L 379.998492 153.825361 
L 380.48107 152.988899 
L 380.963649 153.557404 
L 381.446227 153.772183 
L 382.411383 153.379027 
L 382.893962 153.478478 
L 383.37654 153.366366 
L 383.859118 153.861025 
L 384.341697 154.109135 
L 384.824275 153.61562 
L 385.306853 153.421509 
L 385.789431 153.847596 
L 386.27201 153.08749 
L 386.754588 154.030984 
L 387.237166 153.346511 
L 387.719745 153.949412 
L 388.202323 153.704464 
L 388.684901 152.850931 
L 389.167479 153.980333 
L 389.650058 153.914341 
L 390.615214 153.627153 
L 391.097793 153.033527 
L 391.580371 154.032729 
L 392.062949 153.454747 
L 392.545528 153.080743 
L 393.028106 152.972999 
L 393.510684 154.169332 
L 393.993262 154.314885 
L 394.475841 153.562769 
L 394.958419 153.355791 
L 395.440997 153.912172 
L 395.923576 153.118437 
L 396.406154 153.315264 
L 396.888732 153.740497 
L 398.336467 153.242617 
L 398.819045 153.604975 
L 399.301624 154.276283 
L 399.784202 153.146386 
L 400.26678 153.978478 
L 400.749358 153.174085 
L 401.231937 153.258062 
L 401.714515 154.256135 
L 402.197093 153.802448 
L 402.679672 153.174866 
L 403.16225 153.816383 
L 404.127407 153.187166 
L 405.092563 154.225006 
L 405.575141 153.596302 
L 406.05772 153.335119 
L 406.540298 154.1723 
L 407.022876 153.665595 
L 407.505455 153.696374 
L 407.505455 153.696374 
" style="fill:none;stroke:#1f77b4;stroke-linecap:square;stroke-width:1.5;"/>
   </g>
   <g id="patch_8">
    <path d="M 256 159.744 
L 256 41.472 
" style="fill:none;stroke:#000000;stroke-linecap:square;stroke-linejoin:miter;stroke-width:0.8;"/>
   </g>
   <g id="patch_9">
    <path d="M 414.72 159.744 
L 414.72 41.472 
" style="fill:none;stroke:#000000;stroke-linecap:square;stroke-linejoin:miter;stroke-width:0.8;"/>
   </g>
   <g id="patch_10">
    <path d="M 256 159.744 
L 414.72 159.744 
" style="fill:none;stroke:#000000;stroke-linecap:square;stroke-linejoin:miter;stroke-width:0.8;"/>
   </g>
   <g id="patch_11">
    <path d="M 256 41.472 
L 414.72 41.472 
" style="fill:none;stroke:#000000;stroke-linecap:square;stroke-linejoin:miter;stroke-width:0.8;"/>
   </g>
   <g id="text_18">
    <!-- loss -->
    <defs>
     <path d="M 9.421875 75.984375 
L 18.40625 75.984375 
L 18.40625 0 
L 9.421875 0 
z
" id="DejaVuSans-6c"/>
     <path d="M 30.609375 48.390625 
Q 23.390625 48.390625 19.1875 42.75 
Q 14.984375 37.109375 14.984375 27.296875 
Q 14.984375 17.484375 19.15625 11.84375 
Q 23.34375 6.203125 30.609375 6.203125 
Q 37.796875 6.203125 41.984375 11.859375 
Q 46.1875 17.53125 46.1875 27.296875 
Q 46.1875 37.015625 41.984375 42.703125 
Q 37.796875 48.390625 30.609375 48.390625 
z
M 30.609375 56 
Q 42.328125 56 49.015625 48.375 
Q 55.71875 40.765625 55.71875 27.296875 
Q 55.71875 13.875 49.015625 6.21875 
Q 42.328125 -1.421875 30.609375 -1.421875 
Q 18.84375 -1.421875 12.171875 6.21875 
Q 5.515625 13.875 5.515625 27.296875 
Q 5.515625 40.765625 12.171875 48.375 
Q 18.84375 56 30.609375 56 
z
" id="DejaVuSans-6f"/>
     <path d="M 44.28125 53.078125 
L 44.28125 44.578125 
Q 40.484375 46.53125 36.375 47.5 
Q 32.28125 48.484375 27.875 48.484375 
Q 21.1875 48.484375 17.84375 46.4375 
Q 14.5 44.390625 14.5 40.28125 
Q 14.5 37.15625 16.890625 35.375 
Q 19.28125 33.59375 26.515625 31.984375 
L 29.59375 31.296875 
Q 39.15625 29.25 43.1875 25.515625 
Q 47.21875 21.78125 47.21875 15.09375 
Q 47.21875 7.46875 41.1875 3.015625 
Q 35.15625 -1.421875 24.609375 -1.421875 
Q 20.21875 -1.421875 15.453125 -0.5625 
Q 10.6875 0.296875 5.421875 2 
L 5.421875 11.28125 
Q 10.40625 8.6875 15.234375 7.390625 
Q 20.0625 6.109375 24.8125 6.109375 
Q 31.15625 6.109375 34.5625 8.28125 
Q 37.984375 10.453125 37.984375 14.40625 
Q 37.984375 18.0625 35.515625 20.015625 
Q 33.0625 21.96875 24.703125 23.78125 
L 21.578125 24.515625 
Q 13.234375 26.265625 9.515625 29.90625 
Q 5.8125 33.546875 5.8125 39.890625 
Q 5.8125 47.609375 11.28125 51.796875 
Q 16.75 56 26.8125 56 
Q 31.78125 56 36.171875 55.265625 
Q 40.578125 54.546875 44.28125 53.078125 
z
" id="DejaVuSans-73"/>
    </defs>
    <g transform="translate(323.770625 35.472)scale(0.12 -0.12)">
     <use xlink:href="#DejaVuSans-6c"/>
     <use x="27.783203" xlink:href="#DejaVuSans-6f"/>
     <use x="88.964844" xlink:href="#DejaVuSans-73"/>
     <use x="141.064453" xlink:href="#DejaVuSans-73"/>
    </g>
   </g>
  </g>
  <g id="axes_3">
   <g id="patch_12">
    <path d="M 57.6 307.584 
L 216.32 307.584 
L 216.32 189.312 
L 57.6 189.312 
z
" style="fill:#ffffff;"/>
   </g>
   <g id="matplotlib.axis_5">
    <g id="xtick_9">
     <g id="line2d_35">
      <path clip-path="url(#pf30730713b)" d="M 64.814545 307.584 
L 64.814545 189.312 
" style="fill:none;stroke:#b0b0b0;stroke-linecap:square;stroke-width:0.8;"/>
     </g>
     <g id="line2d_36">
      <g>
       <use style="stroke:#000000;stroke-width:0.8;" x="64.814545" xlink:href="#md3709e4b6f" y="307.584"/>
      </g>
     </g>
     <g id="text_19">
      <!-- 0 -->
      <g transform="translate(61.633295 322.182437)scale(0.1 -0.1)">
       <use xlink:href="#DejaVuSans-30"/>
      </g>
     </g>
    </g>
    <g id="xtick_10">
     <g id="line2d_37">
      <path clip-path="url(#pf30730713b)" d="M 113.072375 307.584 
L 113.072375 189.312 
" style="fill:none;stroke:#b0b0b0;stroke-linecap:square;stroke-width:0.8;"/>
     </g>
     <g id="line2d_38">
      <g>
       <use style="stroke:#000000;stroke-width:0.8;" x="113.072375" xlink:href="#md3709e4b6f" y="307.584"/>
      </g>
     </g>
     <g id="text_20">
      <!-- 100 -->
      <g transform="translate(103.528625 322.182437)scale(0.1 -0.1)">
       <use xlink:href="#DejaVuSans-31"/>
       <use x="63.623047" xlink:href="#DejaVuSans-30"/>
       <use x="127.246094" xlink:href="#DejaVuSans-30"/>
      </g>
     </g>
    </g>
    <g id="xtick_11">
     <g id="line2d_39">
      <path clip-path="url(#pf30730713b)" d="M 161.330204 307.584 
L 161.330204 189.312 
" style="fill:none;stroke:#b0b0b0;stroke-linecap:square;stroke-width:0.8;"/>
     </g>
     <g id="line2d_40">
      <g>
       <use style="stroke:#000000;stroke-width:0.8;" x="161.330204" xlink:href="#md3709e4b6f" y="307.584"/>
      </g>
     </g>
     <g id="text_21">
      <!-- 200 -->
      <g transform="translate(151.786454 322.182437)scale(0.1 -0.1)">
       <use xlink:href="#DejaVuSans-32"/>
       <use x="63.623047" xlink:href="#DejaVuSans-30"/>
       <use x="127.246094" xlink:href="#DejaVuSans-30"/>
      </g>
     </g>
    </g>
    <g id="xtick_12">
     <g id="line2d_41">
      <path clip-path="url(#pf30730713b)" d="M 209.588033 307.584 
L 209.588033 189.312 
" style="fill:none;stroke:#b0b0b0;stroke-linecap:square;stroke-width:0.8;"/>
     </g>
     <g id="line2d_42">
      <g>
       <use style="stroke:#000000;stroke-width:0.8;" x="209.588033" xlink:href="#md3709e4b6f" y="307.584"/>
      </g>
     </g>
     <g id="text_22">
      <!-- 300 -->
      <g transform="translate(200.044283 322.182437)scale(0.1 -0.1)">
       <use xlink:href="#DejaVuSans-33"/>
       <use x="63.623047" xlink:href="#DejaVuSans-30"/>
       <use x="127.246094" xlink:href="#DejaVuSans-30"/>
      </g>
     </g>
    </g>
   </g>
   <g id="matplotlib.axis_6">
    <g id="ytick_9">
     <g id="line2d_43">
      <path clip-path="url(#pf30730713b)" d="M 57.6 302.636367 
L 216.32 302.636367 
" style="fill:none;stroke:#b0b0b0;stroke-linecap:square;stroke-width:0.8;"/>
     </g>
     <g id="line2d_44">
      <g>
       <use style="stroke:#000000;stroke-width:0.8;" x="57.6" xlink:href="#mf09621b4fb" y="302.636367"/>
      </g>
     </g>
     <g id="text_23">
      <!-- 0.00 -->
      <g transform="translate(28.334375 306.435585)scale(0.1 -0.1)">
       <use xlink:href="#DejaVuSans-30"/>
       <use x="63.623047" xlink:href="#DejaVuSans-2e"/>
       <use x="95.410156" xlink:href="#DejaVuSans-30"/>
       <use x="159.033203" xlink:href="#DejaVuSans-30"/>
      </g>
     </g>
    </g>
    <g id="ytick_10">
     <g id="line2d_45">
      <path clip-path="url(#pf30730713b)" d="M 57.6 275.220908 
L 216.32 275.220908 
" style="fill:none;stroke:#b0b0b0;stroke-linecap:square;stroke-width:0.8;"/>
     </g>
     <g id="line2d_46">
      <g>
       <use style="stroke:#000000;stroke-width:0.8;" x="57.6" xlink:href="#mf09621b4fb" y="275.220908"/>
      </g>
     </g>
     <g id="text_24">
      <!-- 0.25 -->
      <g transform="translate(28.334375 279.020127)scale(0.1 -0.1)">
       <use xlink:href="#DejaVuSans-30"/>
       <use x="63.623047" xlink:href="#DejaVuSans-2e"/>
       <use x="95.410156" xlink:href="#DejaVuSans-32"/>
       <use x="159.033203" xlink:href="#DejaVuSans-35"/>
      </g>
     </g>
    </g>
    <g id="ytick_11">
     <g id="line2d_47">
      <path clip-path="url(#pf30730713b)" d="M 57.6 247.80545 
L 216.32 247.80545 
" style="fill:none;stroke:#b0b0b0;stroke-linecap:square;stroke-width:0.8;"/>
     </g>
     <g id="line2d_48">
      <g>
       <use style="stroke:#000000;stroke-width:0.8;" x="57.6" xlink:href="#mf09621b4fb" y="247.80545"/>
      </g>
     </g>
     <g id="text_25">
      <!-- 0.50 -->
      <g transform="translate(28.334375 251.604669)scale(0.1 -0.1)">
       <use xlink:href="#DejaVuSans-30"/>
       <use x="63.623047" xlink:href="#DejaVuSans-2e"/>
       <use x="95.410156" xlink:href="#DejaVuSans-35"/>
       <use x="159.033203" xlink:href="#DejaVuSans-30"/>
      </g>
     </g>
    </g>
    <g id="ytick_12">
     <g id="line2d_49">
      <path clip-path="url(#pf30730713b)" d="M 57.6 220.389992 
L 216.32 220.389992 
" style="fill:none;stroke:#b0b0b0;stroke-linecap:square;stroke-width:0.8;"/>
     </g>
     <g id="line2d_50">
      <g>
       <use style="stroke:#000000;stroke-width:0.8;" x="57.6" xlink:href="#mf09621b4fb" y="220.389992"/>
      </g>
     </g>
     <g id="text_26">
      <!-- 0.75 -->
      <g transform="translate(28.334375 224.189211)scale(0.1 -0.1)">
       <use xlink:href="#DejaVuSans-30"/>
       <use x="63.623047" xlink:href="#DejaVuSans-2e"/>
       <use x="95.410156" xlink:href="#DejaVuSans-37"/>
       <use x="159.033203" xlink:href="#DejaVuSans-35"/>
      </g>
     </g>
    </g>
    <g id="ytick_13">
     <g id="line2d_51">
      <path clip-path="url(#pf30730713b)" d="M 57.6 192.974534 
L 216.32 192.974534 
" style="fill:none;stroke:#b0b0b0;stroke-linecap:square;stroke-width:0.8;"/>
     </g>
     <g id="line2d_52">
      <g>
       <use style="stroke:#000000;stroke-width:0.8;" x="57.6" xlink:href="#mf09621b4fb" y="192.974534"/>
      </g>
     </g>
     <g id="text_27">
      <!-- 1.00 -->
      <g transform="translate(28.334375 196.773753)scale(0.1 -0.1)">
       <use xlink:href="#DejaVuSans-31"/>
       <use x="63.623047" xlink:href="#DejaVuSans-2e"/>
       <use x="95.410156" xlink:href="#DejaVuSans-30"/>
       <use x="159.033203" xlink:href="#DejaVuSans-30"/>
      </g>
     </g>
    </g>
   </g>
   <g id="line2d_53">
    <path clip-path="url(#pf30730713b)" d="M 64.814545 302.208 
L 65.297124 301.351267 
L 65.779702 301.351267 
L 66.26228 300.9229 
L 66.744859 299.637801 
L 68.192593 288.928637 
L 68.675172 285.501705 
L 69.640328 285.501705 
L 70.122907 279.93294 
L 70.605485 277.791107 
L 71.088063 271.365609 
L 71.570642 294.497402 
L 72.05322 270.937242 
L 72.535798 265.796844 
L 73.018376 267.51031 
L 73.500955 266.225211 
L 73.983533 269.223777 
L 74.466111 258.086247 
L 74.94869 261.513178 
L 75.431268 268.367044 
L 75.913846 246.091984 
L 76.396424 270.937242 
L 76.879003 252.517481 
L 77.361581 275.649275 
L 77.844159 238.809751 
L 78.326738 242.236684 
L 79.291894 230.242421 
L 79.774472 233.669354 
L 80.257051 228.957322 
L 81.222207 239.666486 
L 81.704786 226.815488 
L 82.187364 224.24529 
L 82.669942 220.818356 
L 83.152521 220.389991 
L 83.635099 230.670787 
L 84.117677 228.528955 
L 84.600255 238.809752 
L 85.082834 215.249592 
L 85.565412 225.958756 
L 86.04799 225.102022 
L 86.530569 248.233816 
L 87.495725 210.965928 
L 87.978303 219.533258 
L 88.460882 259.799712 
L 88.94346 227.672222 
L 89.426038 215.67796 
L 89.908617 207.11063 
L 90.391195 256.801147 
L 90.873773 217.391426 
L 91.356351 210.965928 
L 91.83893 210.965927 
L 92.321508 203.255331 
L 92.804086 211.394295 
L 93.286665 233.669354 
L 93.769243 235.811185 
L 94.251821 207.967363 
L 94.7344 204.112064 
L 95.216978 207.538995 
L 95.699556 205.397164 
L 96.182134 204.968797 
L 96.664713 208.39573 
L 97.147291 204.540431 
L 97.629869 202.826965 
L 98.112448 210.537562 
L 98.595026 201.541866 
L 99.077604 204.968797 
L 99.560182 234.954454 
L 100.042761 202.826964 
L 101.007917 206.253897 
L 101.490496 203.255331 
L 101.973074 222.531824 
L 102.455652 202.398598 
L 102.93823 211.394295 
L 103.420809 203.255332 
L 103.903387 199.8284 
L 104.385965 229.814056 
L 104.868544 201.541866 
L 105.351122 203.255332 
L 105.8337 207.11063 
L 106.316279 201.541865 
L 106.798857 204.112064 
L 107.281435 209.252462 
L 107.764013 199.828399 
L 108.246592 205.397163 
L 108.72917 200.256766 
L 109.211748 207.110629 
L 109.694327 207.11063 
L 110.176905 202.826965 
L 110.659483 213.964493 
L 111.142061 202.398598 
L 111.62464 200.256766 
L 112.107218 201.970232 
L 112.589796 199.400032 
L 113.072375 202.826964 
L 113.554953 202.398598 
L 114.037531 200.256765 
L 114.520109 218.248159 
L 115.002688 205.397164 
L 115.485266 201.113498 
L 115.967844 204.112064 
L 116.450423 201.113499 
L 116.933001 200.256766 
L 117.415579 200.685133 
L 117.898157 204.540431 
L 118.380736 200.256766 
L 118.863314 201.541866 
L 119.345892 201.970232 
L 119.828471 200.256765 
L 120.311049 207.11063 
L 120.793627 197.686566 
L 121.276206 201.113499 
L 121.758784 198.971666 
L 122.241362 200.685132 
L 122.72394 198.114934 
L 123.206519 199.400033 
L 123.689097 200.256766 
L 124.171675 200.685132 
L 124.654254 198.971667 
L 125.136832 200.685132 
L 125.61941 221.67509 
L 126.101988 199.400032 
L 127.067145 198.543299 
L 127.549723 200.256766 
L 128.032302 202.398598 
L 128.51488 201.541865 
L 128.997458 198.5433 
L 129.480036 214.392859 
L 129.962615 197.2582 
L 130.445193 199.8284 
L 130.927771 201.113499 
L 131.41035 200.256766 
L 131.892928 197.2582 
L 132.375506 206.253896 
L 132.858085 199.828399 
L 133.340663 199.828399 
L 133.823241 197.686566 
L 134.305819 205.397164 
L 134.788398 197.2582 
L 135.270976 198.971666 
L 135.753554 197.2582 
L 136.236133 198.114933 
L 136.718711 201.970232 
L 137.201289 198.5433 
L 137.683867 198.971666 
L 138.166446 204.112064 
L 138.649024 213.536127 
L 139.131602 198.5433 
L 139.614181 198.114933 
L 140.096759 198.971666 
L 140.579337 198.5433 
L 141.061915 199.8284 
L 142.027072 198.971666 
L 142.50965 201.541866 
L 142.992229 198.114934 
L 143.474807 199.8284 
L 143.957385 216.106325 
L 144.439964 201.970232 
L 144.922542 202.826965 
L 145.40512 195.9731 
L 145.887698 215.677959 
L 146.370277 194.688001 
L 146.852855 202.826965 
L 147.335433 196.401467 
L 147.818012 197.686567 
L 148.30059 198.5433 
L 148.783168 201.541865 
L 149.265746 198.114933 
L 149.748325 198.114933 
L 150.230903 197.686566 
L 150.713481 206.682263 
L 151.19606 198.5433 
L 151.678638 198.5433 
L 152.161216 199.400032 
L 152.643794 196.829833 
L 153.126373 203.255332 
L 153.608951 198.971666 
L 154.091529 197.686566 
L 154.574108 198.971666 
L 155.539264 199.8284 
L 156.021843 196.829834 
L 156.504421 197.686566 
L 156.986999 199.400033 
L 157.469577 198.971666 
L 157.952156 201.541865 
L 158.434734 198.5433 
L 158.917312 199.400033 
L 159.882469 199.400033 
L 160.365047 199.8284 
L 160.847625 198.114934 
L 161.330204 201.541865 
L 161.812782 199.8284 
L 162.29536 195.9731 
L 162.777939 199.400032 
L 163.260517 197.686566 
L 164.225673 196.829834 
L 164.708252 197.686566 
L 165.19083 197.686566 
L 165.673408 196.401467 
L 166.155987 201.970231 
L 167.121143 197.2582 
L 167.603721 197.2582 
L 168.0863 194.688 
L 168.568878 197.2582 
L 169.051456 204.540431 
L 169.534035 196.829833 
L 170.016613 198.5433 
L 170.499191 199.400032 
L 170.98177 201.541865 
L 171.464348 202.826965 
L 171.946926 208.395729 
L 172.429504 197.686567 
L 172.912083 197.686566 
L 173.394661 200.256766 
L 173.877239 196.401467 
L 174.359818 204.968798 
L 174.842396 197.2582 
L 175.324974 196.401467 
L 175.807552 198.971666 
L 176.290131 195.9731 
L 176.772709 199.400033 
L 177.255287 198.971666 
L 177.737866 200.685132 
L 178.220444 196.829833 
L 178.703022 206.682265 
L 179.1856 197.258199 
L 179.668179 198.971666 
L 180.633335 198.114933 
L 181.115914 198.5433 
L 181.598492 198.114933 
L 182.08107 220.389992 
L 182.563649 195.116367 
L 183.046227 207.538996 
L 183.528805 197.686566 
L 184.011383 202.826965 
L 184.493962 197.2582 
L 184.97654 202.826965 
L 185.459118 197.2582 
L 185.941697 199.400033 
L 186.424275 198.5433 
L 186.906853 198.5433 
L 187.389431 201.541866 
L 187.87201 200.685132 
L 188.354588 200.256766 
L 188.837166 203.683698 
L 189.319745 218.248158 
L 189.802323 198.5433 
L 190.284901 197.686566 
L 190.767479 200.685132 
L 191.250058 210.537562 
L 191.732636 204.54043 
L 192.215214 201.541865 
L 192.697793 197.686566 
L 193.180371 198.114933 
L 193.662949 222.531824 
L 194.145528 203.255332 
L 194.628106 198.5433 
L 195.110684 201.113498 
L 195.593262 197.686566 
L 196.075841 206.682264 
L 196.558419 199.8284 
L 197.040997 199.400033 
L 197.523576 199.400032 
L 198.006154 196.829834 
L 198.488732 196.829833 
L 198.97131 195.9731 
L 199.453889 255.087681 
L 199.936467 202.398597 
L 200.419045 196.829833 
L 200.901624 197.2582 
L 201.384202 199.828399 
L 201.86678 195.544734 
L 202.349358 198.114934 
L 202.831937 198.114933 
L 203.314515 198.5433 
L 204.279672 201.970232 
L 204.76225 195.9731 
L 205.244828 200.256765 
L 205.727407 195.116367 
L 206.209985 197.2582 
L 206.692563 198.114933 
L 207.175141 198.5433 
L 207.65772 199.828399 
L 208.622876 196.401467 
L 209.105455 197.686566 
L 209.105455 197.686566 
" style="fill:none;stroke:#1f77b4;stroke-linecap:square;stroke-width:1.5;"/>
   </g>
   <g id="patch_13">
    <path d="M 57.6 307.584 
L 57.6 189.312 
" style="fill:none;stroke:#000000;stroke-linecap:square;stroke-linejoin:miter;stroke-width:0.8;"/>
   </g>
   <g id="patch_14">
    <path d="M 216.32 307.584 
L 216.32 189.312 
" style="fill:none;stroke:#000000;stroke-linecap:square;stroke-linejoin:miter;stroke-width:0.8;"/>
   </g>
   <g id="patch_15">
    <path d="M 57.6 307.584 
L 216.32 307.584 
" style="fill:none;stroke:#000000;stroke-linecap:square;stroke-linejoin:miter;stroke-width:0.8;"/>
   </g>
   <g id="patch_16">
    <path d="M 57.6 189.312 
L 216.32 189.312 
" style="fill:none;stroke:#000000;stroke-linecap:square;stroke-linejoin:miter;stroke-width:0.8;"/>
   </g>
   <g id="text_28">
    <!-- val_acc -->
    <defs>
     <path d="M 2.984375 54.6875 
L 12.5 54.6875 
L 29.59375 8.796875 
L 46.6875 54.6875 
L 56.203125 54.6875 
L 35.6875 0 
L 23.484375 0 
z
" id="DejaVuSans-76"/>
     <path d="M 50.984375 -16.609375 
L 50.984375 -23.578125 
L -0.984375 -23.578125 
L -0.984375 -16.609375 
z
" id="DejaVuSans-5f"/>
    </defs>
    <g transform="translate(114.79 183.312)scale(0.12 -0.12)">
     <use xlink:href="#DejaVuSans-76"/>
     <use x="59.179688" xlink:href="#DejaVuSans-61"/>
     <use x="120.458984" xlink:href="#DejaVuSans-6c"/>
     <use x="148.242188" xlink:href="#DejaVuSans-5f"/>
     <use x="198.242188" xlink:href="#DejaVuSans-61"/>
     <use x="259.521484" xlink:href="#DejaVuSans-63"/>
     <use x="314.501953" xlink:href="#DejaVuSans-63"/>
    </g>
   </g>
  </g>
  <g id="axes_4">
   <g id="patch_17">
    <path d="M 256 307.584 
L 414.72 307.584 
L 414.72 189.312 
L 256 189.312 
z
" style="fill:#ffffff;"/>
   </g>
   <g id="matplotlib.axis_7">
    <g id="xtick_13">
     <g id="line2d_54">
      <path clip-path="url(#pdfedf94c13)" d="M 263.214545 307.584 
L 263.214545 189.312 
" style="fill:none;stroke:#b0b0b0;stroke-linecap:square;stroke-width:0.8;"/>
     </g>
     <g id="line2d_55">
      <g>
       <use style="stroke:#000000;stroke-width:0.8;" x="263.214545" xlink:href="#md3709e4b6f" y="307.584"/>
      </g>
     </g>
     <g id="text_29">
      <!-- 0 -->
      <g transform="translate(260.033295 322.182437)scale(0.1 -0.1)">
       <use xlink:href="#DejaVuSans-30"/>
      </g>
     </g>
    </g>
    <g id="xtick_14">
     <g id="line2d_56">
      <path clip-path="url(#pdfedf94c13)" d="M 311.472375 307.584 
L 311.472375 189.312 
" style="fill:none;stroke:#b0b0b0;stroke-linecap:square;stroke-width:0.8;"/>
     </g>
     <g id="line2d_57">
      <g>
       <use style="stroke:#000000;stroke-width:0.8;" x="311.472375" xlink:href="#md3709e4b6f" y="307.584"/>
      </g>
     </g>
     <g id="text_30">
      <!-- 100 -->
      <g transform="translate(301.928625 322.182437)scale(0.1 -0.1)">
       <use xlink:href="#DejaVuSans-31"/>
       <use x="63.623047" xlink:href="#DejaVuSans-30"/>
       <use x="127.246094" xlink:href="#DejaVuSans-30"/>
      </g>
     </g>
    </g>
    <g id="xtick_15">
     <g id="line2d_58">
      <path clip-path="url(#pdfedf94c13)" d="M 359.730204 307.584 
L 359.730204 189.312 
" style="fill:none;stroke:#b0b0b0;stroke-linecap:square;stroke-width:0.8;"/>
     </g>
     <g id="line2d_59">
      <g>
       <use style="stroke:#000000;stroke-width:0.8;" x="359.730204" xlink:href="#md3709e4b6f" y="307.584"/>
      </g>
     </g>
     <g id="text_31">
      <!-- 200 -->
      <g transform="translate(350.186454 322.182437)scale(0.1 -0.1)">
       <use xlink:href="#DejaVuSans-32"/>
       <use x="63.623047" xlink:href="#DejaVuSans-30"/>
       <use x="127.246094" xlink:href="#DejaVuSans-30"/>
      </g>
     </g>
    </g>
    <g id="xtick_16">
     <g id="line2d_60">
      <path clip-path="url(#pdfedf94c13)" d="M 407.988033 307.584 
L 407.988033 189.312 
" style="fill:none;stroke:#b0b0b0;stroke-linecap:square;stroke-width:0.8;"/>
     </g>
     <g id="line2d_61">
      <g>
       <use style="stroke:#000000;stroke-width:0.8;" x="407.988033" xlink:href="#md3709e4b6f" y="307.584"/>
      </g>
     </g>
     <g id="text_32">
      <!-- 300 -->
      <g transform="translate(398.444283 322.182437)scale(0.1 -0.1)">
       <use xlink:href="#DejaVuSans-33"/>
       <use x="63.623047" xlink:href="#DejaVuSans-30"/>
       <use x="127.246094" xlink:href="#DejaVuSans-30"/>
      </g>
     </g>
    </g>
   </g>
   <g id="matplotlib.axis_8">
    <g id="ytick_14">
     <g id="line2d_62">
      <path clip-path="url(#pdfedf94c13)" d="M 256 303.145321 
L 414.72 303.145321 
" style="fill:none;stroke:#b0b0b0;stroke-linecap:square;stroke-width:0.8;"/>
     </g>
     <g id="line2d_63">
      <g>
       <use style="stroke:#000000;stroke-width:0.8;" x="256" xlink:href="#mf09621b4fb" y="303.145321"/>
      </g>
     </g>
     <g id="text_33">
      <!-- 0 -->
      <g transform="translate(242.6375 306.94454)scale(0.1 -0.1)">
       <use xlink:href="#DejaVuSans-30"/>
      </g>
     </g>
    </g>
    <g id="ytick_15">
     <g id="line2d_64">
      <path clip-path="url(#pdfedf94c13)" d="M 256 266.229774 
L 414.72 266.229774 
" style="fill:none;stroke:#b0b0b0;stroke-linecap:square;stroke-width:0.8;"/>
     </g>
     <g id="line2d_65">
      <g>
       <use style="stroke:#000000;stroke-width:0.8;" x="256" xlink:href="#mf09621b4fb" y="266.229774"/>
      </g>
     </g>
     <g id="text_34">
      <!-- 2 -->
      <g transform="translate(242.6375 270.028992)scale(0.1 -0.1)">
       <use xlink:href="#DejaVuSans-32"/>
      </g>
     </g>
    </g>
    <g id="ytick_16">
     <g id="line2d_66">
      <path clip-path="url(#pdfedf94c13)" d="M 256 229.314226 
L 414.72 229.314226 
" style="fill:none;stroke:#b0b0b0;stroke-linecap:square;stroke-width:0.8;"/>
     </g>
     <g id="line2d_67">
      <g>
       <use style="stroke:#000000;stroke-width:0.8;" x="256" xlink:href="#mf09621b4fb" y="229.314226"/>
      </g>
     </g>
     <g id="text_35">
      <!-- 4 -->
      <g transform="translate(242.6375 233.113445)scale(0.1 -0.1)">
       <use xlink:href="#DejaVuSans-34"/>
      </g>
     </g>
    </g>
    <g id="ytick_17">
     <g id="line2d_68">
      <path clip-path="url(#pdfedf94c13)" d="M 256 192.398678 
L 414.72 192.398678 
" style="fill:none;stroke:#b0b0b0;stroke-linecap:square;stroke-width:0.8;"/>
     </g>
     <g id="line2d_69">
      <g>
       <use style="stroke:#000000;stroke-width:0.8;" x="256" xlink:href="#mf09621b4fb" y="192.398678"/>
      </g>
     </g>
     <g id="text_36">
      <!-- 6 -->
      <defs>
       <path d="M 33.015625 40.375 
Q 26.375 40.375 22.484375 35.828125 
Q 18.609375 31.296875 18.609375 23.390625 
Q 18.609375 15.53125 22.484375 10.953125 
Q 26.375 6.390625 33.015625 6.390625 
Q 39.65625 6.390625 43.53125 10.953125 
Q 47.40625 15.53125 47.40625 23.390625 
Q 47.40625 31.296875 43.53125 35.828125 
Q 39.65625 40.375 33.015625 40.375 
z
M 52.59375 71.296875 
L 52.59375 62.3125 
Q 48.875 64.0625 45.09375 64.984375 
Q 41.3125 65.921875 37.59375 65.921875 
Q 27.828125 65.921875 22.671875 59.328125 
Q 17.53125 52.734375 16.796875 39.40625 
Q 19.671875 43.65625 24.015625 45.921875 
Q 28.375 48.1875 33.59375 48.1875 
Q 44.578125 48.1875 50.953125 41.515625 
Q 57.328125 34.859375 57.328125 23.390625 
Q 57.328125 12.15625 50.6875 5.359375 
Q 44.046875 -1.421875 33.015625 -1.421875 
Q 20.359375 -1.421875 13.671875 8.265625 
Q 6.984375 17.96875 6.984375 36.375 
Q 6.984375 53.65625 15.1875 63.9375 
Q 23.390625 74.21875 37.203125 74.21875 
Q 40.921875 74.21875 44.703125 73.484375 
Q 48.484375 72.75 52.59375 71.296875 
z
" id="DejaVuSans-36"/>
      </defs>
      <g transform="translate(242.6375 196.197897)scale(0.1 -0.1)">
       <use xlink:href="#DejaVuSans-36"/>
      </g>
     </g>
    </g>
   </g>
   <g id="line2d_70">
    <path clip-path="url(#pdfedf94c13)" d="M 263.214545 200.808119 
L 263.697124 201.283894 
L 264.179702 204.407966 
L 264.66228 212.815896 
L 265.144859 214.698809 
L 265.627437 222.101212 
L 266.110015 227.495108 
L 266.592593 230.974385 
L 267.075172 232.251906 
L 267.55775 235.25549 
L 268.040328 237.382666 
L 268.522907 240.589331 
L 269.005485 245.042789 
L 269.488063 247.285564 
L 269.970642 232.082424 
L 270.45322 249.696206 
L 270.935798 252.644346 
L 271.418376 253.021013 
L 271.900955 254.947283 
L 272.383533 254.007369 
L 272.866111 259.993562 
L 273.34869 256.132449 
L 273.831268 256.375242 
L 274.313846 265.997155 
L 274.796424 256.879776 
L 275.279003 264.300215 
L 275.761581 253.928684 
L 276.244159 270.212215 
L 276.726738 271.065547 
L 277.691894 275.166522 
L 278.174472 275.668241 
L 278.657051 277.687148 
L 279.139629 275.836387 
L 279.622207 275.299094 
L 280.104786 279.601738 
L 280.587364 280.16861 
L 281.069942 282.405376 
L 281.552521 282.808689 
L 282.035099 278.968077 
L 282.517677 280.950545 
L 283.000255 275.556625 
L 283.482834 285.880862 
L 283.965412 282.236087 
L 284.44799 284.607127 
L 284.930569 272.799935 
L 285.895725 289.707782 
L 286.378303 287.209043 
L 286.860882 268.439587 
L 287.34346 282.710911 
L 287.826038 290.377881 
L 288.308617 290.970756 
L 288.791195 265.871661 
L 289.273773 289.118993 
L 290.721508 294.035417 
L 291.204086 292.263038 
L 291.686665 280.139802 
L 292.169243 278.499181 
L 292.651821 293.12148 
L 293.1344 294.541212 
L 293.616978 294.314865 
L 294.099556 294.772403 
L 294.582134 294.597597 
L 295.064713 294.227235 
L 295.547291 295.292369 
L 296.029869 295.884005 
L 296.512448 293.185998 
L 296.995026 296.117023 
L 297.477604 294.876197 
L 297.960182 277.883854 
L 298.442761 296.123647 
L 298.925339 296.528128 
L 299.407917 296.736021 
L 299.890496 296.668759 
L 300.373074 288.431743 
L 300.855652 296.936227 
L 301.33823 293.120247 
L 301.820809 296.487032 
L 302.303387 297.932943 
L 302.785965 283.851577 
L 303.268544 297.455921 
L 303.751122 297.00192 
L 304.2337 295.68443 
L 304.716279 297.685864 
L 305.198857 296.011077 
L 305.681435 293.914242 
L 306.164013 298.889771 
L 306.646592 297.426828 
L 307.12917 298.300716 
L 307.611748 295.696893 
L 308.576905 297.921573 
L 309.059483 291.356092 
L 309.542061 298.151933 
L 310.02464 298.845069 
L 310.507218 298.889984 
L 311.472375 298.063774 
L 311.954953 298.057552 
L 312.437531 298.513719 
L 312.920109 286.662245 
L 313.402688 296.830259 
L 313.885266 298.743318 
L 314.367844 297.914852 
L 314.850423 297.885757 
L 315.333001 298.777497 
L 315.815579 298.764694 
L 316.298157 297.317426 
L 316.780736 298.966805 
L 317.263314 297.608467 
L 318.228471 298.844278 
L 318.711049 295.585621 
L 319.193627 300.229357 
L 319.676206 297.876718 
L 320.158784 299.586677 
L 320.641362 299.201807 
L 321.12394 299.810533 
L 321.606519 299.900383 
L 322.089097 298.88052 
L 322.571675 299.936745 
L 323.054254 299.993372 
L 323.536832 299.672653 
L 324.01941 288.468269 
L 324.501988 299.854417 
L 324.984567 299.38074 
L 325.467145 299.778361 
L 325.949723 299.618993 
L 326.432302 298.124013 
L 327.397458 299.845884 
L 327.880036 290.136368 
L 328.362615 300.532302 
L 329.327771 298.146765 
L 330.292928 300.170246 
L 330.775506 296.007602 
L 331.258085 299.302063 
L 331.740663 299.644099 
L 332.223241 299.747441 
L 332.705819 296.079429 
L 333.188398 300.840302 
L 333.670976 299.683095 
L 334.153554 300.206221 
L 334.636133 300.960778 
L 335.118711 299.097687 
L 335.601289 300.01909 
L 336.083867 299.757301 
L 336.566446 296.172266 
L 337.049024 290.517725 
L 337.531602 300.446225 
L 338.014181 300.420829 
L 338.496759 299.092467 
L 338.979337 300.518234 
L 339.461915 299.406238 
L 339.944494 299.82265 
L 340.427072 299.263697 
L 340.90965 297.815519 
L 341.392229 300.631861 
L 341.874807 299.875753 
L 342.357385 287.162337 
L 342.839964 299.026806 
L 343.322542 296.613251 
L 343.80512 301.359439 
L 344.287698 291.376749 
L 344.770277 301.569492 
L 345.252855 296.736931 
L 345.735433 300.120409 
L 346.218012 301.05261 
L 347.183168 299.230528 
L 347.665746 300.508576 
L 348.148325 301.097789 
L 348.630903 300.061522 
L 349.113481 294.248041 
L 349.59606 299.470041 
L 350.078638 300.3919 
L 350.561216 299.33358 
L 351.043794 300.714575 
L 351.526373 298.345229 
L 352.008951 300.069509 
L 352.491529 300.37321 
L 353.456686 299.387701 
L 353.939264 298.159343 
L 354.421843 300.474345 
L 354.904421 300.820225 
L 355.386999 299.706877 
L 355.869577 299.994935 
L 356.352156 296.425691 
L 356.834734 300.070693 
L 357.317312 299.595136 
L 357.799891 300.027246 
L 358.282469 299.716936 
L 358.765047 298.482425 
L 359.247625 299.927959 
L 359.730204 297.668651 
L 360.69536 300.657579 
L 361.177939 300.065159 
L 361.660517 299.973498 
L 363.108252 300.765096 
L 363.59083 300.520121 
L 364.073408 301.048743 
L 364.555987 297.320983 
L 365.521143 301.162897 
L 366.003721 300.612501 
L 366.4863 301.597971 
L 366.968878 301.064937 
L 367.451456 295.240591 
L 367.934035 300.828378 
L 368.416613 299.497066 
L 368.899191 298.503533 
L 369.38177 295.949575 
L 369.864348 297.113961 
L 370.346926 288.095911 
L 370.829504 300.565877 
L 371.312083 298.945366 
L 371.794661 299.155294 
L 372.277239 299.850729 
L 372.759818 292.639704 
L 373.242396 299.820248 
L 373.724974 300.937954 
L 374.207552 299.599263 
L 374.690131 300.174543 
L 375.172709 300.236496 
L 375.655287 298.667552 
L 376.137866 298.889139 
L 376.620444 300.828891 
L 377.103022 289.77991 
L 377.5856 300.703577 
L 378.550757 299.734654 
L 379.033335 300.684869 
L 379.515914 299.830685 
L 379.998492 301.157855 
L 380.48107 277.117916 
L 380.963649 301.841194 
L 381.446227 293.203728 
L 381.928805 299.517946 
L 382.411383 293.81943 
L 382.893962 299.703967 
L 383.37654 293.873186 
L 383.859118 299.72849 
L 384.341697 299.747548 
L 384.824275 300.019751 
L 385.306853 297.289265 
L 385.789431 295.631757 
L 386.27201 296.126819 
L 386.754588 298.788916 
L 387.237166 296.551606 
L 387.719745 271.479721 
L 388.202323 297.341072 
L 388.684901 301.024466 
L 389.167479 296.77811 
L 389.650058 287.723616 
L 390.132636 293.728969 
L 390.615214 294.110419 
L 391.097793 300.294758 
L 391.580371 300.658065 
L 392.062949 265.072521 
L 392.545528 287.93738 
L 393.028106 300.456094 
L 393.510684 296.227038 
L 393.993262 299.729215 
L 394.475841 291.342052 
L 394.958419 298.199443 
L 395.440997 299.857958 
L 395.923576 298.15541 
L 396.406154 300.460915 
L 396.888732 300.313535 
L 397.37131 301.310981 
L 397.853889 194.688 
L 398.336467 296.86642 
L 398.819045 300.861774 
L 399.301624 300.012665 
L 399.784202 298.810467 
L 400.26678 300.603423 
L 400.749358 297.626453 
L 401.231937 300.64509 
L 401.714515 299.02842 
L 402.197093 296.842434 
L 402.679672 295.850894 
L 403.16225 300.859935 
L 403.644828 298.178435 
L 404.127407 302.208 
L 404.609985 300.608367 
L 405.092563 297.941203 
L 405.575141 299.555019 
L 406.05772 298.135181 
L 407.022876 301.400733 
L 407.505455 298.440053 
L 407.505455 298.440053 
" style="fill:none;stroke:#1f77b4;stroke-linecap:square;stroke-width:1.5;"/>
   </g>
   <g id="patch_18">
    <path d="M 256 307.584 
L 256 189.312 
" style="fill:none;stroke:#000000;stroke-linecap:square;stroke-linejoin:miter;stroke-width:0.8;"/>
   </g>
   <g id="patch_19">
    <path d="M 414.72 307.584 
L 414.72 189.312 
" style="fill:none;stroke:#000000;stroke-linecap:square;stroke-linejoin:miter;stroke-width:0.8;"/>
   </g>
   <g id="patch_20">
    <path d="M 256 307.584 
L 414.72 307.584 
" style="fill:none;stroke:#000000;stroke-linecap:square;stroke-linejoin:miter;stroke-width:0.8;"/>
   </g>
   <g id="patch_21">
    <path d="M 256 189.312 
L 414.72 189.312 
" style="fill:none;stroke:#000000;stroke-linecap:square;stroke-linejoin:miter;stroke-width:0.8;"/>
   </g>
   <g id="text_37">
    <!-- val_loss -->
    <g transform="translate(311.875625 183.312)scale(0.12 -0.12)">
     <use xlink:href="#DejaVuSans-76"/>
     <use x="59.179688" xlink:href="#DejaVuSans-61"/>
     <use x="120.458984" xlink:href="#DejaVuSans-6c"/>
     <use x="148.242188" xlink:href="#DejaVuSans-5f"/>
     <use x="198.242188" xlink:href="#DejaVuSans-6c"/>
     <use x="226.025391" xlink:href="#DejaVuSans-6f"/>
     <use x="287.207031" xlink:href="#DejaVuSans-73"/>
     <use x="339.306641" xlink:href="#DejaVuSans-73"/>
    </g>
   </g>
  </g>
  <g id="text_38">
   <!-- model3 20171023_153922 -->
   <defs>
    <path d="M 52 44.1875 
Q 55.375 50.25 60.0625 53.125 
Q 64.75 56 71.09375 56 
Q 79.640625 56 84.28125 50.015625 
Q 88.921875 44.046875 88.921875 33.015625 
L 88.921875 0 
L 79.890625 0 
L 79.890625 32.71875 
Q 79.890625 40.578125 77.09375 44.375 
Q 74.3125 48.1875 68.609375 48.1875 
Q 61.625 48.1875 57.5625 43.546875 
Q 53.515625 38.921875 53.515625 30.90625 
L 53.515625 0 
L 44.484375 0 
L 44.484375 32.71875 
Q 44.484375 40.625 41.703125 44.40625 
Q 38.921875 48.1875 33.109375 48.1875 
Q 26.21875 48.1875 22.15625 43.53125 
Q 18.109375 38.875 18.109375 30.90625 
L 18.109375 0 
L 9.078125 0 
L 9.078125 54.6875 
L 18.109375 54.6875 
L 18.109375 46.1875 
Q 21.1875 51.21875 25.484375 53.609375 
Q 29.78125 56 35.6875 56 
Q 41.65625 56 45.828125 52.96875 
Q 50 49.953125 52 44.1875 
z
" id="DejaVuSans-6d"/>
    <path d="M 45.40625 46.390625 
L 45.40625 75.984375 
L 54.390625 75.984375 
L 54.390625 0 
L 45.40625 0 
L 45.40625 8.203125 
Q 42.578125 3.328125 38.25 0.953125 
Q 33.9375 -1.421875 27.875 -1.421875 
Q 17.96875 -1.421875 11.734375 6.484375 
Q 5.515625 14.40625 5.515625 27.296875 
Q 5.515625 40.1875 11.734375 48.09375 
Q 17.96875 56 27.875 56 
Q 33.9375 56 38.25 53.625 
Q 42.578125 51.265625 45.40625 46.390625 
z
M 14.796875 27.296875 
Q 14.796875 17.390625 18.875 11.75 
Q 22.953125 6.109375 30.078125 6.109375 
Q 37.203125 6.109375 41.296875 11.75 
Q 45.40625 17.390625 45.40625 27.296875 
Q 45.40625 37.203125 41.296875 42.84375 
Q 37.203125 48.484375 30.078125 48.484375 
Q 22.953125 48.484375 18.875 42.84375 
Q 14.796875 37.203125 14.796875 27.296875 
z
" id="DejaVuSans-64"/>
    <path d="M 56.203125 29.59375 
L 56.203125 25.203125 
L 14.890625 25.203125 
Q 15.484375 15.921875 20.484375 11.0625 
Q 25.484375 6.203125 34.421875 6.203125 
Q 39.59375 6.203125 44.453125 7.46875 
Q 49.3125 8.734375 54.109375 11.28125 
L 54.109375 2.78125 
Q 49.265625 0.734375 44.1875 -0.34375 
Q 39.109375 -1.421875 33.890625 -1.421875 
Q 20.796875 -1.421875 13.15625 6.1875 
Q 5.515625 13.8125 5.515625 26.8125 
Q 5.515625 40.234375 12.765625 48.109375 
Q 20.015625 56 32.328125 56 
Q 43.359375 56 49.78125 48.890625 
Q 56.203125 41.796875 56.203125 29.59375 
z
M 47.21875 32.234375 
Q 47.125 39.59375 43.09375 43.984375 
Q 39.0625 48.390625 32.421875 48.390625 
Q 24.90625 48.390625 20.390625 44.140625 
Q 15.875 39.890625 15.1875 32.171875 
z
" id="DejaVuSans-65"/>
    <path id="DejaVuSans-20"/>
    <path d="M 10.984375 1.515625 
L 10.984375 10.5 
Q 14.703125 8.734375 18.5 7.8125 
Q 22.3125 6.890625 25.984375 6.890625 
Q 35.75 6.890625 40.890625 13.453125 
Q 46.046875 20.015625 46.78125 33.40625 
Q 43.953125 29.203125 39.59375 26.953125 
Q 35.25 24.703125 29.984375 24.703125 
Q 19.046875 24.703125 12.671875 31.3125 
Q 6.296875 37.9375 6.296875 49.421875 
Q 6.296875 60.640625 12.9375 67.421875 
Q 19.578125 74.21875 30.609375 74.21875 
Q 43.265625 74.21875 49.921875 64.515625 
Q 56.59375 54.828125 56.59375 36.375 
Q 56.59375 19.140625 48.40625 8.859375 
Q 40.234375 -1.421875 26.421875 -1.421875 
Q 22.703125 -1.421875 18.890625 -0.6875 
Q 15.09375 0.046875 10.984375 1.515625 
z
M 30.609375 32.421875 
Q 37.25 32.421875 41.125 36.953125 
Q 45.015625 41.5 45.015625 49.421875 
Q 45.015625 57.28125 41.125 61.84375 
Q 37.25 66.40625 30.609375 66.40625 
Q 23.96875 66.40625 20.09375 61.84375 
Q 16.21875 57.28125 16.21875 49.421875 
Q 16.21875 41.5 20.09375 36.953125 
Q 23.96875 32.421875 30.609375 32.421875 
z
" id="DejaVuSans-39"/>
   </defs>
   <g transform="translate(149.547188 16.030125)scale(0.12 -0.12)">
    <use xlink:href="#DejaVuSans-6d"/>
    <use x="97.412109" xlink:href="#DejaVuSans-6f"/>
    <use x="158.59375" xlink:href="#DejaVuSans-64"/>
    <use x="222.070312" xlink:href="#DejaVuSans-65"/>
    <use x="283.59375" xlink:href="#DejaVuSans-6c"/>
    <use x="311.376953" xlink:href="#DejaVuSans-33"/>
    <use x="375" xlink:href="#DejaVuSans-20"/>
    <use x="406.787109" xlink:href="#DejaVuSans-32"/>
    <use x="470.410156" xlink:href="#DejaVuSans-30"/>
    <use x="534.033203" xlink:href="#DejaVuSans-31"/>
    <use x="597.65625" xlink:href="#DejaVuSans-37"/>
    <use x="661.279297" xlink:href="#DejaVuSans-31"/>
    <use x="724.902344" xlink:href="#DejaVuSans-30"/>
    <use x="788.525391" xlink:href="#DejaVuSans-32"/>
    <use x="852.148438" xlink:href="#DejaVuSans-33"/>
    <use x="915.771484" xlink:href="#DejaVuSans-5f"/>
    <use x="965.771484" xlink:href="#DejaVuSans-31"/>
    <use x="1029.394531" xlink:href="#DejaVuSans-35"/>
    <use x="1093.017578" xlink:href="#DejaVuSans-33"/>
    <use x="1156.640625" xlink:href="#DejaVuSans-39"/>
    <use x="1220.263672" xlink:href="#DejaVuSans-32"/>
    <use x="1283.886719" xlink:href="#DejaVuSans-32"/>
   </g>
  </g>
 </g>
 <defs>
  <clipPath id="pde8914c6f3">
   <rect height="118.272" width="158.72" x="57.6" y="41.472"/>
  </clipPath>
  <clipPath id="p0e6ac95744">
   <rect height="118.272" width="158.72" x="256" y="41.472"/>
  </clipPath>
  <clipPath id="pf30730713b">
   <rect height="118.272" width="158.72" x="57.6" y="189.312"/>
  </clipPath>
  <clipPath id="pdfedf94c13">
   <rect height="118.272" width="158.72" x="256" y="189.312"/>
  </clipPath>
 </defs>
</svg>
