<?xml version="1.0" encoding="utf-8" standalone="no"?>
<!DOCTYPE svg PUBLIC "-//W3C//DTD SVG 1.1//EN"
  "http://www.w3.org/Graphics/SVG/1.1/DTD/svg11.dtd">
<!-- Created with matplotlib (http://matplotlib.org/) -->
<svg height="345pt" version="1.1" viewBox="0 0 460 345" width="460pt" xmlns="http://www.w3.org/2000/svg" xmlns:xlink="http://www.w3.org/1999/xlink">
 <defs>
  <style type="text/css">
*{stroke-linecap:butt;stroke-linejoin:round;}
  </style>
 </defs>
 <g id="figure_1">
  <g id="patch_1">
   <path d="M 0 345.6 
L 460.8 345.6 
L 460.8 0 
L 0 0 
z
" style="fill:#ffffff;"/>
  </g>
  <g id="axes_1">
   <g id="patch_2">
    <path d="M 57.6 159.744 
L 216.32 159.744 
L 216.32 41.472 
L 57.6 41.472 
z
" style="fill:#ffffff;"/>
   </g>
   <g id="matplotlib.axis_1">
    <g id="xtick_1">
     <g id="line2d_1">
      <path clip-path="url(#pc2c1cb0e4f)" d="M 64.814545 159.744 
L 64.814545 41.472 
" style="fill:none;stroke:#b0b0b0;stroke-linecap:square;stroke-width:0.8;"/>
     </g>
     <g id="line2d_2">
      <defs>
       <path d="M 0 0 
L 0 3.5 
" id="m17d268b970" style="stroke:#000000;stroke-width:0.8;"/>
      </defs>
      <g>
       <use style="stroke:#000000;stroke-width:0.8;" x="64.814545" xlink:href="#m17d268b970" y="159.744"/>
      </g>
     </g>
     <g id="text_1">
      <!-- 0 -->
      <defs>
       <path d="M 31.78125 66.40625 
Q 24.171875 66.40625 20.328125 58.90625 
Q 16.5 51.421875 16.5 36.375 
Q 16.5 21.390625 20.328125 13.890625 
Q 24.171875 6.390625 31.78125 6.390625 
Q 39.453125 6.390625 43.28125 13.890625 
Q 47.125 21.390625 47.125 36.375 
Q 47.125 51.421875 43.28125 58.90625 
Q 39.453125 66.40625 31.78125 66.40625 
z
M 31.78125 74.21875 
Q 44.046875 74.21875 50.515625 64.515625 
Q 56.984375 54.828125 56.984375 36.375 
Q 56.984375 17.96875 50.515625 8.265625 
Q 44.046875 -1.421875 31.78125 -1.421875 
Q 19.53125 -1.421875 13.0625 8.265625 
Q 6.59375 17.96875 6.59375 36.375 
Q 6.59375 54.828125 13.0625 64.515625 
Q 19.53125 74.21875 31.78125 74.21875 
z
" id="DejaVuSans-30"/>
      </defs>
      <g transform="translate(61.633295 174.342437)scale(0.1 -0.1)">
       <use xlink:href="#DejaVuSans-30"/>
      </g>
     </g>
    </g>
    <g id="xtick_2">
     <g id="line2d_3">
      <path clip-path="url(#pc2c1cb0e4f)" d="M 113.072375 159.744 
L 113.072375 41.472 
" style="fill:none;stroke:#b0b0b0;stroke-linecap:square;stroke-width:0.8;"/>
     </g>
     <g id="line2d_4">
      <g>
       <use style="stroke:#000000;stroke-width:0.8;" x="113.072375" xlink:href="#m17d268b970" y="159.744"/>
      </g>
     </g>
     <g id="text_2">
      <!-- 100 -->
      <defs>
       <path d="M 12.40625 8.296875 
L 28.515625 8.296875 
L 28.515625 63.921875 
L 10.984375 60.40625 
L 10.984375 69.390625 
L 28.421875 72.90625 
L 38.28125 72.90625 
L 38.28125 8.296875 
L 54.390625 8.296875 
L 54.390625 0 
L 12.40625 0 
z
" id="DejaVuSans-31"/>
      </defs>
      <g transform="translate(103.528625 174.342437)scale(0.1 -0.1)">
       <use xlink:href="#DejaVuSans-31"/>
       <use x="63.623047" xlink:href="#DejaVuSans-30"/>
       <use x="127.246094" xlink:href="#DejaVuSans-30"/>
      </g>
     </g>
    </g>
    <g id="xtick_3">
     <g id="line2d_5">
      <path clip-path="url(#pc2c1cb0e4f)" d="M 161.330204 159.744 
L 161.330204 41.472 
" style="fill:none;stroke:#b0b0b0;stroke-linecap:square;stroke-width:0.8;"/>
     </g>
     <g id="line2d_6">
      <g>
       <use style="stroke:#000000;stroke-width:0.8;" x="161.330204" xlink:href="#m17d268b970" y="159.744"/>
      </g>
     </g>
     <g id="text_3">
      <!-- 200 -->
      <defs>
       <path d="M 19.1875 8.296875 
L 53.609375 8.296875 
L 53.609375 0 
L 7.328125 0 
L 7.328125 8.296875 
Q 12.9375 14.109375 22.625 23.890625 
Q 32.328125 33.6875 34.8125 36.53125 
Q 39.546875 41.84375 41.421875 45.53125 
Q 43.3125 49.21875 43.3125 52.78125 
Q 43.3125 58.59375 39.234375 62.25 
Q 35.15625 65.921875 28.609375 65.921875 
Q 23.96875 65.921875 18.8125 64.3125 
Q 13.671875 62.703125 7.8125 59.421875 
L 7.8125 69.390625 
Q 13.765625 71.78125 18.9375 73 
Q 24.125 74.21875 28.421875 74.21875 
Q 39.75 74.21875 46.484375 68.546875 
Q 53.21875 62.890625 53.21875 53.421875 
Q 53.21875 48.921875 51.53125 44.890625 
Q 49.859375 40.875 45.40625 35.40625 
Q 44.1875 33.984375 37.640625 27.21875 
Q 31.109375 20.453125 19.1875 8.296875 
z
" id="DejaVuSans-32"/>
      </defs>
      <g transform="translate(151.786454 174.342437)scale(0.1 -0.1)">
       <use xlink:href="#DejaVuSans-32"/>
       <use x="63.623047" xlink:href="#DejaVuSans-30"/>
       <use x="127.246094" xlink:href="#DejaVuSans-30"/>
      </g>
     </g>
    </g>
    <g id="xtick_4">
     <g id="line2d_7">
      <path clip-path="url(#pc2c1cb0e4f)" d="M 209.588033 159.744 
L 209.588033 41.472 
" style="fill:none;stroke:#b0b0b0;stroke-linecap:square;stroke-width:0.8;"/>
     </g>
     <g id="line2d_8">
      <g>
       <use style="stroke:#000000;stroke-width:0.8;" x="209.588033" xlink:href="#m17d268b970" y="159.744"/>
      </g>
     </g>
     <g id="text_4">
      <!-- 300 -->
      <defs>
       <path d="M 40.578125 39.3125 
Q 47.65625 37.796875 51.625 33 
Q 55.609375 28.21875 55.609375 21.1875 
Q 55.609375 10.40625 48.1875 4.484375 
Q 40.765625 -1.421875 27.09375 -1.421875 
Q 22.515625 -1.421875 17.65625 -0.515625 
Q 12.796875 0.390625 7.625 2.203125 
L 7.625 11.71875 
Q 11.71875 9.328125 16.59375 8.109375 
Q 21.484375 6.890625 26.8125 6.890625 
Q 36.078125 6.890625 40.9375 10.546875 
Q 45.796875 14.203125 45.796875 21.1875 
Q 45.796875 27.640625 41.28125 31.265625 
Q 36.765625 34.90625 28.71875 34.90625 
L 20.21875 34.90625 
L 20.21875 43.015625 
L 29.109375 43.015625 
Q 36.375 43.015625 40.234375 45.921875 
Q 44.09375 48.828125 44.09375 54.296875 
Q 44.09375 59.90625 40.109375 62.90625 
Q 36.140625 65.921875 28.71875 65.921875 
Q 24.65625 65.921875 20.015625 65.03125 
Q 15.375 64.15625 9.8125 62.3125 
L 9.8125 71.09375 
Q 15.4375 72.65625 20.34375 73.4375 
Q 25.25 74.21875 29.59375 74.21875 
Q 40.828125 74.21875 47.359375 69.109375 
Q 53.90625 64.015625 53.90625 55.328125 
Q 53.90625 49.265625 50.4375 45.09375 
Q 46.96875 40.921875 40.578125 39.3125 
z
" id="DejaVuSans-33"/>
      </defs>
      <g transform="translate(200.044283 174.342437)scale(0.1 -0.1)">
       <use xlink:href="#DejaVuSans-33"/>
       <use x="63.623047" xlink:href="#DejaVuSans-30"/>
       <use x="127.246094" xlink:href="#DejaVuSans-30"/>
      </g>
     </g>
    </g>
   </g>
   <g id="matplotlib.axis_2">
    <g id="ytick_1">
     <g id="line2d_9">
      <path clip-path="url(#pc2c1cb0e4f)" d="M 57.6 154.598895 
L 216.32 154.598895 
" style="fill:none;stroke:#b0b0b0;stroke-linecap:square;stroke-width:0.8;"/>
     </g>
     <g id="line2d_10">
      <defs>
       <path d="M 0 0 
L -3.5 0 
" id="m1377f723b7" style="stroke:#000000;stroke-width:0.8;"/>
      </defs>
      <g>
       <use style="stroke:#000000;stroke-width:0.8;" x="57.6" xlink:href="#m1377f723b7" y="154.598895"/>
      </g>
     </g>
     <g id="text_5">
      <!-- 0.00 -->
      <defs>
       <path d="M 10.6875 12.40625 
L 21 12.40625 
L 21 0 
L 10.6875 0 
z
" id="DejaVuSans-2e"/>
      </defs>
      <g transform="translate(28.334375 158.398114)scale(0.1 -0.1)">
       <use xlink:href="#DejaVuSans-30"/>
       <use x="63.623047" xlink:href="#DejaVuSans-2e"/>
       <use x="95.410156" xlink:href="#DejaVuSans-30"/>
       <use x="159.033203" xlink:href="#DejaVuSans-30"/>
      </g>
     </g>
    </g>
    <g id="ytick_2">
     <g id="line2d_11">
      <path clip-path="url(#pc2c1cb0e4f)" d="M 57.6 125.044363 
L 216.32 125.044363 
" style="fill:none;stroke:#b0b0b0;stroke-linecap:square;stroke-width:0.8;"/>
     </g>
     <g id="line2d_12">
      <g>
       <use style="stroke:#000000;stroke-width:0.8;" x="57.6" xlink:href="#m1377f723b7" y="125.044363"/>
      </g>
     </g>
     <g id="text_6">
      <!-- 0.25 -->
      <defs>
       <path d="M 10.796875 72.90625 
L 49.515625 72.90625 
L 49.515625 64.59375 
L 19.828125 64.59375 
L 19.828125 46.734375 
Q 21.96875 47.46875 24.109375 47.828125 
Q 26.265625 48.1875 28.421875 48.1875 
Q 40.625 48.1875 47.75 41.5 
Q 54.890625 34.8125 54.890625 23.390625 
Q 54.890625 11.625 47.5625 5.09375 
Q 40.234375 -1.421875 26.90625 -1.421875 
Q 22.3125 -1.421875 17.546875 -0.640625 
Q 12.796875 0.140625 7.71875 1.703125 
L 7.71875 11.625 
Q 12.109375 9.234375 16.796875 8.0625 
Q 21.484375 6.890625 26.703125 6.890625 
Q 35.15625 6.890625 40.078125 11.328125 
Q 45.015625 15.765625 45.015625 23.390625 
Q 45.015625 31 40.078125 35.4375 
Q 35.15625 39.890625 26.703125 39.890625 
Q 22.75 39.890625 18.8125 39.015625 
Q 14.890625 38.140625 10.796875 36.28125 
z
" id="DejaVuSans-35"/>
      </defs>
      <g transform="translate(28.334375 128.843582)scale(0.1 -0.1)">
       <use xlink:href="#DejaVuSans-30"/>
       <use x="63.623047" xlink:href="#DejaVuSans-2e"/>
       <use x="95.410156" xlink:href="#DejaVuSans-32"/>
       <use x="159.033203" xlink:href="#DejaVuSans-35"/>
      </g>
     </g>
    </g>
    <g id="ytick_3">
     <g id="line2d_13">
      <path clip-path="url(#pc2c1cb0e4f)" d="M 57.6 95.489832 
L 216.32 95.489832 
" style="fill:none;stroke:#b0b0b0;stroke-linecap:square;stroke-width:0.8;"/>
     </g>
     <g id="line2d_14">
      <g>
       <use style="stroke:#000000;stroke-width:0.8;" x="57.6" xlink:href="#m1377f723b7" y="95.489832"/>
      </g>
     </g>
     <g id="text_7">
      <!-- 0.50 -->
      <g transform="translate(28.334375 99.289051)scale(0.1 -0.1)">
       <use xlink:href="#DejaVuSans-30"/>
       <use x="63.623047" xlink:href="#DejaVuSans-2e"/>
       <use x="95.410156" xlink:href="#DejaVuSans-35"/>
       <use x="159.033203" xlink:href="#DejaVuSans-30"/>
      </g>
     </g>
    </g>
    <g id="ytick_4">
     <g id="line2d_15">
      <path clip-path="url(#pc2c1cb0e4f)" d="M 57.6 65.935301 
L 216.32 65.935301 
" style="fill:none;stroke:#b0b0b0;stroke-linecap:square;stroke-width:0.8;"/>
     </g>
     <g id="line2d_16">
      <g>
       <use style="stroke:#000000;stroke-width:0.8;" x="57.6" xlink:href="#m1377f723b7" y="65.935301"/>
      </g>
     </g>
     <g id="text_8">
      <!-- 0.75 -->
      <defs>
       <path d="M 8.203125 72.90625 
L 55.078125 72.90625 
L 55.078125 68.703125 
L 28.609375 0 
L 18.3125 0 
L 43.21875 64.59375 
L 8.203125 64.59375 
z
" id="DejaVuSans-37"/>
      </defs>
      <g transform="translate(28.334375 69.73452)scale(0.1 -0.1)">
       <use xlink:href="#DejaVuSans-30"/>
       <use x="63.623047" xlink:href="#DejaVuSans-2e"/>
       <use x="95.410156" xlink:href="#DejaVuSans-37"/>
       <use x="159.033203" xlink:href="#DejaVuSans-35"/>
      </g>
     </g>
    </g>
   </g>
   <g id="line2d_17">
    <path clip-path="url(#pc2c1cb0e4f)" d="M 64.814545 154.368 
L 65.297124 154.06014 
L 65.779702 153.559868 
L 66.26228 151.982087 
L 67.227437 145.401586 
L 67.710015 141.476375 
L 68.192593 139.475287 
L 69.15775 132.240584 
L 69.640328 130.701285 
L 70.122907 127.353311 
L 70.605485 126.660626 
L 71.570642 122.543003 
L 72.05322 119.656818 
L 72.535798 119.310476 
L 73.018376 115.885537 
L 73.500955 115.423747 
L 73.983533 112.229703 
L 74.466111 112.614527 
L 75.431268 107.688772 
L 75.913846 108.381456 
L 76.396424 107.265465 
L 76.879003 104.879552 
L 77.361581 104.340798 
L 77.844159 104.302315 
L 78.326738 104.071421 
L 78.809316 101.800955 
L 79.291894 101.377648 
L 79.774472 100.030762 
L 80.257051 99.722902 
L 81.222207 97.067612 
L 81.704786 97.106095 
L 82.187364 94.104462 
L 82.669942 96.913682 
L 83.152521 93.91205 
L 83.635099 92.603646 
L 84.117677 92.372752 
L 84.600255 92.757576 
L 85.082834 91.141313 
L 85.565412 91.680067 
L 86.04799 89.871391 
L 86.530569 89.755944 
L 87.013147 89.948356 
L 87.978303 88.44754 
L 88.94346 88.639953 
L 89.908617 86.946724 
L 90.391195 86.908242 
L 90.873773 84.868671 
L 91.356351 84.099021 
L 91.83893 84.599294 
L 92.321508 82.867583 
L 92.804086 83.714197 
L 93.286665 83.598749 
L 94.251821 82.251864 
L 94.7344 80.828012 
L 95.216978 81.944004 
L 95.699556 82.059451 
L 96.182134 80.558635 
L 96.664713 80.94346 
L 97.147291 79.134783 
L 97.629869 79.134784 
L 98.112448 78.634512 
L 98.595026 78.903889 
L 99.077604 79.788986 
L 99.560182 77.749415 
L 100.042761 77.82638 
L 100.525339 76.941283 
L 101.007917 76.441011 
L 101.490496 75.517432 
L 101.973074 75.132608 
L 102.455652 75.786809 
L 102.93823 75.47895 
L 103.420809 73.901169 
L 103.903387 75.055643 
L 104.868544 73.785721 
L 105.351122 74.285993 
L 105.8337 72.82366 
L 106.316279 72.592765 
L 106.798857 71.553739 
L 107.281435 71.592221 
L 107.764013 72.323388 
L 108.246592 71.823116 
L 108.72917 71.130432 
L 109.211748 71.053467 
L 109.694327 69.745063 
L 110.176905 70.745607 
L 110.659483 67.743975 
L 111.142061 69.321756 
L 111.62464 69.706581 
L 112.107218 68.436659 
L 112.589796 68.744519 
L 113.072375 69.437203 
L 113.554953 68.706037 
L 114.037531 67.474598 
L 114.520109 67.397633 
L 115.002688 68.013352 
L 115.485266 68.321212 
L 115.967844 66.512537 
L 116.450423 66.281641 
L 116.933001 67.359151 
L 117.415579 65.665922 
L 117.898157 66.897361 
L 118.380736 66.781913 
L 118.863314 65.435027 
L 119.345892 65.550475 
L 119.828471 64.742343 
L 120.311049 64.511448 
L 120.793627 64.54993 
L 121.276206 65.819852 
L 121.758784 63.934212 
L 122.241362 62.97215 
L 122.72394 63.780282 
L 123.206519 63.934212 
L 124.171675 63.818764 
L 124.654254 63.510904 
L 125.136832 62.164019 
L 126.101988 61.740711 
L 126.584567 62.51036 
L 127.067145 62.317948 
L 127.549723 61.432852 
L 128.032302 62.010089 
L 128.51488 60.93258 
L 129.480036 62.164018 
L 129.962615 60.509273 
L 130.445193 59.778106 
L 130.927771 59.547211 
L 131.41035 59.855071 
L 131.892928 60.009001 
L 132.375506 59.393281 
L 132.858085 59.470247 
L 133.340663 58.816044 
L 133.823241 59.085422 
L 134.305819 58.777562 
L 134.788398 59.277834 
L 135.270976 59.277834 
L 135.753554 57.353711 
L 136.236133 57.930948 
L 136.718711 57.238264 
L 137.201289 57.969431 
L 137.683867 57.353711 
L 138.166446 57.96943 
L 138.649024 57.161299 
L 139.131602 57.199781 
L 139.614181 58.392737 
L 140.096759 57.161299 
L 140.579337 57.315229 
L 141.061915 56.968886 
L 141.544494 57.315228 
L 142.027072 55.737448 
L 142.50965 56.930404 
L 142.992229 56.468615 
L 143.474807 57.007369 
L 143.957385 56.006825 
L 144.439964 56.814957 
L 144.922542 56.584062 
L 145.40512 56.045307 
L 145.887698 55.92986 
L 146.370277 56.006825 
L 146.852855 55.737448 
L 147.335433 56.160755 
L 147.818012 55.622 
L 148.30059 54.736904 
L 148.783168 54.198149 
L 149.265746 54.698422 
L 149.748325 54.775386 
L 150.230903 53.967255 
L 150.713481 53.466983 
L 151.678638 55.044764 
L 152.161216 53.543948 
L 152.643794 54.506009 
L 153.126373 54.198149 
L 153.608951 55.506553 
L 154.091529 54.19815 
L 154.574108 54.852351 
L 155.056686 53.620912 
L 155.539264 54.698421 
L 156.021843 53.659395 
L 156.504421 54.352079 
L 156.986999 53.89029 
L 157.469577 54.313597 
L 157.952156 53.313053 
L 158.434734 52.697334 
L 158.917312 52.889746 
L 159.399891 53.236088 
L 159.882469 52.735816 
L 160.365047 53.697878 
L 160.847625 51.927685 
L 161.812782 52.851263 
L 162.29536 52.697334 
L 162.777939 52.812781 
L 163.260517 51.38893 
L 163.743095 52.466439 
L 164.225673 51.69679 
L 164.708252 52.735816 
L 165.19083 53.005193 
L 165.673408 52.120097 
L 166.155987 52.774299 
L 166.638565 51.966167 
L 167.121143 52.274027 
L 168.0863 51.927684 
L 168.568878 52.427957 
L 169.051456 52.00465 
L 169.534035 50.811693 
L 170.016613 51.619825 
L 170.499191 50.580799 
L 170.98177 51.427413 
L 171.464348 50.696246 
L 171.946926 50.927141 
L 172.912083 50.850176 
L 173.394661 50.465351 
L 173.877239 51.889202 
L 174.359818 50.927141 
L 174.842396 51.812237 
L 175.324974 50.850176 
L 175.807552 51.158035 
L 176.290131 50.850176 
L 176.772709 50.773211 
L 177.255287 50.272939 
L 177.737866 50.811693 
L 178.220444 50.696246 
L 178.703022 50.92714 
L 179.1856 50.426869 
L 179.668179 50.119009 
L 180.150757 50.580798 
L 180.633335 49.772667 
L 181.115914 50.503833 
L 182.08107 50.234456 
L 182.563649 49.65722 
L 183.046227 49.618737 
L 183.528805 50.234456 
L 184.011383 49.849632 
L 184.493962 50.734728 
L 184.97654 49.926597 
L 185.459118 50.042044 
L 185.941697 49.541772 
L 186.424275 49.618737 
L 186.906853 49.811149 
L 187.87201 49.426325 
L 188.354588 48.810605 
L 188.837166 49.19543 
L 189.319745 48.387298 
L 189.802323 49.118465 
L 190.284901 49.079983 
L 190.767479 49.734184 
L 191.250058 49.233912 
L 191.732636 49.079983 
L 192.697793 49.118465 
L 193.180371 48.348816 
L 195.110684 48.88757 
L 195.593262 48.695158 
L 196.075841 48.73364 
L 196.558419 49.118465 
L 197.040997 47.925509 
L 197.523576 49.0415 
L 198.006154 47.694614 
L 198.488732 48.117921 
L 198.97131 47.925509 
L 199.453889 48.079439 
L 200.419045 47.579167 
L 200.901624 48.271851 
L 201.384202 48.310333 
L 201.86678 47.963991 
L 202.349358 47.30979 
L 202.831937 47.386754 
L 203.314515 48.040956 
L 203.797093 48.194886 
L 204.279672 48.194886 
L 204.76225 47.348272 
L 205.244828 47.771579 
L 205.727407 47.848544 
L 206.692563 46.963447 
L 207.175141 47.386754 
L 207.65772 46.924965 
L 208.140298 46.848 
L 208.622876 47.309789 
L 209.105455 46.924965 
L 209.105455 46.924965 
" style="fill:none;stroke:#1f77b4;stroke-linecap:square;stroke-width:1.5;"/>
   </g>
   <g id="patch_3">
    <path d="M 57.6 159.744 
L 57.6 41.472 
" style="fill:none;stroke:#000000;stroke-linecap:square;stroke-linejoin:miter;stroke-width:0.8;"/>
   </g>
   <g id="patch_4">
    <path d="M 216.32 159.744 
L 216.32 41.472 
" style="fill:none;stroke:#000000;stroke-linecap:square;stroke-linejoin:miter;stroke-width:0.8;"/>
   </g>
   <g id="patch_5">
    <path d="M 57.6 159.744 
L 216.32 159.744 
" style="fill:none;stroke:#000000;stroke-linecap:square;stroke-linejoin:miter;stroke-width:0.8;"/>
   </g>
   <g id="patch_6">
    <path d="M 57.6 41.472 
L 216.32 41.472 
" style="fill:none;stroke:#000000;stroke-linecap:square;stroke-linejoin:miter;stroke-width:0.8;"/>
   </g>
   <g id="text_9">
    <!-- acc -->
    <defs>
     <path d="M 34.28125 27.484375 
Q 23.390625 27.484375 19.1875 25 
Q 14.984375 22.515625 14.984375 16.5 
Q 14.984375 11.71875 18.140625 8.90625 
Q 21.296875 6.109375 26.703125 6.109375 
Q 34.1875 6.109375 38.703125 11.40625 
Q 43.21875 16.703125 43.21875 25.484375 
L 43.21875 27.484375 
z
M 52.203125 31.203125 
L 52.203125 0 
L 43.21875 0 
L 43.21875 8.296875 
Q 40.140625 3.328125 35.546875 0.953125 
Q 30.953125 -1.421875 24.3125 -1.421875 
Q 15.921875 -1.421875 10.953125 3.296875 
Q 6 8.015625 6 15.921875 
Q 6 25.140625 12.171875 29.828125 
Q 18.359375 34.515625 30.609375 34.515625 
L 43.21875 34.515625 
L 43.21875 35.40625 
Q 43.21875 41.609375 39.140625 45 
Q 35.0625 48.390625 27.6875 48.390625 
Q 23 48.390625 18.546875 47.265625 
Q 14.109375 46.140625 10.015625 43.890625 
L 10.015625 52.203125 
Q 14.9375 54.109375 19.578125 55.046875 
Q 24.21875 56 28.609375 56 
Q 40.484375 56 46.34375 49.84375 
Q 52.203125 43.703125 52.203125 31.203125 
z
" id="DejaVuSans-61"/>
     <path d="M 48.78125 52.59375 
L 48.78125 44.1875 
Q 44.96875 46.296875 41.140625 47.34375 
Q 37.3125 48.390625 33.40625 48.390625 
Q 24.65625 48.390625 19.8125 42.84375 
Q 14.984375 37.3125 14.984375 27.296875 
Q 14.984375 17.28125 19.8125 11.734375 
Q 24.65625 6.203125 33.40625 6.203125 
Q 37.3125 6.203125 41.140625 7.25 
Q 44.96875 8.296875 48.78125 10.40625 
L 48.78125 2.09375 
Q 45.015625 0.34375 40.984375 -0.53125 
Q 36.96875 -1.421875 32.421875 -1.421875 
Q 20.0625 -1.421875 12.78125 6.34375 
Q 5.515625 14.109375 5.515625 27.296875 
Q 5.515625 40.671875 12.859375 48.328125 
Q 20.21875 56 33.015625 56 
Q 37.15625 56 41.109375 55.140625 
Q 45.0625 54.296875 48.78125 52.59375 
z
" id="DejaVuSans-63"/>
    </defs>
    <g transform="translate(126.685 35.472)scale(0.12 -0.12)">
     <use xlink:href="#DejaVuSans-61"/>
     <use x="61.279297" xlink:href="#DejaVuSans-63"/>
     <use x="116.259766" xlink:href="#DejaVuSans-63"/>
    </g>
   </g>
  </g>
  <g id="axes_2">
   <g id="patch_7">
    <path d="M 256 159.744 
L 414.72 159.744 
L 414.72 41.472 
L 256 41.472 
z
" style="fill:#ffffff;"/>
   </g>
   <g id="matplotlib.axis_3">
    <g id="xtick_5">
     <g id="line2d_18">
      <path clip-path="url(#p7d899bb749)" d="M 263.214545 159.744 
L 263.214545 41.472 
" style="fill:none;stroke:#b0b0b0;stroke-linecap:square;stroke-width:0.8;"/>
     </g>
     <g id="line2d_19">
      <g>
       <use style="stroke:#000000;stroke-width:0.8;" x="263.214545" xlink:href="#m17d268b970" y="159.744"/>
      </g>
     </g>
     <g id="text_10">
      <!-- 0 -->
      <g transform="translate(260.033295 174.342437)scale(0.1 -0.1)">
       <use xlink:href="#DejaVuSans-30"/>
      </g>
     </g>
    </g>
    <g id="xtick_6">
     <g id="line2d_20">
      <path clip-path="url(#p7d899bb749)" d="M 311.472375 159.744 
L 311.472375 41.472 
" style="fill:none;stroke:#b0b0b0;stroke-linecap:square;stroke-width:0.8;"/>
     </g>
     <g id="line2d_21">
      <g>
       <use style="stroke:#000000;stroke-width:0.8;" x="311.472375" xlink:href="#m17d268b970" y="159.744"/>
      </g>
     </g>
     <g id="text_11">
      <!-- 100 -->
      <g transform="translate(301.928625 174.342437)scale(0.1 -0.1)">
       <use xlink:href="#DejaVuSans-31"/>
       <use x="63.623047" xlink:href="#DejaVuSans-30"/>
       <use x="127.246094" xlink:href="#DejaVuSans-30"/>
      </g>
     </g>
    </g>
    <g id="xtick_7">
     <g id="line2d_22">
      <path clip-path="url(#p7d899bb749)" d="M 359.730204 159.744 
L 359.730204 41.472 
" style="fill:none;stroke:#b0b0b0;stroke-linecap:square;stroke-width:0.8;"/>
     </g>
     <g id="line2d_23">
      <g>
       <use style="stroke:#000000;stroke-width:0.8;" x="359.730204" xlink:href="#m17d268b970" y="159.744"/>
      </g>
     </g>
     <g id="text_12">
      <!-- 200 -->
      <g transform="translate(350.186454 174.342437)scale(0.1 -0.1)">
       <use xlink:href="#DejaVuSans-32"/>
       <use x="63.623047" xlink:href="#DejaVuSans-30"/>
       <use x="127.246094" xlink:href="#DejaVuSans-30"/>
      </g>
     </g>
    </g>
    <g id="xtick_8">
     <g id="line2d_24">
      <path clip-path="url(#p7d899bb749)" d="M 407.988033 159.744 
L 407.988033 41.472 
" style="fill:none;stroke:#b0b0b0;stroke-linecap:square;stroke-width:0.8;"/>
     </g>
     <g id="line2d_25">
      <g>
       <use style="stroke:#000000;stroke-width:0.8;" x="407.988033" xlink:href="#m17d268b970" y="159.744"/>
      </g>
     </g>
     <g id="text_13">
      <!-- 300 -->
      <g transform="translate(398.444283 174.342437)scale(0.1 -0.1)">
       <use xlink:href="#DejaVuSans-33"/>
       <use x="63.623047" xlink:href="#DejaVuSans-30"/>
       <use x="127.246094" xlink:href="#DejaVuSans-30"/>
      </g>
     </g>
    </g>
   </g>
   <g id="matplotlib.axis_4">
    <g id="ytick_5">
     <g id="line2d_26">
      <path clip-path="url(#p7d899bb749)" d="M 256 159.77187 
L 414.72 159.77187 
" style="fill:none;stroke:#b0b0b0;stroke-linecap:square;stroke-width:0.8;"/>
     </g>
     <g id="line2d_27">
      <g>
       <use style="stroke:#000000;stroke-width:0.8;" x="256" xlink:href="#m1377f723b7" y="159.77187"/>
      </g>
     </g>
     <g id="text_14">
      <!-- 0 -->
      <g transform="translate(242.6375 163.571089)scale(0.1 -0.1)">
       <use xlink:href="#DejaVuSans-30"/>
      </g>
     </g>
    </g>
    <g id="ytick_6">
     <g id="line2d_28">
      <path clip-path="url(#p7d899bb749)" d="M 256 119.022675 
L 414.72 119.022675 
" style="fill:none;stroke:#b0b0b0;stroke-linecap:square;stroke-width:0.8;"/>
     </g>
     <g id="line2d_29">
      <g>
       <use style="stroke:#000000;stroke-width:0.8;" x="256" xlink:href="#m1377f723b7" y="119.022675"/>
      </g>
     </g>
     <g id="text_15">
      <!-- 2 -->
      <g transform="translate(242.6375 122.821894)scale(0.1 -0.1)">
       <use xlink:href="#DejaVuSans-32"/>
      </g>
     </g>
    </g>
    <g id="ytick_7">
     <g id="line2d_30">
      <path clip-path="url(#p7d899bb749)" d="M 256 78.27348 
L 414.72 78.27348 
" style="fill:none;stroke:#b0b0b0;stroke-linecap:square;stroke-width:0.8;"/>
     </g>
     <g id="line2d_31">
      <g>
       <use style="stroke:#000000;stroke-width:0.8;" x="256" xlink:href="#m1377f723b7" y="78.27348"/>
      </g>
     </g>
     <g id="text_16">
      <!-- 4 -->
      <defs>
       <path d="M 37.796875 64.3125 
L 12.890625 25.390625 
L 37.796875 25.390625 
z
M 35.203125 72.90625 
L 47.609375 72.90625 
L 47.609375 25.390625 
L 58.015625 25.390625 
L 58.015625 17.1875 
L 47.609375 17.1875 
L 47.609375 0 
L 37.796875 0 
L 37.796875 17.1875 
L 4.890625 17.1875 
L 4.890625 26.703125 
z
" id="DejaVuSans-34"/>
      </defs>
      <g transform="translate(242.6375 82.072699)scale(0.1 -0.1)">
       <use xlink:href="#DejaVuSans-34"/>
      </g>
     </g>
    </g>
   </g>
   <g id="line2d_32">
    <path clip-path="url(#p7d899bb749)" d="M 263.214545 46.848 
L 263.697124 48.403671 
L 264.179702 53.597874 
L 264.66228 62.262919 
L 265.627437 81.492853 
L 266.110015 87.642624 
L 266.592593 92.061611 
L 267.55775 98.072494 
L 268.522907 102.720337 
L 269.488063 106.347924 
L 269.970642 107.49863 
L 270.45322 109.17218 
L 270.935798 110.216955 
L 271.900955 112.877286 
L 272.383533 113.945294 
L 273.34869 115.618543 
L 274.313846 117.575904 
L 274.796424 118.069891 
L 275.279003 119.394589 
L 275.761581 119.716393 
L 276.726738 120.756707 
L 277.691894 122.24897 
L 278.174472 122.598362 
L 278.657051 123.646787 
L 279.139629 123.762327 
L 280.587364 125.757743 
L 281.069942 125.656462 
L 281.552521 126.525706 
L 282.035099 127.052128 
L 282.517677 127.241437 
L 283.000255 127.578086 
L 283.482834 128.419381 
L 284.44799 128.809183 
L 285.413147 129.88722 
L 285.895725 129.79435 
L 286.378303 130.194147 
L 286.860882 130.125031 
L 287.34346 131.229782 
L 287.826038 130.828559 
L 288.308617 131.500567 
L 289.273773 132.204786 
L 289.756351 132.787859 
L 290.23893 132.798426 
L 291.204086 133.200249 
L 291.686665 133.729966 
L 292.169243 133.704858 
L 293.1344 134.449837 
L 293.616978 134.685237 
L 294.099556 134.630586 
L 294.582134 135.171317 
L 295.064713 134.991748 
L 295.547291 135.712322 
L 296.029869 135.662859 
L 296.512448 136.165797 
L 296.995026 135.724676 
L 297.477604 136.269916 
L 297.960182 136.608895 
L 298.442761 136.740277 
L 298.925339 137.21578 
L 299.407917 137.392981 
L 299.890496 137.18421 
L 300.373074 137.732941 
L 300.855652 138.068202 
L 301.33823 138.11186 
L 301.820809 138.458533 
L 302.303387 138.377323 
L 303.751122 139.595958 
L 304.716279 139.467624 
L 305.198857 140.07728 
L 305.681435 140.401417 
L 306.164013 139.941626 
L 306.646592 140.351671 
L 307.611748 140.768629 
L 308.094327 141.200285 
L 308.576905 140.733285 
L 309.059483 141.514848 
L 309.542061 141.330795 
L 310.507218 141.632197 
L 310.989796 141.976899 
L 311.472375 141.760563 
L 311.954953 142.343449 
L 312.437531 142.379199 
L 312.920109 143.017597 
L 313.885266 142.400696 
L 314.367844 143.17019 
L 314.850423 143.148737 
L 315.333001 142.981763 
L 315.815579 143.30276 
L 316.298157 143.163363 
L 316.780736 143.597898 
L 317.263314 143.642746 
L 317.745892 143.974715 
L 318.228471 144.099557 
L 318.711049 144.091247 
L 319.193627 144.271881 
L 319.676206 144.20837 
L 320.158784 144.327069 
L 320.641362 144.69877 
L 321.12394 144.772439 
L 322.089097 145.205698 
L 322.571675 145.047723 
L 323.054254 145.328126 
L 323.536832 145.78961 
L 324.01941 145.640663 
L 324.501988 145.829455 
L 324.984567 145.572819 
L 325.467145 145.656479 
L 325.949723 146.250074 
L 326.432302 146.203954 
L 326.91488 146.278085 
L 327.397458 146.526062 
L 327.880036 146.435011 
L 328.845193 146.961504 
L 329.327771 146.903259 
L 329.81035 147.059383 
L 330.775506 146.957674 
L 332.223241 147.238287 
L 333.188398 147.830212 
L 333.670976 147.595753 
L 334.153554 148.001094 
L 334.636133 147.759571 
L 335.118711 148.305554 
L 335.601289 148.00439 
L 336.083867 148.495648 
L 336.566446 148.041882 
L 337.049024 148.470436 
L 337.531602 148.420481 
L 338.014181 148.167542 
L 338.979337 148.517255 
L 339.461915 148.966892 
L 339.944494 148.406675 
L 340.427072 149.159563 
L 340.90965 148.728447 
L 342.357385 149.073525 
L 342.839964 148.988426 
L 343.80512 149.259991 
L 345.252855 149.341626 
L 345.735433 149.473333 
L 346.218012 149.331303 
L 346.70059 149.403334 
L 347.183168 150.054863 
L 347.665746 149.671015 
L 349.113481 150.046673 
L 350.078638 149.882612 
L 350.561216 150.044641 
L 351.043794 149.681225 
L 351.526373 150.166612 
L 352.008951 149.973576 
L 352.491529 150.237072 
L 352.974108 149.951548 
L 353.456686 150.361115 
L 353.939264 150.047807 
L 354.421843 150.775495 
L 354.904421 150.520877 
L 355.869577 150.482066 
L 356.352156 150.497938 
L 356.834734 151.120949 
L 357.317312 150.659616 
L 357.799891 150.601364 
L 358.282469 150.886413 
L 358.765047 150.52825 
L 359.247625 151.259838 
L 359.730204 151.188798 
L 360.212782 150.90645 
L 360.69536 151.20095 
L 361.177939 150.962343 
L 362.143095 151.245922 
L 362.625673 151.717088 
L 363.108252 151.239497 
L 363.59083 151.346909 
L 364.073408 151.21233 
L 364.555987 151.403579 
L 365.521143 151.388584 
L 366.003721 151.161995 
L 366.4863 151.643129 
L 366.968878 151.575846 
L 368.416613 151.832071 
L 368.899191 151.654746 
L 369.38177 151.913837 
L 370.829504 152.043209 
L 371.312083 152.062662 
L 371.794661 152.233549 
L 372.277239 151.95505 
L 372.759818 152.066649 
L 373.242396 151.819211 
L 373.724974 152.218702 
L 374.207552 152.080554 
L 374.690131 152.353626 
L 375.172709 152.293967 
L 375.655287 152.372222 
L 376.137866 152.258171 
L 377.103022 152.481251 
L 377.5856 152.357745 
L 378.068179 152.63959 
L 378.550757 152.510709 
L 379.033335 152.707421 
L 379.515914 152.686267 
L 379.998492 152.30264 
L 380.48107 152.340589 
L 380.963649 152.797353 
L 381.446227 153.021703 
L 381.928805 152.553239 
L 383.859118 152.708929 
L 384.824275 152.720867 
L 385.306853 152.766016 
L 385.789431 152.945517 
L 387.237166 153.07644 
L 387.719745 153.259335 
L 388.202323 153.101481 
L 388.684901 153.268778 
L 389.167479 152.783649 
L 389.650058 153.018278 
L 390.132636 152.874364 
L 390.615214 153.374657 
L 391.097793 153.011695 
L 391.580371 153.51952 
L 392.545528 153.399082 
L 393.510684 153.501128 
L 393.993262 153.190856 
L 394.475841 153.401438 
L 394.958419 153.293986 
L 395.440997 153.722379 
L 395.923576 153.252697 
L 396.406154 153.667546 
L 397.37131 153.654986 
L 397.853889 153.5354 
L 398.336467 153.572503 
L 398.819045 153.914464 
L 399.301624 153.633803 
L 400.26678 153.806708 
L 401.231937 153.997864 
L 402.197093 153.740919 
L 402.679672 153.632209 
L 403.16225 153.944008 
L 403.644828 153.885793 
L 404.127407 153.665601 
L 404.609985 154.047841 
L 405.575141 153.777159 
L 406.05772 154.279037 
L 406.540298 154.213002 
L 407.022876 153.855722 
L 407.505455 154.368 
L 407.505455 154.368 
" style="fill:none;stroke:#1f77b4;stroke-linecap:square;stroke-width:1.5;"/>
   </g>
   <g id="patch_8">
    <path d="M 256 159.744 
L 256 41.472 
" style="fill:none;stroke:#000000;stroke-linecap:square;stroke-linejoin:miter;stroke-width:0.8;"/>
   </g>
   <g id="patch_9">
    <path d="M 414.72 159.744 
L 414.72 41.472 
" style="fill:none;stroke:#000000;stroke-linecap:square;stroke-linejoin:miter;stroke-width:0.8;"/>
   </g>
   <g id="patch_10">
    <path d="M 256 159.744 
L 414.72 159.744 
" style="fill:none;stroke:#000000;stroke-linecap:square;stroke-linejoin:miter;stroke-width:0.8;"/>
   </g>
   <g id="patch_11">
    <path d="M 256 41.472 
L 414.72 41.472 
" style="fill:none;stroke:#000000;stroke-linecap:square;stroke-linejoin:miter;stroke-width:0.8;"/>
   </g>
   <g id="text_17">
    <!-- loss -->
    <defs>
     <path d="M 9.421875 75.984375 
L 18.40625 75.984375 
L 18.40625 0 
L 9.421875 0 
z
" id="DejaVuSans-6c"/>
     <path d="M 30.609375 48.390625 
Q 23.390625 48.390625 19.1875 42.75 
Q 14.984375 37.109375 14.984375 27.296875 
Q 14.984375 17.484375 19.15625 11.84375 
Q 23.34375 6.203125 30.609375 6.203125 
Q 37.796875 6.203125 41.984375 11.859375 
Q 46.1875 17.53125 46.1875 27.296875 
Q 46.1875 37.015625 41.984375 42.703125 
Q 37.796875 48.390625 30.609375 48.390625 
z
M 30.609375 56 
Q 42.328125 56 49.015625 48.375 
Q 55.71875 40.765625 55.71875 27.296875 
Q 55.71875 13.875 49.015625 6.21875 
Q 42.328125 -1.421875 30.609375 -1.421875 
Q 18.84375 -1.421875 12.171875 6.21875 
Q 5.515625 13.875 5.515625 27.296875 
Q 5.515625 40.765625 12.171875 48.375 
Q 18.84375 56 30.609375 56 
z
" id="DejaVuSans-6f"/>
     <path d="M 44.28125 53.078125 
L 44.28125 44.578125 
Q 40.484375 46.53125 36.375 47.5 
Q 32.28125 48.484375 27.875 48.484375 
Q 21.1875 48.484375 17.84375 46.4375 
Q 14.5 44.390625 14.5 40.28125 
Q 14.5 37.15625 16.890625 35.375 
Q 19.28125 33.59375 26.515625 31.984375 
L 29.59375 31.296875 
Q 39.15625 29.25 43.1875 25.515625 
Q 47.21875 21.78125 47.21875 15.09375 
Q 47.21875 7.46875 41.1875 3.015625 
Q 35.15625 -1.421875 24.609375 -1.421875 
Q 20.21875 -1.421875 15.453125 -0.5625 
Q 10.6875 0.296875 5.421875 2 
L 5.421875 11.28125 
Q 10.40625 8.6875 15.234375 7.390625 
Q 20.0625 6.109375 24.8125 6.109375 
Q 31.15625 6.109375 34.5625 8.28125 
Q 37.984375 10.453125 37.984375 14.40625 
Q 37.984375 18.0625 35.515625 20.015625 
Q 33.0625 21.96875 24.703125 23.78125 
L 21.578125 24.515625 
Q 13.234375 26.265625 9.515625 29.90625 
Q 5.8125 33.546875 5.8125 39.890625 
Q 5.8125 47.609375 11.28125 51.796875 
Q 16.75 56 26.8125 56 
Q 31.78125 56 36.171875 55.265625 
Q 40.578125 54.546875 44.28125 53.078125 
z
" id="DejaVuSans-73"/>
    </defs>
    <g transform="translate(323.770625 35.472)scale(0.12 -0.12)">
     <use xlink:href="#DejaVuSans-6c"/>
     <use x="27.783203" xlink:href="#DejaVuSans-6f"/>
     <use x="88.964844" xlink:href="#DejaVuSans-73"/>
     <use x="141.064453" xlink:href="#DejaVuSans-73"/>
    </g>
   </g>
  </g>
  <g id="axes_3">
   <g id="patch_12">
    <path d="M 57.6 307.584 
L 216.32 307.584 
L 216.32 189.312 
L 57.6 189.312 
z
" style="fill:#ffffff;"/>
   </g>
   <g id="matplotlib.axis_5">
    <g id="xtick_9">
     <g id="line2d_33">
      <path clip-path="url(#p18aa2d514e)" d="M 64.814545 307.584 
L 64.814545 189.312 
" style="fill:none;stroke:#b0b0b0;stroke-linecap:square;stroke-width:0.8;"/>
     </g>
     <g id="line2d_34">
      <g>
       <use style="stroke:#000000;stroke-width:0.8;" x="64.814545" xlink:href="#m17d268b970" y="307.584"/>
      </g>
     </g>
     <g id="text_18">
      <!-- 0 -->
      <g transform="translate(61.633295 322.182437)scale(0.1 -0.1)">
       <use xlink:href="#DejaVuSans-30"/>
      </g>
     </g>
    </g>
    <g id="xtick_10">
     <g id="line2d_35">
      <path clip-path="url(#p18aa2d514e)" d="M 113.072375 307.584 
L 113.072375 189.312 
" style="fill:none;stroke:#b0b0b0;stroke-linecap:square;stroke-width:0.8;"/>
     </g>
     <g id="line2d_36">
      <g>
       <use style="stroke:#000000;stroke-width:0.8;" x="113.072375" xlink:href="#m17d268b970" y="307.584"/>
      </g>
     </g>
     <g id="text_19">
      <!-- 100 -->
      <g transform="translate(103.528625 322.182437)scale(0.1 -0.1)">
       <use xlink:href="#DejaVuSans-31"/>
       <use x="63.623047" xlink:href="#DejaVuSans-30"/>
       <use x="127.246094" xlink:href="#DejaVuSans-30"/>
      </g>
     </g>
    </g>
    <g id="xtick_11">
     <g id="line2d_37">
      <path clip-path="url(#p18aa2d514e)" d="M 161.330204 307.584 
L 161.330204 189.312 
" style="fill:none;stroke:#b0b0b0;stroke-linecap:square;stroke-width:0.8;"/>
     </g>
     <g id="line2d_38">
      <g>
       <use style="stroke:#000000;stroke-width:0.8;" x="161.330204" xlink:href="#m17d268b970" y="307.584"/>
      </g>
     </g>
     <g id="text_20">
      <!-- 200 -->
      <g transform="translate(151.786454 322.182437)scale(0.1 -0.1)">
       <use xlink:href="#DejaVuSans-32"/>
       <use x="63.623047" xlink:href="#DejaVuSans-30"/>
       <use x="127.246094" xlink:href="#DejaVuSans-30"/>
      </g>
     </g>
    </g>
    <g id="xtick_12">
     <g id="line2d_39">
      <path clip-path="url(#p18aa2d514e)" d="M 209.588033 307.584 
L 209.588033 189.312 
" style="fill:none;stroke:#b0b0b0;stroke-linecap:square;stroke-width:0.8;"/>
     </g>
     <g id="line2d_40">
      <g>
       <use style="stroke:#000000;stroke-width:0.8;" x="209.588033" xlink:href="#m17d268b970" y="307.584"/>
      </g>
     </g>
     <g id="text_21">
      <!-- 300 -->
      <g transform="translate(200.044283 322.182437)scale(0.1 -0.1)">
       <use xlink:href="#DejaVuSans-33"/>
       <use x="63.623047" xlink:href="#DejaVuSans-30"/>
       <use x="127.246094" xlink:href="#DejaVuSans-30"/>
      </g>
     </g>
    </g>
   </g>
   <g id="matplotlib.axis_6">
    <g id="ytick_8">
     <g id="line2d_41">
      <path clip-path="url(#p18aa2d514e)" d="M 57.6 302.685867 
L 216.32 302.685867 
" style="fill:none;stroke:#b0b0b0;stroke-linecap:square;stroke-width:0.8;"/>
     </g>
     <g id="line2d_42">
      <g>
       <use style="stroke:#000000;stroke-width:0.8;" x="57.6" xlink:href="#m1377f723b7" y="302.685867"/>
      </g>
     </g>
     <g id="text_22">
      <!-- 0.0 -->
      <g transform="translate(34.696875 306.485085)scale(0.1 -0.1)">
       <use xlink:href="#DejaVuSans-30"/>
       <use x="63.623047" xlink:href="#DejaVuSans-2e"/>
       <use x="95.410156" xlink:href="#DejaVuSans-30"/>
      </g>
     </g>
    </g>
    <g id="ytick_9">
     <g id="line2d_43">
      <path clip-path="url(#p18aa2d514e)" d="M 57.6 278.219093 
L 216.32 278.219093 
" style="fill:none;stroke:#b0b0b0;stroke-linecap:square;stroke-width:0.8;"/>
     </g>
     <g id="line2d_44">
      <g>
       <use style="stroke:#000000;stroke-width:0.8;" x="57.6" xlink:href="#m1377f723b7" y="278.219093"/>
      </g>
     </g>
     <g id="text_23">
      <!-- 0.2 -->
      <g transform="translate(34.696875 282.018312)scale(0.1 -0.1)">
       <use xlink:href="#DejaVuSans-30"/>
       <use x="63.623047" xlink:href="#DejaVuSans-2e"/>
       <use x="95.410156" xlink:href="#DejaVuSans-32"/>
      </g>
     </g>
    </g>
    <g id="ytick_10">
     <g id="line2d_45">
      <path clip-path="url(#p18aa2d514e)" d="M 57.6 253.75232 
L 216.32 253.75232 
" style="fill:none;stroke:#b0b0b0;stroke-linecap:square;stroke-width:0.8;"/>
     </g>
     <g id="line2d_46">
      <g>
       <use style="stroke:#000000;stroke-width:0.8;" x="57.6" xlink:href="#m1377f723b7" y="253.75232"/>
      </g>
     </g>
     <g id="text_24">
      <!-- 0.4 -->
      <g transform="translate(34.696875 257.551539)scale(0.1 -0.1)">
       <use xlink:href="#DejaVuSans-30"/>
       <use x="63.623047" xlink:href="#DejaVuSans-2e"/>
       <use x="95.410156" xlink:href="#DejaVuSans-34"/>
      </g>
     </g>
    </g>
    <g id="ytick_11">
     <g id="line2d_47">
      <path clip-path="url(#p18aa2d514e)" d="M 57.6 229.285547 
L 216.32 229.285547 
" style="fill:none;stroke:#b0b0b0;stroke-linecap:square;stroke-width:0.8;"/>
     </g>
     <g id="line2d_48">
      <g>
       <use style="stroke:#000000;stroke-width:0.8;" x="57.6" xlink:href="#m1377f723b7" y="229.285547"/>
      </g>
     </g>
     <g id="text_25">
      <!-- 0.6 -->
      <defs>
       <path d="M 33.015625 40.375 
Q 26.375 40.375 22.484375 35.828125 
Q 18.609375 31.296875 18.609375 23.390625 
Q 18.609375 15.53125 22.484375 10.953125 
Q 26.375 6.390625 33.015625 6.390625 
Q 39.65625 6.390625 43.53125 10.953125 
Q 47.40625 15.53125 47.40625 23.390625 
Q 47.40625 31.296875 43.53125 35.828125 
Q 39.65625 40.375 33.015625 40.375 
z
M 52.59375 71.296875 
L 52.59375 62.3125 
Q 48.875 64.0625 45.09375 64.984375 
Q 41.3125 65.921875 37.59375 65.921875 
Q 27.828125 65.921875 22.671875 59.328125 
Q 17.53125 52.734375 16.796875 39.40625 
Q 19.671875 43.65625 24.015625 45.921875 
Q 28.375 48.1875 33.59375 48.1875 
Q 44.578125 48.1875 50.953125 41.515625 
Q 57.328125 34.859375 57.328125 23.390625 
Q 57.328125 12.15625 50.6875 5.359375 
Q 44.046875 -1.421875 33.015625 -1.421875 
Q 20.359375 -1.421875 13.671875 8.265625 
Q 6.984375 17.96875 6.984375 36.375 
Q 6.984375 53.65625 15.1875 63.9375 
Q 23.390625 74.21875 37.203125 74.21875 
Q 40.921875 74.21875 44.703125 73.484375 
Q 48.484375 72.75 52.59375 71.296875 
z
" id="DejaVuSans-36"/>
      </defs>
      <g transform="translate(34.696875 233.084765)scale(0.1 -0.1)">
       <use xlink:href="#DejaVuSans-30"/>
       <use x="63.623047" xlink:href="#DejaVuSans-2e"/>
       <use x="95.410156" xlink:href="#DejaVuSans-36"/>
      </g>
     </g>
    </g>
    <g id="ytick_12">
     <g id="line2d_49">
      <path clip-path="url(#p18aa2d514e)" d="M 57.6 204.818773 
L 216.32 204.818773 
" style="fill:none;stroke:#b0b0b0;stroke-linecap:square;stroke-width:0.8;"/>
     </g>
     <g id="line2d_50">
      <g>
       <use style="stroke:#000000;stroke-width:0.8;" x="57.6" xlink:href="#m1377f723b7" y="204.818773"/>
      </g>
     </g>
     <g id="text_26">
      <!-- 0.8 -->
      <defs>
       <path d="M 31.78125 34.625 
Q 24.75 34.625 20.71875 30.859375 
Q 16.703125 27.09375 16.703125 20.515625 
Q 16.703125 13.921875 20.71875 10.15625 
Q 24.75 6.390625 31.78125 6.390625 
Q 38.8125 6.390625 42.859375 10.171875 
Q 46.921875 13.96875 46.921875 20.515625 
Q 46.921875 27.09375 42.890625 30.859375 
Q 38.875 34.625 31.78125 34.625 
z
M 21.921875 38.8125 
Q 15.578125 40.375 12.03125 44.71875 
Q 8.5 49.078125 8.5 55.328125 
Q 8.5 64.0625 14.71875 69.140625 
Q 20.953125 74.21875 31.78125 74.21875 
Q 42.671875 74.21875 48.875 69.140625 
Q 55.078125 64.0625 55.078125 55.328125 
Q 55.078125 49.078125 51.53125 44.71875 
Q 48 40.375 41.703125 38.8125 
Q 48.828125 37.15625 52.796875 32.3125 
Q 56.78125 27.484375 56.78125 20.515625 
Q 56.78125 9.90625 50.3125 4.234375 
Q 43.84375 -1.421875 31.78125 -1.421875 
Q 19.734375 -1.421875 13.25 4.234375 
Q 6.78125 9.90625 6.78125 20.515625 
Q 6.78125 27.484375 10.78125 32.3125 
Q 14.796875 37.15625 21.921875 38.8125 
z
M 18.3125 54.390625 
Q 18.3125 48.734375 21.84375 45.5625 
Q 25.390625 42.390625 31.78125 42.390625 
Q 38.140625 42.390625 41.71875 45.5625 
Q 45.3125 48.734375 45.3125 54.390625 
Q 45.3125 60.0625 41.71875 63.234375 
Q 38.140625 66.40625 31.78125 66.40625 
Q 25.390625 66.40625 21.84375 63.234375 
Q 18.3125 60.0625 18.3125 54.390625 
z
" id="DejaVuSans-38"/>
      </defs>
      <g transform="translate(34.696875 208.617992)scale(0.1 -0.1)">
       <use xlink:href="#DejaVuSans-30"/>
       <use x="63.623047" xlink:href="#DejaVuSans-2e"/>
       <use x="95.410156" xlink:href="#DejaVuSans-38"/>
      </g>
     </g>
    </g>
   </g>
   <g id="line2d_51">
    <path clip-path="url(#p18aa2d514e)" d="M 64.814545 302.208 
L 65.297124 301.730133 
L 65.779702 299.818667 
L 66.26228 296.951467 
L 66.744859 296.4736 
L 67.227437 288.827733 
L 67.710015 289.3056 
L 68.192593 287.872 
L 68.675172 279.270399 
L 69.15775 278.314666 
L 69.640328 280.704 
L 70.122907 274.491733 
L 70.605485 274.013866 
L 71.088063 269.235199 
L 71.570642 273.535999 
L 72.05322 273.535999 
L 72.535798 274.9696 
L 73.500955 261.589332 
L 73.983533 263.978666 
L 74.466111 263.500799 
L 74.94869 263.500799 
L 75.431268 259.199999 
L 75.913846 261.589333 
L 76.396424 252.509866 
L 76.879003 255.854932 
L 77.361581 261.111466 
L 77.844159 255.377066 
L 78.809316 255.377066 
L 79.291894 249.1648 
L 79.774472 248.209066 
L 80.257051 255.377066 
L 80.739629 251.554133 
L 81.222207 256.3328 
L 81.704786 247.731199 
L 82.187364 248.209066 
L 82.669942 245.819733 
L 83.152521 244.386132 
L 83.635099 251.554132 
L 84.117677 245.819731 
L 84.600255 243.908266 
L 85.082834 247.7312 
L 85.565412 254.899199 
L 86.04799 242.952533 
L 86.530569 239.607466 
L 87.013147 240.085332 
L 87.495725 242.952533 
L 88.460882 234.828799 
L 88.94346 241.996799 
L 89.426038 239.607465 
L 89.908617 234.350932 
L 90.391195 242.474666 
L 90.873773 232.439465 
L 91.356351 233.873065 
L 91.83893 236.740266 
L 92.321508 234.350933 
L 92.804086 244.386132 
L 93.286665 236.740266 
L 93.769243 232.917332 
L 94.251821 232.917331 
L 94.7344 228.138665 
L 95.216978 235.306666 
L 95.699556 232.439465 
L 96.182134 237.218132 
L 96.664713 236.262399 
L 97.147291 233.395198 
L 97.629869 240.563199 
L 98.112448 230.050132 
L 98.595026 235.306665 
L 99.077604 226.705064 
L 99.560182 228.616532 
L 100.042761 229.094398 
L 100.525339 235.306665 
L 101.007917 234.828798 
L 101.490496 230.527999 
L 101.973074 231.483732 
L 102.455652 229.094398 
L 102.93823 230.050132 
L 103.420809 226.227199 
L 103.903387 225.271463 
L 104.385965 223.837866 
L 104.868544 226.227198 
L 105.351122 225.749332 
L 105.8337 224.315732 
L 106.316279 231.483731 
L 106.798857 227.660798 
L 107.281435 228.138664 
L 107.764013 229.572265 
L 108.246592 221.926399 
L 108.72917 227.182932 
L 109.211748 226.705065 
L 109.694327 228.138666 
L 110.176905 230.527999 
L 110.659483 222.404266 
L 111.142061 227.660799 
L 112.107218 220.970666 
L 112.589796 229.094401 
L 113.072375 219.537065 
L 113.554953 218.581333 
L 114.037531 220.970665 
L 114.520109 221.448532 
L 115.002688 231.961598 
L 115.485266 221.926399 
L 115.967844 220.014931 
L 116.450423 225.271466 
L 116.933001 223.359997 
L 117.415579 226.227198 
L 118.380736 215.714132 
L 118.863314 220.014931 
L 119.345892 219.537065 
L 119.828471 214.280531 
L 120.311049 220.492799 
L 120.793627 221.926399 
L 121.276206 218.581333 
L 121.758784 219.059197 
L 122.241362 220.4928 
L 122.72394 225.271466 
L 123.206519 215.236265 
L 123.689097 224.7936 
L 124.171675 212.369064 
L 124.654254 211.891199 
L 125.136832 231.483731 
L 126.101988 209.979732 
L 126.584567 216.191997 
L 127.067145 216.191999 
L 127.549723 216.669864 
L 128.032302 221.926398 
L 128.51488 213.802666 
L 128.997458 214.280532 
L 129.480036 210.935464 
L 129.962615 212.369065 
L 130.445193 218.103466 
L 130.927771 215.236266 
L 131.41035 214.758399 
L 131.892928 216.191999 
L 132.375506 212.369065 
L 132.858085 207.112532 
L 133.340663 212.369066 
L 133.823241 213.324798 
L 134.305819 217.147732 
L 134.788398 211.413331 
L 135.270976 215.236264 
L 135.753554 209.501866 
L 136.236133 217.625599 
L 136.718711 212.846932 
L 137.201289 211.413332 
L 137.683867 212.846934 
L 138.166446 223.359998 
L 138.649024 210.457599 
L 139.131602 207.112533 
L 139.614181 211.413334 
L 140.096759 210.935466 
L 140.579337 209.979731 
L 141.061915 210.457599 
L 141.544494 209.979731 
L 142.027072 215.236265 
L 142.50965 212.369066 
L 142.992229 210.457597 
L 143.474807 210.935465 
L 143.957385 210.457599 
L 144.439964 216.669865 
L 144.922542 207.590398 
L 145.887698 218.103464 
L 146.852855 205.678933 
L 147.335433 209.024 
L 147.818012 209.501866 
L 148.30059 207.112532 
L 148.783168 207.590399 
L 149.265746 206.1568 
L 149.748325 209.023998 
L 150.713481 207.112532 
L 151.19606 207.112532 
L 151.678638 214.758399 
L 152.161216 207.590398 
L 152.643794 210.457598 
L 153.126373 223.359997 
L 153.608951 206.634666 
L 154.091529 214.758399 
L 154.574108 210.4576 
L 155.056686 209.501864 
L 155.539264 208.068265 
L 156.021843 205.678933 
L 156.986999 212.846933 
L 157.469577 204.723199 
L 157.952156 210.935465 
L 158.434734 209.023999 
L 158.917312 205.678933 
L 159.399891 211.413331 
L 159.882469 207.5904 
L 160.365047 205.201066 
L 160.847625 204.723198 
L 161.330204 209.501864 
L 161.812782 209.501865 
L 162.29536 210.457598 
L 162.777939 206.634666 
L 163.260517 207.112532 
L 163.743095 208.546131 
L 164.225673 212.369065 
L 165.19083 203.767466 
L 165.673408 202.333865 
L 166.155987 206.1568 
L 166.638565 206.156799 
L 167.121143 202.811733 
L 167.603721 209.979733 
L 168.0863 201.378133 
L 168.568878 206.634666 
L 169.051456 205.201065 
L 169.534035 211.891198 
L 170.016613 213.802665 
L 170.98177 204.245331 
L 171.464348 205.678932 
L 171.946926 213.324799 
L 172.429504 205.201065 
L 173.394661 205.201066 
L 173.877239 199.944533 
L 174.359818 204.245332 
L 174.842396 200.900265 
L 175.324974 207.590399 
L 175.807552 198.510933 
L 176.290131 202.333865 
L 176.772709 203.767467 
L 177.255287 203.767467 
L 177.737866 221.448531 
L 178.220444 201.855999 
L 178.703022 208.068265 
L 179.1856 205.678932 
L 179.668179 205.201066 
L 180.150757 201.856 
L 181.115914 208.068265 
L 181.598492 201.856 
L 182.08107 207.112532 
L 182.563649 202.811732 
L 183.046227 204.723199 
L 183.528805 203.289599 
L 184.011383 198.510933 
L 184.493962 201.855999 
L 184.97654 198.510934 
L 185.459118 211.413331 
L 185.941697 205.201065 
L 186.424275 202.333865 
L 186.906853 204.245332 
L 187.389431 204.245332 
L 187.87201 199.944534 
L 188.354588 198.988799 
L 188.837166 203.289598 
L 189.802323 202.333865 
L 190.284901 199.466667 
L 190.767479 199.944533 
L 191.250058 205.201064 
L 191.732636 199.944534 
L 192.215214 206.634665 
L 192.697793 203.289598 
L 193.180371 201.856 
L 193.662949 202.333865 
L 194.145528 210.457599 
L 195.110684 198.033066 
L 195.593262 205.678934 
L 196.075841 204.245331 
L 196.558419 206.634665 
L 197.040997 200.422399 
L 197.523576 199.944533 
L 198.006154 202.811732 
L 198.488732 200.4224 
L 198.97131 205.201067 
L 199.453889 200.422398 
L 199.936467 205.201066 
L 200.419045 201.378132 
L 200.901624 200.900265 
L 201.384202 196.121601 
L 201.86678 194.688 
L 202.349358 201.378132 
L 202.831937 199.466666 
L 203.314515 203.2896 
L 203.797093 204.245333 
L 204.279672 199.944533 
L 204.76225 197.555199 
L 205.244828 212.369065 
L 205.727407 201.378133 
L 206.209985 201.856 
L 206.692563 202.811732 
L 207.175141 207.112533 
L 207.65772 199.466665 
L 208.140298 201.378133 
L 208.622876 201.855998 
L 209.105455 196.1216 
L 209.105455 196.1216 
" style="fill:none;stroke:#1f77b4;stroke-linecap:square;stroke-width:1.5;"/>
   </g>
   <g id="patch_13">
    <path d="M 57.6 307.584 
L 57.6 189.312 
" style="fill:none;stroke:#000000;stroke-linecap:square;stroke-linejoin:miter;stroke-width:0.8;"/>
   </g>
   <g id="patch_14">
    <path d="M 216.32 307.584 
L 216.32 189.312 
" style="fill:none;stroke:#000000;stroke-linecap:square;stroke-linejoin:miter;stroke-width:0.8;"/>
   </g>
   <g id="patch_15">
    <path d="M 57.6 307.584 
L 216.32 307.584 
" style="fill:none;stroke:#000000;stroke-linecap:square;stroke-linejoin:miter;stroke-width:0.8;"/>
   </g>
   <g id="patch_16">
    <path d="M 57.6 189.312 
L 216.32 189.312 
" style="fill:none;stroke:#000000;stroke-linecap:square;stroke-linejoin:miter;stroke-width:0.8;"/>
   </g>
   <g id="text_27">
    <!-- val_acc -->
    <defs>
     <path d="M 2.984375 54.6875 
L 12.5 54.6875 
L 29.59375 8.796875 
L 46.6875 54.6875 
L 56.203125 54.6875 
L 35.6875 0 
L 23.484375 0 
z
" id="DejaVuSans-76"/>
     <path d="M 50.984375 -16.609375 
L 50.984375 -23.578125 
L -0.984375 -23.578125 
L -0.984375 -16.609375 
z
" id="DejaVuSans-5f"/>
    </defs>
    <g transform="translate(114.79 183.312)scale(0.12 -0.12)">
     <use xlink:href="#DejaVuSans-76"/>
     <use x="59.179688" xlink:href="#DejaVuSans-61"/>
     <use x="120.458984" xlink:href="#DejaVuSans-6c"/>
     <use x="148.242188" xlink:href="#DejaVuSans-5f"/>
     <use x="198.242188" xlink:href="#DejaVuSans-61"/>
     <use x="259.521484" xlink:href="#DejaVuSans-63"/>
     <use x="314.501953" xlink:href="#DejaVuSans-63"/>
    </g>
   </g>
  </g>
  <g id="axes_4">
   <g id="patch_17">
    <path d="M 256 307.584 
L 414.72 307.584 
L 414.72 189.312 
L 256 189.312 
z
" style="fill:#ffffff;"/>
   </g>
   <g id="matplotlib.axis_7">
    <g id="xtick_13">
     <g id="line2d_52">
      <path clip-path="url(#p5db15fe475)" d="M 263.214545 307.584 
L 263.214545 189.312 
" style="fill:none;stroke:#b0b0b0;stroke-linecap:square;stroke-width:0.8;"/>
     </g>
     <g id="line2d_53">
      <g>
       <use style="stroke:#000000;stroke-width:0.8;" x="263.214545" xlink:href="#m17d268b970" y="307.584"/>
      </g>
     </g>
     <g id="text_28">
      <!-- 0 -->
      <g transform="translate(260.033295 322.182437)scale(0.1 -0.1)">
       <use xlink:href="#DejaVuSans-30"/>
      </g>
     </g>
    </g>
    <g id="xtick_14">
     <g id="line2d_54">
      <path clip-path="url(#p5db15fe475)" d="M 311.472375 307.584 
L 311.472375 189.312 
" style="fill:none;stroke:#b0b0b0;stroke-linecap:square;stroke-width:0.8;"/>
     </g>
     <g id="line2d_55">
      <g>
       <use style="stroke:#000000;stroke-width:0.8;" x="311.472375" xlink:href="#m17d268b970" y="307.584"/>
      </g>
     </g>
     <g id="text_29">
      <!-- 100 -->
      <g transform="translate(301.928625 322.182437)scale(0.1 -0.1)">
       <use xlink:href="#DejaVuSans-31"/>
       <use x="63.623047" xlink:href="#DejaVuSans-30"/>
       <use x="127.246094" xlink:href="#DejaVuSans-30"/>
      </g>
     </g>
    </g>
    <g id="xtick_15">
     <g id="line2d_56">
      <path clip-path="url(#p5db15fe475)" d="M 359.730204 307.584 
L 359.730204 189.312 
" style="fill:none;stroke:#b0b0b0;stroke-linecap:square;stroke-width:0.8;"/>
     </g>
     <g id="line2d_57">
      <g>
       <use style="stroke:#000000;stroke-width:0.8;" x="359.730204" xlink:href="#m17d268b970" y="307.584"/>
      </g>
     </g>
     <g id="text_30">
      <!-- 200 -->
      <g transform="translate(350.186454 322.182437)scale(0.1 -0.1)">
       <use xlink:href="#DejaVuSans-32"/>
       <use x="63.623047" xlink:href="#DejaVuSans-30"/>
       <use x="127.246094" xlink:href="#DejaVuSans-30"/>
      </g>
     </g>
    </g>
    <g id="xtick_16">
     <g id="line2d_58">
      <path clip-path="url(#p5db15fe475)" d="M 407.988033 307.584 
L 407.988033 189.312 
" style="fill:none;stroke:#b0b0b0;stroke-linecap:square;stroke-width:0.8;"/>
     </g>
     <g id="line2d_59">
      <g>
       <use style="stroke:#000000;stroke-width:0.8;" x="407.988033" xlink:href="#m17d268b970" y="307.584"/>
      </g>
     </g>
     <g id="text_31">
      <!-- 300 -->
      <g transform="translate(398.444283 322.182437)scale(0.1 -0.1)">
       <use xlink:href="#DejaVuSans-33"/>
       <use x="63.623047" xlink:href="#DejaVuSans-30"/>
       <use x="127.246094" xlink:href="#DejaVuSans-30"/>
      </g>
     </g>
    </g>
   </g>
   <g id="matplotlib.axis_8">
    <g id="ytick_13">
     <g id="line2d_60">
      <path clip-path="url(#p5db15fe475)" d="M 256 269.881286 
L 414.72 269.881286 
" style="fill:none;stroke:#b0b0b0;stroke-linecap:square;stroke-width:0.8;"/>
     </g>
     <g id="line2d_61">
      <g>
       <use style="stroke:#000000;stroke-width:0.8;" x="256" xlink:href="#m1377f723b7" y="269.881286"/>
      </g>
     </g>
     <g id="text_32">
      <!-- 2 -->
      <g transform="translate(242.6375 273.680505)scale(0.1 -0.1)">
       <use xlink:href="#DejaVuSans-32"/>
      </g>
     </g>
    </g>
    <g id="ytick_14">
     <g id="line2d_62">
      <path clip-path="url(#p5db15fe475)" d="M 256 227.162708 
L 414.72 227.162708 
" style="fill:none;stroke:#b0b0b0;stroke-linecap:square;stroke-width:0.8;"/>
     </g>
     <g id="line2d_63">
      <g>
       <use style="stroke:#000000;stroke-width:0.8;" x="256" xlink:href="#m1377f723b7" y="227.162708"/>
      </g>
     </g>
     <g id="text_33">
      <!-- 4 -->
      <g transform="translate(242.6375 230.961926)scale(0.1 -0.1)">
       <use xlink:href="#DejaVuSans-34"/>
      </g>
     </g>
    </g>
   </g>
   <g id="line2d_64">
    <path clip-path="url(#p5db15fe475)" d="M 263.214545 194.688 
L 263.697124 196.848062 
L 264.66228 210.823452 
L 265.144859 221.069775 
L 265.627437 228.068602 
L 266.110015 232.351971 
L 266.592593 235.359422 
L 267.075172 240.241865 
L 267.55775 241.743226 
L 268.040328 243.641147 
L 269.005485 248.404455 
L 269.488063 249.433134 
L 269.970642 250.189729 
L 270.45322 250.152436 
L 270.935798 249.761287 
L 271.418376 254.262242 
L 271.900955 255.445534 
L 272.383533 256.153694 
L 272.866111 257.371486 
L 273.34869 257.615 
L 273.831268 259.127144 
L 274.313846 257.176187 
L 274.796424 260.406186 
L 275.279003 261.233016 
L 275.761581 261.072674 
L 276.244159 261.732996 
L 276.726738 262.760682 
L 277.691894 264.211891 
L 278.174472 265.280053 
L 278.657051 263.725085 
L 279.139629 266.305145 
L 279.622207 264.542772 
L 280.104786 266.990107 
L 280.587364 266.526527 
L 281.069942 268.227283 
L 281.552521 268.869564 
L 282.035099 266.244765 
L 282.517677 269.106442 
L 283.000255 269.59341 
L 283.482834 268.470075 
L 283.965412 267.803804 
L 284.44799 271.219993 
L 284.930569 272.116924 
L 285.413147 272.389665 
L 285.895725 270.489994 
L 286.378303 273.399381 
L 286.860882 272.815268 
L 287.34346 272.43657 
L 287.826038 272.633109 
L 288.308617 273.927778 
L 288.791195 271.788167 
L 289.273773 275.847125 
L 289.756351 275.142915 
L 290.23893 274.951014 
L 290.721508 276.389882 
L 291.204086 271.210329 
L 291.686665 275.140291 
L 292.169243 276.258295 
L 293.1344 277.334308 
L 293.616978 274.620734 
L 294.099556 277.689156 
L 295.064713 275.749695 
L 295.547291 277.595126 
L 296.029869 275.588467 
L 296.512448 278.477839 
L 296.995026 277.30479 
L 297.477604 279.70301 
L 297.960182 278.599901 
L 298.442761 279.7802 
L 298.925339 277.574131 
L 299.407917 277.945963 
L 299.890496 279.514468 
L 300.373074 279.181438 
L 301.33823 280.775221 
L 301.820809 281.457691 
L 302.303387 280.138464 
L 303.268544 281.033662 
L 304.2337 282.712302 
L 304.716279 282.406524 
L 305.681435 282.168485 
L 306.164013 280.743767 
L 306.646592 283.693189 
L 307.12917 282.010554 
L 307.611748 282.384166 
L 308.094327 281.138642 
L 308.576905 281.052408 
L 309.059483 284.544236 
L 309.542061 282.664763 
L 310.507218 283.914305 
L 310.989796 282.974302 
L 311.472375 285.530437 
L 311.954953 285.055332 
L 312.437531 284.959512 
L 312.920109 285.056485 
L 313.402688 282.396677 
L 313.885266 284.561486 
L 314.367844 285.249623 
L 314.850423 284.75355 
L 315.333001 283.10872 
L 315.815579 284.432223 
L 316.298157 287.423481 
L 316.780736 287.389422 
L 317.263314 286.308996 
L 317.745892 287.762948 
L 318.228471 287.621597 
L 318.711049 285.922093 
L 319.193627 286.869918 
L 319.676206 287.526971 
L 320.158784 288.819643 
L 320.641362 286.961379 
L 321.12394 284.63123 
L 321.606519 289.234342 
L 322.089097 285.482573 
L 322.571675 289.165482 
L 323.054254 289.33507 
L 323.536832 282.411025 
L 324.501988 289.832636 
L 324.984567 288.564826 
L 325.467145 289.530671 
L 325.949723 289.648449 
L 326.432302 287.532776 
L 326.91488 289.36892 
L 327.397458 289.183808 
L 327.880036 289.768742 
L 328.362615 290.839735 
L 328.845193 288.932823 
L 329.327771 289.697513 
L 329.81035 289.943555 
L 330.292928 288.686516 
L 330.775506 291.450326 
L 331.258085 291.766783 
L 331.740663 290.895206 
L 332.223241 290.372258 
L 332.705819 290.094125 
L 333.188398 291.706399 
L 333.670976 290.773878 
L 334.153554 291.370445 
L 334.636133 290.150351 
L 335.118711 290.815895 
L 335.601289 290.833826 
L 336.083867 292.333073 
L 336.566446 287.484855 
L 337.049024 292.375573 
L 337.531602 293.232299 
L 338.014181 292.257351 
L 338.496759 292.857483 
L 339.461915 292.557761 
L 339.944494 293.387946 
L 340.427072 290.618196 
L 340.90965 292.424423 
L 341.392229 293.139585 
L 341.874807 292.466742 
L 342.357385 292.369307 
L 342.839964 290.810965 
L 343.322542 293.626265 
L 343.80512 292.261037 
L 344.287698 290.29268 
L 344.770277 293.033054 
L 345.252855 294.662758 
L 346.218012 293.031454 
L 346.70059 294.788074 
L 347.183168 293.836926 
L 347.665746 294.801455 
L 348.148325 294.478734 
L 348.630903 294.935229 
L 349.113481 294.859417 
L 349.59606 294.512407 
L 350.078638 292.691827 
L 350.561216 294.672049 
L 351.043794 293.436844 
L 351.526373 287.434063 
L 352.008951 295.357638 
L 352.491529 292.275533 
L 352.974108 294.938399 
L 353.456686 295.157535 
L 353.939264 295.759811 
L 354.421843 295.705365 
L 354.904421 295.81312 
L 355.386999 293.399094 
L 355.869577 295.675878 
L 356.352156 293.250303 
L 356.834734 295.805689 
L 357.317312 296.746163 
L 357.799891 294.533886 
L 358.282469 296.385646 
L 358.765047 296.421513 
L 359.247625 297.171704 
L 360.212782 294.806947 
L 360.69536 295.839791 
L 361.177939 296.027641 
L 361.660517 295.626111 
L 362.143095 295.039802 
L 362.625673 293.79062 
L 363.108252 294.393061 
L 363.59083 297.389348 
L 364.073408 297.04001 
L 364.555987 296.964251 
L 365.038565 296.66672 
L 365.521143 298.065924 
L 366.003721 294.297875 
L 366.4863 298.559804 
L 366.968878 295.191567 
L 367.451456 297.477386 
L 367.934035 295.19884 
L 368.416613 293.73337 
L 368.899191 296.753493 
L 369.38177 296.344438 
L 369.864348 296.816837 
L 370.346926 293.30625 
L 370.829504 296.966551 
L 371.312083 296.315555 
L 371.794661 297.130969 
L 372.277239 298.956852 
L 372.759818 296.99669 
L 373.242396 298.412417 
L 373.724974 295.510071 
L 374.207552 298.791706 
L 374.690131 298.873611 
L 375.172709 297.658178 
L 375.655287 298.945918 
L 376.137866 289.10107 
L 376.620444 298.543676 
L 377.103022 296.263397 
L 377.5856 296.888236 
L 378.068179 297.02021 
L 378.550757 298.155522 
L 379.033335 297.360991 
L 379.515914 295.654363 
L 379.998492 298.409715 
L 380.48107 298.048617 
L 380.963649 298.589788 
L 381.446227 297.107662 
L 382.411383 299.830004 
L 382.893962 299.831763 
L 383.37654 299.583574 
L 383.859118 296.501214 
L 384.824275 298.969235 
L 385.306853 297.887882 
L 385.789431 298.43424 
L 386.27201 300.094741 
L 386.754588 299.612727 
L 387.237166 298.861301 
L 387.719745 299.900418 
L 388.202323 299.081262 
L 388.684901 300.030073 
L 389.167479 299.838865 
L 389.650058 297.142474 
L 390.132636 300.591854 
L 390.615214 296.202475 
L 391.097793 297.708239 
L 391.580371 299.650792 
L 392.062949 299.978142 
L 392.545528 296.364353 
L 393.028106 299.768739 
L 393.510684 300.78511 
L 393.993262 298.056259 
L 394.475841 299.050236 
L 394.958419 297.461273 
L 395.440997 300.095618 
L 396.406154 299.912605 
L 396.888732 300.359004 
L 397.37131 298.128298 
L 397.853889 299.511873 
L 398.336467 296.723716 
L 398.819045 300.501307 
L 399.301624 299.752709 
L 399.784202 301.685541 
L 400.26678 302.208 
L 400.749358 299.054813 
L 401.231937 300.764032 
L 401.714515 298.737447 
L 402.679672 300.007472 
L 403.16225 301.229361 
L 403.644828 295.653748 
L 404.127407 300.815554 
L 404.609985 298.865816 
L 405.092563 299.449263 
L 405.575141 296.823144 
L 406.05772 300.373327 
L 406.540298 300.413493 
L 407.022876 300.191433 
L 407.505455 301.792141 
L 407.505455 301.792141 
" style="fill:none;stroke:#1f77b4;stroke-linecap:square;stroke-width:1.5;"/>
   </g>
   <g id="patch_18">
    <path d="M 256 307.584 
L 256 189.312 
" style="fill:none;stroke:#000000;stroke-linecap:square;stroke-linejoin:miter;stroke-width:0.8;"/>
   </g>
   <g id="patch_19">
    <path d="M 414.72 307.584 
L 414.72 189.312 
" style="fill:none;stroke:#000000;stroke-linecap:square;stroke-linejoin:miter;stroke-width:0.8;"/>
   </g>
   <g id="patch_20">
    <path d="M 256 307.584 
L 414.72 307.584 
" style="fill:none;stroke:#000000;stroke-linecap:square;stroke-linejoin:miter;stroke-width:0.8;"/>
   </g>
   <g id="patch_21">
    <path d="M 256 189.312 
L 414.72 189.312 
" style="fill:none;stroke:#000000;stroke-linecap:square;stroke-linejoin:miter;stroke-width:0.8;"/>
   </g>
   <g id="text_34">
    <!-- val_loss -->
    <g transform="translate(311.875625 183.312)scale(0.12 -0.12)">
     <use xlink:href="#DejaVuSans-76"/>
     <use x="59.179688" xlink:href="#DejaVuSans-61"/>
     <use x="120.458984" xlink:href="#DejaVuSans-6c"/>
     <use x="148.242188" xlink:href="#DejaVuSans-5f"/>
     <use x="198.242188" xlink:href="#DejaVuSans-6c"/>
     <use x="226.025391" xlink:href="#DejaVuSans-6f"/>
     <use x="287.207031" xlink:href="#DejaVuSans-73"/>
     <use x="339.306641" xlink:href="#DejaVuSans-73"/>
    </g>
   </g>
  </g>
  <g id="text_35">
   <!-- benchmark 20171023_055131 -->
   <defs>
    <path d="M 48.6875 27.296875 
Q 48.6875 37.203125 44.609375 42.84375 
Q 40.53125 48.484375 33.40625 48.484375 
Q 26.265625 48.484375 22.1875 42.84375 
Q 18.109375 37.203125 18.109375 27.296875 
Q 18.109375 17.390625 22.1875 11.75 
Q 26.265625 6.109375 33.40625 6.109375 
Q 40.53125 6.109375 44.609375 11.75 
Q 48.6875 17.390625 48.6875 27.296875 
z
M 18.109375 46.390625 
Q 20.953125 51.265625 25.265625 53.625 
Q 29.59375 56 35.59375 56 
Q 45.5625 56 51.78125 48.09375 
Q 58.015625 40.1875 58.015625 27.296875 
Q 58.015625 14.40625 51.78125 6.484375 
Q 45.5625 -1.421875 35.59375 -1.421875 
Q 29.59375 -1.421875 25.265625 0.953125 
Q 20.953125 3.328125 18.109375 8.203125 
L 18.109375 0 
L 9.078125 0 
L 9.078125 75.984375 
L 18.109375 75.984375 
z
" id="DejaVuSans-62"/>
    <path d="M 56.203125 29.59375 
L 56.203125 25.203125 
L 14.890625 25.203125 
Q 15.484375 15.921875 20.484375 11.0625 
Q 25.484375 6.203125 34.421875 6.203125 
Q 39.59375 6.203125 44.453125 7.46875 
Q 49.3125 8.734375 54.109375 11.28125 
L 54.109375 2.78125 
Q 49.265625 0.734375 44.1875 -0.34375 
Q 39.109375 -1.421875 33.890625 -1.421875 
Q 20.796875 -1.421875 13.15625 6.1875 
Q 5.515625 13.8125 5.515625 26.8125 
Q 5.515625 40.234375 12.765625 48.109375 
Q 20.015625 56 32.328125 56 
Q 43.359375 56 49.78125 48.890625 
Q 56.203125 41.796875 56.203125 29.59375 
z
M 47.21875 32.234375 
Q 47.125 39.59375 43.09375 43.984375 
Q 39.0625 48.390625 32.421875 48.390625 
Q 24.90625 48.390625 20.390625 44.140625 
Q 15.875 39.890625 15.1875 32.171875 
z
" id="DejaVuSans-65"/>
    <path d="M 54.890625 33.015625 
L 54.890625 0 
L 45.90625 0 
L 45.90625 32.71875 
Q 45.90625 40.484375 42.875 44.328125 
Q 39.84375 48.1875 33.796875 48.1875 
Q 26.515625 48.1875 22.3125 43.546875 
Q 18.109375 38.921875 18.109375 30.90625 
L 18.109375 0 
L 9.078125 0 
L 9.078125 54.6875 
L 18.109375 54.6875 
L 18.109375 46.1875 
Q 21.34375 51.125 25.703125 53.5625 
Q 30.078125 56 35.796875 56 
Q 45.21875 56 50.046875 50.171875 
Q 54.890625 44.34375 54.890625 33.015625 
z
" id="DejaVuSans-6e"/>
    <path d="M 54.890625 33.015625 
L 54.890625 0 
L 45.90625 0 
L 45.90625 32.71875 
Q 45.90625 40.484375 42.875 44.328125 
Q 39.84375 48.1875 33.796875 48.1875 
Q 26.515625 48.1875 22.3125 43.546875 
Q 18.109375 38.921875 18.109375 30.90625 
L 18.109375 0 
L 9.078125 0 
L 9.078125 75.984375 
L 18.109375 75.984375 
L 18.109375 46.1875 
Q 21.34375 51.125 25.703125 53.5625 
Q 30.078125 56 35.796875 56 
Q 45.21875 56 50.046875 50.171875 
Q 54.890625 44.34375 54.890625 33.015625 
z
" id="DejaVuSans-68"/>
    <path d="M 52 44.1875 
Q 55.375 50.25 60.0625 53.125 
Q 64.75 56 71.09375 56 
Q 79.640625 56 84.28125 50.015625 
Q 88.921875 44.046875 88.921875 33.015625 
L 88.921875 0 
L 79.890625 0 
L 79.890625 32.71875 
Q 79.890625 40.578125 77.09375 44.375 
Q 74.3125 48.1875 68.609375 48.1875 
Q 61.625 48.1875 57.5625 43.546875 
Q 53.515625 38.921875 53.515625 30.90625 
L 53.515625 0 
L 44.484375 0 
L 44.484375 32.71875 
Q 44.484375 40.625 41.703125 44.40625 
Q 38.921875 48.1875 33.109375 48.1875 
Q 26.21875 48.1875 22.15625 43.53125 
Q 18.109375 38.875 18.109375 30.90625 
L 18.109375 0 
L 9.078125 0 
L 9.078125 54.6875 
L 18.109375 54.6875 
L 18.109375 46.1875 
Q 21.1875 51.21875 25.484375 53.609375 
Q 29.78125 56 35.6875 56 
Q 41.65625 56 45.828125 52.96875 
Q 50 49.953125 52 44.1875 
z
" id="DejaVuSans-6d"/>
    <path d="M 41.109375 46.296875 
Q 39.59375 47.171875 37.8125 47.578125 
Q 36.03125 48 33.890625 48 
Q 26.265625 48 22.1875 43.046875 
Q 18.109375 38.09375 18.109375 28.8125 
L 18.109375 0 
L 9.078125 0 
L 9.078125 54.6875 
L 18.109375 54.6875 
L 18.109375 46.1875 
Q 20.953125 51.171875 25.484375 53.578125 
Q 30.03125 56 36.53125 56 
Q 37.453125 56 38.578125 55.875 
Q 39.703125 55.765625 41.0625 55.515625 
z
" id="DejaVuSans-72"/>
    <path d="M 9.078125 75.984375 
L 18.109375 75.984375 
L 18.109375 31.109375 
L 44.921875 54.6875 
L 56.390625 54.6875 
L 27.390625 29.109375 
L 57.625 0 
L 45.90625 0 
L 18.109375 26.703125 
L 18.109375 0 
L 9.078125 0 
z
" id="DejaVuSans-6b"/>
    <path id="DejaVuSans-20"/>
   </defs>
   <g transform="translate(138.180938 16.030125)scale(0.12 -0.12)">
    <use xlink:href="#DejaVuSans-62"/>
    <use x="63.476562" xlink:href="#DejaVuSans-65"/>
    <use x="125" xlink:href="#DejaVuSans-6e"/>
    <use x="188.378906" xlink:href="#DejaVuSans-63"/>
    <use x="243.359375" xlink:href="#DejaVuSans-68"/>
    <use x="306.738281" xlink:href="#DejaVuSans-6d"/>
    <use x="404.150391" xlink:href="#DejaVuSans-61"/>
    <use x="465.429688" xlink:href="#DejaVuSans-72"/>
    <use x="506.542969" xlink:href="#DejaVuSans-6b"/>
    <use x="564.453125" xlink:href="#DejaVuSans-20"/>
    <use x="596.240234" xlink:href="#DejaVuSans-32"/>
    <use x="659.863281" xlink:href="#DejaVuSans-30"/>
    <use x="723.486328" xlink:href="#DejaVuSans-31"/>
    <use x="787.109375" xlink:href="#DejaVuSans-37"/>
    <use x="850.732422" xlink:href="#DejaVuSans-31"/>
    <use x="914.355469" xlink:href="#DejaVuSans-30"/>
    <use x="977.978516" xlink:href="#DejaVuSans-32"/>
    <use x="1041.601562" xlink:href="#DejaVuSans-33"/>
    <use x="1105.224609" xlink:href="#DejaVuSans-5f"/>
    <use x="1155.224609" xlink:href="#DejaVuSans-30"/>
    <use x="1218.847656" xlink:href="#DejaVuSans-35"/>
    <use x="1282.470703" xlink:href="#DejaVuSans-35"/>
    <use x="1346.09375" xlink:href="#DejaVuSans-31"/>
    <use x="1409.716797" xlink:href="#DejaVuSans-33"/>
    <use x="1473.339844" xlink:href="#DejaVuSans-31"/>
   </g>
  </g>
 </g>
 <defs>
  <clipPath id="pc2c1cb0e4f">
   <rect height="118.272" width="158.72" x="57.6" y="41.472"/>
  </clipPath>
  <clipPath id="p7d899bb749">
   <rect height="118.272" width="158.72" x="256" y="41.472"/>
  </clipPath>
  <clipPath id="p18aa2d514e">
   <rect height="118.272" width="158.72" x="57.6" y="189.312"/>
  </clipPath>
  <clipPath id="p5db15fe475">
   <rect height="118.272" width="158.72" x="256" y="189.312"/>
  </clipPath>
 </defs>
</svg>
