<?xml version="1.0" encoding="utf-8" standalone="no"?>
<!DOCTYPE svg PUBLIC "-//W3C//DTD SVG 1.1//EN"
  "http://www.w3.org/Graphics/SVG/1.1/DTD/svg11.dtd">
<!-- Created with matplotlib (http://matplotlib.org/) -->
<svg height="345pt" version="1.1" viewBox="0 0 460 345" width="460pt" xmlns="http://www.w3.org/2000/svg" xmlns:xlink="http://www.w3.org/1999/xlink">
 <defs>
  <style type="text/css">
*{stroke-linecap:butt;stroke-linejoin:round;}
  </style>
 </defs>
 <g id="figure_1">
  <g id="patch_1">
   <path d="M 0 345.6 
L 460.8 345.6 
L 460.8 0 
L 0 0 
z
" style="fill:#ffffff;"/>
  </g>
  <g id="axes_1">
   <g id="patch_2">
    <path d="M 57.6 159.744 
L 216.32 159.744 
L 216.32 41.472 
L 57.6 41.472 
z
" style="fill:#ffffff;"/>
   </g>
   <g id="matplotlib.axis_1">
    <g id="xtick_1">
     <g id="line2d_1">
      <path clip-path="url(#p313b690be3)" d="M 64.814545 159.744 
L 64.814545 41.472 
" style="fill:none;stroke:#b0b0b0;stroke-linecap:square;stroke-width:0.8;"/>
     </g>
     <g id="line2d_2">
      <defs>
       <path d="M 0 0 
L 0 3.5 
" id="m5970f70564" style="stroke:#000000;stroke-width:0.8;"/>
      </defs>
      <g>
       <use style="stroke:#000000;stroke-width:0.8;" x="64.814545" xlink:href="#m5970f70564" y="159.744"/>
      </g>
     </g>
     <g id="text_1">
      <!-- 0 -->
      <defs>
       <path d="M 31.78125 66.40625 
Q 24.171875 66.40625 20.328125 58.90625 
Q 16.5 51.421875 16.5 36.375 
Q 16.5 21.390625 20.328125 13.890625 
Q 24.171875 6.390625 31.78125 6.390625 
Q 39.453125 6.390625 43.28125 13.890625 
Q 47.125 21.390625 47.125 36.375 
Q 47.125 51.421875 43.28125 58.90625 
Q 39.453125 66.40625 31.78125 66.40625 
z
M 31.78125 74.21875 
Q 44.046875 74.21875 50.515625 64.515625 
Q 56.984375 54.828125 56.984375 36.375 
Q 56.984375 17.96875 50.515625 8.265625 
Q 44.046875 -1.421875 31.78125 -1.421875 
Q 19.53125 -1.421875 13.0625 8.265625 
Q 6.59375 17.96875 6.59375 36.375 
Q 6.59375 54.828125 13.0625 64.515625 
Q 19.53125 74.21875 31.78125 74.21875 
z
" id="DejaVuSans-30"/>
      </defs>
      <g transform="translate(61.633295 174.342437)scale(0.1 -0.1)">
       <use xlink:href="#DejaVuSans-30"/>
      </g>
     </g>
    </g>
    <g id="xtick_2">
     <g id="line2d_3">
      <path clip-path="url(#p313b690be3)" d="M 113.072375 159.744 
L 113.072375 41.472 
" style="fill:none;stroke:#b0b0b0;stroke-linecap:square;stroke-width:0.8;"/>
     </g>
     <g id="line2d_4">
      <g>
       <use style="stroke:#000000;stroke-width:0.8;" x="113.072375" xlink:href="#m5970f70564" y="159.744"/>
      </g>
     </g>
     <g id="text_2">
      <!-- 100 -->
      <defs>
       <path d="M 12.40625 8.296875 
L 28.515625 8.296875 
L 28.515625 63.921875 
L 10.984375 60.40625 
L 10.984375 69.390625 
L 28.421875 72.90625 
L 38.28125 72.90625 
L 38.28125 8.296875 
L 54.390625 8.296875 
L 54.390625 0 
L 12.40625 0 
z
" id="DejaVuSans-31"/>
      </defs>
      <g transform="translate(103.528625 174.342437)scale(0.1 -0.1)">
       <use xlink:href="#DejaVuSans-31"/>
       <use x="63.623047" xlink:href="#DejaVuSans-30"/>
       <use x="127.246094" xlink:href="#DejaVuSans-30"/>
      </g>
     </g>
    </g>
    <g id="xtick_3">
     <g id="line2d_5">
      <path clip-path="url(#p313b690be3)" d="M 161.330204 159.744 
L 161.330204 41.472 
" style="fill:none;stroke:#b0b0b0;stroke-linecap:square;stroke-width:0.8;"/>
     </g>
     <g id="line2d_6">
      <g>
       <use style="stroke:#000000;stroke-width:0.8;" x="161.330204" xlink:href="#m5970f70564" y="159.744"/>
      </g>
     </g>
     <g id="text_3">
      <!-- 200 -->
      <defs>
       <path d="M 19.1875 8.296875 
L 53.609375 8.296875 
L 53.609375 0 
L 7.328125 0 
L 7.328125 8.296875 
Q 12.9375 14.109375 22.625 23.890625 
Q 32.328125 33.6875 34.8125 36.53125 
Q 39.546875 41.84375 41.421875 45.53125 
Q 43.3125 49.21875 43.3125 52.78125 
Q 43.3125 58.59375 39.234375 62.25 
Q 35.15625 65.921875 28.609375 65.921875 
Q 23.96875 65.921875 18.8125 64.3125 
Q 13.671875 62.703125 7.8125 59.421875 
L 7.8125 69.390625 
Q 13.765625 71.78125 18.9375 73 
Q 24.125 74.21875 28.421875 74.21875 
Q 39.75 74.21875 46.484375 68.546875 
Q 53.21875 62.890625 53.21875 53.421875 
Q 53.21875 48.921875 51.53125 44.890625 
Q 49.859375 40.875 45.40625 35.40625 
Q 44.1875 33.984375 37.640625 27.21875 
Q 31.109375 20.453125 19.1875 8.296875 
z
" id="DejaVuSans-32"/>
      </defs>
      <g transform="translate(151.786454 174.342437)scale(0.1 -0.1)">
       <use xlink:href="#DejaVuSans-32"/>
       <use x="63.623047" xlink:href="#DejaVuSans-30"/>
       <use x="127.246094" xlink:href="#DejaVuSans-30"/>
      </g>
     </g>
    </g>
    <g id="xtick_4">
     <g id="line2d_7">
      <path clip-path="url(#p313b690be3)" d="M 209.588033 159.744 
L 209.588033 41.472 
" style="fill:none;stroke:#b0b0b0;stroke-linecap:square;stroke-width:0.8;"/>
     </g>
     <g id="line2d_8">
      <g>
       <use style="stroke:#000000;stroke-width:0.8;" x="209.588033" xlink:href="#m5970f70564" y="159.744"/>
      </g>
     </g>
     <g id="text_4">
      <!-- 300 -->
      <defs>
       <path d="M 40.578125 39.3125 
Q 47.65625 37.796875 51.625 33 
Q 55.609375 28.21875 55.609375 21.1875 
Q 55.609375 10.40625 48.1875 4.484375 
Q 40.765625 -1.421875 27.09375 -1.421875 
Q 22.515625 -1.421875 17.65625 -0.515625 
Q 12.796875 0.390625 7.625 2.203125 
L 7.625 11.71875 
Q 11.71875 9.328125 16.59375 8.109375 
Q 21.484375 6.890625 26.8125 6.890625 
Q 36.078125 6.890625 40.9375 10.546875 
Q 45.796875 14.203125 45.796875 21.1875 
Q 45.796875 27.640625 41.28125 31.265625 
Q 36.765625 34.90625 28.71875 34.90625 
L 20.21875 34.90625 
L 20.21875 43.015625 
L 29.109375 43.015625 
Q 36.375 43.015625 40.234375 45.921875 
Q 44.09375 48.828125 44.09375 54.296875 
Q 44.09375 59.90625 40.109375 62.90625 
Q 36.140625 65.921875 28.71875 65.921875 
Q 24.65625 65.921875 20.015625 65.03125 
Q 15.375 64.15625 9.8125 62.3125 
L 9.8125 71.09375 
Q 15.4375 72.65625 20.34375 73.4375 
Q 25.25 74.21875 29.59375 74.21875 
Q 40.828125 74.21875 47.359375 69.109375 
Q 53.90625 64.015625 53.90625 55.328125 
Q 53.90625 49.265625 50.4375 45.09375 
Q 46.96875 40.921875 40.578125 39.3125 
z
" id="DejaVuSans-33"/>
      </defs>
      <g transform="translate(200.044283 174.342437)scale(0.1 -0.1)">
       <use xlink:href="#DejaVuSans-33"/>
       <use x="63.623047" xlink:href="#DejaVuSans-30"/>
       <use x="127.246094" xlink:href="#DejaVuSans-30"/>
      </g>
     </g>
    </g>
   </g>
   <g id="matplotlib.axis_2">
    <g id="ytick_1">
     <g id="line2d_9">
      <path clip-path="url(#p313b690be3)" d="M 57.6 155.075368 
L 216.32 155.075368 
" style="fill:none;stroke:#b0b0b0;stroke-linecap:square;stroke-width:0.8;"/>
     </g>
     <g id="line2d_10">
      <defs>
       <path d="M 0 0 
L -3.5 0 
" id="m9842aa1a39" style="stroke:#000000;stroke-width:0.8;"/>
      </defs>
      <g>
       <use style="stroke:#000000;stroke-width:0.8;" x="57.6" xlink:href="#m9842aa1a39" y="155.075368"/>
      </g>
     </g>
     <g id="text_5">
      <!-- 0.00 -->
      <defs>
       <path d="M 10.6875 12.40625 
L 21 12.40625 
L 21 0 
L 10.6875 0 
z
" id="DejaVuSans-2e"/>
      </defs>
      <g transform="translate(28.334375 158.874587)scale(0.1 -0.1)">
       <use xlink:href="#DejaVuSans-30"/>
       <use x="63.623047" xlink:href="#DejaVuSans-2e"/>
       <use x="95.410156" xlink:href="#DejaVuSans-30"/>
       <use x="159.033203" xlink:href="#DejaVuSans-30"/>
      </g>
     </g>
    </g>
    <g id="ytick_2">
     <g id="line2d_11">
      <path clip-path="url(#p313b690be3)" d="M 57.6 127.912421 
L 216.32 127.912421 
" style="fill:none;stroke:#b0b0b0;stroke-linecap:square;stroke-width:0.8;"/>
     </g>
     <g id="line2d_12">
      <g>
       <use style="stroke:#000000;stroke-width:0.8;" x="57.6" xlink:href="#m9842aa1a39" y="127.912421"/>
      </g>
     </g>
     <g id="text_6">
      <!-- 0.25 -->
      <defs>
       <path d="M 10.796875 72.90625 
L 49.515625 72.90625 
L 49.515625 64.59375 
L 19.828125 64.59375 
L 19.828125 46.734375 
Q 21.96875 47.46875 24.109375 47.828125 
Q 26.265625 48.1875 28.421875 48.1875 
Q 40.625 48.1875 47.75 41.5 
Q 54.890625 34.8125 54.890625 23.390625 
Q 54.890625 11.625 47.5625 5.09375 
Q 40.234375 -1.421875 26.90625 -1.421875 
Q 22.3125 -1.421875 17.546875 -0.640625 
Q 12.796875 0.140625 7.71875 1.703125 
L 7.71875 11.625 
Q 12.109375 9.234375 16.796875 8.0625 
Q 21.484375 6.890625 26.703125 6.890625 
Q 35.15625 6.890625 40.078125 11.328125 
Q 45.015625 15.765625 45.015625 23.390625 
Q 45.015625 31 40.078125 35.4375 
Q 35.15625 39.890625 26.703125 39.890625 
Q 22.75 39.890625 18.8125 39.015625 
Q 14.890625 38.140625 10.796875 36.28125 
z
" id="DejaVuSans-35"/>
      </defs>
      <g transform="translate(28.334375 131.71164)scale(0.1 -0.1)">
       <use xlink:href="#DejaVuSans-30"/>
       <use x="63.623047" xlink:href="#DejaVuSans-2e"/>
       <use x="95.410156" xlink:href="#DejaVuSans-32"/>
       <use x="159.033203" xlink:href="#DejaVuSans-35"/>
      </g>
     </g>
    </g>
    <g id="ytick_3">
     <g id="line2d_13">
      <path clip-path="url(#p313b690be3)" d="M 57.6 100.749474 
L 216.32 100.749474 
" style="fill:none;stroke:#b0b0b0;stroke-linecap:square;stroke-width:0.8;"/>
     </g>
     <g id="line2d_14">
      <g>
       <use style="stroke:#000000;stroke-width:0.8;" x="57.6" xlink:href="#m9842aa1a39" y="100.749474"/>
      </g>
     </g>
     <g id="text_7">
      <!-- 0.50 -->
      <g transform="translate(28.334375 104.548692)scale(0.1 -0.1)">
       <use xlink:href="#DejaVuSans-30"/>
       <use x="63.623047" xlink:href="#DejaVuSans-2e"/>
       <use x="95.410156" xlink:href="#DejaVuSans-35"/>
       <use x="159.033203" xlink:href="#DejaVuSans-30"/>
      </g>
     </g>
    </g>
    <g id="ytick_4">
     <g id="line2d_15">
      <path clip-path="url(#p313b690be3)" d="M 57.6 73.586526 
L 216.32 73.586526 
" style="fill:none;stroke:#b0b0b0;stroke-linecap:square;stroke-width:0.8;"/>
     </g>
     <g id="line2d_16">
      <g>
       <use style="stroke:#000000;stroke-width:0.8;" x="57.6" xlink:href="#m9842aa1a39" y="73.586526"/>
      </g>
     </g>
     <g id="text_8">
      <!-- 0.75 -->
      <defs>
       <path d="M 8.203125 72.90625 
L 55.078125 72.90625 
L 55.078125 68.703125 
L 28.609375 0 
L 18.3125 0 
L 43.21875 64.59375 
L 8.203125 64.59375 
z
" id="DejaVuSans-37"/>
      </defs>
      <g transform="translate(28.334375 77.385745)scale(0.1 -0.1)">
       <use xlink:href="#DejaVuSans-30"/>
       <use x="63.623047" xlink:href="#DejaVuSans-2e"/>
       <use x="95.410156" xlink:href="#DejaVuSans-37"/>
       <use x="159.033203" xlink:href="#DejaVuSans-35"/>
      </g>
     </g>
    </g>
    <g id="ytick_5">
     <g id="line2d_17">
      <path clip-path="url(#p313b690be3)" d="M 57.6 46.423579 
L 216.32 46.423579 
" style="fill:none;stroke:#b0b0b0;stroke-linecap:square;stroke-width:0.8;"/>
     </g>
     <g id="line2d_18">
      <g>
       <use style="stroke:#000000;stroke-width:0.8;" x="57.6" xlink:href="#m9842aa1a39" y="46.423579"/>
      </g>
     </g>
     <g id="text_9">
      <!-- 1.00 -->
      <g transform="translate(28.334375 50.222798)scale(0.1 -0.1)">
       <use xlink:href="#DejaVuSans-31"/>
       <use x="63.623047" xlink:href="#DejaVuSans-2e"/>
       <use x="95.410156" xlink:href="#DejaVuSans-30"/>
       <use x="159.033203" xlink:href="#DejaVuSans-30"/>
      </g>
     </g>
    </g>
   </g>
   <g id="line2d_19">
    <path clip-path="url(#p313b690be3)" d="M 64.814545 154.368 
L 65.297124 153.978947 
L 65.779702 151.467789 
L 66.26228 147.365052 
L 66.744859 141.635368 
L 67.227437 138.45221 
L 68.675172 124.799999 
L 69.15775 118.645894 
L 69.640328 115.250525 
L 70.122907 109.76842 
L 70.605485 106.762104 
L 71.088063 102.270315 
L 71.570642 100.077473 
L 72.05322 96.045472 
L 72.535798 93.074525 
L 73.018376 92.543999 
L 73.500955 87.663157 
L 74.466111 83.878736 
L 74.94869 79.705262 
L 75.913846 77.370946 
L 76.396424 76.274525 
L 76.879003 74.718315 
L 77.361581 72.313262 
L 77.844159 72.313262 
L 78.809316 68.77642 
L 79.291894 67.962946 
L 79.774472 66.371368 
L 80.257051 65.381052 
L 80.739629 65.381052 
L 81.222207 63.435789 
L 81.704786 62.799158 
L 82.187364 63.223578 
L 82.669942 61.525895 
L 83.152521 61.349053 
L 84.117677 60.111158 
L 84.600255 59.863579 
L 85.082834 58.48421 
L 86.04799 58.554947 
L 86.530569 57.104843 
L 87.013147 56.821895 
L 87.495725 57.104843 
L 87.978303 56.220632 
L 88.460882 55.937685 
L 88.94346 56.04379 
L 89.426038 55.336422 
L 89.908617 54.346106 
L 90.391195 54.487579 
L 91.356351 54.02779 
L 91.83893 53.249685 
L 92.804086 54.098527 
L 93.286665 52.400843 
L 94.251821 53.002106 
L 94.7344 52.188632 
L 95.216978 52.400843 
L 95.699556 52.47158 
L 96.182134 51.79958 
L 96.664713 52.224001 
L 97.629869 51.693474 
L 98.112448 51.905685 
L 98.595026 50.915369 
L 99.077604 51.587369 
L 99.560182 50.738527 
L 100.525339 51.056843 
L 101.007917 50.703158 
L 101.490496 50.208001 
L 101.973074 50.632422 
L 102.455652 50.738527 
L 102.93823 50.384843 
L 103.420809 49.854316 
L 103.903387 50.243369 
L 104.868544 50.172632 
L 105.351122 50.278737 
L 105.8337 49.818948 
L 106.316279 49.925053 
L 106.798857 50.384843 
L 107.281435 49.889685 
L 107.764013 49.076211 
L 108.246592 49.394527 
L 108.72917 49.32379 
L 109.211748 49.394527 
L 109.694327 48.934737 
L 110.176905 49.571369 
L 111.142061 49.536001 
L 111.62464 49.182316 
L 112.107218 49.040842 
L 112.589796 49.182316 
L 113.072375 48.757895 
L 113.554953 49.32379 
L 114.520109 48.474948 
L 115.002688 48.828632 
L 115.485266 49.005474 
L 115.967844 48.545685 
L 116.450423 48.757895 
L 116.933001 48.439579 
L 117.415579 48.616421 
L 117.898157 49.111579 
L 118.380736 48.581053 
L 119.828471 48.934737 
L 120.311049 48.65179 
L 121.758784 48.828632 
L 122.72394 48.368842 
L 123.206519 48.793264 
L 123.689097 48.262737 
L 124.654254 48.262737 
L 125.136832 48.510316 
L 125.61941 48.121263 
L 126.101988 48.368843 
L 126.584567 48.227369 
L 127.067145 48.298106 
L 127.549723 48.050527 
L 128.032302 48.298106 
L 128.51488 48.156632 
L 128.997458 48.262737 
L 129.480036 47.696842 
L 130.445193 48.404211 
L 130.927771 48.085895 
L 131.41035 48.227369 
L 132.375506 48.156632 
L 132.858085 47.873684 
L 133.340663 47.802948 
L 133.823241 48.085895 
L 134.305819 47.944421 
L 134.788398 47.944421 
L 135.270976 47.590737 
L 135.753554 48.404211 
L 136.236133 47.944421 
L 136.718711 48.015158 
L 137.201289 47.838316 
L 138.166446 47.909053 
L 138.649024 47.201684 
L 139.131602 47.838316 
L 139.614181 47.555369 
L 140.579337 47.909053 
L 141.061915 47.30779 
L 141.544494 47.838316 
L 142.027072 47.343158 
L 142.50965 47.97979 
L 142.992229 47.343158 
L 143.474807 47.732211 
L 143.957385 47.484632 
L 144.439964 47.838316 
L 144.922542 47.696842 
L 145.40512 47.732211 
L 145.887698 47.52 
L 146.370277 47.767579 
L 147.335433 47.802948 
L 148.783168 47.378527 
L 149.265746 47.52 
L 149.748325 47.201684 
L 150.230903 47.484632 
L 150.713481 48.085895 
L 151.19606 47.343158 
L 151.678638 48.085895 
L 152.161216 47.767579 
L 152.643794 47.130947 
L 153.126373 47.060211 
L 153.608951 47.590737 
L 154.091529 47.626105 
L 154.574108 47.272421 
L 155.056686 47.732211 
L 155.539264 47.201684 
L 156.021843 47.484632 
L 156.504421 47.944421 
L 156.986999 47.661474 
L 157.469577 47.166316 
L 157.952156 47.626105 
L 158.434734 47.449263 
L 158.917312 47.696842 
L 159.399891 47.378527 
L 159.882469 47.272421 
L 160.365047 47.413895 
L 161.330204 47.378527 
L 162.29536 47.767579 
L 163.743095 47.343158 
L 164.225673 47.555369 
L 164.708252 47.237053 
L 165.19083 47.095579 
L 165.673408 47.661474 
L 166.155987 47.378527 
L 167.121143 47.767579 
L 168.0863 47.52 
L 169.051456 47.060211 
L 169.534035 47.590737 
L 170.016613 47.272421 
L 170.98177 47.52 
L 171.946926 47.484632 
L 172.429504 47.696842 
L 172.912083 47.484632 
L 173.877239 47.52 
L 174.359818 47.343158 
L 174.842396 47.378526 
L 175.324974 47.732211 
L 176.290131 47.130948 
L 177.255287 47.590737 
L 177.737866 47.166316 
L 178.220444 47.413895 
L 178.703022 47.237053 
L 179.1856 47.272421 
L 179.668179 47.130948 
L 180.633335 47.732211 
L 181.115914 47.201684 
L 182.08107 47.413895 
L 182.563649 47.060211 
L 183.046227 47.944421 
L 184.011383 47.201684 
L 184.493962 47.661474 
L 184.97654 47.732211 
L 185.459118 47.484632 
L 185.941697 46.918737 
L 186.424275 47.30779 
L 186.906853 47.449263 
L 188.354588 47.130947 
L 188.837166 47.696842 
L 189.319745 47.060211 
L 190.767479 47.484632 
L 191.250058 47.024842 
L 192.215214 47.166316 
L 192.697793 47.272421 
L 194.145528 47.166316 
L 195.110684 47.095579 
L 195.593262 47.909053 
L 196.075841 47.378526 
L 196.558419 47.413895 
L 197.040997 47.166316 
L 197.523576 47.130947 
L 198.006154 47.378527 
L 198.488732 47.343158 
L 198.97131 47.095579 
L 199.453889 47.378526 
L 199.936467 47.095579 
L 200.419045 47.555369 
L 200.901624 47.52 
L 201.384202 46.954105 
L 202.349358 47.413895 
L 202.831937 46.989474 
L 203.314515 46.848 
L 203.797093 47.130948 
L 204.279672 47.130948 
L 204.76225 47.413895 
L 205.727407 47.024842 
L 206.209985 47.413895 
L 206.692563 47.130947 
L 207.175141 47.52 
L 207.65772 47.201684 
L 208.140298 47.378526 
L 208.622876 47.095579 
L 209.105455 47.52 
L 209.105455 47.52 
" style="fill:none;stroke:#1f77b4;stroke-linecap:square;stroke-width:1.5;"/>
   </g>
   <g id="patch_3">
    <path d="M 57.6 159.744 
L 57.6 41.472 
" style="fill:none;stroke:#000000;stroke-linecap:square;stroke-linejoin:miter;stroke-width:0.8;"/>
   </g>
   <g id="patch_4">
    <path d="M 216.32 159.744 
L 216.32 41.472 
" style="fill:none;stroke:#000000;stroke-linecap:square;stroke-linejoin:miter;stroke-width:0.8;"/>
   </g>
   <g id="patch_5">
    <path d="M 57.6 159.744 
L 216.32 159.744 
" style="fill:none;stroke:#000000;stroke-linecap:square;stroke-linejoin:miter;stroke-width:0.8;"/>
   </g>
   <g id="patch_6">
    <path d="M 57.6 41.472 
L 216.32 41.472 
" style="fill:none;stroke:#000000;stroke-linecap:square;stroke-linejoin:miter;stroke-width:0.8;"/>
   </g>
   <g id="text_10">
    <!-- acc -->
    <defs>
     <path d="M 34.28125 27.484375 
Q 23.390625 27.484375 19.1875 25 
Q 14.984375 22.515625 14.984375 16.5 
Q 14.984375 11.71875 18.140625 8.90625 
Q 21.296875 6.109375 26.703125 6.109375 
Q 34.1875 6.109375 38.703125 11.40625 
Q 43.21875 16.703125 43.21875 25.484375 
L 43.21875 27.484375 
z
M 52.203125 31.203125 
L 52.203125 0 
L 43.21875 0 
L 43.21875 8.296875 
Q 40.140625 3.328125 35.546875 0.953125 
Q 30.953125 -1.421875 24.3125 -1.421875 
Q 15.921875 -1.421875 10.953125 3.296875 
Q 6 8.015625 6 15.921875 
Q 6 25.140625 12.171875 29.828125 
Q 18.359375 34.515625 30.609375 34.515625 
L 43.21875 34.515625 
L 43.21875 35.40625 
Q 43.21875 41.609375 39.140625 45 
Q 35.0625 48.390625 27.6875 48.390625 
Q 23 48.390625 18.546875 47.265625 
Q 14.109375 46.140625 10.015625 43.890625 
L 10.015625 52.203125 
Q 14.9375 54.109375 19.578125 55.046875 
Q 24.21875 56 28.609375 56 
Q 40.484375 56 46.34375 49.84375 
Q 52.203125 43.703125 52.203125 31.203125 
z
" id="DejaVuSans-61"/>
     <path d="M 48.78125 52.59375 
L 48.78125 44.1875 
Q 44.96875 46.296875 41.140625 47.34375 
Q 37.3125 48.390625 33.40625 48.390625 
Q 24.65625 48.390625 19.8125 42.84375 
Q 14.984375 37.3125 14.984375 27.296875 
Q 14.984375 17.28125 19.8125 11.734375 
Q 24.65625 6.203125 33.40625 6.203125 
Q 37.3125 6.203125 41.140625 7.25 
Q 44.96875 8.296875 48.78125 10.40625 
L 48.78125 2.09375 
Q 45.015625 0.34375 40.984375 -0.53125 
Q 36.96875 -1.421875 32.421875 -1.421875 
Q 20.0625 -1.421875 12.78125 6.34375 
Q 5.515625 14.109375 5.515625 27.296875 
Q 5.515625 40.671875 12.859375 48.328125 
Q 20.21875 56 33.015625 56 
Q 37.15625 56 41.109375 55.140625 
Q 45.0625 54.296875 48.78125 52.59375 
z
" id="DejaVuSans-63"/>
    </defs>
    <g transform="translate(126.685 35.472)scale(0.12 -0.12)">
     <use xlink:href="#DejaVuSans-61"/>
     <use x="61.279297" xlink:href="#DejaVuSans-63"/>
     <use x="116.259766" xlink:href="#DejaVuSans-63"/>
    </g>
   </g>
  </g>
  <g id="axes_2">
   <g id="patch_7">
    <path d="M 256 159.744 
L 414.72 159.744 
L 414.72 41.472 
L 256 41.472 
z
" style="fill:#ffffff;"/>
   </g>
   <g id="matplotlib.axis_3">
    <g id="xtick_5">
     <g id="line2d_20">
      <path clip-path="url(#p5f8152795b)" d="M 263.214545 159.744 
L 263.214545 41.472 
" style="fill:none;stroke:#b0b0b0;stroke-linecap:square;stroke-width:0.8;"/>
     </g>
     <g id="line2d_21">
      <g>
       <use style="stroke:#000000;stroke-width:0.8;" x="263.214545" xlink:href="#m5970f70564" y="159.744"/>
      </g>
     </g>
     <g id="text_11">
      <!-- 0 -->
      <g transform="translate(260.033295 174.342437)scale(0.1 -0.1)">
       <use xlink:href="#DejaVuSans-30"/>
      </g>
     </g>
    </g>
    <g id="xtick_6">
     <g id="line2d_22">
      <path clip-path="url(#p5f8152795b)" d="M 311.472375 159.744 
L 311.472375 41.472 
" style="fill:none;stroke:#b0b0b0;stroke-linecap:square;stroke-width:0.8;"/>
     </g>
     <g id="line2d_23">
      <g>
       <use style="stroke:#000000;stroke-width:0.8;" x="311.472375" xlink:href="#m5970f70564" y="159.744"/>
      </g>
     </g>
     <g id="text_12">
      <!-- 100 -->
      <g transform="translate(301.928625 174.342437)scale(0.1 -0.1)">
       <use xlink:href="#DejaVuSans-31"/>
       <use x="63.623047" xlink:href="#DejaVuSans-30"/>
       <use x="127.246094" xlink:href="#DejaVuSans-30"/>
      </g>
     </g>
    </g>
    <g id="xtick_7">
     <g id="line2d_24">
      <path clip-path="url(#p5f8152795b)" d="M 359.730204 159.744 
L 359.730204 41.472 
" style="fill:none;stroke:#b0b0b0;stroke-linecap:square;stroke-width:0.8;"/>
     </g>
     <g id="line2d_25">
      <g>
       <use style="stroke:#000000;stroke-width:0.8;" x="359.730204" xlink:href="#m5970f70564" y="159.744"/>
      </g>
     </g>
     <g id="text_13">
      <!-- 200 -->
      <g transform="translate(350.186454 174.342437)scale(0.1 -0.1)">
       <use xlink:href="#DejaVuSans-32"/>
       <use x="63.623047" xlink:href="#DejaVuSans-30"/>
       <use x="127.246094" xlink:href="#DejaVuSans-30"/>
      </g>
     </g>
    </g>
    <g id="xtick_8">
     <g id="line2d_26">
      <path clip-path="url(#p5f8152795b)" d="M 407.988033 159.744 
L 407.988033 41.472 
" style="fill:none;stroke:#b0b0b0;stroke-linecap:square;stroke-width:0.8;"/>
     </g>
     <g id="line2d_27">
      <g>
       <use style="stroke:#000000;stroke-width:0.8;" x="407.988033" xlink:href="#m5970f70564" y="159.744"/>
      </g>
     </g>
     <g id="text_14">
      <!-- 300 -->
      <g transform="translate(398.444283 174.342437)scale(0.1 -0.1)">
       <use xlink:href="#DejaVuSans-33"/>
       <use x="63.623047" xlink:href="#DejaVuSans-30"/>
       <use x="127.246094" xlink:href="#DejaVuSans-30"/>
      </g>
     </g>
    </g>
   </g>
   <g id="matplotlib.axis_4">
    <g id="ytick_6">
     <g id="line2d_28">
      <path clip-path="url(#p5f8152795b)" d="M 256 154.703145 
L 414.72 154.703145 
" style="fill:none;stroke:#b0b0b0;stroke-linecap:square;stroke-width:0.8;"/>
     </g>
     <g id="line2d_29">
      <g>
       <use style="stroke:#000000;stroke-width:0.8;" x="256" xlink:href="#m9842aa1a39" y="154.703145"/>
      </g>
     </g>
     <g id="text_15">
      <!-- 0 -->
      <g transform="translate(242.6375 158.502363)scale(0.1 -0.1)">
       <use xlink:href="#DejaVuSans-30"/>
      </g>
     </g>
    </g>
    <g id="ytick_7">
     <g id="line2d_30">
      <path clip-path="url(#p5f8152795b)" d="M 256 115.692571 
L 414.72 115.692571 
" style="fill:none;stroke:#b0b0b0;stroke-linecap:square;stroke-width:0.8;"/>
     </g>
     <g id="line2d_31">
      <g>
       <use style="stroke:#000000;stroke-width:0.8;" x="256" xlink:href="#m9842aa1a39" y="115.692571"/>
      </g>
     </g>
     <g id="text_16">
      <!-- 2 -->
      <g transform="translate(242.6375 119.491789)scale(0.1 -0.1)">
       <use xlink:href="#DejaVuSans-32"/>
      </g>
     </g>
    </g>
    <g id="ytick_8">
     <g id="line2d_32">
      <path clip-path="url(#p5f8152795b)" d="M 256 76.681996 
L 414.72 76.681996 
" style="fill:none;stroke:#b0b0b0;stroke-linecap:square;stroke-width:0.8;"/>
     </g>
     <g id="line2d_33">
      <g>
       <use style="stroke:#000000;stroke-width:0.8;" x="256" xlink:href="#m9842aa1a39" y="76.681996"/>
      </g>
     </g>
     <g id="text_17">
      <!-- 4 -->
      <defs>
       <path d="M 37.796875 64.3125 
L 12.890625 25.390625 
L 37.796875 25.390625 
z
M 35.203125 72.90625 
L 47.609375 72.90625 
L 47.609375 25.390625 
L 58.015625 25.390625 
L 58.015625 17.1875 
L 47.609375 17.1875 
L 47.609375 0 
L 37.796875 0 
L 37.796875 17.1875 
L 4.890625 17.1875 
L 4.890625 26.703125 
z
" id="DejaVuSans-34"/>
      </defs>
      <g transform="translate(242.6375 80.481215)scale(0.1 -0.1)">
       <use xlink:href="#DejaVuSans-34"/>
      </g>
     </g>
    </g>
   </g>
   <g id="line2d_34">
    <path clip-path="url(#p5f8152795b)" d="M 263.214545 46.848 
L 263.697124 54.094033 
L 264.66228 76.301781 
L 265.627437 92.767682 
L 266.592593 103.003283 
L 267.55775 110.887345 
L 269.005485 119.302095 
L 269.970642 123.925877 
L 270.935798 127.372324 
L 271.418376 128.918035 
L 271.900955 130.881788 
L 272.866111 133.303447 
L 273.34869 135.230997 
L 273.831268 135.89144 
L 274.313846 137.090273 
L 275.761581 139.793673 
L 276.244159 140.264435 
L 276.726738 141.567365 
L 278.174472 143.506197 
L 278.657051 144.241616 
L 279.139629 144.368409 
L 279.622207 145.402438 
L 280.104786 145.409225 
L 280.587364 145.922985 
L 281.069942 146.146631 
L 282.035099 147.084095 
L 283.000255 147.556454 
L 283.482834 148.146737 
L 283.965412 148.460715 
L 284.930569 148.695276 
L 286.860882 149.591099 
L 287.34346 149.512671 
L 287.826038 149.751499 
L 288.308617 150.443446 
L 289.273773 150.444344 
L 289.756351 150.667655 
L 290.23893 151.075092 
L 290.721508 150.897266 
L 291.204086 150.997828 
L 291.686665 151.437338 
L 292.651821 151.259712 
L 293.1344 151.634519 
L 294.099556 151.619675 
L 294.582134 151.829355 
L 295.064713 151.68344 
L 295.547291 151.733658 
L 296.029869 151.904675 
L 296.512448 151.84656 
L 296.995026 152.293293 
L 297.477604 152.131092 
L 299.890496 152.534102 
L 300.373074 152.365382 
L 301.33823 152.603071 
L 301.820809 152.805952 
L 302.785965 152.640585 
L 303.268544 152.74522 
L 303.751122 152.719179 
L 304.716279 152.977468 
L 305.198857 152.616428 
L 305.681435 152.608362 
L 306.164013 153.042965 
L 306.646592 152.913302 
L 307.12917 153.115522 
L 309.059483 153.025477 
L 309.542061 153.006054 
L 310.507218 153.337416 
L 310.989796 153.065719 
L 311.472375 153.443656 
L 311.954953 153.195713 
L 312.920109 153.534655 
L 313.885266 153.473 
L 314.367844 153.547846 
L 314.850423 153.296766 
L 315.333001 153.554818 
L 316.298157 153.106254 
L 316.780736 153.66923 
L 317.745892 153.23885 
L 318.228471 153.526827 
L 319.193627 153.321766 
L 319.676206 153.585468 
L 320.158784 153.211081 
L 320.641362 153.527336 
L 321.12394 153.691323 
L 321.606519 153.391986 
L 322.571675 153.766819 
L 323.054254 153.582039 
L 324.01941 153.675246 
L 324.501988 153.587821 
L 325.949723 153.675109 
L 326.432302 153.592808 
L 326.91488 153.668843 
L 327.397458 153.44063 
L 327.880036 153.807886 
L 328.845193 153.638545 
L 329.81035 153.555696 
L 330.292928 153.769017 
L 330.775506 153.717709 
L 331.258085 153.86935 
L 331.740663 153.780858 
L 332.223241 153.394832 
L 332.705819 154.0035 
L 333.188398 153.790395 
L 333.670976 154.080744 
L 334.153554 153.651841 
L 334.636133 153.868198 
L 335.601289 153.883048 
L 336.083867 153.889333 
L 336.566446 153.779962 
L 337.049024 154.239459 
L 337.531602 153.710655 
L 338.014181 153.981384 
L 338.496759 153.858239 
L 338.979337 153.863447 
L 339.461915 154.139092 
L 339.944494 153.915382 
L 340.427072 154.055947 
L 340.90965 153.85055 
L 341.392229 154.072358 
L 341.874807 153.808007 
L 342.357385 154.01209 
L 342.839964 153.921207 
L 343.80512 153.901249 
L 344.770277 153.974556 
L 345.252855 153.660818 
L 345.735433 153.656698 
L 346.218012 154.037783 
L 348.630903 154.031148 
L 349.113481 153.754019 
L 349.59606 154.13063 
L 350.078638 153.96032 
L 350.561216 153.92728 
L 351.043794 154.117006 
L 351.526373 154.187033 
L 352.008951 153.707002 
L 352.491529 153.949497 
L 353.456686 153.866666 
L 353.939264 154.190559 
L 354.421843 154.178569 
L 354.904421 153.867408 
L 355.386999 153.948725 
L 355.869577 154.192073 
L 356.352156 153.923581 
L 356.834734 154.083742 
L 357.317312 153.931534 
L 357.799891 154.118634 
L 358.282469 153.926814 
L 358.765047 154.036515 
L 361.660517 154.078167 
L 362.143095 154.0976 
L 362.625673 153.834556 
L 363.108252 154.259474 
L 363.59083 154.245008 
L 364.073408 153.795285 
L 364.555987 154.156241 
L 365.038565 153.804461 
L 366.003721 153.817683 
L 366.968878 154.144831 
L 367.451456 154.320632 
L 367.934035 154.001784 
L 368.416613 154.019156 
L 368.899191 153.89645 
L 369.38177 153.980235 
L 369.864348 153.898231 
L 370.346926 154.085914 
L 370.829504 153.773657 
L 371.312083 153.94822 
L 371.794661 153.85914 
L 372.759818 154.187928 
L 374.207552 153.921519 
L 374.690131 154.257414 
L 375.172709 154.114575 
L 375.655287 153.676342 
L 376.137866 154.111554 
L 376.620444 153.945 
L 377.103022 154.264391 
L 378.068179 154.199885 
L 378.550757 153.916074 
L 379.033335 153.800958 
L 379.515914 154.118317 
L 379.998492 154.147793 
L 380.48107 154.042847 
L 380.963649 154.252004 
L 381.446227 153.647198 
L 381.928805 154.016842 
L 382.411383 154.171495 
L 383.859118 153.607843 
L 384.341697 154.368 
L 384.824275 154.168969 
L 385.306853 154.178298 
L 385.789431 153.89821 
L 386.27201 154.185935 
L 386.754588 154.15719 
L 387.237166 153.90767 
L 387.719745 154.292661 
L 388.684901 154.167563 
L 389.167479 153.890669 
L 389.650058 154.25718 
L 390.132636 154.251966 
L 390.615214 154.034872 
L 392.545528 154.244334 
L 393.028106 154.194468 
L 393.510684 154.283984 
L 393.993262 153.817306 
L 394.958419 153.869827 
L 395.440997 154.205493 
L 396.888732 153.884633 
L 397.37131 154.165444 
L 397.853889 153.898163 
L 398.336467 154.240102 
L 398.819045 153.797088 
L 399.301624 153.995567 
L 399.784202 154.348716 
L 400.749358 153.723597 
L 401.231937 154.239327 
L 401.714515 154.311092 
L 402.679672 154.05706 
L 404.127407 154.181325 
L 404.609985 153.954411 
L 405.092563 154.054001 
L 405.575141 153.819658 
L 406.05772 154.198454 
L 406.540298 153.963137 
L 407.022876 154.130094 
L 407.505455 153.815434 
L 407.505455 153.815434 
" style="fill:none;stroke:#1f77b4;stroke-linecap:square;stroke-width:1.5;"/>
   </g>
   <g id="patch_8">
    <path d="M 256 159.744 
L 256 41.472 
" style="fill:none;stroke:#000000;stroke-linecap:square;stroke-linejoin:miter;stroke-width:0.8;"/>
   </g>
   <g id="patch_9">
    <path d="M 414.72 159.744 
L 414.72 41.472 
" style="fill:none;stroke:#000000;stroke-linecap:square;stroke-linejoin:miter;stroke-width:0.8;"/>
   </g>
   <g id="patch_10">
    <path d="M 256 159.744 
L 414.72 159.744 
" style="fill:none;stroke:#000000;stroke-linecap:square;stroke-linejoin:miter;stroke-width:0.8;"/>
   </g>
   <g id="patch_11">
    <path d="M 256 41.472 
L 414.72 41.472 
" style="fill:none;stroke:#000000;stroke-linecap:square;stroke-linejoin:miter;stroke-width:0.8;"/>
   </g>
   <g id="text_18">
    <!-- loss -->
    <defs>
     <path d="M 9.421875 75.984375 
L 18.40625 75.984375 
L 18.40625 0 
L 9.421875 0 
z
" id="DejaVuSans-6c"/>
     <path d="M 30.609375 48.390625 
Q 23.390625 48.390625 19.1875 42.75 
Q 14.984375 37.109375 14.984375 27.296875 
Q 14.984375 17.484375 19.15625 11.84375 
Q 23.34375 6.203125 30.609375 6.203125 
Q 37.796875 6.203125 41.984375 11.859375 
Q 46.1875 17.53125 46.1875 27.296875 
Q 46.1875 37.015625 41.984375 42.703125 
Q 37.796875 48.390625 30.609375 48.390625 
z
M 30.609375 56 
Q 42.328125 56 49.015625 48.375 
Q 55.71875 40.765625 55.71875 27.296875 
Q 55.71875 13.875 49.015625 6.21875 
Q 42.328125 -1.421875 30.609375 -1.421875 
Q 18.84375 -1.421875 12.171875 6.21875 
Q 5.515625 13.875 5.515625 27.296875 
Q 5.515625 40.765625 12.171875 48.375 
Q 18.84375 56 30.609375 56 
z
" id="DejaVuSans-6f"/>
     <path d="M 44.28125 53.078125 
L 44.28125 44.578125 
Q 40.484375 46.53125 36.375 47.5 
Q 32.28125 48.484375 27.875 48.484375 
Q 21.1875 48.484375 17.84375 46.4375 
Q 14.5 44.390625 14.5 40.28125 
Q 14.5 37.15625 16.890625 35.375 
Q 19.28125 33.59375 26.515625 31.984375 
L 29.59375 31.296875 
Q 39.15625 29.25 43.1875 25.515625 
Q 47.21875 21.78125 47.21875 15.09375 
Q 47.21875 7.46875 41.1875 3.015625 
Q 35.15625 -1.421875 24.609375 -1.421875 
Q 20.21875 -1.421875 15.453125 -0.5625 
Q 10.6875 0.296875 5.421875 2 
L 5.421875 11.28125 
Q 10.40625 8.6875 15.234375 7.390625 
Q 20.0625 6.109375 24.8125 6.109375 
Q 31.15625 6.109375 34.5625 8.28125 
Q 37.984375 10.453125 37.984375 14.40625 
Q 37.984375 18.0625 35.515625 20.015625 
Q 33.0625 21.96875 24.703125 23.78125 
L 21.578125 24.515625 
Q 13.234375 26.265625 9.515625 29.90625 
Q 5.8125 33.546875 5.8125 39.890625 
Q 5.8125 47.609375 11.28125 51.796875 
Q 16.75 56 26.8125 56 
Q 31.78125 56 36.171875 55.265625 
Q 40.578125 54.546875 44.28125 53.078125 
z
" id="DejaVuSans-73"/>
    </defs>
    <g transform="translate(323.770625 35.472)scale(0.12 -0.12)">
     <use xlink:href="#DejaVuSans-6c"/>
     <use x="27.783203" xlink:href="#DejaVuSans-6f"/>
     <use x="88.964844" xlink:href="#DejaVuSans-73"/>
     <use x="141.064453" xlink:href="#DejaVuSans-73"/>
    </g>
   </g>
  </g>
  <g id="axes_3">
   <g id="patch_12">
    <path d="M 57.6 307.584 
L 216.32 307.584 
L 216.32 189.312 
L 57.6 189.312 
z
" style="fill:#ffffff;"/>
   </g>
   <g id="matplotlib.axis_5">
    <g id="xtick_9">
     <g id="line2d_35">
      <path clip-path="url(#p4b0f8b8c9e)" d="M 64.814545 307.584 
L 64.814545 189.312 
" style="fill:none;stroke:#b0b0b0;stroke-linecap:square;stroke-width:0.8;"/>
     </g>
     <g id="line2d_36">
      <g>
       <use style="stroke:#000000;stroke-width:0.8;" x="64.814545" xlink:href="#m5970f70564" y="307.584"/>
      </g>
     </g>
     <g id="text_19">
      <!-- 0 -->
      <g transform="translate(61.633295 322.182437)scale(0.1 -0.1)">
       <use xlink:href="#DejaVuSans-30"/>
      </g>
     </g>
    </g>
    <g id="xtick_10">
     <g id="line2d_37">
      <path clip-path="url(#p4b0f8b8c9e)" d="M 113.072375 307.584 
L 113.072375 189.312 
" style="fill:none;stroke:#b0b0b0;stroke-linecap:square;stroke-width:0.8;"/>
     </g>
     <g id="line2d_38">
      <g>
       <use style="stroke:#000000;stroke-width:0.8;" x="113.072375" xlink:href="#m5970f70564" y="307.584"/>
      </g>
     </g>
     <g id="text_20">
      <!-- 100 -->
      <g transform="translate(103.528625 322.182437)scale(0.1 -0.1)">
       <use xlink:href="#DejaVuSans-31"/>
       <use x="63.623047" xlink:href="#DejaVuSans-30"/>
       <use x="127.246094" xlink:href="#DejaVuSans-30"/>
      </g>
     </g>
    </g>
    <g id="xtick_11">
     <g id="line2d_39">
      <path clip-path="url(#p4b0f8b8c9e)" d="M 161.330204 307.584 
L 161.330204 189.312 
" style="fill:none;stroke:#b0b0b0;stroke-linecap:square;stroke-width:0.8;"/>
     </g>
     <g id="line2d_40">
      <g>
       <use style="stroke:#000000;stroke-width:0.8;" x="161.330204" xlink:href="#m5970f70564" y="307.584"/>
      </g>
     </g>
     <g id="text_21">
      <!-- 200 -->
      <g transform="translate(151.786454 322.182437)scale(0.1 -0.1)">
       <use xlink:href="#DejaVuSans-32"/>
       <use x="63.623047" xlink:href="#DejaVuSans-30"/>
       <use x="127.246094" xlink:href="#DejaVuSans-30"/>
      </g>
     </g>
    </g>
    <g id="xtick_12">
     <g id="line2d_41">
      <path clip-path="url(#p4b0f8b8c9e)" d="M 209.588033 307.584 
L 209.588033 189.312 
" style="fill:none;stroke:#b0b0b0;stroke-linecap:square;stroke-width:0.8;"/>
     </g>
     <g id="line2d_42">
      <g>
       <use style="stroke:#000000;stroke-width:0.8;" x="209.588033" xlink:href="#m5970f70564" y="307.584"/>
      </g>
     </g>
     <g id="text_22">
      <!-- 300 -->
      <g transform="translate(200.044283 322.182437)scale(0.1 -0.1)">
       <use xlink:href="#DejaVuSans-33"/>
       <use x="63.623047" xlink:href="#DejaVuSans-30"/>
       <use x="127.246094" xlink:href="#DejaVuSans-30"/>
      </g>
     </g>
    </g>
   </g>
   <g id="matplotlib.axis_6">
    <g id="ytick_9">
     <g id="line2d_43">
      <path clip-path="url(#p4b0f8b8c9e)" d="M 57.6 303.078607 
L 216.32 303.078607 
" style="fill:none;stroke:#b0b0b0;stroke-linecap:square;stroke-width:0.8;"/>
     </g>
     <g id="line2d_44">
      <g>
       <use style="stroke:#000000;stroke-width:0.8;" x="57.6" xlink:href="#m9842aa1a39" y="303.078607"/>
      </g>
     </g>
     <g id="text_23">
      <!-- 0.00 -->
      <g transform="translate(28.334375 306.877826)scale(0.1 -0.1)">
       <use xlink:href="#DejaVuSans-30"/>
       <use x="63.623047" xlink:href="#DejaVuSans-2e"/>
       <use x="95.410156" xlink:href="#DejaVuSans-30"/>
       <use x="159.033203" xlink:href="#DejaVuSans-30"/>
      </g>
     </g>
    </g>
    <g id="ytick_10">
     <g id="line2d_45">
      <path clip-path="url(#p4b0f8b8c9e)" d="M 57.6 275.219174 
L 216.32 275.219174 
" style="fill:none;stroke:#b0b0b0;stroke-linecap:square;stroke-width:0.8;"/>
     </g>
     <g id="line2d_46">
      <g>
       <use style="stroke:#000000;stroke-width:0.8;" x="57.6" xlink:href="#m9842aa1a39" y="275.219174"/>
      </g>
     </g>
     <g id="text_24">
      <!-- 0.25 -->
      <g transform="translate(28.334375 279.018393)scale(0.1 -0.1)">
       <use xlink:href="#DejaVuSans-30"/>
       <use x="63.623047" xlink:href="#DejaVuSans-2e"/>
       <use x="95.410156" xlink:href="#DejaVuSans-32"/>
       <use x="159.033203" xlink:href="#DejaVuSans-35"/>
      </g>
     </g>
    </g>
    <g id="ytick_11">
     <g id="line2d_47">
      <path clip-path="url(#p4b0f8b8c9e)" d="M 57.6 247.359741 
L 216.32 247.359741 
" style="fill:none;stroke:#b0b0b0;stroke-linecap:square;stroke-width:0.8;"/>
     </g>
     <g id="line2d_48">
      <g>
       <use style="stroke:#000000;stroke-width:0.8;" x="57.6" xlink:href="#m9842aa1a39" y="247.359741"/>
      </g>
     </g>
     <g id="text_25">
      <!-- 0.50 -->
      <g transform="translate(28.334375 251.158959)scale(0.1 -0.1)">
       <use xlink:href="#DejaVuSans-30"/>
       <use x="63.623047" xlink:href="#DejaVuSans-2e"/>
       <use x="95.410156" xlink:href="#DejaVuSans-35"/>
       <use x="159.033203" xlink:href="#DejaVuSans-30"/>
      </g>
     </g>
    </g>
    <g id="ytick_12">
     <g id="line2d_49">
      <path clip-path="url(#p4b0f8b8c9e)" d="M 57.6 219.500307 
L 216.32 219.500307 
" style="fill:none;stroke:#b0b0b0;stroke-linecap:square;stroke-width:0.8;"/>
     </g>
     <g id="line2d_50">
      <g>
       <use style="stroke:#000000;stroke-width:0.8;" x="57.6" xlink:href="#m9842aa1a39" y="219.500307"/>
      </g>
     </g>
     <g id="text_26">
      <!-- 0.75 -->
      <g transform="translate(28.334375 223.299526)scale(0.1 -0.1)">
       <use xlink:href="#DejaVuSans-30"/>
       <use x="63.623047" xlink:href="#DejaVuSans-2e"/>
       <use x="95.410156" xlink:href="#DejaVuSans-37"/>
       <use x="159.033203" xlink:href="#DejaVuSans-35"/>
      </g>
     </g>
    </g>
    <g id="ytick_13">
     <g id="line2d_51">
      <path clip-path="url(#p4b0f8b8c9e)" d="M 57.6 191.640874 
L 216.32 191.640874 
" style="fill:none;stroke:#b0b0b0;stroke-linecap:square;stroke-width:0.8;"/>
     </g>
     <g id="line2d_52">
      <g>
       <use style="stroke:#000000;stroke-width:0.8;" x="57.6" xlink:href="#m9842aa1a39" y="191.640874"/>
      </g>
     </g>
     <g id="text_27">
      <!-- 1.00 -->
      <g transform="translate(28.334375 195.440093)scale(0.1 -0.1)">
       <use xlink:href="#DejaVuSans-31"/>
       <use x="63.623047" xlink:href="#DejaVuSans-2e"/>
       <use x="95.410156" xlink:href="#DejaVuSans-30"/>
       <use x="159.033203" xlink:href="#DejaVuSans-30"/>
      </g>
     </g>
    </g>
   </g>
   <g id="line2d_53">
    <path clip-path="url(#p4b0f8b8c9e)" d="M 64.814545 302.208 
L 65.297124 301.337393 
L 65.779702 297.41966 
L 66.26228 295.243142 
L 66.744859 286.537068 
L 67.227437 284.36055 
L 67.710015 280.007513 
L 68.192593 271.736744 
L 68.675172 273.042655 
L 69.15775 267.383708 
L 69.640328 273.477959 
L 70.122907 260.41885 
L 70.605485 263.901279 
L 71.088063 250.406865 
L 71.570642 257.807028 
L 72.05322 253.45399 
L 72.535798 243.877311 
L 73.018376 242.571399 
L 73.500955 248.665651 
L 73.983533 241.700793 
L 74.466111 244.747917 
L 74.94869 233.430023 
L 75.431268 232.124112 
L 75.913846 234.735935 
L 76.396424 233.430021 
L 76.879003 227.771075 
L 77.361581 229.512289 
L 77.844159 224.288646 
L 78.326738 224.72395 
L 78.809316 221.676823 
L 79.291894 220.370913 
L 79.774472 223.853344 
L 80.257051 229.512291 
L 80.739629 219.935609 
L 81.222207 227.335771 
L 81.704786 225.159252 
L 82.187364 216.453181 
L 82.669942 216.453179 
L 83.152521 214.711966 
L 83.635099 219.500306 
L 84.117677 213.841358 
L 84.600255 215.582573 
L 85.082834 216.453181 
L 86.04799 212.535448 
L 86.530569 211.664841 
L 87.013147 215.14727 
L 87.495725 205.570591 
L 87.978303 209.923626 
L 88.460882 212.100144 
L 88.94346 211.229537 
L 89.426038 210.794234 
L 89.908617 205.135287 
L 90.391195 205.570592 
L 90.873773 204.264679 
L 91.356351 206.441197 
L 91.83893 206.876503 
L 92.321508 212.535449 
L 92.804086 202.958769 
L 93.769243 205.570591 
L 94.251821 207.747108 
L 94.7344 206.441199 
L 95.216978 219.065002 
L 95.699556 207.311805 
L 96.182134 208.617716 
L 96.664713 203.829376 
L 97.147291 203.829376 
L 97.629869 203.394073 
L 98.112448 219.93561 
L 98.595026 203.829377 
L 99.077604 209.053019 
L 99.560182 202.088162 
L 100.042761 206.441199 
L 100.525339 204.26468 
L 101.007917 199.041037 
L 101.490496 200.782251 
L 101.973074 202.088161 
L 102.455652 203.829376 
L 102.93823 202.958769 
L 103.420809 220.370913 
L 103.903387 217.323787 
L 104.385965 200.346948 
L 104.868544 200.782251 
L 105.351122 209.923625 
L 106.316279 199.041037 
L 106.798857 226.900468 
L 107.281435 199.041036 
L 107.764013 199.041036 
L 108.246592 203.394073 
L 108.72917 198.605733 
L 109.211748 201.652858 
L 109.694327 206.876502 
L 110.176905 200.346948 
L 110.659483 201.652858 
L 111.142061 202.088162 
L 111.62464 201.652858 
L 112.107218 202.958769 
L 112.589796 199.911644 
L 113.072375 202.523465 
L 113.554953 201.652858 
L 114.037531 206.005894 
L 114.520109 203.394073 
L 115.002688 202.523466 
L 115.485266 199.911644 
L 115.967844 200.346948 
L 116.450423 207.747108 
L 116.933001 198.605733 
L 117.415579 209.923627 
L 117.898157 202.523466 
L 118.380736 199.041037 
L 118.863314 197.299821 
L 119.345892 199.47634 
L 119.828471 206.876502 
L 120.311049 198.17043 
L 120.793627 199.041037 
L 121.276206 198.170429 
L 121.758784 200.782252 
L 122.241362 199.476341 
L 122.72394 200.346947 
L 123.206519 199.911644 
L 123.689097 198.605733 
L 124.171675 198.170429 
L 124.654254 198.605733 
L 125.136832 199.47634 
L 125.61941 198.17043 
L 126.101988 197.299822 
L 126.584567 198.17043 
L 127.067145 198.605732 
L 127.549723 200.346947 
L 128.51488 197.735126 
L 128.997458 199.041036 
L 129.480036 197.735126 
L 129.962615 200.346948 
L 130.445193 199.476341 
L 130.927771 197.735126 
L 131.41035 199.041036 
L 131.892928 203.829377 
L 132.858085 199.47634 
L 133.340663 236.912453 
L 133.823241 198.170429 
L 134.305819 198.605733 
L 134.788398 199.911644 
L 135.270976 194.688 
L 135.753554 200.346948 
L 136.236133 198.605733 
L 136.718711 199.47634 
L 137.201289 196.864518 
L 137.683867 198.170429 
L 138.166446 202.088162 
L 138.649024 195.993911 
L 139.131602 199.47634 
L 139.614181 199.041037 
L 140.096759 202.088162 
L 140.579337 197.299822 
L 141.061915 199.911644 
L 141.544494 198.605733 
L 142.027072 199.041036 
L 142.50965 198.170429 
L 142.992229 199.47634 
L 143.474807 199.47634 
L 143.957385 196.864518 
L 144.439964 199.47634 
L 144.922542 200.346947 
L 145.40512 199.911644 
L 145.887698 205.57059 
L 146.370277 198.170429 
L 147.335433 196.429215 
L 147.818012 200.346947 
L 148.30059 200.346948 
L 148.783168 198.170429 
L 149.265746 197.735126 
L 149.748325 200.782251 
L 150.230903 199.47634 
L 150.713481 199.911644 
L 151.19606 199.041036 
L 151.678638 197.299822 
L 152.161216 198.605733 
L 152.643794 198.17043 
L 153.126373 231.688807 
L 153.608951 199.911643 
L 154.091529 200.346947 
L 154.574108 202.088162 
L 155.056686 196.429215 
L 155.539264 197.299822 
L 156.021843 197.735126 
L 156.504421 201.217556 
L 156.986999 202.088162 
L 157.469577 197.299822 
L 157.952156 200.346947 
L 158.434734 199.041037 
L 158.917312 202.088162 
L 159.399891 197.299822 
L 159.882469 196.429215 
L 160.365047 198.17043 
L 160.847625 198.17043 
L 161.330204 197.299822 
L 161.812782 197.299822 
L 162.29536 199.47634 
L 162.777939 196.429214 
L 163.260517 198.170429 
L 163.743095 199.476341 
L 164.225673 201.652858 
L 164.708252 196.864518 
L 165.19083 196.864518 
L 165.673408 197.299821 
L 166.155987 195.558607 
L 166.638565 198.605733 
L 167.121143 199.911644 
L 167.603721 196.429215 
L 168.0863 200.346947 
L 168.568878 198.17043 
L 169.534035 198.17043 
L 170.016613 195.993911 
L 170.499191 198.170429 
L 170.98177 197.299823 
L 171.464348 200.346948 
L 171.946926 199.041036 
L 172.429504 196.429215 
L 172.912083 196.864518 
L 173.394661 201.217554 
L 173.877239 201.217555 
L 174.359818 195.993911 
L 174.842396 195.558608 
L 175.324974 196.864518 
L 175.807552 197.735126 
L 176.290131 200.346947 
L 176.772709 196.864519 
L 177.737866 197.735126 
L 178.220444 197.299822 
L 178.703022 202.088162 
L 179.1856 201.217555 
L 179.668179 197.735126 
L 180.150757 198.605733 
L 180.633335 196.864519 
L 181.115914 197.735126 
L 181.598492 197.299822 
L 182.08107 198.170429 
L 182.563649 204.264679 
L 183.046227 203.394073 
L 183.528805 198.170429 
L 184.011383 196.429215 
L 184.493962 197.299822 
L 184.97654 197.735126 
L 185.459118 196.429214 
L 185.941697 200.782251 
L 186.424275 201.652858 
L 186.906853 199.47634 
L 187.389431 195.558607 
L 187.87201 195.993911 
L 188.354588 196.864518 
L 188.837166 198.17043 
L 189.319745 198.17043 
L 189.802323 195.558607 
L 190.284901 196.429215 
L 190.767479 197.735126 
L 191.250058 198.605733 
L 191.732636 196.429215 
L 192.215214 196.429215 
L 192.697793 197.299823 
L 193.180371 197.735126 
L 193.662949 197.735126 
L 194.145528 197.299823 
L 194.628106 195.558608 
L 195.110684 196.864519 
L 195.593262 196.429215 
L 196.075841 200.78225 
L 197.040997 195.993911 
L 197.523576 199.041037 
L 198.006154 196.864518 
L 198.488732 199.041036 
L 198.97131 206.005894 
L 199.453889 199.911643 
L 199.936467 199.47634 
L 200.419045 197.299822 
L 200.901624 197.735126 
L 201.384202 195.993911 
L 201.86678 199.041036 
L 202.349358 199.911644 
L 202.831937 195.993911 
L 203.314515 197.735126 
L 203.797093 195.993911 
L 204.279672 195.558608 
L 204.76225 202.088161 
L 205.244828 198.170429 
L 205.727407 198.17043 
L 206.692563 197.299822 
L 207.175141 195.993911 
L 207.65772 199.47634 
L 208.622876 204.699984 
L 209.105455 195.123303 
L 209.105455 195.123303 
" style="fill:none;stroke:#1f77b4;stroke-linecap:square;stroke-width:1.5;"/>
   </g>
   <g id="patch_13">
    <path d="M 57.6 307.584 
L 57.6 189.312 
" style="fill:none;stroke:#000000;stroke-linecap:square;stroke-linejoin:miter;stroke-width:0.8;"/>
   </g>
   <g id="patch_14">
    <path d="M 216.32 307.584 
L 216.32 189.312 
" style="fill:none;stroke:#000000;stroke-linecap:square;stroke-linejoin:miter;stroke-width:0.8;"/>
   </g>
   <g id="patch_15">
    <path d="M 57.6 307.584 
L 216.32 307.584 
" style="fill:none;stroke:#000000;stroke-linecap:square;stroke-linejoin:miter;stroke-width:0.8;"/>
   </g>
   <g id="patch_16">
    <path d="M 57.6 189.312 
L 216.32 189.312 
" style="fill:none;stroke:#000000;stroke-linecap:square;stroke-linejoin:miter;stroke-width:0.8;"/>
   </g>
   <g id="text_28">
    <!-- val_acc -->
    <defs>
     <path d="M 2.984375 54.6875 
L 12.5 54.6875 
L 29.59375 8.796875 
L 46.6875 54.6875 
L 56.203125 54.6875 
L 35.6875 0 
L 23.484375 0 
z
" id="DejaVuSans-76"/>
     <path d="M 50.984375 -16.609375 
L 50.984375 -23.578125 
L -0.984375 -23.578125 
L -0.984375 -16.609375 
z
" id="DejaVuSans-5f"/>
    </defs>
    <g transform="translate(114.79 183.312)scale(0.12 -0.12)">
     <use xlink:href="#DejaVuSans-76"/>
     <use x="59.179688" xlink:href="#DejaVuSans-61"/>
     <use x="120.458984" xlink:href="#DejaVuSans-6c"/>
     <use x="148.242188" xlink:href="#DejaVuSans-5f"/>
     <use x="198.242188" xlink:href="#DejaVuSans-61"/>
     <use x="259.521484" xlink:href="#DejaVuSans-63"/>
     <use x="314.501953" xlink:href="#DejaVuSans-63"/>
    </g>
   </g>
  </g>
  <g id="axes_4">
   <g id="patch_17">
    <path d="M 256 307.584 
L 414.72 307.584 
L 414.72 189.312 
L 256 189.312 
z
" style="fill:#ffffff;"/>
   </g>
   <g id="matplotlib.axis_7">
    <g id="xtick_13">
     <g id="line2d_54">
      <path clip-path="url(#p93164740e0)" d="M 263.214545 307.584 
L 263.214545 189.312 
" style="fill:none;stroke:#b0b0b0;stroke-linecap:square;stroke-width:0.8;"/>
     </g>
     <g id="line2d_55">
      <g>
       <use style="stroke:#000000;stroke-width:0.8;" x="263.214545" xlink:href="#m5970f70564" y="307.584"/>
      </g>
     </g>
     <g id="text_29">
      <!-- 0 -->
      <g transform="translate(260.033295 322.182437)scale(0.1 -0.1)">
       <use xlink:href="#DejaVuSans-30"/>
      </g>
     </g>
    </g>
    <g id="xtick_14">
     <g id="line2d_56">
      <path clip-path="url(#p93164740e0)" d="M 311.472375 307.584 
L 311.472375 189.312 
" style="fill:none;stroke:#b0b0b0;stroke-linecap:square;stroke-width:0.8;"/>
     </g>
     <g id="line2d_57">
      <g>
       <use style="stroke:#000000;stroke-width:0.8;" x="311.472375" xlink:href="#m5970f70564" y="307.584"/>
      </g>
     </g>
     <g id="text_30">
      <!-- 100 -->
      <g transform="translate(301.928625 322.182437)scale(0.1 -0.1)">
       <use xlink:href="#DejaVuSans-31"/>
       <use x="63.623047" xlink:href="#DejaVuSans-30"/>
       <use x="127.246094" xlink:href="#DejaVuSans-30"/>
      </g>
     </g>
    </g>
    <g id="xtick_15">
     <g id="line2d_58">
      <path clip-path="url(#p93164740e0)" d="M 359.730204 307.584 
L 359.730204 189.312 
" style="fill:none;stroke:#b0b0b0;stroke-linecap:square;stroke-width:0.8;"/>
     </g>
     <g id="line2d_59">
      <g>
       <use style="stroke:#000000;stroke-width:0.8;" x="359.730204" xlink:href="#m5970f70564" y="307.584"/>
      </g>
     </g>
     <g id="text_31">
      <!-- 200 -->
      <g transform="translate(350.186454 322.182437)scale(0.1 -0.1)">
       <use xlink:href="#DejaVuSans-32"/>
       <use x="63.623047" xlink:href="#DejaVuSans-30"/>
       <use x="127.246094" xlink:href="#DejaVuSans-30"/>
      </g>
     </g>
    </g>
    <g id="xtick_16">
     <g id="line2d_60">
      <path clip-path="url(#p93164740e0)" d="M 407.988033 307.584 
L 407.988033 189.312 
" style="fill:none;stroke:#b0b0b0;stroke-linecap:square;stroke-width:0.8;"/>
     </g>
     <g id="line2d_61">
      <g>
       <use style="stroke:#000000;stroke-width:0.8;" x="407.988033" xlink:href="#m5970f70564" y="307.584"/>
      </g>
     </g>
     <g id="text_32">
      <!-- 300 -->
      <g transform="translate(398.444283 322.182437)scale(0.1 -0.1)">
       <use xlink:href="#DejaVuSans-33"/>
       <use x="63.623047" xlink:href="#DejaVuSans-30"/>
       <use x="127.246094" xlink:href="#DejaVuSans-30"/>
      </g>
     </g>
    </g>
   </g>
   <g id="matplotlib.axis_8">
    <g id="ytick_14">
     <g id="line2d_62">
      <path clip-path="url(#p93164740e0)" d="M 256 304.695201 
L 414.72 304.695201 
" style="fill:none;stroke:#b0b0b0;stroke-linecap:square;stroke-width:0.8;"/>
     </g>
     <g id="line2d_63">
      <g>
       <use style="stroke:#000000;stroke-width:0.8;" x="256" xlink:href="#m9842aa1a39" y="304.695201"/>
      </g>
     </g>
     <g id="text_33">
      <!-- 0 -->
      <g transform="translate(242.6375 308.49442)scale(0.1 -0.1)">
       <use xlink:href="#DejaVuSans-30"/>
      </g>
     </g>
    </g>
    <g id="ytick_15">
     <g id="line2d_64">
      <path clip-path="url(#p93164740e0)" d="M 256 264.236219 
L 414.72 264.236219 
" style="fill:none;stroke:#b0b0b0;stroke-linecap:square;stroke-width:0.8;"/>
     </g>
     <g id="line2d_65">
      <g>
       <use style="stroke:#000000;stroke-width:0.8;" x="256" xlink:href="#m9842aa1a39" y="264.236219"/>
      </g>
     </g>
     <g id="text_34">
      <!-- 2 -->
      <g transform="translate(242.6375 268.035437)scale(0.1 -0.1)">
       <use xlink:href="#DejaVuSans-32"/>
      </g>
     </g>
    </g>
    <g id="ytick_16">
     <g id="line2d_66">
      <path clip-path="url(#p93164740e0)" d="M 256 223.777236 
L 414.72 223.777236 
" style="fill:none;stroke:#b0b0b0;stroke-linecap:square;stroke-width:0.8;"/>
     </g>
     <g id="line2d_67">
      <g>
       <use style="stroke:#000000;stroke-width:0.8;" x="256" xlink:href="#m9842aa1a39" y="223.777236"/>
      </g>
     </g>
     <g id="text_35">
      <!-- 4 -->
      <g transform="translate(242.6375 227.576455)scale(0.1 -0.1)">
       <use xlink:href="#DejaVuSans-34"/>
      </g>
     </g>
    </g>
   </g>
   <g id="line2d_68">
    <path clip-path="url(#p93164740e0)" d="M 263.214545 194.688 
L 264.66228 223.027545 
L 265.627437 234.821875 
L 266.592593 245.609031 
L 267.55775 251.038653 
L 268.040328 251.088105 
L 268.522907 257.119275 
L 269.005485 257.96545 
L 269.488063 261.862394 
L 269.970642 261.799978 
L 270.45322 263.078902 
L 270.935798 267.669001 
L 271.418376 269.272364 
L 271.900955 268.605838 
L 272.383533 270.022552 
L 272.866111 270.674082 
L 273.34869 274.200139 
L 273.831268 276.647719 
L 274.313846 275.98382 
L 274.796424 278.510454 
L 275.279003 279.525885 
L 275.761581 280.082822 
L 276.244159 280.867938 
L 276.726738 282.476858 
L 277.209316 281.633603 
L 277.691894 285.057654 
L 278.174472 281.697666 
L 278.657051 281.883208 
L 279.139629 286.297232 
L 279.622207 282.366731 
L 280.587364 287.684322 
L 281.069942 287.824148 
L 281.552521 289.573121 
L 282.035099 288.114624 
L 282.517677 288.277109 
L 283.000255 289.347508 
L 283.482834 289.879341 
L 283.965412 289.685739 
L 284.44799 291.794482 
L 284.930569 291.950032 
L 285.413147 290.595992 
L 285.895725 293.746716 
L 286.860882 291.9915 
L 287.34346 290.962437 
L 288.308617 294.758266 
L 288.791195 295.461183 
L 289.273773 295.021752 
L 289.756351 294.920244 
L 290.23893 295.277319 
L 290.721508 292.441003 
L 291.204086 295.776983 
L 291.686665 295.649031 
L 292.169243 295.968612 
L 292.651821 294.708121 
L 293.1344 295.687274 
L 293.616978 288.301357 
L 294.099556 296.69284 
L 294.582134 294.396942 
L 295.064713 297.021438 
L 295.547291 297.175539 
L 296.029869 297.848963 
L 296.512448 289.790401 
L 296.995026 296.683417 
L 297.477604 295.176198 
L 297.960182 297.397193 
L 298.442761 295.614049 
L 299.407917 298.774467 
L 299.890496 298.31673 
L 300.373074 298.154804 
L 300.855652 297.600134 
L 301.33823 297.760521 
L 301.820809 286.293086 
L 302.303387 290.518911 
L 302.785965 298.941315 
L 303.268544 298.796018 
L 303.751122 292.964731 
L 304.2337 297.489378 
L 304.716279 299.553915 
L 305.198857 278.299266 
L 305.681435 299.333966 
L 306.164013 299.280143 
L 306.646592 299.106603 
L 307.12917 300.300432 
L 307.611748 297.884861 
L 308.094327 293.963218 
L 308.576905 299.122659 
L 309.059483 298.645816 
L 309.542061 296.512948 
L 310.02464 298.876887 
L 310.507218 298.009902 
L 310.989796 299.011689 
L 311.472375 297.245631 
L 311.954953 298.703309 
L 312.437531 295.721587 
L 312.920109 298.567174 
L 313.402688 298.617127 
L 313.885266 297.946676 
L 314.367844 298.333116 
L 314.850423 294.978668 
L 315.333001 300.595026 
L 315.815579 294.353043 
L 316.298157 297.811599 
L 316.780736 299.711124 
L 317.263314 299.602935 
L 317.745892 298.688209 
L 318.228471 293.500341 
L 318.711049 299.575838 
L 319.193627 299.829398 
L 319.676206 299.628901 
L 320.158784 298.450424 
L 320.641362 299.754071 
L 321.12394 298.258342 
L 321.606519 300.139349 
L 322.089097 299.335138 
L 322.571675 298.962368 
L 323.054254 299.787912 
L 323.536832 300.027492 
L 324.01941 300.509972 
L 324.501988 299.718298 
L 324.984567 300.090719 
L 325.467145 299.950478 
L 325.949723 297.130278 
L 326.432302 298.349195 
L 326.91488 300.291805 
L 327.397458 299.775207 
L 327.880036 300.31325 
L 328.362615 297.657235 
L 328.845193 298.298214 
L 329.327771 299.858122 
L 329.81035 300.177251 
L 330.292928 297.704002 
L 330.775506 298.869268 
L 331.258085 299.696818 
L 331.740663 265.519779 
L 332.223241 300.719193 
L 332.705819 299.818102 
L 333.188398 299.19246 
L 333.670976 302.208 
L 334.153554 299.693344 
L 334.636133 300.202738 
L 335.118711 300.171401 
L 335.601289 301.062421 
L 336.083867 300.721564 
L 336.566446 298.173941 
L 337.049024 300.553114 
L 337.531602 298.32592 
L 338.014181 300.206699 
L 338.496759 298.90892 
L 338.979337 301.309437 
L 339.461915 298.823074 
L 339.944494 299.573337 
L 340.90965 299.776148 
L 341.392229 300.327887 
L 341.874807 298.784863 
L 342.357385 300.657666 
L 343.322542 298.068077 
L 343.80512 299.155577 
L 344.287698 294.859032 
L 344.770277 299.896057 
L 345.252855 300.751752 
L 345.735433 300.470484 
L 346.218012 297.094507 
L 346.70059 299.210648 
L 347.183168 300.408402 
L 347.665746 300.705142 
L 348.148325 299.82688 
L 348.630903 300.084921 
L 349.113481 296.842607 
L 349.59606 299.421229 
L 350.078638 299.394236 
L 350.561216 299.236993 
L 351.043794 299.520017 
L 351.526373 260.834161 
L 352.008951 298.237561 
L 352.491529 298.767208 
L 352.974108 295.888525 
L 353.456686 300.684093 
L 354.421843 299.15683 
L 354.904421 297.199666 
L 355.386999 298.415051 
L 355.869577 300.343884 
L 356.352156 297.967252 
L 356.834734 299.430263 
L 357.317312 297.331993 
L 357.799891 300.543551 
L 358.282469 301.412626 
L 358.765047 300.677881 
L 359.730204 300.106655 
L 360.212782 300.635594 
L 360.69536 297.862997 
L 361.177939 300.211247 
L 361.660517 300.921711 
L 362.143095 297.578363 
L 362.625673 295.590759 
L 363.108252 300.298298 
L 363.59083 299.989269 
L 364.073408 300.390432 
L 364.555987 301.623869 
L 365.038565 298.607601 
L 365.521143 298.40516 
L 366.003721 299.993634 
L 366.4863 297.995158 
L 366.968878 299.898313 
L 367.451456 298.654179 
L 367.934035 299.270727 
L 368.416613 300.98112 
L 368.899191 299.931038 
L 369.38177 300.1316 
L 369.864348 297.066427 
L 370.829504 300.80237 
L 371.312083 300.014511 
L 371.794661 297.221014 
L 372.277239 296.57187 
L 372.759818 301.329056 
L 373.242396 300.670545 
L 373.724974 299.7205 
L 374.207552 300.618226 
L 374.690131 297.647012 
L 375.172709 299.766866 
L 375.655287 299.2111 
L 376.137866 298.179229 
L 376.620444 299.192935 
L 377.103022 293.139238 
L 377.5856 296.397399 
L 378.068179 297.11228 
L 378.550757 298.084626 
L 379.033335 300.040386 
L 379.998492 298.884312 
L 380.48107 299.53253 
L 380.963649 293.334359 
L 381.446227 294.485689 
L 381.928805 298.39412 
L 382.411383 299.503682 
L 382.893962 298.156684 
L 383.37654 298.298227 
L 383.859118 299.833896 
L 384.341697 296.849002 
L 384.824275 296.09894 
L 385.306853 297.162616 
L 385.789431 300.383726 
L 386.27201 299.420329 
L 386.754588 300.243708 
L 387.237166 299.314343 
L 387.719745 299.184663 
L 388.202323 300.247331 
L 388.684901 300.417326 
L 389.167479 298.046291 
L 389.650058 298.448502 
L 390.132636 300.056696 
L 390.615214 298.929023 
L 391.097793 299.966743 
L 391.580371 298.219048 
L 392.062949 300.129488 
L 392.545528 298.808884 
L 393.028106 300.456108 
L 393.510684 300.41791 
L 394.475841 297.424452 
L 394.958419 299.257637 
L 395.440997 300.400613 
L 395.923576 297.261415 
L 396.406154 300.147966 
L 396.888732 297.688648 
L 397.37131 289.812999 
L 397.853889 295.651685 
L 398.336467 298.083355 
L 398.819045 298.269712 
L 399.301624 299.125829 
L 399.784202 300.569823 
L 400.26678 299.37431 
L 400.749358 295.910144 
L 401.231937 299.300738 
L 401.714515 297.445244 
L 402.197093 298.941198 
L 402.679672 299.821365 
L 403.16225 293.31744 
L 403.644828 298.536839 
L 404.127407 297.98508 
L 404.609985 298.949972 
L 405.575141 299.904079 
L 406.05772 298.072807 
L 406.540298 292.405318 
L 407.022876 291.359333 
L 407.505455 299.627743 
L 407.505455 299.627743 
" style="fill:none;stroke:#1f77b4;stroke-linecap:square;stroke-width:1.5;"/>
   </g>
   <g id="patch_18">
    <path d="M 256 307.584 
L 256 189.312 
" style="fill:none;stroke:#000000;stroke-linecap:square;stroke-linejoin:miter;stroke-width:0.8;"/>
   </g>
   <g id="patch_19">
    <path d="M 414.72 307.584 
L 414.72 189.312 
" style="fill:none;stroke:#000000;stroke-linecap:square;stroke-linejoin:miter;stroke-width:0.8;"/>
   </g>
   <g id="patch_20">
    <path d="M 256 307.584 
L 414.72 307.584 
" style="fill:none;stroke:#000000;stroke-linecap:square;stroke-linejoin:miter;stroke-width:0.8;"/>
   </g>
   <g id="patch_21">
    <path d="M 256 189.312 
L 414.72 189.312 
" style="fill:none;stroke:#000000;stroke-linecap:square;stroke-linejoin:miter;stroke-width:0.8;"/>
   </g>
   <g id="text_36">
    <!-- val_loss -->
    <g transform="translate(311.875625 183.312)scale(0.12 -0.12)">
     <use xlink:href="#DejaVuSans-76"/>
     <use x="59.179688" xlink:href="#DejaVuSans-61"/>
     <use x="120.458984" xlink:href="#DejaVuSans-6c"/>
     <use x="148.242188" xlink:href="#DejaVuSans-5f"/>
     <use x="198.242188" xlink:href="#DejaVuSans-6c"/>
     <use x="226.025391" xlink:href="#DejaVuSans-6f"/>
     <use x="287.207031" xlink:href="#DejaVuSans-73"/>
     <use x="339.306641" xlink:href="#DejaVuSans-73"/>
    </g>
   </g>
  </g>
  <g id="text_37">
   <!-- benchmark 20171023_055956 -->
   <defs>
    <path d="M 48.6875 27.296875 
Q 48.6875 37.203125 44.609375 42.84375 
Q 40.53125 48.484375 33.40625 48.484375 
Q 26.265625 48.484375 22.1875 42.84375 
Q 18.109375 37.203125 18.109375 27.296875 
Q 18.109375 17.390625 22.1875 11.75 
Q 26.265625 6.109375 33.40625 6.109375 
Q 40.53125 6.109375 44.609375 11.75 
Q 48.6875 17.390625 48.6875 27.296875 
z
M 18.109375 46.390625 
Q 20.953125 51.265625 25.265625 53.625 
Q 29.59375 56 35.59375 56 
Q 45.5625 56 51.78125 48.09375 
Q 58.015625 40.1875 58.015625 27.296875 
Q 58.015625 14.40625 51.78125 6.484375 
Q 45.5625 -1.421875 35.59375 -1.421875 
Q 29.59375 -1.421875 25.265625 0.953125 
Q 20.953125 3.328125 18.109375 8.203125 
L 18.109375 0 
L 9.078125 0 
L 9.078125 75.984375 
L 18.109375 75.984375 
z
" id="DejaVuSans-62"/>
    <path d="M 56.203125 29.59375 
L 56.203125 25.203125 
L 14.890625 25.203125 
Q 15.484375 15.921875 20.484375 11.0625 
Q 25.484375 6.203125 34.421875 6.203125 
Q 39.59375 6.203125 44.453125 7.46875 
Q 49.3125 8.734375 54.109375 11.28125 
L 54.109375 2.78125 
Q 49.265625 0.734375 44.1875 -0.34375 
Q 39.109375 -1.421875 33.890625 -1.421875 
Q 20.796875 -1.421875 13.15625 6.1875 
Q 5.515625 13.8125 5.515625 26.8125 
Q 5.515625 40.234375 12.765625 48.109375 
Q 20.015625 56 32.328125 56 
Q 43.359375 56 49.78125 48.890625 
Q 56.203125 41.796875 56.203125 29.59375 
z
M 47.21875 32.234375 
Q 47.125 39.59375 43.09375 43.984375 
Q 39.0625 48.390625 32.421875 48.390625 
Q 24.90625 48.390625 20.390625 44.140625 
Q 15.875 39.890625 15.1875 32.171875 
z
" id="DejaVuSans-65"/>
    <path d="M 54.890625 33.015625 
L 54.890625 0 
L 45.90625 0 
L 45.90625 32.71875 
Q 45.90625 40.484375 42.875 44.328125 
Q 39.84375 48.1875 33.796875 48.1875 
Q 26.515625 48.1875 22.3125 43.546875 
Q 18.109375 38.921875 18.109375 30.90625 
L 18.109375 0 
L 9.078125 0 
L 9.078125 54.6875 
L 18.109375 54.6875 
L 18.109375 46.1875 
Q 21.34375 51.125 25.703125 53.5625 
Q 30.078125 56 35.796875 56 
Q 45.21875 56 50.046875 50.171875 
Q 54.890625 44.34375 54.890625 33.015625 
z
" id="DejaVuSans-6e"/>
    <path d="M 54.890625 33.015625 
L 54.890625 0 
L 45.90625 0 
L 45.90625 32.71875 
Q 45.90625 40.484375 42.875 44.328125 
Q 39.84375 48.1875 33.796875 48.1875 
Q 26.515625 48.1875 22.3125 43.546875 
Q 18.109375 38.921875 18.109375 30.90625 
L 18.109375 0 
L 9.078125 0 
L 9.078125 75.984375 
L 18.109375 75.984375 
L 18.109375 46.1875 
Q 21.34375 51.125 25.703125 53.5625 
Q 30.078125 56 35.796875 56 
Q 45.21875 56 50.046875 50.171875 
Q 54.890625 44.34375 54.890625 33.015625 
z
" id="DejaVuSans-68"/>
    <path d="M 52 44.1875 
Q 55.375 50.25 60.0625 53.125 
Q 64.75 56 71.09375 56 
Q 79.640625 56 84.28125 50.015625 
Q 88.921875 44.046875 88.921875 33.015625 
L 88.921875 0 
L 79.890625 0 
L 79.890625 32.71875 
Q 79.890625 40.578125 77.09375 44.375 
Q 74.3125 48.1875 68.609375 48.1875 
Q 61.625 48.1875 57.5625 43.546875 
Q 53.515625 38.921875 53.515625 30.90625 
L 53.515625 0 
L 44.484375 0 
L 44.484375 32.71875 
Q 44.484375 40.625 41.703125 44.40625 
Q 38.921875 48.1875 33.109375 48.1875 
Q 26.21875 48.1875 22.15625 43.53125 
Q 18.109375 38.875 18.109375 30.90625 
L 18.109375 0 
L 9.078125 0 
L 9.078125 54.6875 
L 18.109375 54.6875 
L 18.109375 46.1875 
Q 21.1875 51.21875 25.484375 53.609375 
Q 29.78125 56 35.6875 56 
Q 41.65625 56 45.828125 52.96875 
Q 50 49.953125 52 44.1875 
z
" id="DejaVuSans-6d"/>
    <path d="M 41.109375 46.296875 
Q 39.59375 47.171875 37.8125 47.578125 
Q 36.03125 48 33.890625 48 
Q 26.265625 48 22.1875 43.046875 
Q 18.109375 38.09375 18.109375 28.8125 
L 18.109375 0 
L 9.078125 0 
L 9.078125 54.6875 
L 18.109375 54.6875 
L 18.109375 46.1875 
Q 20.953125 51.171875 25.484375 53.578125 
Q 30.03125 56 36.53125 56 
Q 37.453125 56 38.578125 55.875 
Q 39.703125 55.765625 41.0625 55.515625 
z
" id="DejaVuSans-72"/>
    <path d="M 9.078125 75.984375 
L 18.109375 75.984375 
L 18.109375 31.109375 
L 44.921875 54.6875 
L 56.390625 54.6875 
L 27.390625 29.109375 
L 57.625 0 
L 45.90625 0 
L 18.109375 26.703125 
L 18.109375 0 
L 9.078125 0 
z
" id="DejaVuSans-6b"/>
    <path id="DejaVuSans-20"/>
    <path d="M 10.984375 1.515625 
L 10.984375 10.5 
Q 14.703125 8.734375 18.5 7.8125 
Q 22.3125 6.890625 25.984375 6.890625 
Q 35.75 6.890625 40.890625 13.453125 
Q 46.046875 20.015625 46.78125 33.40625 
Q 43.953125 29.203125 39.59375 26.953125 
Q 35.25 24.703125 29.984375 24.703125 
Q 19.046875 24.703125 12.671875 31.3125 
Q 6.296875 37.9375 6.296875 49.421875 
Q 6.296875 60.640625 12.9375 67.421875 
Q 19.578125 74.21875 30.609375 74.21875 
Q 43.265625 74.21875 49.921875 64.515625 
Q 56.59375 54.828125 56.59375 36.375 
Q 56.59375 19.140625 48.40625 8.859375 
Q 40.234375 -1.421875 26.421875 -1.421875 
Q 22.703125 -1.421875 18.890625 -0.6875 
Q 15.09375 0.046875 10.984375 1.515625 
z
M 30.609375 32.421875 
Q 37.25 32.421875 41.125 36.953125 
Q 45.015625 41.5 45.015625 49.421875 
Q 45.015625 57.28125 41.125 61.84375 
Q 37.25 66.40625 30.609375 66.40625 
Q 23.96875 66.40625 20.09375 61.84375 
Q 16.21875 57.28125 16.21875 49.421875 
Q 16.21875 41.5 20.09375 36.953125 
Q 23.96875 32.421875 30.609375 32.421875 
z
" id="DejaVuSans-39"/>
    <path d="M 33.015625 40.375 
Q 26.375 40.375 22.484375 35.828125 
Q 18.609375 31.296875 18.609375 23.390625 
Q 18.609375 15.53125 22.484375 10.953125 
Q 26.375 6.390625 33.015625 6.390625 
Q 39.65625 6.390625 43.53125 10.953125 
Q 47.40625 15.53125 47.40625 23.390625 
Q 47.40625 31.296875 43.53125 35.828125 
Q 39.65625 40.375 33.015625 40.375 
z
M 52.59375 71.296875 
L 52.59375 62.3125 
Q 48.875 64.0625 45.09375 64.984375 
Q 41.3125 65.921875 37.59375 65.921875 
Q 27.828125 65.921875 22.671875 59.328125 
Q 17.53125 52.734375 16.796875 39.40625 
Q 19.671875 43.65625 24.015625 45.921875 
Q 28.375 48.1875 33.59375 48.1875 
Q 44.578125 48.1875 50.953125 41.515625 
Q 57.328125 34.859375 57.328125 23.390625 
Q 57.328125 12.15625 50.6875 5.359375 
Q 44.046875 -1.421875 33.015625 -1.421875 
Q 20.359375 -1.421875 13.671875 8.265625 
Q 6.984375 17.96875 6.984375 36.375 
Q 6.984375 53.65625 15.1875 63.9375 
Q 23.390625 74.21875 37.203125 74.21875 
Q 40.921875 74.21875 44.703125 73.484375 
Q 48.484375 72.75 52.59375 71.296875 
z
" id="DejaVuSans-36"/>
   </defs>
   <g transform="translate(138.180938 16.030125)scale(0.12 -0.12)">
    <use xlink:href="#DejaVuSans-62"/>
    <use x="63.476562" xlink:href="#DejaVuSans-65"/>
    <use x="125" xlink:href="#DejaVuSans-6e"/>
    <use x="188.378906" xlink:href="#DejaVuSans-63"/>
    <use x="243.359375" xlink:href="#DejaVuSans-68"/>
    <use x="306.738281" xlink:href="#DejaVuSans-6d"/>
    <use x="404.150391" xlink:href="#DejaVuSans-61"/>
    <use x="465.429688" xlink:href="#DejaVuSans-72"/>
    <use x="506.542969" xlink:href="#DejaVuSans-6b"/>
    <use x="564.453125" xlink:href="#DejaVuSans-20"/>
    <use x="596.240234" xlink:href="#DejaVuSans-32"/>
    <use x="659.863281" xlink:href="#DejaVuSans-30"/>
    <use x="723.486328" xlink:href="#DejaVuSans-31"/>
    <use x="787.109375" xlink:href="#DejaVuSans-37"/>
    <use x="850.732422" xlink:href="#DejaVuSans-31"/>
    <use x="914.355469" xlink:href="#DejaVuSans-30"/>
    <use x="977.978516" xlink:href="#DejaVuSans-32"/>
    <use x="1041.601562" xlink:href="#DejaVuSans-33"/>
    <use x="1105.224609" xlink:href="#DejaVuSans-5f"/>
    <use x="1155.224609" xlink:href="#DejaVuSans-30"/>
    <use x="1218.847656" xlink:href="#DejaVuSans-35"/>
    <use x="1282.470703" xlink:href="#DejaVuSans-35"/>
    <use x="1346.09375" xlink:href="#DejaVuSans-39"/>
    <use x="1409.716797" xlink:href="#DejaVuSans-35"/>
    <use x="1473.339844" xlink:href="#DejaVuSans-36"/>
   </g>
  </g>
 </g>
 <defs>
  <clipPath id="p313b690be3">
   <rect height="118.272" width="158.72" x="57.6" y="41.472"/>
  </clipPath>
  <clipPath id="p5f8152795b">
   <rect height="118.272" width="158.72" x="256" y="41.472"/>
  </clipPath>
  <clipPath id="p4b0f8b8c9e">
   <rect height="118.272" width="158.72" x="57.6" y="189.312"/>
  </clipPath>
  <clipPath id="p93164740e0">
   <rect height="118.272" width="158.72" x="256" y="189.312"/>
  </clipPath>
 </defs>
</svg>
