<?xml version="1.0" encoding="utf-8" standalone="no"?>
<!DOCTYPE svg PUBLIC "-//W3C//DTD SVG 1.1//EN"
  "http://www.w3.org/Graphics/SVG/1.1/DTD/svg11.dtd">
<!-- Created with matplotlib (http://matplotlib.org/) -->
<svg height="345pt" version="1.1" viewBox="0 0 460 345" width="460pt" xmlns="http://www.w3.org/2000/svg" xmlns:xlink="http://www.w3.org/1999/xlink">
 <defs>
  <style type="text/css">
*{stroke-linecap:butt;stroke-linejoin:round;}
  </style>
 </defs>
 <g id="figure_1">
  <g id="patch_1">
   <path d="M 0 345.6 
L 460.8 345.6 
L 460.8 0 
L 0 0 
z
" style="fill:#ffffff;"/>
  </g>
  <g id="axes_1">
   <g id="patch_2">
    <path d="M 57.6 159.744 
L 216.32 159.744 
L 216.32 41.472 
L 57.6 41.472 
z
" style="fill:#ffffff;"/>
   </g>
   <g id="matplotlib.axis_1">
    <g id="xtick_1">
     <g id="line2d_1">
      <path clip-path="url(#pe4ed83f84b)" d="M 64.814545 159.744 
L 64.814545 41.472 
" style="fill:none;stroke:#b0b0b0;stroke-linecap:square;stroke-width:0.8;"/>
     </g>
     <g id="line2d_2">
      <defs>
       <path d="M 0 0 
L 0 3.5 
" id="m5d64224b5e" style="stroke:#000000;stroke-width:0.8;"/>
      </defs>
      <g>
       <use style="stroke:#000000;stroke-width:0.8;" x="64.814545" xlink:href="#m5d64224b5e" y="159.744"/>
      </g>
     </g>
     <g id="text_1">
      <!-- 0 -->
      <defs>
       <path d="M 31.78125 66.40625 
Q 24.171875 66.40625 20.328125 58.90625 
Q 16.5 51.421875 16.5 36.375 
Q 16.5 21.390625 20.328125 13.890625 
Q 24.171875 6.390625 31.78125 6.390625 
Q 39.453125 6.390625 43.28125 13.890625 
Q 47.125 21.390625 47.125 36.375 
Q 47.125 51.421875 43.28125 58.90625 
Q 39.453125 66.40625 31.78125 66.40625 
z
M 31.78125 74.21875 
Q 44.046875 74.21875 50.515625 64.515625 
Q 56.984375 54.828125 56.984375 36.375 
Q 56.984375 17.96875 50.515625 8.265625 
Q 44.046875 -1.421875 31.78125 -1.421875 
Q 19.53125 -1.421875 13.0625 8.265625 
Q 6.59375 17.96875 6.59375 36.375 
Q 6.59375 54.828125 13.0625 64.515625 
Q 19.53125 74.21875 31.78125 74.21875 
z
" id="DejaVuSans-30"/>
      </defs>
      <g transform="translate(61.633295 174.342437)scale(0.1 -0.1)">
       <use xlink:href="#DejaVuSans-30"/>
      </g>
     </g>
    </g>
    <g id="xtick_2">
     <g id="line2d_3">
      <path clip-path="url(#pe4ed83f84b)" d="M 113.072375 159.744 
L 113.072375 41.472 
" style="fill:none;stroke:#b0b0b0;stroke-linecap:square;stroke-width:0.8;"/>
     </g>
     <g id="line2d_4">
      <g>
       <use style="stroke:#000000;stroke-width:0.8;" x="113.072375" xlink:href="#m5d64224b5e" y="159.744"/>
      </g>
     </g>
     <g id="text_2">
      <!-- 100 -->
      <defs>
       <path d="M 12.40625 8.296875 
L 28.515625 8.296875 
L 28.515625 63.921875 
L 10.984375 60.40625 
L 10.984375 69.390625 
L 28.421875 72.90625 
L 38.28125 72.90625 
L 38.28125 8.296875 
L 54.390625 8.296875 
L 54.390625 0 
L 12.40625 0 
z
" id="DejaVuSans-31"/>
      </defs>
      <g transform="translate(103.528625 174.342437)scale(0.1 -0.1)">
       <use xlink:href="#DejaVuSans-31"/>
       <use x="63.623047" xlink:href="#DejaVuSans-30"/>
       <use x="127.246094" xlink:href="#DejaVuSans-30"/>
      </g>
     </g>
    </g>
    <g id="xtick_3">
     <g id="line2d_5">
      <path clip-path="url(#pe4ed83f84b)" d="M 161.330204 159.744 
L 161.330204 41.472 
" style="fill:none;stroke:#b0b0b0;stroke-linecap:square;stroke-width:0.8;"/>
     </g>
     <g id="line2d_6">
      <g>
       <use style="stroke:#000000;stroke-width:0.8;" x="161.330204" xlink:href="#m5d64224b5e" y="159.744"/>
      </g>
     </g>
     <g id="text_3">
      <!-- 200 -->
      <defs>
       <path d="M 19.1875 8.296875 
L 53.609375 8.296875 
L 53.609375 0 
L 7.328125 0 
L 7.328125 8.296875 
Q 12.9375 14.109375 22.625 23.890625 
Q 32.328125 33.6875 34.8125 36.53125 
Q 39.546875 41.84375 41.421875 45.53125 
Q 43.3125 49.21875 43.3125 52.78125 
Q 43.3125 58.59375 39.234375 62.25 
Q 35.15625 65.921875 28.609375 65.921875 
Q 23.96875 65.921875 18.8125 64.3125 
Q 13.671875 62.703125 7.8125 59.421875 
L 7.8125 69.390625 
Q 13.765625 71.78125 18.9375 73 
Q 24.125 74.21875 28.421875 74.21875 
Q 39.75 74.21875 46.484375 68.546875 
Q 53.21875 62.890625 53.21875 53.421875 
Q 53.21875 48.921875 51.53125 44.890625 
Q 49.859375 40.875 45.40625 35.40625 
Q 44.1875 33.984375 37.640625 27.21875 
Q 31.109375 20.453125 19.1875 8.296875 
z
" id="DejaVuSans-32"/>
      </defs>
      <g transform="translate(151.786454 174.342437)scale(0.1 -0.1)">
       <use xlink:href="#DejaVuSans-32"/>
       <use x="63.623047" xlink:href="#DejaVuSans-30"/>
       <use x="127.246094" xlink:href="#DejaVuSans-30"/>
      </g>
     </g>
    </g>
    <g id="xtick_4">
     <g id="line2d_7">
      <path clip-path="url(#pe4ed83f84b)" d="M 209.588033 159.744 
L 209.588033 41.472 
" style="fill:none;stroke:#b0b0b0;stroke-linecap:square;stroke-width:0.8;"/>
     </g>
     <g id="line2d_8">
      <g>
       <use style="stroke:#000000;stroke-width:0.8;" x="209.588033" xlink:href="#m5d64224b5e" y="159.744"/>
      </g>
     </g>
     <g id="text_4">
      <!-- 300 -->
      <defs>
       <path d="M 40.578125 39.3125 
Q 47.65625 37.796875 51.625 33 
Q 55.609375 28.21875 55.609375 21.1875 
Q 55.609375 10.40625 48.1875 4.484375 
Q 40.765625 -1.421875 27.09375 -1.421875 
Q 22.515625 -1.421875 17.65625 -0.515625 
Q 12.796875 0.390625 7.625 2.203125 
L 7.625 11.71875 
Q 11.71875 9.328125 16.59375 8.109375 
Q 21.484375 6.890625 26.8125 6.890625 
Q 36.078125 6.890625 40.9375 10.546875 
Q 45.796875 14.203125 45.796875 21.1875 
Q 45.796875 27.640625 41.28125 31.265625 
Q 36.765625 34.90625 28.71875 34.90625 
L 20.21875 34.90625 
L 20.21875 43.015625 
L 29.109375 43.015625 
Q 36.375 43.015625 40.234375 45.921875 
Q 44.09375 48.828125 44.09375 54.296875 
Q 44.09375 59.90625 40.109375 62.90625 
Q 36.140625 65.921875 28.71875 65.921875 
Q 24.65625 65.921875 20.015625 65.03125 
Q 15.375 64.15625 9.8125 62.3125 
L 9.8125 71.09375 
Q 15.4375 72.65625 20.34375 73.4375 
Q 25.25 74.21875 29.59375 74.21875 
Q 40.828125 74.21875 47.359375 69.109375 
Q 53.90625 64.015625 53.90625 55.328125 
Q 53.90625 49.265625 50.4375 45.09375 
Q 46.96875 40.921875 40.578125 39.3125 
z
" id="DejaVuSans-33"/>
      </defs>
      <g transform="translate(200.044283 174.342437)scale(0.1 -0.1)">
       <use xlink:href="#DejaVuSans-33"/>
       <use x="63.623047" xlink:href="#DejaVuSans-30"/>
       <use x="127.246094" xlink:href="#DejaVuSans-30"/>
      </g>
     </g>
    </g>
   </g>
   <g id="matplotlib.axis_2">
    <g id="ytick_1">
     <g id="line2d_9">
      <path clip-path="url(#pe4ed83f84b)" d="M 57.6 154.473792 
L 216.32 154.473792 
" style="fill:none;stroke:#b0b0b0;stroke-linecap:square;stroke-width:0.8;"/>
     </g>
     <g id="line2d_10">
      <defs>
       <path d="M 0 0 
L -3.5 0 
" id="m11ea074ec6" style="stroke:#000000;stroke-width:0.8;"/>
      </defs>
      <g>
       <use style="stroke:#000000;stroke-width:0.8;" x="57.6" xlink:href="#m11ea074ec6" y="154.473792"/>
      </g>
     </g>
     <g id="text_5">
      <!-- 0.00 -->
      <defs>
       <path d="M 10.6875 12.40625 
L 21 12.40625 
L 21 0 
L 10.6875 0 
z
" id="DejaVuSans-2e"/>
      </defs>
      <g transform="translate(28.334375 158.273011)scale(0.1 -0.1)">
       <use xlink:href="#DejaVuSans-30"/>
       <use x="63.623047" xlink:href="#DejaVuSans-2e"/>
       <use x="95.410156" xlink:href="#DejaVuSans-30"/>
       <use x="159.033203" xlink:href="#DejaVuSans-30"/>
      </g>
     </g>
    </g>
    <g id="ytick_2">
     <g id="line2d_11">
      <path clip-path="url(#pe4ed83f84b)" d="M 57.6 127.391024 
L 216.32 127.391024 
" style="fill:none;stroke:#b0b0b0;stroke-linecap:square;stroke-width:0.8;"/>
     </g>
     <g id="line2d_12">
      <g>
       <use style="stroke:#000000;stroke-width:0.8;" x="57.6" xlink:href="#m11ea074ec6" y="127.391024"/>
      </g>
     </g>
     <g id="text_6">
      <!-- 0.25 -->
      <defs>
       <path d="M 10.796875 72.90625 
L 49.515625 72.90625 
L 49.515625 64.59375 
L 19.828125 64.59375 
L 19.828125 46.734375 
Q 21.96875 47.46875 24.109375 47.828125 
Q 26.265625 48.1875 28.421875 48.1875 
Q 40.625 48.1875 47.75 41.5 
Q 54.890625 34.8125 54.890625 23.390625 
Q 54.890625 11.625 47.5625 5.09375 
Q 40.234375 -1.421875 26.90625 -1.421875 
Q 22.3125 -1.421875 17.546875 -0.640625 
Q 12.796875 0.140625 7.71875 1.703125 
L 7.71875 11.625 
Q 12.109375 9.234375 16.796875 8.0625 
Q 21.484375 6.890625 26.703125 6.890625 
Q 35.15625 6.890625 40.078125 11.328125 
Q 45.015625 15.765625 45.015625 23.390625 
Q 45.015625 31 40.078125 35.4375 
Q 35.15625 39.890625 26.703125 39.890625 
Q 22.75 39.890625 18.8125 39.015625 
Q 14.890625 38.140625 10.796875 36.28125 
z
" id="DejaVuSans-35"/>
      </defs>
      <g transform="translate(28.334375 131.190243)scale(0.1 -0.1)">
       <use xlink:href="#DejaVuSans-30"/>
       <use x="63.623047" xlink:href="#DejaVuSans-2e"/>
       <use x="95.410156" xlink:href="#DejaVuSans-32"/>
       <use x="159.033203" xlink:href="#DejaVuSans-35"/>
      </g>
     </g>
    </g>
    <g id="ytick_3">
     <g id="line2d_13">
      <path clip-path="url(#pe4ed83f84b)" d="M 57.6 100.308256 
L 216.32 100.308256 
" style="fill:none;stroke:#b0b0b0;stroke-linecap:square;stroke-width:0.8;"/>
     </g>
     <g id="line2d_14">
      <g>
       <use style="stroke:#000000;stroke-width:0.8;" x="57.6" xlink:href="#m11ea074ec6" y="100.308256"/>
      </g>
     </g>
     <g id="text_7">
      <!-- 0.50 -->
      <g transform="translate(28.334375 104.107475)scale(0.1 -0.1)">
       <use xlink:href="#DejaVuSans-30"/>
       <use x="63.623047" xlink:href="#DejaVuSans-2e"/>
       <use x="95.410156" xlink:href="#DejaVuSans-35"/>
       <use x="159.033203" xlink:href="#DejaVuSans-30"/>
      </g>
     </g>
    </g>
    <g id="ytick_4">
     <g id="line2d_15">
      <path clip-path="url(#pe4ed83f84b)" d="M 57.6 73.225488 
L 216.32 73.225488 
" style="fill:none;stroke:#b0b0b0;stroke-linecap:square;stroke-width:0.8;"/>
     </g>
     <g id="line2d_16">
      <g>
       <use style="stroke:#000000;stroke-width:0.8;" x="57.6" xlink:href="#m11ea074ec6" y="73.225488"/>
      </g>
     </g>
     <g id="text_8">
      <!-- 0.75 -->
      <defs>
       <path d="M 8.203125 72.90625 
L 55.078125 72.90625 
L 55.078125 68.703125 
L 28.609375 0 
L 18.3125 0 
L 43.21875 64.59375 
L 8.203125 64.59375 
z
" id="DejaVuSans-37"/>
      </defs>
      <g transform="translate(28.334375 77.024706)scale(0.1 -0.1)">
       <use xlink:href="#DejaVuSans-30"/>
       <use x="63.623047" xlink:href="#DejaVuSans-2e"/>
       <use x="95.410156" xlink:href="#DejaVuSans-37"/>
       <use x="159.033203" xlink:href="#DejaVuSans-35"/>
      </g>
     </g>
    </g>
    <g id="ytick_5">
     <g id="line2d_17">
      <path clip-path="url(#pe4ed83f84b)" d="M 57.6 46.14272 
L 216.32 46.14272 
" style="fill:none;stroke:#b0b0b0;stroke-linecap:square;stroke-width:0.8;"/>
     </g>
     <g id="line2d_18">
      <g>
       <use style="stroke:#000000;stroke-width:0.8;" x="57.6" xlink:href="#m11ea074ec6" y="46.14272"/>
      </g>
     </g>
     <g id="text_9">
      <!-- 1.00 -->
      <g transform="translate(28.334375 49.941938)scale(0.1 -0.1)">
       <use xlink:href="#DejaVuSans-31"/>
       <use x="63.623047" xlink:href="#DejaVuSans-2e"/>
       <use x="95.410156" xlink:href="#DejaVuSans-30"/>
       <use x="159.033203" xlink:href="#DejaVuSans-30"/>
      </g>
     </g>
    </g>
   </g>
   <g id="line2d_19">
    <path clip-path="url(#pe4ed83f84b)" d="M 64.814545 154.368 
L 65.297124 154.050624 
L 65.779702 154.226944 
L 66.26228 153.239551 
L 66.744859 150.524222 
L 68.192593 136.877045 
L 68.675172 130.141617 
L 69.15775 126.262575 
L 70.122907 116.318121 
L 70.605485 112.580134 
L 71.088063 107.008419 
L 71.570642 103.869921 
L 73.983533 84.933141 
L 74.466111 83.275732 
L 74.94869 79.643538 
L 76.396424 73.331278 
L 77.361581 69.840141 
L 77.844159 67.371659 
L 78.326738 66.207947 
L 78.809316 65.678987 
L 79.291894 64.092106 
L 79.774472 63.527882 
L 80.257051 61.447305 
L 80.739629 60.636232 
L 81.222207 60.389384 
L 81.704786 58.873032 
L 82.187364 58.485127 
L 82.669942 58.414599 
L 83.152521 57.004038 
L 83.635099 56.686662 
L 84.117677 56.792454 
L 84.600255 54.852933 
L 85.082834 55.452422 
L 85.565412 53.724485 
L 86.04799 55.029253 
L 86.530569 53.865541 
L 87.013147 53.865541 
L 87.495725 53.583428 
L 88.460882 52.384452 
L 88.94346 52.349188 
L 89.908617 51.679172 
L 90.391195 51.855492 
L 90.873773 51.502851 
L 91.356351 51.855492 
L 91.83893 51.185475 
L 92.321508 50.832835 
L 92.804086 51.185475 
L 94.251821 50.339139 
L 95.699556 50.26861 
L 96.182134 49.810178 
L 96.664713 50.233347 
L 97.147291 50.409667 
L 98.112448 49.880706 
L 98.595026 49.73965 
L 99.560182 49.633858 
L 100.042761 50.057026 
L 100.525339 49.422274 
L 101.007917 49.774914 
L 101.490496 49.281218 
L 101.973074 49.38701 
L 103.903387 49.316482 
L 104.385965 48.787522 
L 104.868544 49.140162 
L 105.351122 48.822786 
L 106.316279 49.140162 
L 106.798857 48.85805 
L 107.764013 48.681729 
L 108.246592 48.681729 
L 108.72917 48.505409 
L 109.694327 49.175426 
L 110.176905 48.258561 
L 110.659483 48.928578 
L 111.62464 48.399617 
L 112.107218 48.963842 
L 112.589796 48.293825 
L 113.072375 48.85805 
L 113.554953 48.117505 
L 114.037531 48.188033 
L 114.520109 48.505409 
L 115.002688 48.646465 
L 115.485266 48.611201 
L 115.967844 48.258561 
L 116.450423 48.787522 
L 116.933001 48.822785 
L 117.415579 48.646465 
L 117.898157 47.905921 
L 118.380736 47.835393 
L 118.863314 48.258561 
L 119.345892 48.152769 
L 119.828471 48.399617 
L 120.311049 48.434881 
L 120.793627 47.694337 
L 121.276206 48.434881 
L 121.758784 48.011713 
L 122.241362 48.011713 
L 122.72394 47.835393 
L 123.206519 48.329089 
L 123.689097 48.046977 
L 124.171675 48.046977 
L 124.654254 47.835393 
L 125.136832 48.223297 
L 126.101988 47.482752 
L 127.067145 48.434881 
L 127.549723 47.764865 
L 128.51488 47.659073 
L 129.480036 47.870657 
L 129.962615 47.341696 
L 130.445193 47.659073 
L 130.927771 48.611201 
L 131.41035 47.800129 
L 132.375506 47.976449 
L 132.858085 47.588545 
L 133.340663 47.800129 
L 133.823241 47.729601 
L 134.305819 47.941185 
L 134.788398 47.588545 
L 135.270976 48.011713 
L 135.753554 47.518017 
L 136.236133 47.659073 
L 136.718711 48.258561 
L 137.201289 47.835393 
L 137.683867 47.835393 
L 138.649024 47.341696 
L 139.131602 47.694337 
L 139.614181 48.188033 
L 140.579337 47.870657 
L 141.061915 47.835393 
L 141.544494 48.046977 
L 142.027072 47.941185 
L 142.992229 48.152769 
L 143.474807 47.623809 
L 144.439964 48.046977 
L 144.922542 47.764865 
L 145.40512 46.953792 
L 145.887698 47.870657 
L 146.370277 47.447489 
L 146.852855 47.694337 
L 147.818012 47.412225 
L 148.30059 47.623809 
L 148.783168 47.412225 
L 149.265746 47.976449 
L 149.748325 47.482753 
L 150.230903 47.764865 
L 150.713481 47.306432 
L 151.678638 47.482753 
L 152.161216 48.329089 
L 152.643794 47.412225 
L 153.126373 47.20064 
L 153.608951 47.588545 
L 154.574108 47.941185 
L 155.056686 47.376961 
L 155.539264 47.165376 
L 156.021843 47.623809 
L 156.504421 47.482753 
L 156.986999 47.694337 
L 157.469577 47.447488 
L 158.434734 47.905921 
L 158.917312 47.976449 
L 159.399891 47.729601 
L 160.847625 47.412224 
L 161.330204 47.764865 
L 162.777939 47.694337 
L 163.260517 47.412225 
L 163.743095 47.553281 
L 164.225673 47.976449 
L 164.708252 47.482753 
L 165.19083 47.623809 
L 165.673408 47.341696 
L 166.155987 47.800129 
L 166.638565 47.764865 
L 167.121143 47.094848 
L 167.603721 47.447489 
L 168.0863 48.117505 
L 168.568878 47.412225 
L 169.051456 47.729601 
L 169.534035 47.412225 
L 170.016613 47.341697 
L 170.499191 47.623809 
L 171.464348 47.271168 
L 171.946926 46.848 
L 172.912083 47.235904 
L 173.394661 47.447489 
L 173.877239 47.482753 
L 174.359818 47.694337 
L 175.324974 47.447488 
L 175.807552 47.02432 
L 176.290131 47.976449 
L 176.772709 47.271168 
L 177.255287 47.694337 
L 177.737866 47.02432 
L 178.220444 47.623809 
L 178.703022 47.271168 
L 179.1856 47.306432 
L 179.668179 47.02432 
L 180.150757 47.447488 
L 180.633335 47.588545 
L 181.115914 47.412225 
L 181.598492 47.764865 
L 182.08107 47.447489 
L 182.563649 47.271168 
L 183.528805 47.976449 
L 184.011383 47.447489 
L 184.493962 47.482753 
L 184.97654 47.235904 
L 185.459118 47.482753 
L 185.941697 47.306432 
L 186.906853 47.518017 
L 187.389431 47.271168 
L 188.354588 47.482753 
L 188.837166 47.518017 
L 189.319745 47.306432 
L 189.802323 47.835393 
L 190.284901 47.341696 
L 190.767479 47.447489 
L 191.250058 47.376961 
L 191.732636 47.447489 
L 192.215214 47.870657 
L 192.697793 47.306432 
L 193.180371 47.694337 
L 193.662949 47.130112 
L 194.628106 47.165376 
L 195.110684 47.553281 
L 195.593262 47.165376 
L 196.075841 47.165376 
L 196.558419 47.376961 
L 197.523576 47.518017 
L 198.006154 47.341696 
L 198.97131 47.271168 
L 199.453889 47.02432 
L 199.936467 47.20064 
L 200.419045 47.20064 
L 200.901624 47.623809 
L 201.384202 47.059584 
L 201.86678 46.883264 
L 202.349358 47.376961 
L 203.314515 47.130112 
L 203.797093 47.447489 
L 204.76225 47.870657 
L 205.244828 47.412224 
L 206.692563 47.412225 
L 207.65772 47.059584 
L 208.622876 47.623809 
L 209.105455 47.623809 
L 209.105455 47.623809 
" style="fill:none;stroke:#1f77b4;stroke-linecap:square;stroke-width:1.5;"/>
   </g>
   <g id="patch_3">
    <path d="M 57.6 159.744 
L 57.6 41.472 
" style="fill:none;stroke:#000000;stroke-linecap:square;stroke-linejoin:miter;stroke-width:0.8;"/>
   </g>
   <g id="patch_4">
    <path d="M 216.32 159.744 
L 216.32 41.472 
" style="fill:none;stroke:#000000;stroke-linecap:square;stroke-linejoin:miter;stroke-width:0.8;"/>
   </g>
   <g id="patch_5">
    <path d="M 57.6 159.744 
L 216.32 159.744 
" style="fill:none;stroke:#000000;stroke-linecap:square;stroke-linejoin:miter;stroke-width:0.8;"/>
   </g>
   <g id="patch_6">
    <path d="M 57.6 41.472 
L 216.32 41.472 
" style="fill:none;stroke:#000000;stroke-linecap:square;stroke-linejoin:miter;stroke-width:0.8;"/>
   </g>
   <g id="text_10">
    <!-- acc -->
    <defs>
     <path d="M 34.28125 27.484375 
Q 23.390625 27.484375 19.1875 25 
Q 14.984375 22.515625 14.984375 16.5 
Q 14.984375 11.71875 18.140625 8.90625 
Q 21.296875 6.109375 26.703125 6.109375 
Q 34.1875 6.109375 38.703125 11.40625 
Q 43.21875 16.703125 43.21875 25.484375 
L 43.21875 27.484375 
z
M 52.203125 31.203125 
L 52.203125 0 
L 43.21875 0 
L 43.21875 8.296875 
Q 40.140625 3.328125 35.546875 0.953125 
Q 30.953125 -1.421875 24.3125 -1.421875 
Q 15.921875 -1.421875 10.953125 3.296875 
Q 6 8.015625 6 15.921875 
Q 6 25.140625 12.171875 29.828125 
Q 18.359375 34.515625 30.609375 34.515625 
L 43.21875 34.515625 
L 43.21875 35.40625 
Q 43.21875 41.609375 39.140625 45 
Q 35.0625 48.390625 27.6875 48.390625 
Q 23 48.390625 18.546875 47.265625 
Q 14.109375 46.140625 10.015625 43.890625 
L 10.015625 52.203125 
Q 14.9375 54.109375 19.578125 55.046875 
Q 24.21875 56 28.609375 56 
Q 40.484375 56 46.34375 49.84375 
Q 52.203125 43.703125 52.203125 31.203125 
z
" id="DejaVuSans-61"/>
     <path d="M 48.78125 52.59375 
L 48.78125 44.1875 
Q 44.96875 46.296875 41.140625 47.34375 
Q 37.3125 48.390625 33.40625 48.390625 
Q 24.65625 48.390625 19.8125 42.84375 
Q 14.984375 37.3125 14.984375 27.296875 
Q 14.984375 17.28125 19.8125 11.734375 
Q 24.65625 6.203125 33.40625 6.203125 
Q 37.3125 6.203125 41.140625 7.25 
Q 44.96875 8.296875 48.78125 10.40625 
L 48.78125 2.09375 
Q 45.015625 0.34375 40.984375 -0.53125 
Q 36.96875 -1.421875 32.421875 -1.421875 
Q 20.0625 -1.421875 12.78125 6.34375 
Q 5.515625 14.109375 5.515625 27.296875 
Q 5.515625 40.671875 12.859375 48.328125 
Q 20.21875 56 33.015625 56 
Q 37.15625 56 41.109375 55.140625 
Q 45.0625 54.296875 48.78125 52.59375 
z
" id="DejaVuSans-63"/>
    </defs>
    <g transform="translate(126.685 35.472)scale(0.12 -0.12)">
     <use xlink:href="#DejaVuSans-61"/>
     <use x="61.279297" xlink:href="#DejaVuSans-63"/>
     <use x="116.259766" xlink:href="#DejaVuSans-63"/>
    </g>
   </g>
  </g>
  <g id="axes_2">
   <g id="patch_7">
    <path d="M 256 159.744 
L 414.72 159.744 
L 414.72 41.472 
L 256 41.472 
z
" style="fill:#ffffff;"/>
   </g>
   <g id="matplotlib.axis_3">
    <g id="xtick_5">
     <g id="line2d_20">
      <path clip-path="url(#p6ddc550cdd)" d="M 263.214545 159.744 
L 263.214545 41.472 
" style="fill:none;stroke:#b0b0b0;stroke-linecap:square;stroke-width:0.8;"/>
     </g>
     <g id="line2d_21">
      <g>
       <use style="stroke:#000000;stroke-width:0.8;" x="263.214545" xlink:href="#m5d64224b5e" y="159.744"/>
      </g>
     </g>
     <g id="text_11">
      <!-- 0 -->
      <g transform="translate(260.033295 174.342437)scale(0.1 -0.1)">
       <use xlink:href="#DejaVuSans-30"/>
      </g>
     </g>
    </g>
    <g id="xtick_6">
     <g id="line2d_22">
      <path clip-path="url(#p6ddc550cdd)" d="M 311.472375 159.744 
L 311.472375 41.472 
" style="fill:none;stroke:#b0b0b0;stroke-linecap:square;stroke-width:0.8;"/>
     </g>
     <g id="line2d_23">
      <g>
       <use style="stroke:#000000;stroke-width:0.8;" x="311.472375" xlink:href="#m5d64224b5e" y="159.744"/>
      </g>
     </g>
     <g id="text_12">
      <!-- 100 -->
      <g transform="translate(301.928625 174.342437)scale(0.1 -0.1)">
       <use xlink:href="#DejaVuSans-31"/>
       <use x="63.623047" xlink:href="#DejaVuSans-30"/>
       <use x="127.246094" xlink:href="#DejaVuSans-30"/>
      </g>
     </g>
    </g>
    <g id="xtick_7">
     <g id="line2d_24">
      <path clip-path="url(#p6ddc550cdd)" d="M 359.730204 159.744 
L 359.730204 41.472 
" style="fill:none;stroke:#b0b0b0;stroke-linecap:square;stroke-width:0.8;"/>
     </g>
     <g id="line2d_25">
      <g>
       <use style="stroke:#000000;stroke-width:0.8;" x="359.730204" xlink:href="#m5d64224b5e" y="159.744"/>
      </g>
     </g>
     <g id="text_13">
      <!-- 200 -->
      <g transform="translate(350.186454 174.342437)scale(0.1 -0.1)">
       <use xlink:href="#DejaVuSans-32"/>
       <use x="63.623047" xlink:href="#DejaVuSans-30"/>
       <use x="127.246094" xlink:href="#DejaVuSans-30"/>
      </g>
     </g>
    </g>
    <g id="xtick_8">
     <g id="line2d_26">
      <path clip-path="url(#p6ddc550cdd)" d="M 407.988033 159.744 
L 407.988033 41.472 
" style="fill:none;stroke:#b0b0b0;stroke-linecap:square;stroke-width:0.8;"/>
     </g>
     <g id="line2d_27">
      <g>
       <use style="stroke:#000000;stroke-width:0.8;" x="407.988033" xlink:href="#m5d64224b5e" y="159.744"/>
      </g>
     </g>
     <g id="text_14">
      <!-- 300 -->
      <g transform="translate(398.444283 174.342437)scale(0.1 -0.1)">
       <use xlink:href="#DejaVuSans-33"/>
       <use x="63.623047" xlink:href="#DejaVuSans-30"/>
       <use x="127.246094" xlink:href="#DejaVuSans-30"/>
      </g>
     </g>
    </g>
   </g>
   <g id="matplotlib.axis_4">
    <g id="ytick_6">
     <g id="line2d_28">
      <path clip-path="url(#p6ddc550cdd)" d="M 256 155.020094 
L 414.72 155.020094 
" style="fill:none;stroke:#b0b0b0;stroke-linecap:square;stroke-width:0.8;"/>
     </g>
     <g id="line2d_29">
      <g>
       <use style="stroke:#000000;stroke-width:0.8;" x="256" xlink:href="#m11ea074ec6" y="155.020094"/>
      </g>
     </g>
     <g id="text_15">
      <!-- 0 -->
      <g transform="translate(242.6375 158.819313)scale(0.1 -0.1)">
       <use xlink:href="#DejaVuSans-30"/>
      </g>
     </g>
    </g>
    <g id="ytick_7">
     <g id="line2d_30">
      <path clip-path="url(#p6ddc550cdd)" d="M 256 116.042832 
L 414.72 116.042832 
" style="fill:none;stroke:#b0b0b0;stroke-linecap:square;stroke-width:0.8;"/>
     </g>
     <g id="line2d_31">
      <g>
       <use style="stroke:#000000;stroke-width:0.8;" x="256" xlink:href="#m11ea074ec6" y="116.042832"/>
      </g>
     </g>
     <g id="text_16">
      <!-- 2 -->
      <g transform="translate(242.6375 119.842051)scale(0.1 -0.1)">
       <use xlink:href="#DejaVuSans-32"/>
      </g>
     </g>
    </g>
    <g id="ytick_8">
     <g id="line2d_32">
      <path clip-path="url(#p6ddc550cdd)" d="M 256 77.06557 
L 414.72 77.06557 
" style="fill:none;stroke:#b0b0b0;stroke-linecap:square;stroke-width:0.8;"/>
     </g>
     <g id="line2d_33">
      <g>
       <use style="stroke:#000000;stroke-width:0.8;" x="256" xlink:href="#m11ea074ec6" y="77.06557"/>
      </g>
     </g>
     <g id="text_17">
      <!-- 4 -->
      <defs>
       <path d="M 37.796875 64.3125 
L 12.890625 25.390625 
L 37.796875 25.390625 
z
M 35.203125 72.90625 
L 47.609375 72.90625 
L 47.609375 25.390625 
L 58.015625 25.390625 
L 58.015625 17.1875 
L 47.609375 17.1875 
L 47.609375 0 
L 37.796875 0 
L 37.796875 17.1875 
L 4.890625 17.1875 
L 4.890625 26.703125 
z
" id="DejaVuSans-34"/>
      </defs>
      <g transform="translate(242.6375 80.864789)scale(0.1 -0.1)">
       <use xlink:href="#DejaVuSans-34"/>
      </g>
     </g>
    </g>
   </g>
   <g id="line2d_34">
    <path clip-path="url(#p6ddc550cdd)" d="M 263.214545 46.848 
L 263.697124 46.873005 
L 264.179702 47.0358 
L 264.66228 51.396253 
L 265.627437 77.198456 
L 266.592593 91.089213 
L 267.55775 101.2314 
L 269.005485 112.683157 
L 269.488063 115.874268 
L 269.970642 118.277318 
L 270.935798 123.628066 
L 272.383533 130.908974 
L 273.34869 134.387349 
L 274.796424 138.759205 
L 276.726738 143.483228 
L 277.691894 144.763605 
L 278.657051 146.258397 
L 279.139629 146.43584 
L 280.104786 147.605641 
L 280.587364 147.867088 
L 281.069942 148.552869 
L 281.552521 148.720868 
L 282.035099 149.363451 
L 282.517677 149.003932 
L 283.000255 149.869993 
L 283.482834 149.723578 
L 283.965412 150.666554 
L 284.44799 150.207176 
L 284.930569 150.482944 
L 285.413147 150.96217 
L 286.378303 150.899984 
L 286.860882 151.441331 
L 287.34346 151.314752 
L 287.826038 151.353479 
L 288.308617 152.036941 
L 289.756351 151.736968 
L 290.23893 152.115376 
L 290.721508 152.066375 
L 291.686665 152.501102 
L 293.1344 152.50115 
L 294.099556 152.20934 
L 294.582134 152.611404 
L 295.064713 152.506795 
L 295.547291 152.641858 
L 296.029869 152.370839 
L 296.512448 152.780515 
L 296.995026 152.679809 
L 297.960182 153.020983 
L 298.442761 152.465487 
L 298.925339 153.221441 
L 299.407917 152.914054 
L 299.890496 153.174261 
L 300.373074 153.087192 
L 300.855652 152.880563 
L 301.33823 153.349276 
L 302.303387 153.24342 
L 303.268544 152.748827 
L 303.751122 153.436789 
L 304.2337 153.421287 
L 304.716279 153.196262 
L 305.198857 153.524281 
L 305.681435 153.159292 
L 306.164013 153.416678 
L 306.646592 153.319498 
L 307.12917 153.525384 
L 307.611748 153.226404 
L 308.094327 153.221011 
L 308.576905 153.437595 
L 309.059483 153.078583 
L 309.542061 153.471511 
L 310.02464 153.456606 
L 310.507218 153.266969 
L 311.472375 153.296605 
L 311.954953 153.813034 
L 312.437531 152.960124 
L 312.920109 153.329013 
L 313.402688 153.186642 
L 313.885266 153.602958 
L 314.850423 153.378172 
L 315.333001 153.490021 
L 315.815579 152.536474 
L 316.298157 153.620409 
L 317.745892 153.698293 
L 318.228471 153.535503 
L 318.711049 153.525283 
L 319.193627 153.801941 
L 319.676206 153.712585 
L 320.158784 153.809754 
L 320.641362 153.622499 
L 321.12394 153.931898 
L 321.606519 153.607724 
L 322.089097 153.491669 
L 322.571675 153.68851 
L 323.054254 153.540145 
L 323.536832 153.619962 
L 324.01941 153.930596 
L 324.501988 153.972732 
L 324.984567 153.118821 
L 325.467145 153.182835 
L 325.949723 153.699255 
L 326.432302 154.042872 
L 327.397458 153.927647 
L 327.880036 153.769819 
L 328.362615 154.124545 
L 328.845193 153.654471 
L 329.327771 152.943806 
L 329.81035 153.945936 
L 330.775506 153.534914 
L 331.258085 153.731893 
L 332.705819 153.227241 
L 333.188398 154.210727 
L 333.670976 153.320972 
L 334.153554 153.887499 
L 334.636133 153.841833 
L 335.118711 153.616732 
L 336.083867 153.51969 
L 336.566446 153.921087 
L 337.049024 153.942449 
L 337.531602 153.578819 
L 338.014181 153.444542 
L 338.496759 153.613872 
L 338.979337 153.4575 
L 339.461915 153.106611 
L 339.944494 153.599263 
L 340.427072 153.595553 
L 340.90965 153.70696 
L 341.392229 153.171029 
L 341.874807 153.809065 
L 342.839964 153.698356 
L 343.322542 153.81677 
L 343.80512 154.254718 
L 344.287698 153.807511 
L 344.770277 153.971844 
L 345.252855 153.694172 
L 345.735433 153.830827 
L 346.218012 154.220777 
L 346.70059 153.457553 
L 347.183168 154.02856 
L 347.665746 153.753226 
L 348.148325 153.719561 
L 348.630903 153.475412 
L 349.113481 154.039333 
L 349.59606 153.829966 
L 350.078638 153.984242 
L 350.561216 153.17433 
L 351.043794 153.397186 
L 351.526373 154.254006 
L 352.008951 153.875953 
L 352.491529 153.262875 
L 352.974108 153.031497 
L 353.456686 154.092599 
L 353.939264 154.198481 
L 354.904421 153.715397 
L 355.386999 153.867679 
L 356.352156 154.005436 
L 356.834734 153.056808 
L 357.317312 153.602455 
L 358.282469 153.813838 
L 358.765047 153.629904 
L 359.247625 153.816712 
L 359.730204 153.517861 
L 360.212782 153.615166 
L 360.69536 153.505654 
L 361.177939 153.637833 
L 362.143095 153.551719 
L 362.625673 153.086516 
L 363.108252 153.462763 
L 363.59083 153.513214 
L 364.073408 153.194605 
L 364.555987 153.560427 
L 365.038565 153.187621 
L 365.521143 154.177314 
L 366.003721 153.819886 
L 366.4863 153.243343 
L 366.968878 153.620481 
L 367.451456 153.336332 
L 367.934035 153.716743 
L 368.416613 153.816438 
L 368.899191 153.174452 
L 369.38177 153.833157 
L 369.864348 153.976391 
L 370.346926 154.368 
L 371.312083 153.76696 
L 371.794661 153.986482 
L 372.277239 153.938659 
L 372.759818 153.302743 
L 373.242396 152.894256 
L 373.724974 153.342731 
L 374.207552 154.231247 
L 374.690131 152.871496 
L 375.172709 153.7211 
L 375.655287 153.279947 
L 376.137866 154.090862 
L 376.620444 153.296902 
L 377.5856 154.092191 
L 378.068179 154.123864 
L 378.550757 153.670155 
L 379.033335 153.38585 
L 379.515914 153.484018 
L 379.998492 153.226642 
L 380.48107 153.569381 
L 381.446227 153.512242 
L 381.928805 153.073827 
L 382.411383 153.687593 
L 382.893962 153.547358 
L 383.37654 153.591768 
L 383.859118 153.444841 
L 384.341697 153.708236 
L 384.824275 153.411948 
L 385.306853 153.647543 
L 385.789431 153.244937 
L 386.27201 153.452209 
L 386.754588 153.13944 
L 387.237166 153.162718 
L 387.719745 153.622734 
L 388.202323 152.915144 
L 388.684901 153.533935 
L 389.167479 153.270968 
L 389.650058 153.290471 
L 390.132636 153.530267 
L 390.615214 152.749459 
L 391.097793 153.542412 
L 391.580371 153.393529 
L 392.062949 153.545301 
L 392.545528 154.036122 
L 393.028106 154.067137 
L 393.510684 153.416506 
L 393.993262 154.017724 
L 394.475841 153.757919 
L 394.958419 153.710475 
L 395.440997 153.993375 
L 395.923576 153.427869 
L 396.888732 153.81819 
L 397.37131 153.624894 
L 397.853889 154.112667 
L 398.336467 153.516739 
L 398.819045 153.977599 
L 399.301624 153.274024 
L 399.784202 154.051803 
L 400.26678 154.140106 
L 400.749358 153.462466 
L 401.231937 153.647199 
L 401.714515 154.183519 
L 402.197093 153.481475 
L 402.679672 153.356019 
L 403.16225 152.957409 
L 403.644828 153.486867 
L 404.127407 153.637522 
L 405.575141 153.638091 
L 406.05772 153.773521 
L 406.540298 153.528485 
L 407.022876 153.120421 
L 407.505455 153.374569 
L 407.505455 153.374569 
" style="fill:none;stroke:#1f77b4;stroke-linecap:square;stroke-width:1.5;"/>
   </g>
   <g id="patch_8">
    <path d="M 256 159.744 
L 256 41.472 
" style="fill:none;stroke:#000000;stroke-linecap:square;stroke-linejoin:miter;stroke-width:0.8;"/>
   </g>
   <g id="patch_9">
    <path d="M 414.72 159.744 
L 414.72 41.472 
" style="fill:none;stroke:#000000;stroke-linecap:square;stroke-linejoin:miter;stroke-width:0.8;"/>
   </g>
   <g id="patch_10">
    <path d="M 256 159.744 
L 414.72 159.744 
" style="fill:none;stroke:#000000;stroke-linecap:square;stroke-linejoin:miter;stroke-width:0.8;"/>
   </g>
   <g id="patch_11">
    <path d="M 256 41.472 
L 414.72 41.472 
" style="fill:none;stroke:#000000;stroke-linecap:square;stroke-linejoin:miter;stroke-width:0.8;"/>
   </g>
   <g id="text_18">
    <!-- loss -->
    <defs>
     <path d="M 9.421875 75.984375 
L 18.40625 75.984375 
L 18.40625 0 
L 9.421875 0 
z
" id="DejaVuSans-6c"/>
     <path d="M 30.609375 48.390625 
Q 23.390625 48.390625 19.1875 42.75 
Q 14.984375 37.109375 14.984375 27.296875 
Q 14.984375 17.484375 19.15625 11.84375 
Q 23.34375 6.203125 30.609375 6.203125 
Q 37.796875 6.203125 41.984375 11.859375 
Q 46.1875 17.53125 46.1875 27.296875 
Q 46.1875 37.015625 41.984375 42.703125 
Q 37.796875 48.390625 30.609375 48.390625 
z
M 30.609375 56 
Q 42.328125 56 49.015625 48.375 
Q 55.71875 40.765625 55.71875 27.296875 
Q 55.71875 13.875 49.015625 6.21875 
Q 42.328125 -1.421875 30.609375 -1.421875 
Q 18.84375 -1.421875 12.171875 6.21875 
Q 5.515625 13.875 5.515625 27.296875 
Q 5.515625 40.765625 12.171875 48.375 
Q 18.84375 56 30.609375 56 
z
" id="DejaVuSans-6f"/>
     <path d="M 44.28125 53.078125 
L 44.28125 44.578125 
Q 40.484375 46.53125 36.375 47.5 
Q 32.28125 48.484375 27.875 48.484375 
Q 21.1875 48.484375 17.84375 46.4375 
Q 14.5 44.390625 14.5 40.28125 
Q 14.5 37.15625 16.890625 35.375 
Q 19.28125 33.59375 26.515625 31.984375 
L 29.59375 31.296875 
Q 39.15625 29.25 43.1875 25.515625 
Q 47.21875 21.78125 47.21875 15.09375 
Q 47.21875 7.46875 41.1875 3.015625 
Q 35.15625 -1.421875 24.609375 -1.421875 
Q 20.21875 -1.421875 15.453125 -0.5625 
Q 10.6875 0.296875 5.421875 2 
L 5.421875 11.28125 
Q 10.40625 8.6875 15.234375 7.390625 
Q 20.0625 6.109375 24.8125 6.109375 
Q 31.15625 6.109375 34.5625 8.28125 
Q 37.984375 10.453125 37.984375 14.40625 
Q 37.984375 18.0625 35.515625 20.015625 
Q 33.0625 21.96875 24.703125 23.78125 
L 21.578125 24.515625 
Q 13.234375 26.265625 9.515625 29.90625 
Q 5.8125 33.546875 5.8125 39.890625 
Q 5.8125 47.609375 11.28125 51.796875 
Q 16.75 56 26.8125 56 
Q 31.78125 56 36.171875 55.265625 
Q 40.578125 54.546875 44.28125 53.078125 
z
" id="DejaVuSans-73"/>
    </defs>
    <g transform="translate(323.770625 35.472)scale(0.12 -0.12)">
     <use xlink:href="#DejaVuSans-6c"/>
     <use x="27.783203" xlink:href="#DejaVuSans-6f"/>
     <use x="88.964844" xlink:href="#DejaVuSans-73"/>
     <use x="141.064453" xlink:href="#DejaVuSans-73"/>
    </g>
   </g>
  </g>
  <g id="axes_3">
   <g id="patch_12">
    <path d="M 57.6 307.584 
L 216.32 307.584 
L 216.32 189.312 
L 57.6 189.312 
z
" style="fill:#ffffff;"/>
   </g>
   <g id="matplotlib.axis_5">
    <g id="xtick_9">
     <g id="line2d_35">
      <path clip-path="url(#p2794cb01e6)" d="M 64.814545 307.584 
L 64.814545 189.312 
" style="fill:none;stroke:#b0b0b0;stroke-linecap:square;stroke-width:0.8;"/>
     </g>
     <g id="line2d_36">
      <g>
       <use style="stroke:#000000;stroke-width:0.8;" x="64.814545" xlink:href="#m5d64224b5e" y="307.584"/>
      </g>
     </g>
     <g id="text_19">
      <!-- 0 -->
      <g transform="translate(61.633295 322.182437)scale(0.1 -0.1)">
       <use xlink:href="#DejaVuSans-30"/>
      </g>
     </g>
    </g>
    <g id="xtick_10">
     <g id="line2d_37">
      <path clip-path="url(#p2794cb01e6)" d="M 113.072375 307.584 
L 113.072375 189.312 
" style="fill:none;stroke:#b0b0b0;stroke-linecap:square;stroke-width:0.8;"/>
     </g>
     <g id="line2d_38">
      <g>
       <use style="stroke:#000000;stroke-width:0.8;" x="113.072375" xlink:href="#m5d64224b5e" y="307.584"/>
      </g>
     </g>
     <g id="text_20">
      <!-- 100 -->
      <g transform="translate(103.528625 322.182437)scale(0.1 -0.1)">
       <use xlink:href="#DejaVuSans-31"/>
       <use x="63.623047" xlink:href="#DejaVuSans-30"/>
       <use x="127.246094" xlink:href="#DejaVuSans-30"/>
      </g>
     </g>
    </g>
    <g id="xtick_11">
     <g id="line2d_39">
      <path clip-path="url(#p2794cb01e6)" d="M 161.330204 307.584 
L 161.330204 189.312 
" style="fill:none;stroke:#b0b0b0;stroke-linecap:square;stroke-width:0.8;"/>
     </g>
     <g id="line2d_40">
      <g>
       <use style="stroke:#000000;stroke-width:0.8;" x="161.330204" xlink:href="#m5d64224b5e" y="307.584"/>
      </g>
     </g>
     <g id="text_21">
      <!-- 200 -->
      <g transform="translate(151.786454 322.182437)scale(0.1 -0.1)">
       <use xlink:href="#DejaVuSans-32"/>
       <use x="63.623047" xlink:href="#DejaVuSans-30"/>
       <use x="127.246094" xlink:href="#DejaVuSans-30"/>
      </g>
     </g>
    </g>
    <g id="xtick_12">
     <g id="line2d_41">
      <path clip-path="url(#p2794cb01e6)" d="M 209.588033 307.584 
L 209.588033 189.312 
" style="fill:none;stroke:#b0b0b0;stroke-linecap:square;stroke-width:0.8;"/>
     </g>
     <g id="line2d_42">
      <g>
       <use style="stroke:#000000;stroke-width:0.8;" x="209.588033" xlink:href="#m5d64224b5e" y="307.584"/>
      </g>
     </g>
     <g id="text_22">
      <!-- 300 -->
      <g transform="translate(200.044283 322.182437)scale(0.1 -0.1)">
       <use xlink:href="#DejaVuSans-33"/>
       <use x="63.623047" xlink:href="#DejaVuSans-30"/>
       <use x="127.246094" xlink:href="#DejaVuSans-30"/>
      </g>
     </g>
    </g>
   </g>
   <g id="matplotlib.axis_6">
    <g id="ytick_9">
     <g id="line2d_43">
      <path clip-path="url(#p2794cb01e6)" d="M 57.6 302.646857 
L 216.32 302.646857 
" style="fill:none;stroke:#b0b0b0;stroke-linecap:square;stroke-width:0.8;"/>
     </g>
     <g id="line2d_44">
      <g>
       <use style="stroke:#000000;stroke-width:0.8;" x="57.6" xlink:href="#m11ea074ec6" y="302.646857"/>
      </g>
     </g>
     <g id="text_23">
      <!-- 0.00 -->
      <g transform="translate(28.334375 306.446076)scale(0.1 -0.1)">
       <use xlink:href="#DejaVuSans-30"/>
       <use x="63.623047" xlink:href="#DejaVuSans-2e"/>
       <use x="95.410156" xlink:href="#DejaVuSans-30"/>
       <use x="159.033203" xlink:href="#DejaVuSans-30"/>
      </g>
     </g>
    </g>
    <g id="ytick_10">
     <g id="line2d_45">
      <path clip-path="url(#p2794cb01e6)" d="M 57.6 274.56 
L 216.32 274.56 
" style="fill:none;stroke:#b0b0b0;stroke-linecap:square;stroke-width:0.8;"/>
     </g>
     <g id="line2d_46">
      <g>
       <use style="stroke:#000000;stroke-width:0.8;" x="57.6" xlink:href="#m11ea074ec6" y="274.56"/>
      </g>
     </g>
     <g id="text_24">
      <!-- 0.25 -->
      <g transform="translate(28.334375 278.359219)scale(0.1 -0.1)">
       <use xlink:href="#DejaVuSans-30"/>
       <use x="63.623047" xlink:href="#DejaVuSans-2e"/>
       <use x="95.410156" xlink:href="#DejaVuSans-32"/>
       <use x="159.033203" xlink:href="#DejaVuSans-35"/>
      </g>
     </g>
    </g>
    <g id="ytick_11">
     <g id="line2d_47">
      <path clip-path="url(#p2794cb01e6)" d="M 57.6 246.473142 
L 216.32 246.473142 
" style="fill:none;stroke:#b0b0b0;stroke-linecap:square;stroke-width:0.8;"/>
     </g>
     <g id="line2d_48">
      <g>
       <use style="stroke:#000000;stroke-width:0.8;" x="57.6" xlink:href="#m11ea074ec6" y="246.473142"/>
      </g>
     </g>
     <g id="text_25">
      <!-- 0.50 -->
      <g transform="translate(28.334375 250.272361)scale(0.1 -0.1)">
       <use xlink:href="#DejaVuSans-30"/>
       <use x="63.623047" xlink:href="#DejaVuSans-2e"/>
       <use x="95.410156" xlink:href="#DejaVuSans-35"/>
       <use x="159.033203" xlink:href="#DejaVuSans-30"/>
      </g>
     </g>
    </g>
    <g id="ytick_12">
     <g id="line2d_49">
      <path clip-path="url(#p2794cb01e6)" d="M 57.6 218.386285 
L 216.32 218.386285 
" style="fill:none;stroke:#b0b0b0;stroke-linecap:square;stroke-width:0.8;"/>
     </g>
     <g id="line2d_50">
      <g>
       <use style="stroke:#000000;stroke-width:0.8;" x="57.6" xlink:href="#m11ea074ec6" y="218.386285"/>
      </g>
     </g>
     <g id="text_26">
      <!-- 0.75 -->
      <g transform="translate(28.334375 222.185504)scale(0.1 -0.1)">
       <use xlink:href="#DejaVuSans-30"/>
       <use x="63.623047" xlink:href="#DejaVuSans-2e"/>
       <use x="95.410156" xlink:href="#DejaVuSans-37"/>
       <use x="159.033203" xlink:href="#DejaVuSans-35"/>
      </g>
     </g>
    </g>
    <g id="ytick_13">
     <g id="line2d_51">
      <path clip-path="url(#p2794cb01e6)" d="M 57.6 190.299428 
L 216.32 190.299428 
" style="fill:none;stroke:#b0b0b0;stroke-linecap:square;stroke-width:0.8;"/>
     </g>
     <g id="line2d_52">
      <g>
       <use style="stroke:#000000;stroke-width:0.8;" x="57.6" xlink:href="#m11ea074ec6" y="190.299428"/>
      </g>
     </g>
     <g id="text_27">
      <!-- 1.00 -->
      <g transform="translate(28.334375 194.098646)scale(0.1 -0.1)">
       <use xlink:href="#DejaVuSans-31"/>
       <use x="63.623047" xlink:href="#DejaVuSans-2e"/>
       <use x="95.410156" xlink:href="#DejaVuSans-30"/>
       <use x="159.033203" xlink:href="#DejaVuSans-30"/>
      </g>
     </g>
    </g>
   </g>
   <g id="line2d_53">
    <path clip-path="url(#p2794cb01e6)" d="M 64.814545 302.208 
L 65.779702 301.330286 
L 66.26228 300.013714 
L 66.744859 295.625143 
L 67.710015 283.776 
L 68.192593 284.214856 
L 68.675172 282.459428 
L 69.15775 282.898285 
L 69.640328 270.171427 
L 70.122907 270.610285 
L 70.605485 259.199999 
L 71.088063 264.466285 
L 71.570642 256.127999 
L 72.05322 250.422856 
L 72.535798 269.293714 
L 73.018376 240.329141 
L 73.500955 243.839999 
L 73.983533 237.695998 
L 74.466111 237.695998 
L 74.94869 227.602283 
L 75.431268 228.918855 
L 75.913846 232.86857 
L 76.396424 246.034284 
L 77.361581 218.82514 
L 77.844159 217.947427 
L 78.326738 224.530283 
L 78.809316 216.191998 
L 79.291894 214.436569 
L 79.774472 211.36457 
L 80.739629 222.335997 
L 81.222207 207.414857 
L 81.704786 208.29257 
L 82.187364 210.925713 
L 82.669942 207.853713 
L 83.152521 211.803427 
L 83.635099 243.839998 
L 84.117677 213.119998 
L 84.600255 209.609142 
L 85.082834 212.681141 
L 85.565412 207.853713 
L 86.04799 219.702854 
L 86.530569 205.659428 
L 87.013147 225.407998 
L 87.495725 252.617142 
L 87.978303 204.342855 
L 88.460882 218.825142 
L 89.426038 205.220571 
L 89.908617 204.781714 
L 90.391195 213.119998 
L 90.873773 207.853713 
L 91.356351 212.681141 
L 91.83893 220.141711 
L 92.321508 206.098285 
L 92.804086 209.609142 
L 93.286665 203.465142 
L 93.769243 203.026285 
L 94.251821 204.342856 
L 94.7344 202.587427 
L 95.216978 204.781714 
L 95.699556 208.731427 
L 96.182134 218.386283 
L 96.664713 203.903999 
L 97.147291 202.587427 
L 97.629869 206.098284 
L 98.595026 201.709715 
L 99.077604 214.43657 
L 99.560182 202.148571 
L 100.042761 208.731428 
L 100.525339 203.465142 
L 101.007917 206.098286 
L 101.490496 211.803428 
L 101.973074 201.270857 
L 102.455652 200.832 
L 102.93823 199.515428 
L 103.420809 201.270857 
L 103.903387 202.148572 
L 104.868544 207.414857 
L 105.351122 203.026286 
L 105.8337 209.170284 
L 106.316279 199.515429 
L 106.798857 204.342856 
L 107.281435 201.270857 
L 107.764013 200.831999 
L 108.246592 197.321143 
L 108.72917 204.342856 
L 109.211748 200.393143 
L 109.694327 205.659427 
L 110.176905 198.198857 
L 111.142061 201.709713 
L 111.62464 199.954285 
L 112.107218 205.22057 
L 112.589796 199.954285 
L 113.072375 199.515428 
L 113.554953 200.393142 
L 114.037531 202.587428 
L 114.520109 197.759999 
L 115.002688 205.22057 
L 115.967844 199.515429 
L 116.450423 202.148571 
L 116.933001 253.494856 
L 117.415579 215.314283 
L 117.898157 200.832 
L 118.380736 202.148571 
L 118.863314 201.709714 
L 119.345892 200.832 
L 119.828471 200.393142 
L 120.311049 199.515429 
L 120.793627 205.22057 
L 121.276206 198.637714 
L 121.758784 199.076571 
L 122.241362 203.465141 
L 122.72394 199.954285 
L 123.206519 198.198857 
L 123.689097 206.098284 
L 124.171675 205.659428 
L 124.654254 201.270856 
L 125.136832 201.270857 
L 125.61941 199.515429 
L 126.101988 200.393142 
L 126.584567 197.759999 
L 127.067145 199.515428 
L 127.549723 199.954285 
L 128.032302 200.831999 
L 128.51488 199.954286 
L 128.997458 199.515428 
L 129.480036 206.537142 
L 129.962615 198.198857 
L 130.445193 198.637713 
L 130.927771 198.198857 
L 131.41035 200.831999 
L 131.892928 199.515429 
L 132.375506 202.148571 
L 133.340663 201.270857 
L 133.823241 198.637714 
L 134.305819 198.637715 
L 134.788398 197.76 
L 135.270976 202.148571 
L 135.753554 211.364569 
L 136.236133 199.515428 
L 136.718711 202.587428 
L 137.201289 196.443429 
L 137.683867 200.393142 
L 138.166446 199.515429 
L 138.649024 199.515428 
L 139.131602 199.954285 
L 139.614181 202.587428 
L 140.096759 200.393143 
L 140.579337 196.882286 
L 141.061915 198.198856 
L 141.544494 197.76 
L 142.027072 196.443429 
L 142.50965 199.954285 
L 142.992229 201.709714 
L 143.474807 196.443428 
L 143.957385 199.076571 
L 144.439964 199.515428 
L 144.922542 203.026285 
L 145.40512 200.393142 
L 145.887698 199.954284 
L 146.370277 199.076571 
L 146.852855 215.753141 
L 147.335433 199.515428 
L 147.818012 206.098286 
L 148.30059 198.637714 
L 148.783168 198.637714 
L 149.265746 197.321142 
L 149.748325 198.637714 
L 150.230903 203.903999 
L 150.713481 198.637714 
L 151.19606 199.515428 
L 151.678638 199.515429 
L 152.161216 200.393143 
L 152.643794 200.393143 
L 153.126373 197.76 
L 153.608951 198.198857 
L 154.091529 199.515428 
L 154.574108 201.270856 
L 155.056686 195.565714 
L 155.539264 200.831999 
L 156.021843 197.321143 
L 156.986999 205.659427 
L 157.469577 201.270857 
L 157.952156 199.076571 
L 158.434734 203.465142 
L 158.917312 199.954285 
L 159.399891 198.637715 
L 159.882469 202.148571 
L 160.365047 202.148571 
L 160.847625 199.954285 
L 161.330204 198.637714 
L 161.812782 198.637714 
L 162.29536 200.832 
L 162.777939 199.07657 
L 163.260517 199.076571 
L 163.743095 198.198857 
L 164.225673 201.709713 
L 164.708252 196.882286 
L 165.673408 196.882286 
L 166.155987 201.709713 
L 166.638565 195.565714 
L 167.121143 197.759999 
L 167.603721 201.270856 
L 168.0863 197.76 
L 168.568878 197.321143 
L 169.051456 197.76 
L 169.534035 197.76 
L 170.016613 196.882286 
L 170.499191 197.76 
L 170.98177 196.004572 
L 171.464348 195.565714 
L 171.946926 197.76 
L 172.429504 201.270857 
L 172.912083 201.709714 
L 173.394661 196.443428 
L 173.877239 196.443428 
L 174.359818 194.688 
L 174.842396 198.198856 
L 175.324974 199.076571 
L 175.807552 197.76 
L 176.290131 196.004571 
L 176.772709 196.004571 
L 177.255287 203.903999 
L 177.737866 196.882286 
L 178.220444 197.76 
L 178.703022 197.321143 
L 179.1856 196.004571 
L 179.668179 196.882286 
L 180.150757 198.637714 
L 180.633335 197.76 
L 181.115914 197.76 
L 181.598492 197.321142 
L 182.08107 196.004571 
L 182.563649 199.954286 
L 183.046227 198.198856 
L 183.528805 198.198857 
L 184.011383 199.515429 
L 184.493962 199.07657 
L 184.97654 201.270857 
L 185.459118 197.321143 
L 185.941697 198.637714 
L 186.424275 196.004572 
L 186.906853 198.198857 
L 187.389431 196.882285 
L 187.87201 205.659428 
L 188.354588 196.882286 
L 188.837166 196.882285 
L 189.319745 200.393143 
L 189.802323 196.443429 
L 190.284901 198.198857 
L 190.767479 195.565714 
L 191.250058 199.954285 
L 191.732636 202.587428 
L 192.215214 198.637714 
L 192.697793 196.004571 
L 193.180371 197.321143 
L 193.662949 197.76 
L 194.145528 198.637714 
L 194.628106 196.443428 
L 195.110684 196.443428 
L 195.593262 201.709714 
L 196.075841 199.954285 
L 196.558419 196.882285 
L 197.523576 204.781713 
L 198.006154 199.076572 
L 198.488732 198.637713 
L 199.453889 198.637714 
L 199.936467 196.882285 
L 200.419045 196.004572 
L 200.901624 195.565714 
L 201.384202 200.831999 
L 201.86678 197.76 
L 202.349358 197.321143 
L 202.831937 205.659428 
L 203.314515 196.882285 
L 203.797093 203.465141 
L 204.279672 199.076571 
L 204.76225 199.954285 
L 205.244828 196.004571 
L 205.727407 197.76 
L 206.209985 196.004571 
L 206.692563 199.515428 
L 207.175141 197.76 
L 207.65772 202.587428 
L 208.622876 197.760001 
L 209.105455 206.098284 
L 209.105455 206.098284 
" style="fill:none;stroke:#1f77b4;stroke-linecap:square;stroke-width:1.5;"/>
   </g>
   <g id="patch_13">
    <path d="M 57.6 307.584 
L 57.6 189.312 
" style="fill:none;stroke:#000000;stroke-linecap:square;stroke-linejoin:miter;stroke-width:0.8;"/>
   </g>
   <g id="patch_14">
    <path d="M 216.32 307.584 
L 216.32 189.312 
" style="fill:none;stroke:#000000;stroke-linecap:square;stroke-linejoin:miter;stroke-width:0.8;"/>
   </g>
   <g id="patch_15">
    <path d="M 57.6 307.584 
L 216.32 307.584 
" style="fill:none;stroke:#000000;stroke-linecap:square;stroke-linejoin:miter;stroke-width:0.8;"/>
   </g>
   <g id="patch_16">
    <path d="M 57.6 189.312 
L 216.32 189.312 
" style="fill:none;stroke:#000000;stroke-linecap:square;stroke-linejoin:miter;stroke-width:0.8;"/>
   </g>
   <g id="text_28">
    <!-- val_acc -->
    <defs>
     <path d="M 2.984375 54.6875 
L 12.5 54.6875 
L 29.59375 8.796875 
L 46.6875 54.6875 
L 56.203125 54.6875 
L 35.6875 0 
L 23.484375 0 
z
" id="DejaVuSans-76"/>
     <path d="M 50.984375 -16.609375 
L 50.984375 -23.578125 
L -0.984375 -23.578125 
L -0.984375 -16.609375 
z
" id="DejaVuSans-5f"/>
    </defs>
    <g transform="translate(114.79 183.312)scale(0.12 -0.12)">
     <use xlink:href="#DejaVuSans-76"/>
     <use x="59.179688" xlink:href="#DejaVuSans-61"/>
     <use x="120.458984" xlink:href="#DejaVuSans-6c"/>
     <use x="148.242188" xlink:href="#DejaVuSans-5f"/>
     <use x="198.242188" xlink:href="#DejaVuSans-61"/>
     <use x="259.521484" xlink:href="#DejaVuSans-63"/>
     <use x="314.501953" xlink:href="#DejaVuSans-63"/>
    </g>
   </g>
  </g>
  <g id="axes_4">
   <g id="patch_17">
    <path d="M 256 307.584 
L 414.72 307.584 
L 414.72 189.312 
L 256 189.312 
z
" style="fill:#ffffff;"/>
   </g>
   <g id="matplotlib.axis_7">
    <g id="xtick_13">
     <g id="line2d_54">
      <path clip-path="url(#pf00f1bc98b)" d="M 263.214545 307.584 
L 263.214545 189.312 
" style="fill:none;stroke:#b0b0b0;stroke-linecap:square;stroke-width:0.8;"/>
     </g>
     <g id="line2d_55">
      <g>
       <use style="stroke:#000000;stroke-width:0.8;" x="263.214545" xlink:href="#m5d64224b5e" y="307.584"/>
      </g>
     </g>
     <g id="text_29">
      <!-- 0 -->
      <g transform="translate(260.033295 322.182437)scale(0.1 -0.1)">
       <use xlink:href="#DejaVuSans-30"/>
      </g>
     </g>
    </g>
    <g id="xtick_14">
     <g id="line2d_56">
      <path clip-path="url(#pf00f1bc98b)" d="M 311.472375 307.584 
L 311.472375 189.312 
" style="fill:none;stroke:#b0b0b0;stroke-linecap:square;stroke-width:0.8;"/>
     </g>
     <g id="line2d_57">
      <g>
       <use style="stroke:#000000;stroke-width:0.8;" x="311.472375" xlink:href="#m5d64224b5e" y="307.584"/>
      </g>
     </g>
     <g id="text_30">
      <!-- 100 -->
      <g transform="translate(301.928625 322.182437)scale(0.1 -0.1)">
       <use xlink:href="#DejaVuSans-31"/>
       <use x="63.623047" xlink:href="#DejaVuSans-30"/>
       <use x="127.246094" xlink:href="#DejaVuSans-30"/>
      </g>
     </g>
    </g>
    <g id="xtick_15">
     <g id="line2d_58">
      <path clip-path="url(#pf00f1bc98b)" d="M 359.730204 307.584 
L 359.730204 189.312 
" style="fill:none;stroke:#b0b0b0;stroke-linecap:square;stroke-width:0.8;"/>
     </g>
     <g id="line2d_59">
      <g>
       <use style="stroke:#000000;stroke-width:0.8;" x="359.730204" xlink:href="#m5d64224b5e" y="307.584"/>
      </g>
     </g>
     <g id="text_31">
      <!-- 200 -->
      <g transform="translate(350.186454 322.182437)scale(0.1 -0.1)">
       <use xlink:href="#DejaVuSans-32"/>
       <use x="63.623047" xlink:href="#DejaVuSans-30"/>
       <use x="127.246094" xlink:href="#DejaVuSans-30"/>
      </g>
     </g>
    </g>
    <g id="xtick_16">
     <g id="line2d_60">
      <path clip-path="url(#pf00f1bc98b)" d="M 407.988033 307.584 
L 407.988033 189.312 
" style="fill:none;stroke:#b0b0b0;stroke-linecap:square;stroke-width:0.8;"/>
     </g>
     <g id="line2d_61">
      <g>
       <use style="stroke:#000000;stroke-width:0.8;" x="407.988033" xlink:href="#m5d64224b5e" y="307.584"/>
      </g>
     </g>
     <g id="text_32">
      <!-- 300 -->
      <g transform="translate(398.444283 322.182437)scale(0.1 -0.1)">
       <use xlink:href="#DejaVuSans-33"/>
       <use x="63.623047" xlink:href="#DejaVuSans-30"/>
       <use x="127.246094" xlink:href="#DejaVuSans-30"/>
      </g>
     </g>
    </g>
   </g>
   <g id="matplotlib.axis_8">
    <g id="ytick_14">
     <g id="line2d_62">
      <path clip-path="url(#pf00f1bc98b)" d="M 256 305.305403 
L 414.72 305.305403 
" style="fill:none;stroke:#b0b0b0;stroke-linecap:square;stroke-width:0.8;"/>
     </g>
     <g id="line2d_63">
      <g>
       <use style="stroke:#000000;stroke-width:0.8;" x="256" xlink:href="#m11ea074ec6" y="305.305403"/>
      </g>
     </g>
     <g id="text_33">
      <!-- 0 -->
      <g transform="translate(242.6375 309.104622)scale(0.1 -0.1)">
       <use xlink:href="#DejaVuSans-30"/>
      </g>
     </g>
    </g>
    <g id="ytick_15">
     <g id="line2d_64">
      <path clip-path="url(#pf00f1bc98b)" d="M 256 265.408824 
L 414.72 265.408824 
" style="fill:none;stroke:#b0b0b0;stroke-linecap:square;stroke-width:0.8;"/>
     </g>
     <g id="line2d_65">
      <g>
       <use style="stroke:#000000;stroke-width:0.8;" x="256" xlink:href="#m11ea074ec6" y="265.408824"/>
      </g>
     </g>
     <g id="text_34">
      <!-- 2 -->
      <g transform="translate(242.6375 269.208042)scale(0.1 -0.1)">
       <use xlink:href="#DejaVuSans-32"/>
      </g>
     </g>
    </g>
    <g id="ytick_16">
     <g id="line2d_66">
      <path clip-path="url(#pf00f1bc98b)" d="M 256 225.512244 
L 414.72 225.512244 
" style="fill:none;stroke:#b0b0b0;stroke-linecap:square;stroke-width:0.8;"/>
     </g>
     <g id="line2d_67">
      <g>
       <use style="stroke:#000000;stroke-width:0.8;" x="256" xlink:href="#m11ea074ec6" y="225.512244"/>
      </g>
     </g>
     <g id="text_35">
      <!-- 4 -->
      <g transform="translate(242.6375 229.311463)scale(0.1 -0.1)">
       <use xlink:href="#DejaVuSans-34"/>
      </g>
     </g>
    </g>
   </g>
   <g id="line2d_68">
    <path clip-path="url(#pf00f1bc98b)" d="M 263.214545 194.688 
L 263.697124 194.69112 
L 264.179702 195.315779 
L 265.144859 214.180146 
L 265.627437 225.011337 
L 266.110015 229.077487 
L 266.592593 234.098637 
L 267.075172 237.059061 
L 267.55775 237.196713 
L 268.040328 247.478743 
L 268.522907 248.254342 
L 269.005485 252.672001 
L 269.970642 255.418207 
L 270.45322 258.628366 
L 270.935798 252.563989 
L 271.418376 265.950623 
L 271.900955 268.946013 
L 272.383533 269.033099 
L 273.34869 273.47399 
L 273.831268 276.449178 
L 274.313846 275.299972 
L 274.796424 269.996528 
L 275.761581 281.199498 
L 276.244159 282.414536 
L 276.726738 280.613517 
L 277.209316 285.829715 
L 277.691894 286.97058 
L 278.174472 287.310107 
L 278.657051 284.048713 
L 279.139629 282.261847 
L 279.622207 289.209581 
L 280.104786 289.38354 
L 280.587364 289.863437 
L 281.069942 291.831256 
L 281.552521 290.382482 
L 282.035099 272.003011 
L 282.517677 290.566531 
L 283.000255 291.315517 
L 283.482834 290.102428 
L 283.965412 292.677334 
L 284.44799 286.186664 
L 284.930569 294.159924 
L 285.413147 282.94254 
L 285.895725 260.458495 
L 286.378303 293.649243 
L 286.860882 287.431982 
L 287.34346 292.680445 
L 287.826038 295.46537 
L 288.308617 294.733019 
L 288.791195 288.983343 
L 289.273773 293.961079 
L 289.756351 290.288755 
L 290.23893 287.968507 
L 290.721508 295.277838 
L 291.204086 294.793553 
L 291.686665 294.9627 
L 292.169243 296.216313 
L 292.651821 295.155242 
L 293.1344 296.492934 
L 294.099556 292.567341 
L 294.582134 288.317363 
L 295.064713 295.44718 
L 296.029869 296.113978 
L 296.512448 296.162777 
L 296.995026 297.064482 
L 297.477604 289.782879 
L 297.960182 296.290462 
L 298.442761 290.766163 
L 298.925339 295.635703 
L 299.407917 296.385167 
L 299.890496 290.673403 
L 300.373074 297.514422 
L 301.33823 298.449486 
L 301.820809 297.863433 
L 302.785965 295.723441 
L 303.268544 296.190969 
L 303.751122 296.341075 
L 304.2337 295.343935 
L 304.716279 297.289021 
L 305.198857 294.168386 
L 305.681435 297.639249 
L 306.164013 297.815099 
L 306.646592 298.493087 
L 307.12917 294.024891 
L 307.611748 297.810355 
L 308.094327 295.191257 
L 308.576905 299.124748 
L 309.059483 298.380098 
L 309.542061 298.249535 
L 310.02464 298.494709 
L 310.507218 296.395822 
L 310.989796 298.740169 
L 311.472375 296.613694 
L 311.954953 298.622789 
L 312.437531 297.340565 
L 312.920109 298.765741 
L 313.402688 295.58602 
L 313.885266 297.843485 
L 314.367844 298.812582 
L 314.850423 296.32174 
L 315.333001 222.659038 
L 315.815579 288.980162 
L 316.298157 297.854524 
L 316.780736 296.187363 
L 317.263314 295.378892 
L 317.745892 296.364434 
L 318.228471 298.198534 
L 318.711049 297.445882 
L 319.193627 293.131851 
L 319.676206 298.446474 
L 320.158784 298.545801 
L 320.641362 295.762171 
L 321.12394 298.840215 
L 321.606519 299.619135 
L 322.089097 292.488631 
L 322.571675 293.538269 
L 323.054254 298.069313 
L 323.536832 297.800711 
L 324.01941 298.208931 
L 324.501988 298.0534 
L 324.984567 299.529552 
L 325.467145 298.057756 
L 325.949723 298.589546 
L 326.432302 297.964864 
L 326.91488 298.830091 
L 327.397458 299.400066 
L 327.880036 292.739507 
L 328.362615 298.984215 
L 328.845193 299.375277 
L 329.327771 298.364768 
L 329.81035 296.601838 
L 330.292928 298.682587 
L 330.775506 293.232942 
L 331.258085 295.788515 
L 331.740663 293.766405 
L 332.223241 299.21123 
L 332.705819 299.904194 
L 333.670976 295.63039 
L 334.153554 285.364985 
L 334.636133 297.746132 
L 335.118711 296.647461 
L 335.601289 300.678683 
L 336.083867 297.424395 
L 336.566446 299.097738 
L 337.049024 296.773999 
L 337.531602 298.658314 
L 338.014181 296.279901 
L 338.496759 295.015533 
L 338.979337 299.479487 
L 339.461915 299.317502 
L 339.944494 298.918274 
L 340.427072 298.928605 
L 340.90965 296.651537 
L 341.392229 295.801148 
L 341.874807 300.156994 
L 342.357385 298.112967 
L 342.839964 298.793598 
L 343.322542 295.524523 
L 344.287698 298.738353 
L 344.770277 299.165161 
L 345.252855 281.471254 
L 345.735433 298.381322 
L 346.218012 288.390736 
L 346.70059 298.456475 
L 347.183168 297.590514 
L 347.665746 297.733319 
L 348.148325 298.487205 
L 348.630903 292.80434 
L 349.113481 297.914139 
L 350.078638 296.485367 
L 350.561216 297.844474 
L 351.043794 297.822795 
L 351.526373 297.287997 
L 352.008951 299.134731 
L 352.491529 296.997758 
L 352.974108 297.409501 
L 353.456686 300.225051 
L 353.939264 295.803314 
L 354.421843 298.489544 
L 354.904421 294.662242 
L 355.386999 292.982746 
L 355.869577 293.795532 
L 356.352156 297.86895 
L 356.834734 296.083561 
L 357.317312 298.749091 
L 357.799891 296.834317 
L 358.282469 296.279932 
L 358.765047 294.27241 
L 359.247625 295.888681 
L 359.730204 297.993482 
L 360.212782 298.299806 
L 360.69536 295.605177 
L 361.177939 296.342157 
L 361.660517 298.495656 
L 362.625673 295.255475 
L 363.108252 298.905047 
L 363.59083 298.232049 
L 364.073408 299.766023 
L 364.555987 294.345569 
L 365.038565 298.323573 
L 365.521143 296.905837 
L 366.003721 295.989157 
L 366.968878 299.459872 
L 367.451456 296.832638 
L 367.934035 298.806146 
L 368.416613 298.474662 
L 368.899191 294.747867 
L 369.38177 299.955512 
L 369.864348 298.256032 
L 370.346926 298.776871 
L 370.829504 294.523051 
L 371.312083 294.823171 
L 371.794661 298.30801 
L 372.759818 302.208 
L 373.242396 296.813698 
L 373.724974 296.299491 
L 374.207552 296.919308 
L 374.690131 299.091601 
L 375.172709 300.067062 
L 375.655287 290.596231 
L 376.137866 298.420792 
L 376.620444 298.484021 
L 377.103022 296.909865 
L 377.5856 299.217457 
L 378.068179 297.32181 
L 378.550757 296.923598 
L 379.033335 298.607478 
L 379.515914 296.203346 
L 379.998492 296.925542 
L 380.48107 297.136428 
L 380.963649 294.703552 
L 381.446227 295.870328 
L 381.928805 297.861958 
L 382.893962 294.248376 
L 383.37654 293.70227 
L 383.859118 297.608366 
L 384.341697 294.789763 
L 384.824275 297.466738 
L 385.306853 296.071213 
L 385.789431 297.401729 
L 386.27201 289.297392 
L 386.754588 300.139429 
L 387.237166 296.695446 
L 387.719745 295.758732 
L 388.202323 298.529749 
L 388.684901 297.642125 
L 389.167479 299.340989 
L 389.650058 297.186137 
L 390.132636 291.431817 
L 390.615214 295.242245 
L 391.097793 297.396196 
L 391.580371 295.269543 
L 392.062949 294.605446 
L 392.545528 294.518456 
L 393.028106 297.279326 
L 393.510684 298.995699 
L 393.993262 294.323246 
L 394.475841 297.499567 
L 394.958419 297.610796 
L 395.440997 292.208721 
L 395.923576 288.39769 
L 396.406154 295.673322 
L 396.888732 296.19953 
L 397.37131 297.278653 
L 397.853889 297.353493 
L 398.336467 298.613262 
L 398.819045 300.184187 
L 399.301624 299.463374 
L 399.784202 295.523998 
L 400.26678 293.979682 
L 400.749358 297.368155 
L 401.231937 283.478554 
L 401.714515 295.532911 
L 402.197093 291.139576 
L 402.679672 294.110247 
L 403.16225 294.399337 
L 403.644828 298.518635 
L 404.127407 295.136171 
L 404.609985 297.51241 
L 405.092563 294.403391 
L 405.575141 297.051994 
L 406.05772 290.967437 
L 407.022876 295.780127 
L 407.505455 285.343757 
L 407.505455 285.343757 
" style="fill:none;stroke:#1f77b4;stroke-linecap:square;stroke-width:1.5;"/>
   </g>
   <g id="patch_18">
    <path d="M 256 307.584 
L 256 189.312 
" style="fill:none;stroke:#000000;stroke-linecap:square;stroke-linejoin:miter;stroke-width:0.8;"/>
   </g>
   <g id="patch_19">
    <path d="M 414.72 307.584 
L 414.72 189.312 
" style="fill:none;stroke:#000000;stroke-linecap:square;stroke-linejoin:miter;stroke-width:0.8;"/>
   </g>
   <g id="patch_20">
    <path d="M 256 307.584 
L 414.72 307.584 
" style="fill:none;stroke:#000000;stroke-linecap:square;stroke-linejoin:miter;stroke-width:0.8;"/>
   </g>
   <g id="patch_21">
    <path d="M 256 189.312 
L 414.72 189.312 
" style="fill:none;stroke:#000000;stroke-linecap:square;stroke-linejoin:miter;stroke-width:0.8;"/>
   </g>
   <g id="text_36">
    <!-- val_loss -->
    <g transform="translate(311.875625 183.312)scale(0.12 -0.12)">
     <use xlink:href="#DejaVuSans-76"/>
     <use x="59.179688" xlink:href="#DejaVuSans-61"/>
     <use x="120.458984" xlink:href="#DejaVuSans-6c"/>
     <use x="148.242188" xlink:href="#DejaVuSans-5f"/>
     <use x="198.242188" xlink:href="#DejaVuSans-6c"/>
     <use x="226.025391" xlink:href="#DejaVuSans-6f"/>
     <use x="287.207031" xlink:href="#DejaVuSans-73"/>
     <use x="339.306641" xlink:href="#DejaVuSans-73"/>
    </g>
   </g>
  </g>
  <g id="text_37">
   <!-- benchmark 20171023_070500 -->
   <defs>
    <path d="M 48.6875 27.296875 
Q 48.6875 37.203125 44.609375 42.84375 
Q 40.53125 48.484375 33.40625 48.484375 
Q 26.265625 48.484375 22.1875 42.84375 
Q 18.109375 37.203125 18.109375 27.296875 
Q 18.109375 17.390625 22.1875 11.75 
Q 26.265625 6.109375 33.40625 6.109375 
Q 40.53125 6.109375 44.609375 11.75 
Q 48.6875 17.390625 48.6875 27.296875 
z
M 18.109375 46.390625 
Q 20.953125 51.265625 25.265625 53.625 
Q 29.59375 56 35.59375 56 
Q 45.5625 56 51.78125 48.09375 
Q 58.015625 40.1875 58.015625 27.296875 
Q 58.015625 14.40625 51.78125 6.484375 
Q 45.5625 -1.421875 35.59375 -1.421875 
Q 29.59375 -1.421875 25.265625 0.953125 
Q 20.953125 3.328125 18.109375 8.203125 
L 18.109375 0 
L 9.078125 0 
L 9.078125 75.984375 
L 18.109375 75.984375 
z
" id="DejaVuSans-62"/>
    <path d="M 56.203125 29.59375 
L 56.203125 25.203125 
L 14.890625 25.203125 
Q 15.484375 15.921875 20.484375 11.0625 
Q 25.484375 6.203125 34.421875 6.203125 
Q 39.59375 6.203125 44.453125 7.46875 
Q 49.3125 8.734375 54.109375 11.28125 
L 54.109375 2.78125 
Q 49.265625 0.734375 44.1875 -0.34375 
Q 39.109375 -1.421875 33.890625 -1.421875 
Q 20.796875 -1.421875 13.15625 6.1875 
Q 5.515625 13.8125 5.515625 26.8125 
Q 5.515625 40.234375 12.765625 48.109375 
Q 20.015625 56 32.328125 56 
Q 43.359375 56 49.78125 48.890625 
Q 56.203125 41.796875 56.203125 29.59375 
z
M 47.21875 32.234375 
Q 47.125 39.59375 43.09375 43.984375 
Q 39.0625 48.390625 32.421875 48.390625 
Q 24.90625 48.390625 20.390625 44.140625 
Q 15.875 39.890625 15.1875 32.171875 
z
" id="DejaVuSans-65"/>
    <path d="M 54.890625 33.015625 
L 54.890625 0 
L 45.90625 0 
L 45.90625 32.71875 
Q 45.90625 40.484375 42.875 44.328125 
Q 39.84375 48.1875 33.796875 48.1875 
Q 26.515625 48.1875 22.3125 43.546875 
Q 18.109375 38.921875 18.109375 30.90625 
L 18.109375 0 
L 9.078125 0 
L 9.078125 54.6875 
L 18.109375 54.6875 
L 18.109375 46.1875 
Q 21.34375 51.125 25.703125 53.5625 
Q 30.078125 56 35.796875 56 
Q 45.21875 56 50.046875 50.171875 
Q 54.890625 44.34375 54.890625 33.015625 
z
" id="DejaVuSans-6e"/>
    <path d="M 54.890625 33.015625 
L 54.890625 0 
L 45.90625 0 
L 45.90625 32.71875 
Q 45.90625 40.484375 42.875 44.328125 
Q 39.84375 48.1875 33.796875 48.1875 
Q 26.515625 48.1875 22.3125 43.546875 
Q 18.109375 38.921875 18.109375 30.90625 
L 18.109375 0 
L 9.078125 0 
L 9.078125 75.984375 
L 18.109375 75.984375 
L 18.109375 46.1875 
Q 21.34375 51.125 25.703125 53.5625 
Q 30.078125 56 35.796875 56 
Q 45.21875 56 50.046875 50.171875 
Q 54.890625 44.34375 54.890625 33.015625 
z
" id="DejaVuSans-68"/>
    <path d="M 52 44.1875 
Q 55.375 50.25 60.0625 53.125 
Q 64.75 56 71.09375 56 
Q 79.640625 56 84.28125 50.015625 
Q 88.921875 44.046875 88.921875 33.015625 
L 88.921875 0 
L 79.890625 0 
L 79.890625 32.71875 
Q 79.890625 40.578125 77.09375 44.375 
Q 74.3125 48.1875 68.609375 48.1875 
Q 61.625 48.1875 57.5625 43.546875 
Q 53.515625 38.921875 53.515625 30.90625 
L 53.515625 0 
L 44.484375 0 
L 44.484375 32.71875 
Q 44.484375 40.625 41.703125 44.40625 
Q 38.921875 48.1875 33.109375 48.1875 
Q 26.21875 48.1875 22.15625 43.53125 
Q 18.109375 38.875 18.109375 30.90625 
L 18.109375 0 
L 9.078125 0 
L 9.078125 54.6875 
L 18.109375 54.6875 
L 18.109375 46.1875 
Q 21.1875 51.21875 25.484375 53.609375 
Q 29.78125 56 35.6875 56 
Q 41.65625 56 45.828125 52.96875 
Q 50 49.953125 52 44.1875 
z
" id="DejaVuSans-6d"/>
    <path d="M 41.109375 46.296875 
Q 39.59375 47.171875 37.8125 47.578125 
Q 36.03125 48 33.890625 48 
Q 26.265625 48 22.1875 43.046875 
Q 18.109375 38.09375 18.109375 28.8125 
L 18.109375 0 
L 9.078125 0 
L 9.078125 54.6875 
L 18.109375 54.6875 
L 18.109375 46.1875 
Q 20.953125 51.171875 25.484375 53.578125 
Q 30.03125 56 36.53125 56 
Q 37.453125 56 38.578125 55.875 
Q 39.703125 55.765625 41.0625 55.515625 
z
" id="DejaVuSans-72"/>
    <path d="M 9.078125 75.984375 
L 18.109375 75.984375 
L 18.109375 31.109375 
L 44.921875 54.6875 
L 56.390625 54.6875 
L 27.390625 29.109375 
L 57.625 0 
L 45.90625 0 
L 18.109375 26.703125 
L 18.109375 0 
L 9.078125 0 
z
" id="DejaVuSans-6b"/>
    <path id="DejaVuSans-20"/>
   </defs>
   <g transform="translate(138.180938 16.030125)scale(0.12 -0.12)">
    <use xlink:href="#DejaVuSans-62"/>
    <use x="63.476562" xlink:href="#DejaVuSans-65"/>
    <use x="125" xlink:href="#DejaVuSans-6e"/>
    <use x="188.378906" xlink:href="#DejaVuSans-63"/>
    <use x="243.359375" xlink:href="#DejaVuSans-68"/>
    <use x="306.738281" xlink:href="#DejaVuSans-6d"/>
    <use x="404.150391" xlink:href="#DejaVuSans-61"/>
    <use x="465.429688" xlink:href="#DejaVuSans-72"/>
    <use x="506.542969" xlink:href="#DejaVuSans-6b"/>
    <use x="564.453125" xlink:href="#DejaVuSans-20"/>
    <use x="596.240234" xlink:href="#DejaVuSans-32"/>
    <use x="659.863281" xlink:href="#DejaVuSans-30"/>
    <use x="723.486328" xlink:href="#DejaVuSans-31"/>
    <use x="787.109375" xlink:href="#DejaVuSans-37"/>
    <use x="850.732422" xlink:href="#DejaVuSans-31"/>
    <use x="914.355469" xlink:href="#DejaVuSans-30"/>
    <use x="977.978516" xlink:href="#DejaVuSans-32"/>
    <use x="1041.601562" xlink:href="#DejaVuSans-33"/>
    <use x="1105.224609" xlink:href="#DejaVuSans-5f"/>
    <use x="1155.224609" xlink:href="#DejaVuSans-30"/>
    <use x="1218.847656" xlink:href="#DejaVuSans-37"/>
    <use x="1282.470703" xlink:href="#DejaVuSans-30"/>
    <use x="1346.09375" xlink:href="#DejaVuSans-35"/>
    <use x="1409.716797" xlink:href="#DejaVuSans-30"/>
    <use x="1473.339844" xlink:href="#DejaVuSans-30"/>
   </g>
  </g>
 </g>
 <defs>
  <clipPath id="pe4ed83f84b">
   <rect height="118.272" width="158.72" x="57.6" y="41.472"/>
  </clipPath>
  <clipPath id="p6ddc550cdd">
   <rect height="118.272" width="158.72" x="256" y="41.472"/>
  </clipPath>
  <clipPath id="p2794cb01e6">
   <rect height="118.272" width="158.72" x="57.6" y="189.312"/>
  </clipPath>
  <clipPath id="pf00f1bc98b">
   <rect height="118.272" width="158.72" x="256" y="189.312"/>
  </clipPath>
 </defs>
</svg>
