<?xml version="1.0" encoding="utf-8" standalone="no"?>
<!DOCTYPE svg PUBLIC "-//W3C//DTD SVG 1.1//EN"
  "http://www.w3.org/Graphics/SVG/1.1/DTD/svg11.dtd">
<!-- Created with matplotlib (http://matplotlib.org/) -->
<svg height="345pt" version="1.1" viewBox="0 0 460 345" width="460pt" xmlns="http://www.w3.org/2000/svg" xmlns:xlink="http://www.w3.org/1999/xlink">
 <defs>
  <style type="text/css">
*{stroke-linecap:butt;stroke-linejoin:round;}
  </style>
 </defs>
 <g id="figure_1">
  <g id="patch_1">
   <path d="M 0 345.6 
L 460.8 345.6 
L 460.8 0 
L 0 0 
z
" style="fill:#ffffff;"/>
  </g>
  <g id="axes_1">
   <g id="patch_2">
    <path d="M 57.6 159.744 
L 216.32 159.744 
L 216.32 41.472 
L 57.6 41.472 
z
" style="fill:#ffffff;"/>
   </g>
   <g id="matplotlib.axis_1">
    <g id="xtick_1">
     <g id="line2d_1">
      <path clip-path="url(#p43a9016574)" d="M 64.814545 159.744 
L 64.814545 41.472 
" style="fill:none;stroke:#b0b0b0;stroke-linecap:square;stroke-width:0.8;"/>
     </g>
     <g id="line2d_2">
      <defs>
       <path d="M 0 0 
L 0 3.5 
" id="me4c30ddaa4" style="stroke:#000000;stroke-width:0.8;"/>
      </defs>
      <g>
       <use style="stroke:#000000;stroke-width:0.8;" x="64.814545" xlink:href="#me4c30ddaa4" y="159.744"/>
      </g>
     </g>
     <g id="text_1">
      <!-- 0 -->
      <defs>
       <path d="M 31.78125 66.40625 
Q 24.171875 66.40625 20.328125 58.90625 
Q 16.5 51.421875 16.5 36.375 
Q 16.5 21.390625 20.328125 13.890625 
Q 24.171875 6.390625 31.78125 6.390625 
Q 39.453125 6.390625 43.28125 13.890625 
Q 47.125 21.390625 47.125 36.375 
Q 47.125 51.421875 43.28125 58.90625 
Q 39.453125 66.40625 31.78125 66.40625 
z
M 31.78125 74.21875 
Q 44.046875 74.21875 50.515625 64.515625 
Q 56.984375 54.828125 56.984375 36.375 
Q 56.984375 17.96875 50.515625 8.265625 
Q 44.046875 -1.421875 31.78125 -1.421875 
Q 19.53125 -1.421875 13.0625 8.265625 
Q 6.59375 17.96875 6.59375 36.375 
Q 6.59375 54.828125 13.0625 64.515625 
Q 19.53125 74.21875 31.78125 74.21875 
z
" id="DejaVuSans-30"/>
      </defs>
      <g transform="translate(61.633295 174.342437)scale(0.1 -0.1)">
       <use xlink:href="#DejaVuSans-30"/>
      </g>
     </g>
    </g>
    <g id="xtick_2">
     <g id="line2d_3">
      <path clip-path="url(#p43a9016574)" d="M 113.072375 159.744 
L 113.072375 41.472 
" style="fill:none;stroke:#b0b0b0;stroke-linecap:square;stroke-width:0.8;"/>
     </g>
     <g id="line2d_4">
      <g>
       <use style="stroke:#000000;stroke-width:0.8;" x="113.072375" xlink:href="#me4c30ddaa4" y="159.744"/>
      </g>
     </g>
     <g id="text_2">
      <!-- 100 -->
      <defs>
       <path d="M 12.40625 8.296875 
L 28.515625 8.296875 
L 28.515625 63.921875 
L 10.984375 60.40625 
L 10.984375 69.390625 
L 28.421875 72.90625 
L 38.28125 72.90625 
L 38.28125 8.296875 
L 54.390625 8.296875 
L 54.390625 0 
L 12.40625 0 
z
" id="DejaVuSans-31"/>
      </defs>
      <g transform="translate(103.528625 174.342437)scale(0.1 -0.1)">
       <use xlink:href="#DejaVuSans-31"/>
       <use x="63.623047" xlink:href="#DejaVuSans-30"/>
       <use x="127.246094" xlink:href="#DejaVuSans-30"/>
      </g>
     </g>
    </g>
    <g id="xtick_3">
     <g id="line2d_5">
      <path clip-path="url(#p43a9016574)" d="M 161.330204 159.744 
L 161.330204 41.472 
" style="fill:none;stroke:#b0b0b0;stroke-linecap:square;stroke-width:0.8;"/>
     </g>
     <g id="line2d_6">
      <g>
       <use style="stroke:#000000;stroke-width:0.8;" x="161.330204" xlink:href="#me4c30ddaa4" y="159.744"/>
      </g>
     </g>
     <g id="text_3">
      <!-- 200 -->
      <defs>
       <path d="M 19.1875 8.296875 
L 53.609375 8.296875 
L 53.609375 0 
L 7.328125 0 
L 7.328125 8.296875 
Q 12.9375 14.109375 22.625 23.890625 
Q 32.328125 33.6875 34.8125 36.53125 
Q 39.546875 41.84375 41.421875 45.53125 
Q 43.3125 49.21875 43.3125 52.78125 
Q 43.3125 58.59375 39.234375 62.25 
Q 35.15625 65.921875 28.609375 65.921875 
Q 23.96875 65.921875 18.8125 64.3125 
Q 13.671875 62.703125 7.8125 59.421875 
L 7.8125 69.390625 
Q 13.765625 71.78125 18.9375 73 
Q 24.125 74.21875 28.421875 74.21875 
Q 39.75 74.21875 46.484375 68.546875 
Q 53.21875 62.890625 53.21875 53.421875 
Q 53.21875 48.921875 51.53125 44.890625 
Q 49.859375 40.875 45.40625 35.40625 
Q 44.1875 33.984375 37.640625 27.21875 
Q 31.109375 20.453125 19.1875 8.296875 
z
" id="DejaVuSans-32"/>
      </defs>
      <g transform="translate(151.786454 174.342437)scale(0.1 -0.1)">
       <use xlink:href="#DejaVuSans-32"/>
       <use x="63.623047" xlink:href="#DejaVuSans-30"/>
       <use x="127.246094" xlink:href="#DejaVuSans-30"/>
      </g>
     </g>
    </g>
    <g id="xtick_4">
     <g id="line2d_7">
      <path clip-path="url(#p43a9016574)" d="M 209.588033 159.744 
L 209.588033 41.472 
" style="fill:none;stroke:#b0b0b0;stroke-linecap:square;stroke-width:0.8;"/>
     </g>
     <g id="line2d_8">
      <g>
       <use style="stroke:#000000;stroke-width:0.8;" x="209.588033" xlink:href="#me4c30ddaa4" y="159.744"/>
      </g>
     </g>
     <g id="text_4">
      <!-- 300 -->
      <defs>
       <path d="M 40.578125 39.3125 
Q 47.65625 37.796875 51.625 33 
Q 55.609375 28.21875 55.609375 21.1875 
Q 55.609375 10.40625 48.1875 4.484375 
Q 40.765625 -1.421875 27.09375 -1.421875 
Q 22.515625 -1.421875 17.65625 -0.515625 
Q 12.796875 0.390625 7.625 2.203125 
L 7.625 11.71875 
Q 11.71875 9.328125 16.59375 8.109375 
Q 21.484375 6.890625 26.8125 6.890625 
Q 36.078125 6.890625 40.9375 10.546875 
Q 45.796875 14.203125 45.796875 21.1875 
Q 45.796875 27.640625 41.28125 31.265625 
Q 36.765625 34.90625 28.71875 34.90625 
L 20.21875 34.90625 
L 20.21875 43.015625 
L 29.109375 43.015625 
Q 36.375 43.015625 40.234375 45.921875 
Q 44.09375 48.828125 44.09375 54.296875 
Q 44.09375 59.90625 40.109375 62.90625 
Q 36.140625 65.921875 28.71875 65.921875 
Q 24.65625 65.921875 20.015625 65.03125 
Q 15.375 64.15625 9.8125 62.3125 
L 9.8125 71.09375 
Q 15.4375 72.65625 20.34375 73.4375 
Q 25.25 74.21875 29.59375 74.21875 
Q 40.828125 74.21875 47.359375 69.109375 
Q 53.90625 64.015625 53.90625 55.328125 
Q 53.90625 49.265625 50.4375 45.09375 
Q 46.96875 40.921875 40.578125 39.3125 
z
" id="DejaVuSans-33"/>
      </defs>
      <g transform="translate(200.044283 174.342437)scale(0.1 -0.1)">
       <use xlink:href="#DejaVuSans-33"/>
       <use x="63.623047" xlink:href="#DejaVuSans-30"/>
       <use x="127.246094" xlink:href="#DejaVuSans-30"/>
      </g>
     </g>
    </g>
   </g>
   <g id="matplotlib.axis_2">
    <g id="ytick_1">
     <g id="line2d_9">
      <path clip-path="url(#p43a9016574)" d="M 57.6 154.675954 
L 216.32 154.675954 
" style="fill:none;stroke:#b0b0b0;stroke-linecap:square;stroke-width:0.8;"/>
     </g>
     <g id="line2d_10">
      <defs>
       <path d="M 0 0 
L -3.5 0 
" id="md3badb77d9" style="stroke:#000000;stroke-width:0.8;"/>
      </defs>
      <g>
       <use style="stroke:#000000;stroke-width:0.8;" x="57.6" xlink:href="#md3badb77d9" y="154.675954"/>
      </g>
     </g>
     <g id="text_5">
      <!-- 0.0 -->
      <defs>
       <path d="M 10.6875 12.40625 
L 21 12.40625 
L 21 0 
L 10.6875 0 
z
" id="DejaVuSans-2e"/>
      </defs>
      <g transform="translate(34.696875 158.475173)scale(0.1 -0.1)">
       <use xlink:href="#DejaVuSans-30"/>
       <use x="63.623047" xlink:href="#DejaVuSans-2e"/>
       <use x="95.410156" xlink:href="#DejaVuSans-30"/>
      </g>
     </g>
    </g>
    <g id="ytick_2">
     <g id="line2d_11">
      <path clip-path="url(#p43a9016574)" d="M 57.6 127.646377 
L 216.32 127.646377 
" style="fill:none;stroke:#b0b0b0;stroke-linecap:square;stroke-width:0.8;"/>
     </g>
     <g id="line2d_12">
      <g>
       <use style="stroke:#000000;stroke-width:0.8;" x="57.6" xlink:href="#md3badb77d9" y="127.646377"/>
      </g>
     </g>
     <g id="text_6">
      <!-- 0.2 -->
      <g transform="translate(34.696875 131.445595)scale(0.1 -0.1)">
       <use xlink:href="#DejaVuSans-30"/>
       <use x="63.623047" xlink:href="#DejaVuSans-2e"/>
       <use x="95.410156" xlink:href="#DejaVuSans-32"/>
      </g>
     </g>
    </g>
    <g id="ytick_3">
     <g id="line2d_13">
      <path clip-path="url(#p43a9016574)" d="M 57.6 100.616799 
L 216.32 100.616799 
" style="fill:none;stroke:#b0b0b0;stroke-linecap:square;stroke-width:0.8;"/>
     </g>
     <g id="line2d_14">
      <g>
       <use style="stroke:#000000;stroke-width:0.8;" x="57.6" xlink:href="#md3badb77d9" y="100.616799"/>
      </g>
     </g>
     <g id="text_7">
      <!-- 0.4 -->
      <defs>
       <path d="M 37.796875 64.3125 
L 12.890625 25.390625 
L 37.796875 25.390625 
z
M 35.203125 72.90625 
L 47.609375 72.90625 
L 47.609375 25.390625 
L 58.015625 25.390625 
L 58.015625 17.1875 
L 47.609375 17.1875 
L 47.609375 0 
L 37.796875 0 
L 37.796875 17.1875 
L 4.890625 17.1875 
L 4.890625 26.703125 
z
" id="DejaVuSans-34"/>
      </defs>
      <g transform="translate(34.696875 104.416018)scale(0.1 -0.1)">
       <use xlink:href="#DejaVuSans-30"/>
       <use x="63.623047" xlink:href="#DejaVuSans-2e"/>
       <use x="95.410156" xlink:href="#DejaVuSans-34"/>
      </g>
     </g>
    </g>
    <g id="ytick_4">
     <g id="line2d_15">
      <path clip-path="url(#p43a9016574)" d="M 57.6 73.587222 
L 216.32 73.587222 
" style="fill:none;stroke:#b0b0b0;stroke-linecap:square;stroke-width:0.8;"/>
     </g>
     <g id="line2d_16">
      <g>
       <use style="stroke:#000000;stroke-width:0.8;" x="57.6" xlink:href="#md3badb77d9" y="73.587222"/>
      </g>
     </g>
     <g id="text_8">
      <!-- 0.6 -->
      <defs>
       <path d="M 33.015625 40.375 
Q 26.375 40.375 22.484375 35.828125 
Q 18.609375 31.296875 18.609375 23.390625 
Q 18.609375 15.53125 22.484375 10.953125 
Q 26.375 6.390625 33.015625 6.390625 
Q 39.65625 6.390625 43.53125 10.953125 
Q 47.40625 15.53125 47.40625 23.390625 
Q 47.40625 31.296875 43.53125 35.828125 
Q 39.65625 40.375 33.015625 40.375 
z
M 52.59375 71.296875 
L 52.59375 62.3125 
Q 48.875 64.0625 45.09375 64.984375 
Q 41.3125 65.921875 37.59375 65.921875 
Q 27.828125 65.921875 22.671875 59.328125 
Q 17.53125 52.734375 16.796875 39.40625 
Q 19.671875 43.65625 24.015625 45.921875 
Q 28.375 48.1875 33.59375 48.1875 
Q 44.578125 48.1875 50.953125 41.515625 
Q 57.328125 34.859375 57.328125 23.390625 
Q 57.328125 12.15625 50.6875 5.359375 
Q 44.046875 -1.421875 33.015625 -1.421875 
Q 20.359375 -1.421875 13.671875 8.265625 
Q 6.984375 17.96875 6.984375 36.375 
Q 6.984375 53.65625 15.1875 63.9375 
Q 23.390625 74.21875 37.203125 74.21875 
Q 40.921875 74.21875 44.703125 73.484375 
Q 48.484375 72.75 52.59375 71.296875 
z
" id="DejaVuSans-36"/>
      </defs>
      <g transform="translate(34.696875 77.386441)scale(0.1 -0.1)">
       <use xlink:href="#DejaVuSans-30"/>
       <use x="63.623047" xlink:href="#DejaVuSans-2e"/>
       <use x="95.410156" xlink:href="#DejaVuSans-36"/>
      </g>
     </g>
    </g>
    <g id="ytick_5">
     <g id="line2d_17">
      <path clip-path="url(#p43a9016574)" d="M 57.6 46.557644 
L 216.32 46.557644 
" style="fill:none;stroke:#b0b0b0;stroke-linecap:square;stroke-width:0.8;"/>
     </g>
     <g id="line2d_18">
      <g>
       <use style="stroke:#000000;stroke-width:0.8;" x="57.6" xlink:href="#md3badb77d9" y="46.557644"/>
      </g>
     </g>
     <g id="text_9">
      <!-- 0.8 -->
      <defs>
       <path d="M 31.78125 34.625 
Q 24.75 34.625 20.71875 30.859375 
Q 16.703125 27.09375 16.703125 20.515625 
Q 16.703125 13.921875 20.71875 10.15625 
Q 24.75 6.390625 31.78125 6.390625 
Q 38.8125 6.390625 42.859375 10.171875 
Q 46.921875 13.96875 46.921875 20.515625 
Q 46.921875 27.09375 42.890625 30.859375 
Q 38.875 34.625 31.78125 34.625 
z
M 21.921875 38.8125 
Q 15.578125 40.375 12.03125 44.71875 
Q 8.5 49.078125 8.5 55.328125 
Q 8.5 64.0625 14.71875 69.140625 
Q 20.953125 74.21875 31.78125 74.21875 
Q 42.671875 74.21875 48.875 69.140625 
Q 55.078125 64.0625 55.078125 55.328125 
Q 55.078125 49.078125 51.53125 44.71875 
Q 48 40.375 41.703125 38.8125 
Q 48.828125 37.15625 52.796875 32.3125 
Q 56.78125 27.484375 56.78125 20.515625 
Q 56.78125 9.90625 50.3125 4.234375 
Q 43.84375 -1.421875 31.78125 -1.421875 
Q 19.734375 -1.421875 13.25 4.234375 
Q 6.78125 9.90625 6.78125 20.515625 
Q 6.78125 27.484375 10.78125 32.3125 
Q 14.796875 37.15625 21.921875 38.8125 
z
M 18.3125 54.390625 
Q 18.3125 48.734375 21.84375 45.5625 
Q 25.390625 42.390625 31.78125 42.390625 
Q 38.140625 42.390625 41.71875 45.5625 
Q 45.3125 48.734375 45.3125 54.390625 
Q 45.3125 60.0625 41.71875 63.234375 
Q 38.140625 66.40625 31.78125 66.40625 
Q 25.390625 66.40625 21.84375 63.234375 
Q 18.3125 60.0625 18.3125 54.390625 
z
" id="DejaVuSans-38"/>
      </defs>
      <g transform="translate(34.696875 50.356863)scale(0.1 -0.1)">
       <use xlink:href="#DejaVuSans-30"/>
       <use x="63.623047" xlink:href="#DejaVuSans-2e"/>
       <use x="95.410156" xlink:href="#DejaVuSans-38"/>
      </g>
     </g>
    </g>
   </g>
   <g id="line2d_19">
    <path clip-path="url(#p43a9016574)" d="M 64.814545 154.368 
L 65.297124 154.148033 
L 65.779702 153.972059 
L 66.26228 153.268164 
L 66.744859 153.048196 
L 67.227437 151.860373 
L 67.710015 151.200471 
L 68.192593 150.276609 
L 68.675172 149.616707 
L 69.15775 147.944956 
L 69.640328 147.153074 
L 70.122907 146.141224 
L 70.605485 143.941551 
L 73.500955 135.054874 
L 73.983533 133.031175 
L 74.466111 131.755365 
L 74.94869 131.359424 
L 75.431268 128.63183 
L 75.913846 127.312026 
L 76.396424 128.983777 
L 76.879003 125.244333 
L 77.361581 125.596281 
L 78.326738 123.484595 
L 78.809316 123.704563 
L 79.291894 122.076805 
L 79.774472 119.965119 
L 80.257051 120.888982 
L 80.739629 119.525184 
L 81.222207 120.053106 
L 81.704786 118.029407 
L 82.187364 118.777296 
L 82.669942 117.017558 
L 83.152521 117.589473 
L 83.635099 115.213826 
L 84.117677 116.093695 
L 84.600255 114.905872 
L 85.565412 111.562369 
L 86.04799 112.486232 
L 86.530569 112.618212 
L 87.013147 110.990455 
L 87.978303 110.946461 
L 88.94346 109.362696 
L 89.426038 108.482828 
L 89.908617 109.010749 
L 90.391195 108.966756 
L 90.873773 106.72309 
L 91.356351 107.207017 
L 91.83893 107.426985 
L 92.321508 105.57926 
L 92.804086 105.359292 
L 93.286665 106.85507 
L 93.769243 105.447279 
L 94.251821 105.667247 
L 94.7344 105.139325 
L 95.699556 102.367738 
L 96.182134 103.907508 
L 96.664713 102.807672 
L 97.147291 103.643548 
L 97.629869 102.01579 
L 98.112448 101.311895 
L 98.595026 100.388032 
L 99.077604 101.443875 
L 99.560182 101.619849 
L 100.042761 100.607999 
L 100.525339 98.848262 
L 101.007917 99.772124 
L 101.490496 98.892255 
L 101.973074 97.572451 
L 102.455652 98.804268 
L 102.93823 97.704432 
L 103.420809 97.17651 
L 103.903387 98.100373 
L 104.385965 97.396478 
L 104.868544 95.372779 
L 105.351122 96.560602 
L 106.316279 95.328785 
L 107.281435 95.592746 
L 107.764013 94.096969 
L 108.246592 95.504759 
L 108.72917 93.217099 
L 109.211748 93.129113 
L 109.694327 92.249243 
L 110.176905 91.985283 
L 110.659483 91.897296 
L 111.62464 91.985282 
L 112.107218 90.137558 
L 112.589796 91.149407 
L 113.072375 90.885446 
L 113.554953 89.697623 
L 114.037531 88.817754 
L 114.520109 90.093564 
L 115.002688 88.113859 
L 115.485266 87.761911 
L 115.967844 87.849898 
L 117.415579 87.409964 
L 117.898157 87.058016 
L 118.380736 86.046166 
L 118.863314 86.926036 
L 119.345892 85.826199 
L 119.828471 83.626526 
L 120.311049 84.94633 
L 120.793627 85.210291 
L 121.276206 82.746657 
L 121.758784 82.702664 
L 122.241362 82.350717 
L 122.72394 81.690815 
L 123.206519 82.746657 
L 123.689097 80.986919 
L 124.171675 82.614677 
L 124.654254 79.887083 
L 125.136832 80.546984 
L 126.101988 79.535135 
L 126.584567 80.415004 
L 127.067145 78.523286 
L 127.549723 80.546985 
L 128.032302 80.063057 
L 128.51488 80.854939 
L 128.997458 78.787246 
L 129.962615 77.907377 
L 130.445193 75.355757 
L 130.927771 77.115495 
L 131.892928 75.751698 
L 132.375506 77.731404 
L 132.858085 76.587573 
L 133.340663 74.739849 
L 133.823241 75.971665 
L 134.305819 76.455593 
L 134.788398 75.179783 
L 135.270976 74.739849 
L 135.753554 75.223777 
L 136.236133 73.552025 
L 136.718711 74.519881 
L 137.201289 73.684005 
L 137.683867 72.320209 
L 138.166446 73.684005 
L 138.649024 73.99196 
L 139.131602 73.596019 
L 139.614181 72.760143 
L 140.096759 73.068097 
L 140.579337 71.000405 
L 141.061915 73.376052 
L 141.544494 71.352352 
L 142.027072 71.7043 
L 142.50965 71.044399 
L 142.992229 72.320208 
L 143.474807 69.0207 
L 143.957385 69.988556 
L 144.439964 71.748294 
L 144.922542 69.988556 
L 146.370277 69.108687 
L 146.852855 69.196674 
L 147.335433 70.032549 
L 147.818012 68.800732 
L 148.30059 68.052844 
L 149.265746 68.228818 
L 149.748325 68.800732 
L 150.230903 68.228817 
L 150.713481 66.689046 
L 151.19606 68.272811 
L 151.678638 67.568915 
L 152.161216 65.633204 
L 153.126373 67.568915 
L 153.608951 67.084987 
L 154.091529 65.149276 
L 154.574108 65.897164 
L 155.056686 65.237262 
L 155.539264 65.105282 
L 156.021843 65.545216 
L 156.504421 64.44538 
L 156.986999 65.193269 
L 157.469577 65.149276 
L 158.434734 62.861616 
L 158.917312 63.609505 
L 159.399891 64.621354 
L 159.882469 64.137426 
L 160.365047 63.477524 
L 160.847625 62.333694 
L 161.330204 63.785479 
L 161.812782 61.761779 
L 162.29536 62.641649 
L 162.777939 62.333694 
L 163.260517 62.553662 
L 163.743095 62.641649 
L 164.225673 62.025741 
L 164.708252 62.333695 
L 165.19083 60.925904 
L 165.673408 61.585806 
L 166.155987 59.826067 
L 166.638565 61.277852 
L 167.121143 61.629799 
L 167.603721 60.046035 
L 168.0863 59.958048 
L 168.568878 58.770225 
L 169.051456 59.07818 
L 169.534035 59.21016 
L 170.016613 60.134022 
L 170.499191 60.090029 
L 170.98177 59.47412 
L 171.464348 59.650094 
L 171.946926 59.606101 
L 172.912083 58.110323 
L 173.394661 58.902205 
L 173.877239 57.802369 
L 174.359818 58.022336 
L 174.842396 57.010487 
L 175.324974 58.19831 
L 175.807552 57.274448 
L 176.290131 57.582402 
L 176.772709 56.966493 
L 177.255287 55.998637 
L 177.737866 57.274448 
L 178.220444 57.714382 
L 178.703022 56.746526 
L 179.1856 56.174611 
L 179.668179 55.998638 
L 180.150757 56.966493 
L 180.633335 56.746526 
L 181.115914 55.602696 
L 181.598492 56.262599 
L 182.08107 55.250749 
L 182.563649 54.854808 
L 183.046227 55.294743 
L 183.528805 54.766821 
L 184.011383 55.074775 
L 184.493962 55.602696 
L 184.97654 54.150912 
L 185.459118 53.139063 
L 185.941697 53.007083 
L 186.424275 53.974939 
L 186.906853 53.22705 
L 187.389431 53.886952 
L 187.87201 53.271043 
L 188.354588 53.622991 
L 188.837166 53.754972 
L 189.319745 52.743123 
L 189.802323 52.347181 
L 190.284901 52.919096 
L 190.767479 52.611142 
L 191.250058 53.139064 
L 191.732636 52.039227 
L 192.215214 51.599292 
L 192.697793 52.171207 
L 193.180371 51.95124 
L 193.662949 52.435168 
L 194.145528 52.391174 
L 194.628106 51.467312 
L 195.593262 51.643286 
L 196.075841 50.983384 
L 196.558419 50.851404 
L 197.040997 51.467313 
L 197.523576 50.939391 
L 198.006154 50.80741 
L 198.488732 49.751568 
L 198.97131 50.191502 
L 199.453889 50.279489 
L 199.936467 49.26764 
L 200.419045 50.939391 
L 200.901624 50.807411 
L 201.384202 49.575594 
L 201.86678 49.311633 
L 202.349358 50.279489 
L 202.831937 49.751568 
L 203.314515 48.431764 
L 203.797093 48.915692 
L 204.279672 49.839554 
L 204.76225 50.015528 
L 205.727407 48.695725 
L 206.209985 46.848 
L 206.692563 49.971535 
L 207.175141 46.891994 
L 207.65772 48.519751 
L 208.140298 48.211797 
L 208.622876 48.255791 
L 209.105455 47.023974 
L 209.105455 47.023974 
" style="fill:none;stroke:#1f77b4;stroke-linecap:square;stroke-width:1.5;"/>
   </g>
   <g id="patch_3">
    <path d="M 57.6 159.744 
L 57.6 41.472 
" style="fill:none;stroke:#000000;stroke-linecap:square;stroke-linejoin:miter;stroke-width:0.8;"/>
   </g>
   <g id="patch_4">
    <path d="M 216.32 159.744 
L 216.32 41.472 
" style="fill:none;stroke:#000000;stroke-linecap:square;stroke-linejoin:miter;stroke-width:0.8;"/>
   </g>
   <g id="patch_5">
    <path d="M 57.6 159.744 
L 216.32 159.744 
" style="fill:none;stroke:#000000;stroke-linecap:square;stroke-linejoin:miter;stroke-width:0.8;"/>
   </g>
   <g id="patch_6">
    <path d="M 57.6 41.472 
L 216.32 41.472 
" style="fill:none;stroke:#000000;stroke-linecap:square;stroke-linejoin:miter;stroke-width:0.8;"/>
   </g>
   <g id="text_10">
    <!-- acc -->
    <defs>
     <path d="M 34.28125 27.484375 
Q 23.390625 27.484375 19.1875 25 
Q 14.984375 22.515625 14.984375 16.5 
Q 14.984375 11.71875 18.140625 8.90625 
Q 21.296875 6.109375 26.703125 6.109375 
Q 34.1875 6.109375 38.703125 11.40625 
Q 43.21875 16.703125 43.21875 25.484375 
L 43.21875 27.484375 
z
M 52.203125 31.203125 
L 52.203125 0 
L 43.21875 0 
L 43.21875 8.296875 
Q 40.140625 3.328125 35.546875 0.953125 
Q 30.953125 -1.421875 24.3125 -1.421875 
Q 15.921875 -1.421875 10.953125 3.296875 
Q 6 8.015625 6 15.921875 
Q 6 25.140625 12.171875 29.828125 
Q 18.359375 34.515625 30.609375 34.515625 
L 43.21875 34.515625 
L 43.21875 35.40625 
Q 43.21875 41.609375 39.140625 45 
Q 35.0625 48.390625 27.6875 48.390625 
Q 23 48.390625 18.546875 47.265625 
Q 14.109375 46.140625 10.015625 43.890625 
L 10.015625 52.203125 
Q 14.9375 54.109375 19.578125 55.046875 
Q 24.21875 56 28.609375 56 
Q 40.484375 56 46.34375 49.84375 
Q 52.203125 43.703125 52.203125 31.203125 
z
" id="DejaVuSans-61"/>
     <path d="M 48.78125 52.59375 
L 48.78125 44.1875 
Q 44.96875 46.296875 41.140625 47.34375 
Q 37.3125 48.390625 33.40625 48.390625 
Q 24.65625 48.390625 19.8125 42.84375 
Q 14.984375 37.3125 14.984375 27.296875 
Q 14.984375 17.28125 19.8125 11.734375 
Q 24.65625 6.203125 33.40625 6.203125 
Q 37.3125 6.203125 41.140625 7.25 
Q 44.96875 8.296875 48.78125 10.40625 
L 48.78125 2.09375 
Q 45.015625 0.34375 40.984375 -0.53125 
Q 36.96875 -1.421875 32.421875 -1.421875 
Q 20.0625 -1.421875 12.78125 6.34375 
Q 5.515625 14.109375 5.515625 27.296875 
Q 5.515625 40.671875 12.859375 48.328125 
Q 20.21875 56 33.015625 56 
Q 37.15625 56 41.109375 55.140625 
Q 45.0625 54.296875 48.78125 52.59375 
z
" id="DejaVuSans-63"/>
    </defs>
    <g transform="translate(126.685 35.472)scale(0.12 -0.12)">
     <use xlink:href="#DejaVuSans-61"/>
     <use x="61.279297" xlink:href="#DejaVuSans-63"/>
     <use x="116.259766" xlink:href="#DejaVuSans-63"/>
    </g>
   </g>
  </g>
  <g id="axes_2">
   <g id="patch_7">
    <path d="M 256 159.744 
L 414.72 159.744 
L 414.72 41.472 
L 256 41.472 
z
" style="fill:#ffffff;"/>
   </g>
   <g id="matplotlib.axis_3">
    <g id="xtick_5">
     <g id="line2d_20">
      <path clip-path="url(#pf215bb7554)" d="M 263.214545 159.744 
L 263.214545 41.472 
" style="fill:none;stroke:#b0b0b0;stroke-linecap:square;stroke-width:0.8;"/>
     </g>
     <g id="line2d_21">
      <g>
       <use style="stroke:#000000;stroke-width:0.8;" x="263.214545" xlink:href="#me4c30ddaa4" y="159.744"/>
      </g>
     </g>
     <g id="text_11">
      <!-- 0 -->
      <g transform="translate(260.033295 174.342437)scale(0.1 -0.1)">
       <use xlink:href="#DejaVuSans-30"/>
      </g>
     </g>
    </g>
    <g id="xtick_6">
     <g id="line2d_22">
      <path clip-path="url(#pf215bb7554)" d="M 311.472375 159.744 
L 311.472375 41.472 
" style="fill:none;stroke:#b0b0b0;stroke-linecap:square;stroke-width:0.8;"/>
     </g>
     <g id="line2d_23">
      <g>
       <use style="stroke:#000000;stroke-width:0.8;" x="311.472375" xlink:href="#me4c30ddaa4" y="159.744"/>
      </g>
     </g>
     <g id="text_12">
      <!-- 100 -->
      <g transform="translate(301.928625 174.342437)scale(0.1 -0.1)">
       <use xlink:href="#DejaVuSans-31"/>
       <use x="63.623047" xlink:href="#DejaVuSans-30"/>
       <use x="127.246094" xlink:href="#DejaVuSans-30"/>
      </g>
     </g>
    </g>
    <g id="xtick_7">
     <g id="line2d_24">
      <path clip-path="url(#pf215bb7554)" d="M 359.730204 159.744 
L 359.730204 41.472 
" style="fill:none;stroke:#b0b0b0;stroke-linecap:square;stroke-width:0.8;"/>
     </g>
     <g id="line2d_25">
      <g>
       <use style="stroke:#000000;stroke-width:0.8;" x="359.730204" xlink:href="#me4c30ddaa4" y="159.744"/>
      </g>
     </g>
     <g id="text_13">
      <!-- 200 -->
      <g transform="translate(350.186454 174.342437)scale(0.1 -0.1)">
       <use xlink:href="#DejaVuSans-32"/>
       <use x="63.623047" xlink:href="#DejaVuSans-30"/>
       <use x="127.246094" xlink:href="#DejaVuSans-30"/>
      </g>
     </g>
    </g>
    <g id="xtick_8">
     <g id="line2d_26">
      <path clip-path="url(#pf215bb7554)" d="M 407.988033 159.744 
L 407.988033 41.472 
" style="fill:none;stroke:#b0b0b0;stroke-linecap:square;stroke-width:0.8;"/>
     </g>
     <g id="line2d_27">
      <g>
       <use style="stroke:#000000;stroke-width:0.8;" x="407.988033" xlink:href="#me4c30ddaa4" y="159.744"/>
      </g>
     </g>
     <g id="text_14">
      <!-- 300 -->
      <g transform="translate(398.444283 174.342437)scale(0.1 -0.1)">
       <use xlink:href="#DejaVuSans-33"/>
       <use x="63.623047" xlink:href="#DejaVuSans-30"/>
       <use x="127.246094" xlink:href="#DejaVuSans-30"/>
      </g>
     </g>
    </g>
   </g>
   <g id="matplotlib.axis_4">
    <g id="ytick_6">
     <g id="line2d_28">
      <path clip-path="url(#pf215bb7554)" d="M 256 125.158745 
L 414.72 125.158745 
" style="fill:none;stroke:#b0b0b0;stroke-linecap:square;stroke-width:0.8;"/>
     </g>
     <g id="line2d_29">
      <g>
       <use style="stroke:#000000;stroke-width:0.8;" x="256" xlink:href="#md3badb77d9" y="125.158745"/>
      </g>
     </g>
     <g id="text_15">
      <!-- 2 -->
      <g transform="translate(242.6375 128.957964)scale(0.1 -0.1)">
       <use xlink:href="#DejaVuSans-32"/>
      </g>
     </g>
    </g>
    <g id="ytick_7">
     <g id="line2d_30">
      <path clip-path="url(#pf215bb7554)" d="M 256 81.033326 
L 414.72 81.033326 
" style="fill:none;stroke:#b0b0b0;stroke-linecap:square;stroke-width:0.8;"/>
     </g>
     <g id="line2d_31">
      <g>
       <use style="stroke:#000000;stroke-width:0.8;" x="256" xlink:href="#md3badb77d9" y="81.033326"/>
      </g>
     </g>
     <g id="text_16">
      <!-- 4 -->
      <g transform="translate(242.6375 84.832545)scale(0.1 -0.1)">
       <use xlink:href="#DejaVuSans-34"/>
      </g>
     </g>
    </g>
   </g>
   <g id="line2d_32">
    <path clip-path="url(#pf215bb7554)" d="M 263.214545 46.848 
L 263.697124 47.13443 
L 264.179702 48.715931 
L 264.66228 52.796397 
L 265.144859 58.188152 
L 266.110015 65.249772 
L 268.522907 76.188795 
L 269.970642 83.481802 
L 271.418376 90.398989 
L 272.866111 95.689494 
L 275.279003 102.163863 
L 276.244159 104.095126 
L 276.726738 105.114699 
L 277.209316 105.70601 
L 278.174472 107.344629 
L 279.139629 108.422899 
L 279.622207 109.305281 
L 280.587364 110.099953 
L 281.069942 110.847815 
L 281.552521 111.363168 
L 282.035099 112.069479 
L 282.517677 112.509466 
L 283.482834 113.146307 
L 283.965412 113.900938 
L 284.44799 114.152183 
L 284.930569 114.736947 
L 285.413147 114.947048 
L 285.895725 115.688866 
L 286.378303 115.677626 
L 286.860882 115.961494 
L 287.34346 116.65846 
L 287.826038 116.741483 
L 288.308617 117.403748 
L 288.791195 117.290535 
L 289.273773 118.000623 
L 291.686665 119.061139 
L 292.651821 119.891954 
L 293.1344 119.816342 
L 293.616978 120.093257 
L 294.099556 120.625547 
L 294.582134 120.740798 
L 295.064713 121.337093 
L 295.547291 120.992534 
L 296.029869 121.458052 
L 296.512448 121.610448 
L 296.995026 122.33274 
L 297.477604 121.934208 
L 297.960182 122.471294 
L 298.442761 122.596835 
L 298.925339 122.987215 
L 300.855652 123.864962 
L 301.33823 124.393061 
L 301.820809 124.271982 
L 302.303387 124.376634 
L 302.785965 124.873432 
L 303.751122 125.306438 
L 304.2337 125.635758 
L 304.716279 125.707158 
L 305.681435 126.352004 
L 306.164013 126.354969 
L 306.646592 126.484066 
L 307.12917 126.846123 
L 307.611748 127.494375 
L 308.094327 127.530307 
L 308.576905 127.324837 
L 309.059483 128.124963 
L 309.542061 127.964148 
L 310.02464 128.097972 
L 310.507218 128.612419 
L 310.989796 128.309527 
L 311.472375 128.829539 
L 312.437531 129.46024 
L 312.920109 129.41161 
L 314.367844 130.594431 
L 314.850423 130.280934 
L 315.815579 130.927838 
L 316.298157 131.067475 
L 317.745892 131.935165 
L 318.228471 131.920143 
L 318.711049 132.150106 
L 319.193627 132.178358 
L 319.676206 132.72203 
L 320.158784 132.835346 
L 320.641362 133.244207 
L 321.606519 133.330473 
L 322.089097 133.870175 
L 322.571675 133.763195 
L 323.536832 134.536775 
L 324.01941 134.27539 
L 324.501988 134.879216 
L 324.984567 134.822946 
L 325.467145 135.252824 
L 325.949723 135.06728 
L 326.432302 135.336772 
L 326.91488 135.787705 
L 327.397458 135.838078 
L 327.880036 136.242358 
L 328.362615 136.077881 
L 328.845193 136.407591 
L 329.327771 136.506491 
L 329.81035 136.885454 
L 330.292928 136.80556 
L 330.775506 137.370719 
L 331.258085 136.980085 
L 331.740663 137.68202 
L 332.223241 137.34615 
L 333.670976 137.961583 
L 334.636133 138.601565 
L 335.118711 137.831506 
L 335.601289 138.807097 
L 336.083867 138.906429 
L 336.566446 138.594856 
L 337.049024 139.052485 
L 337.531602 139.223988 
L 338.496759 139.375156 
L 338.979337 139.79016 
L 340.427072 140.023261 
L 340.90965 140.475597 
L 341.392229 140.235974 
L 341.874807 140.747391 
L 342.357385 140.723717 
L 342.839964 140.555548 
L 343.322542 140.999439 
L 343.80512 141.037966 
L 344.287698 141.277658 
L 344.770277 141.319035 
L 345.252855 141.701594 
L 345.735433 141.629483 
L 346.218012 141.855983 
L 346.70059 141.668912 
L 347.183168 142.003952 
L 349.113481 142.689519 
L 349.59606 142.474792 
L 350.078638 142.638766 
L 350.561216 142.958216 
L 351.526373 143.171087 
L 352.008951 143.221095 
L 352.491529 143.705892 
L 352.974108 143.359633 
L 353.939264 143.82568 
L 354.421843 143.455013 
L 354.904421 144.241784 
L 355.869577 144.261445 
L 356.352156 144.374547 
L 356.834734 144.878281 
L 357.317312 144.459055 
L 358.282469 144.976111 
L 359.247625 145.139625 
L 359.730204 144.980348 
L 360.69536 145.519383 
L 361.177939 145.308813 
L 361.660517 145.789459 
L 362.143095 145.543181 
L 362.625673 145.779869 
L 363.108252 145.801037 
L 363.59083 146.328227 
L 365.038565 146.186415 
L 366.003721 146.588286 
L 366.4863 146.547917 
L 366.968878 147.097226 
L 367.451456 146.809507 
L 367.934035 147.253895 
L 368.416613 147.008898 
L 368.899191 147.169092 
L 370.346926 147.218368 
L 370.829504 147.440497 
L 371.312083 148.035565 
L 371.794661 147.783073 
L 372.277239 147.662448 
L 372.759818 147.72922 
L 373.242396 148.263835 
L 373.724974 147.886489 
L 374.207552 148.402654 
L 374.690131 148.421241 
L 375.655287 148.746725 
L 376.137866 148.588662 
L 376.620444 148.807259 
L 377.103022 148.794591 
L 377.5856 149.213772 
L 378.068179 148.939924 
L 378.550757 149.221266 
L 379.033335 149.25234 
L 379.515914 149.571992 
L 379.998492 149.398354 
L 382.411383 150.02363 
L 382.893962 149.952365 
L 383.859118 150.419342 
L 384.824275 150.13507 
L 385.306853 150.760459 
L 385.789431 150.674887 
L 386.27201 150.828665 
L 386.754588 150.568607 
L 387.719745 150.901545 
L 388.202323 151.334171 
L 388.684901 151.088417 
L 389.167479 151.11926 
L 389.650058 151.521233 
L 390.132636 151.387125 
L 391.097793 151.901525 
L 392.062949 151.6809 
L 392.545528 151.722729 
L 394.475841 152.414441 
L 395.440997 152.248445 
L 395.923576 152.484015 
L 396.406154 152.459679 
L 396.888732 152.636331 
L 397.37131 152.568718 
L 397.853889 152.866233 
L 398.336467 152.914971 
L 399.301624 152.72925 
L 399.784202 153.126698 
L 400.26678 153.071761 
L 400.749358 152.832409 
L 401.231937 153.232086 
L 401.714515 153.348088 
L 402.197093 153.095761 
L 402.679672 153.168354 
L 404.127407 153.821029 
L 404.609985 154.243373 
L 405.092563 153.525608 
L 405.575141 153.943635 
L 406.540298 153.757261 
L 407.022876 154.212795 
L 407.505455 154.368 
L 407.505455 154.368 
" style="fill:none;stroke:#1f77b4;stroke-linecap:square;stroke-width:1.5;"/>
   </g>
   <g id="patch_8">
    <path d="M 256 159.744 
L 256 41.472 
" style="fill:none;stroke:#000000;stroke-linecap:square;stroke-linejoin:miter;stroke-width:0.8;"/>
   </g>
   <g id="patch_9">
    <path d="M 414.72 159.744 
L 414.72 41.472 
" style="fill:none;stroke:#000000;stroke-linecap:square;stroke-linejoin:miter;stroke-width:0.8;"/>
   </g>
   <g id="patch_10">
    <path d="M 256 159.744 
L 414.72 159.744 
" style="fill:none;stroke:#000000;stroke-linecap:square;stroke-linejoin:miter;stroke-width:0.8;"/>
   </g>
   <g id="patch_11">
    <path d="M 256 41.472 
L 414.72 41.472 
" style="fill:none;stroke:#000000;stroke-linecap:square;stroke-linejoin:miter;stroke-width:0.8;"/>
   </g>
   <g id="text_17">
    <!-- loss -->
    <defs>
     <path d="M 9.421875 75.984375 
L 18.40625 75.984375 
L 18.40625 0 
L 9.421875 0 
z
" id="DejaVuSans-6c"/>
     <path d="M 30.609375 48.390625 
Q 23.390625 48.390625 19.1875 42.75 
Q 14.984375 37.109375 14.984375 27.296875 
Q 14.984375 17.484375 19.15625 11.84375 
Q 23.34375 6.203125 30.609375 6.203125 
Q 37.796875 6.203125 41.984375 11.859375 
Q 46.1875 17.53125 46.1875 27.296875 
Q 46.1875 37.015625 41.984375 42.703125 
Q 37.796875 48.390625 30.609375 48.390625 
z
M 30.609375 56 
Q 42.328125 56 49.015625 48.375 
Q 55.71875 40.765625 55.71875 27.296875 
Q 55.71875 13.875 49.015625 6.21875 
Q 42.328125 -1.421875 30.609375 -1.421875 
Q 18.84375 -1.421875 12.171875 6.21875 
Q 5.515625 13.875 5.515625 27.296875 
Q 5.515625 40.765625 12.171875 48.375 
Q 18.84375 56 30.609375 56 
z
" id="DejaVuSans-6f"/>
     <path d="M 44.28125 53.078125 
L 44.28125 44.578125 
Q 40.484375 46.53125 36.375 47.5 
Q 32.28125 48.484375 27.875 48.484375 
Q 21.1875 48.484375 17.84375 46.4375 
Q 14.5 44.390625 14.5 40.28125 
Q 14.5 37.15625 16.890625 35.375 
Q 19.28125 33.59375 26.515625 31.984375 
L 29.59375 31.296875 
Q 39.15625 29.25 43.1875 25.515625 
Q 47.21875 21.78125 47.21875 15.09375 
Q 47.21875 7.46875 41.1875 3.015625 
Q 35.15625 -1.421875 24.609375 -1.421875 
Q 20.21875 -1.421875 15.453125 -0.5625 
Q 10.6875 0.296875 5.421875 2 
L 5.421875 11.28125 
Q 10.40625 8.6875 15.234375 7.390625 
Q 20.0625 6.109375 24.8125 6.109375 
Q 31.15625 6.109375 34.5625 8.28125 
Q 37.984375 10.453125 37.984375 14.40625 
Q 37.984375 18.0625 35.515625 20.015625 
Q 33.0625 21.96875 24.703125 23.78125 
L 21.578125 24.515625 
Q 13.234375 26.265625 9.515625 29.90625 
Q 5.8125 33.546875 5.8125 39.890625 
Q 5.8125 47.609375 11.28125 51.796875 
Q 16.75 56 26.8125 56 
Q 31.78125 56 36.171875 55.265625 
Q 40.578125 54.546875 44.28125 53.078125 
z
" id="DejaVuSans-73"/>
    </defs>
    <g transform="translate(323.770625 35.472)scale(0.12 -0.12)">
     <use xlink:href="#DejaVuSans-6c"/>
     <use x="27.783203" xlink:href="#DejaVuSans-6f"/>
     <use x="88.964844" xlink:href="#DejaVuSans-73"/>
     <use x="141.064453" xlink:href="#DejaVuSans-73"/>
    </g>
   </g>
  </g>
  <g id="axes_3">
   <g id="patch_12">
    <path d="M 57.6 307.584 
L 216.32 307.584 
L 216.32 189.312 
L 57.6 189.312 
z
" style="fill:#ffffff;"/>
   </g>
   <g id="matplotlib.axis_5">
    <g id="xtick_9">
     <g id="line2d_33">
      <path clip-path="url(#pd621aafa89)" d="M 64.814545 307.584 
L 64.814545 189.312 
" style="fill:none;stroke:#b0b0b0;stroke-linecap:square;stroke-width:0.8;"/>
     </g>
     <g id="line2d_34">
      <g>
       <use style="stroke:#000000;stroke-width:0.8;" x="64.814545" xlink:href="#me4c30ddaa4" y="307.584"/>
      </g>
     </g>
     <g id="text_18">
      <!-- 0 -->
      <g transform="translate(61.633295 322.182437)scale(0.1 -0.1)">
       <use xlink:href="#DejaVuSans-30"/>
      </g>
     </g>
    </g>
    <g id="xtick_10">
     <g id="line2d_35">
      <path clip-path="url(#pd621aafa89)" d="M 113.072375 307.584 
L 113.072375 189.312 
" style="fill:none;stroke:#b0b0b0;stroke-linecap:square;stroke-width:0.8;"/>
     </g>
     <g id="line2d_36">
      <g>
       <use style="stroke:#000000;stroke-width:0.8;" x="113.072375" xlink:href="#me4c30ddaa4" y="307.584"/>
      </g>
     </g>
     <g id="text_19">
      <!-- 100 -->
      <g transform="translate(103.528625 322.182437)scale(0.1 -0.1)">
       <use xlink:href="#DejaVuSans-31"/>
       <use x="63.623047" xlink:href="#DejaVuSans-30"/>
       <use x="127.246094" xlink:href="#DejaVuSans-30"/>
      </g>
     </g>
    </g>
    <g id="xtick_11">
     <g id="line2d_37">
      <path clip-path="url(#pd621aafa89)" d="M 161.330204 307.584 
L 161.330204 189.312 
" style="fill:none;stroke:#b0b0b0;stroke-linecap:square;stroke-width:0.8;"/>
     </g>
     <g id="line2d_38">
      <g>
       <use style="stroke:#000000;stroke-width:0.8;" x="161.330204" xlink:href="#me4c30ddaa4" y="307.584"/>
      </g>
     </g>
     <g id="text_20">
      <!-- 200 -->
      <g transform="translate(151.786454 322.182437)scale(0.1 -0.1)">
       <use xlink:href="#DejaVuSans-32"/>
       <use x="63.623047" xlink:href="#DejaVuSans-30"/>
       <use x="127.246094" xlink:href="#DejaVuSans-30"/>
      </g>
     </g>
    </g>
    <g id="xtick_12">
     <g id="line2d_39">
      <path clip-path="url(#pd621aafa89)" d="M 209.588033 307.584 
L 209.588033 189.312 
" style="fill:none;stroke:#b0b0b0;stroke-linecap:square;stroke-width:0.8;"/>
     </g>
     <g id="line2d_40">
      <g>
       <use style="stroke:#000000;stroke-width:0.8;" x="209.588033" xlink:href="#me4c30ddaa4" y="307.584"/>
      </g>
     </g>
     <g id="text_21">
      <!-- 300 -->
      <g transform="translate(200.044283 322.182437)scale(0.1 -0.1)">
       <use xlink:href="#DejaVuSans-33"/>
       <use x="63.623047" xlink:href="#DejaVuSans-30"/>
       <use x="127.246094" xlink:href="#DejaVuSans-30"/>
      </g>
     </g>
    </g>
   </g>
   <g id="matplotlib.axis_6">
    <g id="ytick_8">
     <g id="line2d_41">
      <path clip-path="url(#pd621aafa89)" d="M 57.6 302.208 
L 216.32 302.208 
" style="fill:none;stroke:#b0b0b0;stroke-linecap:square;stroke-width:0.8;"/>
     </g>
     <g id="line2d_42">
      <g>
       <use style="stroke:#000000;stroke-width:0.8;" x="57.6" xlink:href="#md3badb77d9" y="302.208"/>
      </g>
     </g>
     <g id="text_22">
      <!-- 0.0 -->
      <g transform="translate(34.696875 306.007219)scale(0.1 -0.1)">
       <use xlink:href="#DejaVuSans-30"/>
       <use x="63.623047" xlink:href="#DejaVuSans-2e"/>
       <use x="95.410156" xlink:href="#DejaVuSans-30"/>
      </g>
     </g>
    </g>
    <g id="ytick_9">
     <g id="line2d_43">
      <path clip-path="url(#pd621aafa89)" d="M 57.6 272.769369 
L 216.32 272.769369 
" style="fill:none;stroke:#b0b0b0;stroke-linecap:square;stroke-width:0.8;"/>
     </g>
     <g id="line2d_44">
      <g>
       <use style="stroke:#000000;stroke-width:0.8;" x="57.6" xlink:href="#md3badb77d9" y="272.769369"/>
      </g>
     </g>
     <g id="text_23">
      <!-- 0.2 -->
      <g transform="translate(34.696875 276.568588)scale(0.1 -0.1)">
       <use xlink:href="#DejaVuSans-30"/>
       <use x="63.623047" xlink:href="#DejaVuSans-2e"/>
       <use x="95.410156" xlink:href="#DejaVuSans-32"/>
      </g>
     </g>
    </g>
    <g id="ytick_10">
     <g id="line2d_45">
      <path clip-path="url(#pd621aafa89)" d="M 57.6 243.330738 
L 216.32 243.330738 
" style="fill:none;stroke:#b0b0b0;stroke-linecap:square;stroke-width:0.8;"/>
     </g>
     <g id="line2d_46">
      <g>
       <use style="stroke:#000000;stroke-width:0.8;" x="57.6" xlink:href="#md3badb77d9" y="243.330738"/>
      </g>
     </g>
     <g id="text_24">
      <!-- 0.4 -->
      <g transform="translate(34.696875 247.129957)scale(0.1 -0.1)">
       <use xlink:href="#DejaVuSans-30"/>
       <use x="63.623047" xlink:href="#DejaVuSans-2e"/>
       <use x="95.410156" xlink:href="#DejaVuSans-34"/>
      </g>
     </g>
    </g>
    <g id="ytick_11">
     <g id="line2d_47">
      <path clip-path="url(#pd621aafa89)" d="M 57.6 213.892108 
L 216.32 213.892108 
" style="fill:none;stroke:#b0b0b0;stroke-linecap:square;stroke-width:0.8;"/>
     </g>
     <g id="line2d_48">
      <g>
       <use style="stroke:#000000;stroke-width:0.8;" x="57.6" xlink:href="#md3badb77d9" y="213.892108"/>
      </g>
     </g>
     <g id="text_25">
      <!-- 0.6 -->
      <g transform="translate(34.696875 217.691326)scale(0.1 -0.1)">
       <use xlink:href="#DejaVuSans-30"/>
       <use x="63.623047" xlink:href="#DejaVuSans-2e"/>
       <use x="95.410156" xlink:href="#DejaVuSans-36"/>
      </g>
     </g>
    </g>
   </g>
   <g id="line2d_49">
    <path clip-path="url(#pd621aafa89)" d="M 64.814545 302.208 
L 65.297124 301.633027 
L 65.779702 301.633027 
L 66.26228 299.908107 
L 66.744859 299.908107 
L 67.227437 295.308321 
L 67.710015 295.308321 
L 68.192593 294.733348 
L 68.675172 293.008428 
L 69.15775 292.433454 
L 69.640328 291.283508 
L 70.122907 288.983615 
L 72.05322 284.383829 
L 72.535798 284.958802 
L 73.018376 277.484149 
L 73.500955 273.459337 
L 73.983533 277.484149 
L 74.466111 277.484149 
L 74.94869 279.209069 
L 75.431268 268.85955 
L 75.913846 274.609283 
L 76.396424 275.759229 
L 76.879003 266.559657 
L 77.361581 272.30939 
L 77.844159 272.884363 
L 78.326738 268.284577 
L 78.809316 268.85955 
L 79.291894 265.984684 
L 79.774472 269.434524 
L 80.257051 265.984684 
L 80.739629 264.259764 
L 81.222207 261.959871 
L 81.704786 263.109818 
L 82.187364 268.284577 
L 82.669942 264.259763 
L 83.152521 255.060192 
L 83.635099 266.559657 
L 84.117677 263.684791 
L 84.600255 261.959871 
L 85.082834 264.834738 
L 85.565412 263.109817 
L 86.04799 259.659978 
L 86.530569 261.384898 
L 87.013147 264.834738 
L 87.495725 255.635165 
L 87.978303 259.659977 
L 88.460882 259.085004 
L 88.94346 263.68479 
L 89.426038 259.659978 
L 89.908617 252.760299 
L 90.391195 258.510032 
L 90.873773 255.635166 
L 91.356351 259.085005 
L 91.83893 257.360085 
L 92.321508 259.085005 
L 92.804086 251.610352 
L 93.286665 252.760299 
L 93.769243 256.785112 
L 94.251821 258.510031 
L 94.7344 249.310459 
L 95.216978 251.610352 
L 95.699556 255.635165 
L 96.182134 255.635165 
L 96.664713 249.885433 
L 97.147291 252.760299 
L 97.629869 249.31046 
L 98.112448 253.910246 
L 98.595026 249.310459 
L 99.077604 252.185325 
L 99.560182 246.435592 
L 100.042761 245.285647 
L 100.525339 249.310459 
L 101.007917 252.185326 
L 101.490496 247.58554 
L 101.973074 249.885433 
L 102.455652 248.735486 
L 102.93823 247.010567 
L 103.420809 247.010566 
L 103.903387 245.285646 
L 104.385965 251.035379 
L 104.868544 239.535914 
L 105.351122 247.585539 
L 105.8337 247.010566 
L 106.316279 242.410781 
L 106.798857 241.260833 
L 107.281435 242.41078 
L 107.764013 242.985753 
L 108.246592 237.810994 
L 108.72917 244.710674 
L 109.211748 240.685861 
L 109.694327 242.410781 
L 110.176905 236.661048 
L 110.659483 245.860619 
L 111.142061 236.086074 
L 111.62464 240.68586 
L 112.107218 241.260834 
L 112.589796 239.535914 
L 113.072375 239.535914 
L 113.554953 241.260834 
L 114.037531 244.710674 
L 114.520109 236.086075 
L 115.002688 238.960941 
L 115.485266 237.810994 
L 115.967844 235.511102 
L 116.933001 240.685861 
L 117.415579 234.936128 
L 117.898157 236.661048 
L 118.380736 234.936128 
L 118.863314 232.061261 
L 119.345892 233.211208 
L 119.828471 232.061262 
L 120.311049 237.810994 
L 120.793627 231.486289 
L 121.276206 228.611422 
L 121.758784 232.061261 
L 122.241362 234.361154 
L 122.72394 229.186396 
L 123.206519 231.486289 
L 123.689097 231.486288 
L 124.171675 232.636235 
L 124.654254 233.211209 
L 125.136832 236.661048 
L 125.61941 235.511101 
L 126.101988 233.211208 
L 126.584567 225.736554 
L 127.067145 233.786181 
L 127.549723 230.336342 
L 128.032302 231.486289 
L 128.51488 230.336341 
L 128.997458 220.561796 
L 129.480036 232.061262 
L 129.962615 224.011635 
L 130.927771 230.336342 
L 131.41035 236.086074 
L 132.375506 229.761369 
L 132.858085 228.611422 
L 133.340663 222.286715 
L 133.823241 229.761369 
L 134.305819 226.311529 
L 134.788398 228.611423 
L 135.270976 220.561796 
L 135.753554 226.886503 
L 136.236133 219.411848 
L 136.718711 224.586609 
L 137.201289 231.486288 
L 137.683867 224.586609 
L 138.166446 220.561795 
L 138.649024 220.561796 
L 139.131602 222.286715 
L 139.614181 225.736555 
L 140.096759 222.286715 
L 140.579337 222.286716 
L 141.061915 226.311529 
L 141.544494 217.111957 
L 142.027072 230.911315 
L 142.50965 224.586608 
L 142.992229 222.86169 
L 143.474807 228.036449 
L 143.957385 226.311528 
L 144.439964 222.286714 
L 144.922542 225.736555 
L 145.40512 220.561796 
L 145.887698 217.68693 
L 146.852855 222.286715 
L 147.335433 221.136769 
L 147.818012 221.711741 
L 148.30059 216.536982 
L 148.783168 231.486289 
L 149.265746 221.711741 
L 149.748325 226.311529 
L 150.230903 215.96201 
L 151.678638 214.23709 
L 152.161216 221.711742 
L 152.643794 222.86169 
L 153.126373 215.387037 
L 153.608951 209.637303 
L 154.091529 223.436663 
L 155.056686 216.536983 
L 155.539264 217.111955 
L 156.504421 215.96201 
L 156.986999 217.686929 
L 157.469577 212.512169 
L 157.952156 212.51217 
L 158.434734 219.411849 
L 159.399891 211.937196 
L 159.882469 216.536983 
L 160.365047 218.261903 
L 160.847625 208.487357 
L 161.330204 218.261904 
L 161.812782 214.237088 
L 162.29536 211.362223 
L 162.777939 214.23709 
L 163.260517 214.812063 
L 163.743095 213.662116 
L 164.225673 206.762437 
L 164.708252 211.362222 
L 165.673408 225.736555 
L 166.155987 210.78725 
L 166.638565 204.462544 
L 167.121143 205.612491 
L 167.603721 215.387036 
L 168.0863 210.212276 
L 168.568878 217.111956 
L 169.051456 209.062329 
L 169.534035 207.912384 
L 170.016613 207.337411 
L 170.499191 210.78725 
L 170.98177 209.637305 
L 171.464348 217.686929 
L 171.946926 215.387036 
L 172.429504 213.662117 
L 172.912083 209.062329 
L 173.394661 207.912383 
L 173.877239 206.187465 
L 174.359818 219.411848 
L 174.842396 210.78725 
L 175.324974 207.33741 
L 175.807552 209.062331 
L 176.290131 215.387037 
L 176.772709 206.187464 
L 177.255287 203.312598 
L 178.220444 206.762436 
L 178.703022 203.312596 
L 179.1856 209.637304 
L 179.668179 207.912384 
L 180.150757 209.637303 
L 180.633335 220.561795 
L 181.115914 208.487357 
L 181.598492 209.637305 
L 182.08107 210.212276 
L 182.563649 208.487357 
L 183.046227 206.187464 
L 183.528805 203.312599 
L 184.011383 207.337411 
L 184.493962 210.212278 
L 185.459118 203.887571 
L 185.941697 202.737622 
L 186.424275 204.462546 
L 186.906853 202.16265 
L 187.389431 205.612491 
L 187.87201 214.23709 
L 188.354588 205.037519 
L 188.837166 203.312596 
L 189.319745 205.612491 
L 190.284901 200.437732 
L 190.767479 202.16265 
L 191.250058 202.162651 
L 191.732636 206.762438 
L 192.215214 205.612491 
L 192.697793 206.187464 
L 193.180371 206.187465 
L 193.662949 206.762437 
L 194.145528 206.187464 
L 194.628106 216.536982 
L 195.110684 208.487357 
L 195.593262 213.087143 
L 196.075841 205.037519 
L 196.558419 207.337411 
L 197.040997 210.212277 
L 197.523576 206.187465 
L 198.006154 203.312597 
L 198.488732 207.33741 
L 198.97131 209.637303 
L 199.453889 206.187463 
L 199.936467 195.837945 
L 200.419045 197.562865 
L 200.901624 202.737623 
L 201.384202 201.587678 
L 201.86678 213.662117 
L 202.349358 205.61249 
L 202.831937 202.737625 
L 203.314515 204.462545 
L 203.797093 198.712811 
L 204.279672 199.287786 
L 204.76225 203.88757 
L 205.244828 196.987891 
L 205.727407 197.562865 
L 206.209985 205.612491 
L 206.692563 194.688 
L 207.175141 198.137838 
L 208.140298 202.737625 
L 208.622876 196.987892 
L 209.105455 201.012705 
L 209.105455 201.012705 
" style="fill:none;stroke:#1f77b4;stroke-linecap:square;stroke-width:1.5;"/>
   </g>
   <g id="patch_13">
    <path d="M 57.6 307.584 
L 57.6 189.312 
" style="fill:none;stroke:#000000;stroke-linecap:square;stroke-linejoin:miter;stroke-width:0.8;"/>
   </g>
   <g id="patch_14">
    <path d="M 216.32 307.584 
L 216.32 189.312 
" style="fill:none;stroke:#000000;stroke-linecap:square;stroke-linejoin:miter;stroke-width:0.8;"/>
   </g>
   <g id="patch_15">
    <path d="M 57.6 307.584 
L 216.32 307.584 
" style="fill:none;stroke:#000000;stroke-linecap:square;stroke-linejoin:miter;stroke-width:0.8;"/>
   </g>
   <g id="patch_16">
    <path d="M 57.6 189.312 
L 216.32 189.312 
" style="fill:none;stroke:#000000;stroke-linecap:square;stroke-linejoin:miter;stroke-width:0.8;"/>
   </g>
   <g id="text_26">
    <!-- val_acc -->
    <defs>
     <path d="M 2.984375 54.6875 
L 12.5 54.6875 
L 29.59375 8.796875 
L 46.6875 54.6875 
L 56.203125 54.6875 
L 35.6875 0 
L 23.484375 0 
z
" id="DejaVuSans-76"/>
     <path d="M 50.984375 -16.609375 
L 50.984375 -23.578125 
L -0.984375 -23.578125 
L -0.984375 -16.609375 
z
" id="DejaVuSans-5f"/>
    </defs>
    <g transform="translate(114.79 183.312)scale(0.12 -0.12)">
     <use xlink:href="#DejaVuSans-76"/>
     <use x="59.179688" xlink:href="#DejaVuSans-61"/>
     <use x="120.458984" xlink:href="#DejaVuSans-6c"/>
     <use x="148.242188" xlink:href="#DejaVuSans-5f"/>
     <use x="198.242188" xlink:href="#DejaVuSans-61"/>
     <use x="259.521484" xlink:href="#DejaVuSans-63"/>
     <use x="314.501953" xlink:href="#DejaVuSans-63"/>
    </g>
   </g>
  </g>
  <g id="axes_4">
   <g id="patch_17">
    <path d="M 256 307.584 
L 414.72 307.584 
L 414.72 189.312 
L 256 189.312 
z
" style="fill:#ffffff;"/>
   </g>
   <g id="matplotlib.axis_7">
    <g id="xtick_13">
     <g id="line2d_50">
      <path clip-path="url(#pf3dc21679b)" d="M 263.214545 307.584 
L 263.214545 189.312 
" style="fill:none;stroke:#b0b0b0;stroke-linecap:square;stroke-width:0.8;"/>
     </g>
     <g id="line2d_51">
      <g>
       <use style="stroke:#000000;stroke-width:0.8;" x="263.214545" xlink:href="#me4c30ddaa4" y="307.584"/>
      </g>
     </g>
     <g id="text_27">
      <!-- 0 -->
      <g transform="translate(260.033295 322.182437)scale(0.1 -0.1)">
       <use xlink:href="#DejaVuSans-30"/>
      </g>
     </g>
    </g>
    <g id="xtick_14">
     <g id="line2d_52">
      <path clip-path="url(#pf3dc21679b)" d="M 311.472375 307.584 
L 311.472375 189.312 
" style="fill:none;stroke:#b0b0b0;stroke-linecap:square;stroke-width:0.8;"/>
     </g>
     <g id="line2d_53">
      <g>
       <use style="stroke:#000000;stroke-width:0.8;" x="311.472375" xlink:href="#me4c30ddaa4" y="307.584"/>
      </g>
     </g>
     <g id="text_28">
      <!-- 100 -->
      <g transform="translate(301.928625 322.182437)scale(0.1 -0.1)">
       <use xlink:href="#DejaVuSans-31"/>
       <use x="63.623047" xlink:href="#DejaVuSans-30"/>
       <use x="127.246094" xlink:href="#DejaVuSans-30"/>
      </g>
     </g>
    </g>
    <g id="xtick_15">
     <g id="line2d_54">
      <path clip-path="url(#pf3dc21679b)" d="M 359.730204 307.584 
L 359.730204 189.312 
" style="fill:none;stroke:#b0b0b0;stroke-linecap:square;stroke-width:0.8;"/>
     </g>
     <g id="line2d_55">
      <g>
       <use style="stroke:#000000;stroke-width:0.8;" x="359.730204" xlink:href="#me4c30ddaa4" y="307.584"/>
      </g>
     </g>
     <g id="text_29">
      <!-- 200 -->
      <g transform="translate(350.186454 322.182437)scale(0.1 -0.1)">
       <use xlink:href="#DejaVuSans-32"/>
       <use x="63.623047" xlink:href="#DejaVuSans-30"/>
       <use x="127.246094" xlink:href="#DejaVuSans-30"/>
      </g>
     </g>
    </g>
    <g id="xtick_16">
     <g id="line2d_56">
      <path clip-path="url(#pf3dc21679b)" d="M 407.988033 307.584 
L 407.988033 189.312 
" style="fill:none;stroke:#b0b0b0;stroke-linecap:square;stroke-width:0.8;"/>
     </g>
     <g id="line2d_57">
      <g>
       <use style="stroke:#000000;stroke-width:0.8;" x="407.988033" xlink:href="#me4c30ddaa4" y="307.584"/>
      </g>
     </g>
     <g id="text_30">
      <!-- 300 -->
      <g transform="translate(398.444283 322.182437)scale(0.1 -0.1)">
       <use xlink:href="#DejaVuSans-33"/>
       <use x="63.623047" xlink:href="#DejaVuSans-30"/>
       <use x="127.246094" xlink:href="#DejaVuSans-30"/>
      </g>
     </g>
    </g>
   </g>
   <g id="matplotlib.axis_8">
    <g id="ytick_12">
     <g id="line2d_58">
      <path clip-path="url(#pf3dc21679b)" d="M 256 303.290521 
L 414.72 303.290521 
" style="fill:none;stroke:#b0b0b0;stroke-linecap:square;stroke-width:0.8;"/>
     </g>
     <g id="line2d_59">
      <g>
       <use style="stroke:#000000;stroke-width:0.8;" x="256" xlink:href="#md3badb77d9" y="303.290521"/>
      </g>
     </g>
     <g id="text_31">
      <!-- 1 -->
      <g transform="translate(242.6375 307.08974)scale(0.1 -0.1)">
       <use xlink:href="#DejaVuSans-31"/>
      </g>
     </g>
    </g>
    <g id="ytick_13">
     <g id="line2d_60">
      <path clip-path="url(#pf3dc21679b)" d="M 256 279.392546 
L 414.72 279.392546 
" style="fill:none;stroke:#b0b0b0;stroke-linecap:square;stroke-width:0.8;"/>
     </g>
     <g id="line2d_61">
      <g>
       <use style="stroke:#000000;stroke-width:0.8;" x="256" xlink:href="#md3badb77d9" y="279.392546"/>
      </g>
     </g>
     <g id="text_32">
      <!-- 2 -->
      <g transform="translate(242.6375 283.191765)scale(0.1 -0.1)">
       <use xlink:href="#DejaVuSans-32"/>
      </g>
     </g>
    </g>
    <g id="ytick_14">
     <g id="line2d_62">
      <path clip-path="url(#pf3dc21679b)" d="M 256 255.494571 
L 414.72 255.494571 
" style="fill:none;stroke:#b0b0b0;stroke-linecap:square;stroke-width:0.8;"/>
     </g>
     <g id="line2d_63">
      <g>
       <use style="stroke:#000000;stroke-width:0.8;" x="256" xlink:href="#md3badb77d9" y="255.494571"/>
      </g>
     </g>
     <g id="text_33">
      <!-- 3 -->
      <g transform="translate(242.6375 259.29379)scale(0.1 -0.1)">
       <use xlink:href="#DejaVuSans-33"/>
      </g>
     </g>
    </g>
    <g id="ytick_15">
     <g id="line2d_64">
      <path clip-path="url(#pf3dc21679b)" d="M 256 231.596596 
L 414.72 231.596596 
" style="fill:none;stroke:#b0b0b0;stroke-linecap:square;stroke-width:0.8;"/>
     </g>
     <g id="line2d_65">
      <g>
       <use style="stroke:#000000;stroke-width:0.8;" x="256" xlink:href="#md3badb77d9" y="231.596596"/>
      </g>
     </g>
     <g id="text_34">
      <!-- 4 -->
      <g transform="translate(242.6375 235.395815)scale(0.1 -0.1)">
       <use xlink:href="#DejaVuSans-34"/>
      </g>
     </g>
    </g>
    <g id="ytick_16">
     <g id="line2d_66">
      <path clip-path="url(#pf3dc21679b)" d="M 256 207.698621 
L 414.72 207.698621 
" style="fill:none;stroke:#b0b0b0;stroke-linecap:square;stroke-width:0.8;"/>
     </g>
     <g id="line2d_67">
      <g>
       <use style="stroke:#000000;stroke-width:0.8;" x="256" xlink:href="#md3badb77d9" y="207.698621"/>
      </g>
     </g>
     <g id="text_35">
      <!-- 5 -->
      <defs>
       <path d="M 10.796875 72.90625 
L 49.515625 72.90625 
L 49.515625 64.59375 
L 19.828125 64.59375 
L 19.828125 46.734375 
Q 21.96875 47.46875 24.109375 47.828125 
Q 26.265625 48.1875 28.421875 48.1875 
Q 40.625 48.1875 47.75 41.5 
Q 54.890625 34.8125 54.890625 23.390625 
Q 54.890625 11.625 47.5625 5.09375 
Q 40.234375 -1.421875 26.90625 -1.421875 
Q 22.3125 -1.421875 17.546875 -0.640625 
Q 12.796875 0.140625 7.71875 1.703125 
L 7.71875 11.625 
Q 12.109375 9.234375 16.796875 8.0625 
Q 21.484375 6.890625 26.703125 6.890625 
Q 35.15625 6.890625 40.078125 11.328125 
Q 45.015625 15.765625 45.015625 23.390625 
Q 45.015625 31 40.078125 35.4375 
Q 35.15625 39.890625 26.703125 39.890625 
Q 22.75 39.890625 18.8125 39.015625 
Q 14.890625 38.140625 10.796875 36.28125 
z
" id="DejaVuSans-35"/>
      </defs>
      <g transform="translate(242.6375 211.49784)scale(0.1 -0.1)">
       <use xlink:href="#DejaVuSans-35"/>
      </g>
     </g>
    </g>
   </g>
   <g id="line2d_68">
    <path clip-path="url(#pf3dc21679b)" d="M 263.214545 194.688 
L 263.697124 195.417802 
L 264.179702 197.777575 
L 265.144859 208.247437 
L 266.110015 214.731124 
L 267.075172 219.089644 
L 267.55775 220.626314 
L 269.488063 230.436358 
L 269.970642 231.94426 
L 270.45322 234.963466 
L 272.383533 242.890556 
L 272.866111 244.610618 
L 273.34869 244.608456 
L 273.831268 247.260627 
L 274.313846 247.953498 
L 274.796424 248.897473 
L 275.279003 250.534013 
L 276.244159 252.407266 
L 276.726738 253.318284 
L 277.209316 254.576345 
L 277.691894 254.224189 
L 278.174472 255.02676 
L 278.657051 255.589179 
L 279.139629 257.311323 
L 279.622207 257.743479 
L 280.104786 258.004451 
L 280.587364 257.682892 
L 281.069942 258.791347 
L 281.552521 260.278142 
L 282.035099 260.631307 
L 283.000255 259.1905 
L 283.482834 260.755177 
L 284.44799 262.202259 
L 284.930569 262.576131 
L 285.413147 262.389575 
L 285.895725 263.903623 
L 286.378303 263.249749 
L 286.860882 263.632912 
L 287.34346 263.433672 
L 287.826038 264.63916 
L 288.791195 266.075305 
L 289.273773 266.59184 
L 289.756351 265.641317 
L 290.23893 266.754743 
L 290.721508 266.44973 
L 291.204086 267.293177 
L 291.686665 266.607294 
L 292.169243 266.656317 
L 293.616978 268.342403 
L 294.099556 268.338932 
L 294.582134 268.739432 
L 295.064713 269.453854 
L 295.547291 268.839563 
L 296.029869 270.132172 
L 296.512448 267.333169 
L 296.995026 269.781715 
L 297.477604 270.708367 
L 297.960182 271.006043 
L 298.442761 270.870021 
L 298.925339 271.078704 
L 299.407917 270.752865 
L 300.373074 271.637693 
L 300.855652 269.731748 
L 301.33823 272.527062 
L 301.820809 271.44664 
L 302.303387 272.495991 
L 302.785965 271.827471 
L 303.751122 273.270077 
L 304.2337 273.043633 
L 304.716279 273.462622 
L 305.198857 274.179324 
L 305.681435 273.749931 
L 306.164013 273.920883 
L 306.646592 274.52868 
L 307.12917 272.830222 
L 307.611748 275.07578 
L 308.094327 275.218756 
L 308.576905 275.157817 
L 309.059483 273.015185 
L 309.542061 276.699045 
L 310.02464 276.679412 
L 310.507218 274.859027 
L 310.989796 276.297975 
L 311.472375 277.298704 
L 311.954953 275.69717 
L 312.437531 275.879635 
L 312.920109 276.903029 
L 313.402688 277.204809 
L 313.885266 277.844821 
L 314.367844 277.08228 
L 314.850423 276.98265 
L 315.333001 275.422022 
L 315.815579 278.256779 
L 316.298157 279.006879 
L 317.263314 279.737551 
L 317.745892 279.0137 
L 318.228471 280.043312 
L 318.711049 277.787907 
L 319.193627 280.031837 
L 319.676206 278.5723 
L 320.158784 280.280855 
L 320.641362 279.820783 
L 321.12394 280.514458 
L 322.089097 280.782414 
L 322.571675 281.988141 
L 323.054254 280.738037 
L 323.536832 280.042461 
L 324.01941 279.976857 
L 324.984567 282.144625 
L 325.467145 281.48964 
L 325.949723 282.488231 
L 326.432302 281.144671 
L 326.91488 283.327226 
L 327.397458 283.886186 
L 327.880036 281.965173 
L 328.362615 283.52063 
L 328.845193 283.550249 
L 329.327771 283.465356 
L 329.81035 281.002863 
L 330.292928 282.240915 
L 330.775506 281.959819 
L 331.258085 284.389984 
L 331.740663 284.565048 
L 332.223241 282.894532 
L 332.705819 284.443255 
L 333.188398 284.833097 
L 333.670976 285.780283 
L 334.153554 284.357323 
L 334.636133 286.009074 
L 335.118711 286.022709 
L 335.601289 284.386368 
L 336.083867 285.84668 
L 336.566446 286.936434 
L 337.531602 286.960247 
L 338.014181 285.333028 
L 338.496759 286.597585 
L 338.979337 286.63296 
L 339.461915 285.110687 
L 339.944494 288.040717 
L 340.427072 284.312 
L 340.90965 287.046559 
L 341.392229 287.547367 
L 341.874807 285.251501 
L 342.357385 287.451369 
L 342.839964 288.103811 
L 343.322542 285.988251 
L 343.80512 288.662501 
L 344.287698 288.37078 
L 344.770277 288.497817 
L 345.252855 288.067108 
L 345.735433 288.044732 
L 346.218012 288.232346 
L 346.70059 288.909892 
L 347.183168 284.687973 
L 347.665746 288.803736 
L 348.148325 286.790902 
L 348.630903 290.179855 
L 349.113481 290.309387 
L 349.59606 291.166951 
L 350.078638 289.985576 
L 350.561216 289.70372 
L 351.043794 286.945866 
L 351.526373 290.694925 
L 352.008951 291.127132 
L 352.491529 287.590376 
L 352.974108 290.734322 
L 353.456686 290.387279 
L 353.939264 291.47767 
L 354.421843 290.331411 
L 354.904421 291.478529 
L 355.386999 290.516727 
L 355.869577 291.969037 
L 356.352156 292.59476 
L 356.834734 289.260779 
L 357.317312 291.861194 
L 357.799891 292.601 
L 358.282469 291.970913 
L 358.765047 290.19326 
L 359.247625 293.023914 
L 359.730204 291.336317 
L 360.212782 292.819564 
L 360.69536 293.648197 
L 361.177939 293.199079 
L 361.660517 293.29434 
L 362.143095 292.836136 
L 362.625673 294.074858 
L 363.108252 293.29093 
L 363.59083 291.074088 
L 364.073408 289.858207 
L 364.555987 293.379464 
L 365.038565 294.158334 
L 365.521143 294.057984 
L 366.003721 293.721538 
L 366.4863 293.645555 
L 366.968878 291.975433 
L 367.451456 294.475122 
L 367.934035 295.524128 
L 368.416613 295.472311 
L 368.899191 294.861643 
L 369.864348 292.721442 
L 370.346926 293.232102 
L 370.829504 294.735817 
L 371.312083 295.034253 
L 371.794661 295.020054 
L 372.277239 296.375652 
L 372.759818 291.203837 
L 373.242396 295.21181 
L 373.724974 296.487892 
L 374.207552 295.810033 
L 374.690131 293.219506 
L 375.172709 295.693019 
L 375.655287 297.342243 
L 376.137866 295.213715 
L 376.620444 296.053249 
L 377.103022 297.392661 
L 377.5856 295.659938 
L 378.068179 296.708169 
L 378.550757 296.027613 
L 379.033335 293.813008 
L 379.515914 296.577658 
L 379.998492 295.614097 
L 380.48107 292.746702 
L 380.963649 296.426691 
L 381.446227 295.907729 
L 381.928805 296.912044 
L 382.411383 297.540381 
L 382.893962 295.88832 
L 383.37654 297.484142 
L 383.859118 296.796017 
L 384.341697 297.93157 
L 384.824275 297.777157 
L 385.306853 298.784393 
L 385.789431 298.298145 
L 386.27201 296.140512 
L 387.719745 299.018844 
L 388.202323 299.199115 
L 388.684901 298.782402 
L 389.650058 299.751586 
L 390.132636 298.2823 
L 390.615214 298.339833 
L 391.097793 298.648078 
L 391.580371 298.194595 
L 392.062949 298.35013 
L 392.545528 298.660229 
L 393.028106 295.631125 
L 393.510684 296.922599 
L 393.993262 295.843357 
L 394.475841 299.045188 
L 394.958419 298.748309 
L 395.440997 294.679537 
L 395.923576 299.178916 
L 396.406154 299.238167 
L 396.888732 298.44337 
L 397.37131 296.587716 
L 397.853889 298.425452 
L 398.336467 301.459353 
L 398.819045 300.889413 
L 399.301624 300.013412 
L 399.784202 299.687245 
L 400.26678 293.918404 
L 400.749358 299.180809 
L 401.231937 298.688046 
L 401.714515 299.33614 
L 402.197093 301.426354 
L 402.679672 301.076719 
L 403.16225 300.914091 
L 403.644828 302.208 
L 404.127407 301.361938 
L 404.609985 299.4874 
L 405.092563 301.888525 
L 405.575141 301.809068 
L 406.05772 301.957208 
L 406.540298 299.531109 
L 407.022876 301.606834 
L 407.505455 300.949647 
L 407.505455 300.949647 
" style="fill:none;stroke:#1f77b4;stroke-linecap:square;stroke-width:1.5;"/>
   </g>
   <g id="patch_18">
    <path d="M 256 307.584 
L 256 189.312 
" style="fill:none;stroke:#000000;stroke-linecap:square;stroke-linejoin:miter;stroke-width:0.8;"/>
   </g>
   <g id="patch_19">
    <path d="M 414.72 307.584 
L 414.72 189.312 
" style="fill:none;stroke:#000000;stroke-linecap:square;stroke-linejoin:miter;stroke-width:0.8;"/>
   </g>
   <g id="patch_20">
    <path d="M 256 307.584 
L 414.72 307.584 
" style="fill:none;stroke:#000000;stroke-linecap:square;stroke-linejoin:miter;stroke-width:0.8;"/>
   </g>
   <g id="patch_21">
    <path d="M 256 189.312 
L 414.72 189.312 
" style="fill:none;stroke:#000000;stroke-linecap:square;stroke-linejoin:miter;stroke-width:0.8;"/>
   </g>
   <g id="text_36">
    <!-- val_loss -->
    <g transform="translate(311.875625 183.312)scale(0.12 -0.12)">
     <use xlink:href="#DejaVuSans-76"/>
     <use x="59.179688" xlink:href="#DejaVuSans-61"/>
     <use x="120.458984" xlink:href="#DejaVuSans-6c"/>
     <use x="148.242188" xlink:href="#DejaVuSans-5f"/>
     <use x="198.242188" xlink:href="#DejaVuSans-6c"/>
     <use x="226.025391" xlink:href="#DejaVuSans-6f"/>
     <use x="287.207031" xlink:href="#DejaVuSans-73"/>
     <use x="339.306641" xlink:href="#DejaVuSans-73"/>
    </g>
   </g>
  </g>
  <g id="text_37">
   <!-- benchmark 20171023_063004 -->
   <defs>
    <path d="M 48.6875 27.296875 
Q 48.6875 37.203125 44.609375 42.84375 
Q 40.53125 48.484375 33.40625 48.484375 
Q 26.265625 48.484375 22.1875 42.84375 
Q 18.109375 37.203125 18.109375 27.296875 
Q 18.109375 17.390625 22.1875 11.75 
Q 26.265625 6.109375 33.40625 6.109375 
Q 40.53125 6.109375 44.609375 11.75 
Q 48.6875 17.390625 48.6875 27.296875 
z
M 18.109375 46.390625 
Q 20.953125 51.265625 25.265625 53.625 
Q 29.59375 56 35.59375 56 
Q 45.5625 56 51.78125 48.09375 
Q 58.015625 40.1875 58.015625 27.296875 
Q 58.015625 14.40625 51.78125 6.484375 
Q 45.5625 -1.421875 35.59375 -1.421875 
Q 29.59375 -1.421875 25.265625 0.953125 
Q 20.953125 3.328125 18.109375 8.203125 
L 18.109375 0 
L 9.078125 0 
L 9.078125 75.984375 
L 18.109375 75.984375 
z
" id="DejaVuSans-62"/>
    <path d="M 56.203125 29.59375 
L 56.203125 25.203125 
L 14.890625 25.203125 
Q 15.484375 15.921875 20.484375 11.0625 
Q 25.484375 6.203125 34.421875 6.203125 
Q 39.59375 6.203125 44.453125 7.46875 
Q 49.3125 8.734375 54.109375 11.28125 
L 54.109375 2.78125 
Q 49.265625 0.734375 44.1875 -0.34375 
Q 39.109375 -1.421875 33.890625 -1.421875 
Q 20.796875 -1.421875 13.15625 6.1875 
Q 5.515625 13.8125 5.515625 26.8125 
Q 5.515625 40.234375 12.765625 48.109375 
Q 20.015625 56 32.328125 56 
Q 43.359375 56 49.78125 48.890625 
Q 56.203125 41.796875 56.203125 29.59375 
z
M 47.21875 32.234375 
Q 47.125 39.59375 43.09375 43.984375 
Q 39.0625 48.390625 32.421875 48.390625 
Q 24.90625 48.390625 20.390625 44.140625 
Q 15.875 39.890625 15.1875 32.171875 
z
" id="DejaVuSans-65"/>
    <path d="M 54.890625 33.015625 
L 54.890625 0 
L 45.90625 0 
L 45.90625 32.71875 
Q 45.90625 40.484375 42.875 44.328125 
Q 39.84375 48.1875 33.796875 48.1875 
Q 26.515625 48.1875 22.3125 43.546875 
Q 18.109375 38.921875 18.109375 30.90625 
L 18.109375 0 
L 9.078125 0 
L 9.078125 54.6875 
L 18.109375 54.6875 
L 18.109375 46.1875 
Q 21.34375 51.125 25.703125 53.5625 
Q 30.078125 56 35.796875 56 
Q 45.21875 56 50.046875 50.171875 
Q 54.890625 44.34375 54.890625 33.015625 
z
" id="DejaVuSans-6e"/>
    <path d="M 54.890625 33.015625 
L 54.890625 0 
L 45.90625 0 
L 45.90625 32.71875 
Q 45.90625 40.484375 42.875 44.328125 
Q 39.84375 48.1875 33.796875 48.1875 
Q 26.515625 48.1875 22.3125 43.546875 
Q 18.109375 38.921875 18.109375 30.90625 
L 18.109375 0 
L 9.078125 0 
L 9.078125 75.984375 
L 18.109375 75.984375 
L 18.109375 46.1875 
Q 21.34375 51.125 25.703125 53.5625 
Q 30.078125 56 35.796875 56 
Q 45.21875 56 50.046875 50.171875 
Q 54.890625 44.34375 54.890625 33.015625 
z
" id="DejaVuSans-68"/>
    <path d="M 52 44.1875 
Q 55.375 50.25 60.0625 53.125 
Q 64.75 56 71.09375 56 
Q 79.640625 56 84.28125 50.015625 
Q 88.921875 44.046875 88.921875 33.015625 
L 88.921875 0 
L 79.890625 0 
L 79.890625 32.71875 
Q 79.890625 40.578125 77.09375 44.375 
Q 74.3125 48.1875 68.609375 48.1875 
Q 61.625 48.1875 57.5625 43.546875 
Q 53.515625 38.921875 53.515625 30.90625 
L 53.515625 0 
L 44.484375 0 
L 44.484375 32.71875 
Q 44.484375 40.625 41.703125 44.40625 
Q 38.921875 48.1875 33.109375 48.1875 
Q 26.21875 48.1875 22.15625 43.53125 
Q 18.109375 38.875 18.109375 30.90625 
L 18.109375 0 
L 9.078125 0 
L 9.078125 54.6875 
L 18.109375 54.6875 
L 18.109375 46.1875 
Q 21.1875 51.21875 25.484375 53.609375 
Q 29.78125 56 35.6875 56 
Q 41.65625 56 45.828125 52.96875 
Q 50 49.953125 52 44.1875 
z
" id="DejaVuSans-6d"/>
    <path d="M 41.109375 46.296875 
Q 39.59375 47.171875 37.8125 47.578125 
Q 36.03125 48 33.890625 48 
Q 26.265625 48 22.1875 43.046875 
Q 18.109375 38.09375 18.109375 28.8125 
L 18.109375 0 
L 9.078125 0 
L 9.078125 54.6875 
L 18.109375 54.6875 
L 18.109375 46.1875 
Q 20.953125 51.171875 25.484375 53.578125 
Q 30.03125 56 36.53125 56 
Q 37.453125 56 38.578125 55.875 
Q 39.703125 55.765625 41.0625 55.515625 
z
" id="DejaVuSans-72"/>
    <path d="M 9.078125 75.984375 
L 18.109375 75.984375 
L 18.109375 31.109375 
L 44.921875 54.6875 
L 56.390625 54.6875 
L 27.390625 29.109375 
L 57.625 0 
L 45.90625 0 
L 18.109375 26.703125 
L 18.109375 0 
L 9.078125 0 
z
" id="DejaVuSans-6b"/>
    <path id="DejaVuSans-20"/>
    <path d="M 8.203125 72.90625 
L 55.078125 72.90625 
L 55.078125 68.703125 
L 28.609375 0 
L 18.3125 0 
L 43.21875 64.59375 
L 8.203125 64.59375 
z
" id="DejaVuSans-37"/>
   </defs>
   <g transform="translate(138.180938 16.030125)scale(0.12 -0.12)">
    <use xlink:href="#DejaVuSans-62"/>
    <use x="63.476562" xlink:href="#DejaVuSans-65"/>
    <use x="125" xlink:href="#DejaVuSans-6e"/>
    <use x="188.378906" xlink:href="#DejaVuSans-63"/>
    <use x="243.359375" xlink:href="#DejaVuSans-68"/>
    <use x="306.738281" xlink:href="#DejaVuSans-6d"/>
    <use x="404.150391" xlink:href="#DejaVuSans-61"/>
    <use x="465.429688" xlink:href="#DejaVuSans-72"/>
    <use x="506.542969" xlink:href="#DejaVuSans-6b"/>
    <use x="564.453125" xlink:href="#DejaVuSans-20"/>
    <use x="596.240234" xlink:href="#DejaVuSans-32"/>
    <use x="659.863281" xlink:href="#DejaVuSans-30"/>
    <use x="723.486328" xlink:href="#DejaVuSans-31"/>
    <use x="787.109375" xlink:href="#DejaVuSans-37"/>
    <use x="850.732422" xlink:href="#DejaVuSans-31"/>
    <use x="914.355469" xlink:href="#DejaVuSans-30"/>
    <use x="977.978516" xlink:href="#DejaVuSans-32"/>
    <use x="1041.601562" xlink:href="#DejaVuSans-33"/>
    <use x="1105.224609" xlink:href="#DejaVuSans-5f"/>
    <use x="1155.224609" xlink:href="#DejaVuSans-30"/>
    <use x="1218.847656" xlink:href="#DejaVuSans-36"/>
    <use x="1282.470703" xlink:href="#DejaVuSans-33"/>
    <use x="1346.09375" xlink:href="#DejaVuSans-30"/>
    <use x="1409.716797" xlink:href="#DejaVuSans-30"/>
    <use x="1473.339844" xlink:href="#DejaVuSans-34"/>
   </g>
  </g>
 </g>
 <defs>
  <clipPath id="p43a9016574">
   <rect height="118.272" width="158.72" x="57.6" y="41.472"/>
  </clipPath>
  <clipPath id="pf215bb7554">
   <rect height="118.272" width="158.72" x="256" y="41.472"/>
  </clipPath>
  <clipPath id="pd621aafa89">
   <rect height="118.272" width="158.72" x="57.6" y="189.312"/>
  </clipPath>
  <clipPath id="pf3dc21679b">
   <rect height="118.272" width="158.72" x="256" y="189.312"/>
  </clipPath>
 </defs>
</svg>
