<?xml version="1.0" encoding="utf-8" standalone="no"?>
<!DOCTYPE svg PUBLIC "-//W3C//DTD SVG 1.1//EN"
  "http://www.w3.org/Graphics/SVG/1.1/DTD/svg11.dtd">
<!-- Created with matplotlib (http://matplotlib.org/) -->
<svg height="345pt" version="1.1" viewBox="0 0 460 345" width="460pt" xmlns="http://www.w3.org/2000/svg" xmlns:xlink="http://www.w3.org/1999/xlink">
 <defs>
  <style type="text/css">
*{stroke-linecap:butt;stroke-linejoin:round;}
  </style>
 </defs>
 <g id="figure_1">
  <g id="patch_1">
   <path d="M 0 345.6 
L 460.8 345.6 
L 460.8 0 
L 0 0 
z
" style="fill:#ffffff;"/>
  </g>
  <g id="axes_1">
   <g id="patch_2">
    <path d="M 57.6 159.744 
L 216.32 159.744 
L 216.32 41.472 
L 57.6 41.472 
z
" style="fill:#ffffff;"/>
   </g>
   <g id="matplotlib.axis_1">
    <g id="xtick_1">
     <g id="line2d_1">
      <path clip-path="url(#p0a40d57e91)" d="M 64.814545 159.744 
L 64.814545 41.472 
" style="fill:none;stroke:#b0b0b0;stroke-linecap:square;stroke-width:0.8;"/>
     </g>
     <g id="line2d_2">
      <defs>
       <path d="M 0 0 
L 0 3.5 
" id="m732a95f833" style="stroke:#000000;stroke-width:0.8;"/>
      </defs>
      <g>
       <use style="stroke:#000000;stroke-width:0.8;" x="64.814545" xlink:href="#m732a95f833" y="159.744"/>
      </g>
     </g>
     <g id="text_1">
      <!-- 0 -->
      <defs>
       <path d="M 31.78125 66.40625 
Q 24.171875 66.40625 20.328125 58.90625 
Q 16.5 51.421875 16.5 36.375 
Q 16.5 21.390625 20.328125 13.890625 
Q 24.171875 6.390625 31.78125 6.390625 
Q 39.453125 6.390625 43.28125 13.890625 
Q 47.125 21.390625 47.125 36.375 
Q 47.125 51.421875 43.28125 58.90625 
Q 39.453125 66.40625 31.78125 66.40625 
z
M 31.78125 74.21875 
Q 44.046875 74.21875 50.515625 64.515625 
Q 56.984375 54.828125 56.984375 36.375 
Q 56.984375 17.96875 50.515625 8.265625 
Q 44.046875 -1.421875 31.78125 -1.421875 
Q 19.53125 -1.421875 13.0625 8.265625 
Q 6.59375 17.96875 6.59375 36.375 
Q 6.59375 54.828125 13.0625 64.515625 
Q 19.53125 74.21875 31.78125 74.21875 
z
" id="DejaVuSans-30"/>
      </defs>
      <g transform="translate(61.633295 174.342437)scale(0.1 -0.1)">
       <use xlink:href="#DejaVuSans-30"/>
      </g>
     </g>
    </g>
    <g id="xtick_2">
     <g id="line2d_3">
      <path clip-path="url(#p0a40d57e91)" d="M 113.072375 159.744 
L 113.072375 41.472 
" style="fill:none;stroke:#b0b0b0;stroke-linecap:square;stroke-width:0.8;"/>
     </g>
     <g id="line2d_4">
      <g>
       <use style="stroke:#000000;stroke-width:0.8;" x="113.072375" xlink:href="#m732a95f833" y="159.744"/>
      </g>
     </g>
     <g id="text_2">
      <!-- 100 -->
      <defs>
       <path d="M 12.40625 8.296875 
L 28.515625 8.296875 
L 28.515625 63.921875 
L 10.984375 60.40625 
L 10.984375 69.390625 
L 28.421875 72.90625 
L 38.28125 72.90625 
L 38.28125 8.296875 
L 54.390625 8.296875 
L 54.390625 0 
L 12.40625 0 
z
" id="DejaVuSans-31"/>
      </defs>
      <g transform="translate(103.528625 174.342437)scale(0.1 -0.1)">
       <use xlink:href="#DejaVuSans-31"/>
       <use x="63.623047" xlink:href="#DejaVuSans-30"/>
       <use x="127.246094" xlink:href="#DejaVuSans-30"/>
      </g>
     </g>
    </g>
    <g id="xtick_3">
     <g id="line2d_5">
      <path clip-path="url(#p0a40d57e91)" d="M 161.330204 159.744 
L 161.330204 41.472 
" style="fill:none;stroke:#b0b0b0;stroke-linecap:square;stroke-width:0.8;"/>
     </g>
     <g id="line2d_6">
      <g>
       <use style="stroke:#000000;stroke-width:0.8;" x="161.330204" xlink:href="#m732a95f833" y="159.744"/>
      </g>
     </g>
     <g id="text_3">
      <!-- 200 -->
      <defs>
       <path d="M 19.1875 8.296875 
L 53.609375 8.296875 
L 53.609375 0 
L 7.328125 0 
L 7.328125 8.296875 
Q 12.9375 14.109375 22.625 23.890625 
Q 32.328125 33.6875 34.8125 36.53125 
Q 39.546875 41.84375 41.421875 45.53125 
Q 43.3125 49.21875 43.3125 52.78125 
Q 43.3125 58.59375 39.234375 62.25 
Q 35.15625 65.921875 28.609375 65.921875 
Q 23.96875 65.921875 18.8125 64.3125 
Q 13.671875 62.703125 7.8125 59.421875 
L 7.8125 69.390625 
Q 13.765625 71.78125 18.9375 73 
Q 24.125 74.21875 28.421875 74.21875 
Q 39.75 74.21875 46.484375 68.546875 
Q 53.21875 62.890625 53.21875 53.421875 
Q 53.21875 48.921875 51.53125 44.890625 
Q 49.859375 40.875 45.40625 35.40625 
Q 44.1875 33.984375 37.640625 27.21875 
Q 31.109375 20.453125 19.1875 8.296875 
z
" id="DejaVuSans-32"/>
      </defs>
      <g transform="translate(151.786454 174.342437)scale(0.1 -0.1)">
       <use xlink:href="#DejaVuSans-32"/>
       <use x="63.623047" xlink:href="#DejaVuSans-30"/>
       <use x="127.246094" xlink:href="#DejaVuSans-30"/>
      </g>
     </g>
    </g>
    <g id="xtick_4">
     <g id="line2d_7">
      <path clip-path="url(#p0a40d57e91)" d="M 209.588033 159.744 
L 209.588033 41.472 
" style="fill:none;stroke:#b0b0b0;stroke-linecap:square;stroke-width:0.8;"/>
     </g>
     <g id="line2d_8">
      <g>
       <use style="stroke:#000000;stroke-width:0.8;" x="209.588033" xlink:href="#m732a95f833" y="159.744"/>
      </g>
     </g>
     <g id="text_4">
      <!-- 300 -->
      <defs>
       <path d="M 40.578125 39.3125 
Q 47.65625 37.796875 51.625 33 
Q 55.609375 28.21875 55.609375 21.1875 
Q 55.609375 10.40625 48.1875 4.484375 
Q 40.765625 -1.421875 27.09375 -1.421875 
Q 22.515625 -1.421875 17.65625 -0.515625 
Q 12.796875 0.390625 7.625 2.203125 
L 7.625 11.71875 
Q 11.71875 9.328125 16.59375 8.109375 
Q 21.484375 6.890625 26.8125 6.890625 
Q 36.078125 6.890625 40.9375 10.546875 
Q 45.796875 14.203125 45.796875 21.1875 
Q 45.796875 27.640625 41.28125 31.265625 
Q 36.765625 34.90625 28.71875 34.90625 
L 20.21875 34.90625 
L 20.21875 43.015625 
L 29.109375 43.015625 
Q 36.375 43.015625 40.234375 45.921875 
Q 44.09375 48.828125 44.09375 54.296875 
Q 44.09375 59.90625 40.109375 62.90625 
Q 36.140625 65.921875 28.71875 65.921875 
Q 24.65625 65.921875 20.015625 65.03125 
Q 15.375 64.15625 9.8125 62.3125 
L 9.8125 71.09375 
Q 15.4375 72.65625 20.34375 73.4375 
Q 25.25 74.21875 29.59375 74.21875 
Q 40.828125 74.21875 47.359375 69.109375 
Q 53.90625 64.015625 53.90625 55.328125 
Q 53.90625 49.265625 50.4375 45.09375 
Q 46.96875 40.921875 40.578125 39.3125 
z
" id="DejaVuSans-33"/>
      </defs>
      <g transform="translate(200.044283 174.342437)scale(0.1 -0.1)">
       <use xlink:href="#DejaVuSans-33"/>
       <use x="63.623047" xlink:href="#DejaVuSans-30"/>
       <use x="127.246094" xlink:href="#DejaVuSans-30"/>
      </g>
     </g>
    </g>
   </g>
   <g id="matplotlib.axis_2">
    <g id="ytick_1">
     <g id="line2d_9">
      <path clip-path="url(#p0a40d57e91)" d="M 57.6 155.716628 
L 216.32 155.716628 
" style="fill:none;stroke:#b0b0b0;stroke-linecap:square;stroke-width:0.8;"/>
     </g>
     <g id="line2d_10">
      <defs>
       <path d="M 0 0 
L -3.5 0 
" id="m758e142c24" style="stroke:#000000;stroke-width:0.8;"/>
      </defs>
      <g>
       <use style="stroke:#000000;stroke-width:0.8;" x="57.6" xlink:href="#m758e142c24" y="155.716628"/>
      </g>
     </g>
     <g id="text_5">
      <!-- 0.00 -->
      <defs>
       <path d="M 10.6875 12.40625 
L 21 12.40625 
L 21 0 
L 10.6875 0 
z
" id="DejaVuSans-2e"/>
      </defs>
      <g transform="translate(28.334375 159.515846)scale(0.1 -0.1)">
       <use xlink:href="#DejaVuSans-30"/>
       <use x="63.623047" xlink:href="#DejaVuSans-2e"/>
       <use x="95.410156" xlink:href="#DejaVuSans-30"/>
       <use x="159.033203" xlink:href="#DejaVuSans-30"/>
      </g>
     </g>
    </g>
    <g id="ytick_2">
     <g id="line2d_11">
      <path clip-path="url(#p0a40d57e91)" d="M 57.6 127.157454 
L 216.32 127.157454 
" style="fill:none;stroke:#b0b0b0;stroke-linecap:square;stroke-width:0.8;"/>
     </g>
     <g id="line2d_12">
      <g>
       <use style="stroke:#000000;stroke-width:0.8;" x="57.6" xlink:href="#m758e142c24" y="127.157454"/>
      </g>
     </g>
     <g id="text_6">
      <!-- 0.25 -->
      <defs>
       <path d="M 10.796875 72.90625 
L 49.515625 72.90625 
L 49.515625 64.59375 
L 19.828125 64.59375 
L 19.828125 46.734375 
Q 21.96875 47.46875 24.109375 47.828125 
Q 26.265625 48.1875 28.421875 48.1875 
Q 40.625 48.1875 47.75 41.5 
Q 54.890625 34.8125 54.890625 23.390625 
Q 54.890625 11.625 47.5625 5.09375 
Q 40.234375 -1.421875 26.90625 -1.421875 
Q 22.3125 -1.421875 17.546875 -0.640625 
Q 12.796875 0.140625 7.71875 1.703125 
L 7.71875 11.625 
Q 12.109375 9.234375 16.796875 8.0625 
Q 21.484375 6.890625 26.703125 6.890625 
Q 35.15625 6.890625 40.078125 11.328125 
Q 45.015625 15.765625 45.015625 23.390625 
Q 45.015625 31 40.078125 35.4375 
Q 35.15625 39.890625 26.703125 39.890625 
Q 22.75 39.890625 18.8125 39.015625 
Q 14.890625 38.140625 10.796875 36.28125 
z
" id="DejaVuSans-35"/>
      </defs>
      <g transform="translate(28.334375 130.956673)scale(0.1 -0.1)">
       <use xlink:href="#DejaVuSans-30"/>
       <use x="63.623047" xlink:href="#DejaVuSans-2e"/>
       <use x="95.410156" xlink:href="#DejaVuSans-32"/>
       <use x="159.033203" xlink:href="#DejaVuSans-35"/>
      </g>
     </g>
    </g>
    <g id="ytick_3">
     <g id="line2d_13">
      <path clip-path="url(#p0a40d57e91)" d="M 57.6 98.59828 
L 216.32 98.59828 
" style="fill:none;stroke:#b0b0b0;stroke-linecap:square;stroke-width:0.8;"/>
     </g>
     <g id="line2d_14">
      <g>
       <use style="stroke:#000000;stroke-width:0.8;" x="57.6" xlink:href="#m758e142c24" y="98.59828"/>
      </g>
     </g>
     <g id="text_7">
      <!-- 0.50 -->
      <g transform="translate(28.334375 102.397499)scale(0.1 -0.1)">
       <use xlink:href="#DejaVuSans-30"/>
       <use x="63.623047" xlink:href="#DejaVuSans-2e"/>
       <use x="95.410156" xlink:href="#DejaVuSans-35"/>
       <use x="159.033203" xlink:href="#DejaVuSans-30"/>
      </g>
     </g>
    </g>
    <g id="ytick_4">
     <g id="line2d_15">
      <path clip-path="url(#p0a40d57e91)" d="M 57.6 70.039106 
L 216.32 70.039106 
" style="fill:none;stroke:#b0b0b0;stroke-linecap:square;stroke-width:0.8;"/>
     </g>
     <g id="line2d_16">
      <g>
       <use style="stroke:#000000;stroke-width:0.8;" x="57.6" xlink:href="#m758e142c24" y="70.039106"/>
      </g>
     </g>
     <g id="text_8">
      <!-- 0.75 -->
      <defs>
       <path d="M 8.203125 72.90625 
L 55.078125 72.90625 
L 55.078125 68.703125 
L 28.609375 0 
L 18.3125 0 
L 43.21875 64.59375 
L 8.203125 64.59375 
z
" id="DejaVuSans-37"/>
      </defs>
      <g transform="translate(28.334375 73.838325)scale(0.1 -0.1)">
       <use xlink:href="#DejaVuSans-30"/>
       <use x="63.623047" xlink:href="#DejaVuSans-2e"/>
       <use x="95.410156" xlink:href="#DejaVuSans-37"/>
       <use x="159.033203" xlink:href="#DejaVuSans-35"/>
      </g>
     </g>
    </g>
    <g id="ytick_5">
     <g id="line2d_17">
      <path clip-path="url(#p0a40d57e91)" d="M 57.6 41.479932 
L 216.32 41.479932 
" style="fill:none;stroke:#b0b0b0;stroke-linecap:square;stroke-width:0.8;"/>
     </g>
     <g id="line2d_18">
      <g>
       <use style="stroke:#000000;stroke-width:0.8;" x="57.6" xlink:href="#m758e142c24" y="41.479932"/>
      </g>
     </g>
     <g id="text_9">
      <!-- 1.00 -->
      <g transform="translate(28.334375 45.279151)scale(0.1 -0.1)">
       <use xlink:href="#DejaVuSans-31"/>
       <use x="63.623047" xlink:href="#DejaVuSans-2e"/>
       <use x="95.410156" xlink:href="#DejaVuSans-30"/>
       <use x="159.033203" xlink:href="#DejaVuSans-30"/>
      </g>
     </g>
    </g>
   </g>
   <g id="line2d_19">
    <path clip-path="url(#p0a40d57e91)" d="M 64.814545 154.368 
L 65.779702 126.776664 
L 66.26228 112.787958 
L 66.744859 103.596135 
L 67.227437 96.842419 
L 68.192593 87.867433 
L 69.15775 81.356999 
L 69.640328 78.506371 
L 71.570642 72.038247 
L 72.535798 69.996795 
L 73.018376 68.859717 
L 73.983533 67.25723 
L 74.94869 64.898454 
L 75.431268 64.099855 
L 75.913846 63.803686 
L 76.396424 63.11615 
L 76.879003 62.137734 
L 77.361581 61.661748 
L 78.326738 61.429043 
L 78.809316 60.418895 
L 79.774472 59.414035 
L 81.222207 58.89045 
L 82.187364 57.927901 
L 82.669942 57.875013 
L 83.152521 57.943767 
L 83.635099 57.795682 
L 84.600255 56.917752 
L 85.082834 56.938907 
L 85.565412 56.589851 
L 86.04799 56.600428 
L 86.530569 56.457632 
L 87.495725 55.875871 
L 87.978303 56.103287 
L 88.94346 55.711921 
L 89.426038 55.701343 
L 89.908617 55.17247 
L 90.391195 54.923899 
L 90.873773 55.17247 
L 91.356351 54.738793 
L 91.83893 55.08785 
L 92.321508 54.833991 
L 93.286665 54.680617 
L 93.769243 54.151744 
L 94.251821 54.633019 
L 95.216978 54.363293 
L 95.699556 53.839708 
L 96.182134 54.231075 
L 97.147291 54.62773 
L 97.629869 55.077272 
L 98.112448 54.358004 
L 98.595026 54.120011 
L 99.077604 53.723356 
L 99.560182 53.575272 
L 100.042761 53.686335 
L 100.525339 52.993511 
L 101.007917 52.982933 
L 101.490496 53.411321 
L 101.973074 52.903602 
L 102.455652 53.056975 
L 102.93823 52.697342 
L 103.420809 53.157462 
L 103.903387 53.041109 
L 104.385965 53.495941 
L 104.868544 53.490652 
L 105.351122 53.321412 
L 105.8337 53.913751 
L 106.798857 53.681046 
L 107.281435 53.300257 
L 108.246592 53.601715 
L 108.72917 53.242081 
L 109.211748 53.062264 
L 109.694327 53.136307 
L 110.176905 52.803116 
L 111.142061 53.078131 
L 113.072375 52.475215 
L 113.554953 52.459349 
L 114.037531 52.110292 
L 115.485266 51.925186 
L 115.967844 52.274243 
L 116.933001 52.24251 
L 117.415579 52.025672 
L 117.898157 51.935764 
L 118.380736 52.105003 
L 118.863314 52.009806 
L 119.345892 52.2002 
L 119.828471 52.179045 
L 120.311049 51.634306 
L 120.793627 51.729503 
L 121.276206 51.962207 
L 121.758784 51.703059 
L 122.72394 51.607862 
L 123.206519 51.052545 
L 123.689097 51.332848 
L 124.171675 50.830418 
L 124.654254 50.714066 
L 125.136832 50.751087 
L 125.61941 50.587136 
L 126.101988 50.703488 
L 126.584567 50.333277 
L 127.067145 50.550115 
L 128.032302 50.095284 
L 128.51488 50.290967 
L 128.997458 49.889023 
L 129.480036 49.94191 
L 129.962615 49.867868 
L 130.445193 49.614009 
L 130.927771 49.894312 
L 131.41035 49.561122 
L 131.892928 49.820269 
L 132.375506 49.280818 
L 132.858085 49.624586 
L 133.340663 49.460635 
L 133.823241 49.460635 
L 134.305819 49.212065 
L 134.788398 49.259664 
L 135.753554 49.042825 
L 136.718711 48.651459 
L 137.201289 48.968783 
L 137.683867 48.90003 
L 138.649024 49.032248 
L 139.131602 48.931762 
L 139.614181 48.667325 
L 140.096759 48.683191 
L 140.579337 48.529818 
L 141.544494 48.672614 
L 142.50965 48.149029 
L 142.992229 48.439909 
L 144.922542 48.360578 
L 145.40512 48.053832 
L 146.370277 48.275959 
L 146.852855 48.022099 
L 147.335433 48.339423 
L 147.818012 48.376445 
L 148.30059 48.074987 
L 149.265746 48.122585 
L 149.748325 47.773529 
L 150.230903 48.106719 
L 151.19606 48.201916 
L 151.678638 47.969212 
L 152.161216 47.921613 
L 152.643794 48.016811 
L 153.608951 47.863437 
L 154.574108 48.096142 
L 155.539264 48.016811 
L 156.021843 47.784106 
L 156.504421 47.678331 
L 157.469577 48.223071 
L 157.952156 47.778817 
L 158.917312 47.93748 
L 159.399891 47.741796 
L 159.882469 48.180761 
L 160.365047 47.858149 
L 161.330204 48.149029 
L 161.812782 47.868726 
L 162.29536 47.789395 
L 163.260517 47.953346 
L 165.673408 47.81055 
L 167.121143 47.990367 
L 167.603721 47.651888 
L 168.0863 47.789395 
L 168.568878 47.636022 
L 169.051456 47.778817 
L 169.534035 47.535536 
L 170.499191 47.583134 
L 170.98177 47.953346 
L 171.464348 47.752374 
L 172.912083 47.794684 
L 173.394661 47.757663 
L 173.877239 48.037965 
L 175.324974 48.217783 
L 176.290131 47.874015 
L 176.772709 47.990367 
L 178.220444 47.736508 
L 178.703022 47.847571 
L 179.1856 47.678332 
L 181.115914 47.747085 
L 181.598492 47.630733 
L 182.563649 47.757663 
L 183.046227 47.556691 
L 183.528805 47.789395 
L 184.493962 47.731219 
L 184.97654 47.361007 
L 185.459118 47.535536 
L 186.424275 47.403317 
L 187.389431 47.133592 
L 187.87201 47.376873 
L 188.354588 47.144169 
L 188.837166 47.345141 
L 189.319745 47.271099 
L 189.802323 47.657177 
L 190.284901 47.731219 
L 190.767479 47.577846 
L 191.250058 47.874015 
L 192.215214 47.884592 
L 192.697793 47.81055 
L 193.662949 47.889881 
L 194.145528 47.715353 
L 194.628106 47.985078 
L 195.593262 47.847571 
L 196.075841 48.074987 
L 196.558419 47.715353 
L 198.488732 47.715353 
L 199.453889 47.540824 
L 200.419045 47.720641 
L 201.384202 47.244655 
L 201.86678 47.715353 
L 202.349358 47.482648 
L 202.831937 47.487937 
L 203.314515 47.302831 
L 203.797093 47.366296 
L 204.279672 47.154747 
L 204.76225 47.117726 
L 205.244828 47.323986 
L 205.727407 47.144169 
L 208.140298 47.059549 
L 209.105455 46.848 
L 209.105455 46.848 
" style="fill:none;stroke:#1f77b4;stroke-linecap:square;stroke-width:1.5;"/>
   </g>
   <g id="patch_3">
    <path d="M 57.6 159.744 
L 57.6 41.472 
" style="fill:none;stroke:#000000;stroke-linecap:square;stroke-linejoin:miter;stroke-width:0.8;"/>
   </g>
   <g id="patch_4">
    <path d="M 216.32 159.744 
L 216.32 41.472 
" style="fill:none;stroke:#000000;stroke-linecap:square;stroke-linejoin:miter;stroke-width:0.8;"/>
   </g>
   <g id="patch_5">
    <path d="M 57.6 159.744 
L 216.32 159.744 
" style="fill:none;stroke:#000000;stroke-linecap:square;stroke-linejoin:miter;stroke-width:0.8;"/>
   </g>
   <g id="patch_6">
    <path d="M 57.6 41.472 
L 216.32 41.472 
" style="fill:none;stroke:#000000;stroke-linecap:square;stroke-linejoin:miter;stroke-width:0.8;"/>
   </g>
   <g id="text_10">
    <!-- acc -->
    <defs>
     <path d="M 34.28125 27.484375 
Q 23.390625 27.484375 19.1875 25 
Q 14.984375 22.515625 14.984375 16.5 
Q 14.984375 11.71875 18.140625 8.90625 
Q 21.296875 6.109375 26.703125 6.109375 
Q 34.1875 6.109375 38.703125 11.40625 
Q 43.21875 16.703125 43.21875 25.484375 
L 43.21875 27.484375 
z
M 52.203125 31.203125 
L 52.203125 0 
L 43.21875 0 
L 43.21875 8.296875 
Q 40.140625 3.328125 35.546875 0.953125 
Q 30.953125 -1.421875 24.3125 -1.421875 
Q 15.921875 -1.421875 10.953125 3.296875 
Q 6 8.015625 6 15.921875 
Q 6 25.140625 12.171875 29.828125 
Q 18.359375 34.515625 30.609375 34.515625 
L 43.21875 34.515625 
L 43.21875 35.40625 
Q 43.21875 41.609375 39.140625 45 
Q 35.0625 48.390625 27.6875 48.390625 
Q 23 48.390625 18.546875 47.265625 
Q 14.109375 46.140625 10.015625 43.890625 
L 10.015625 52.203125 
Q 14.9375 54.109375 19.578125 55.046875 
Q 24.21875 56 28.609375 56 
Q 40.484375 56 46.34375 49.84375 
Q 52.203125 43.703125 52.203125 31.203125 
z
" id="DejaVuSans-61"/>
     <path d="M 48.78125 52.59375 
L 48.78125 44.1875 
Q 44.96875 46.296875 41.140625 47.34375 
Q 37.3125 48.390625 33.40625 48.390625 
Q 24.65625 48.390625 19.8125 42.84375 
Q 14.984375 37.3125 14.984375 27.296875 
Q 14.984375 17.28125 19.8125 11.734375 
Q 24.65625 6.203125 33.40625 6.203125 
Q 37.3125 6.203125 41.140625 7.25 
Q 44.96875 8.296875 48.78125 10.40625 
L 48.78125 2.09375 
Q 45.015625 0.34375 40.984375 -0.53125 
Q 36.96875 -1.421875 32.421875 -1.421875 
Q 20.0625 -1.421875 12.78125 6.34375 
Q 5.515625 14.109375 5.515625 27.296875 
Q 5.515625 40.671875 12.859375 48.328125 
Q 20.21875 56 33.015625 56 
Q 37.15625 56 41.109375 55.140625 
Q 45.0625 54.296875 48.78125 52.59375 
z
" id="DejaVuSans-63"/>
    </defs>
    <g transform="translate(126.685 35.472)scale(0.12 -0.12)">
     <use xlink:href="#DejaVuSans-61"/>
     <use x="61.279297" xlink:href="#DejaVuSans-63"/>
     <use x="116.259766" xlink:href="#DejaVuSans-63"/>
    </g>
   </g>
  </g>
  <g id="axes_2">
   <g id="patch_7">
    <path d="M 256 159.744 
L 414.72 159.744 
L 414.72 41.472 
L 256 41.472 
z
" style="fill:#ffffff;"/>
   </g>
   <g id="matplotlib.axis_3">
    <g id="xtick_5">
     <g id="line2d_20">
      <path clip-path="url(#p225c251c19)" d="M 263.214545 159.744 
L 263.214545 41.472 
" style="fill:none;stroke:#b0b0b0;stroke-linecap:square;stroke-width:0.8;"/>
     </g>
     <g id="line2d_21">
      <g>
       <use style="stroke:#000000;stroke-width:0.8;" x="263.214545" xlink:href="#m732a95f833" y="159.744"/>
      </g>
     </g>
     <g id="text_11">
      <!-- 0 -->
      <g transform="translate(260.033295 174.342437)scale(0.1 -0.1)">
       <use xlink:href="#DejaVuSans-30"/>
      </g>
     </g>
    </g>
    <g id="xtick_6">
     <g id="line2d_22">
      <path clip-path="url(#p225c251c19)" d="M 311.472375 159.744 
L 311.472375 41.472 
" style="fill:none;stroke:#b0b0b0;stroke-linecap:square;stroke-width:0.8;"/>
     </g>
     <g id="line2d_23">
      <g>
       <use style="stroke:#000000;stroke-width:0.8;" x="311.472375" xlink:href="#m732a95f833" y="159.744"/>
      </g>
     </g>
     <g id="text_12">
      <!-- 100 -->
      <g transform="translate(301.928625 174.342437)scale(0.1 -0.1)">
       <use xlink:href="#DejaVuSans-31"/>
       <use x="63.623047" xlink:href="#DejaVuSans-30"/>
       <use x="127.246094" xlink:href="#DejaVuSans-30"/>
      </g>
     </g>
    </g>
    <g id="xtick_7">
     <g id="line2d_24">
      <path clip-path="url(#p225c251c19)" d="M 359.730204 159.744 
L 359.730204 41.472 
" style="fill:none;stroke:#b0b0b0;stroke-linecap:square;stroke-width:0.8;"/>
     </g>
     <g id="line2d_25">
      <g>
       <use style="stroke:#000000;stroke-width:0.8;" x="359.730204" xlink:href="#m732a95f833" y="159.744"/>
      </g>
     </g>
     <g id="text_13">
      <!-- 200 -->
      <g transform="translate(350.186454 174.342437)scale(0.1 -0.1)">
       <use xlink:href="#DejaVuSans-32"/>
       <use x="63.623047" xlink:href="#DejaVuSans-30"/>
       <use x="127.246094" xlink:href="#DejaVuSans-30"/>
      </g>
     </g>
    </g>
    <g id="xtick_8">
     <g id="line2d_26">
      <path clip-path="url(#p225c251c19)" d="M 407.988033 159.744 
L 407.988033 41.472 
" style="fill:none;stroke:#b0b0b0;stroke-linecap:square;stroke-width:0.8;"/>
     </g>
     <g id="line2d_27">
      <g>
       <use style="stroke:#000000;stroke-width:0.8;" x="407.988033" xlink:href="#m732a95f833" y="159.744"/>
      </g>
     </g>
     <g id="text_14">
      <!-- 300 -->
      <g transform="translate(398.444283 174.342437)scale(0.1 -0.1)">
       <use xlink:href="#DejaVuSans-33"/>
       <use x="63.623047" xlink:href="#DejaVuSans-30"/>
       <use x="127.246094" xlink:href="#DejaVuSans-30"/>
      </g>
     </g>
    </g>
   </g>
   <g id="matplotlib.axis_4">
    <g id="ytick_6">
     <g id="line2d_28">
      <path clip-path="url(#p225c251c19)" d="M 256 157.668016 
L 414.72 157.668016 
" style="fill:none;stroke:#b0b0b0;stroke-linecap:square;stroke-width:0.8;"/>
     </g>
     <g id="line2d_29">
      <g>
       <use style="stroke:#000000;stroke-width:0.8;" x="256" xlink:href="#m758e142c24" y="157.668016"/>
      </g>
     </g>
     <g id="text_15">
      <!-- 0 -->
      <g transform="translate(242.6375 161.467234)scale(0.1 -0.1)">
       <use xlink:href="#DejaVuSans-30"/>
      </g>
     </g>
    </g>
    <g id="ytick_7">
     <g id="line2d_30">
      <path clip-path="url(#p225c251c19)" d="M 256 121.628841 
L 414.72 121.628841 
" style="fill:none;stroke:#b0b0b0;stroke-linecap:square;stroke-width:0.8;"/>
     </g>
     <g id="line2d_31">
      <g>
       <use style="stroke:#000000;stroke-width:0.8;" x="256" xlink:href="#m758e142c24" y="121.628841"/>
      </g>
     </g>
     <g id="text_16">
      <!-- 2 -->
      <g transform="translate(242.6375 125.428059)scale(0.1 -0.1)">
       <use xlink:href="#DejaVuSans-32"/>
      </g>
     </g>
    </g>
    <g id="ytick_8">
     <g id="line2d_32">
      <path clip-path="url(#p225c251c19)" d="M 256 85.589666 
L 414.72 85.589666 
" style="fill:none;stroke:#b0b0b0;stroke-linecap:square;stroke-width:0.8;"/>
     </g>
     <g id="line2d_33">
      <g>
       <use style="stroke:#000000;stroke-width:0.8;" x="256" xlink:href="#m758e142c24" y="85.589666"/>
      </g>
     </g>
     <g id="text_17">
      <!-- 4 -->
      <defs>
       <path d="M 37.796875 64.3125 
L 12.890625 25.390625 
L 37.796875 25.390625 
z
M 35.203125 72.90625 
L 47.609375 72.90625 
L 47.609375 25.390625 
L 58.015625 25.390625 
L 58.015625 17.1875 
L 47.609375 17.1875 
L 47.609375 0 
L 37.796875 0 
L 37.796875 17.1875 
L 4.890625 17.1875 
L 4.890625 26.703125 
z
" id="DejaVuSans-34"/>
      </defs>
      <g transform="translate(242.6375 89.388885)scale(0.1 -0.1)">
       <use xlink:href="#DejaVuSans-34"/>
      </g>
     </g>
    </g>
    <g id="ytick_9">
     <g id="line2d_34">
      <path clip-path="url(#p225c251c19)" d="M 256 49.550491 
L 414.72 49.550491 
" style="fill:none;stroke:#b0b0b0;stroke-linecap:square;stroke-width:0.8;"/>
     </g>
     <g id="line2d_35">
      <g>
       <use style="stroke:#000000;stroke-width:0.8;" x="256" xlink:href="#m758e142c24" y="49.550491"/>
      </g>
     </g>
     <g id="text_18">
      <!-- 6 -->
      <defs>
       <path d="M 33.015625 40.375 
Q 26.375 40.375 22.484375 35.828125 
Q 18.609375 31.296875 18.609375 23.390625 
Q 18.609375 15.53125 22.484375 10.953125 
Q 26.375 6.390625 33.015625 6.390625 
Q 39.65625 6.390625 43.53125 10.953125 
Q 47.40625 15.53125 47.40625 23.390625 
Q 47.40625 31.296875 43.53125 35.828125 
Q 39.65625 40.375 33.015625 40.375 
z
M 52.59375 71.296875 
L 52.59375 62.3125 
Q 48.875 64.0625 45.09375 64.984375 
Q 41.3125 65.921875 37.59375 65.921875 
Q 27.828125 65.921875 22.671875 59.328125 
Q 17.53125 52.734375 16.796875 39.40625 
Q 19.671875 43.65625 24.015625 45.921875 
Q 28.375 48.1875 33.59375 48.1875 
Q 44.578125 48.1875 50.953125 41.515625 
Q 57.328125 34.859375 57.328125 23.390625 
Q 57.328125 12.15625 50.6875 5.359375 
Q 44.046875 -1.421875 33.015625 -1.421875 
Q 20.359375 -1.421875 13.671875 8.265625 
Q 6.984375 17.96875 6.984375 36.375 
Q 6.984375 53.65625 15.1875 63.9375 
Q 23.390625 74.21875 37.203125 74.21875 
Q 40.921875 74.21875 44.703125 73.484375 
Q 48.484375 72.75 52.59375 71.296875 
z
" id="DejaVuSans-36"/>
      </defs>
      <g transform="translate(242.6375 53.34971)scale(0.1 -0.1)">
       <use xlink:href="#DejaVuSans-36"/>
      </g>
     </g>
    </g>
   </g>
   <g id="line2d_36">
    <path clip-path="url(#p225c251c19)" d="M 263.214545 46.848 
L 263.697124 83.328859 
L 264.179702 102.631024 
L 264.66228 114.474264 
L 265.144859 121.300921 
L 265.627437 126.041701 
L 266.592593 132.00863 
L 267.55775 136.005285 
L 268.040328 137.673797 
L 268.522907 138.879676 
L 270.45322 141.985015 
L 270.935798 142.509374 
L 271.900955 143.94133 
L 272.383533 144.205081 
L 273.34869 145.532353 
L 274.313846 146.205226 
L 274.796424 146.550105 
L 275.279003 147.058045 
L 275.761581 147.299989 
L 276.726738 147.552953 
L 277.209316 148.02459 
L 277.691894 148.135327 
L 278.174472 148.517139 
L 278.657051 148.507556 
L 279.139629 148.740084 
L 279.622207 148.721971 
L 280.104786 148.94169 
L 280.587364 149.033741 
L 281.069942 149.258184 
L 282.035099 149.167778 
L 282.517677 149.328374 
L 283.000255 149.626302 
L 283.482834 149.734145 
L 283.965412 149.71939 
L 284.44799 149.897963 
L 284.930569 149.725891 
L 285.413147 150.025273 
L 286.378303 150.064504 
L 286.860882 150.003042 
L 287.34346 150.291104 
L 287.826038 150.231025 
L 288.308617 150.539874 
L 288.791195 150.680606 
L 289.273773 150.559128 
L 289.756351 150.698683 
L 290.721508 150.654564 
L 291.204086 150.747029 
L 291.686665 150.725761 
L 292.169243 150.843408 
L 293.1344 150.733858 
L 294.099556 151.036008 
L 295.547291 150.531247 
L 296.029869 150.234856 
L 296.512448 150.855086 
L 297.960182 151.22985 
L 299.407917 151.479501 
L 299.890496 151.296098 
L 300.373074 151.418027 
L 300.855652 151.226832 
L 301.33823 151.394802 
L 301.820809 150.999009 
L 302.785965 150.583998 
L 303.268544 150.636638 
L 304.2337 150.214038 
L 304.716279 150.255662 
L 306.164013 150.655043 
L 306.646592 150.574143 
L 307.611748 151.010231 
L 308.094327 150.88808 
L 308.576905 151.185689 
L 309.059483 150.994884 
L 309.542061 150.979986 
L 310.507218 151.229689 
L 311.954953 151.346925 
L 312.437531 151.652552 
L 313.402688 151.628377 
L 313.885266 151.787841 
L 314.850423 151.457853 
L 315.815579 151.538471 
L 316.780736 151.286322 
L 317.263314 151.449057 
L 317.745892 151.362154 
L 318.228471 151.424778 
L 318.711049 151.672506 
L 319.193627 151.4526 
L 319.676206 151.408285 
L 320.158784 151.668768 
L 320.641362 151.798895 
L 321.12394 151.799351 
L 321.606519 152.005645 
L 322.089097 151.940372 
L 323.054254 152.379799 
L 323.536832 152.318482 
L 324.01941 152.436426 
L 324.501988 152.31975 
L 325.467145 152.571128 
L 325.949723 152.584341 
L 326.432302 152.769751 
L 326.91488 152.527328 
L 327.397458 152.762222 
L 327.880036 152.814124 
L 328.362615 152.738375 
L 328.845193 153.114367 
L 329.327771 152.79451 
L 329.81035 152.845392 
L 330.292928 152.718506 
L 330.775506 152.913311 
L 331.258085 152.759589 
L 331.740663 152.954418 
L 332.223241 152.898963 
L 334.153554 153.22787 
L 335.118711 153.213206 
L 335.601289 153.110697 
L 338.496759 153.373285 
L 338.979337 153.443447 
L 339.944494 153.29106 
L 340.427072 153.474343 
L 340.90965 153.523461 
L 341.392229 153.404275 
L 341.874807 153.407231 
L 342.839964 153.579483 
L 343.322542 153.49036 
L 343.80512 153.670916 
L 345.252855 153.610951 
L 345.735433 153.384879 
L 348.148325 153.687866 
L 348.630903 153.426337 
L 349.113481 153.530067 
L 349.59606 153.472697 
L 350.561216 153.667235 
L 352.008951 153.956482 
L 352.491529 153.641996 
L 352.974108 153.747036 
L 353.456686 153.674648 
L 354.904421 153.997608 
L 355.386999 153.992313 
L 355.869577 153.668686 
L 356.352156 154.002441 
L 357.317312 153.77238 
L 358.282469 153.913622 
L 361.660517 153.962283 
L 362.143095 154.057519 
L 362.625673 154.005929 
L 363.108252 154.280311 
L 364.073408 154.163676 
L 364.555987 154.216716 
L 365.521143 154.034922 
L 366.003721 154.368 
L 367.451456 154.197259 
L 368.899191 154.332573 
L 369.38177 154.108078 
L 369.864348 154.166736 
L 370.346926 154.111776 
L 370.829504 153.89639 
L 371.794661 154.045828 
L 372.277239 153.829605 
L 377.103022 153.967602 
L 378.550757 153.833758 
L 379.033335 153.99943 
L 379.515914 153.91174 
L 379.998492 154.065288 
L 382.893962 153.93968 
L 383.37654 154.177352 
L 387.237166 154.102897 
L 389.167479 153.68138 
L 389.650058 153.504526 
L 390.132636 153.614654 
L 391.097793 153.449277 
L 391.580371 153.521466 
L 392.062949 153.287744 
L 392.545528 153.45178 
L 394.475841 153.30711 
L 394.958419 153.508128 
L 395.440997 153.310573 
L 396.888732 153.428757 
L 397.37131 153.271404 
L 397.853889 153.490914 
L 398.336467 153.331371 
L 399.301624 153.403854 
L 399.784202 153.639385 
L 400.26678 153.400308 
L 401.714515 153.628845 
L 402.197093 153.694315 
L 402.679672 153.543743 
L 403.16225 153.734798 
L 404.127407 153.808274 
L 404.609985 153.861786 
L 405.092563 153.631772 
L 406.05772 154.035257 
L 406.540298 153.919822 
L 407.505455 154.089539 
L 407.505455 154.089539 
" style="fill:none;stroke:#1f77b4;stroke-linecap:square;stroke-width:1.5;"/>
   </g>
   <g id="patch_8">
    <path d="M 256 159.744 
L 256 41.472 
" style="fill:none;stroke:#000000;stroke-linecap:square;stroke-linejoin:miter;stroke-width:0.8;"/>
   </g>
   <g id="patch_9">
    <path d="M 414.72 159.744 
L 414.72 41.472 
" style="fill:none;stroke:#000000;stroke-linecap:square;stroke-linejoin:miter;stroke-width:0.8;"/>
   </g>
   <g id="patch_10">
    <path d="M 256 159.744 
L 414.72 159.744 
" style="fill:none;stroke:#000000;stroke-linecap:square;stroke-linejoin:miter;stroke-width:0.8;"/>
   </g>
   <g id="patch_11">
    <path d="M 256 41.472 
L 414.72 41.472 
" style="fill:none;stroke:#000000;stroke-linecap:square;stroke-linejoin:miter;stroke-width:0.8;"/>
   </g>
   <g id="text_19">
    <!-- loss -->
    <defs>
     <path d="M 9.421875 75.984375 
L 18.40625 75.984375 
L 18.40625 0 
L 9.421875 0 
z
" id="DejaVuSans-6c"/>
     <path d="M 30.609375 48.390625 
Q 23.390625 48.390625 19.1875 42.75 
Q 14.984375 37.109375 14.984375 27.296875 
Q 14.984375 17.484375 19.15625 11.84375 
Q 23.34375 6.203125 30.609375 6.203125 
Q 37.796875 6.203125 41.984375 11.859375 
Q 46.1875 17.53125 46.1875 27.296875 
Q 46.1875 37.015625 41.984375 42.703125 
Q 37.796875 48.390625 30.609375 48.390625 
z
M 30.609375 56 
Q 42.328125 56 49.015625 48.375 
Q 55.71875 40.765625 55.71875 27.296875 
Q 55.71875 13.875 49.015625 6.21875 
Q 42.328125 -1.421875 30.609375 -1.421875 
Q 18.84375 -1.421875 12.171875 6.21875 
Q 5.515625 13.875 5.515625 27.296875 
Q 5.515625 40.765625 12.171875 48.375 
Q 18.84375 56 30.609375 56 
z
" id="DejaVuSans-6f"/>
     <path d="M 44.28125 53.078125 
L 44.28125 44.578125 
Q 40.484375 46.53125 36.375 47.5 
Q 32.28125 48.484375 27.875 48.484375 
Q 21.1875 48.484375 17.84375 46.4375 
Q 14.5 44.390625 14.5 40.28125 
Q 14.5 37.15625 16.890625 35.375 
Q 19.28125 33.59375 26.515625 31.984375 
L 29.59375 31.296875 
Q 39.15625 29.25 43.1875 25.515625 
Q 47.21875 21.78125 47.21875 15.09375 
Q 47.21875 7.46875 41.1875 3.015625 
Q 35.15625 -1.421875 24.609375 -1.421875 
Q 20.21875 -1.421875 15.453125 -0.5625 
Q 10.6875 0.296875 5.421875 2 
L 5.421875 11.28125 
Q 10.40625 8.6875 15.234375 7.390625 
Q 20.0625 6.109375 24.8125 6.109375 
Q 31.15625 6.109375 34.5625 8.28125 
Q 37.984375 10.453125 37.984375 14.40625 
Q 37.984375 18.0625 35.515625 20.015625 
Q 33.0625 21.96875 24.703125 23.78125 
L 21.578125 24.515625 
Q 13.234375 26.265625 9.515625 29.90625 
Q 5.8125 33.546875 5.8125 39.890625 
Q 5.8125 47.609375 11.28125 51.796875 
Q 16.75 56 26.8125 56 
Q 31.78125 56 36.171875 55.265625 
Q 40.578125 54.546875 44.28125 53.078125 
z
" id="DejaVuSans-73"/>
    </defs>
    <g transform="translate(323.770625 35.472)scale(0.12 -0.12)">
     <use xlink:href="#DejaVuSans-6c"/>
     <use x="27.783203" xlink:href="#DejaVuSans-6f"/>
     <use x="88.964844" xlink:href="#DejaVuSans-73"/>
     <use x="141.064453" xlink:href="#DejaVuSans-73"/>
    </g>
   </g>
  </g>
  <g id="axes_3">
   <g id="patch_12">
    <path d="M 57.6 307.584 
L 216.32 307.584 
L 216.32 189.312 
L 57.6 189.312 
z
" style="fill:#ffffff;"/>
   </g>
   <g id="matplotlib.axis_5">
    <g id="xtick_9">
     <g id="line2d_37">
      <path clip-path="url(#p83e244c50f)" d="M 64.814545 307.584 
L 64.814545 189.312 
" style="fill:none;stroke:#b0b0b0;stroke-linecap:square;stroke-width:0.8;"/>
     </g>
     <g id="line2d_38">
      <g>
       <use style="stroke:#000000;stroke-width:0.8;" x="64.814545" xlink:href="#m732a95f833" y="307.584"/>
      </g>
     </g>
     <g id="text_20">
      <!-- 0 -->
      <g transform="translate(61.633295 322.182437)scale(0.1 -0.1)">
       <use xlink:href="#DejaVuSans-30"/>
      </g>
     </g>
    </g>
    <g id="xtick_10">
     <g id="line2d_39">
      <path clip-path="url(#p83e244c50f)" d="M 113.072375 307.584 
L 113.072375 189.312 
" style="fill:none;stroke:#b0b0b0;stroke-linecap:square;stroke-width:0.8;"/>
     </g>
     <g id="line2d_40">
      <g>
       <use style="stroke:#000000;stroke-width:0.8;" x="113.072375" xlink:href="#m732a95f833" y="307.584"/>
      </g>
     </g>
     <g id="text_21">
      <!-- 100 -->
      <g transform="translate(103.528625 322.182437)scale(0.1 -0.1)">
       <use xlink:href="#DejaVuSans-31"/>
       <use x="63.623047" xlink:href="#DejaVuSans-30"/>
       <use x="127.246094" xlink:href="#DejaVuSans-30"/>
      </g>
     </g>
    </g>
    <g id="xtick_11">
     <g id="line2d_41">
      <path clip-path="url(#p83e244c50f)" d="M 161.330204 307.584 
L 161.330204 189.312 
" style="fill:none;stroke:#b0b0b0;stroke-linecap:square;stroke-width:0.8;"/>
     </g>
     <g id="line2d_42">
      <g>
       <use style="stroke:#000000;stroke-width:0.8;" x="161.330204" xlink:href="#m732a95f833" y="307.584"/>
      </g>
     </g>
     <g id="text_22">
      <!-- 200 -->
      <g transform="translate(151.786454 322.182437)scale(0.1 -0.1)">
       <use xlink:href="#DejaVuSans-32"/>
       <use x="63.623047" xlink:href="#DejaVuSans-30"/>
       <use x="127.246094" xlink:href="#DejaVuSans-30"/>
      </g>
     </g>
    </g>
    <g id="xtick_12">
     <g id="line2d_43">
      <path clip-path="url(#p83e244c50f)" d="M 209.588033 307.584 
L 209.588033 189.312 
" style="fill:none;stroke:#b0b0b0;stroke-linecap:square;stroke-width:0.8;"/>
     </g>
     <g id="line2d_44">
      <g>
       <use style="stroke:#000000;stroke-width:0.8;" x="209.588033" xlink:href="#m732a95f833" y="307.584"/>
      </g>
     </g>
     <g id="text_23">
      <!-- 300 -->
      <g transform="translate(200.044283 322.182437)scale(0.1 -0.1)">
       <use xlink:href="#DejaVuSans-33"/>
       <use x="63.623047" xlink:href="#DejaVuSans-30"/>
       <use x="127.246094" xlink:href="#DejaVuSans-30"/>
      </g>
     </g>
    </g>
   </g>
   <g id="matplotlib.axis_6">
    <g id="ytick_10">
     <g id="line2d_45">
      <path clip-path="url(#p83e244c50f)" d="M 57.6 285.133426 
L 216.32 285.133426 
" style="fill:none;stroke:#b0b0b0;stroke-linecap:square;stroke-width:0.8;"/>
     </g>
     <g id="line2d_46">
      <g>
       <use style="stroke:#000000;stroke-width:0.8;" x="57.6" xlink:href="#m758e142c24" y="285.133426"/>
      </g>
     </g>
     <g id="text_24">
      <!-- 0.2 -->
      <g transform="translate(34.696875 288.932644)scale(0.1 -0.1)">
       <use xlink:href="#DejaVuSans-30"/>
       <use x="63.623047" xlink:href="#DejaVuSans-2e"/>
       <use x="95.410156" xlink:href="#DejaVuSans-32"/>
      </g>
     </g>
    </g>
    <g id="ytick_11">
     <g id="line2d_47">
      <path clip-path="url(#p83e244c50f)" d="M 57.6 260.676475 
L 216.32 260.676475 
" style="fill:none;stroke:#b0b0b0;stroke-linecap:square;stroke-width:0.8;"/>
     </g>
     <g id="line2d_48">
      <g>
       <use style="stroke:#000000;stroke-width:0.8;" x="57.6" xlink:href="#m758e142c24" y="260.676475"/>
      </g>
     </g>
     <g id="text_25">
      <!-- 0.4 -->
      <g transform="translate(34.696875 264.475694)scale(0.1 -0.1)">
       <use xlink:href="#DejaVuSans-30"/>
       <use x="63.623047" xlink:href="#DejaVuSans-2e"/>
       <use x="95.410156" xlink:href="#DejaVuSans-34"/>
      </g>
     </g>
    </g>
    <g id="ytick_12">
     <g id="line2d_49">
      <path clip-path="url(#p83e244c50f)" d="M 57.6 236.219525 
L 216.32 236.219525 
" style="fill:none;stroke:#b0b0b0;stroke-linecap:square;stroke-width:0.8;"/>
     </g>
     <g id="line2d_50">
      <g>
       <use style="stroke:#000000;stroke-width:0.8;" x="57.6" xlink:href="#m758e142c24" y="236.219525"/>
      </g>
     </g>
     <g id="text_26">
      <!-- 0.6 -->
      <g transform="translate(34.696875 240.018743)scale(0.1 -0.1)">
       <use xlink:href="#DejaVuSans-30"/>
       <use x="63.623047" xlink:href="#DejaVuSans-2e"/>
       <use x="95.410156" xlink:href="#DejaVuSans-36"/>
      </g>
     </g>
    </g>
    <g id="ytick_13">
     <g id="line2d_51">
      <path clip-path="url(#p83e244c50f)" d="M 57.6 211.762574 
L 216.32 211.762574 
" style="fill:none;stroke:#b0b0b0;stroke-linecap:square;stroke-width:0.8;"/>
     </g>
     <g id="line2d_52">
      <g>
       <use style="stroke:#000000;stroke-width:0.8;" x="57.6" xlink:href="#m758e142c24" y="211.762574"/>
      </g>
     </g>
     <g id="text_27">
      <!-- 0.8 -->
      <defs>
       <path d="M 31.78125 34.625 
Q 24.75 34.625 20.71875 30.859375 
Q 16.703125 27.09375 16.703125 20.515625 
Q 16.703125 13.921875 20.71875 10.15625 
Q 24.75 6.390625 31.78125 6.390625 
Q 38.8125 6.390625 42.859375 10.171875 
Q 46.921875 13.96875 46.921875 20.515625 
Q 46.921875 27.09375 42.890625 30.859375 
Q 38.875 34.625 31.78125 34.625 
z
M 21.921875 38.8125 
Q 15.578125 40.375 12.03125 44.71875 
Q 8.5 49.078125 8.5 55.328125 
Q 8.5 64.0625 14.71875 69.140625 
Q 20.953125 74.21875 31.78125 74.21875 
Q 42.671875 74.21875 48.875 69.140625 
Q 55.078125 64.0625 55.078125 55.328125 
Q 55.078125 49.078125 51.53125 44.71875 
Q 48 40.375 41.703125 38.8125 
Q 48.828125 37.15625 52.796875 32.3125 
Q 56.78125 27.484375 56.78125 20.515625 
Q 56.78125 9.90625 50.3125 4.234375 
Q 43.84375 -1.421875 31.78125 -1.421875 
Q 19.734375 -1.421875 13.25 4.234375 
Q 6.78125 9.90625 6.78125 20.515625 
Q 6.78125 27.484375 10.78125 32.3125 
Q 14.796875 37.15625 21.921875 38.8125 
z
M 18.3125 54.390625 
Q 18.3125 48.734375 21.84375 45.5625 
Q 25.390625 42.390625 31.78125 42.390625 
Q 38.140625 42.390625 41.71875 45.5625 
Q 45.3125 48.734375 45.3125 54.390625 
Q 45.3125 60.0625 41.71875 63.234375 
Q 38.140625 66.40625 31.78125 66.40625 
Q 25.390625 66.40625 21.84375 63.234375 
Q 18.3125 60.0625 18.3125 54.390625 
z
" id="DejaVuSans-38"/>
      </defs>
      <g transform="translate(34.696875 215.561793)scale(0.1 -0.1)">
       <use xlink:href="#DejaVuSans-30"/>
       <use x="63.623047" xlink:href="#DejaVuSans-2e"/>
       <use x="95.410156" xlink:href="#DejaVuSans-38"/>
      </g>
     </g>
    </g>
   </g>
   <g id="line2d_53">
    <path clip-path="url(#p83e244c50f)" d="M 64.814545 302.208 
L 65.779702 267.017165 
L 66.26228 259.181883 
L 66.744859 253.611133 
L 67.227437 243.69248 
L 67.710015 239.616322 
L 68.192593 247.17986 
L 68.675172 231.871621 
L 69.15775 228.610694 
L 69.640328 228.837147 
L 70.605485 221.001865 
L 71.088063 223.583432 
L 71.570642 221.454772 
L 72.05322 218.646751 
L 72.535798 216.699254 
L 73.018376 217.15216 
L 73.500955 215.249953 
L 73.983533 216.880416 
L 74.466111 212.079608 
L 74.94869 210.720889 
L 75.431268 209.724495 
L 75.913846 209.815076 
L 76.396424 210.494435 
L 76.879003 212.124899 
L 77.361581 208.139322 
L 77.844159 207.052347 
L 78.326738 208.773391 
L 78.809316 207.731706 
L 79.774472 210.403854 
L 80.257051 207.641125 
L 80.739629 209.316879 
L 81.222207 204.47078 
L 81.704786 204.968977 
L 82.187364 206.825893 
L 82.669942 206.690021 
L 83.152521 208.094031 
L 83.635099 204.787814 
L 84.117677 205.829499 
L 84.600255 204.968977 
L 85.082834 206.146533 
L 85.565412 203.972582 
L 86.04799 205.738918 
L 86.530569 202.296829 
L 87.495725 205.603046 
L 87.978303 203.021479 
L 88.460882 203.655548 
L 88.94346 203.836711 
L 89.426038 203.836711 
L 89.908617 204.244327 
L 90.391195 202.342119 
L 90.873773 201.345726 
L 91.356351 200.892819 
L 92.321508 203.247932 
L 92.804086 201.073982 
L 93.286665 205.014268 
L 93.769243 204.334908 
L 94.251821 202.251538 
L 94.7344 205.150139 
L 95.699556 201.345725 
L 96.182134 203.610258 
L 96.664713 204.153745 
L 97.147291 201.345725 
L 97.629869 203.247932 
L 98.112448 200.575784 
L 98.595026 203.519676 
L 99.077604 200.711656 
L 99.560182 202.885607 
L 100.042761 199.669971 
L 100.525339 204.153745 
L 101.007917 203.610257 
L 101.490496 200.304041 
L 101.973074 203.474386 
L 102.455652 200.666366 
L 102.93823 201.843923 
L 103.420809 200.077587 
L 103.903387 204.833105 
L 104.385965 201.979794 
L 104.868544 202.206247 
L 105.351122 203.383804 
L 105.8337 203.746129 
L 106.316279 202.160957 
L 106.798857 204.153745 
L 107.281435 201.028691 
L 107.764013 200.621075 
L 108.246592 202.115666 
L 108.72917 199.851134 
L 109.694327 204.244326 
L 110.176905 201.526888 
L 110.659483 201.66276 
L 111.142061 199.805843 
L 111.62464 206.418277 
L 112.107218 203.972583 
L 112.589796 200.213459 
L 113.072375 201.66276 
L 113.554953 200.802237 
L 114.037531 198.628286 
L 114.520109 200.168168 
L 115.002688 203.474386 
L 115.485266 200.847528 
L 115.967844 202.160957 
L 116.450423 200.032296 
L 116.933001 198.673577 
L 117.415579 199.217065 
L 117.898157 197.224276 
L 118.380736 197.45073 
L 118.863314 198.084799 
L 119.345892 200.93811 
L 119.828471 198.401834 
L 120.311049 200.30404 
L 120.793627 199.488808 
L 121.276206 201.753341 
L 121.758784 199.217065 
L 122.241362 202.251538 
L 122.72394 197.948927 
L 123.206519 200.349331 
L 123.689097 200.485203 
L 124.171675 199.171774 
L 124.654254 198.990612 
L 125.136832 197.767764 
L 125.61941 200.077587 
L 126.101988 201.617469 
L 126.584567 204.108455 
L 127.067145 198.492414 
L 127.549723 197.631892 
L 128.032302 198.90003 
L 128.51488 195.865557 
L 128.997458 196.680789 
L 129.480036 197.767765 
L 129.962615 195.729685 
L 130.927771 199.126484 
L 131.41035 197.405439 
L 131.892928 197.360149 
L 132.375506 198.990612 
L 132.858085 201.300434 
L 133.340663 197.45073 
L 133.823241 197.49602 
L 134.305819 196.861951 
L 134.788398 197.269567 
L 135.270976 196.77137 
L 135.753554 197.677183 
L 136.236133 196.726079 
L 137.201289 200.439912 
L 137.683867 197.677183 
L 138.166446 197.631892 
L 138.649024 197.360148 
L 139.131602 198.17538 
L 139.614181 198.220671 
L 140.096759 197.631892 
L 140.579337 197.631892 
L 141.061915 199.126484 
L 141.544494 195.729685 
L 142.027072 194.688 
L 142.50965 198.582996 
L 142.992229 198.401833 
L 143.474807 198.628287 
L 143.957385 195.865557 
L 144.439964 198.718868 
L 145.40512 197.314858 
L 145.887698 197.45073 
L 146.370277 197.088405 
L 146.852855 196.227882 
L 147.335433 199.896425 
L 147.818012 198.854739 
L 148.30059 197.405439 
L 148.783168 195.503232 
L 149.265746 196.726079 
L 149.748325 197.178986 
L 150.230903 196.454336 
L 150.713481 196.997823 
L 151.19606 196.182591 
L 151.678638 196.907242 
L 152.161216 196.907242 
L 152.643794 196.04672 
L 153.126373 200.394622 
L 153.608951 197.858346 
L 154.091529 196.907242 
L 154.574108 198.673577 
L 155.056686 197.677183 
L 155.539264 199.307646 
L 156.021843 198.582996 
L 156.504421 195.956138 
L 156.986999 198.85474 
L 157.469577 198.673577 
L 157.952156 198.673577 
L 158.434734 198.945321 
L 158.917312 199.5341 
L 159.399891 202.523282 
L 159.882469 197.541311 
L 160.365047 199.488809 
L 160.847625 198.17538 
L 161.330204 195.684395 
L 161.812782 198.13009 
L 162.29536 195.412651 
L 163.260517 200.25875 
L 163.743095 196.092011 
L 164.225673 195.548522 
L 164.708252 197.813055 
L 165.19083 197.224277 
L 165.673408 197.722474 
L 166.155987 197.722474 
L 166.638565 201.708051 
L 167.603721 199.035902 
L 168.0863 196.04672 
L 169.051456 201.300435 
L 169.534035 197.224277 
L 170.016613 196.907242 
L 170.499191 195.503232 
L 170.98177 196.635498 
L 171.946926 201.481597 
L 172.429504 196.590207 
L 172.912083 198.039508 
L 173.394661 198.265962 
L 173.877239 197.541311 
L 174.359818 199.488809 
L 175.324974 195.276779 
L 175.807552 202.296829 
L 176.290131 198.220671 
L 176.772709 196.182592 
L 177.255287 199.352937 
L 177.737866 196.907242 
L 178.220444 202.070375 
L 178.703022 198.673577 
L 179.1856 197.043114 
L 180.150757 199.488809 
L 180.633335 196.137301 
L 181.115914 196.816661 
L 181.598492 200.032297 
L 182.08107 198.582996 
L 182.563649 197.767764 
L 183.046227 200.621075 
L 183.528805 199.488809 
L 184.011383 201.934504 
L 184.493962 196.04672 
L 184.97654 196.454335 
L 185.459118 197.586602 
L 185.941697 196.318463 
L 186.424275 199.488809 
L 186.906853 198.945321 
L 187.389431 196.680789 
L 187.87201 198.130089 
L 188.354588 197.088405 
L 188.837166 199.534099 
L 189.319745 195.050325 
L 190.284901 200.213459 
L 190.767479 198.537706 
L 191.250058 194.688 
L 191.732636 199.352937 
L 192.215214 199.669972 
L 192.697793 196.997823 
L 193.180371 196.680789 
L 193.662949 198.17538 
L 194.145528 195.095616 
L 194.628106 198.17538 
L 195.110684 196.726079 
L 195.593262 198.582996 
L 196.075841 197.767764 
L 196.558419 197.314858 
L 197.040997 197.813055 
L 197.523576 197.767764 
L 198.006154 195.865557 
L 198.488732 197.405439 
L 198.97131 198.130089 
L 199.453889 196.590207 
L 199.936467 196.590207 
L 200.419045 195.593813 
L 200.901624 196.861951 
L 201.384202 194.733291 
L 201.86678 195.36736 
L 202.349358 196.77137 
L 202.831937 198.537705 
L 203.314515 197.631893 
L 203.797093 195.865557 
L 204.279672 196.907242 
L 204.76225 195.36736 
L 205.244828 197.45073 
L 205.727407 197.043114 
L 206.209985 198.764159 
L 206.692563 196.77137 
L 207.175141 197.450729 
L 207.65772 196.544917 
L 208.140298 197.767764 
L 208.622876 197.813055 
L 209.105455 195.548522 
L 209.105455 195.548522 
" style="fill:none;stroke:#1f77b4;stroke-linecap:square;stroke-width:1.5;"/>
   </g>
   <g id="patch_13">
    <path d="M 57.6 307.584 
L 57.6 189.312 
" style="fill:none;stroke:#000000;stroke-linecap:square;stroke-linejoin:miter;stroke-width:0.8;"/>
   </g>
   <g id="patch_14">
    <path d="M 216.32 307.584 
L 216.32 189.312 
" style="fill:none;stroke:#000000;stroke-linecap:square;stroke-linejoin:miter;stroke-width:0.8;"/>
   </g>
   <g id="patch_15">
    <path d="M 57.6 307.584 
L 216.32 307.584 
" style="fill:none;stroke:#000000;stroke-linecap:square;stroke-linejoin:miter;stroke-width:0.8;"/>
   </g>
   <g id="patch_16">
    <path d="M 57.6 189.312 
L 216.32 189.312 
" style="fill:none;stroke:#000000;stroke-linecap:square;stroke-linejoin:miter;stroke-width:0.8;"/>
   </g>
   <g id="text_28">
    <!-- val_acc -->
    <defs>
     <path d="M 2.984375 54.6875 
L 12.5 54.6875 
L 29.59375 8.796875 
L 46.6875 54.6875 
L 56.203125 54.6875 
L 35.6875 0 
L 23.484375 0 
z
" id="DejaVuSans-76"/>
     <path d="M 50.984375 -16.609375 
L 50.984375 -23.578125 
L -0.984375 -23.578125 
L -0.984375 -16.609375 
z
" id="DejaVuSans-5f"/>
    </defs>
    <g transform="translate(114.79 183.312)scale(0.12 -0.12)">
     <use xlink:href="#DejaVuSans-76"/>
     <use x="59.179688" xlink:href="#DejaVuSans-61"/>
     <use x="120.458984" xlink:href="#DejaVuSans-6c"/>
     <use x="148.242188" xlink:href="#DejaVuSans-5f"/>
     <use x="198.242188" xlink:href="#DejaVuSans-61"/>
     <use x="259.521484" xlink:href="#DejaVuSans-63"/>
     <use x="314.501953" xlink:href="#DejaVuSans-63"/>
    </g>
   </g>
  </g>
  <g id="axes_4">
   <g id="patch_17">
    <path d="M 256 307.584 
L 414.72 307.584 
L 414.72 189.312 
L 256 189.312 
z
" style="fill:#ffffff;"/>
   </g>
   <g id="matplotlib.axis_7">
    <g id="xtick_13">
     <g id="line2d_54">
      <path clip-path="url(#pa8ae247669)" d="M 263.214545 307.584 
L 263.214545 189.312 
" style="fill:none;stroke:#b0b0b0;stroke-linecap:square;stroke-width:0.8;"/>
     </g>
     <g id="line2d_55">
      <g>
       <use style="stroke:#000000;stroke-width:0.8;" x="263.214545" xlink:href="#m732a95f833" y="307.584"/>
      </g>
     </g>
     <g id="text_29">
      <!-- 0 -->
      <g transform="translate(260.033295 322.182437)scale(0.1 -0.1)">
       <use xlink:href="#DejaVuSans-30"/>
      </g>
     </g>
    </g>
    <g id="xtick_14">
     <g id="line2d_56">
      <path clip-path="url(#pa8ae247669)" d="M 311.472375 307.584 
L 311.472375 189.312 
" style="fill:none;stroke:#b0b0b0;stroke-linecap:square;stroke-width:0.8;"/>
     </g>
     <g id="line2d_57">
      <g>
       <use style="stroke:#000000;stroke-width:0.8;" x="311.472375" xlink:href="#m732a95f833" y="307.584"/>
      </g>
     </g>
     <g id="text_30">
      <!-- 100 -->
      <g transform="translate(301.928625 322.182437)scale(0.1 -0.1)">
       <use xlink:href="#DejaVuSans-31"/>
       <use x="63.623047" xlink:href="#DejaVuSans-30"/>
       <use x="127.246094" xlink:href="#DejaVuSans-30"/>
      </g>
     </g>
    </g>
    <g id="xtick_15">
     <g id="line2d_58">
      <path clip-path="url(#pa8ae247669)" d="M 359.730204 307.584 
L 359.730204 189.312 
" style="fill:none;stroke:#b0b0b0;stroke-linecap:square;stroke-width:0.8;"/>
     </g>
     <g id="line2d_59">
      <g>
       <use style="stroke:#000000;stroke-width:0.8;" x="359.730204" xlink:href="#m732a95f833" y="307.584"/>
      </g>
     </g>
     <g id="text_31">
      <!-- 200 -->
      <g transform="translate(350.186454 322.182437)scale(0.1 -0.1)">
       <use xlink:href="#DejaVuSans-32"/>
       <use x="63.623047" xlink:href="#DejaVuSans-30"/>
       <use x="127.246094" xlink:href="#DejaVuSans-30"/>
      </g>
     </g>
    </g>
    <g id="xtick_16">
     <g id="line2d_60">
      <path clip-path="url(#pa8ae247669)" d="M 407.988033 307.584 
L 407.988033 189.312 
" style="fill:none;stroke:#b0b0b0;stroke-linecap:square;stroke-width:0.8;"/>
     </g>
     <g id="line2d_61">
      <g>
       <use style="stroke:#000000;stroke-width:0.8;" x="407.988033" xlink:href="#m732a95f833" y="307.584"/>
      </g>
     </g>
     <g id="text_32">
      <!-- 300 -->
      <g transform="translate(398.444283 322.182437)scale(0.1 -0.1)">
       <use xlink:href="#DejaVuSans-33"/>
       <use x="63.623047" xlink:href="#DejaVuSans-30"/>
       <use x="127.246094" xlink:href="#DejaVuSans-30"/>
      </g>
     </g>
    </g>
   </g>
   <g id="matplotlib.axis_8">
    <g id="ytick_14">
     <g id="line2d_62">
      <path clip-path="url(#pa8ae247669)" d="M 256 307.870445 
L 414.72 307.870445 
" style="fill:none;stroke:#b0b0b0;stroke-linecap:square;stroke-width:0.8;"/>
     </g>
     <g id="line2d_63">
      <g>
       <use style="stroke:#000000;stroke-width:0.8;" x="256" xlink:href="#m758e142c24" y="307.870445"/>
      </g>
     </g>
     <g id="text_33">
      <!-- 0 -->
      <g transform="translate(242.6375 311.669664)scale(0.1 -0.1)">
       <use xlink:href="#DejaVuSans-30"/>
      </g>
     </g>
    </g>
    <g id="ytick_15">
     <g id="line2d_64">
      <path clip-path="url(#pa8ae247669)" d="M 256 263.423019 
L 414.72 263.423019 
" style="fill:none;stroke:#b0b0b0;stroke-linecap:square;stroke-width:0.8;"/>
     </g>
     <g id="line2d_65">
      <g>
       <use style="stroke:#000000;stroke-width:0.8;" x="256" xlink:href="#m758e142c24" y="263.423019"/>
      </g>
     </g>
     <g id="text_34">
      <!-- 2 -->
      <g transform="translate(242.6375 267.222238)scale(0.1 -0.1)">
       <use xlink:href="#DejaVuSans-32"/>
      </g>
     </g>
    </g>
    <g id="ytick_16">
     <g id="line2d_66">
      <path clip-path="url(#pa8ae247669)" d="M 256 218.975594 
L 414.72 218.975594 
" style="fill:none;stroke:#b0b0b0;stroke-linecap:square;stroke-width:0.8;"/>
     </g>
     <g id="line2d_67">
      <g>
       <use style="stroke:#000000;stroke-width:0.8;" x="256" xlink:href="#m758e142c24" y="218.975594"/>
      </g>
     </g>
     <g id="text_35">
      <!-- 4 -->
      <g transform="translate(242.6375 222.774812)scale(0.1 -0.1)">
       <use xlink:href="#DejaVuSans-34"/>
      </g>
     </g>
    </g>
   </g>
   <g id="line2d_68">
    <path clip-path="url(#pa8ae247669)" d="M 263.214545 194.688 
L 263.697124 224.253787 
L 264.179702 241.819162 
L 264.66228 252.138857 
L 265.144859 257.584706 
L 265.627437 264.434646 
L 266.110015 267.913813 
L 266.592593 265.54364 
L 267.075172 273.397287 
L 267.55775 275.757702 
L 268.040328 276.282694 
L 269.005485 281.135334 
L 269.488063 280.666361 
L 270.935798 285.223059 
L 271.418376 285.759687 
L 271.900955 285.944785 
L 272.383533 286.564363 
L 273.34869 289.153364 
L 273.831268 289.9579 
L 274.313846 290.110246 
L 274.796424 290.428407 
L 275.279003 290.445064 
L 275.761581 291.998796 
L 276.244159 292.527669 
L 276.726738 291.739325 
L 277.209316 292.488715 
L 277.691894 292.002206 
L 278.174472 291.301057 
L 278.657051 293.06359 
L 279.139629 291.808288 
L 279.622207 294.611646 
L 280.104786 294.245625 
L 280.587364 293.707417 
L 281.069942 293.403388 
L 281.552521 292.863539 
L 282.035099 294.69417 
L 282.517677 294.160662 
L 283.000255 294.42655 
L 283.482834 293.837417 
L 283.965412 295.1689 
L 284.44799 294.412577 
L 284.930569 295.682429 
L 285.413147 295.454688 
L 285.895725 294.402758 
L 286.378303 295.928282 
L 286.860882 295.085091 
L 287.34346 296.032144 
L 287.826038 295.138129 
L 288.791195 296.382996 
L 289.273773 297.46265 
L 290.23893 297.286048 
L 290.721508 296.446311 
L 291.204086 297.443948 
L 291.686665 295.39006 
L 292.169243 295.800032 
L 292.651821 297.477496 
L 293.1344 295.517662 
L 294.099556 297.622235 
L 294.582134 296.162868 
L 295.064713 296.321353 
L 295.547291 297.948964 
L 296.029869 296.207532 
L 296.512448 298.076307 
L 296.995026 296.498325 
L 297.477604 298.056889 
L 297.960182 297.137498 
L 298.442761 298.237714 
L 298.925339 296.392982 
L 299.407917 296.589694 
L 299.890496 298.007561 
L 300.373074 296.024139 
L 300.855652 297.889342 
L 301.33823 297.662318 
L 301.820809 298.215339 
L 302.303387 295.406001 
L 302.785965 296.895958 
L 303.268544 296.511257 
L 303.751122 295.139372 
L 304.2337 295.105353 
L 304.716279 296.139384 
L 305.198857 295.567317 
L 305.681435 296.227168 
L 306.164013 296.379097 
L 306.646592 296.817521 
L 307.12917 297.946498 
L 307.611748 297.05821 
L 308.094327 295.7558 
L 308.576905 297.332899 
L 309.059483 296.875943 
L 309.542061 297.969835 
L 310.02464 294.214518 
L 310.989796 297.311666 
L 311.472375 296.882477 
L 312.437531 298.483806 
L 312.920109 298.22012 
L 313.402688 296.347034 
L 313.885266 297.530893 
L 314.367844 296.621102 
L 315.333001 298.671344 
L 315.815579 298.472068 
L 316.298157 299.238044 
L 316.780736 298.875031 
L 317.263314 298.844794 
L 317.745892 297.143199 
L 318.228471 298.766181 
L 318.711049 298.132005 
L 319.193627 298.307891 
L 319.676206 296.732325 
L 320.158784 298.098397 
L 320.641362 296.59536 
L 321.12394 299.277104 
L 321.606519 297.807884 
L 322.089097 297.358451 
L 322.571675 298.644095 
L 323.054254 299.097601 
L 323.536832 299.322533 
L 324.01941 298.558869 
L 324.501988 297.5009 
L 324.984567 296.090448 
L 325.467145 299.649034 
L 325.949723 299.477375 
L 326.432302 298.750834 
L 326.91488 300.425952 
L 327.397458 300.171212 
L 327.880036 299.682879 
L 328.362615 300.846776 
L 328.845193 300.19141 
L 329.327771 299.152821 
L 329.81035 299.738978 
L 330.292928 299.861868 
L 331.258085 297.366067 
L 331.740663 299.763464 
L 332.223241 299.550723 
L 332.705819 299.707673 
L 333.188398 298.946493 
L 333.670976 299.999075 
L 334.153554 299.536328 
L 334.636133 300.115184 
L 335.118711 298.485876 
L 335.601289 297.443503 
L 336.083867 299.483116 
L 336.566446 298.441141 
L 337.049024 299.681144 
L 337.531602 298.929289 
L 338.496759 299.864221 
L 338.979337 299.957652 
L 339.461915 298.172438 
L 339.944494 300.479353 
L 340.427072 300.677921 
L 340.90965 298.680984 
L 341.392229 299.09403 
L 341.874807 298.476044 
L 342.357385 300.453033 
L 342.839964 298.220907 
L 343.322542 298.985287 
L 343.80512 299.152598 
L 344.287698 300.067922 
L 344.770277 299.522627 
L 345.252855 300.250092 
L 345.735433 298.316385 
L 346.218012 298.737508 
L 346.70059 298.981109 
L 347.183168 300.429146 
L 347.665746 300.437336 
L 348.148325 298.747643 
L 348.630903 299.585872 
L 349.113481 298.98586 
L 349.59606 299.533936 
L 350.078638 299.794188 
L 350.561216 299.562857 
L 351.043794 300.088832 
L 351.526373 297.681301 
L 352.008951 298.360163 
L 352.491529 299.522686 
L 352.974108 298.2504 
L 353.456686 299.476898 
L 353.939264 297.63981 
L 354.421843 298.294665 
L 354.904421 301.319107 
L 355.386999 299.400189 
L 355.869577 300.54437 
L 356.352156 299.743874 
L 356.834734 300.656711 
L 357.317312 300.599319 
L 357.799891 298.308064 
L 358.282469 300.825013 
L 358.765047 300.483341 
L 359.247625 300.763351 
L 359.730204 302.208 
L 360.212782 300.427724 
L 360.69536 302.005508 
L 361.177939 300.715846 
L 361.660517 300.061213 
L 362.625673 302.165751 
L 363.108252 299.246412 
L 363.59083 300.511189 
L 364.073408 299.946305 
L 364.555987 299.934936 
L 365.038565 297.565546 
L 365.521143 298.499953 
L 366.003721 298.795477 
L 366.4863 300.633939 
L 366.968878 299.366312 
L 367.451456 296.261675 
L 367.934035 300.439463 
L 368.899191 301.358293 
L 369.38177 300.677517 
L 369.864348 298.690561 
L 370.346926 295.645965 
L 370.829504 300.252326 
L 371.312083 298.695655 
L 371.794661 298.423569 
L 372.277239 299.129511 
L 372.759818 297.10791 
L 373.242396 298.657909 
L 373.724974 300.973511 
L 374.207552 296.630246 
L 374.690131 299.110972 
L 375.172709 300.663188 
L 375.655287 297.539088 
L 376.137866 300.077226 
L 376.620444 295.950172 
L 377.103022 298.999026 
L 377.5856 300.136957 
L 378.068179 298.501147 
L 379.033335 300.099747 
L 379.515914 300.178538 
L 379.998492 297.762067 
L 380.48107 299.110091 
L 380.963649 298.595447 
L 381.446227 297.839723 
L 381.928805 298.195935 
L 382.411383 297.294914 
L 383.37654 299.70687 
L 383.859118 298.546724 
L 384.341697 300.212284 
L 384.824275 297.748766 
L 385.306853 297.241237 
L 385.789431 298.965424 
L 386.27201 298.606211 
L 386.754588 298.977733 
L 387.237166 295.892316 
L 387.719745 299.96174 
L 388.202323 297.779076 
L 389.167479 296.180682 
L 389.650058 299.953018 
L 390.132636 296.695155 
L 390.615214 296.684734 
L 391.097793 297.935215 
L 391.580371 297.46776 
L 392.062949 296.665031 
L 392.545528 299.181824 
L 393.028106 297.584021 
L 393.510684 298.680028 
L 393.993262 297.306989 
L 394.475841 297.735626 
L 394.958419 297.348387 
L 395.440997 297.453928 
L 395.923576 298.394561 
L 396.406154 298.486954 
L 396.888732 298.446658 
L 397.37131 297.314089 
L 397.853889 298.470573 
L 398.336467 299.226188 
L 398.819045 298.117854 
L 399.301624 297.63981 
L 399.784202 300.417399 
L 400.26678 298.040588 
L 400.749358 297.774142 
L 401.231937 296.799134 
L 401.714515 298.456201 
L 402.197093 298.700283 
L 402.679672 297.654536 
L 403.16225 299.286326 
L 403.644828 297.865964 
L 404.127407 298.32561 
L 404.609985 297.629738 
L 405.092563 298.647646 
L 405.575141 297.245012 
L 406.05772 298.481532 
L 406.540298 297.392097 
L 407.022876 297.316383 
L 407.505455 299.639163 
L 407.505455 299.639163 
" style="fill:none;stroke:#1f77b4;stroke-linecap:square;stroke-width:1.5;"/>
   </g>
   <g id="patch_18">
    <path d="M 256 307.584 
L 256 189.312 
" style="fill:none;stroke:#000000;stroke-linecap:square;stroke-linejoin:miter;stroke-width:0.8;"/>
   </g>
   <g id="patch_19">
    <path d="M 414.72 307.584 
L 414.72 189.312 
" style="fill:none;stroke:#000000;stroke-linecap:square;stroke-linejoin:miter;stroke-width:0.8;"/>
   </g>
   <g id="patch_20">
    <path d="M 256 307.584 
L 414.72 307.584 
" style="fill:none;stroke:#000000;stroke-linecap:square;stroke-linejoin:miter;stroke-width:0.8;"/>
   </g>
   <g id="patch_21">
    <path d="M 256 189.312 
L 414.72 189.312 
" style="fill:none;stroke:#000000;stroke-linecap:square;stroke-linejoin:miter;stroke-width:0.8;"/>
   </g>
   <g id="text_36">
    <!-- val_loss -->
    <g transform="translate(311.875625 183.312)scale(0.12 -0.12)">
     <use xlink:href="#DejaVuSans-76"/>
     <use x="59.179688" xlink:href="#DejaVuSans-61"/>
     <use x="120.458984" xlink:href="#DejaVuSans-6c"/>
     <use x="148.242188" xlink:href="#DejaVuSans-5f"/>
     <use x="198.242188" xlink:href="#DejaVuSans-6c"/>
     <use x="226.025391" xlink:href="#DejaVuSans-6f"/>
     <use x="287.207031" xlink:href="#DejaVuSans-73"/>
     <use x="339.306641" xlink:href="#DejaVuSans-73"/>
    </g>
   </g>
  </g>
  <g id="text_37">
   <!-- solution 20171021_151150 -->
   <defs>
    <path d="M 8.5 21.578125 
L 8.5 54.6875 
L 17.484375 54.6875 
L 17.484375 21.921875 
Q 17.484375 14.15625 20.5 10.265625 
Q 23.53125 6.390625 29.59375 6.390625 
Q 36.859375 6.390625 41.078125 11.03125 
Q 45.3125 15.671875 45.3125 23.6875 
L 45.3125 54.6875 
L 54.296875 54.6875 
L 54.296875 0 
L 45.3125 0 
L 45.3125 8.40625 
Q 42.046875 3.421875 37.71875 1 
Q 33.40625 -1.421875 27.6875 -1.421875 
Q 18.265625 -1.421875 13.375 4.4375 
Q 8.5 10.296875 8.5 21.578125 
z
M 31.109375 56 
z
" id="DejaVuSans-75"/>
    <path d="M 18.3125 70.21875 
L 18.3125 54.6875 
L 36.8125 54.6875 
L 36.8125 47.703125 
L 18.3125 47.703125 
L 18.3125 18.015625 
Q 18.3125 11.328125 20.140625 9.421875 
Q 21.96875 7.515625 27.59375 7.515625 
L 36.8125 7.515625 
L 36.8125 0 
L 27.59375 0 
Q 17.1875 0 13.234375 3.875 
Q 9.28125 7.765625 9.28125 18.015625 
L 9.28125 47.703125 
L 2.6875 47.703125 
L 2.6875 54.6875 
L 9.28125 54.6875 
L 9.28125 70.21875 
z
" id="DejaVuSans-74"/>
    <path d="M 9.421875 54.6875 
L 18.40625 54.6875 
L 18.40625 0 
L 9.421875 0 
z
M 9.421875 75.984375 
L 18.40625 75.984375 
L 18.40625 64.59375 
L 9.421875 64.59375 
z
" id="DejaVuSans-69"/>
    <path d="M 54.890625 33.015625 
L 54.890625 0 
L 45.90625 0 
L 45.90625 32.71875 
Q 45.90625 40.484375 42.875 44.328125 
Q 39.84375 48.1875 33.796875 48.1875 
Q 26.515625 48.1875 22.3125 43.546875 
Q 18.109375 38.921875 18.109375 30.90625 
L 18.109375 0 
L 9.078125 0 
L 9.078125 54.6875 
L 18.109375 54.6875 
L 18.109375 46.1875 
Q 21.34375 51.125 25.703125 53.5625 
Q 30.078125 56 35.796875 56 
Q 45.21875 56 50.046875 50.171875 
Q 54.890625 44.34375 54.890625 33.015625 
z
" id="DejaVuSans-6e"/>
    <path id="DejaVuSans-20"/>
   </defs>
   <g transform="translate(148.289062 16.030125)scale(0.12 -0.12)">
    <use xlink:href="#DejaVuSans-73"/>
    <use x="52.099609" xlink:href="#DejaVuSans-6f"/>
    <use x="113.28125" xlink:href="#DejaVuSans-6c"/>
    <use x="141.064453" xlink:href="#DejaVuSans-75"/>
    <use x="204.443359" xlink:href="#DejaVuSans-74"/>
    <use x="243.652344" xlink:href="#DejaVuSans-69"/>
    <use x="271.435547" xlink:href="#DejaVuSans-6f"/>
    <use x="332.617188" xlink:href="#DejaVuSans-6e"/>
    <use x="395.996094" xlink:href="#DejaVuSans-20"/>
    <use x="427.783203" xlink:href="#DejaVuSans-32"/>
    <use x="491.40625" xlink:href="#DejaVuSans-30"/>
    <use x="555.029297" xlink:href="#DejaVuSans-31"/>
    <use x="618.652344" xlink:href="#DejaVuSans-37"/>
    <use x="682.275391" xlink:href="#DejaVuSans-31"/>
    <use x="745.898438" xlink:href="#DejaVuSans-30"/>
    <use x="809.521484" xlink:href="#DejaVuSans-32"/>
    <use x="873.144531" xlink:href="#DejaVuSans-31"/>
    <use x="936.767578" xlink:href="#DejaVuSans-5f"/>
    <use x="986.767578" xlink:href="#DejaVuSans-31"/>
    <use x="1050.390625" xlink:href="#DejaVuSans-35"/>
    <use x="1114.013672" xlink:href="#DejaVuSans-31"/>
    <use x="1177.636719" xlink:href="#DejaVuSans-31"/>
    <use x="1241.259766" xlink:href="#DejaVuSans-35"/>
    <use x="1304.882812" xlink:href="#DejaVuSans-30"/>
   </g>
  </g>
 </g>
 <defs>
  <clipPath id="p0a40d57e91">
   <rect height="118.272" width="158.72" x="57.6" y="41.472"/>
  </clipPath>
  <clipPath id="p225c251c19">
   <rect height="118.272" width="158.72" x="256" y="41.472"/>
  </clipPath>
  <clipPath id="p83e244c50f">
   <rect height="118.272" width="158.72" x="57.6" y="189.312"/>
  </clipPath>
  <clipPath id="pa8ae247669">
   <rect height="118.272" width="158.72" x="256" y="189.312"/>
  </clipPath>
 </defs>
</svg>
